<svg width="706" height="83" viewBox="0 0 706 83" fill="none" xmlns="http://www.w3.org/2000/svg">
<path d="M16.661 16.4946V32.9892H37.5473V49.5968H16.661V82.5859H-0.000244141V1.81432e-07H41.6581V16.4946H16.661Z" fill="#006837"/>
<path d="M90.7826 82.5856H74.2858C72.069 82.5996 69.8728 82.1624 67.8315 81.301C63.8625 79.6236 60.7044 76.4722 59.0262 72.5142C58.1569 70.4847 57.7181 68.2979 57.7374 66.0912V16.4948C57.7193 14.2882 58.158 12.1016 59.0262 10.0717C60.7044 6.11369 63.8625 2.96228 67.8315 1.28494C69.8728 0.423478 72.069 -0.0136475 74.2858 0.000324677H90.7826C92.9959 -0.012825 95.1887 0.424295 97.2267 1.28494C99.1922 2.11909 100.98 3.31891 102.495 4.8202C104.01 6.33443 105.23 8.1149 106.094 10.0717C106.993 12.0935 107.45 14.2831 107.434 16.4948V66.0912C107.451 68.3029 106.994 70.4927 106.094 72.5142C105.23 74.471 104.01 76.2515 102.495 77.7657C100.983 79.2702 99.1942 80.4704 97.2267 81.301C95.1887 82.1616 92.9959 82.5987 90.7826 82.5856ZM74.2858 66.0912H90.7826V16.4948H74.2858V66.0912Z" fill="#006837"/>
<path d="M173.201 41.3445C173.247 44.5489 172.323 47.6908 170.552 50.3471C168.821 52.9635 166.404 55.0386 163.572 56.3386L173.201 76.5842V82.5859H156.804V80.3353L146.231 57.839H140.478V82.5859H124.244V0.000324678H156.814C158.996 -0.0136475 161.157 0.423479 163.166 1.28494C165.097 2.11935 166.853 3.31922 168.34 4.82022C169.831 6.33446 171.031 8.11493 171.882 10.0717C172.77 12.0929 173.223 14.2825 173.211 16.4948L173.201 41.3445ZM140.519 41.3445H156.804V16.4948H140.478L140.519 41.3445Z" fill="#006837"/>
<path d="M206.393 16.4946V32.9892H226.908V49.5968H206.393V66.0914H230.948V82.5859H190.02V0H230.948V16.4946H206.393Z" fill="#006837"/>
<path d="M280.776 82.5852H264.303C262.09 82.5992 259.896 82.1619 257.858 81.3001C253.895 79.6222 250.741 76.4696 249.066 72.5101C248.198 70.4798 247.759 68.2922 247.779 66.0847V57.8601H264.252V66.0847H280.724V61.263L250.219 30.6163C249.429 29.853 248.804 28.9369 248.38 27.9241C247.957 26.9112 247.746 25.8228 247.758 24.7254V16.5008C247.74 14.2934 248.178 12.106 249.045 10.0754C249.874 8.11172 251.077 6.32752 252.587 4.82198C254.096 3.32044 255.878 2.12013 257.837 1.28541C259.876 0.423636 262.069 -0.0136505 264.282 0.000326822H280.755C282.966 -0.0136951 285.155 0.423621 287.19 1.28541C289.154 2.11742 290.94 3.31798 292.451 4.82198C293.963 6.33677 295.181 8.11789 296.044 10.0754C296.942 12.098 297.399 14.2884 297.383 16.5008V24.7254H280.776V16.5008H264.303V21.3225L294.994 51.9693C295.766 52.7405 296.385 53.651 296.816 54.6525C297.249 55.6663 297.466 56.7584 297.455 57.8601V66.0847C297.472 68.2972 297.015 70.4878 296.116 72.5101C295.254 74.4676 294.035 76.2488 292.523 77.7635C291.016 79.2716 289.229 80.4727 287.262 81.3001C285.211 82.1688 283.003 82.6063 280.776 82.5852Z" fill="#006837"/>
<path d="M363.18 16.4946H346.559V82.5859H330.011V16.4946H313.534V0H363.232L363.18 16.4946Z" fill="#006837"/>
<path d="M466.449 82.5856H449.921C447.711 82.5996 445.521 82.1625 443.485 81.301C441.518 80.4738 439.731 79.2732 438.223 77.7657C436.717 76.2574 435.514 74.4747 434.681 72.5142C433.817 70.4831 433.379 68.2974 433.393 66.0912V16.4948C433.38 14.2886 433.818 12.103 434.681 10.0717C436.357 6.11054 439.516 2.95825 443.485 1.28494C445.521 0.423465 447.711 -0.0136901 449.921 0.000326701H466.449C468.663 -0.0136455 470.857 0.42348 472.896 1.28494C474.856 2.11935 476.638 3.31921 478.148 4.8202C479.663 6.33402 480.885 8.11444 481.752 10.0717C482.646 12.0951 483.102 14.2836 483.091 16.4948V24.7163H466.449V16.4948H449.921V66.0912H466.449V57.8696H483.091V66.0912C483.103 68.3024 482.646 70.4912 481.752 72.5142C480.885 74.4715 479.663 76.2519 478.148 77.7657C476.641 79.2701 474.858 80.4704 472.896 81.301C470.857 82.1625 468.663 82.5996 466.449 82.5856Z" fill="#006837"/>
<path d="M536.557 0L557.637 73.1619V82.5859H541.044V75.5153L538.375 66.0914H518.999L516.329 75.5153V82.5859H499.9V73.1619L520.878 0H536.557ZM523.814 49.5968H533.662L528.743 32.4547L523.814 49.5968Z" fill="#006837"/>
<path d="M623.015 82.5859V53.5534L614.281 82.5859H598.826L590.081 53.5534V82.5859H573.716V0H591.308L606.548 51.0972L621.788 0H639.493V82.5859H623.015Z" fill="#006837"/>
<path d="M672.782 82.5859H656.302V0.000288103H689.365C691.576 -0.0128617 693.766 0.42426 695.802 1.28491C697.766 2.11907 699.552 3.31889 701.066 4.82019C702.578 6.33442 703.797 8.1149 704.66 10.0717C705.559 12.0935 706.015 14.2832 705.999 16.4948V41.3445C706.016 43.5595 705.56 45.7528 704.66 47.7779C703.794 49.7301 702.576 51.5067 701.066 53.0191C699.555 54.5236 697.768 55.7238 695.802 56.5544C693.768 57.4198 691.576 57.8571 689.365 57.839H672.834L672.782 82.5859ZM672.782 41.3445H689.313V16.4948H672.782V41.3445Z" fill="#006837"/>
</svg>
