<svg width="21" height="20" viewBox="0 0 21 20" fill="none" xmlns="http://www.w3.org/2000/svg">
<path d="M19.7647 18H1.23529C0.535294 18 0 18.4333 0 19C0 19.5667 0.535294 20 1.23529 20H19.7647C20.4647 20 21 19.5667 21 19C21 18.4333 20.4647 18 19.7647 18Z" fill="white"/>
<path d="M19.5 2H1.21875C0.528125 2 0 1.56667 0 1C0 0.433333 0.528125 0 1.21875 0H19.5C20.1906 0 20.7188 0.433333 20.7188 1C20.7188 1.56667 20.1906 2 19.5 2Z" fill="white"/>
<path d="M19.5 11H1.21875C0.528125 11 0 10.5667 0 10C0 9.43333 0.528125 9 1.21875 9H19.5C20.1906 9 20.7188 9.43333 20.7188 10C20.7188 10.5667 20.1906 11 19.5 11Z" fill="white"/>
</svg>
