<svg width="19" height="21" viewBox="0 0 19 21" fill="none" xmlns="http://www.w3.org/2000/svg">
<path d="M3.61811 0.0100021C3.88811 0.0100021 4.14815 0.0100021 4.40815 0.0100021C4.66815 0.0100021 4.7681 0.0900006 4.8581 0.360001C5.2981 1.83 5.74818 3.36 6.18818 4.79C6.21874 4.84319 6.2378 4.90219 6.24421 4.9632C6.25062 5.02421 6.24425 5.08588 6.22541 5.14427C6.20658 5.20265 6.17569 5.25645 6.13484 5.30222C6.09398 5.34798 6.04399 5.38469 5.98811 5.41L4.31806 6.64C4.22413 6.73346 4.13733 6.83373 4.05818 6.94C3.59818 7.48 3.27811 7.94 3.23811 8C2.88811 8.55 3.38815 10.61 5.65815 13.34C6.03815 13.79 9.95815 18.41 11.6582 17.34C12.1114 16.9588 12.4823 16.4893 12.7481 15.96C13.0881 15.32 13.4981 14.72 13.8681 14.1C13.8873 14.0513 13.9166 14.0073 13.954 13.9707C13.9915 13.9342 14.0363 13.906 14.0854 13.8881C14.1345 13.8701 14.1869 13.8628 14.2391 13.8666C14.2913 13.8703 14.3421 13.8851 14.3881 13.91L18.4581 15.4C18.5391 15.4221 18.6105 15.4704 18.6612 15.5373C18.7119 15.6042 18.7389 15.6861 18.7381 15.77C18.7682 16.5438 18.7483 17.3188 18.6782 18.09C18.6007 18.7915 18.2709 19.4409 17.7503 19.9174C17.2297 20.3938 16.5537 20.6649 15.8481 20.68C12.347 20.6795 8.96215 19.4235 6.30818 17.14C3.28374 14.5942 1.21397 11.0964 0.43818 7.22C0.153693 5.90564 0.0094985 4.56479 0.00812635 3.22C-0.0218323 2.81376 0.0312362 2.40567 0.164132 2.02061C0.297028 1.63556 0.506926 1.2816 0.781076 0.980316C1.05523 0.679032 1.38789 0.436736 1.75874 0.268196C2.12958 0.0996561 2.53092 0.00840155 2.93818 0L3.61811 0.0100021Z" fill="white"/>
</svg>
