<svg width="129" height="109" viewBox="0 0 129 109" fill="none" xmlns="http://www.w3.org/2000/svg">
<g clip-path="url(#clip0)">
<path d="M129 33.0669C127.844 32.735 126.687 32.1217 125.526 32.1116C117.265 32.0261 109 32.0563 100.74 32.0563C99.9201 32.0563 99.0955 32.0563 98.3615 32.0563C98.5727 30.1558 98.6732 28.4163 99 26.722C99.1157 26.1136 99.6687 25.4801 100.192 25.0779C103.927 22.187 103.892 17.9185 100.171 14.9623C99.5329 14.4545 99.0302 13.3987 99 12.5742C98.7034 4.82152 93.8416 0.0351935 86.0789 0.0150829C78.4822 -0.00502765 70.8904 -0.00502765 63.2936 0.0150829C56.1192 0.0351935 50.9407 5.11815 50.8904 12.2624C50.8804 13.63 50.5435 14.4495 49.357 15.2991C46.1996 17.5566 45.898 22.0261 48.8794 24.3489C50.4731 25.5907 51.0312 26.7974 50.9558 28.6878C50.9156 29.7235 51.3831 30.7793 51.6798 32.0664C49.6235 32.0664 47.6526 32.0664 45.6768 32.0664C36.4963 32.0664 27.3158 32.1166 18.1353 32.0312C15.9885 32.011 14.993 32.735 14.5657 34.8768C13.0423 42.4786 11.3027 50.0402 9.77431 57.642C9.29668 60.0251 8.55259 62.1367 6.51136 63.5746C1.6999 66.9633 0.146362 71.4781 0.674255 77.3403C1.20216 83.2177 0.8452 89.1805 0.759735 95.1081C0.729568 97.3856 1.64963 98.3509 3.89196 98.19C4.80699 98.1246 5.72705 98.2101 6.64711 98.1699C10.1966 97.999 13.1579 97.7526 14.8723 102.428C16.4963 106.863 21.0916 108.547 25.903 108.12C30.6089 107.702 33.9473 105.148 35.8779 100.824C36.2147 100.07 36.441 99.2659 36.8281 98.185C37.728 98.185 38.6984 98.185 39.6687 98.185C54.6913 98.185 69.714 98.2101 84.7315 98.1498C86.3907 98.1448 87.1498 98.5218 87.7079 100.226C89.3168 105.108 93.9271 108.21 98.995 108.195C104.053 108.18 108.608 105.053 110.232 100.141C110.76 98.547 111.433 98.1096 113.012 98.1498C117.265 98.2554 121.524 98.2503 125.777 98.1397C126.858 98.1096 127.924 97.5163 128.995 97.1794C129 75.8019 129 54.4344 129 33.0669ZM124.892 94.1729C120.694 94.1729 116.778 94.1076 112.866 94.2031C111.378 94.2383 110.765 93.7958 110.272 92.3077C108.588 87.2649 104.018 84.1226 98.8592 84.1629C93.8165 84.1981 89.2665 87.3454 87.6677 92.2624C87.1348 93.9064 86.3806 94.2081 84.8522 94.2031C70.9256 94.1528 56.999 94.1779 43.0724 94.1679C42.3635 94.1679 41.6546 94.0623 41.0211 94.012C41.0211 74.5902 41.0211 55.4399 41.0211 36.2443C69.0553 36.2443 96.9387 36.2443 124.897 36.2443C124.892 55.5706 124.892 74.7159 124.892 94.1729ZM4.91257 82.1568C5.95329 82.1568 6.70242 82.1619 7.45154 82.1568C10.4078 82.1216 10.7899 81.7496 10.8201 78.8436C10.8351 77.4258 10.815 76.008 10.815 74.5902C10.815 70.2865 10.815 70.2916 6.60689 70.0955C6.49628 70.0905 6.3907 69.9145 5.78236 69.3715C6.89849 68.4665 7.95933 67.5565 9.08049 66.7119C11.9865 64.5249 13.168 61.5284 13.8216 58.0141C15.174 50.734 16.8633 43.5193 18.4219 36.2494C24.631 36.2494 30.6692 36.2494 36.7828 36.2494C36.7828 55.2338 36.7828 74.0422 36.7828 93.5344C36.3555 92.5942 36.1996 92.2574 36.0488 91.9105C32.4943 83.8361 23.726 81.7094 16.8382 87.2398C16.4007 87.5917 15.8829 88.0895 15.3952 88.0995C11.9261 88.1749 8.45204 88.1397 4.92263 88.1397C4.91257 86.0281 4.91257 84.2282 4.91257 82.1568ZM94.8019 13.9065C90.5485 13.9065 86.4359 13.9065 82.8914 13.9065C82.5495 12.549 82.4389 11.4077 81.9311 10.4827C81.7501 10.1508 80.1212 10.0855 79.9905 10.3419C79.4374 11.3977 79.1961 12.6244 78.7889 13.9568C75.6315 13.9568 71.9865 13.9568 68.7838 13.9568C68.5274 12.6747 68.4922 11.4882 67.9945 10.543C67.8135 10.1961 66.0136 10.1458 65.8678 10.4374C65.3449 11.448 65.2192 12.6646 64.9276 13.8562C61.901 13.8562 58.442 13.8562 54.9679 13.8562C54.6209 10.2815 55.5008 7.45098 57.8537 5.90246C59.3319 6.74208 60.5234 7.98391 61.3982 7.79286C63.3841 7.36048 62.9819 5.65108 62.1725 4.09251C66.0387 4.09251 69.6938 4.09251 72.8914 4.09251C73.2233 5.39467 73.3741 6.59125 73.8819 7.61186C74.0226 7.89341 75.6667 7.90849 75.8125 7.62695C76.3404 6.61136 76.5264 5.41478 76.8934 4.07742C80.0357 4.07742 83.6958 4.07742 86.5365 4.07742C87.2253 5.61086 87.7381 6.75213 88.2509 7.89341C89.352 7.28506 90.448 6.67169 91.8557 5.89241C94.2489 7.57164 95.1187 9.56259 94.8019 13.9065ZM74.9427 18.0392C81.9412 18.0392 88.9397 18.0493 95.9382 18.0292C97.3761 18.0241 98.8039 18.175 98.8592 19.9447C98.9246 21.9155 97.3962 22.0462 95.8778 22.0412C91.0463 22.0312 86.2147 22.0412 81.3781 22.0412C72.2127 22.0412 63.0473 22.0412 53.8819 22.0261C51.6597 22.0211 50.2419 20.7441 51.0966 19.457C51.6044 18.6928 52.9568 18.1146 53.9372 18.0995C60.9457 17.9839 67.9442 18.0392 74.9427 18.0392ZM106.949 96.2242C106.924 100.724 103.268 104.253 98.7285 104.168C94.4852 104.087 91.001 100.543 90.9558 96.2644C90.9105 91.7848 94.5958 88.1146 99.0654 88.19C103.48 88.2654 106.974 91.825 106.949 96.2242ZM24.8522 88.1699C29.2062 88.1749 32.8211 91.7797 32.8412 96.1287C32.8613 100.488 29.2967 104.123 24.9427 104.178C20.4681 104.233 16.7879 100.568 16.8281 96.0985C16.8734 91.7345 20.4882 88.1649 24.8522 88.1699ZM76.5918 32.0211C82.5646 29.6732 87.7532 24.907 94.8019 26.2393C95.0533 29.8341 93.9975 31.8652 91.4233 31.9658C86.4862 32.1568 81.534 32.0211 76.5918 32.0211ZM73.3188 31.4429C73.2886 31.6491 73.2534 31.8602 73.2233 32.0664C68.7486 32.0664 64.269 32.0965 59.7944 32.0563C55.9684 32.0261 54.5807 30.2916 55.1187 26.1941C62.092 24.9271 67.2454 29.7235 73.3188 31.4429ZM13.3238 92.1719C12.7004 94.3187 9.99553 94.7813 4.14334 93.7556C5.09357 92.9914 5.58125 92.2624 6.11418 92.2322C8.43192 92.0965 10.7597 92.1719 13.3238 92.1719ZM6.74264 78.3911C5.89296 78.0342 4.96787 77.8682 4.93268 77.5867C4.79694 76.556 4.88241 75.4701 5.07848 74.4444C5.10865 74.2785 6.12424 74.2986 6.74264 74.2282C6.74264 75.636 6.74264 76.7018 6.74264 78.3911ZM71.5541 26.1589C73.912 26.1589 75.8477 26.1589 77.9342 26.1589C75.1438 28.1599 74.9678 28.1649 71.5541 26.1589Z" fill="black"/>
<path d="M109.216 50.2269C115.053 49.8799 115.053 51.0262 114.983 44.0026C114.948 40.2369 114.807 40.0911 110.966 40.0911C90.7748 40.0861 70.5787 40.0811 50.3877 40.0811C47.2856 40.0811 46.8834 40.4782 46.8582 43.5049C46.8029 49.4174 46.8029 49.4174 52.8814 50.4179C52.8814 56.3606 52.8814 62.3485 52.8814 68.3364C52.8814 70.0911 52.8814 71.8407 52.8814 73.5954C52.8814 74.8121 53.0875 76.0237 51.6345 76.7829C51.1971 77.0091 50.8351 78.3013 51.0815 78.6984C51.4887 79.3571 52.4088 80.0559 53.1428 80.0911C56.3052 80.247 59.4827 80.1766 62.6501 80.1766C77.5872 80.1766 92.5194 80.1816 107.457 80.1615C108.271 80.1615 109.236 80.2168 109.875 79.8297C111.318 78.9448 111.313 77.7784 110.101 76.5315C109.598 76.0137 109.025 75.2595 109.02 74.6059C108.955 66.7628 108.99 58.9197 109.01 51.0765C109.01 50.8352 109.121 50.6039 109.216 50.2269ZM56.9538 50.2922C73.0774 50.2922 88.9548 50.2922 104.832 50.2922C104.832 58.9649 104.832 67.4415 104.832 75.9735C103.5 75.9735 102.313 75.9735 100.951 75.9735C100.951 72.8111 101.107 69.8045 100.86 66.8332C100.785 65.888 99.6989 64.983 98.9749 64.1484C96.994 61.8508 95.1891 62.072 92.8411 64.0177C91.7049 64.9579 90.9005 65.5411 90.9206 67.0393C90.9608 70.0207 90.9357 73.0021 90.9357 75.9885C90.6692 76.1193 90.4027 76.25 90.1363 76.3807C89.7341 75.8578 89.0654 75.3651 88.99 74.797C88.819 73.4848 89.0402 72.1273 88.9246 70.8C88.6883 68.1052 90.262 64.6059 85.903 63.6255C85.7974 63.6004 85.7572 63.3339 85.6566 63.2032C84.5003 61.7351 83.354 61.7603 82.1825 63.2032C81.8959 63.5552 81.5189 64.0428 81.1468 64.0831C79.0855 64.2992 78.8844 65.6819 78.9045 67.3158C78.9347 70.2067 78.9146 73.0976 78.9146 76.0338C77.4565 76.0338 76.3253 76.0338 74.9125 76.0338C74.9125 72.9468 74.8623 69.9654 74.9276 66.989C74.9729 64.9931 74.1584 64.068 72.1172 64.1082C69.1157 64.1685 66.1091 64.1233 63.1076 64.1233C61.0664 64.1233 59.0201 64.1233 56.9538 64.1233C56.9538 59.2967 56.9538 54.8925 56.9538 50.2922ZM51.0915 45.9785C50.3977 43.6809 52.0166 44.1032 53.1378 44.1032C64.1383 44.0881 75.1438 44.0931 86.1443 44.0931C93.731 44.0931 101.313 44.0831 108.899 44.0981C110.946 44.1032 110.946 44.1333 110.559 45.9785C90.7496 45.9785 70.9357 45.9785 51.0915 45.9785ZM57.3057 70.076C57.1046 69.8297 56.9035 69.5783 56.6974 69.3319C57.2705 68.9297 57.8286 68.2007 58.4118 68.1856C62.0619 68.08 65.722 68.1555 69.3771 68.1203C70.9709 68.1052 71.2323 68.7387 70.5536 70.076C66.089 70.076 61.6999 70.076 57.3057 70.076ZM57.1649 76.1394C57.0141 75.9081 56.8633 75.6718 56.7175 75.4405C57.2001 75.0132 57.6727 74.2238 58.1654 74.2087C62.0015 74.1032 65.8376 74.1233 69.6737 74.1836C70.0759 74.1886 70.4731 74.7366 70.8703 75.0383C70.458 75.4053 70.0508 76.0841 69.6335 76.0891C65.4756 76.1746 61.3228 76.1394 57.1649 76.1394ZM96.8834 75.6969C96.6722 75.9131 96.456 76.1293 96.2449 76.3455C95.8125 75.8628 95.0533 75.4104 95.0081 74.8925C94.8572 73.0826 94.8421 71.2424 95.0131 69.4375C95.0634 68.9197 95.903 68.4772 96.3806 67.9946C96.5465 68.1705 96.7175 68.3465 96.8834 68.5225C96.8834 70.9156 96.8834 73.3088 96.8834 75.6969ZM82.9266 76.0237C82.9266 73.7361 82.9518 71.6748 82.9166 69.6185C82.8864 67.9946 83.5852 67.8186 84.817 68.4621C85.2745 75.536 85.2142 75.8327 82.9266 76.0237Z" fill="black"/>
<path d="M34.8673 51.0604C34.8673 47.6466 34.8372 44.2329 34.8774 40.8241C34.9025 38.9538 34.1132 38.0539 32.2027 38.074C28.8744 38.1142 25.5461 38.1192 22.2127 38.074C20.5486 38.0488 19.5782 38.6572 19.2313 40.3766C17.8387 47.3098 16.3706 54.2228 14.9578 61.1509C14.5808 62.996 15.345 64.0971 17.2856 64.1122C22.3636 64.1474 27.4415 64.1423 32.5144 64.1222C34.1836 64.1172 34.8623 63.1469 34.8522 61.5481C34.8372 58.0539 34.8472 54.5546 34.8472 51.0604C34.8573 51.0604 34.8623 51.0604 34.8673 51.0604ZM30.6642 42.1765C30.6642 48.2198 30.6642 54.072 30.6642 59.9241C26.803 59.9241 23.1328 59.9241 19.3118 59.9241C20.5586 53.8709 21.7603 48.0388 22.9669 42.1765C25.6215 42.1765 28.0247 42.1765 30.6642 42.1765Z" fill="black"/>
<path d="M98.9598 102.187C102.253 102.197 104.988 99.4268 104.953 96.1186C104.923 92.9261 102.253 90.2262 99.0805 90.1709C95.7823 90.1106 92.9869 92.8255 92.9467 96.1236C92.9065 99.4017 95.6566 102.177 98.9598 102.187ZM96.094 96.1588C97.4766 95.2488 98.2811 94.3087 99.0503 94.3338C99.6938 94.3539 100.911 95.6611 100.79 96.1186C100.589 96.908 99.6184 97.8682 98.8291 98.0241C98.2358 98.1397 97.4163 97.1091 96.094 96.1588Z" fill="black"/>
<path d="M24.7265 90.1857C21.4183 90.2511 18.7436 93.0515 18.8442 96.3597C18.9447 99.6679 21.7703 102.302 25.0785 102.177C28.2861 102.051 30.8603 99.3511 30.8351 96.1334C30.805 92.8152 28.0398 90.1204 24.7265 90.1857ZM24.8924 99.0294C23.9271 97.7272 22.8814 96.9077 22.992 96.3144C23.1428 95.5201 24.1031 94.5648 24.9025 94.3386C25.3399 94.2129 26.6572 95.4296 26.6823 96.0781C26.7125 96.8423 25.7874 97.6518 24.8924 99.0294Z" fill="black"/>
<path d="M60.9005 57.2044C60.9005 58.1145 60.6441 59.1351 60.9658 59.9144C61.3127 60.754 62.2026 61.3724 62.8562 62.0913C63.5299 61.3975 64.6662 60.7791 64.7868 59.9998C65.0734 58.1346 65.0734 56.1688 64.7969 54.3035C64.6813 53.5091 63.5802 52.8606 62.9266 52.1416C62.2529 52.8354 61.3027 53.4186 60.9759 54.2482C60.639 55.1079 60.9055 56.209 60.9005 57.2044Z" fill="black"/>
<path d="M68.9146 58.22C68.9196 58.7982 68.7034 59.5121 68.9648 59.9294C69.4626 60.7338 70.2318 61.3774 70.8854 62.0863C71.5591 61.3924 72.5546 60.8042 72.821 59.9797C73.1579 58.9289 73.1629 57.6066 72.8311 56.5508C72.5445 55.6408 71.5943 54.9369 70.9357 54.1426C70.262 54.9219 69.4827 55.6358 68.9598 56.5056C68.6984 56.9329 68.9095 57.6418 68.9146 58.22Z" fill="black"/>
</g>
<defs>
<clipPath id="clip0">
<rect width="128.421" height="108.19" fill="white" transform="matrix(-1 0 0 1 129 0)"/>
</clipPath>
</defs>
</svg>
