<svg width="24" height="21" viewBox="0 0 24 21" fill="none" xmlns="http://www.w3.org/2000/svg">
<path d="M0.075 3.46667C0.226227 2.7304 0.597983 2.07302 1.12938 1.60218C1.66078 1.13134 2.32033 0.874949 3 0.875H21C21.6797 0.874949 22.3392 1.13134 22.8706 1.60218C23.402 2.07302 23.7738 2.7304 23.925 3.46667L12 11.565L0.075 3.46667ZM0 5.37V17.21L8.7045 11.28L0 5.37ZM10.1415 12.2583L0.2865 18.97C0.52999 19.5405 0.91429 20.0224 1.39467 20.3596C1.87505 20.6969 2.43176 20.8756 3 20.875H21C21.5681 20.8751 22.1246 20.696 22.6048 20.3585C23.0849 20.0209 23.4688 19.5389 23.712 18.9683L13.857 12.2567L12 13.5183L10.1415 12.2567V12.2583ZM15.2955 11.2817L24 17.21V5.37L15.2955 11.28V11.2817Z" fill="currentColor"/>
</svg>
