<svg width="25" height="25" viewBox="0 0 25 25" fill="none" xmlns="http://www.w3.org/2000/svg">
<path d="M17.67 24.29H6.67004L6.22998 24.23C5.46998 24.11 4.70997 24.04 3.96997 23.87C3.14188 23.7095 2.37707 23.3153 1.76575 22.7341C1.15442 22.1529 0.722159 21.4089 0.52002 20.59C0.39185 20.1224 0.288315 19.6485 0.209961 19.17C0.119961 18.57 0.07 17.96 1.26192e-10 17.35V6.94C1.26192e-10 6.8 -5.37112e-05 6.65 0.0699463 6.5C0.169946 5.78 0.219985 5.05001 0.359985 4.34001C0.476694 3.43715 0.860997 2.58988 1.46338 1.9073C2.06576 1.22472 2.85865 0.738077 3.73999 0.51001C4.20633 0.379387 4.68071 0.279173 5.16003 0.210007C5.77003 0.120007 6.39001 0.07 7.01001 0H17.35L17.83 0.0700073C18.55 0.170007 19.28 0.220001 19.99 0.360001C20.8795 0.474683 21.7152 0.850262 22.3915 1.43935C23.0678 2.02843 23.5544 2.80464 23.79 3.67001C23.8866 3.97813 23.9635 4.29209 24.02 4.61C24.12 5.29 24.2 5.98 24.3 6.66V17.66C24.2 18.37 24.13 19.08 24.01 19.78C23.917 20.7057 23.5478 21.5822 22.9504 22.2955C22.3531 23.0088 21.5551 23.526 20.66 23.78C20.3318 23.8775 19.9978 23.9543 19.66 24.01C19.04 24.1 18.36 24.2 17.67 24.29ZM13.59 10.1C13.59 9.51001 13.59 8.92 13.59 8.33C13.59 7.89 13.44 7.75 12.99 7.75C12.14 7.75 11.2801 7.75 10.4301 7.75C10.3318 7.75108 10.235 7.77409 10.1467 7.81734C10.0585 7.86059 9.98108 7.92299 9.92004 8C9.89695 8.08995 9.89574 8.18414 9.91663 8.27463C9.93751 8.36512 9.97987 8.44927 10.04 8.52C10.4072 8.9735 10.5926 9.54739 10.5601 10.13C10.5601 10.88 10.5601 11.63 10.5601 12.38C10.5601 12.64 10.67 13 10.34 13.12C10.01 13.24 9.79 12.96 9.63 12.74C9.13384 12.0743 8.68285 11.376 8.28003 10.65C7.90593 9.89489 7.57212 9.12047 7.28003 8.33C7.08003 7.86 6.92004 7.74001 6.42004 7.74001H4.81995C4.21995 7.74001 4.06005 7.96 4.18005 8.55C4.18005 8.75 4.27997 8.95001 4.33997 9.15001C5.0544 11.2804 6.16754 13.2555 7.62 14.97C8.32648 15.8203 9.22906 16.486 10.25 16.91C11.1204 17.3028 12.0851 17.4381 13.03 17.3C13.47 17.23 13.6 17.07 13.6 16.62C13.6 16.17 13.6 15.53 13.6 14.99C13.6 14.45 13.82 14.38 14.26 14.51C14.5018 14.5825 14.7287 14.6977 14.9301 14.85C15.3901 15.24 15.83 15.65 16.26 16.07C16.69 16.49 16.82 16.72 17.14 16.99C17.3442 17.175 17.5979 17.2967 17.87 17.34C18.4928 17.375 19.1171 17.375 19.74 17.34C20.25 17.34 20.47 17.01 20.26 16.55C20.0903 16.1699 19.8718 15.8136 19.61 15.49C19 14.78 18.35 14.1 17.72 13.41C17.32 12.98 17.32 12.84 17.64 12.35C18.21 11.49 18.7801 10.64 19.3101 9.76001C19.5607 9.34554 19.7684 8.9066 19.9301 8.45001C20.1101 7.97001 19.93 7.74001 19.42 7.73001H17.76C17.558 7.7278 17.3601 7.78681 17.1923 7.89926C17.0245 8.01172 16.8947 8.17234 16.8199 8.36C16.3699 9.25 15.9 10.14 15.37 10.99C15.0825 11.4261 14.7471 11.8286 14.37 12.19C14.304 12.2556 14.2233 12.3044 14.1345 12.3323C14.0458 12.3601 13.9516 12.3662 13.86 12.35C13.74 12.3 13.66 12.03 13.65 11.86C13.57 11.26 13.59 10.67 13.59 10.1Z" fill="currentColor"/>
</svg>
