<svg width="25" height="25" viewBox="0 0 25 25" fill="none" xmlns="http://www.w3.org/2000/svg">
<path d="M12.0705 24.12H7.07048C5.4725 24.104 3.9261 23.5524 2.67876 22.5534C1.43141 21.5544 0.555342 20.1659 0.190598 18.61C0.0573099 18.0567 -0.00657863 17.489 0.000534686 16.92C0.000534686 15.15 0.000534686 13.38 0.000534686 11.61C0.000534686 10.03 0.000534686 8.46 0.000534686 6.89C0.00865177 6.50681 0.0521751 6.12518 0.13054 5.75C0.321319 4.74043 0.73199 3.78523 1.33342 2.95221C1.93485 2.11919 2.71227 1.42878 3.61052 0.929993C4.05721 0.669513 4.53413 0.464657 5.03056 0.319992C5.71066 0.109063 6.41849 0.00120776 7.13054 0H17.1305C18.6887 0.01181 20.1985 0.543198 21.4206 1.50999C22.2165 2.1318 22.8709 2.91583 23.3405 3.81C23.8017 4.67226 24.0712 5.62396 24.1305 6.59999C24.1305 6.94999 24.1305 7.29999 24.1305 7.64999C24.1305 10.76 24.1305 13.87 24.1305 16.98C24.1285 18.6422 23.5458 20.2516 22.4831 21.5297C21.4204 22.8079 19.9445 23.6746 18.3106 23.98C17.892 24.06 17.4667 24.1002 17.0406 24.1H12.0406L12.0705 24.12ZM22.1906 12.12V11.42C22.1906 10.22 22.1906 9.01999 22.1906 7.81999C22.1886 7.05977 22.032 6.30789 21.7305 5.61C21.4061 4.85681 20.9334 4.17663 20.3405 3.61C19.2533 2.55292 17.797 1.96105 16.2806 1.95999H7.88054C7.39087 1.9579 6.90319 2.02181 6.43059 2.14999C5.66345 2.35246 4.94409 2.70507 4.31413 3.18741C3.68418 3.66974 3.1561 4.27222 2.76054 4.95999C2.26237 5.81053 1.99035 6.7745 1.97051 7.75999C1.97051 8.33999 1.97051 8.90999 1.97051 9.48999C1.97051 11.71 1.97051 13.92 1.97051 16.14C1.97469 16.4744 1.99813 16.8083 2.04057 17.14C2.18494 18.1482 2.59956 19.0985 3.24053 19.89C3.77931 20.5951 4.47197 21.1679 5.26567 21.5647C6.05937 21.9616 6.93313 22.172 7.82048 22.18C9.20048 22.18 10.5905 22.18 11.9705 22.18H16.2005C16.4503 22.1949 16.7007 22.1949 16.9505 22.18C17.9138 22.0777 18.8357 21.7338 19.6305 21.18C20.9041 20.3081 21.7868 18.9733 22.0905 17.46C22.1572 17.178 22.1941 16.8897 22.2005 16.6C22.1905 15.12 22.1906 13.6 22.1906 12.12Z" fill="#006837"/>
<path d="M12.0706 18.89C10.722 18.89 9.40385 18.4895 8.2831 17.7395C7.16235 16.9894 6.28952 15.9234 5.77529 14.6767C5.26105 13.43 5.12853 12.0587 5.39455 10.7366C5.66057 9.41455 6.31315 8.20122 7.26955 7.25044C8.22595 6.29965 9.44311 5.65424 10.7667 5.39601C12.0904 5.13777 13.4608 5.27835 14.7045 5.79992C15.9481 6.32149 17.009 7.20057 17.7525 8.32572C18.4959 9.45087 18.8886 10.7714 18.8806 12.12C18.8701 13.9192 18.1479 15.6411 16.872 16.9096C15.596 18.178 13.8698 18.89 12.0706 18.89ZM12.0706 16.84C13.012 16.8439 13.9336 16.5686 14.7185 16.0489C15.5035 15.5291 16.1167 14.7883 16.4806 13.9201C16.8445 13.0518 16.9427 12.0951 16.763 11.171C16.5832 10.2469 16.1334 9.39686 15.4705 8.72837C14.8076 8.05989 13.9614 7.60299 13.0388 7.41545C12.1163 7.2279 11.1588 7.31813 10.2875 7.67474C9.41621 8.03135 8.67026 8.63831 8.14394 9.41888C7.61762 10.1994 7.33455 11.1186 7.33058 12.06C7.32525 13.319 7.81902 14.5288 8.70363 15.4247C9.58824 16.3205 10.7917 16.8294 12.0507 16.84H12.0706Z" fill="#006837"/>
<path d="M18.8806 7.20999C18.3915 7.1748 17.9337 6.95565 17.5996 6.59664C17.2655 6.23764 17.0798 5.76541 17.0798 5.27499C17.0798 4.78456 17.2655 4.31234 17.5996 3.95333C17.9337 3.59433 18.3915 3.37518 18.8806 3.33999C19.1464 3.32087 19.4133 3.35671 19.6647 3.44529C19.916 3.53387 20.1463 3.67329 20.3414 3.85484C20.5365 4.03639 20.6921 4.25619 20.7985 4.50053C20.9048 4.74487 20.9598 5.0085 20.9598 5.27499C20.9598 5.54148 20.9048 5.80511 20.7985 6.04945C20.6921 6.29379 20.5365 6.51359 20.3414 6.69514C20.1463 6.87669 19.916 7.01611 19.6647 7.10469C19.4133 7.19327 19.1464 7.22911 18.8806 7.20999ZM18.8806 6.20999C19.1193 6.20999 19.3482 6.11517 19.517 5.94639C19.6858 5.77761 19.7806 5.54869 19.7806 5.30999C19.7806 5.0713 19.6858 4.84238 19.517 4.6736C19.3482 4.50481 19.1193 4.40998 18.8806 4.40998C18.7621 4.40864 18.6445 4.43101 18.5347 4.47576C18.4249 4.52052 18.3251 4.58676 18.2412 4.6706C18.1574 4.75445 18.0911 4.8542 18.0464 4.964C18.0016 5.0738 17.9793 5.19143 17.9806 5.30999C17.9908 5.54262 18.0899 5.76247 18.2573 5.92431C18.4247 6.08615 18.6478 6.17765 18.8806 6.17999V6.20999Z" fill="#006837"/>
</svg>
