<?xml version="1.0" encoding="UTF-8"?><!DOCTYPE svg PUBLIC "-//W3C//DTD SVG 1.1//EN" "http://www.w3.org/Graphics/SVG/1.1/DTD/svg11.dtd"><svg xmlns="http://www.w3.org/2000/svg" xmlns:xlink="http://www.w3.org/1999/xlink"><symbol id="instagram" viewBox="0 0 25 25">
<path d="M12.0705 24.12H7.07048C5.4725 24.104 3.9261 23.5524 2.67876 22.5534C1.43141 21.5544 0.555342 20.1659 0.190598 18.61C0.0573099 18.0567 -0.00657863 17.489 0.000534686 16.92C0.000534686 15.15 0.000534686 13.38 0.000534686 11.61C0.000534686 10.03 0.000534686 8.46 0.000534686 6.89C0.00865177 6.50681 0.0521751 6.12518 0.13054 5.75C0.321319 4.74043 0.73199 3.78523 1.33342 2.95221C1.93485 2.11919 2.71227 1.42878 3.61052 0.929993C4.05721 0.669513 4.53413 0.464657 5.03056 0.319992C5.71066 0.109063 6.41849 0.00120776 7.13054 0H17.1305C18.6887 0.01181 20.1985 0.543198 21.4206 1.50999C22.2165 2.1318 22.8709 2.91583 23.3405 3.81C23.8017 4.67226 24.0712 5.62396 24.1305 6.59999C24.1305 6.94999 24.1305 7.29999 24.1305 7.64999C24.1305 10.76 24.1305 13.87 24.1305 16.98C24.1285 18.6422 23.5458 20.2516 22.4831 21.5297C21.4204 22.8079 19.9445 23.6746 18.3106 23.98C17.892 24.06 17.4667 24.1002 17.0406 24.1H12.0406L12.0705 24.12ZM22.1906 12.12V11.42C22.1906 10.22 22.1906 9.01999 22.1906 7.81999C22.1886 7.05977 22.032 6.30789 21.7305 5.61C21.4061 4.85681 20.9334 4.17663 20.3405 3.61C19.2533 2.55292 17.797 1.96105 16.2806 1.95999H7.88054C7.39087 1.9579 6.90319 2.02181 6.43059 2.14999C5.66345 2.35246 4.94409 2.70507 4.31413 3.18741C3.68418 3.66974 3.1561 4.27222 2.76054 4.95999C2.26237 5.81053 1.99035 6.7745 1.97051 7.75999C1.97051 8.33999 1.97051 8.90999 1.97051 9.48999C1.97051 11.71 1.97051 13.92 1.97051 16.14C1.97469 16.4744 1.99813 16.8083 2.04057 17.14C2.18494 18.1482 2.59956 19.0985 3.24053 19.89C3.77931 20.5951 4.47197 21.1679 5.26567 21.5647C6.05937 21.9616 6.93313 22.172 7.82048 22.18C9.20048 22.18 10.5905 22.18 11.9705 22.18H16.2005C16.4503 22.1949 16.7007 22.1949 16.9505 22.18C17.9138 22.0777 18.8357 21.7338 19.6305 21.18C20.9041 20.3081 21.7868 18.9733 22.0905 17.46C22.1572 17.178 22.1941 16.8897 22.2005 16.6C22.1905 15.12 22.1906 13.6 22.1906 12.12Z" fill="currentColor"/>
<path d="M12.0706 18.8895C10.722 18.8895 9.40385 18.4891 8.2831 17.739C7.16235 16.9889 6.28952 15.923 5.77529 14.6763C5.26105 13.4296 5.12853 12.0583 5.39455 10.7362C5.66057 9.41409 6.31315 8.20076 7.26955 7.24998C8.22595 6.2992 9.44311 5.65378 10.7667 5.39555C12.0904 5.13732 13.4608 5.27789 14.7045 5.79946C15.9481 6.32103 17.009 7.20012 17.7525 8.32527C18.4959 9.45041 18.8886 10.771 18.8806 12.1195C18.8701 13.9187 18.1479 15.6406 16.872 16.9091C15.596 18.1776 13.8698 18.8896 12.0706 18.8895V18.8895ZM12.0706 16.8395C13.012 16.8435 13.9336 16.5682 14.7185 16.0484C15.5035 15.5287 16.1167 14.7878 16.4806 13.9196C16.8445 13.0513 16.9427 12.0947 16.763 11.1706C16.5832 10.2464 16.1334 9.3964 15.4705 8.72791C14.8076 8.05943 13.9614 7.60253 13.0388 7.41499C12.1163 7.22744 11.1588 7.31767 10.2875 7.67428C9.41621 8.03089 8.67026 8.63785 8.14394 9.41842C7.61762 10.199 7.33455 11.1181 7.33058 12.0595C7.32525 13.3185 7.81902 14.5284 8.70363 15.4242C9.58824 16.3201 10.7917 16.829 12.0507 16.8395H12.0706Z" fill="currentColor"/>
<path d="M18.8806 7.20996C18.3915 7.17477 17.9337 6.95562 17.5996 6.59661C17.2655 6.23761 17.0798 5.76538 17.0798 5.27496C17.0798 4.78453 17.2655 4.31231 17.5996 3.9533C17.9337 3.5943 18.3915 3.37515 18.8806 3.33996C19.1464 3.32084 19.4133 3.35668 19.6647 3.44526C19.916 3.53384 20.1463 3.67326 20.3414 3.85481C20.5365 4.03636 20.6921 4.25616 20.7985 4.5005C20.9048 4.74484 20.9598 5.00847 20.9598 5.27496C20.9598 5.54145 20.9048 5.80508 20.7985 6.04942C20.6921 6.29375 20.5365 6.51356 20.3414 6.69511C20.1463 6.87666 19.916 7.01608 19.6647 7.10466C19.4133 7.19324 19.1464 7.22908 18.8806 7.20996V7.20996ZM18.8806 6.20996C19.1193 6.20996 19.3482 6.11514 19.517 5.94636C19.6858 5.77758 19.7806 5.54866 19.7806 5.30996C19.7806 5.07127 19.6858 4.84235 19.517 4.67356C19.3482 4.50478 19.1193 4.40995 18.8806 4.40995C18.7621 4.40861 18.6445 4.43098 18.5347 4.47573C18.4249 4.52049 18.3251 4.58673 18.2412 4.67057C18.1574 4.75441 18.0911 4.85417 18.0464 4.96397C18.0016 5.07377 17.9793 5.1914 17.9806 5.30996C17.9908 5.54259 18.0899 5.76244 18.2573 5.92428C18.4247 6.08612 18.6478 6.17762 18.8806 6.17996V6.20996Z" fill="currentColor"/>
</symbol><symbol id="mail" viewBox="0 0 24 21">
<path d="M0.075 3.46667C0.226227 2.7304 0.597983 2.07302 1.12938 1.60218C1.66078 1.13134 2.32033 0.874949 3 0.875H21C21.6797 0.874949 22.3392 1.13134 22.8706 1.60218C23.402 2.07302 23.7738 2.7304 23.925 3.46667L12 11.565L0.075 3.46667ZM0 5.37V17.21L8.7045 11.28L0 5.37ZM10.1415 12.2583L0.2865 18.97C0.52999 19.5405 0.91429 20.0224 1.39467 20.3596C1.87505 20.6969 2.43176 20.8756 3 20.875H21C21.5681 20.8751 22.1246 20.696 22.6048 20.3585C23.0849 20.0209 23.4688 19.5389 23.712 18.9683L13.857 12.2567L12 13.5183L10.1415 12.2567V12.2583ZM15.2955 11.2817L24 17.21V5.37L15.2955 11.28V11.2817Z" fill="currentColor"/>
</symbol><symbol id="vk" viewBox="0 0 25 25">
<path d="M17.67 24.29H6.67004L6.22998 24.23C5.46998 24.11 4.70997 24.04 3.96997 23.87C3.14188 23.7095 2.37707 23.3153 1.76575 22.7341C1.15442 22.1529 0.722159 21.4089 0.52002 20.59C0.39185 20.1224 0.288315 19.6485 0.209961 19.17C0.119961 18.57 0.07 17.96 1.26192e-10 17.35V6.94C1.26192e-10 6.8 -5.37112e-05 6.65 0.0699463 6.5C0.169946 5.78 0.219985 5.05001 0.359985 4.34001C0.476694 3.43715 0.860997 2.58988 1.46338 1.9073C2.06576 1.22472 2.85865 0.738077 3.73999 0.51001C4.20633 0.379387 4.68071 0.279173 5.16003 0.210007C5.77003 0.120007 6.39001 0.07 7.01001 0H17.35L17.83 0.0700073C18.55 0.170007 19.28 0.220001 19.99 0.360001C20.8795 0.474683 21.7152 0.850262 22.3915 1.43935C23.0678 2.02843 23.5544 2.80464 23.79 3.67001C23.8866 3.97813 23.9635 4.29209 24.02 4.61C24.12 5.29 24.2 5.98 24.3 6.66V17.66C24.2 18.37 24.13 19.08 24.01 19.78C23.917 20.7057 23.5478 21.5822 22.9504 22.2955C22.3531 23.0088 21.5551 23.526 20.66 23.78C20.3318 23.8775 19.9978 23.9543 19.66 24.01C19.04 24.1 18.36 24.2 17.67 24.29ZM13.59 10.1C13.59 9.51001 13.59 8.92 13.59 8.33C13.59 7.89 13.44 7.75 12.99 7.75C12.14 7.75 11.2801 7.75 10.4301 7.75C10.3318 7.75108 10.235 7.77409 10.1467 7.81734C10.0585 7.86059 9.98108 7.92299 9.92004 8C9.89695 8.08995 9.89574 8.18414 9.91663 8.27463C9.93751 8.36512 9.97987 8.44927 10.04 8.52C10.4072 8.9735 10.5926 9.54739 10.5601 10.13C10.5601 10.88 10.5601 11.63 10.5601 12.38C10.5601 12.64 10.67 13 10.34 13.12C10.01 13.24 9.79 12.96 9.63 12.74C9.13384 12.0743 8.68285 11.376 8.28003 10.65C7.90593 9.89489 7.57212 9.12047 7.28003 8.33C7.08003 7.86 6.92004 7.74001 6.42004 7.74001H4.81995C4.21995 7.74001 4.06005 7.96 4.18005 8.55C4.18005 8.75 4.27997 8.95001 4.33997 9.15001C5.0544 11.2804 6.16754 13.2555 7.62 14.97C8.32648 15.8203 9.22906 16.486 10.25 16.91C11.1204 17.3028 12.0851 17.4381 13.03 17.3C13.47 17.23 13.6 17.07 13.6 16.62C13.6 16.17 13.6 15.53 13.6 14.99C13.6 14.45 13.82 14.38 14.26 14.51C14.5018 14.5825 14.7287 14.6977 14.9301 14.85C15.3901 15.24 15.83 15.65 16.26 16.07C16.69 16.49 16.82 16.72 17.14 16.99C17.3442 17.175 17.5979 17.2967 17.87 17.34C18.4928 17.375 19.1171 17.375 19.74 17.34C20.25 17.34 20.47 17.01 20.26 16.55C20.0903 16.1699 19.8718 15.8136 19.61 15.49C19 14.78 18.35 14.1 17.72 13.41C17.32 12.98 17.32 12.84 17.64 12.35C18.21 11.49 18.7801 10.64 19.3101 9.76001C19.5607 9.34554 19.7684 8.9066 19.9301 8.45001C20.1101 7.97001 19.93 7.74001 19.42 7.73001H17.76C17.558 7.7278 17.3601 7.78681 17.1923 7.89926C17.0245 8.01172 16.8947 8.17234 16.8199 8.36C16.3699 9.25 15.9 10.14 15.37 10.99C15.0825 11.4261 14.7471 11.8286 14.37 12.19C14.304 12.2556 14.2233 12.3044 14.1345 12.3323C14.0458 12.3601 13.9516 12.3662 13.86 12.35C13.74 12.3 13.66 12.03 13.65 11.86C13.57 11.26 13.59 10.67 13.59 10.1Z" fill="currentColor"/>
</symbol><symbol id="icon-menu-close" viewBox="0 0 20 21">
<path d="M1.48682 19.4547L18.4852 1.45474" stroke="white" stroke-width="2" stroke-linecap="round"/>
<path d="M1.51489 1.45472L18.5133 19.4547" stroke="white" stroke-width="2" stroke-linecap="round"/>
</symbol><symbol id="icon-menu" viewBox="0 0 21 20">
<path d="M19.7647 18H1.23529C0.535294 18 0 18.4333 0 19C0 19.5667 0.535294 20 1.23529 20H19.7647C20.4647 20 21 19.5667 21 19C21 18.4333 20.4647 18 19.7647 18Z" fill="white"/>
<path d="M19.5 2H1.21875C0.528125 2 0 1.56667 0 1C0 0.433333 0.528125 0 1.21875 0H19.5C20.1906 0 20.7188 0.433333 20.7188 1C20.7188 1.56667 20.1906 2 19.5 2Z" fill="white"/>
<path d="M19.5 11H1.21875C0.528125 11 0 10.5667 0 10C0 9.43333 0.528125 9 1.21875 9H19.5C20.1906 9 20.7188 9.43333 20.7188 10C20.7188 10.5667 20.1906 11 19.5 11Z" fill="white"/>
</symbol><symbol id="phone-icon" viewBox="0 0 19 21">
<path d="M3.61811 0.0100021C3.88811 0.0100021 4.14815 0.0100021 4.40815 0.0100021C4.66815 0.0100021 4.7681 0.0900006 4.8581 0.360001C5.2981 1.83 5.74818 3.36 6.18818 4.79C6.21874 4.84319 6.2378 4.90219 6.24421 4.9632C6.25062 5.02421 6.24425 5.08588 6.22541 5.14427C6.20658 5.20265 6.17569 5.25645 6.13484 5.30222C6.09398 5.34798 6.04399 5.38469 5.98811 5.41L4.31806 6.64C4.22413 6.73346 4.13733 6.83373 4.05818 6.94C3.59818 7.48 3.27811 7.94 3.23811 8C2.88811 8.55 3.38815 10.61 5.65815 13.34C6.03815 13.79 9.95815 18.41 11.6582 17.34C12.1114 16.9588 12.4823 16.4893 12.7481 15.96C13.0881 15.32 13.4981 14.72 13.8681 14.1C13.8873 14.0513 13.9166 14.0073 13.954 13.9707C13.9915 13.9342 14.0363 13.906 14.0854 13.8881C14.1345 13.8701 14.1869 13.8628 14.2391 13.8666C14.2913 13.8703 14.3421 13.8851 14.3881 13.91L18.4581 15.4C18.5391 15.4221 18.6105 15.4704 18.6612 15.5373C18.7119 15.6042 18.7389 15.6861 18.7381 15.77C18.7682 16.5438 18.7483 17.3188 18.6782 18.09C18.6007 18.7915 18.2709 19.4409 17.7503 19.9174C17.2297 20.3938 16.5537 20.6649 15.8481 20.68C12.347 20.6795 8.96215 19.4235 6.30818 17.14C3.28374 14.5942 1.21397 11.0964 0.43818 7.22C0.153693 5.90564 0.0094985 4.56479 0.00812635 3.22C-0.0218323 2.81376 0.0312362 2.40567 0.164132 2.02061C0.297028 1.63556 0.506926 1.2816 0.781076 0.980316C1.05523 0.679032 1.38789 0.436736 1.75874 0.268196C2.12958 0.0996561 2.53092 0.00840155 2.93818 0L3.61811 0.0100021Z" fill="white"/>
</symbol><symbol id="phone" viewBox="0 0 19 21">
<path d="M3.61811 0.0100021C3.88811 0.0100021 4.14815 0.0100021 4.40815 0.0100021C4.66815 0.0100021 4.7681 0.0900006 4.8581 0.360001C5.2981 1.83 5.74818 3.36 6.18818 4.79C6.21874 4.84319 6.2378 4.90219 6.24421 4.9632C6.25062 5.02421 6.24425 5.08588 6.22541 5.14427C6.20658 5.20265 6.17569 5.25645 6.13484 5.30222C6.09398 5.34798 6.04399 5.38469 5.98811 5.41L4.31806 6.64C4.22413 6.73346 4.13733 6.83373 4.05818 6.94C3.59818 7.48 3.27811 7.94 3.23811 8C2.88811 8.55 3.38815 10.61 5.65815 13.34C6.03815 13.79 9.95815 18.41 11.6582 17.34C12.1114 16.9588 12.4823 16.4893 12.7481 15.96C13.0881 15.32 13.4981 14.72 13.8681 14.1C13.8873 14.0513 13.9166 14.0073 13.954 13.9707C13.9915 13.9342 14.0363 13.906 14.0854 13.8881C14.1345 13.8701 14.1869 13.8628 14.2391 13.8666C14.2913 13.8703 14.3421 13.8851 14.3881 13.91L18.4581 15.4C18.5391 15.4221 18.6105 15.4704 18.6612 15.5373C18.7119 15.6042 18.7389 15.6861 18.7381 15.77C18.7682 16.5438 18.7483 17.3188 18.6782 18.09C18.6007 18.7915 18.2709 19.4409 17.7503 19.9174C17.2297 20.3938 16.5537 20.6649 15.8481 20.68C12.347 20.6795 8.96215 19.4235 6.30818 17.14C3.28374 14.5942 1.21397 11.0964 0.43818 7.22C0.153693 5.90564 0.0094985 4.56479 0.00812635 3.22C-0.0218323 2.81376 0.0312362 2.40567 0.164132 2.02061C0.297028 1.63556 0.506926 1.2816 0.781076 0.980316C1.05523 0.679032 1.38789 0.436736 1.75874 0.268196C2.12958 0.0996561 2.53092 0.00840155 2.93818 0L3.61811 0.0100021Z" fill="currentColor"/>
</symbol></svg>