<svg width="429" height="374" viewBox="0 0 429 374" fill="none" xmlns="http://www.w3.org/2000/svg">
<g opacity="0.05">
<g clip-path="url(#clip0)">
<path d="M47.19 52.2799C41.8 49.5099 32.95 55.9799 27.45 66.6999L4.16001 112.02C-1.28999 122.73 -1.42999 133.65 3.97001 136.44C7.74001 138.37 13.15 135.86 17.95 130.54L35.6 139.36C40.31 141.72 45.67 140.58 47.45 136.89C49.34 133.16 47.04 128.28 42.36 125.91L25.96 117.79L45.28 80.1599L61.73 88.3099C66.4 90.6799 71.75 89.5499 73.59 85.8499C75.44 82.0999 73.09 77.2299 68.44 74.8899L50.76 66.0599C51.94 59.5399 50.76 54.1299 47.19 52.2799Z" fill="#432A18"/>
<path d="M381.33 323.31C386.75 326.12 395.61 319.66 401.08 308.94L424.36 263.62C429.81 252.91 429.9 241.98 424.52 239.14C420.81 237.25 415.39 239.75 410.58 245.07L392.92 236.26C388.23 233.91 382.92 235.04 381.06 238.74C379.21 242.45 381.52 247.39 386.21 249.69L402.61 257.84L383.25 295.48L366.78 287.29C362.08 284.96 356.79 286.09 354.96 289.77C353.1 293.49 355.42 298.43 360.12 300.76L377.81 309.55C376.59 316.08 377.79 321.49 381.33 323.31Z" fill="#432A18"/>
<path d="M145.04 13.71C49.46 52.45 3.42001 161.27 42.15 256.85C80.86 352.37 189.67 398.42 285.25 359.69C380.77 320.98 426.86 212.15 388.15 116.63C349.42 21.05 240.56 -25 145.04 13.71ZM276.6 338.32C192.87 372.25 97.47 331.89 63.54 248.18C29.59 164.4 69.98 69.05 153.72 35.12C237.4 1.21001 332.82 41.51 366.78 125.29C400.7 208.99 360.28 304.41 276.6 338.32Z" fill="#432A18"/>
<path d="M306.62 36.4698C304.55 35.2298 302.49 33.9798 300.39 32.8398L149.07 344.73C151.32 345.65 153.54 346.53 155.81 347.33L306.62 36.4698Z" fill="#432A18"/>
<path d="M230.65 11.22C228.09 10.99 225.48 10.82 222.93 10.7L83.74 297.58C85.43 299.57 87.13 301.45 88.91 303.34L230.65 11.22Z" fill="#432A18"/>
<path d="M283.01 24.2599C280.85 23.3599 278.65 22.4999 276.42 21.6499L125.48 332.82C127.45 334.04 129.54 335.24 131.62 336.31L283.01 24.2599Z" fill="#432A18"/>
<path d="M257.72 15.7799C255.39 15.2599 253.06 14.6799 250.76 14.1899L103.7 317.29C105.53 318.82 107.43 320.29 109.29 321.77L257.72 15.7799Z" fill="#432A18"/>
<path d="M159.86 19.6598L51.75 242.5C52.58 244.81 53.44 247.13 54.39 249.45C54.66 250.11 54.91 250.73 55.18 251.4L168.98 16.8398C165.91 17.7098 162.89 18.6398 159.86 19.6598Z" fill="#432A18"/>
<path d="M201.2 11.0798C198.44 11.3298 195.66 11.6498 192.9 11.9798L66.22 273.21C67.61 275.62 69.08 277.92 70.62 280.21L201.2 11.0798Z" fill="#432A18"/>
<path d="M42.45 200.94C42.84 205.21 43.43 209.44 44.18 213.72L132.53 31.5701C128.71 33.6001 125 35.8101 121.42 38.1001L42.45 200.94Z" fill="#432A18"/>
<path d="M365.37 96.78C363.99 94.39 362.54 92.06 361.05 89.71L231.26 357.16C234.05 356.89 236.82 356.58 239.54 356.19L365.37 96.78Z" fill="#432A18"/>
<path d="M388.47 170.22C388.08 165.89 387.65 161.55 386.91 157.26L300.4 335.61C304.2 333.49 307.93 331.21 311.51 328.79L388.47 170.22Z" fill="#432A18"/>
<path d="M84.33 70.1499C64.07 93.4599 50.45 121.77 44.7 151.88L84.33 70.1499Z" fill="#432A18"/>
<path d="M350.06 293.8C366.97 272.95 378.85 248.4 384.78 222.25L350.06 293.8Z" fill="#432A18"/>
<path d="M348.05 72.1399C346.36 70.2199 344.67 68.2599 342.94 66.4299L201.8 357.36C204.34 357.55 206.9 357.69 209.43 357.8L348.05 72.1399Z" fill="#432A18"/>
<path d="M328.25 52.28C326.46 50.72 324.64 49.2 322.69 47.73L174.61 353.03C176.93 353.59 179.27 354.12 181.61 354.59L328.25 52.28Z" fill="#432A18"/>
<path d="M379.59 127.91C378.56 124.94 377.49 121.96 376.28 118.99C376.27 118.98 376.25 118.91 376.23 118.87L263.58 351.06C266.66 350.12 269.75 349.17 272.76 348.1L379.59 127.91Z" fill="#432A18"/>
<path d="M289.8 292.5L285.13 292.46L288.47 289.17C292.23 285.45 292.28 279.36 288.57 275.57C285.83 272.79 281.72 271.94 278.1 273.41C276.93 273.88 275.88 274.57 274.97 275.46L274.84 275.59C275.17 271.84 274.67 267.96 273.16 264.23C271.93 261.18 269.32 257.88 265.21 254.14C263.47 252.56 260.92 252.11 258.73 253L257.55 253.62C256.75 254.17 256.11 254.88 255.66 255.66C254.99 255.29 254.29 254.93 253.54 254.57C249.78 252.81 247.37 250.78 246.76 248.85C245.95 246.33 243.63 244.57 241.03 244.49C238.4 244.37 235.85 246.04 234.91 248.44C233.49 251.99 232.2 256.23 231.79 260.63C231.7 260.63 231.62 260.64 231.53 260.64C228.63 260.87 226.17 263.25 225.83 266.13C225.07 272.5 225.63 278.08 227.51 282.72C228.98 286.34 231.25 289.48 234.1 291.97H234.05C232.77 291.97 231.53 292.2 230.34 292.68C226.73 294.14 224.37 297.61 224.34 301.51C224.29 306.8 228.57 311.16 233.87 311.21L238.55 311.25L235.22 314.52C233.37 316.31 232.36 318.72 232.34 321.29C232.31 323.87 233.29 326.3 235.09 328.11C237.83 330.91 241.95 331.77 245.56 330.3C246.75 329.82 247.8 329.12 248.69 328.24L265.74 311.49L289.71 311.71C290.96 311.7 292.19 311.46 293.34 310.99C296.95 309.53 299.31 306.05 299.34 302.16C299.37 299.6 298.38 297.17 296.58 295.35C294.77 293.55 292.36 292.53 289.8 292.5Z" fill="white"/>
<path d="M222.77 82.9199C221.62 80.0799 218.82 78.4499 215.92 78.6199C211.62 68.2299 203.95 61.2699 193.68 58.4999C184.57 56.0699 174 57.1099 163.1 61.5299C152.22 65.9399 143.9 72.5499 139.08 80.6299C133.63 89.7499 132.96 100.09 137.1 110.57C134.92 112.47 134.05 115.59 135.19 118.41C135.8 119.92 136.91 121.07 138.23 121.82C137.99 123.72 138.19 125.72 138.98 127.66C140.46 131.3 143.51 133.77 146.91 134.55C146.98 134.75 147.01 134.96 147.09 135.15L149.16 140.26C151.4 145.78 157.72 148.45 163.25 146.21L221.98 122.41C227.5 120.17 230.16 113.87 227.92 108.34L225.85 103.23C225.77 103.04 225.67 102.87 225.56 102.69C227.49 99.7599 227.99 95.8299 226.51 92.1799C225.72 90.2399 224.47 88.6599 222.95 87.4599C223.39 86.0099 223.38 84.4199 222.77 82.9199Z" fill="white"/>
<path d="M220.04 104.58L152.22 132.07C151.74 132.27 151.51 132.8 151.71 133.28L153.78 138.39C154.99 141.37 158.41 142.81 161.39 141.61L220.12 117.81C223.12 116.59 224.53 113.2 223.32 110.21L221.25 105.1C221.06 104.61 220.52 104.39 220.04 104.58Z" fill="#432A18"/>
<path d="M214.45 90.3701L146.34 117.97C143.53 119.11 142.3 122.63 143.59 125.79C144.87 128.96 148.2 130.62 151.01 129.48L219.12 101.88C221.94 100.74 223.2 97.2201 221.92 94.0501C220.63 90.8801 217.27 89.2201 214.45 90.3701Z" fill="#432A18"/>
<path d="M143.06 109.56L210.95 82.0401C211.44 81.8401 211.66 81.3001 211.47 80.8201C211.46 80.7901 211.45 80.7701 211.43 80.7301C207.76 71.6601 201.15 65.6401 192.38 63.2801C184.33 61.1301 174.84 62.1101 164.96 66.1101C155.09 70.1101 147.62 76.0001 143.34 83.1501C138.67 90.9801 138.13 99.9201 141.83 109.04C142.03 109.53 142.59 109.75 143.06 109.56Z" fill="#432A18"/>
<path d="M142.4 117.63L217.06 87.3702C218.09 86.9502 218.57 85.8002 218.15 84.7802C217.74 83.7602 216.59 83.2602 215.56 83.6802L140.9 113.94C139.86 114.36 139.39 115.52 139.8 116.54C140.22 117.55 141.36 118.05 142.4 117.63Z" fill="#432A18"/>
<path d="M170.58 87.1502C171.12 88.4902 170.47 90.0202 169.14 90.5602C167.81 91.1002 166.3 90.4402 165.76 89.1102C165.22 87.7902 165.86 86.2902 167.19 85.7502C168.52 85.2002 170.04 85.8302 170.58 87.1502Z" fill="white"/>
<path d="M160.72 91.1502C161.26 92.4902 160.62 94.0202 159.29 94.5602C157.95 95.1002 156.44 94.4502 155.9 93.1102C155.36 91.7902 156 90.2902 157.34 89.7402C158.66 89.2002 160.18 89.8302 160.72 91.1502Z" fill="white"/>
<path d="M180.44 83.1502C180.98 84.4902 180.34 86.0202 179.01 86.5602C177.68 87.1002 176.17 86.4402 175.63 85.1102C175.09 83.7902 175.73 82.2902 177.06 81.7502C178.39 81.2102 179.91 81.8302 180.44 83.1502Z" fill="white"/>
<path d="M190.3 79.1602C190.84 80.5002 190.19 82.0302 188.87 82.5702C187.54 83.1102 186.02 82.4602 185.48 81.1202C184.94 79.8002 185.59 78.2902 186.92 77.7502C188.24 77.2102 189.76 77.8402 190.3 79.1602Z" fill="white"/>
<path d="M161.02 78.9601C161.56 80.2901 160.91 81.8001 159.58 82.3401C158.25 82.8801 156.74 82.2401 156.2 80.9101C155.66 79.5801 156.3 78.0601 157.63 77.5201C158.96 76.9901 160.48 77.6301 161.02 78.9601Z" fill="white"/>
<path d="M171.31 74.8C171.85 76.13 171.2 77.65 169.87 78.19C168.55 78.72 167.04 78.08 166.5 76.75C165.96 75.42 166.59 73.89 167.91 73.36C169.23 72.82 170.77 73.46 171.31 74.8Z" fill="white"/>
<path d="M181.6 70.6301C182.14 71.9601 181.49 73.4801 180.16 74.0201C178.83 74.5601 177.32 73.9201 176.78 72.5901C176.24 71.2601 176.88 69.7401 178.21 69.2001C179.53 68.6501 181.06 69.2901 181.6 70.6301Z" fill="white"/>
<path d="M351.844 81.4723L41.5509 207.223L77.924 296.974L388.217 171.224L351.844 81.4723Z" fill="#432A18"/>
<path d="M68.7 216.94L83.63 210.89C84.55 210.52 85.38 210.69 85.72 211.52L87.03 214.75C87.4 215.67 87.1 216.3 86.01 216.74L76.54 220.58L79.65 228.27L86.77 225.39C87.69 225.02 88.46 225.16 88.81 226.04L90.12 229.27C90.49 230.19 90.23 230.8 89.14 231.24L82.02 234.12L86.14 244.3C86.71 245.7 86.42 246.37 85.07 246.92L81.45 248.39C80.1 248.94 79.38 248.67 78.81 247.27L67.59 219.58C67.02 218.18 67.3 217.5 68.7 216.94Z" fill="white"/>
<path d="M114.87 235.39C103.13 240.15 96.75 232.82 93.71 225.31C90.67 217.8 90 207.75 101.74 202.99C113.53 198.21 120.01 205.91 123.05 213.42C126.09 220.93 126.66 230.61 114.87 235.39ZM112.46 229.45C118.71 226.92 117.94 221.02 116 216.22C114.07 211.46 110.41 206.44 104.16 208.97C97.96 211.48 98.77 217.61 100.72 222.41C102.68 227.26 106.26 231.96 112.46 229.45Z" fill="white"/>
<path d="M152.01 219.78C150.31 220.47 149.71 220.25 148.02 218.85L139.3 211.5L136.55 212.61L140.46 222.26C141.03 223.66 140.74 224.33 139.39 224.88L135.77 226.35C134.37 226.92 133.7 226.63 133.13 225.23L121.91 197.54C121.34 196.14 121.63 195.47 123.03 194.9L132.5 191.06C139.66 188.16 145.06 190.95 147.4 196.72C149.06 200.82 148.08 204.78 145.39 207.7L155.88 215.75C156.48 216.22 156.85 216.53 156.99 216.87C157.18 217.35 156.86 217.79 155.98 218.14L152.01 219.78ZM130.69 198.17L134.34 207.16L137.05 206.06C140.54 204.65 141.49 202.23 140.43 199.61C139.28 196.77 136.94 195.64 133.4 197.07L130.69 198.17Z" fill="white"/>
<path d="M150.53 183.77L166.21 177.42C167.13 177.05 167.92 177.24 168.25 178.07L169.56 181.3C169.93 182.22 169.67 182.83 168.58 183.27L158.36 187.41L161.17 194.35L168.68 191.31C169.55 190.96 170.34 191.14 170.68 191.97L171.99 195.2C172.36 196.12 172.1 196.73 171.05 197.16L163.54 200.2L166.35 207.14L176.57 203C177.49 202.63 178.28 202.82 178.63 203.69L179.92 206.88C180.29 207.8 180.03 208.41 178.94 208.85L163.26 215.2C161.86 215.77 161.19 215.48 160.63 214.08L149.41 186.39C148.85 185.01 149.13 184.34 150.53 183.77Z" fill="white"/>
<path d="M181.66 199.63C182.62 199.24 185.74 200.42 190.11 198.65C194.35 196.93 194.88 194.48 194.08 192.52C191.58 186.36 179.56 195.2 175.1 184.2C172.27 177.21 176.63 172.8 181.66 170.77C183.58 169.99 186.39 169.26 188.81 169.6C190.8 169.86 192.23 170.76 192.9 172.42C193.45 173.77 193.16 174.81 192.46 175.09C191.37 175.53 188.63 174.56 185.05 176.01C182.56 177.02 180.91 178.6 181.87 180.96C184.35 187.07 196.16 177.71 200.92 189.46C203.72 196.36 200.4 201.11 193.5 203.9C190.44 205.14 187.07 205.85 184.78 205.35C183.31 204.98 182.17 204.17 181.56 202.69C181.24 201.83 180.75 200 181.66 199.63Z" fill="white"/>
<path d="M215.11 157.6C215.98 157.25 216.82 157.42 217.15 158.25L218.46 161.48C218.83 162.4 218.53 163.03 217.48 163.45L211.1 166.03L220.71 189.74C221.28 191.14 220.95 191.83 219.6 192.38L216.02 193.83C214.67 194.38 213.95 194.11 213.38 192.71L203.77 169L197.35 171.6C196.43 171.97 195.69 171.76 195.33 170.89L194.04 167.7C193.67 166.78 193.93 166.17 194.98 165.74L215.11 157.6Z" fill="white"/>
<path d="M250.25 145.59C251.7 146.02 252.63 146.81 253.11 147.99C253.55 149.08 253.67 150.76 252.8 151.11C251.8 151.52 248.77 150.81 245.19 152.27C240.69 154.09 238.17 158.16 241.18 165.59C244.17 172.97 248.77 174.16 253.27 172.33C257.07 170.79 258.91 168.16 259.91 167.76C260.96 167.34 261.89 168.38 262.28 169.34C263.98 173.53 259.56 176.95 254.37 179.05C245.9 182.48 238.08 178.99 233.85 168.56C229.6 158.08 232.83 150.11 241.21 146.71C244 145.59 247.67 144.86 250.25 145.59Z" fill="white"/>
<path d="M288.29 164.55C286.63 165.22 286.12 164.97 284.87 163.39L281.51 159.11L271.3 163.25L271.91 168.65C272.13 170.7 271.87 171.21 270.22 171.88L266.59 173.35C265.19 173.92 264.52 173.53 264.43 171.78L262.78 141.23C262.64 139 263.11 138.15 265.03 137.37L268.04 136.15C269.96 135.37 270.95 135.68 272.39 137.34L292.34 160.47C293.49 161.79 293.36 162.5 291.92 163.08L288.29 164.55ZM270.6 156.77L277.54 153.96L269.07 143.11L270.6 156.77Z" fill="white"/>
<path d="M285.67 129L289.17 127.58C290.87 126.89 291.34 127.41 292.98 128.58L304.94 137.51L307.3 122.78C307.65 120.76 307.64 120.1 309.34 119.41L312.84 117.99C314.19 117.44 314.87 117.73 315.44 119.12L326.66 146.81C327.23 148.21 326.94 148.88 325.59 149.43L322.71 150.6C321.36 151.15 320.64 150.88 320.07 149.48L312.67 131.23L310.66 142.57C310.54 143.28 310.14 143.8 309.57 144.03L306.47 145.28C305.68 145.6 304.82 145.59 304.24 145.17L295.07 138.47L302.43 156.64C303 158.04 302.62 158.75 301.31 159.28L298.43 160.45C297.08 161 296.36 160.73 295.79 159.33L284.57 131.64C283.99 130.24 284.28 129.57 285.67 129Z" fill="white"/>
<path d="M322.49 114.08L331.93 110.26C339.17 107.32 344.42 110.74 346.83 116.68C349.57 123.45 346.87 129.07 340.49 131.65L336.6 133.23L339.93 141.44C340.5 142.84 340.21 143.51 338.86 144.06L335.23 145.53C333.88 146.08 333.16 145.81 332.59 144.41L321.37 116.72C320.81 115.32 321.09 114.65 322.49 114.08ZM330.32 117.72L334.25 127.41L336.91 126.33C340.58 124.84 341.45 122.35 340.27 119.43C339.07 116.46 336.61 115.17 332.98 116.64L330.32 117.72Z" fill="white"/>
<path d="M145.15 238.62C145.09 238.47 145.1 238.39 145.27 238.32L145.62 238.18C145.81 238.1 145.85 238.15 145.92 238.31L150.01 248.41C150.76 250.25 150.23 251.65 148.75 252.24C147.89 252.59 147.05 252.55 146.84 252.05C146.77 251.88 146.85 251.85 146.89 251.83C147.1 251.75 147.61 251.9 148.41 251.57C149.68 251.06 149.75 249.96 149.24 248.71L145.15 238.62ZM143.45 234.66C143.39 234.51 143.44 234.42 143.59 234.36L144.07 234.17C144.23 234.11 144.31 234.14 144.37 234.29L144.75 235.23C144.82 235.4 144.78 235.46 144.62 235.53L144.14 235.72C143.99 235.78 143.9 235.78 143.83 235.6L143.45 234.66Z" fill="white"/>
<path d="M157.03 244.65C153.48 246.09 151.52 243.85 150.61 241.58C149.69 239.32 149.54 236.35 153.09 234.91C156.67 233.46 158.61 235.71 159.53 237.97C160.44 240.23 160.61 243.2 157.03 244.65ZM156.75 243.96C159.68 242.77 159.51 240.32 158.7 238.3C157.88 236.29 156.3 234.41 153.36 235.6C150.44 236.78 150.63 239.23 151.45 241.24C152.27 243.25 153.83 245.14 156.75 243.96Z" fill="white"/>
<path d="M163.19 240.53C163.44 240.43 164.85 240.66 166.75 239.89C169.11 238.93 169.2 237.62 168.8 236.62C167.53 233.5 162.21 237.71 160.91 234.51C160.18 232.71 161.76 231.42 163.41 230.75C165.29 229.99 166.72 230.28 166.9 230.72C166.95 230.83 166.97 230.89 166.84 230.95C166.51 231.08 165.42 230.7 163.67 231.41C162.18 232.02 161.14 232.88 161.68 234.2C162.67 236.65 168.06 232.53 169.56 236.25C170.19 237.8 169.79 239.41 167.05 240.52C165.27 241.24 163.41 241.46 163.14 240.79C163.12 240.75 163.07 240.57 163.19 240.53Z" fill="white"/>
<path d="M169.61 228.64C169.56 228.53 169.59 228.47 169.76 228.4C170.28 228.19 170.37 228.25 170.91 229.59C171.02 228.5 171.69 227.4 173.44 226.69C176.64 225.39 178.51 227.53 179.41 229.74C180.5 232.42 180.14 235.18 177.34 236.31C175.73 236.96 174.34 236.68 173.44 235.88L175.44 240.83C175.51 241 175.47 241.06 175.31 241.13L174.97 241.27C174.81 241.33 174.74 241.32 174.67 241.15L169.61 228.64ZM172.06 232.47L172.25 232.93C173.73 236.33 175.84 236.12 177.08 235.61C179.5 234.63 179.43 232.14 178.59 230.07C177.84 228.21 176.31 226.33 173.67 227.4C171.67 228.21 171.05 229.82 172.06 232.47Z" fill="white"/>
<path d="M182.72 228.9C183.94 231.84 186.02 232.05 188.05 231.22C189.68 230.56 190.69 229.48 190.9 229.39C191.04 229.33 191.09 229.36 191.15 229.49C191.23 229.7 191.11 229.95 190.87 230.27C190.45 230.78 189.54 231.39 188.33 231.88C185.73 232.94 183.3 232.72 181.78 228.98C180.53 225.89 181.18 223.53 183.9 222.43C186.33 221.44 188.33 222.33 189.58 225.42C189.8 225.96 189.78 226.03 189.28 226.23L182.72 228.9ZM182.45 228.23L188.7 225.7C187.64 223.08 186.24 222.28 184.23 223.09C181.85 224.06 181.6 226.08 182.45 228.23Z" fill="white"/>
<path d="M195 228.93L194.65 229.07C194.49 229.13 194.43 229.12 194.36 228.94L190.77 220.08C190.72 219.97 190.75 219.91 190.92 219.84C191.42 219.64 191.53 219.7 191.98 220.81C192.12 219.68 192.82 218.82 194.02 218.34C195.15 217.88 195.77 218.19 195.88 218.48C195.97 218.71 195.92 218.75 195.83 218.79C195.62 218.87 195.2 218.67 194.28 219.04C192.34 219.83 192.28 221.59 192.94 223.22L195.13 228.62C195.19 228.8 195.13 228.87 195 228.93Z" fill="white"/>
<path d="M204.2 219.64C203.31 217.44 203.23 214.61 206.43 213.31C207.66 212.81 208.98 212.72 210.11 213.47C209.64 212.25 209.71 212.2 210.21 212C210.39 211.93 210.44 211.95 210.48 212.07L214.2 221.25C215.33 224.05 213.91 225.81 211.63 226.73C209.58 227.56 207.94 227.65 207.68 227.02C207.63 226.89 207.67 226.82 207.73 226.8C207.79 226.78 209.26 226.89 211.35 226.05C213.17 225.31 214.38 223.84 213.46 221.56L212.8 219.93C212.48 221.51 211.34 222.38 210.22 222.83C207.06 224.11 205.09 221.85 204.2 219.64ZM205.04 219.3C205.74 221.03 207.4 223.19 209.96 222.15C211.38 221.57 212.78 220.18 211.58 216.94L211.36 216.4C210.58 214.58 209.37 212.92 206.66 214.02C204.13 215.05 204.26 217.36 205.04 219.3Z" fill="white"/>
<path d="M218.17 219.54L217.82 219.68C217.67 219.74 217.59 219.73 217.52 219.55L213.93 210.69C213.88 210.58 213.91 210.52 214.08 210.45C214.58 210.25 214.7 210.31 215.15 211.42C215.29 210.29 215.99 209.43 217.18 208.95C218.31 208.49 218.93 208.8 219.04 209.09C219.13 209.32 219.08 209.36 218.99 209.4C218.78 209.49 218.36 209.28 217.44 209.65C215.5 210.44 215.44 212.2 216.1 213.83L218.29 219.23C218.36 219.41 218.3 219.48 218.17 219.54Z" fill="white"/>
<path d="M219.35 203.91C219.29 203.76 219.34 203.67 219.5 203.6L219.98 203.41C220.13 203.35 220.21 203.38 220.28 203.54L220.66 204.48C220.73 204.65 220.69 204.71 220.54 204.77L220.06 204.96C219.9 205.02 219.81 205.02 219.74 204.85L219.35 203.91ZM221.04 207.86C220.98 207.71 220.99 207.63 221.16 207.56L221.51 207.42C221.7 207.34 221.75 207.39 221.81 207.54L225.38 216.36C225.45 216.53 225.39 216.6 225.25 216.66L224.9 216.8C224.75 216.86 224.67 216.85 224.6 216.67L221.04 207.86Z" fill="white"/>
<path d="M223.56 201.75C223.5 201.6 223.51 201.53 223.68 201.46L224.03 201.32C224.22 201.24 224.26 201.29 224.32 201.44L229.67 214.63C229.74 214.8 229.68 214.87 229.55 214.93L229.2 215.07C229.04 215.13 228.97 215.12 228.9 214.94L223.56 201.75Z" fill="white"/>
<path d="M227.85 200.01C227.79 199.86 227.8 199.78 227.97 199.72L228.32 199.58C228.51 199.5 228.56 199.55 228.62 199.7L233.97 212.89C234.04 213.06 233.98 213.13 233.84 213.19L233.49 213.33C233.34 213.39 233.26 213.38 233.19 213.2L227.85 200.01Z" fill="white"/>
<path d="M237.34 196.17C237.28 196.02 237.29 195.94 237.46 195.88L237.81 195.74C238 195.66 238.05 195.71 238.11 195.86L240.39 201.48C240.49 200.37 241.16 199.25 242.92 198.54C246.12 197.24 247.99 199.38 248.89 201.59C249.98 204.27 249.62 207.03 246.82 208.16C245.21 208.81 243.82 208.53 242.92 207.73L243.46 209.05C243.53 209.22 243.49 209.29 243.33 209.35L242.98 209.49C242.83 209.55 242.75 209.54 242.68 209.36L237.34 196.17ZM241.61 204.5L241.72 204.77C243.2 208.17 245.31 207.96 246.55 207.45C248.97 206.47 248.9 203.98 248.06 201.91C247.31 200.05 245.78 198.17 243.14 199.24C241.1 200.06 240.49 201.74 241.61 204.5Z" fill="white"/>
<path d="M258.89 200.56L256.09 193.66C256.03 193.51 256.04 193.43 256.21 193.36L256.56 193.22C256.75 193.14 256.79 193.19 256.86 193.35L260.46 202.23C260.51 202.34 260.48 202.4 260.31 202.47C259.81 202.67 259.71 202.69 259.26 201.58C258.88 202.56 258.24 203.58 256.71 204.2C254.62 205.05 253.17 204.12 252.44 202.32L249.95 196.17C249.89 196.02 249.9 195.94 250.07 195.87L250.42 195.73C250.61 195.65 250.65 195.7 250.72 195.86L253.2 201.98C253.8 203.46 254.89 204.15 256.5 203.5C257.85 202.92 258.57 201.81 258.89 200.56Z" fill="white"/>
<path d="M264.52 200.75L264.17 200.89C264.01 200.95 263.94 200.94 263.87 200.76L260.28 191.9C260.23 191.79 260.26 191.73 260.43 191.66C260.93 191.46 261.04 191.52 261.49 192.63C261.63 191.5 262.33 190.64 263.53 190.16C264.66 189.7 265.28 190.01 265.39 190.3C265.48 190.53 265.43 190.57 265.34 190.61C265.13 190.69 264.71 190.49 263.79 190.86C261.85 191.65 261.79 193.41 262.45 195.04L264.64 200.44C264.71 200.63 264.65 200.7 264.52 200.75Z" fill="white"/>
<path d="M268.18 193.71C267.29 191.51 267.21 188.68 270.42 187.38C271.65 186.88 272.97 186.79 274.1 187.54C273.63 186.33 273.7 186.28 274.2 186.07C274.37 186 274.43 186.02 274.47 186.14L278.19 195.32C279.32 198.12 277.9 199.88 275.61 200.81C273.56 201.64 271.92 201.73 271.67 201.09C271.62 200.96 271.66 200.89 271.71 200.87C271.77 200.85 273.24 200.96 275.33 200.12C277.15 199.38 278.36 197.91 277.44 195.63L276.78 194C276.46 195.58 275.32 196.45 274.21 196.9C271.03 198.18 269.07 195.92 268.18 193.71ZM269.02 193.37C269.72 195.1 271.38 197.26 273.95 196.22C275.37 195.65 276.77 194.25 275.56 191.01L275.34 190.47C274.56 188.65 273.35 186.99 270.65 188.09C268.1 189.12 268.23 191.44 269.02 193.37Z" fill="white"/>
<path d="M280.12 189.43C281.34 192.37 283.42 192.58 285.45 191.75C287.08 191.09 288.09 190.01 288.3 189.92C288.44 189.86 288.49 189.89 288.55 190.02C288.63 190.23 288.51 190.48 288.27 190.8C287.85 191.31 286.94 191.92 285.73 192.41C283.13 193.47 280.7 193.25 279.18 189.51C277.93 186.42 278.58 184.06 281.3 182.96C283.73 181.97 285.73 182.86 286.98 185.95C287.2 186.49 287.18 186.56 286.68 186.76L280.12 189.43ZM279.85 188.76L286.1 186.23C285.04 183.61 283.64 182.81 281.63 183.62C279.25 184.58 278.99 186.6 279.85 188.76Z" fill="white"/>
<path d="M292.39 189.46L292.04 189.6C291.89 189.66 291.81 189.65 291.74 189.47L288.15 180.61C288.1 180.5 288.13 180.44 288.3 180.37C288.8 180.17 288.92 180.23 289.37 181.34C289.51 180.21 290.21 179.35 291.4 178.87C292.53 178.41 293.15 178.72 293.26 179.01C293.35 179.24 293.3 179.28 293.21 179.32C293 179.41 292.58 179.2 291.66 179.57C289.72 180.36 289.66 182.12 290.32 183.75L292.51 189.15C292.59 189.33 292.53 189.4 292.39 189.46Z" fill="white"/>
<path d="M297.71 186C297.96 185.9 299.37 186.13 301.27 185.36C303.63 184.4 303.72 183.09 303.32 182.09C302.05 178.97 296.73 183.18 295.43 179.98C294.7 178.18 296.28 176.89 297.93 176.22C299.81 175.46 301.24 175.75 301.42 176.19C301.47 176.3 301.49 176.36 301.36 176.42C301.03 176.55 299.94 176.17 298.19 176.88C296.7 177.49 295.66 178.35 296.2 179.67C297.19 182.12 302.58 178 304.08 181.72C304.71 183.27 304.31 184.88 301.57 185.99C299.79 186.71 297.93 186.93 297.66 186.26C297.65 186.23 297.6 186.05 297.71 186Z" fill="white"/>
<path d="M291.05 296.96L274.4 296.81L286.29 285.13C288.11 283.33 288.14 280.39 286.35 278.55C284.54 276.72 281.6 276.7 279.78 278.5L261.26 296.7L235.3 296.46C232.73 296.44 230.63 298.5 230.61 301.07C230.59 303.63 232.65 305.73 235.21 305.76L251.88 305.9L239.98 317.59C238.15 319.38 238.13 322.33 239.93 324.15C241.29 325.54 243.3 325.9 244.99 325.21C245.54 324.99 246.05 324.65 246.5 324.21L265.03 306.01L291 306.25C291.63 306.24 292.23 306.12 292.77 305.9C294.46 305.21 295.67 303.58 295.68 301.63C295.69 299.08 293.62 296.98 291.05 296.96Z" fill="#432A18"/>
<path d="M259.01 291.21C269.08 287.13 273.93 275.67 269.85 265.6C268.83 263.08 266.33 260.2 263.16 257.32C262.76 256.95 262.13 256.9 261.66 257.22C261.2 257.55 261 258.13 261.22 258.66C262.68 262.47 262.7 265.46 262.15 267.71C262.08 267.97 261.84 268.14 261.57 268.11C261.3 268.08 261.1 267.86 261.08 267.58C261.04 264.9 259.2 261.62 252.73 258.58C246.66 255.75 244.18 252.58 243.32 249.89C243.15 249.36 242.67 248.99 242.11 248.97C241.54 248.94 241.02 249.28 240.82 249.79C238.33 256.01 235.99 265.48 240.52 272.24C240.72 272.54 240.69 272.92 240.43 273.16C240.19 273.4 239.8 273.42 239.52 273.22C237.71 271.89 235.64 269.67 234.6 266.04C234.43 265.45 233.87 265.06 233.26 265.1C232.65 265.15 232.15 265.63 232.07 266.24C231.55 270.61 231.58 275.81 233.43 280.37C237.47 290.44 248.94 295.29 259.01 291.21Z" fill="#432A18"/>
</g>
</g>
<defs>
<clipPath id="clip0">
<rect width="428.5" height="373.41" fill="white"/>
</clipPath>
</defs>
</svg>
