<svg width="43" height="63" viewBox="0 0 43 63" fill="none" xmlns="http://www.w3.org/2000/svg">
<g clip-path="url(#clip0)">
<path d="M5.46799 38.0286C6.32297 38.0286 7.1081 38.0286 7.89184 38.0286C9.02902 38.0286 10.1648 38.037 11.302 38.023C11.5702 38.0202 11.7141 38.1138 11.8482 38.3429C16.1427 45.6676 26.3411 45.6592 30.6397 38.3359C30.7194 38.2004 30.9093 38.044 31.049 38.0426C32.9728 38.0244 34.8965 38.0314 36.8188 38.0342C36.8607 38.0342 36.9012 38.0551 37.0004 38.0817C36.9264 38.7076 36.8565 39.339 36.7769 39.9677C36.0043 46.1384 35.229 52.3091 34.455 58.4783C34.3027 59.6924 34.1393 60.905 34.0108 62.1204C33.9758 62.4501 33.8515 62.52 33.5469 62.5172C31.1147 62.4976 28.6811 62.485 26.2488 62.4864C20.5671 62.4892 14.8854 62.5018 9.20365 62.5116C8.5219 62.513 8.50793 62.513 8.42411 61.8424C7.96868 58.2297 7.52023 54.6169 7.06899 51.0028C6.7337 48.3149 6.39841 45.627 6.06173 42.9392C5.87872 41.4807 5.69151 40.0236 5.5085 38.5651C5.49034 38.4114 5.48475 38.2535 5.46799 38.0286Z" fill="white"/>
<path d="M2.19334 11.9753C14.898 11.9753 27.5523 11.9753 40.275 11.9753C39.6073 17.319 38.9423 22.6403 38.2717 28.0119C38.1054 28.0119 37.9644 28.0119 37.8219 28.0119C35.6215 28.0119 33.4212 28.0063 31.2223 28.0175C30.9303 28.0189 30.7613 27.942 30.6062 27.6752C26.4081 20.4106 16.0924 20.3994 11.8706 27.6542C11.7239 27.9057 11.5772 28.0217 11.2685 28.0189C9.05417 28.0035 6.83987 28.0105 4.62418 28.0105C4.49565 28.0105 4.36712 27.9993 4.19668 27.9909C3.5317 22.6654 2.86671 17.3525 2.19334 11.9753Z" fill="white"/>
<path d="M0.0304033 10.7637C0.0304033 9.60138 -0.0534186 8.44324 0.0555499 7.30606C0.151945 6.30159 0.79458 5.5891 1.7739 5.25521C1.97507 5.18676 2.05191 5.07779 2.1036 4.89478C2.36904 3.94759 2.6205 2.99761 2.92226 2.0616C3.03961 1.69976 3.24777 1.35749 3.46012 1.03897C3.88761 0.397731 4.5051 0.0582519 5.27766 0.0163409C5.4453 0.00795876 5.61295 0.00935579 5.78059 0.00935579C11.7948 0.00935579 17.809 0.0107528 23.8233 0.0107528C28.1485 0.0107528 32.4751 0.0247231 36.8003 -0.000423438C38.0395 -0.0074086 38.8875 0.550007 39.3289 1.64668C39.7173 2.61342 39.9758 3.63186 40.2649 4.63493C40.3613 4.97161 40.4787 5.18955 40.8489 5.33484C41.8394 5.72322 42.3675 6.5307 42.4331 7.56311C42.5002 8.61507 42.4485 9.67542 42.4485 10.7623C28.298 10.7637 14.153 10.7637 0.0304033 10.7637Z" fill="white"/>
<path d="M21.186 7.45174C22.0969 7.45174 23.0091 7.45174 23.92 7.45174C23.9409 7.45174 23.9619 7.45174 23.9829 7.45174C25.0753 7.43637 25.9136 6.61492 25.9191 5.55597C25.9247 4.5068 25.0767 3.6574 23.9926 3.65181C22.1486 3.64343 20.3059 3.64762 18.4618 3.65181C18.2858 3.65181 18.1041 3.66997 17.9365 3.71747C16.9767 3.99548 16.4151 4.86025 16.552 5.82559C16.6862 6.76859 17.4657 7.43917 18.4534 7.44755C19.3629 7.45733 20.2737 7.45174 21.186 7.45174Z" fill="#272727"/>
<path d="M26.7616 27.6347C25.0642 27.4237 23.737 28.1152 22.6333 29.3335C21.7448 30.3156 21.179 31.4849 20.6761 32.6947C20.3324 33.5204 19.9804 34.3446 19.5808 35.1437C18.7943 36.714 17.4685 37.7157 15.936 38.4812C15.3576 38.7704 15.359 38.7732 15.0125 38.2116C14.145 36.8076 14.0388 35.2764 14.4733 33.7495C15.5099 30.1046 17.889 27.7017 21.5059 26.5883C22.963 26.1398 24.4453 26.1817 25.8367 26.918C26.172 27.0954 26.4724 27.3371 26.7895 27.5494C26.7797 27.5788 26.7713 27.6067 26.7616 27.6347Z" fill="white"/>
<path d="M15.5615 38.8695C18.3766 38.9394 20.1773 37.4292 21.5492 35.2247C22.1471 34.2649 22.5048 33.2004 22.889 32.1456C23.262 31.1202 23.6769 30.1157 24.4355 29.2985C25.0935 28.5888 25.9345 28.1752 26.8216 27.8441C26.9026 27.8134 27.0745 27.8972 27.1415 27.9797C28.0245 29.0651 28.357 30.3281 28.2159 31.7C27.9043 34.7385 26.2852 36.9933 23.8571 38.7158C22.4112 39.7413 20.7962 40.342 18.9954 40.3113C17.8303 40.2903 16.7616 39.9634 15.8591 39.1894C15.7823 39.1238 15.7082 39.0525 15.6356 38.9813C15.6132 38.9589 15.5993 38.9282 15.5615 38.8695Z" fill="white"/>
</g>
<defs>
<clipPath id="clip0">
<rect width="42.4698" height="62.52" fill="white"/>
</clipPath>
</defs>
</svg>
