<svg width="72" height="84" viewBox="0 0 72 84" fill="none" xmlns="http://www.w3.org/2000/svg">
<path d="M47.4848 35.4101C49.7719 36.7423 52.2214 37.8159 54.5971 39.0058C58.9797 41.2047 63.3917 43.3518 67.789 45.5377C69.2351 46.2491 69.2793 47.1933 67.9513 48.0858C67.2725 48.4479 66.5938 48.7972 65.9297 49.1593C52.0886 56.5966 38.2475 64.021 24.4211 71.4712C22.2078 72.6611 19.9058 73.7606 17.7957 75.1187L17.8105 75.1057C17.6924 75.1575 17.5596 75.2092 17.4416 75.261C12.6164 77.8349 7.79116 80.4218 2.96595 82.9957C2.77412 83.0992 2.56754 83.2027 2.37572 83.3061C1.66743 83.6942 0.973895 83.6812 0.413168 83.1251C-0.147559 82.5818 -0.118048 81.9739 0.383655 81.3789C1.66743 79.8656 2.9512 78.3523 4.23497 76.8519C11.8048 67.9789 19.3599 59.1059 26.9444 50.2588C27.4904 49.625 27.3281 49.431 26.6198 49.0817C19.3451 45.5248 12.0999 41.929 4.83996 38.3462C4.5596 38.2039 4.24972 38.0746 3.96936 37.9193C2.80364 37.2856 2.77412 36.1991 3.93985 35.5523C5.60727 34.6211 7.31897 33.7286 9.00115 32.8102C29.0103 22.0747 49.0194 11.3262 69.0285 0.577724C69.2203 0.474248 69.4269 0.370771 69.6187 0.267296C70.327 -0.120736 71.0206 -0.107803 71.5813 0.448377C72.1568 0.991621 72.1125 1.59954 71.6108 2.19452C70.2827 3.74665 68.9695 5.31172 67.6414 6.86384C66.2544 8.48064 64.8378 10.0974 63.4655 11.7272C63.2589 11.9729 62.9638 12.1928 62.9785 12.542L63.008 12.5291C62.8162 12.4774 62.7867 12.6197 62.7129 12.7102C62.6244 12.7878 62.5211 12.8654 62.4326 12.9559C57.0319 19.2938 51.6312 25.6187 46.2452 31.9566C44.3417 34.1813 44.3565 34.1942 47.2929 35.3842C47.3519 35.4101 47.4257 35.4101 47.4848 35.4101ZM24.3031 68.3669C24.6868 68.3281 24.9671 68.1082 25.277 67.9401C38.0114 61.0978 50.7458 54.2555 63.4802 47.4132C64.4836 46.8829 64.4836 46.8829 63.4507 46.3784C56.3383 42.8732 49.226 39.368 42.1136 35.8498C40.5199 35.0608 40.3871 34.4529 41.4791 33.1595C44.1647 30.0035 46.8798 26.8604 49.5506 23.6915C50.9229 22.0618 52.3985 20.5096 53.6232 18.7894H53.6085C53.8446 18.66 53.9921 18.4789 54.0512 18.2461C57.6074 14.3917 60.8684 10.3561 64.2771 6.41114C64.218 6.3594 64.1443 6.32059 64.0852 6.26886C45.2714 16.3706 26.4575 26.4853 7.6436 36.5871C7.8797 36.9234 8.24859 37.001 8.55847 37.1562C15.7151 40.7002 22.8865 44.2313 30.0579 47.7753C31.4302 48.4479 31.5778 49.1076 30.6334 50.2329C29.1431 52.0049 27.6232 53.764 26.1328 55.5231C20.0386 62.6758 13.9592 69.8285 7.86494 76.9812C7.80592 77.0588 7.73213 77.1364 7.67311 77.214C7.82067 77.2787 7.95347 77.2787 8.04201 77.1235C8.41091 76.9424 8.79456 76.7743 9.14871 76.5673C14.0772 73.8899 19.0942 71.3418 23.9342 68.5351C24.067 68.5092 24.1851 68.4316 24.3031 68.3669Z" fill="white"/>
<path opacity="0.5" d="M17.8105 75.1188C19.9206 73.7737 22.2078 72.6742 24.4359 71.4713C38.2623 64.0211 52.1034 56.5968 65.9445 49.1595C66.6233 48.7973 67.3021 48.4481 67.9661 48.0859C68.4825 48.5128 69.117 48.7585 69.722 49.056C70.3123 49.3535 70.4303 49.5863 69.7515 49.9485C67.1545 51.3325 64.6017 52.7553 62.0047 54.1392C59.2158 55.6396 56.4269 57.1012 53.638 58.6016C50.4655 60.309 47.2929 62.0292 44.1056 63.7366C36.9047 67.6169 29.7186 71.4972 22.5176 75.3646C19.8763 76.7874 17.2055 78.1843 14.5494 79.5812C14.2691 79.7235 13.9739 79.827 13.5165 80.021C14.6675 78.1972 16.1726 76.8003 17.4416 75.2611C17.5744 75.2094 17.6924 75.1576 17.8105 75.1188C17.8105 75.1188 17.8252 75.1059 17.8105 75.1188Z" fill="white"/>
<path opacity="0.5" d="M47.4848 35.4101C47.4258 35.3971 47.352 35.4101 47.2929 35.3842C44.3565 34.1942 44.3565 34.1942 46.2453 31.9566C51.6312 25.6187 57.0319 19.2809 62.4326 12.956C62.5064 12.8654 62.6097 12.8007 62.713 12.7102C62.8162 12.6455 62.9048 12.5809 63.0081 12.5291L62.9786 12.5421C64.5132 12.1152 65.6937 11.1581 67.0807 10.5114C67.7743 10.188 68.4235 9.77409 69.117 9.43779C69.2941 9.34725 69.5302 9.12737 69.722 9.33432C69.9139 9.52834 69.663 9.69648 69.5302 9.85169C67.8628 11.8307 66.2101 13.8096 64.5279 15.7757C60.3815 20.639 56.2351 25.4894 52.0739 30.3398C50.7311 31.9048 49.3735 33.4699 48.0012 35.035C47.8684 35.1902 47.6619 35.2937 47.4848 35.4101Z" fill="white"/>
<path opacity="0.5" d="M61.3335 29.0978C60.1087 30.8181 58.6332 32.3831 57.2608 33.9999C54.59 37.1689 51.8749 40.3119 49.1893 43.4679C48.0826 44.7614 48.2302 45.3693 49.8238 46.1583C56.9362 49.6764 64.0486 53.1817 71.161 56.6869C72.1791 57.1913 72.1791 57.1784 71.1905 57.7216C58.4561 64.5639 45.7217 71.4062 32.9872 78.2485C32.6774 78.4167 32.4118 78.6366 32.0281 78.6754H32.0134C31.8953 78.74 31.7773 78.8047 31.6592 78.8694C31.0247 78.6495 31.4526 78.352 31.6297 78.1451C32.5298 77.0456 33.4594 75.9462 34.3891 74.8597C37.783 70.8759 41.1916 66.8921 44.5855 62.9083C45.22 62.1581 45.0281 61.3174 44.0838 60.8518C40.7637 59.1962 37.414 57.5535 34.0792 55.9108C30.1984 53.9965 26.3028 52.0952 22.422 50.1679C21.5366 49.7282 21.5514 49.4566 22.4367 48.9909C27.9997 45.9901 33.5775 42.9894 39.1553 40.0015C44.7035 37.0266 50.2517 34.0646 55.8 31.0897C57.6002 30.1196 59.4005 29.1495 61.2007 28.1795C61.3925 28.076 61.5991 27.8949 61.8204 28.0501C62.0418 28.2053 61.968 28.4123 61.7909 28.5804C61.7024 28.8003 61.5548 28.9685 61.3335 29.0978C61.3335 29.0978 61.3187 29.0978 61.3335 29.0978Z" fill="white"/>
<path d="M54.0512 18.2592C54.2282 18.0911 54.302 17.8841 54.0807 17.7289C53.8593 17.5737 53.6528 17.7548 53.4609 17.8583C51.6607 18.8284 49.8605 19.7984 48.0602 20.7685C42.512 23.7434 36.9637 26.7054 31.4155 29.6803C25.8377 32.6682 20.2747 35.6689 14.697 38.6697C13.8116 39.1483 13.7968 39.407 14.6822 39.8468C18.563 41.774 22.4438 43.6753 26.3394 45.5896C29.6743 47.2323 33.0091 48.875 36.344 50.5306C37.2884 50.9962 37.4802 51.8369 36.8457 52.5871C33.4518 56.5709 30.0579 60.5547 26.6493 64.5385C25.7197 65.625 24.7901 66.7244 23.8899 67.8239C23.7129 68.0437 23.2849 68.3412 23.9194 68.5482C19.0795 71.355 14.0477 73.903 9.13396 76.5804C8.77981 76.7745 8.39616 76.9426 8.02726 77.1366C7.96823 77.0849 7.90921 77.0461 7.85018 76.9943C13.9444 69.8416 20.0239 62.6889 26.1181 55.5362C27.6232 53.7771 29.1283 52.0051 30.6187 50.246C31.563 49.1337 31.4155 48.474 30.0432 47.7885C22.8718 44.2444 15.7151 40.7134 8.54371 37.1693C8.23384 37.0141 7.86494 36.9365 7.62884 36.6002C26.4427 26.4855 45.2566 16.3837 64.0705 6.28198C64.1295 6.33372 64.2033 6.37252 64.2623 6.42426C60.8684 10.3693 57.6074 14.4177 54.0512 18.2592Z" fill="#FEFEFE"/>
<path d="M17.8105 75.1203C17.8105 75.1203 17.83 75.1045 17.8105 75.1203C17.83 75.1045 17.8105 75.1203 17.8105 75.1203Z" fill="#FEFEFE"/>
</svg>
