<svg width="65" height="56" viewBox="0 0 65 56" fill="none" xmlns="http://www.w3.org/2000/svg">
<path d="M5.45031 44.9614C9.1782 49.2879 13.8131 51.6462 19.1646 52.5351C26.1668 53.687 33.1872 53.823 40.2076 52.6893C42.7473 52.2811 45.2326 51.5917 47.609 50.5215C47.7178 50.4761 47.8267 50.4035 47.9808 50.3219C45.9491 50.4489 43.9899 50.5668 42.0307 50.6938C42.0217 50.6122 42.0217 50.5396 42.0126 50.458C43.228 50.204 44.4525 50.0044 45.6498 49.687C47.6452 49.17 49.6588 48.6802 51.5999 47.9727C52.4434 47.6643 53.1146 46.8299 53.8584 46.2403C53.8221 46.1859 53.7858 46.1314 53.7405 46.077C52.5704 46.3854 51.4185 46.7482 50.2393 46.975C49.0693 47.2108 47.872 47.3196 46.6747 47.365C48.4344 46.7482 50.2121 46.1496 51.9627 45.4874C52.7246 45.2063 53.423 44.7437 54.1849 44.4806C55.5999 43.9999 55.8448 42.721 56.2076 41.424C55.1917 41.8865 54.2666 42.3673 53.3051 42.7482C50.1124 44.0271 46.7745 44.6893 43.4004 45.1609C35.219 46.2947 27.0194 46.1949 18.8108 45.6144C14.2485 45.2879 9.89475 44.145 5.95825 41.5328C5.09657 40.9614 4.3256 40.3083 3.8358 39.3469C3.24624 38.1949 3.50927 37.4965 4.6612 37.043C4.80632 36.9886 4.96052 36.7709 5.00587 36.5986C5.20542 35.8095 5.37775 35.0022 5.55009 34.204C5.56823 34.1405 5.64079 34.0589 5.62265 34.0226C5.03308 32.907 5.94918 32.2993 6.37548 31.4829C4.82446 30.5759 3.15553 30.2675 1.43218 30.4671C0.897034 30.5306 0.579574 30.3492 0.280255 29.9863C-0.273032 29.3061 0.0444286 27.9546 0.788191 27.5555C0.987737 27.4557 1.11472 27.1655 1.24171 26.9387C1.47753 26.5124 1.66801 26.0589 1.91291 25.6417C1.9764 25.5419 2.20315 25.5691 2.35735 25.5328C2.72016 25.4512 3.11925 25.4331 3.44578 25.2607C3.77231 25.0884 4.24397 24.9433 4.11698 24.3537C4.00814 23.8639 3.39136 23.2562 2.93785 23.2653C2.51154 23.2743 1.93105 23.365 1.88569 22.8208C1.84034 22.2585 2.43898 22.1859 2.88342 22.1315C3.24624 22.0952 3.79045 21.9047 3.95372 22.0861C4.40723 22.5759 4.69748 23.2381 5.06936 23.8548C5.30519 23.6553 5.63172 23.4104 5.49566 22.7755C5.4231 22.458 5.67707 22.0589 5.79498 21.6689C5.39589 21.4149 4.96959 21.161 4.5705 20.8707C2.86528 19.6372 2.52061 18.6938 2.92878 16.5533C3.38229 14.195 4.39816 12.136 5.82219 10.2948C8.83353 6.39455 12.8063 4.0907 17.2326 2.53968C16.0535 3.16553 14.8562 3.74602 13.7133 4.4263C10.6113 6.26756 7.89929 8.58048 6.06709 11.9002C5.14192 13.5782 4.59771 15.4013 4.30746 17.3152C4.16233 18.2675 4.51607 19.0567 5.18727 19.6553C5.5773 20 6.0036 20.3084 6.45711 20.5442C6.70201 20.6712 7.03761 20.653 7.33693 20.653C7.79951 20.653 8.27117 20.5533 8.71561 20.6258C9.14192 20.6893 9.5138 20.9251 9.4231 21.551C9.40496 21.6598 9.66799 21.9138 9.82219 21.9319C10.829 22.0408 11.8449 22.0498 12.8426 22.1859C13.2326 22.2403 13.5864 22.5578 13.9673 22.712C14.3573 22.8662 14.7655 23.0566 15.1646 23.0839C16.6884 23.1836 18.2122 23.2381 19.736 23.2834C19.999 23.2925 20.2711 23.1746 20.516 23.0566C21.6317 22.5215 22.7383 22.5487 23.9265 22.7936C24.8788 22.9932 25.8947 22.8299 26.9015 22.8299C26.965 22.5578 27.0194 22.322 27.092 22.0045C26.3936 21.941 25.7496 21.8866 25.0965 21.8322C25.0965 21.805 25.0875 21.7777 25.0875 21.7505C25.4412 21.7052 25.7949 21.6961 26.1396 21.6145C26.7383 21.4603 27.346 21.2879 27.9265 21.0612C28.4072 20.8707 28.7791 20.7165 29.1963 21.2789C29.4412 21.6054 29.9673 21.7052 30.4389 21.941C30.3029 22.6394 30.838 22.7483 31.4367 23.0113C33.0058 23.7006 34.6113 23.3741 36.2076 23.4104C36.4525 23.4195 36.7065 23.3288 36.9332 23.229C38.1033 22.7029 39.2824 22.5396 40.516 23.0113C41.9038 23.5374 43.3278 23.2018 44.7337 23.1473C44.8153 23.1473 44.8879 23.0476 45.1056 22.8934C44.4162 22.7936 43.8902 22.721 43.355 22.6485C43.3459 22.6122 43.3459 22.5669 43.3369 22.5306C43.5273 22.5034 43.7178 22.4852 43.9083 22.4399C44.5704 22.2857 45.2779 22.3492 45.8584 21.7687C46.0307 21.5963 46.6657 21.7142 46.9196 21.9229C47.9446 22.7845 49.2053 22.7392 50.1124 22.2494C51.0557 21.7505 51.8901 22.0317 52.7609 21.9229C52.8425 21.9138 52.9332 21.9229 53.0149 21.8957C54.3845 21.3333 55.7087 20.6802 56.6974 19.4557C57.4502 18.5215 57.4593 17.4421 57.287 16.3174C56.8062 13.3061 55.2643 10.9297 53.2779 8.85259C49.804 5.23355 45.5954 2.93877 41.0058 1.41496C39.3913 0.879817 37.7314 0.498865 35.9174 0C37.3958 0.217687 38.7019 0.362813 39.999 0.59864C44.0262 1.33333 47.872 2.63038 51.3368 5.00679C54.6928 7.30157 57.3232 10.2676 58.5477 14.4127C58.847 15.4376 58.9559 16.5351 59.101 17.6054C59.3096 19.229 58.6021 20.4444 57.4593 21.4149C57.2144 21.6235 56.9604 21.8231 56.7065 22.0317C57.6226 22.7664 58.2756 22.6848 58.9377 21.7596C59.1373 21.4693 59.3187 21.161 59.482 20.8435C59.7813 20.263 60.2257 19.9365 60.8697 19.8911C61.2325 20.5805 61.7132 21.2426 61.423 22.1133C61.0965 23.102 60.0625 22.4852 59.4457 23.1111C59.6543 23.2562 59.8357 23.4104 60.0443 23.5192C60.2711 23.6371 60.516 23.7188 60.7427 23.8186C60.5885 24.4263 61.0058 25.3333 61.5681 25.5782C61.9037 25.7233 62.2484 25.8231 62.5931 25.941C63.5999 26.2857 64.1985 27.1564 64.1804 28.263C64.1804 28.4716 64.0987 28.7074 63.9899 28.8888C63.2915 30.0861 61.8402 30.4308 60.7155 29.687C60.3436 29.4421 59.9445 29.2335 59.4729 28.9614C60.135 28.6439 60.6702 29.0067 61.2325 29.1428C61.6407 29.2426 62.1668 29.3242 62.4752 29.1247C62.847 28.8888 63.3187 28.2993 63.2643 27.9546C63.1645 27.4013 62.7291 26.8571 62.321 26.458C62.0579 26.204 61.5772 26.1496 61.1872 26.0952C60.5069 26.0136 59.881 25.9138 59.7269 25.0158C59.6906 24.8163 59.491 24.653 59.3368 24.4172C58.4933 25.3605 57.686 25.1519 56.8425 24.4625C56.4797 24.1723 56.0353 24 55.6271 23.6825C55.9445 23.7641 56.2711 23.8276 56.5704 23.9455C56.8516 24.0544 57.0965 24.2993 57.3777 24.3356C57.7495 24.3809 58.2575 24.4172 58.4933 24.1995C58.7201 23.9909 58.6838 23.4557 58.7926 22.9569C58.2393 23.0113 57.8765 23.102 57.5318 23.0748C57.169 23.0476 56.7337 23.0022 56.4706 22.7755C56.135 22.4943 55.9264 22.4671 55.5364 22.6576C54.8017 23.0294 54.067 23.483 53.1781 23.102C52.9967 23.0204 52.7337 23.1927 52.5069 23.229C52.1169 23.2834 51.7178 23.4195 51.5545 22.7845C51.4638 22.4399 51.1917 22.4489 50.9922 22.7573C50.8743 22.9387 50.7745 23.1383 50.6838 23.3106C50.9922 23.5737 51.3459 23.8004 51.5636 24.1269C51.6452 24.2449 51.3822 24.6167 51.2008 25.043C51.101 24.5805 51.0466 24.3174 50.9831 24.0362C50.6022 24.1904 50.2756 24.3446 49.931 24.4625C49.3323 24.6621 48.8335 24.5442 48.3981 23.9909C48.1985 23.7369 47.6997 23.6916 47.5908 23.4285C47.2915 22.7483 46.7564 22.6485 46.0489 22.5396C45.8221 23.1836 45.5772 23.873 45.2598 24.7528C45.7042 24.5623 45.94 24.4535 46.2121 24.3356C46.321 24.9342 46.1033 25.3151 45.6498 25.5782C44.6974 26.1315 42.7019 25.9229 41.9854 24.9523C41.7677 24.6621 41.2598 24.5714 40.8698 24.4807C40.5704 24.4081 40.2348 24.4625 39.8902 24.3174C40.2348 24.2176 40.5886 24.1269 40.9423 24.0272C39.618 23.0113 37.7859 23.2471 36.4525 24.5623C35.6453 25.3605 34.8017 26.1405 33.9945 26.9478C33.8856 27.0566 33.7677 27.3741 33.8312 27.4467C34.1759 27.8911 34.1124 28.3628 34.0035 28.8616C33.9854 28.9523 34.0398 29.0702 34.0761 29.2426C34.2847 29.1156 34.4571 29.0067 34.6385 28.8979C35.1101 29.17 35.5636 29.5873 36.1441 29.1337C36.6339 28.7528 36.6611 28.2448 36.643 27.6281C36.7791 27.9546 36.9151 28.2811 37.0421 28.5986C37.8131 28.0816 38.1577 26.9569 37.6407 25.6054C38.4208 26.0498 38.5478 26.7845 38.584 27.5102C38.6385 28.8979 37.9582 29.7959 36.7518 30.2947C37.5954 30.848 38.5024 30.3945 39.0466 29.6054C39.4911 28.9614 39.6362 28.2539 39.9537 27.6281C40.2893 26.9569 40.6974 25.8956 41.8493 26.1133C42.3119 26.204 42.7019 26.3038 42.9468 26.7845C43.1101 27.102 43.3006 27.3741 43.7541 27.2471C43.9355 27.1927 44.2348 27.3197 44.389 27.4739C45.16 28.2358 46.0126 28.3265 46.965 27.873C46.9831 27.9365 47.0013 27.9999 47.0194 28.0634C46.5115 28.3265 45.9945 28.5895 45.4956 28.8435C46.1849 29.4603 46.6203 29.4875 47.9174 28.9795C47.7722 29.6779 47.2824 29.8956 46.7019 30.0226C47.6271 30.9841 48.9151 30.712 49.3595 29.5147C49.5046 29.1156 49.6226 28.7074 49.7133 28.2902C49.7405 28.1541 49.6498 27.9909 49.5681 27.6643C49.7768 27.5464 50.1214 27.365 50.457 27.1655C50.838 26.9387 51.2461 26.7301 51.5727 26.4399C52.3164 25.7687 52.9423 25.5963 53.9219 25.9229C53.1509 26.0952 52.3799 26.1405 51.9627 26.7664C52.7972 26.7664 53.6861 26.6757 54.5387 26.7936C55.2915 26.9024 55.9536 28.1269 55.8811 28.9795C55.9173 29.0067 55.9445 29.043 55.9808 29.0521C56.8606 29.2335 57.7858 28.907 57.9582 28.3718C58.1123 27.882 57.4321 26.975 56.6611 26.6394C56.5704 26.6031 56.4797 26.5578 56.3074 26.4761C57.423 25.8866 58.4752 25.7868 59.5454 26.331C59.999 26.5668 60.2439 26.9659 60.1894 27.6009C59.8901 27.4013 59.618 27.229 59.3096 27.0294C59.2643 27.238 59.2371 27.3741 59.2098 27.5192C58.9287 27.4104 58.6747 27.3197 58.4117 27.2199C59.0738 28.2086 57.9763 28.8344 57.8856 29.7505C58.3391 29.424 58.6747 29.1882 59.0103 28.9523C58.1668 30.4217 57.9763 30.4852 57.3051 29.5691C57.1509 29.6507 56.9876 29.7324 56.8244 29.814C57.1418 30.7845 57.4956 31.7006 57.7495 32.6439C57.8765 33.1065 57.9309 33.6507 57.8312 34.1133C57.7314 34.6122 57.4049 35.0566 57.1872 35.5283C57.1328 35.5011 57.0693 35.4739 57.0148 35.4466C57.0421 35.6462 57.0783 35.8457 57.0783 36.0453C57.0693 36.7528 56.9967 37.433 57.8584 37.7596C58.0761 37.8412 58.2393 38.4489 58.2303 38.8117C58.1849 43.3559 56.2711 46.8661 52.8697 49.5056C50.1305 51.628 47.0013 52.8253 43.736 53.6416C38.0217 55.0747 32.2258 55.2108 26.3936 54.9387C23.1646 54.7845 19.9628 54.4126 16.8335 53.5419C12.6612 52.3809 8.99679 50.3582 6.38455 46.5487C6.0943 46.0045 5.77684 45.4784 5.45031 44.9614ZM33.1691 38.6847C33.6317 40.526 33.1419 42.1224 31.9355 43.5283C34.1577 44.0181 36.0172 43.628 37.3051 42.1859C38.1305 41.2698 38.7292 40.1269 39.4185 39.0748C39.5999 38.7936 39.736 38.4852 39.9537 38.068C40.4253 40.1541 40.1351 41.8956 38.7745 43.4557C40.5432 43.6643 41.9763 43.1292 43.3097 42.2131C44.6248 41.3151 45.5228 39.9818 46.3301 38.5759C46.4026 38.6122 46.4752 38.6394 46.5387 38.6757C46.2847 39.9364 46.0307 41.2063 45.7768 42.4943C47.3459 42.3401 48.8879 41.8593 50.1214 40.5351C51.3006 39.2743 52.0988 37.7686 52.6158 35.9999C53.296 37.5419 52.8969 38.9478 52.4434 40.3627C54.4752 39.8639 55.5545 38.7482 55.8176 36.7709C55.9718 35.5736 55.872 34.3945 54.8652 33.5782C53.9672 32.8616 51.4638 32.8072 50.5115 33.4512C50.4117 33.5147 50.33 33.6235 50.1486 33.7959C50.6929 33.7959 51.1101 33.7959 51.6543 33.7959C51.0829 34.1042 50.5749 34.2766 50.194 34.6122C49.5772 35.1473 49.0239 35.7732 48.4888 36.4081C47.355 37.7596 46.3573 38.0589 44.8062 37.297C43.9083 36.8525 43.092 36.2267 42.2212 35.7188C41.9673 35.5646 41.6498 35.4376 41.3595 35.4466C39.6453 35.5011 37.931 35.6734 36.2167 35.6553C35.0557 35.6462 33.8856 35.4104 32.7246 35.2834C32.7337 35.2108 32.7337 35.1383 32.7428 35.0657C35.3459 34.848 37.931 34.5215 40.4888 33.7868C39.9899 33.1791 39.6181 32.9795 38.9559 33.034C37.9219 33.1156 36.8788 33.1881 35.8539 33.3605C32.0625 33.9954 28.2893 34.6847 24.4979 35.3378C23.4911 35.5101 22.575 35.882 21.7768 36.5623C22.0489 36.526 22.312 36.4444 22.575 36.3718C22.8652 36.2993 23.1555 36.2176 23.4457 36.1813C23.6997 36.1451 23.9537 36.1541 24.2076 36.136C24.0353 36.2993 23.8539 36.3627 23.6725 36.4172C22.5024 36.78 21.3777 37.2154 20.5523 38.2584C20.2984 38.5759 19.9446 38.8208 19.609 39.0566C18.8018 39.6371 17.9582 39.6825 17.0784 39.238C16.0807 38.7392 15.2553 38.0045 14.5932 37.0612C14.2848 36.6167 13.9945 36.136 13.5954 35.5101C13.1691 36.1813 12.7882 36.7709 12.4072 37.3696C11.2462 36.7528 11.1737 35.6099 12.3619 34.0589C11.8993 33.8412 11.482 33.5963 11.0467 33.4421C10.6294 33.297 10.1669 33.2698 9.74962 33.1247C8.83353 32.8072 7.66346 33.2516 7.15553 34.1315C7.47298 33.9863 7.82672 33.814 8.18047 33.6507C6.50246 35.0748 5.88569 36.4716 6.31199 38.0589C6.62038 39.2017 7.84487 40.3537 8.81539 40.4172C8.38001 38.8843 8.54328 37.4965 9.6952 36.3265C9.37774 38.1133 9.88568 39.5464 11.2009 40.6621C12.4435 41.7233 13.8403 42.1768 15.5183 42.077C14.8653 40.9342 15.1918 39.9999 15.7904 38.9841C15.8902 39.2924 15.9446 39.492 16.0172 39.6734C16.5614 41.043 17.2054 42.3219 18.7473 42.6031C19.7088 42.7845 20.6702 42.9024 21.6408 43.0022C21.931 43.0294 22.2303 42.9206 22.5659 42.8661C21.677 40.9704 21.7405 39.5011 22.7745 38.5033C22.7745 38.848 22.7564 39.1383 22.7745 39.4194C22.8925 41.3514 23.9265 42.721 25.6952 43.2017C27.346 43.6462 28.9333 43.365 30.4752 42.6485C31.7632 42.0498 32.6067 41.043 32.9514 39.5827C33.0512 39.2924 33.1056 38.9841 33.1691 38.6847ZM34.0489 30.7573C32.7972 30.4852 31.7088 30.5578 30.6475 30.9296C29.2598 31.4104 27.872 31.9092 26.4934 32.4172C25.6408 32.7346 24.9333 32.6077 24.3709 31.7823C23.6816 30.7755 22.6657 30.5033 21.6498 30.9024C20.2802 31.4467 19.2462 31.2018 18.1487 30.1677C17.1147 29.1972 15.219 29.4965 14.3301 30.585C15.2009 30.7573 16.0172 30.9206 16.9242 31.102C16.0081 31.6825 15.1011 31.7732 14.1759 31.5646C13.5319 31.4285 12.9061 31.2018 12.2893 30.975C11.5274 30.6938 10.8834 30.9659 10.2394 31.356C10.6022 31.4194 10.965 31.4194 11.3188 31.4194C13.2235 31.3832 14.8108 32.0181 15.9265 33.7505C16.1714 34.1315 16.5251 34.458 16.8789 34.7482C17.4321 35.2108 17.8403 35.1564 18.3301 34.6394C18.6022 34.3491 18.8562 34.0498 19.1464 33.7868C19.8539 33.1428 20.4798 32.9523 21.2779 33.1247C20.1986 33.2607 19.5727 34.0589 18.956 34.8662C18.8199 35.0385 18.6748 35.2018 18.5206 35.365C17.795 36.136 17.1963 36.2176 16.4072 35.5192C15.7451 34.9296 15.1192 34.2675 14.5387 33.5872C14.0217 32.9795 13.3687 32.8435 12.7882 32.7528C13.3505 33.4965 13.9129 34.2947 14.5297 35.0476C15.2462 35.9364 15.9537 36.8435 16.761 37.6326C17.4866 38.3582 18.3029 38.2766 19.0467 37.5691C19.7269 36.9251 20.3891 36.2448 21.0875 35.6281C22.2031 34.6485 23.5002 34.195 24.9605 34.1224C26.9106 34.0317 28.8607 33.941 30.8017 33.7142C33.5228 33.3877 36.2258 32.9342 38.9287 32.5442C39.9264 32.399 40.7609 32.653 41.55 33.4058C42.575 34.3854 43.6906 35.2471 44.8153 36.0997C45.5409 36.653 46.3301 36.526 46.9831 35.9002C47.4094 35.5011 47.7632 35.0113 48.126 34.5487C48.5432 34.0135 48.8969 33.4058 49.3505 32.907C49.6316 32.6076 50.0398 32.3718 50.4298 32.263C51.2099 32.0634 52.0171 31.9818 52.8062 31.8367C53.9491 31.6281 54.9015 31.9455 55.6271 32.9433C55.9445 33.3696 56.2529 33.8049 56.6157 34.1768C56.7699 34.3401 57.0511 34.3673 57.2779 34.458C57.3595 34.2222 57.55 33.9501 57.5046 33.7505C57.2597 32.7528 56.9695 31.7641 56.643 30.7936C56.4978 30.3582 56.1804 30.1043 55.6997 30.0226C55.0919 29.9228 54.6747 29.5691 54.6022 28.8163C54.5749 28.526 54.3572 28.1814 54.1214 28C53.5681 27.5464 52.516 27.619 51.9627 28.0362C52.3527 28.1179 52.7881 28.1995 53.2325 28.2902C52.7518 28.5623 52.262 28.6439 51.8629 28.8888C51.1373 29.3333 50.4207 29.8231 49.7586 30.3764C48.5704 31.3741 47.8176 31.4285 46.5115 30.6031C45.8221 30.1678 45.1056 29.7687 44.3527 29.4512C43.8539 29.2426 43.2915 29.2063 42.7564 29.0975C42.7292 29.1882 42.7019 29.2789 42.6747 29.3696C43.2371 30.2222 44.1985 30.3854 45.1419 30.8117C43.7722 31.0838 42.7292 30.6303 41.804 29.7959C41.033 29.1065 40.8697 29.1519 40.4616 30.1496C41.9854 30.7573 42.058 30.7755 43.1736 32.0453C43.9718 32.9523 44.9242 33.1609 46.0217 32.9433C46.194 32.907 46.3663 32.8707 46.6657 32.7981C45.2235 33.7868 44.2257 33.7686 42.9831 32.8072C42.7926 32.6621 42.6203 32.4988 42.4298 32.3537C41.1419 31.3378 39.6815 30.8843 38.1124 31.1655C36.9151 31.3832 35.7269 31.492 34.5115 31.4376C34.0217 31.4194 33.5319 31.4376 33.0512 31.5011C32.5523 31.5646 32.0625 31.7188 31.5727 31.8276C31.5818 31.8639 31.5909 31.9002 31.609 31.9364C32.4616 32.0181 33.3142 32.0906 34.1668 32.1723C34.1668 32.1995 34.1577 32.2267 34.1577 32.2539C32.4797 32.4353 30.7927 32.6167 29.1147 32.7891C29.0421 32.7165 28.9786 32.653 28.9061 32.5804C29.1872 32.3809 29.4775 32.1995 29.7496 31.9909C30.9831 31.0385 32.4979 31.1111 34.0489 30.7573ZM33.7133 29.8412C33.7133 29.3151 33.7224 28.9705 33.7133 28.6167C33.7042 28.3718 33.6952 28.1088 33.6135 27.8911C33.2507 26.9297 33.2235 26.9024 34.0035 26.2585C34.4299 25.9047 34.3754 25.6235 34.0308 25.2789C33.3051 24.5351 32.4344 24.1451 31.4548 23.9002C30.9287 23.7732 30.3029 23.5011 29.9945 23.0657C29.677 22.6213 29.414 22.1768 28.9695 21.814C28.4163 21.3605 27.9265 21.4331 27.7723 22.1678C27.5727 23.102 27.346 24.009 26.5024 24.5986C26.7836 24.6621 27.0285 24.6802 27.2643 24.653C27.5092 24.6258 27.7541 24.5623 27.999 24.5079C26.829 25.3877 25.6226 25.9229 24.2258 25.1156C23.7451 24.8344 23.3641 25.034 23.2371 25.6507C23.1192 26.2222 23.1101 26.8117 23.0194 27.3922C22.8199 28.7256 21.8403 29.3151 20.634 28.8616C22.0943 28.5804 22.4389 28.1088 22.4117 26.4761C22.4027 26.0952 22.4027 25.7052 22.4662 25.3333C22.6657 24.1269 23.0739 23.8367 24.126 24.1179C23.5455 23.3741 22.6566 23.1201 21.7405 23.5283C20.7247 23.9818 19.7451 24.517 18.7473 25.0249C18.6566 25.0702 18.5841 25.17 18.5297 25.2607C17.5229 26.8571 15.9718 27.356 14.5387 26.2222C13.9492 26.4761 13.414 26.7029 12.8426 26.9478C12.7247 27.9546 12.1079 29.1337 13.3233 29.9138C13.4775 29.6417 13.5773 29.3696 13.7587 29.1972C14.0127 28.9342 14.3845 28.7891 14.6022 28.5079C15.1192 27.8548 15.7541 27.5646 16.5161 27.7551C17.5047 27.9999 18.2485 28.6712 18.8743 29.4965C19.9355 30.9024 19.9265 30.8934 21.3777 29.9229C21.5501 29.8049 21.7496 29.6961 21.9401 29.687C22.4299 29.6598 22.9469 29.7868 23.4095 29.678C23.9718 29.5419 24.3256 29.5782 24.6702 30.1677C25.2689 31.1745 26.1033 31.3469 27.0829 30.7936C27.4548 30.585 27.8267 30.3673 28.2076 30.1587C29.4865 29.4331 30.7836 29.0793 32.2258 29.7233C32.6974 29.9319 33.2961 29.814 33.7133 29.8412ZM9.39588 25.0793C9.34146 26.8752 10.0127 27.8458 11.083 27.8639C10.8834 27.102 10.5841 26.3129 10.4934 25.4966C10.3845 24.526 11.0104 23.9093 11.8449 23.5011C11.7995 23.4467 11.7632 23.3922 11.7179 23.3469C11.2825 23.3922 10.8562 23.4376 10.3755 23.483C10.4299 23.3288 10.4843 23.1836 10.5478 23.0022C10.3573 23.0022 10.1941 23.0476 10.0671 22.9932C9.48659 22.7664 8.71561 22.9659 8.46165 22.0226C8.32559 21.5238 7.56369 21.5419 7.346 22.068C7.11924 22.6031 6.94691 23.2108 6.94691 23.7913C6.94691 24.7528 7.17367 25.7233 7.15553 26.6848C7.13738 28.1269 6.01267 28.8707 4.73376 28.3718C6.08523 27.9818 6.3392 27.7278 6.34827 26.721C5.67707 26.9931 5.01494 27.3741 4.1714 26.9659C4.92424 26.8027 5.53195 26.6031 5.81312 25.8775C5.34147 25.9682 4.89703 26.0498 4.45258 26.1315C5.05122 25.56 5.64079 25.1065 5.64079 24.0453C5.06029 24.4988 4.59771 24.907 4.0807 25.2517C3.68161 25.5238 3.24624 25.8231 2.79272 25.9138C2.4027 25.9954 2.25758 26.1678 2.13059 26.5034C1.85848 27.1746 1.83127 27.9818 1.02402 28.3537C0.824471 28.4444 0.851683 29.1156 0.779121 29.5238C1.0603 29.56 1.34148 29.6054 1.62266 29.6326C1.74964 29.6417 1.87662 29.6235 2.00361 29.6235C3.42764 29.5691 4.76097 29.8412 6.03988 30.585C6.5841 30.9024 7.38228 31.0657 7.97185 30.9115C9.34146 30.5487 10.6567 29.9591 12.1986 29.3786C11.7179 29.3786 11.4004 29.4149 11.092 29.3696C10.7746 29.3242 10.4571 29.2063 10.0308 29.0975C10.5387 28.9705 10.8925 28.8798 11.3732 28.7619C8.9333 27.7369 8.39815 26.7301 9.39588 25.0793ZM61.0058 22.1587C60.7427 21.5873 61.0965 20.8435 60.1985 20.4988C59.9536 21.043 59.7087 21.6054 59.4003 22.2857C60.0352 22.2403 60.4706 22.204 61.0058 22.1587Z" fill="white"/>
<path d="M46.4298 17.1881C41.55 16.4081 36.6521 15.7913 31.8539 14.5487C31.8539 14.4942 31.8539 14.4398 31.8539 14.3763C33.6498 14.2675 35.4457 14.1224 37.2507 14.0679C39.092 14.0135 40.9423 14.0045 42.7836 14.0679C44.6067 14.1314 46.4207 14.3038 48.2257 14.4308C47.6724 13.3695 43.9808 10.9568 40.5976 9.46024C37.7949 8.21762 34.8743 7.39222 31.9083 6.73916C37.7405 6.7573 43.3187 7.98179 48.5523 10.7936C44.4616 6.35821 39.0557 4.72556 33.7496 2.8208C35.4094 3.16547 37.0784 3.45572 38.7292 3.86388C42.838 4.8979 46.7745 6.41263 50.3482 8.87068C51.872 9.92283 53.3051 11.111 54.2575 12.789C54.6566 13.4874 54.9377 14.3038 55.0919 15.102C55.3278 16.3355 54.8289 17.306 53.813 17.9591C52.643 18.7119 51.3278 18.975 49.9944 19.1564C46.4389 19.628 42.8743 19.4194 39.3187 19.2289C37.6407 19.1382 35.9627 18.984 34.2756 18.8026C38.2847 17.8049 42.3301 17.3695 46.4298 17.1881Z" fill="white"/>
<path d="M29.1328 18.5668C25.3959 19.4648 21.8585 18.848 18.312 18.458C21.1873 17.8956 26.2485 17.9501 29.1328 18.5668Z" fill="white"/>
<path d="M38.5568 48.027C40.3437 47.8728 42.1305 47.7277 43.9264 47.5735C43.9355 47.646 43.9355 47.7277 43.9446 47.8002C42.2212 48.6891 40.4162 48.6801 38.575 48.3082C38.5659 48.2175 38.5568 48.1268 38.5568 48.027Z" fill="white"/>
<path d="M19.2553 14.2583C19.2553 14.5032 19.2553 14.6937 19.2553 14.9567C19.5455 14.9295 19.7995 14.9023 20.0716 14.866C19.6997 15.6188 18.4662 16.0996 17.8131 15.7095C17.6861 15.637 17.6045 15.2198 17.6771 15.0746C18.0127 14.4941 18.5659 14.2855 19.2553 14.2583Z" fill="white"/>
<path d="M24.9333 4.35387C26.067 3.45592 27.3641 3.50127 28.6884 3.66453C27.4729 4.05455 26.2666 4.54435 24.9333 4.35387Z" fill="white"/>
<path d="M22.1487 11.8277C21.6226 12.3447 21.2145 12.771 20.7609 13.161C20.6612 13.2517 20.3165 13.2335 20.2802 13.161C20.2077 12.9977 20.1804 12.7075 20.2711 12.5714C20.6975 11.9818 21.2961 11.7732 22.1487 11.8277Z" fill="white"/>
<path d="M16.4344 12.6531C16.2984 13.0975 16.2167 13.3515 16.1442 13.6145C16.2076 13.6599 16.2802 13.7052 16.3437 13.7506C16.0172 13.9229 15.6997 14.1225 15.355 14.2585C15.2371 14.3039 14.9832 14.2404 14.9287 14.1315C14.8743 14.0227 14.9197 13.7415 15.0194 13.6599C15.4367 13.3333 15.8902 13.034 16.4344 12.6531Z" fill="white"/>
<path d="M19.7088 9.70506C19.4004 9.98624 19.1102 10.3218 18.7564 10.5305C18.5659 10.6393 18.2575 10.5123 17.9945 10.4851C18.1306 10.2493 18.2122 9.89554 18.4117 9.79577C18.7746 9.61436 19.2009 9.56901 19.5999 9.46924C19.6362 9.5418 19.6725 9.62343 19.7088 9.70506Z" fill="white"/>
<path d="M28.9514 11.2832C28.2439 11.5371 27.5455 11.782 26.7201 12.0814C26.8924 11.7548 26.9922 11.3557 27.2371 11.1562C27.6906 10.7662 28.4525 10.8841 28.9514 11.2832Z" fill="white"/>
<path d="M11.1192 11.374C10.829 11.5282 10.5478 11.7096 10.2394 11.8003C10.1396 11.8275 9.97639 11.6008 9.84033 11.4919C10.0943 11.2743 10.3392 11.0203 10.6294 10.8661C10.7201 10.8117 10.9378 11.0203 11.1011 11.111C11.1011 11.2017 11.1102 11.2833 11.1192 11.374Z" fill="white"/>
<path d="M11.2643 15.1201C11.482 14.9387 11.6453 14.8026 11.8267 14.6484C11.9718 14.848 12.0897 15.0112 12.2349 15.2108C11.9174 15.492 11.6181 15.6915 11.2643 15.1201Z" fill="white"/>
<path d="M28.4344 39.0656C27.7813 38.095 26.8834 37.8592 25.8221 38.1132C26.1305 37.1336 26.8743 36.8705 27.872 37.3422C28.6611 37.7141 28.8425 38.2492 28.4344 39.0656Z" fill="white"/>
<path d="M35.5727 39.9454C35.7541 39.7005 35.9083 39.4194 36.135 39.238C36.2892 39.111 36.5432 39.0565 36.7518 39.0747C36.8607 39.0838 37.0512 39.374 37.0149 39.4647C36.9423 39.6733 36.7881 39.9182 36.6158 39.9908C36.3255 40.1087 35.9809 40.1087 35.6634 40.1541C35.6271 40.0815 35.5999 40.018 35.5727 39.9454Z" fill="white"/>
<path d="M54.067 36.6439C53.7405 36.3355 53.4321 36.0543 53.1418 35.7732C53.9037 35.5555 54.1486 35.7822 54.067 36.6439Z" fill="white"/>
<path d="M56.0353 31.9726C54.7563 31.0565 53.5228 31.1744 52.2257 31.3921C53.4502 30.3218 55.2371 30.5395 56.0353 31.9726Z" fill="white"/>
<path d="M32.4072 26.9295C31.3097 26.3218 30.2122 25.9227 29.0602 26.7572C29.6952 26.8116 30.3754 26.7118 30.8562 27.383C29.0965 27.1744 29.0965 27.1744 28.5523 27.9454C28.7972 28.1086 29.033 28.2628 29.2689 28.417C27.8448 28.1268 26.5478 29.5871 25.0965 28.7436C25.1147 28.7164 25.1328 28.6619 25.151 28.6619C26.711 28.7889 27.6543 27.9817 28.1351 26.4397C28.2167 26.1857 28.4163 25.9046 28.6339 25.7957C29.541 25.3513 31.7723 26.0315 32.4072 26.9295Z" fill="white"/>
</svg>
