<svg width="51" height="59" viewBox="0 0 51 59" fill="none" xmlns="http://www.w3.org/2000/svg">
<path d="M25.3181 32.6868C26.0891 33.3808 26.7421 33.9937 27.4224 34.5796C29.4723 36.3281 31.2773 36.3101 33.3906 34.6427C34.343 33.8946 35.3589 33.1645 36.4564 32.6598C39.5675 31.2357 42.4518 31.9838 44.6378 34.5886C45.1911 35.2466 45.8713 35.7873 46.4337 36.4273C46.6242 36.6436 46.7149 37.0492 46.6695 37.3376C45.8985 42.1506 45.0732 46.9546 44.3294 51.7676C44.1117 53.1647 43.3861 54.1922 42.1525 54.6338C39.6401 55.5351 37.1004 56.5266 34.4881 56.9682C27.4768 58.1489 20.4655 57.9777 13.5358 56.1931C12.8465 56.0128 12.1843 55.7514 11.5131 55.5261C9.03694 54.6789 7.60383 53.2278 7.24102 50.3886C6.59703 45.3683 5.49953 40.4021 4.56529 35.4178C4.42016 34.6607 4.40202 34.1109 5.27277 33.7143C6.47005 33.1645 7.53127 32.2992 8.74669 31.8216C10.0165 31.3258 11.2319 31.7044 12.1752 32.777C12.9553 33.6693 13.7353 34.5616 14.5517 35.4088C15.1775 36.0577 15.8215 36.7157 16.5381 37.2565C18.724 38.8969 21.0006 38.5544 22.6424 36.3732C23.1412 35.7152 23.5131 34.9671 23.9848 34.2912C24.3657 33.7684 24.8192 33.2907 25.3181 32.6868ZM13.4904 51.1908C13.4088 50.6861 13.3635 50.4607 13.3272 50.2264C12.6016 45.855 11.8759 41.4836 11.1685 37.1123C11.0596 36.4723 10.987 35.7333 10.1254 35.8504C9.14578 35.9766 9.36347 36.7698 9.46324 37.4277C9.89861 40.0956 10.334 42.7725 10.7694 45.4404C11.0687 47.2611 11.3226 49.0907 11.7036 50.8843C11.7852 51.2719 12.2569 51.7226 12.6469 51.8488C12.8555 51.9209 13.2728 51.3711 13.4904 51.1908ZM38.1616 50.9565C38.3339 51.1457 38.6332 51.4612 38.9326 51.7857C39.2682 51.4792 39.8305 51.2088 39.894 50.8573C40.7194 46.2246 41.4904 41.5828 42.216 36.932C42.2704 36.5715 41.8078 36.1389 41.5811 35.7423C41.2364 36.0307 40.6922 36.265 40.5834 36.6166C40.284 37.6711 40.1661 38.7707 39.9847 39.8523C39.3952 43.4485 38.8056 47.0447 38.1616 50.9565ZM32.8646 42.2407C32.8736 42.2407 32.8827 42.2407 32.8918 42.2407C32.9371 41.3394 33.0732 40.4291 33.0006 39.5458C32.9643 39.1132 32.5924 38.4282 32.2659 38.3561C31.504 38.1938 31.3498 38.8608 31.3045 39.5008C31.0777 42.8627 30.851 46.2336 30.6151 49.5955C30.5516 50.4517 30.4065 51.326 30.4791 52.1732C30.5154 52.5518 31.0051 52.8853 31.2863 53.2368C31.5856 52.9393 31.9757 52.678 32.1661 52.3264C32.3203 52.047 32.2478 51.6415 32.275 51.2899C32.4745 48.2615 32.6741 45.2511 32.8646 42.2407ZM21.8986 50.641C21.8804 50.641 21.8714 50.641 21.8532 50.641C21.69 47.7748 21.5267 44.9177 21.3634 42.0515C21.3272 41.4296 21.2727 40.7806 20.4564 40.7986C19.5222 40.8167 19.6038 41.5467 19.631 42.1867C19.7399 44.503 19.8668 46.8104 19.9848 49.1268C20.0392 50.0642 20.1117 51.0105 20.1571 51.9479C20.1843 52.6059 20.2206 53.3359 21.0732 53.3269C21.9621 53.3269 21.9258 52.5878 21.8986 51.9299C21.8804 51.5063 21.8986 51.0736 21.8986 50.641Z" stroke="white" stroke-width="1.27056" stroke-miterlimit="10"/>
<path d="M50.343 27.2521C50.1978 29.5955 49.7081 31.8127 48.5924 33.8497C47.894 35.1205 47.2681 35.1566 46.4065 34.048C43.1049 29.8298 38.733 29.0547 34.1707 31.8848C33.699 32.1733 33.2546 32.5067 32.8192 32.8492C30.5335 34.6429 29.9711 34.6248 27.894 32.6509C27.5494 32.3265 27.2138 31.993 26.8419 31.7046C25.7444 30.8483 24.7466 30.8393 23.7852 31.8578C23.0414 32.6509 22.4156 33.5793 21.8351 34.5167C20.3204 36.9773 18.8963 37.2206 16.8192 35.2377C15.8487 34.3094 14.9961 33.2728 14.0981 32.2724C11.495 29.3972 7.99384 29.1719 4.98251 31.7046C3.60383 32.8582 3.43149 32.8312 2.6061 31.1818C1.86233 29.7036 1.03694 28.2615 0.429231 26.7293C-0.514077 24.3498 0.0754893 23.1691 2.41562 22.1597C2.86006 21.9704 3.26823 21.6098 3.60383 21.2403C5.57208 19.0681 7.92128 18.4282 10.6877 19.4557C11.5766 19.7892 12.4746 20.1137 13.309 20.5553C17.5721 22.8176 22.0618 23.07 26.6877 22.0785C30.3974 21.2944 34.0981 20.4111 37.8351 19.7531C39.6854 19.4287 41.6174 19.3656 43.5131 19.4197C47.6037 19.5458 49.6536 21.5017 50.1797 25.5125C50.2251 26.1164 50.2795 26.7023 50.343 27.2521Z" fill="white"/>
<path d="M13.8532 9.67631C16.0664 15.1924 20.0573 17.6349 24.919 16.5083C29.7625 15.3906 32.2024 11.3437 31.6672 5.30494C37.3906 4.71909 45.0368 10.4424 45.0278 17.9233C38.2886 17.0671 32.0119 19.5096 25.5448 20.6363C21.6537 21.3123 17.9348 21.0689 14.343 19.2573C11.9757 18.0675 9.53577 16.9679 6.7512 17.4907C6.17977 14.5344 10.1526 10.163 13.8532 9.67631Z" fill="white"/>
<path d="M28.4655 2.47491C27.7217 2.57405 27.2047 2.57405 26.7331 2.71826C26.3702 2.82642 25.8986 3.01569 25.7625 3.31313C25.3816 4.12431 26.4156 5.67457 27.3317 5.68358C27.631 5.68358 28.0029 5.39516 28.2297 5.13378C28.6197 4.69214 28.9281 4.17839 29.3362 3.60155C31.6491 7.08062 30.6877 11.6683 27.4133 14.0297C24.021 16.4813 19.3317 15.8234 16.6832 12.5336C14.1072 9.3339 14.5426 4.61102 17.6628 1.90708C20.7467 -0.778835 25.4269 -0.661666 28.4655 2.47491Z" fill="white"/>
<path d="M26.8147 3.94415C28.9553 2.08744 31.5221 1.33034 34.3883 1.50159C36.8827 1.6458 39.3407 2.84454 39.7126 4.29566C35.3226 1.55566 31.114 1.74494 26.9961 4.63816C26.9326 4.41283 26.8691 4.17849 26.8147 3.94415Z" fill="white"/>
<path d="M13.4904 51.1909C13.2728 51.3712 12.8555 51.912 12.6469 51.8489C12.2569 51.7227 11.7852 51.2721 11.7036 50.8845C11.3226 49.0819 11.0687 47.2522 10.7694 45.4406C10.334 42.7727 9.88954 40.1048 9.46324 37.4279C9.35439 36.7699 9.13671 35.9768 10.1254 35.8506C10.9961 35.7424 11.0687 36.4725 11.1685 37.1124C11.885 41.4838 12.6106 45.8552 13.3272 50.2265C13.3635 50.4609 13.4088 50.6952 13.4904 51.1909Z" fill="white"/>
<path d="M38.1616 50.9569C38.8056 47.0451 39.3951 43.4489 39.9938 39.8527C40.1752 38.7711 40.2931 37.6715 40.5924 36.617C40.6922 36.2564 41.2455 36.0311 41.5902 35.7427C41.8169 36.1393 42.2795 36.5809 42.2251 36.9324C41.5085 41.5832 40.7375 46.225 39.9031 50.8577C39.8396 51.2092 39.2772 51.4796 38.9416 51.7861C38.6332 51.4616 38.3339 51.1371 38.1616 50.9569Z" fill="white"/>
<path d="M32.8645 42.2409C32.665 45.2512 32.4745 48.2616 32.275 51.281C32.2478 51.6326 32.3203 52.0381 32.1661 52.3176C31.9666 52.6781 31.5856 52.9304 31.2863 53.2279C31.0051 52.8764 30.5153 52.5429 30.479 52.1643C30.4065 51.3171 30.5607 50.4428 30.6151 49.5866C30.8419 46.2247 31.0777 42.8628 31.3044 39.4919C31.3498 38.8519 31.504 38.1849 32.2659 38.3472C32.5924 38.4193 32.9643 39.1043 33.0006 39.5369C33.0731 40.4292 32.9371 41.3305 32.8917 42.2318C32.8917 42.2409 32.8736 42.2409 32.8645 42.2409Z" fill="white"/>
<path d="M21.8986 50.6413C21.8986 51.0739 21.8804 51.5066 21.8986 51.9392C21.9349 52.5971 21.9621 53.3272 21.0732 53.3362C20.2206 53.3362 20.1934 52.6062 20.1571 51.9572C20.1117 51.0198 20.0301 50.0735 19.9847 49.1361C19.8578 46.8197 19.7398 44.5124 19.631 42.196C19.6038 41.5651 19.5312 40.826 20.4564 40.808C21.2637 40.7989 21.3272 41.4479 21.3634 42.0608C21.5267 44.927 21.69 47.7841 21.8532 50.6503C21.8714 50.6413 21.8804 50.6413 21.8986 50.6413Z" fill="white"/>
<path d="M18.8691 7.38706C18.1798 7.51324 17.182 6.41364 17.0913 5.31404C16.9553 3.71871 18.7784 2.21352 20.4927 1.93411C22.5517 1.60062 24.5562 3.00667 24.4383 3.52042C24.3204 4.05219 22.0165 3.26805 20.5199 4.66509C19.3498 5.74667 19.631 7.25186 18.8691 7.38706Z" fill="white"/>
</svg>
