<svg width="84" height="84" viewBox="0 0 84 84" fill="none" xmlns="http://www.w3.org/2000/svg">
<path d="M2.95397e-05 41.8233C0.0453809 18.4583 19.102 -0.081364 41.941 0.000268543C65.0974 0.0728308 83.7913 18.812 83.7459 41.905C83.7006 65.016 64.9432 83.7008 41.8049 83.6736C18.7483 83.6464 -0.0271813 64.8528 2.95397e-05 41.8233ZM47.2199 2.8302C43.5374 2.26784 39.8548 2.32226 36.1814 2.86648C28.4988 4.00026 21.6599 7.05695 15.9093 12.2633C5.65081 21.5331 1.22452 33.1249 2.81182 46.8845C3.80048 55.4378 7.36509 62.9117 13.4059 69.0069C23.8276 79.5375 36.4898 83.5285 50.9206 80.0908C65.6779 76.5716 75.2289 67.075 79.8003 52.5988C80.3536 50.8573 80.6802 49.0705 80.8978 47.2655C81.2244 46.0138 81.2244 44.7258 81.2879 43.4469C81.3967 41.5149 81.3695 39.5739 81.043 37.6601C81.0067 37.3517 80.9795 37.0433 80.9432 36.7349C81.0158 36.6079 80.9613 36.4991 80.8888 36.3993C80.8253 35.8914 80.7981 35.3834 80.6983 34.8846C79.2198 27.0478 75.7459 20.2361 70.2221 14.4764C67.2834 11.4197 63.9273 8.91635 60.1813 6.9481C56.9704 5.26103 53.6054 3.99119 50.0317 3.31092C49.1247 3.02974 48.1813 2.87555 47.2199 2.8302Z" fill="white"/>
<path d="M67.2017 51.6738C67.0384 52.091 66.8752 52.5082 66.721 52.9255C65.8321 54.5853 64.9341 56.2361 63.8638 57.7871C63.755 57.9323 63.6461 58.0774 63.5373 58.2225C62.5486 59.3291 61.56 60.4357 60.5713 61.5332C60.408 61.6873 60.2357 61.8415 60.0725 61.9957C59.1382 62.7395 58.204 63.4742 57.2697 64.218C57.0702 64.2724 56.9069 64.3722 56.7799 64.5354C55.7369 65.125 54.6847 65.7055 53.6416 66.2951C53.5418 66.3495 53.4421 66.413 53.3423 66.4674C52.399 66.8393 51.4466 67.2112 50.5033 67.583C50.3128 67.5195 50.1768 67.6193 50.0407 67.7372C49.0883 67.9821 48.145 68.2361 47.1927 68.481C47.0385 68.4991 46.8843 68.5173 46.7301 68.5354C45.7233 68.6624 44.7165 68.7894 43.7097 68.9164C43.5555 68.9345 43.4104 68.9526 43.2562 68.9799C42.3038 68.9708 41.3605 68.9708 40.4081 68.9617C40.263 68.9526 40.1178 68.9345 39.9727 68.9254C38.9659 68.7984 37.9591 68.6624 36.9614 68.5354C36.8616 68.5263 36.7528 68.5173 36.653 68.4991C35.6553 68.2452 34.6575 67.9821 33.6598 67.7282C33.5237 67.6193 33.3696 67.5649 33.1881 67.583C32.2448 67.2021 31.3015 66.8302 30.3582 66.4493C30.2584 66.3948 30.1587 66.3404 30.0589 66.286C27.7188 65.0887 25.56 63.6284 23.5737 61.896C23.4648 61.7962 23.356 61.6874 23.2471 61.5876C22.3129 60.5899 21.3877 59.583 20.4535 58.5853C20.2811 58.3313 20.0997 58.0774 19.9274 57.8143C18.7755 56.227 17.8684 54.4946 16.9614 52.7622C16.8707 52.3631 16.7256 51.9912 16.517 51.6375C16.4716 51.4924 16.4353 51.3382 16.3809 51.193C14.9478 47.2384 14.449 43.184 14.8662 38.9935C15.102 36.5808 15.7279 34.277 16.517 32.0003C16.6621 31.6284 16.8072 31.2475 16.9614 30.8756C17.8594 29.1432 18.7755 27.4108 19.9274 25.8235C20.0997 25.5695 20.2811 25.3065 20.4535 25.0525C21.3786 24.0548 22.3129 23.048 23.238 22.0502C23.3469 21.9505 23.4557 21.8507 23.5646 21.7509C24.6258 20.9165 25.687 20.0911 26.7482 19.2566C26.8027 19.2203 26.8571 19.184 26.9206 19.1477C27.9637 18.5491 29.0067 17.9595 30.0498 17.3609C30.1496 17.3065 30.2494 17.2521 30.3491 17.2067C31.2925 16.8258 32.2358 16.4448 33.17 16.0639C33.3423 16.082 33.5056 16.0366 33.6417 15.9187C35.7188 15.3473 37.814 14.921 39.9636 14.7215C40.1088 14.7033 40.2448 14.6942 40.3899 14.6761C41.3514 14.667 42.3128 14.667 43.2743 14.658C43.4194 14.6761 43.5645 14.6942 43.7006 14.7124C44.7074 14.8394 45.7142 14.9663 46.721 15.0933C46.8752 15.1115 47.0294 15.1296 47.1836 15.1387C48.136 15.3836 49.0793 15.6375 50.0317 15.8824C50.1859 15.9369 50.34 15.9822 50.4942 16.0366C51.4375 16.4085 52.3899 16.7804 53.3332 17.1523C53.4874 17.2339 53.6416 17.3246 53.7868 17.4063C54.7845 17.9686 55.7731 18.5219 56.7709 19.0843C56.8978 19.2475 57.0611 19.3473 57.2607 19.4017C58.1949 20.1364 59.1291 20.8802 60.0634 21.6149C60.2266 21.7691 60.399 21.9323 60.5622 22.0865C61.5509 23.1931 62.5396 24.2906 63.5282 25.3972C63.6189 25.5695 63.6824 25.76 63.8729 25.8507C64.925 27.4017 65.823 29.0434 66.7119 30.6851C66.8752 31.1024 67.0384 31.5196 67.2017 31.9368C67.238 32.0638 67.2652 32.1817 67.3105 32.2996C68.5894 35.7464 69.1427 39.311 68.9885 42.9935C68.8706 46.0321 68.2085 48.8892 67.2017 51.6738ZM60.1178 58.3858C60.408 58.1499 60.6348 57.8597 60.7709 57.506C61.9319 56.2996 62.8207 54.9119 63.5826 53.4334C63.9455 53.1431 64.0452 52.7078 64.1813 52.2996C64.3808 52.1817 64.408 51.9549 64.4897 51.7735C66.3491 47.5468 66.9659 43.1386 66.3672 38.5763C66.0226 35.9459 65.3332 33.4062 64.0362 31.057C63.9455 30.7486 63.8638 30.4402 63.5736 30.2407C62.8752 28.5718 61.7867 27.1568 60.5985 25.8235C60.4806 25.6783 60.3627 25.5423 60.2448 25.3972C59.365 24.3359 58.3672 23.4017 57.2607 22.5854C57.1337 22.4312 56.9976 22.2861 56.7981 22.2407C55.882 21.4788 54.9296 20.7804 53.823 20.3269C53.7686 20.1545 53.6144 20.209 53.4965 20.1727C52.5985 19.4833 51.5645 19.1024 50.5124 18.7668C50.3945 18.6035 50.2131 18.6126 50.0407 18.6035C49.1428 18.1863 48.1995 17.9323 47.2289 17.7963C47.0838 17.6784 46.9115 17.6693 46.7301 17.6874C45.7505 17.3881 44.7437 17.3155 43.7278 17.243C43.5736 17.243 43.4194 17.2339 43.2743 17.2339C42.3219 17.1341 41.3786 17.1523 40.4262 17.2339C40.272 17.243 40.1269 17.243 39.9727 17.2521C39.0113 17.3155 38.0498 17.37 37.1246 17.6874C36.9523 17.7056 36.7709 17.7328 36.5986 17.7509C35.5918 17.9505 34.594 18.1863 33.6598 18.6126C33.4784 18.6035 33.3151 18.658 33.1881 18.7849C32.1723 19.0661 31.238 19.5196 30.3491 20.0638C30.1587 20.0911 29.9954 20.1727 29.8684 20.3269C28.78 20.8167 27.8548 21.5423 26.8843 22.2226C26.7755 22.3223 26.6666 22.4312 26.5578 22.531C25.4512 23.3564 24.4353 24.2725 23.5737 25.3518C23.365 25.4697 23.2199 25.6511 23.1111 25.8688C21.9773 27.1024 21.034 28.4629 20.2721 29.9504C19.9365 30.3133 19.8004 30.7668 19.6462 31.2203C19.5737 31.3201 19.483 31.4198 19.4285 31.5287C17.3242 36.1092 16.6802 40.9073 17.4875 45.8779C17.8594 48.1726 18.4762 50.4221 19.6372 52.4719C19.7823 52.9073 19.8911 53.3518 20.2539 53.6692C20.9614 55.2202 21.9591 56.5717 23.0929 57.8234C23.2018 58.0411 23.3378 58.2225 23.5555 58.3313C24.4081 59.4289 25.4331 60.3268 26.5396 61.1522C26.5941 61.1976 26.6485 61.2429 26.7029 61.2883C27.6734 62.0955 28.7074 62.803 29.8503 63.3563C29.941 63.4107 30.0408 63.4651 30.1315 63.5286C31.0838 64.1182 32.1088 64.5536 33.1609 64.9254C33.2698 65.1341 33.4693 65.0524 33.6417 65.0706C34.5759 65.515 35.5736 65.7327 36.5804 65.9413C36.7528 65.9595 36.9342 65.9867 37.1065 66.0048C38.0317 66.3223 38.9931 66.3585 39.9546 66.4402C40.1088 66.4492 40.2539 66.4492 40.4081 66.4583C41.3605 66.5399 42.3038 66.5581 43.2562 66.4583C43.4104 66.4583 43.5645 66.4583 43.7097 66.4493C44.7255 66.3767 45.7323 66.3041 46.7119 66.0048C46.8933 66.032 47.0657 66.0139 47.2108 65.905C48.1813 65.7508 49.1246 65.515 50.0226 65.0887C50.1949 65.0706 50.3763 65.0796 50.5033 64.9254C51.619 64.5989 52.662 64.091 53.6598 63.5014C53.7233 63.4651 53.7867 63.4379 53.8412 63.4016C54.9659 62.8211 56.018 62.1318 56.9886 61.3155C57.0793 61.2429 57.1609 61.1703 57.2516 61.0978C58.3219 60.2996 59.3105 59.4379 60.1178 58.3858Z" fill="white"/>
<path d="M29.7052 14.0594C29.8231 14.395 29.9773 14.7215 30.2041 14.9936C30.2857 15.5106 31.2653 16.0548 30.1678 16.5446C30.068 16.599 29.9773 16.6625 29.8775 16.717C29.678 16.7442 29.4966 16.9619 29.297 16.6263C28.8435 15.8371 28.2902 15.1206 27.9002 14.277C27.483 13.37 26.9569 12.5083 26.4399 11.5469C26.2494 11.8099 26.3583 11.9188 26.3945 12.0186C27.0204 13.6603 27.6644 15.302 28.2902 16.9437C28.3719 17.1614 28.6258 17.4244 28.2358 17.6058C27.8367 17.7872 27.5193 18.141 27.0476 18.1501C26.8934 17.9596 26.7392 17.7691 26.585 17.5786C25.6961 16.4539 24.8072 15.3292 23.9093 14.2136C23.8095 14.0956 23.737 13.8145 23.5102 13.9687C23.2744 14.1319 23.5283 14.2952 23.6009 14.4222C24.3265 15.7192 25.0249 17.0344 25.814 18.2952C26.1859 18.8938 25.7596 18.9664 25.4331 19.1931C25.0431 19.4653 24.78 19.5015 24.5351 18.9936C24.3175 18.531 24.1088 18.0503 23.737 17.6693C23.5737 17.3609 23.4104 17.0435 23.2381 16.7351C22.3492 15.0752 21.4512 13.4244 20.4354 11.8462C20.2177 11.4108 19.7098 10.7759 19.8458 10.5673C20.127 10.141 20.771 9.9596 21.2336 9.63307C21.6054 9.37003 21.805 9.48794 22.059 9.8054C22.9751 10.9664 23.9274 12.1093 24.8617 13.2521C25.2426 13.7691 25.6236 14.2861 26.0952 14.921C26.0589 14.1954 25.805 13.6966 25.5601 13.1886C25.4603 12.9528 25.3696 12.717 25.2698 12.4811C25.297 12.3451 25.2698 12.2272 25.1338 12.1637C24.771 11.1932 24.4444 10.1954 24.0181 9.25212C23.7188 8.60813 23.6281 8.19996 24.4082 7.80994C25.7143 7.15688 25.6871 7.11153 26.3945 8.38137C26.6576 8.86209 26.9478 9.32468 27.2199 9.79633C28.0091 11.2385 28.7891 12.6898 29.7052 14.0594Z" fill="white"/>
<path d="M28.5895 74.1679C28.1542 74.9752 27.6644 75.7643 27.3015 76.6078C27.0113 77.2972 26.6938 77.0976 26.195 76.88C25.5782 76.6169 25.6235 76.3357 25.9047 75.8369C26.5759 74.6215 27.1746 73.3788 27.8095 72.1453C28.0272 71.8187 28.2811 71.5013 28.3083 70.9571C27.9455 71.3652 27.6644 71.6918 27.492 72.0908L27.5192 72.1271L27.483 72.0999C27.4376 72.1634 27.3923 72.2269 27.3469 72.2904C26.5396 73.3788 25.7143 74.44 24.9433 75.5557C24.6349 76.0001 24.3628 76.0001 23.9909 75.728C23.6553 75.4831 23.0204 75.4741 23.365 74.7484C23.5646 74.3312 23.6281 73.8596 23.7551 73.406C24.2902 72.1453 24.6621 70.8391 25.0431 69.533C24.9796 69.5058 24.9161 69.4786 24.8616 69.4514C24.3628 70.4401 23.8639 71.4197 23.365 72.4083C23.0748 72.9616 22.7392 73.4877 22.5034 74.0591C22.2585 74.6577 22.0045 74.7031 21.4149 74.4128C20.7982 74.1135 20.9433 73.8596 21.1791 73.4242C21.7687 72.3267 22.322 71.211 22.8934 70.1045C23.0204 69.9412 23.1746 69.7961 23.1202 69.5693C23.4558 69.2337 23.5918 68.7983 23.7732 68.372C24.136 67.7099 24.5079 67.0659 24.8526 66.3947C25.6508 64.8618 25.6326 64.88 27.1836 65.6782C27.5827 65.8868 27.619 66.0954 27.483 66.4673C27.2471 67.1294 27.0476 67.8006 26.8299 68.4718C26.5941 69.2156 26.3582 69.9593 26.1224 70.7122C25.8866 71.211 25.687 71.719 25.6235 72.4083C26.0589 72.0818 26.2675 71.7462 26.4489 71.3743C26.7211 71.0024 26.9932 70.6305 27.2653 70.2677C27.9455 69.3516 28.6258 68.4355 29.3152 67.5285C29.4603 67.338 29.5419 67.0387 29.8866 67.075C30.0408 67.1475 30.195 67.211 30.3492 67.2836C30.5941 67.4287 30.8117 67.6192 31.0748 67.7099C31.6462 67.9095 31.6916 68.1816 31.3922 68.6895C30.9841 69.3788 30.6666 70.1226 30.3129 70.8391C30.0498 71.1838 29.8594 71.5738 29.7233 71.9911C29.2607 72.6623 28.8888 73.406 28.5895 74.1679Z" fill="white"/>
<path d="M51.0929 74.9842C51.3287 76.1089 51.5283 77.2427 51.8276 78.3493C51.9818 78.9026 51.7732 78.957 51.3287 79.1112C50.5033 79.4014 50.1315 79.1203 49.7777 78.3856C49.1881 77.152 48.4897 75.9729 47.8367 74.7756C47.6008 74.1497 47.3287 73.542 46.7573 73.1067C46.9296 73.7325 47.102 74.3584 47.2652 74.9842C47.5736 76.372 47.8185 77.7779 48.2086 79.1384C48.4172 79.8731 47.9818 79.8096 47.5736 79.9457C47.0657 80.118 46.8299 79.991 46.721 79.4559C46.4489 78.1588 46.1224 76.8708 45.8231 75.5829C45.7868 75.3289 45.7596 75.0658 45.6961 74.8209C45.3696 73.406 45.034 71.991 44.7256 70.567C44.6802 70.3584 44.4444 70.0228 44.8798 69.9411C45.4784 69.8232 46.0589 69.5058 46.7029 69.66C46.8117 69.9774 46.9478 70.2767 47.1836 70.5126C47.7732 71.9457 48.6076 73.2609 49.3696 74.6123C49.1065 73.025 48.7618 71.474 48.4081 69.9321C48.3265 69.5693 48.0544 69.1611 48.7074 69.0432C49.1791 68.9615 49.7324 68.6622 49.8503 69.4786C49.9591 70.2767 50.1224 71.0568 50.3491 71.8278C50.5305 72.889 50.7664 73.9502 51.0929 74.9842Z" fill="white"/>
<path d="M47.1927 4.07287C48.526 4.38126 48.5351 4.38126 48.653 5.75087C48.78 7.19305 48.8979 8.63522 49.1791 10.0865C49.5419 8.27241 49.8956 6.46743 50.2584 4.65337C51.6734 4.95269 51.6643 4.94362 51.3741 6.43114C51.2108 7.2384 51.102 8.04565 50.9659 8.86198C50.6666 9.78715 50.5487 10.7486 50.3854 11.71C50.2131 12.6987 50.0498 13.6964 49.8775 14.6851C49.4875 15.4289 48.9342 14.8484 48.4625 14.8574C47.9818 14.8665 48.0453 14.4856 48.0271 14.1862C47.8639 12.0094 47.7006 9.8325 47.5373 7.6647C47.4829 7.6647 47.4285 7.65563 47.3741 7.65563C47.2562 8.30869 47.1383 8.97082 47.0203 9.62388C46.8752 10.4765 46.7301 11.32 46.594 12.1726C46.3582 12.5899 46.331 13.0706 46.2856 13.5241C46.2131 14.2497 45.9773 14.5218 45.2063 14.2679C44.7981 14.1318 44.6167 14.0502 44.7528 13.6057C44.8525 13.2792 44.8979 12.9436 44.9614 12.608C45.297 10.7305 45.6326 8.84384 45.9682 6.96629C46.1315 6.18625 46.331 5.4062 46.4308 4.61709C46.4761 4.08194 46.6757 3.89147 47.1927 4.07287Z" fill="white"/>
<path d="M53.9863 67.4107C53.9682 67.3019 53.9591 67.2021 53.941 67.0933C54.1859 66.9481 54.458 66.8302 54.6847 66.6579C55.1383 66.3132 55.4104 66.3858 55.6734 66.9209C55.9455 67.4742 56.2085 68.0456 56.6258 68.5173C56.7981 68.8892 56.8979 69.3064 57.2607 69.5604C57.6779 70.676 58.3401 71.6647 58.9659 72.6624C59.1201 72.9345 59.238 73.2248 59.4194 73.4787C59.6734 73.8325 60.0181 73.9776 60.4353 73.7327C60.8616 73.4878 61.0249 73.1431 60.8072 72.6896C60.6439 72.3359 60.4353 72.0094 60.2448 71.6647C59.3559 70.0048 58.458 68.354 57.433 66.7758C57.2698 66.4674 57.1065 66.15 56.9432 65.8416C56.8979 65.6964 56.8525 65.5604 56.8072 65.4153C56.9614 65.3336 57.1065 65.252 57.2607 65.1704C57.9047 64.6806 58.2766 64.8348 58.6212 65.5876C59.0203 66.4583 59.5827 67.2565 60.0725 68.091C60.1995 68.3359 60.3265 68.5717 60.4534 68.8166C60.8344 69.4787 61.2063 70.1409 61.5872 70.803C61.8503 71.3382 62.204 71.8279 62.3673 72.4175C62.6757 73.5241 62.2947 74.413 61.2063 75.0388C60.1269 75.6647 59.1382 75.574 58.3401 74.7758C57.7233 74.1499 57.4421 73.3064 56.9523 72.608C56.009 70.8574 55.0748 69.0978 53.9863 67.4107Z" fill="white"/>
<path d="M56.8434 12.3358C57.6235 11.0297 58.4217 9.74168 59.1654 8.42649C59.4285 7.96391 59.628 7.94577 60.0453 8.21787C60.8979 8.77116 60.916 8.74395 60.4081 9.60563C60.2902 9.80517 60.1904 10.0229 60.0815 10.2315C59.0838 11.8006 58.0861 13.3789 57.2698 15.0569C56.4534 16.0818 56.4534 16.5081 57.2788 16.9888C57.7505 17.1975 58.0317 16.9253 58.2403 16.5716C58.8933 15.4741 59.5192 14.3675 60.1541 13.2609C60.7709 12.236 61.3786 11.202 62.0135 10.1861C62.1405 9.98658 62.1949 9.48771 62.5577 9.73261C62.9296 9.97751 63.6371 9.9503 63.5464 10.6941C62.4942 12.3721 61.4421 14.0501 60.5623 15.8369C60.2176 16.0999 60.1087 16.5172 59.9183 16.88C59.2743 17.8142 58.6122 18.7213 57.2879 18.6306C57.1337 18.5852 56.9795 18.5399 56.8253 18.4945C54.8026 17.3789 54.5396 16.3811 55.7097 14.3766C56.0815 13.6963 56.4625 13.007 56.8434 12.3358Z" fill="white"/>
<path d="M37.2154 75.5014C36.8344 75.3472 36.7074 75.5195 36.6621 75.8914C36.5895 76.4628 36.5442 77.0524 36.3809 77.5966C36.1814 78.2588 36.4807 78.4946 37.043 78.5762C37.4059 78.6216 37.7596 78.6216 38.1133 78.7395C38.3945 78.8392 38.8571 78.6216 38.9478 78.9481C39.0476 79.2928 38.8934 79.71 38.8299 80.1C38.7845 80.3721 38.585 80.2996 38.4036 80.2724C37.2154 80.0728 36.0272 79.8642 34.839 79.6919C34.3492 79.6193 34.4217 79.329 34.4761 79.0116C34.7029 77.6148 34.9387 76.2179 35.1655 74.8302C35.4467 73.1975 35.7551 71.5649 35.9909 69.9232C36.0635 69.4334 36.2902 69.3971 36.653 69.4424C36.7528 69.4515 36.8616 69.4606 36.9614 69.4697C37.9501 69.6964 38.9387 69.8869 39.9455 69.9504C40.1088 69.9957 40.263 70.0411 40.4263 70.0864C40.3718 70.549 40.3174 71.0207 40.2539 71.4833C40.1541 71.5014 40.0544 71.5195 39.9546 71.5377C39.619 71.4742 39.2925 71.4016 38.9569 71.3472C37.4875 71.1295 37.4875 71.1295 37.2244 72.5626C36.9614 73.9776 36.9614 74.0229 38.331 74.159C39.0748 74.2316 39.2471 74.4583 39.0657 75.1749C38.9478 75.6284 38.8752 75.8188 38.3764 75.6647C38.0045 75.5558 37.6054 75.5467 37.2154 75.5014Z" fill="white"/>
<path d="M39.7913 12.9525C39.8367 13.2971 39.882 13.6418 39.9183 13.9955C38.5668 14.4581 37.1519 14.4763 35.7641 14.703C35.356 14.7665 35.4467 14.3765 35.4013 14.1407C35.1655 12.6894 34.9478 11.2472 34.721 9.796C34.4852 8.22684 34.2585 6.65768 34.0045 5.08852C33.941 4.68036 33.9954 4.48988 34.4761 4.43546C35.6099 4.30848 36.7528 4.15428 37.8775 3.92752C38.5215 3.80054 38.4217 4.24498 38.4489 4.55337C38.4761 4.86176 38.8571 5.29714 38.1315 5.44226C37.6417 5.54203 37.0974 5.41505 36.653 5.72344C35.9274 5.54203 35.7369 5.85949 35.882 6.53069C35.9999 7.08398 36.0906 7.64634 36.1541 8.21777C36.1904 8.58965 36.3628 8.64407 36.6621 8.53523C36.8253 8.49894 36.9795 8.46266 37.1428 8.43545C37.4512 8.40824 37.7686 8.39917 38.077 8.35382C38.2947 8.31754 38.4036 8.38103 38.4852 8.59872C38.7392 9.29713 38.5124 9.74157 37.814 9.86856C37.6326 9.90484 37.4603 9.95926 37.2789 10.0046C36.6077 9.91391 36.399 10.186 36.5532 10.8391C36.6893 11.4196 36.7346 12.0091 36.8253 12.5987C36.8525 12.7801 36.7981 13.0522 37.1428 12.9887C37.814 12.9071 38.4943 12.8527 39.1655 12.7348C39.4467 12.6622 39.6553 12.6622 39.7913 12.9525Z" fill="white"/>
<path d="M10.2313 40.227C10.7211 39.8914 11.1111 39.4016 11.6916 39.193C11.9365 39.1023 12.2358 38.9571 12.4081 39.202C12.5805 39.4651 12.2449 39.5921 12.0907 39.7462C11.4648 40.3721 10.839 40.9979 10.2041 41.6147C9.1247 42.4401 9.1247 42.4401 10.0227 43.1929C10.7301 43.8369 11.4376 44.49 12.1632 45.1249C12.4353 45.3607 12.6168 45.5784 12.2539 45.8778C11.9274 46.1408 11.6553 46.0229 11.483 45.7054C11.1655 45.1249 10.7301 44.6623 10.2585 44.2179C10.1406 44.0818 10.0227 43.9367 9.90474 43.8007C9.65077 43.4651 9.40587 43.1113 8.9705 42.8846C9.01585 43.7553 9.07935 44.5626 9.09749 45.3698C9.10656 45.6419 9.28796 46.0592 8.75281 46.0592C8.22674 46.0592 8.39907 45.6691 8.41721 45.3789C8.4535 44.6895 8.49885 44.0093 8.53513 43.3199C8.47164 43.2927 8.40814 43.2746 8.34465 43.2474C7.74601 43.9549 7.14737 44.6533 6.55781 45.3608C6.42175 45.5149 6.26756 45.6601 6.14965 45.8233C5.9501 46.0954 5.74148 46.1226 5.49658 45.8868C5.23355 45.6419 5.23355 45.4242 5.5238 45.1703C5.9501 44.7893 6.34919 44.3812 6.76642 43.9821C7.25622 43.5104 7.73694 43.0297 8.24488 42.5852C8.52606 42.3403 8.45349 42.1952 8.2086 41.9775C7.79136 41.6057 7.21994 41.6691 6.75735 41.4242C6.51246 41.0433 5.89568 40.8437 6.17686 40.1907C6.20407 40.1272 5.9501 39.9549 5.82311 39.8279C5.96824 39.846 6.12243 39.8551 6.26756 39.8732C6.30384 39.9186 6.34919 39.973 6.38547 40.0184C6.40361 40.0002 6.42175 39.9821 6.43989 39.9639C6.38547 39.9277 6.34012 39.8914 6.2857 39.8551C6.06801 39.5921 5.85032 39.329 5.63264 39.075C5.76869 38.8029 5.93196 38.7848 6.15872 38.9843C6.38547 39.1839 6.64851 39.3472 6.89341 39.5195C7.83672 40.0184 7.85486 41.1975 8.59862 42.0138C8.66211 41.3789 8.7256 40.9163 8.36279 40.5716C7.67345 39.9095 7.78229 39.1658 8.09068 38.4038C8.48071 37.4605 8.86166 37.4061 9.51472 38.1499C9.80497 38.8755 9.86846 39.6011 9.52379 40.3267C8.99771 40.6623 8.77095 41.0977 9.04306 41.8233C9.32424 41.4152 9.551 41.0977 9.76869 40.7893C9.92288 40.5989 10.0771 40.4084 10.2313 40.227Z" fill="white"/>
<path d="M76.9885 44.2634C76.6076 43.8099 76.2357 43.3473 75.764 42.7849C75.6099 43.7554 75.7913 44.5899 75.8185 45.4153C75.8275 45.7146 75.9364 46.0774 75.4194 46.0502C74.9477 46.0321 75.0838 45.6874 75.0929 45.4244C75.1382 44.6988 75.2743 43.9822 75.1926 43.0842C74.721 43.6466 74.3309 44.1092 73.9409 44.5718C73.823 44.7078 73.696 44.8439 73.5781 44.9799C73.3332 45.252 73.0792 45.506 72.8434 45.7963C72.6348 46.0502 72.4443 46.1046 72.1904 45.8688C71.9182 45.6149 71.9545 45.4244 72.2357 45.1704C72.7799 44.6897 73.2879 44.1545 73.8049 43.6466C73.9046 43.5378 74.0135 43.4289 74.1133 43.3291C74.3219 43.1387 74.5124 42.9301 74.7391 42.7668C75.3287 42.3405 75.1019 42.0412 74.6031 41.7872C74.467 41.7237 74.3128 41.7146 74.1586 41.6783C73.9863 41.6421 73.8139 41.5967 73.6507 41.5604C73.3786 41.3065 73.0702 41.0706 72.8888 40.726C72.9432 40.6897 72.9976 40.6534 73.052 40.6081C73.2879 40.6988 73.433 40.3904 73.4239 40.3722C73.1881 39.7645 73.687 39.9096 73.9681 39.828C74.0135 39.8643 74.0588 39.9006 74.1042 39.9369C74.7754 40.3994 74.4761 41.4607 75.3287 41.9051C75.374 41.3609 75.3922 40.8892 75.0203 40.5264C74.4216 39.9459 74.467 39.2747 74.721 38.5672C74.857 38.1772 74.984 37.7237 75.4557 37.6239C75.9636 37.5151 76.018 38.0775 76.2992 38.3042C76.2901 38.3496 76.3083 38.3949 76.3445 38.4221C76.5532 39.2384 76.5532 39.9913 75.8547 40.6262C75.5464 40.8983 75.4829 41.3065 75.7278 41.7509C76.2266 41.1432 76.6801 40.5808 77.1337 40.0185C77.569 39.6557 77.9863 39.2566 78.5486 39.0843C78.7391 39.0298 79.0021 38.9663 79.1291 39.1568C79.2924 39.3926 79.0294 39.5196 78.8842 39.6557C78.2402 40.2906 77.5872 40.9255 76.9341 41.5514C76.5804 41.8416 76.1631 42.0502 75.8547 42.4675C76.2176 42.7577 76.5713 43.048 76.925 43.3382C77.5781 43.9278 78.2312 44.5264 78.8933 45.116C79.1291 45.3246 79.3015 45.5151 79.0112 45.8144C78.73 46.1047 78.5396 45.9958 78.3128 45.7328C77.8865 45.252 77.433 44.7622 76.9885 44.2634Z" fill="white"/>
<path d="M72.6348 40.4084C72.5713 40.3358 72.3445 40.3449 72.4806 40.1907C72.5804 40.0728 72.6892 40.1816 72.7346 40.3086C72.6983 40.3449 72.662 40.3811 72.6348 40.4084Z" fill="white"/>
<path d="M72.8978 40.735C72.8525 40.6805 72.8071 40.6352 72.7618 40.5808C72.8071 40.5445 72.8525 40.5082 72.8978 40.4719C72.9523 40.5263 73.0067 40.5717 73.0611 40.6261C73.0067 40.6624 72.9523 40.6987 72.8978 40.735Z" fill="white"/>
<path d="M72.7346 40.3086C72.789 40.363 72.8434 40.4084 72.8979 40.4628C72.8525 40.4991 72.8072 40.5354 72.7618 40.5716C72.7165 40.5172 72.6802 40.4628 72.6348 40.3993C72.662 40.3812 72.6983 40.3449 72.7346 40.3086Z" fill="white"/>
<path d="M60.5804 52.6351C60.4262 52.6442 60.272 52.6533 60.1178 52.6623C59.1654 52.6623 58.213 52.6623 57.2607 52.6623C57.1065 52.6623 56.9613 52.6714 56.8072 52.6714C55.8004 52.6623 54.8026 52.6533 53.7958 52.6533C53.696 52.6533 53.5963 52.6533 53.4965 52.6533C52.4897 52.6533 51.492 52.6623 50.4852 52.6623C50.331 52.6623 50.1859 52.6623 50.0317 52.6623C49.0793 52.6623 48.1269 52.6623 47.1745 52.6714C47.0203 52.6714 46.8752 52.6714 46.721 52.6714C45.7142 52.6623 44.7165 52.6623 43.7097 52.6533C43.6099 52.6533 43.5101 52.6533 43.4104 52.6533C42.4036 52.6533 41.4058 52.6623 40.399 52.6623C40.2448 52.6623 40.0997 52.6623 39.9455 52.6623C38.9387 52.6623 37.941 52.6533 36.9342 52.6533C36.8344 52.6533 36.7346 52.6533 36.6349 52.6533C35.6281 52.6533 34.6303 52.6533 33.6235 52.6533C33.4693 52.6533 33.3242 52.6623 33.17 52.6623C32.2176 52.617 31.2653 52.5898 30.3129 52.6805C30.1587 52.6714 30.0136 52.6623 29.8594 52.6533C28.8526 52.6533 27.8548 52.6533 26.848 52.6442C26.7483 52.6442 26.6485 52.6442 26.5487 52.6442C25.551 52.6261 24.5532 52.617 23.5555 52.5988C23.4376 52.4537 23.2562 52.4447 23.0839 52.4084C21.678 51.1567 21.687 49.9413 23.0929 48.753C23.2471 48.6805 23.4104 48.617 23.5646 48.5444C23.882 48.5354 24.1995 48.49 24.5079 48.5172C25.043 48.5626 25.3605 48.4628 25.4059 47.8097C25.4603 47.1023 26.204 47.5648 26.5487 47.2837C26.6576 47.2746 26.7573 47.2746 26.8662 47.2655C27.8639 47.2565 28.8616 47.2474 29.8594 47.2292C30.0136 47.2292 30.1677 47.2292 30.3219 47.2202C31.2653 47.2202 32.2176 47.2292 33.1609 47.2292C33.3151 47.3109 33.4693 47.3472 33.6326 47.2655C34.6303 47.3018 35.6371 47.3381 36.6349 47.3653C36.7891 47.3562 36.9342 47.3562 37.0884 47.3472C38.0408 47.3744 38.9931 47.4016 39.9546 47.4288C40.0906 47.5195 40.2448 47.5104 40.39 47.456C41.3423 47.5467 42.2947 47.5648 43.2471 47.5195C43.3922 47.71 43.5464 47.719 43.7097 47.5467C44.7074 47.6828 45.7051 47.6918 46.7029 47.6828C46.8571 47.6828 47.0113 47.6737 47.1655 47.6737C48.1088 47.7825 49.0611 47.846 50.0135 47.8279C50.1677 47.8279 50.3219 47.8369 50.467 47.8369C50.8843 47.8188 51.3922 48.1 51.6825 47.6102C51.9455 47.1567 51.7369 46.7032 51.492 46.2859C51.2471 45.8778 50.9115 45.5603 50.4761 45.3517C50.3763 45.2882 50.2766 45.2338 50.1859 45.1703C49.2607 44.617 48.272 44.227 47.2017 44.0365C47.0657 43.8914 46.8843 43.8823 46.7029 43.9186C45.7233 43.6102 44.7255 43.4832 43.7097 43.4651C43.5555 43.4016 43.4013 43.4107 43.2471 43.4741C42.2947 43.3653 41.3423 43.4288 40.39 43.5286C40.2267 43.4832 40.0725 43.5104 39.9364 43.6193C38.9568 43.6918 38.0045 43.846 37.0974 44.236C36.916 44.2088 36.7346 44.2088 36.5895 44.3449C35.9364 44.4719 35.4013 44.8165 34.848 45.1612C34.458 45.4061 34.1405 45.778 33.6326 45.8052C33.4784 45.7145 33.3151 45.7417 33.1609 45.8143C32.2176 45.6419 31.2653 45.6873 30.3219 45.6873C30.1677 45.6782 30.0136 45.6782 29.8594 45.6692C28.8616 45.6147 27.8548 45.5603 26.8571 45.515C26.7573 45.515 26.6485 45.515 26.5487 45.5059C25.9501 45.4605 25.7687 45.2338 25.9954 44.6079C26.204 44.0365 26.5124 43.4832 26.5578 42.8483C26.8843 42.6125 26.8934 42.2043 27.0476 41.8778C27.873 40.481 28.7891 39.1476 29.8503 37.9231C30.077 37.8415 30.204 37.6601 30.3219 37.4606C31.2743 36.6079 32.2721 35.8188 33.3514 35.1295C33.4421 35.0751 33.5419 35.0116 33.6326 34.9572C34.6122 34.4674 35.5918 33.9776 36.6258 33.6148C36.7891 33.5513 36.9523 33.4878 37.1156 33.4152C38.0589 33.2247 38.9931 33.0343 39.9364 32.8438C40.0997 32.871 40.272 32.8982 40.4081 32.7621C40.6076 32.7349 40.8707 32.8891 40.9251 32.5082C41.1519 31.0116 41.4965 30.7848 42.9115 31.1748C42.9568 31.1839 43.0113 31.1748 43.0657 31.1839C43.1655 31.6465 43.4829 32.0637 43.3197 32.5989C43.2471 32.8528 43.5192 32.8256 43.7006 32.7894C44.6983 32.9798 45.6961 33.1703 46.7029 33.3608C46.8298 33.4878 46.9931 33.524 47.1655 33.4878C48.0997 33.8869 49.0339 34.286 49.9682 34.685C50.1133 34.8302 50.2584 34.9572 50.4761 34.9662C51.501 35.6646 52.5078 36.363 53.4421 37.1884C53.5509 37.2882 53.6688 37.3971 53.7777 37.4968C53.8593 37.5875 53.941 37.6782 54.0135 37.778C54.1042 37.905 54.3491 38.0048 54.2131 38.1952C54.1496 38.2769 53.9319 38.2406 53.7777 38.2587C53.6779 38.2587 53.5781 38.2678 53.4784 38.2678C52.4806 38.3132 51.4738 38.3585 50.4761 38.4039C50.3219 38.4039 50.1677 38.4129 50.0135 38.4129C49.0611 38.3132 48.1088 38.2225 47.1655 38.1227C47.0113 38.0955 46.8661 38.0683 46.7119 38.041C45.5419 37.8415 44.7074 37.0252 43.746 36.4537C43.6371 36.3903 43.5192 36.3177 43.4104 36.2542C42.4398 35.846 41.433 35.7463 40.399 35.9005C40.2267 35.8733 40.0544 35.846 39.9183 36.0002C37.6779 36.2451 35.4648 36.6986 33.2516 37.2066C35.492 37.4968 37.7142 37.1522 39.9455 37.0705C40.0997 37.1159 40.2448 37.125 40.39 37.0433C40.4716 37.0433 40.5441 37.0433 40.6258 37.0524C40.9523 37.0977 41.4875 36.8256 41.5147 37.3698C41.5419 37.9231 40.9977 37.7508 40.6621 37.7689C38.4398 37.905 36.2086 38.0048 33.9863 38.159C33.5147 38.1952 32.9886 38.168 32.4262 38.4311C32.8253 38.7032 33.1247 38.6578 33.3968 38.6488C35.8004 38.6306 38.2131 38.5943 40.6167 38.5762C40.9704 38.5762 41.5419 38.4039 41.5419 38.9844C41.5328 39.5921 40.9523 39.2927 40.6076 39.3744C40.5804 39.3835 40.5532 39.3744 40.526 39.3744C38.331 39.3653 36.1269 39.3562 33.9319 39.3472C33.7233 39.3472 33.424 39.32 33.3968 39.5376C33.3696 39.7644 33.6507 39.7825 33.8684 39.8007C36.0271 39.9367 38.1859 40.0728 40.3446 40.227C40.7618 40.2542 41.4875 39.9549 41.4875 40.5989C41.4965 41.2429 40.7618 40.7803 40.39 40.9345C40.2358 40.9345 40.0906 40.9254 39.9364 40.9254C38.9841 40.8528 38.0408 40.7077 37.0884 40.7803C36.9342 40.7168 36.7891 40.6896 36.6258 40.744C35.2834 40.5717 33.941 40.5354 32.5895 40.5989C33.8956 41.1431 35.2925 41.2066 36.6439 41.4878C36.7981 41.4878 36.9432 41.4968 37.0974 41.4968C38.0317 41.7599 38.9841 41.8868 39.9455 41.9775C40.0816 42.0773 40.2267 42.1136 40.399 42.0773C41.4421 42.2315 42.4489 42.1408 43.4104 41.6873C43.5464 41.6964 43.6553 41.6601 43.7278 41.5331C44.7165 40.9889 45.5328 40.1091 46.721 39.9367C46.9024 39.9639 47.0657 39.9639 47.2017 39.8098C48.145 39.7372 49.0883 39.6646 50.0407 39.5921C50.1949 39.5921 50.34 39.6011 50.4942 39.6011C51.501 39.6283 52.5078 39.6556 53.5237 39.6737C53.6144 39.6737 53.7051 39.6828 53.7958 39.6828C53.8412 39.7009 53.8956 39.7281 53.9409 39.7281C55.1201 39.5921 56.0906 39.8823 56.6258 41.0614C56.7437 41.4515 56.9069 41.8234 57.1428 42.1499C57.9863 44.0184 58.5849 45.9503 58.7119 48.0093C58.7301 48.3449 58.848 48.4809 59.1836 48.4537C59.492 48.4265 59.8094 48.4356 60.1178 48.4265C60.272 48.4356 60.4262 48.4447 60.5804 48.4537C62.3763 49.2428 62.7935 51.1023 61.4058 52.1544C61.1609 52.3993 60.8525 52.4991 60.5804 52.6351Z" fill="white"/>
</svg>
