<svg width="491" height="467" fill="none" xmlns="http://www.w3.org/2000/svg"><g clip-path="url(#clip0)" fill="#4B2F1B"><path d="M32.5 181.3l9.3-5.2-.4-1c-1.3-3.3-.9-6 1.1-9 1.8-2.7 1.7-6.6 6-7l.1-.2c-.5-4.2 3.3-6 5-9 1.7-3 4.7-3.3 7.5-1.6.9.5 2 .8 3 1l12.6.7-2.5-1.8c-7.6-4.4-9-12.3-10.5-19.9-1.8-8.4-1.7-17-.2-25.5.6-2.9 2-5.6 2.7-8.5.4-1.2.5-2.6.3-3.9-.7-4.1-1.5-8.3-2.4-12.4-.4-2-1-3.8-1.6-5.4.5-1.3 1.3-2.7 1.4-4 .2-7.6 2.6-14.5 6.4-21 2-3.1 3.7-6.5 6-9.4 3.9-5 9.5-7.7 15.2-10a118 118 0 0130-6.1c3.3-.4 6.6-.5 10-.7 1 0 1.7 0 2.2-1.5.4-1 2.3-1.8 3.5-1.8 1.4-.1 2.9.6 4 1.3 3.6 2.4 6.8 2 10.6 0 2.1-1 5-.7 7.7-1l13.4-1.3c.2 0 .4-.3 0-.6 0-1.7-.5-4.4.3-4.9 1.9-1.2 4.4-1.4 6.7-1.8 1.3-.3 2.9.2 4-.3 6.7-3.4 14-4.9 21.3-6.3C220.2.4 235.5.6 250.7.4c3 0 6.2-.6 9.2-.3 4.9.3 9.7 1.8 14.5 1.6 5 0 9.7 1.1 14.3 2.9.4.1 1 .2 1.3.5 3.6 5 10.3 5 14.7 8.6 1 .8 1.9 1.7 3 2 1.1.4 2.6.6 3.7.2 2.3-.9 5.7 1.2 6.8 4.4l.7 2.1c3.8-2.2 7.4-.9 9 3 .2.5.3 1.2.7 1.4l13.4 9c1.4 1 2.6 2.1 4 3.3 2.5-2.9 4.5-.2 6 1.1 1.7 1.6 2.8 1.5 4.6.4 3.2-1.9 6.9-.5 8.4 2.7.3.7 1 1.5 1.8 1.7 3.6.8 7.4 1.2 11 2 2.2.6 4.3 1.8 6.4 2.5 1.1.5 2.3.6 3.4 1 1.1.5 2.7.8 3.2 1.6 2.4 4.2 7 5 10.7 6.7 9.6 4.4 19.5 8.2 27.8 15 .8.6 2.1.4 3.1.8 4.7 2 8.5 5 11.3 9.4 1 1.5 2.5 3 4 3.8 3.1 1.5 6.3 2.7 6.6 6.8 0 .4.6.8.9 1.1l15 18c2.4 2.8 5.9 4.9 7 8.8.7 2.9 1.4 5.8 2.3 8.6 1.7 5 4 9.7 5.1 14.6 1.3 5.4 1.6 11 2.5 16.4a9 9 0 001.7 4c2.3 2.9 2.2 6.3-.6 8.7 1.6 5.8.8 11.5-1.2 17.1-1 2.7-2 5.4-2.8 8.2-.2.7-.2 1.7 0 2.4 1.3 3.3 2.8 6.5 3.8 9.8.3 1.2 0 3.5-1 4-3 1.8-2.5 5-3 7.6-.4 2.5-.8 5 1 7.7 2.2 3.1.7 5.5-3 6-3.7.7-5 3.9-6.4 6.6-2 3.5-4.7 5.6-8.6 6.8-3 .8-5.5 2.8-8.4 3.9-3.7 1.3-7.5 2.3-11 3.4 3.5 1.4 3.8 4.6 3.1 8-.6 2.9-.8 5.1 1.6 7.6 1.4 1.5 1.1 4.5 1.6 7.2l3.3 3.8c5.4-3.5 7.5-1.4 10.8 2.3v.3c1.2 1.2 3 2.3 3 3.6.1 1.1-1.8 2.4-2.7 3.6-4.1 5.7-3.3 10 2.8 15l1.8 1.5c-3.8 5.9-2 12.4-2.4 18.7 0 2.5 1.5 4 3.6 5.2 3.2 2 4.9 3 4 8-.3 2-1.4 4.4 1.2 6-.4.6-.7 1.5-1.2 1.7-4.6 1.1-9.2 2-14 2.8-4.8.8-9.4 3.8-13.8 6.4-2.2 1.3-3.3 4.2-5.4 5.9-1.7 1.4-4 2.4-6.2 3.1-2 .7-2.6 1.6-2.3 3.6 1 7.8 2.1 15.5 1 23.4-1.1 6.9-2.7 13.6-5.8 20a93.7 93.7 0 01-21 29c-7.6 7-16.2 12-26 15.2a152 152 0 01-46.3 6.4c-12.3.2-24.6-.4-36.9-1-7-.3-13.6-2.6-20.3-4.7-9.5-3-19.3-4.8-29.1-6-3.4-.5-6.6-2-10-2.8l-21-5c-3-.7-6-1.6-8.8-2.5-8.2-2.6-16.4-5-24.5-8-7-2.5-13.9-5.8-20.8-8.8l-12.7-5.7-13-6.3c-4-1.9-8.3-3.5-12.3-5.6l-28.4-15c-5.1-2.7-10.4-5.2-15.4-8.2-4.8-3-9.6-6.2-14-9.8-7.3-6-14.6-12-21.4-18.6-6.4-6.1-11.8-13.3-18.2-19.4a62.5 62.5 0 01-14.9-21.8c-2-5.1-3.8-10.4-5.5-15.7-1.6-4.7-3.6-9.4-4.4-14.3-1.5-10.2-1-20.6.2-30.8.2-2 .9-4.1 2-5.7 1.3-1.8 1-3-.4-4.3-.5-.5-.7-1.4-1-2-1.5-3.4-2.8-6.7-5.6-9.3-2-2-2.3-4.9-1.5-7.8 1.3-4.3 2.4-8.7 3.5-13.2.3-1.1.2-2.4 0-3.6-.3-2 .4-3 2.4-3.4 3.9-.7 6-3.6 8.1-6.5.3-.4 0-1 0-1.6.1-1.3 0-2.6.4-3.8.6-2 1.1-4-.4-5.8-.2-.3.4-1.6 1-2 1.4-1.3 3.3-2 4.6-3.4 2.4-2.3 9-3.8 12.5-2.9zm63.3 42.5l-2.8.9a3 3 0 011.4-2c2.4-1.5 2.7-2.2.1-3.7-3.1-1.8-6.7-3-10-4.4l-.6-.1 1-2-6-3c-3.9-5.3-8.5-9.6-16.5-7.8v-1l3.1-2.8c-1.4-2.3-3.6-4.1-4.9-6.8-3.8-7.6-5.5-9.3-1.2-17.4 1.7-3.2 1.2-4.3-2.5-4.9-1.3-.2-2.6-.7-4.3-1.2 2.6-1 4.6-1.8 6.8-2.4.4-.1 1.1.4 1.7.7 0 .2-.2.3-.3.5l-3.3.7 4.2 2.7L72 154.3l-2.8-1.3c1.4-2.3 4.3 2.2 5.3-1.5l-1-.3c-5.6.1-11.1.4-16.4-2-.6-.4-2 .7-3 1l.4 1 2.4.6c-1.8 1-3.2 1.6-4.4 2.5-2.1 1.7-2 1.8-1.4 4 9.7-3.7 13.9-1 13.5 2.4-7-5.3-13.2.2-19.6 1.5 0 .3-.2.5-.1.7l.3 1.3c6.7-2.3 10-2.3 11.2.4-1.6-.2-3-.6-4.2-.5-2.7.2-5 .8-7.3 2.7-3.3 2.7-4 3.2-2.4 7.2.3 1 .8 1.9 1.4 3.3 1.7-1.4 3-3 4.6-3.6 1.6-.7 3.7-.4 5.6-.6l.3 1.2c-4.4 1.5-8.8 3.4-13.3 4.5-5.5 1.2-6.8 3.2-4.6 8.2l.7 1.8 1.7-.8c-.8 2.3-1.3 4.4-2.2 6.4-1.7 3.6-1.7 4 1.8 6.5 2.3-3.3 4.5-6.7 7-9.8 1.5-2 3-4.4 6.4-4-2.6 2-5.3 3.6-4.5 7.6.7 3.8 3.6 5.1 7 6.6-5.4.1-8-2.7-9-6.5l-4.7 5.6c-2.8 3.3-4.2 7-2.2 11.2 1.2 2.5 3 4.8 3.6 7.5 1 4.6 4 6.7 8.1 8 1.8.5 2.8 1.4 2.5 3.7-.4 3.2 1.7 6.1 4.2 6.7l2.5-4.2c0 2.3-.4 4.2-.6 6.1-.2 1-.3 2.5.3 3.1.6.7 2 .6 3.4 1-2.4 1.1-1.1 2.5 0 4.2 1-2.1 3-3.3 2-6.3-.6-2.3.8-5.3 1.3-8l1.2.3-.9 5.4c-.1 1.7-.7 3.8 2.2 3.6l-1.2 5.5-1-2.4-.8-.1c-.2.8-.7 1.8-.4 2.5 1.2 3.6 4 4.6 7.5 4 1.1 3 0 7 4.7 7.1-1 2.7-1 3.7 1.5 4.7 4 1.5 7.2 3.8 10.7 6 6 4 13.1 6.1 20.6 6 .4 0 .8 0 1 .2 2.6 2.2 5.2 4.4 7.6 6.8 1.5 1.4 3 2.6 5 1-.4 4 .2 5 3.8 6.3 1 .3 2.2.6 2.5 1.3 1.5 3.5 4.7 4.2 7.8 5.2l3-5.3.7.5-1.1 1.7c-1.2 2-1.1 3.8.7 5.4a28 28 0 0013 6.2c.3 0 .9-.6.8-.6 2 1.3 3.5 2.8 5.4 3.3 2.2.6 4.7-.6 7 1.4 2 2 5 2.8 7.4 4.4 3.4 2.3 6.8 4.4 11 4.6 1.3 0 3-.7 3.5-.1 3.2 2.9 6.7 2.5 10.3 1.4 2.4-.6 4.2-.4 6.2 1.2 1.3 1 3.2 1.2 5.1 1.8 1.5 3.8 5.5 3 9 3.4-.4 2.3.7 3.6 3 4 2.2.4 4.5.9 6.8 1 2.2.2 4.4-.3 6.6 0 2.3.3 4.5 1.1 7 1.8 0 2 1.4 3.2 3 3.5.7 1.5 1.5 3.4 3 4 2.2.8 3.2 2.8 4.9 4 4.8 3.3 10.3 5 16.3 3.8 1.2-.3 2.3-1 3.4.7.4.6 2.5.6 3.6.2 2.5-1 5-2.2 7.4-3.4l.2-.4-1.3-1.6.5-.4 4.4 2c.6.7 1.5.8 2.5.7 5.5-.8 11 2.3 16.6 0l.6.1c.4 1.1 1.2 2.2 2 2.3 1.8.1 3.6-.3 5.3-.4-2.8 3 3.5 4.5 2 7.7l1 .5c2.7 1 5.4 2 7.8-.3l2.4 2.4c2.5-3.4 7.5-4.2 8-8.9.5 1.4.9 3.2 1.8 4.6.7 1 2.5 1.2 3.3 2.3a6.2 6.2 0 006.7 2.2c2.9-.7 5.6-2 8.4-3 4-1.6 5.2-5 5.8-8.7l.3-2.2h1c0 1.7-.5 3.5-.1 5 .3 1.4 1.7 2.5 2.7 3.7.6-2.9-1-5.6 1.8-7.5.4 2.3.4 4.5 1.2 6.4.7 1.7 1.7 3.8 4.2 3.5 2.3-.4 6.2-6 5.6-8.2l-2.6-9.9c1.2.8 2.2 1.1 2.4 1.7 1 3.5 1.7 7 2.4 9.8l10.5 3.6c2.6.7 5.2 1.3 7.8 1.5 2 .2 4-.2 4.1-2.9 0-.5.8-1.5 1.1-1.5 2.5.3 2.2-1.9 3-3.1.4-.9 1.1-1.6 1.7-2.3l.6.4-3.8 6.7c.2.1.7.5 1 .5 4 .2 8-1.5 12 .1.6.2 1.6-.5 2.4-.8l4-1.4 3.6-10.4.9.3-3.3 11c4 1.7 5.8 1.2 8.2-2.1.7-1 1.8-1.7 3-2.8l.3 2.3c5-1.8 6.6-6.5 8.2-10.1 1.4-3.2 2.7-6.5 4.4-9.6.2-.3.2-.8.3-1.4-4.4 1.4-7.8 4.6-12.6 4.8-1.4.1-3.4-.2-4.6.5-2.5 1.5-4-.4-5.9-1.2h9.7l1.4-3.3c-.1 3 1.4 2.7 3.1 1.7 5.6-3 11.1-5.9 16.6-9 .8-.4 1.3-1.5 1.7-2.4.9-2-.3-4.7 2.1-6.2v-1c-.9-4-1.6-8-2.6-12-.3-1.1-1-2.2-1.4-3.3-1.1-2.8-2.5-5.6-3.3-8.5-.6-2.4-1.1-3.5-3.7-4-.8 6.5-6.8 12.2-2.8 19.9-3.9-.5-5.6 2-7 4.9a2 2 0 01-.8.8c-5.1 2.5-10.2 5.2-15.3 7.6-5.1 2.3-10.6 2.3-16.1 2.2-8-.2-16-.3-23.9-.2a13 13 0 00-6.4 1.5c-3.2 2-6 4.6-9 6.9-.6.4-1.2.5-1.7.9l-3.8 2.6-3 1.2c0-.3-.2-.6-.3-.8l9.6-6.6-.2-.2-6 1.3.1-.2 9.7-4-.6-1.2.8 1.4.7-.4c-.6-1 .6-3-2.3-2.7l-6.2.9c0-.5.1-2.1-.4-2.3-4-1.9-8.3-2.3-13-1.4 1.5 1.7 4 2.6 2.6 4.8l-5.3-3.7c-.4-.2-.9-.3-1.2-.7-2-1.8-3.9-1.7-5.5.5l-1.8 1.7c-.1-.8-.4-1.3-.2-1.6 1.6-3.3-1.1-4-3-5.1-1.4-.7-3-1.2-4.4-1.5-4.4-.8-8.7-1.5-13.1-2-.7-.2-1.6.3-2.1.8-4 4-7.8 8.1-11.6 12.1 0-3.8 2.7-5.7 6-7-1.8-3.2-3.6.3-6.1-.6l5.8-3.6-2.5-.8 2-1.6c-2.2-.8-4.3-2.2-6.5-2.1-2.3 0-4.5 1.4-6.7 2.2v.4l5-3.4c-4.8-2.7-8.8-7.7-15.1-2.9v-.9l2.3-2.2c-2.6-2-5.3-3.5-8.8-2.8-.4 0-1 0-1.3-.2-2.4-2.6-4.8-2-6.5-.6-1.5-1.4-2.6-3.2-4-3.7-1.8-.6-3.9-.2-6-.2l.5-2.5c-7.1-2-13-7.9-21.2-6.3.2-3.9-3-1-4.5-2l1.6-1.6c-3.2-3-3.7-3-7 .5a852 852 0 00-.5-3.7c-1.5-.7-3.2-1.2-4.5-2.3-5.8-4.7-11.3-9.7-17-14.4-1.5-1.2-3.3-2-5-3l-.4.7c-.3-.5-.4-1.2-.9-1.5-1.6-1.1-4.2-3.4-5-3-2.5 1.7-4.2-.4-6.2-.6h-1.5l.8 3-6.8-3c.1-2.7-2.3-3-5-3-1.6 0-3.2.4-4.5-.2-3.8-1.5-7.3.4-10.8 1-1 .1-1.8 1-3.1 2 1.8 0 3 .1 4.7.3-3.2 2.4-6 .7-9.6.9l5.5-4.5c-.6-.4-.8-.7-1-.7a27.1 27.1 0 00-14.6 3.8c-.9.5-2 1.2-2.8 1-2-.8-4-1.7-6 1 .8-2.8 2.5-3.5 5.5-2.8.7.2 1.7.4 2.3.1l11.3-4.4 2.6-1.5c-8.3-2-15.9-2.9-22.4-7.3-2.5-1.7-6-1.1-7.2.6l2.4 2.3-.5.3c-1.6-.5-3.2-1-4.8-1.7l.7-.1c-.5-1.6-.5-3.9-1.6-4.5-5.3-3.2-10.7-4.6-15.7 1.3l-.2-2c.2-1.4.4-2.8.4-4.2-.1-2.7-2.8-2.2-4.3-3-4.4-2.4-9-4.3-14-1.6v-.2zM200.5 19.6a133 133 0 00-32.2.5c3 .2 6.2-.2 6.6 4-5 3.6-8.8 3-10.7-1.6l2.9-2.6c-2.2.2-4.5-.1-5.1.7-2.4 3.4-5.5 2.8-8.8 2.8-3.3 0-6.5 1.1-9.8 1.7.4 1 .7 1.2.8 1.4.9 1.2 2.5 2.6 2.3 3.6-.3 2.1-2.5 2-4.2 1.6-3.6-1.2-7-1.5-10.5.4-.3.1-.8-.2-1.1 0-1.6.6-4.2 1.3-4.4 2.2-.7 5.2-4.8 6.5-8.4 8.6l-.9-.1-.1-2.5c-1.2.7-2.3 1.3-3.2 2-3.1 2.7-6.7 5-9 8.2-2 2.7-3.9 5-7 6.2-3.2 1.4-6.4 2.8-8.5 6C84.3 70 79 77 73.9 84.1a60.3 60.3 0 00-8.8 45.3c1.5 7.7 4.5 14.7 12.2 18.3 11.8 5.6 23.5 11.4 35.4 16.6 8.6 3.6 17.7 6.2 26.5 9.3.7.2 1.8.3 2 0 1.8-2.3 4-1.9 6-.9 2.2 1.2 3.8 3.3 3.5 6-.2 1.6.4 2.4 1.6 3.1 3.8 2.3 7.3 5 11.3 6.9 5.8 2.8 11.8 5 17.8 7.4a835.1 835.1 0 0058.6 20.4c9.7 3 19.5 5.6 29.3 8.4 6 1.7 12 3.5 18 5 6.7 1.7 13.4 3.2 20.1 4.6 8.6 1.7 17.2 3.3 25.8 4.7 3.8.6 7.5 1.3 11.6.2 3.9-1.2 8.7-1.6 10.4 4.2 0 .2.6.5.9.6 5 1.5 10.1 3.3 15.3 4.4 5.3 1 10.8 1 16.2 1.8 7.7 1 15.2 2.7 22.8 3.6 7.6 1 15.2 1.7 22.8 2.1 7.6.4 15.3.7 22.6-2.1 3.4-1.3 6.4-3.7 9.8-4.8 3.4-1 6-2.8 8-5.5l3.4-5.4c-3.8-4-2.6-8.2 4.3-15.2l1.4 1.2c.6-4.2 1.3-8.1 1.6-12 .1-.8-.8-2.2-1.5-2.4-2-.6-2.7-1.7-2.4-3.6.4-2.3.2-4.4-1.2-6.6-1.1-1.8-1.3-4.5.6-6 1-.7 3-.1 4.6-.2l.8.9c.6-3.9 1.9-7.8 1.8-11.6-.3-6.4-1.3-12.7-2.1-19-.4-3.4-.7-6.8-1.5-10.1l-6-22.8c-.6-2.2-1.7-3.7-3.3-5.3-1.8-1.7-2.6-4.4-3.8-6.8-.3-.6 0-1.6-.5-2.2l-5.8-7.9-4.4-5.6-.8.3.3 6.9c.1 2-1.1 2.5-2.7 2.1-1-.2-2.2-.8-2.8-1.6-1.8-2.2-3.7-4.4-4.8-7-.4-.8 1-3 2-4 1.2-.8 3-.6 4.4-1-.9-1.2-1.7-3.6-3-4a12.4 12.4 0 01-8.9-7.9c-.3-.8-1.6-1.2-2.5-1.7-1-.5-2.3-.6-3.2-1.2-3-2.3-6.2-4.6-9-7.3-5.1-5-11.4-8.3-17.7-11.6-5.4-2.8-11-5-16.5-7.5-.5-.3-1.4-.4-1.8 0-3.2 2.4-6.5 1.6-8.5-2.2L386 54v-.7l-5.2-1c-.6 0-1.2 0-1.7-.3-2-1-4.3-1.3-6-3.5-1.7-1.9-5.7-2.6-8.5-2.4-3.8.2-7-.7-10.3-2.8-1 3.4-3.7 4-6.2 3.8-1.7-.3-4.6.6-5.2-2.6l2.4-1.7c-.8-.3-1.5-.4-1.8-.9-.7-1.3-1-3.1-2-4-2.4-2.3-4.9-4.5-8.5-5-2.9-.4-5.6-1.6-8.3-2.6-1.8-.7-2.5-1.9-.1-3-11.6-6-21.7-14.3-33.3-18.6.5 1.5 1.9 3.4 1.4 4.5-.9 2.3-2.7.1-4.1 0h-.3c-3-1.3-3.5-2.9-1.6-5.4-.5-.2-1-.6-1.4-.5-4 1.3-7-.4-10-2.8-1.2-1-4.1-1.7-4.9-1-2.6 2.5-4.8 1-7.2 0-1.6-.5-3.2-1.3-4.8-1.3-5 0-10.1.5-15.2.6-9.5.2-19 0-28.4.7-9.2.5-18.2 2.9-27 5.7a26.5 26.5 0 00-11 7.8l1.6.2c11-.5 21.8-.2 32.6 1.9 3 .5 7 3.8 9.3-1.8-1.6-2.1-1.4-4.3.8-5.8.9-.7 3-1 3.4-.4 2.4 2.4-.3 4-1.5 6l1.7-.8 2.6 5.6-1.3.5 10.8 4.6c3.2 1.5 6.5 2.9 9.6 4.7 3.2 1.8 6.2 3.4 9.8 1 .8-.5 2.8-.3 3.2.3 1.1 1.5 2 3.3 2.3 5.1.6 3.7 3.4 5.3 6 6 3.5 1 7 2.8 11 1.6.8-.2 2 1.2 3.1 1.8-.8.8-1.4 2-2.3 2.2-2.6.7-3.4 2-2.7 4.7a97.6 97.6 0 0129.6-.8c.4 0 .8-.3 1.3-.4 1.7-.5 3.5-1.6 5.2-1.4 4 .4 8 1.4 12 2.3 7.5 1.7 15 4.1 23 3.1 1-.1 2.2.2 3.2.6 3.6 1.4 7.2 3.1 10.9 4.2 3.6 1 7.3 1.8 11 1.8 3.1 0 5.5.7 7.6 2.9a8.4 8.4 0 006.5 3c1-.1 2.8-.3 3.1-1 1.3-3.1 4-3 6.5-2.9 1.2.1 2.8 1 3.2 1.8.4.8-.8 2.2-1.4 3.6 3.1.7 6.8.9 9.7 2.4 3 1.5 7.2 1.5 8.7 5l-3 4.7 10.9 2.5c-3.9 3.4-.6 4.8 1 6.5 2.2 2.1 4.5 4.1 6.5 6.3l5.5 6.4c1.9-.6 4-1.9 4.5-1.4 1.3 1.2 1.7 3.2 2.7 5.3 3.1.2 6 2 5.6 4.1-.1.9-.6 2.3-1.2 2.4-1.7.5-3.6.5-5.4.6l3.7 7-.8.4c-1.5-2.8-3-5.7-4.6-8.4-3.4-5-6.3-10.7-10.6-15-6.3-6.1-13.6-11.3-20.6-16.9-.3-.3-1 0-1.7 0-2.5-.2-4.7-.6-6.8-2.7-1.8-1.7-4.6-3.5-6.9-3.4-4 .1-6-2.3-8.6-4.4-1.4-1.2-3.2-1.8-4.8-2.7l-.3.7 1.8 2.1c1.2 1.8 1.6 3.7-.2 5.2s-3.4 0-4.5-1.4c-1.4-1.7-2.7-3.6-4-5.4-1.5-.3-3.3-1.5-4.1-4.2-.1-.4-.7-1-1.1-1l-14-4c-2.6 4.7-8.3 2.5-10.3-.8-.8-1.5-1.8-1.6-3.1-1.8l-12.8-2c-1-.1-2.2.5-3.3.5-1.7 0-3.7.3-5.2-.5-1.3-.7-2-.8-3.4-.3-3.4 1.4-6.8 1.8-10-.4-1-.7-2.5-1.3-3.7-1.3-7.2 0-14.3 0-21.4.2-5.2.2-10.5-.3-15.4 1.8-7.5 3-14.8 6.5-22.2 9.7l-2.1 1.4 3.2-.3c2 0 3 1.6 2.2 3.3-1.4 2.8-4 2.2-6.3 2-1.7 0-3.7-.5-3-3.4A110.1 110.1 0 00207.2 93c3.3 3.7 3.1 5.3-.6 7l-5.4-1.9-15.3 20.7c.4-1.3.5-2.1 1-2.7l12.5-17.3c.5-.8.7-2 .6-3-.1-1.5 1.6-4.6 3-4.2 3.5.9 4-2.7 6.4-3.4-6-5.9-6.3-6.9-2.7-10-1.4-1.2-3-2.3-4.4-3.7-1.5-1.4-.8-2.9 1-2.7 2.7.3 5.3 1.3 8 2.3.3.1.3 1.8.2 2.7-.1.6-.9 1.1-1.2 1.5l4 5.4 2.3-1.8c-.7-2.4-2-4.4-1.5-6 .4-1.1 2.8-1.9 4.5-2.4 1-.3 2.5 0 3.5.5 2.7 1.5 4.6.2 6.6-1.4l-5.3-1.4c-1.5-.4-3.2-1-2.6-3 .7-1.8 2.5-2.4 4.3-1.7 2.2 1 4.2 2.1 6.4 3 .6.3 1.6.4 2.3 0 9.3-4.2 18.6-8.6 28-13l2.2-1c1.5-.8 3-1.9 4.6-2.6.9-.4 1.9-.4 3-.7l-11.5-10.7c-4.6 1.9-9.3.5-10-3.5-.4-2-1.5-2.3-2.8-3-.7-.2-1.4-.5-2-.9-4.8-2.3-9.3-5.1-14.3-6.9-6.9-2.5-14-4.4-21.2-6.2-3.4-.9-7-1-10.5-1.3h.1zm-27.3 372.1c.3-2.5-2.6-6.6-5.5-7.4-5-1.5-10.1-2.7-15-4.8-7.9-3.4-15.7-7.2-23.4-11-3.8-2-7.7-3.8-11-6.3-7.6-6-16-10.3-25-13.7-7-2.7-13.6-6.4-20.1-10.2a48.4 48.4 0 01-19-17.7c-.4-1-1.9-1.7-3-1.8-5.1-.2-5.1-.1-5-5.6v-1c1-3.3-.9-5.3-2.9-7.3l-1.6-1.6c-.4-.6-.9-1.5-.7-1.9 1.3-2.4-.4-4.2-1.4-6l-7-12.8-4.7-8c-.9-1.7-2.1-3.3-2.3-5-1-6.8-1.6-13.7-2.4-21.2-1.1 1.4-2 2.5-2.9 3.4-.8.8-2 2.3-2.7 2-1.5-.3-2.1.4-3.2.9-3.3 1.4-5 3.2-5 6.5 0 5 0 9.8.2 14.7.4 6.5.3 13.1 2.7 19.4 2.6 6.8 5.1 13.6 7.2 20.6a46.3 46.3 0 0012.2 20c4.5 4.5 9.1 8.8 13.1 13.7 6.6 8 13.7 15.3 21.9 21.5 8.1 6.2 15.7 13 25.4 17.1 7.4 3.2 13.9 8.2 21 11.9 8.8 4.4 17.8 8.3 26.8 12.3 6 2.7 12.3 5 18.3 7.7 10 4.4 19.7 9.4 29.8 13.2 10.6 4 21.6 6.9 32.4 10.2l27.3 8.3c2.7.8 5.5 1.2 8.2 1.8 7.9 1.8 15.8 3.3 23.6 5.4 7 1.8 13.6 4.3 20.9 4.7a289 289 0 0072.5-3.6c7-1.4 14-3.7 20.7-6.6 7-3 13-8.3 18.2-14 7-8 12.9-16.8 16.8-26.7a63.5 63.5 0 004.8-19.2c.4-7.8.5-15.7.7-23.6h-5.6l-.3 13.6c0 .8.2 1.8.7 2.3 3.7 3.9 2.7 10.3-2 13.4-4.8 3.2-8 7.7-12.3 11.3-.4.4-.7 1.1-.7 1.7.3 3.4-1.6 6-4.2 7.5-3.4 2.1-7.2 3.8-11 5-5.4 1.8-7.7.6-10.3-4.4-1.3-2.6-3.4-3.4-6-3.2-2.2.1-4.3.4-6.5.6-7.3.8-14.6 1.1-21.8 2.3-5.3 1-10.3 1.5-15.7.8-6.1-.8-12.3-3-18.6-.4-.8.4-2.1-.5-3.2-.8l-6.3-2a358 358 0 01-7.2-2.5c-2.3-.8-4.4-2-6.7-2.3-8-1-16.1-1.5-24.2-2.2-16.2-1.3-32.5-1.7-48.3-6.2a92 92 0 01-19.3-7.3c-3.6-1.9-7.4-3.5-10.7-5-1 1.3-1.8 3-2.4 3-3.4-.4-4.8 3-7.7 3.8l-.8-2.7-3 1.8 1-3-.4-.4-2.7 2.2c1.8-5.4-3.7-2.7-4.7-5.2zm65.4-121.5c.5.4 1.2 1.3 2.1 1.8 9.4 5 18.6 10.2 28.3 14.6 7.4 3.3 15.3 5.7 23 8.2 10.6 3.4 21.2 6.7 32 9.8a255 255 0 0023.3 5.7c11.5 2.1 23.1 4 34.8 5.4 15.4 1.9 31 2.8 46-2.7 8.4-3.1 15.5-7.6 18-17 1.4-4.9 3-9.7 4.5-14.6l.7-2.7c-.8.6-1.2.8-1.5 1.2a50.5 50.5 0 01-40 16.1c-12-.8-23.7-1.7-35.5-2.7a221.8 221.8 0 01-40.5-7.4c-8-2.2-15.7-5.2-23.5-8-10.2-3.9-20.4-8-30.5-12-8-3-15.7-6.5-22.8-11.4-3.1-2.1-6-5-10.8-4.5l-3.8 13.2 1.7-.3-1 3.6c1 .4 1.5.9 1.4 1.1-.4 1.1-1 2.1-1.6 3.2l-.9-.5 1.1-3-4.5 2.9zM72 157.6c-4 6.3-7.3 11.9-11 17.3-2.2 3.4-2.9 7-.7 10.3a105.2 105.2 0 0049.3 38 270 270 0 0028.5 9.3 295 295 0 0070.8 11.7c14.5.8 28.9 2.7 43.5 1.8 7.7-.5 15.1-1.2 22.4-3.4 2.4-.7 5.5-1.6 5.8-4.7-3.8.5-7.4 1.1-11 1.4-9.6.7-19.1.5-28.6-1.4-3.1-.6-6.3-1.3-9.4-1.6-5.9-.7-11.9-.7-17.6-2-7.6-1.6-15-4.2-22.4-6.4-1.6-.4-3-1-4.6-1.5-9.3-2.7-18.7-5-27.9-8-8.1-2.7-16-5.9-24-9a106 106 0 01-11.6-5.3c-12.1-6.5-23.6-14-34.2-22.7-7.5-6.3-15.7-12.1-17.3-23.8zm35.2 164.7l-.4-1.2c-2.4-5.4-4.8-10.8-7-16.3-1.6-4-3.2-7.8-6.8-10.5-3.5-2.7-5.7-6.3-5.2-11.3 1.2 2.8 1.9 5.6 3.4 7.8 1.6 2.3 4.6 3.8 6 6.2 1.8 2.8 2.6 6.3 4 9.4l7.4 17.2 3 .6c2.4-2.7 4.2-5.5 6.7-7 2.1-1.4 2.2-2.1 1-3.9-1.1-1.8-2.8-3.7-3-5.6-.2-2.2-1.4-3.3-2.4-4.8-2.4-3.9-5-7.8-6.8-12a28.2 28.2 0 00-11-13.7c-3.9-2.3-7.4-5-11.1-7.6l-1.5-.4c-4.4-1.7-9.8-2-11.8-7.7v9.4l.4-.1-1.4 4.1 5.2-3c-.9 3-5.3 2.4-5.4 5.8l8.1-2.5.5.9c-5.8.5-9.6 3.3-11 9a5 5 0 01-.4-2.7c1.8-8.3 1-16.6.6-25-.1-1.6-4.3-6.4-5.5-6.4l-12 .3c-3 .2-3.4 1.3-1.8 3.8 1 1.5 1.4 3.4 2 5 .7 1.9 1 3.8 2 5.5 1.4 2.7 2.4 5.3 1.1 8.3-.6 1.5-1.3 3-1.6 4.6-.7 3.5-2 7 .6 10.2-4.2 6-5 11.7-2.4 16.9-4 2.1-3.4 6-3.6 9.7-.1 1.6.7 2.3 2.4 2.2 3-.1 6-.5 9 0 6.3.9 12.5 1.8 18.6 3.5 5.6 1.6 11 3.2 16.9 2 .8-.3 2-.5 2.4-1.1 2.3-3 .8-10.4-2.5-12.5-3-1.8-3-5-4.1-7.7l.4-.2c1.4 2.2 2.4 4.9 4.3 6.5 2.4 2 3.8 4.4 4 7.4.1 2-.3 4.2-.5 6.6l9.2.3zm72.7 48l.7-.2c-.3-1.5-.8-3-.9-4.5-.3-4.5 0-9-.8-13.5-1.2-6.9-3-13.7-4.5-20.6-1.2-5.1-3.7-10.1-1.6-16.2-1.7-.6-3.3-1.6-5-1.7-9.7-.6-18-5.3-26.3-9.7-2.8-1.4-4.8-4.3-7.4-6.3-2.9-2.2-6-4-9-6-1-.7-1.6-1.9-2.4-2.8-.4-.4-.7-1-1.2-1.3l-6.6-4.2-6.6-3.9c0 1.4-.2 2 0 2.5 1.8 6.1 2.8 12.6 6.9 17.8 2 2.6 4.3 5.4 7 7.1 1.9 1.2 2 2.3 2.4 3.9 1.6 6 2.5 12.4 5.5 17.7 3.9 7 9.1 13.3 14.4 19.4 5.7 6.5 12.1 12.3 18.2 18.5.4.4 1 .7 1.5 1l.7-.7c-3.2-3.5-6.2-7.3-9.8-10.3a35 35 0 01-12.4-21c.7 1.3 1.5 2.7 1.9 4.1a32.2 32.2 0 0010.9 14.5c7.2 6.4 12.6 13.6 13.1 23.5.2 4.7 3.1 7.7 6 10.9.5.6.8 1.6 1.3 2.7 1.4.5 3.4 1.4 5.4 1.8 1.6.3 3.4 0 4.7 0l-2-9.3c-1.6.9-1.6.1-1.6-1.4 0-3.1-.5-6.2-.8-9.4l-.8.1c0 3.3-.2 6.5.1 9.7.4 3.4-1.8 3.6-4.2 4.2 3.1-2.5 2.3-5.8 2-8.9-.7-8.9-4.4-16.7-9-24.2-.3-.5-.3-1.2-.5-1.7l.8-.4c4.8 5.5 7.8 11.9 10 18.9zm63.7-17.1l-3.3-.8c-4.4-1-8.3-.3-11 3.6a10 10 0 00-1.2 10c1.6 4 3 8 4 12 1 3.3 2.4 6.4 5.4 8 5.4 2.8 11 5.5 16.6 7.9 5.2 2.1 10.7 3.7 16 5.6 4 1.4 7.9.4 10.4-3l7.6-10.1 3.3-4.8-.3-.3-18.7 9-.5-.8 8.1-5.6c-4.1-1-5.3-4.1-4.9-7.6.3-2.5-.9-3.5-2.9-3.5-5.8 0-9.2-4.4-13.4-7.2a32.6 32.6 0 00-5.4-3c-1.5-.7-3.3-.8-5-1.3-3.5-1-5.8-.4-8.1 2.5-1 1.2-2 2.6-3.2 3.1-1.4.6-3.5.9-4.5.2s-1-2.8-1.4-4.2l.9-.3 1 2.3c1.5 3 2.3 3 4.6.4 1.5-1.8 3.2-3.5 5-5.3-4.2-1.3-6.4 1.3-8.7 5 .6-5.4 4.4-7.7 9.3-6.4 3.6.9 7.1 1.8 10.8 2.4 5.1.8 9.7-.4 12.7-5.1 1.7-2.8.8-4.8-2.3-5.2-.7 0-1.4 0-2-.3-5.2-2.6-10.4-5.4-16.3-6.3-2.5-.4-5-1.2-7.4-1.9-2.5-.6-5.2-.9-7.4-2-6.4-3.5-12.6-7.4-19-11-2.1-1.3-4.4-2.4-6.5-3.9-3.8-2.8-8.3-2.8-12.7-3-.5 0-1.3.4-1.5 1-1.5 2.4-2.8 5-4.1 7.6l.7.7c6.3-4.7 13-3.2 19.4-1 4.5 1.4 8.6 4.2 12.5 7 7.7 5.3 16 8.6 25.2 10.2 4.4.8 8.8 2 13.2 3.4 2.2.7 3.9 2.3 4 4.9 0 .2-.3.4-.6.8l-1.3-2c-3.7 1.7-5.9-1.5-8-2.9-3.7-2.1-7.6-2.5-11.4-3.7-4-1.2-8-2.2-11.8-4-4.8-2.2-9.4-5.2-14-8-6.5 8.2-.5 22.6 10 24.2 4.8-9.5 12.2-12.8 18-7.3zm-56 17c0 6 .2 11.5.5 17 0 .8 1.2 1.7 2 2 2.3.8 4.8 1 7 2 6.7 2.7 13.2 5.8 19.8 8.5 2.2 1 4.6 1.3 6.9 1.9 5.4 1.2 10.8 2.7 16.3 3.4 7.8 1 15.7 1.2 23.6 2 8.3.9 16.7 2.4 25 3.1 5.6.5 10.9 1 15.9 3.7 2.3 1.3 5.2 1.5 7.9 2.3 1.6.5 3.1 1.3 4.8 1.8 1.1.4 2.6 1 3.6.6 4-1.3 8-1 12-.2 8.6 1.8 17 1.5 25.7-1.6-.8-.1-1.4-.4-1.9-.3-6.8.5-13.3-.8-19.8-2.8-5.5-1.8-11.4-2.6-17.2-3.9l.1 2.6-3.1-1.7-8.9-4.3a48.3 48.3 0 01-6-4c-.5-.4-.3-1.4-.4-2l-11.2-2.6c-4-1-7.5-.1-10.7 2.3 1.1 1.2 4.4 1 2.4 4.1-1.4-2.7-3.5-2.5-5.7-2.7-3-.3-6-.9-8.9-1.6-2.1-.5-4.2-1.4-6.4-2-2.6-1-5.3-1.8-8-2.6-3.4-1-6.4-3.2-10.3-2.5-.9.1-2-.5-3-.8l.2-.6 2.3-.2v-.7l-7.3-1.8 1.7-1-5.4-6-.4.5-3.5-6.6 1.5-1.4c-.9-.8-2.2-1.4-2.4-2.2-.9-3-4.3-5.7-7.5-5.4-.3.5-.5 1.2-.9 2.4L215 366l-25 3.3 1.4 2.3-.4.4-3.5-1.9zm58.8-137c-.1-7-1.8-9.5-7.4-11.1l-19.9-5.8c-5.5-1.7-11-3.6-16.6-5.2-8.6-2.4-17.4-4.4-26-7.3-13.4-4.5-27-8.8-39.4-16-7.7-4.6-15.3-9.3-21.6-15.7-2.5-2.5-4.5-5.8-7.4-7.7-3.5-2.3-7.8-3.5-12.6-5.6.8 4.4 1.1 8.5 2.5 12.2 2.5 6.5 8 10.6 13.8 14a292 292 0 0023.3 12.6c9.3 4.5 18.5 9 28.1 12.7 11.2 4.3 22.7 7.8 34.2 11.3 9 2.8 18 5.5 27 7.6 7.2 1.7 14.6 2.7 22 4zM55.1 319c3.8 3.8 7 7.4 10.5 10.4A102.7 102.7 0 00100 348c5.3 1.8 10 4.7 14.5 8 5.3 3.7 10.9 7 16.6 10a399 399 0 0023.2 11.7c4.3 2 9 3.2 13.9 5-1.1-12.6-7-20-19.1-21.8l.6-1.4-10.8-7.3-10.9-7.5c-.4-.3-.5-1-.8-1.5-2.4-2.9-4-6.2-8-7.7-4-1.4-7.4-4.1-11-6.5-3.3-2.2-6.3-5-10.8-4.4-3.3.4-6.7.8-10 1.4-1.3.2-2.4 1-3.8 1.8l-2-1.3-.5.7 2.7 2.2-.5.9-3.8-2c-.5-.4-.8-1.5-1.4-1.6-3-.8-6.2-1.6-9.3-1.9-4.5-.4-5.6-1.3-5.7-6.1-.8.2-1.5.2-2.1.6-.4.2-.7.8-1 1.2l-1.5-2-3.4.5zm304.4-45.4l1.2.4-3 8.6 10 4.4c3.9 1.5 4.9.8 5.4-3.5l1.1-4.3.7.1-1 6.8c3-.8 5.9-1.1 8.3-2.3 4.7-2 3.4-6.6 3-10.5h1.2l1.2 7.1c3.1-.8 3.9-1.8 3.8-5.4 0-2.3-.5-4-3.3-4.8-7-1.8-13.8-4.1-20.7-5.9-2.9-.7-6-.8-8.9-.5-1.7.1-3.6 1-4.1 3.4-.2 1-1.5 1.8-2.3 2.8-.8-1.8-1.3-3.3-.8-4.3 1.5-3.3-.6-4.8-3-5.5-2.8-.9-6-1.1-9-1.1-.9 0-1.7 2-2.4 3.1l-4.7 6.8c-1.5-2.1-2.8-4.5-1.6-7.8.6-1.6.7-3.4.7-5.2.1-2.8-1.5-4.8-4.2-5.1-1.7-.2-3.4.3-5 .1-2.2-.2-4.4 2.9-6.4-.2l-.4.1c-1.4 2-1.9 0-2.2-.7-.8-1.2-1-2.8-1.8-4.1-.7-1.2-1.9-2.9-2.8-2.8-1 0-2.2 1.5-3 2.7-.6.8-.7 2-1.2 2.9-.4.8-1.2 1.5-1.9 2.2l-.9-.5c.7-2 1.6-4 2-6 .5-2.4-1.1-4.3-2.8-4.6.4 1.4.9 3.1 1.2 4.8 0 .2-1.2 1-1.2 1-.8-.8-1.4-1.7-2-2.5a25 25 0 00-6.5 15.8l4.3-10.4 1.1 3.8-.7 2.4 1.7-.4-.9 3.2 2.3 2.2-.5.6-4-1.4-.7.6c1.2 1.3 2.1 3 3.5 3.7 4.4 2.2 9 4.2 13.5 6 5.7 2 6.3 1.7 8.3-3.8l.7-.3c0 .9.2 1.7 0 2.4-.6 3 .5 5 3.4 6 2.7 1 5.5 1.8 8.2 3 4.6 1.8 9.3 3.7 13.7 6 5.4 2.7 6.5 2.5 8.5-3 .4-1 1-1.8 1.6-2.7l.7.4-1.5 5.2.8.3 3.3-9.3zm9.2 135.5l.1 1c-2.1.6-4.3 1.2-6.5 1.6-8 1.1-17.2-3.7-19.7-12.2a41.5 41.5 0 01-.8-17.6c-4.7-2.4-4.7-2.4-9.3-.4l-5.9 2.9c-5 2.2-12.2.2-12.2-7v-4.8c-.3-2.2-3.6-6-5.7-5.8-1.4.2-2.8 2-4 3.4-1.6 1.6-2.7 4-4.6 5.2-3.6 2.3-5.8 5.7-8.2 9-1.8 2.3-3.4 4.8-5 7l15.7 4.4c-.6-2.7-1-5-1.7-7.3-2-5.8-.5-10.6 4.5-13.5-3 3-5 6.4-3.7 11a44 44 0 011.7 8.5c.4 4.6 1.7 8.8 6.1 10.7 3.7 1.6 7.6 2.9 11.5 3.7 6.5 1.4 13.1 2.5 19.7 3.6l12.3 1.7c-2.6-1.7-5.4-2.7-7.8-4.3-2.3-1.7-4-4-6-6.1l.7-.7c.4.3.9.5 1.2.9a24.1 24.1 0 0026.6 7.6c4.5-1.8 8.8-4 13.3-5.8 2.7-1.1 5.5-1.9 8.2-2.8-.7-.7-1.5-1-2.2-.9l-15.3 2c-5.5.7-11 1.5-16.5 2-2 .1-4.1-.5-6.2-.8 5.7 6.3 12.7 5.1 19.7 3.8zM132.5 22.5l-32 6.4a43.5 43.5 0 00-20.6 9.6 45 45 0 00-14.5 33.3c4.8 2 5.5 2.2 6 4.9.2 1.4-.8 3-1.2 4.6l-2.6-2c-.8-.9-1.4-1.9-2-2.8l-.4.3 3 12 21.3-29.3c1.2-1.5 2.8-2.6 4.3-4 1.8-1.6 3.4-4.2 5.5-4.8 3.4-1 5.3-3.6 7.8-5.5 4.5-3.4 9-6.8 13.7-9.9 2.3-1.5 5-2.5 7.5-4 .8-.4 1.5-1.3 1.9-2.2.8-1.8 1.3-3.7 2.3-6.6zm187.6 249.4c-1.8.2-3.4.8-4.6.4-5.2-1.7-10.3-3.7-15.3-5.6-2.2-.9-4.3-2.8-6.5-3-4.3-.2-8-1.7-11.5-4-7-4.7-14.6-7.5-22.8-9.2-1.4-.3-3-.3-5-.4 8 6.5 16.6 10.2 25.2 14.2 6.5 3 13.1 5.8 20 8.1 14.7 5 29.1 11.4 44.5 14.4 8.6 1.6 17.2 3 25.9 4.2 6.6 1 13.3 1.6 20 2 9.7.5 19.4 1 29.2 1 7.4-.2 14.1-3.4 20.2-7.6 3.3-2.3 6.3-5.2 9.4-8 1.8-1.6 1.8-3.5 0-5.7-.7 1.1-1.6 2-2 3.1a7.3 7.3 0 01-7 5.3c-10.8.2-21.7.1-32.6.2-4.5 0-9.1 0-13.7.3-2.1.2-4.1 1.5-6.2 2.2-1.2.4-2.5.5-3.5 1.1-3.2 2.1-6.4 3.6-10.2 2.8-1.3.8-2.7 1.7-4.2 1.7s-3-.7-4.5-1.3c-4-1.6-7.7-4.3-12.6-2.4-1.6.6-4-.1-6-.9-6.5-2.4-12.9-5.4-19.5-7.8-3-1-5.4-2.5-6.7-5.1zm-314.8-53L19 213c0 .3.2.5.3.8l-7.2 3.3c-2 1-4.3 1.6-6 3-5.6 4.6-5.1 12.5 1 17.8 1.3-1.4 2.4-3 3.9-4.1 3.2-2.4 5.3-5.3 6.5-9.2 1.7-5.3 2.6-5.6 8.2-5.6l7.9-.3c-2.4 1.4-5 2.2-7.5 3-.5.2-1.5.8-1.4.9.2.8.5 1.6 1.1 2.2.7.6 1.6.9 2.4 1.3l-.4.8c-.6-.2-1.3-.5-2-.5-1.7 0-3.9-.4-5 .4-3.8 3-7.3 6.4-10.6 10-1.2 1.3-2.1 3.8-1.6 5.2 1.3 3.7 3.5 7 5.4 10.5 2-1.7 3.8-3.7 6-4.8 1.8-1 4.3-1.9 6-1.3 2.5.8 4.3.4 6.2-1l-13-2.2 1.2-2.2c.6-.7 1.3-1.2 2.4-2.2l-6.3-2.2a41 41 0 0125-6.3l-2.5-12.7-1.7.2c-1-2.8-2.2-5-2.5-7.4-.2-2.3.5-4.9.8-7.8l-14 8.2v-.3l11.7-8.6c-3.2-4.2 3-7.2 1.2-11.7-2 .6-4 1-5.9 1.7-4.6 1.8-9.4 3.4-12.3 8-2.4 3.7-4.6 7.5-9.6 8.3-.4 0-1 .7-1 1l-.3 9.7zm308.5 138l.1-.2c-2.6-.9-5.3-1.9-8-2.7-2-.7-4.2-1.5-6.3-1.5-4.2-.1-8.4.3-12.6.4-2.2.1-4.5.3-6.7 0-3.2-.4-6.4-1.3-9.3-2l-1.3 3.8c2.2 1.3 4.5 2 5.8 3.7 3 3.8 6.7 6.2 10.8 8.7a11.5 11.5 0 0015.3-2.7c2.9-3.8 7.2-4.2 10.4-1.1-4.6-2.2-7.7.2-10.4 3.4l-.8.8c-3.6 3-7.5 4-12.1 2.5-5.7-1.9-10.2-5-13.7-10-1.5-2-3.8-3.6-6.3-2.7-2.2.8-4 2.8-5.9 4.3v1.1c-.1 3.4 4.7 8.6 8.4 9l9.7 1.7-.2 1-4-.4-.1 2.8c-.2 4.8 3.3 6.8 7 6a29.2 29.2 0 0018.7-12c2.2-3.4 4.7-6.3 9.3-5.4l5 1c-.7-1-1.2-1.5-2-2.4 2.6.7 4 2 4.3 4.2.2 2 .3 4.1.6 6.1.5 3.8 3 4.8 6.2 2.9 6.3-3.9 10.1-3.8 15.8-.2 1.9 1.2 3 3 2 5.6-.5 1.5-.3 3.3-.4 4.4l9.2 1c2.5.3 5 .7 7.5.8 1 0 2.7-.7 3-1.5.5-1 .3-2.7-.4-3.6a21 21 0 00-5.2-5.4c-3-1.8-5.6-4-10-3.2-3.4.7-7.7-.1-11-1.6-4.5-2.1-8.6-5.3-12.7-8.3-3.8-2.8-7.3-6.2-12.2-7-5.6-.7-11.1-2.4-16.8-.6-3.3 1.1-4.4 3.1-3.4 6.5.3.8.2 1.7.3 3-3.8-3.6-9.2-3.9-11-8.9l3 1.4c.5-.6.7-1.2 1-1.3 2.2-.4 4.5-.7 6.7-1.2 3.1-.7 6.3-2.3 9.4-2.2 4.4 0 8.9 1.3 13.3 2zm84.2 26.7c7.9 4 8.4 6.8 2.6 14.2.2-1.2.5-2.4 1-3.6 2.4-4.7.2-6.8-4.5-7.2l-9-1.2c-1 0-2 .2-3 .4 1.4 1 2.9 1.4 4.2 2 4 2.1 5.3 6.4 2.3 7.8-.1-5-3.9-6.6-7.8-7.6-4-1-8.3-1.5-12.3-2.5-2.6-.7-4.3-.6-5 2.3-.2.6-.9 1.2-1.4 1.6-3 2.4-6.1 1.9-9.4 1l-10.5-2.1c-1.3-.2-2.7.1-2.4 2.2.4 2.6.4 5.4 1.3 8 1.4 4.6 1.8 4.7 6.7 4.8l1.4.1c6.1.8 12 .3 18-1.2 4.8-1.2 9.7-1.7 14.6-1.9 3.2-.1 6.3.5 7.7-3.8.4.9.8 1.6.6 1.9-1.5 2 .1 2.5 1.5 2.7 3.6.5 7 1 10.6 1.3 1.3.1 2.6-.5 3.8-1.1 3.2-1.7 6.2-3.8 9.4-5.3 2.6-1.3 5.4-2 8-3-1.2-1.1-2.3-1.7-2.6-2.6-1.1-3-4.3-2.8-6.4-4.4 0 0-1.4.8-1.6 1.4-1 4-4 6-7.6 7.6.4-.9 1-1.4 1.6-2.1 3.1-3.7 2.5-5.9-2-7.4a16 16 0 01-5.1-2.5c-1.7-1.4-3-1.2-4.7.2zm19.6-24.2v.8c-1.7 0-3.3.3-4.9 0-10.8-1.6-21.6-3.2-32.3-5.3-2.7-.5-3.3.6-4 2.6l1.6.2c4 .1 8-.3 11.8.4 7 1.4 13.7 3.5 20.6 5.3 7.6 2 15.4 3.7 23.3 3.2 6-.3 12.2-.7 15.3-7.4.1-.3.3-.8.6-1 4.6-2 9-4.6 13.8-6.1 4.3-1.4 9-1.5 13.1-2 .1-2.9 0-5 .3-7 .5-2.8 0-5-3-6-1.1-.4-2.3-1.3-2.8-2.3-1-2-2.4-1.8-3.8-1.1-2.6 1.2-5 2.7-7.5 4-1.7.9-3.4 1.6-5 2.3l-.4-.8 1.6-1.8-.6-.6-19.3 16 7.4 2.5v.8c-.7 0-1.3.3-1.9.2-7.3-1-14.5-3.3-22-1.6h-.2l-10.5.1-.1.7 4.3 1.5-.2.6-13.5-1.8-.1.8 18.4 2.8zM219 233.6l.2-1c-2.3-.5-4.8-1-7-1.7-9.6-3-19.1-6-28.6-9.3-8-2.8-16-5.7-23.8-9-8.5-3.4-16.7-7.4-25.1-11-9.7-4.2-18.7-9.5-27-15.7-8.5-6.3-15.3-13.6-14-25.4 0-1-.7-2.8-1.6-3.3-4.3-2.1-8.6-4.8-13.8-3.6-3 .7-4 1.7-3.7 4.9.6 6.2 4.6 10.4 8.8 14.3a191.7 191.7 0 0062.7 38.8c8.5 3.3 17.3 5.8 26 8.7l5 1.6a7513.4 7513.4 0 0041.9 11.7zm230.8 30.7l-1-.3c-4.6 4-10.3 4.3-16 4.2-10.6-.2-21.2-1.2-31.4-4.2a558 558 0 01-25.8-8.4c-7.8-2.7-15.4-6-23.1-8.6-4.1-1.4-5.8-.1-6.2 4.1-.1 1 .7 2.6 1.5 2.9 7.6 3 15.3 5.9 23 8.6 6 2 12 4 18 5.7 3.8 1 7.7 1.5 11.6 2.2 3.6.7 7.3 1 10.7 2.1 8.7 3 17.6 4.5 26.7 4.1 3.5 0 7.2-1.1 9-4.4 1.5-2.4 2-5.3 3-8zm-411.2-10l-2.2-3.3c-.7-1.5-5.1-2-5.6-.5l1.4 1c-1.6.7.6 5-3.5 3.4.4-1.2 1.5-2.8 1.1-3.7-.4-1-2.2-1.4-4-2.4.2 2.4 0 4.1.6 5.5 1.6 4.4 2.9 8.7 2.6 13.5 0 1.5.6 3.1 1.2 4.6l5 10.7 3 6c1.7 3.5 4.4 6.7 4.9 10.2.4 3.5 2.7 5 4.4 8.1.4-1.7 1-2.8.7-3.6-1.3-3.6-.3-6.9 1-10.1 1-2.8 2.7-5.3 1-8.4-.5-1 0-2.4 0-3.6l1-5-2.5 1.1-.6-2.2 4-.6.7-4.8-2.6.9-.6-.5 2-2.9c-.8-1.7-2.3-3.6-2.3-5.4 0-3.2-1.9-4.8-4-7 .6 3.3.1 4-2.4 4 2.4-2.6-.4-2.8-2-3.9l3-1.3c-1.9-.5-3.6-3.2-5.3.2zM315 357l.2.6c2.5 1.8 5.1 3.5 7.4 5.5a29.9 29.9 0 0018.4 7.7c4.9.3 9.4 1.8 13.7 4.1 4.8 2.6 9.8 5 14.8 7 3.4 1.5 7 1.1 10.5-.4 2.4-1 3.8-3.5 2.8-6a54.3 54.3 0 00-5.5-10.8c-1.2-1.8-3.8-2.7-6-3.5-3.6-1.5-7.4-2.7-11.2-3.9-.5-.1-1.5 0-1.9.4-.3.4-.5 1.5-.2 1.8.9 1.2 2 2.4 3.2 3.1 2.6 1.7 5.5 3.1 8.2 4.8 1.7 1.1 3.1 2.7 4.9 3.6 1.3.7 2.9.7 4.3 1l.1.7-5.3.7c-1.6 2.4 2.8 4.2.8 6-3-3-5.5-6.2-8.6-8.5-3.4-2.4-7.5-3.9-11.2-6a25.3 25.3 0 00-15.4-3.5c-2.4.2-4.9.6-7.3 1l-.3-.7 4.5-2.7a5 5 0 00-3.3-.7c-1.6.2-3.4 1.4-4.6 1-1.8-.8-3.3-.6-5-.5-1.2 0-2.4-.6-3.7-1l-4.3-.8zm-134 4.4c1-.6 1.8-1.3 2.8-1.6 4-1 6.8-3.4 9.2-6.7.7-1 2.5-1.7 3.8-1.8 2.9-.3 5-1.5 5-4.3 0-3 1.8-3.5 3.8-4.4 3-1.4 6.7-1.8 7.5-6l.2-.6-2.7-1.6a20 20 0 00-15.8-1.8c-2.8 1-5.1 2.2-4.8 5.8.1 1-.1 2.2-.2 3.4h-.8c0-3 .2-6 .3-8.8l-1.1-.6-1.3 2c-.5-1.3-.5-1.8-.5-2.3l.7-4.5-3.4-2c-3-1.6-7 0-7.1 3.1-.1 2.8.1 5.7.6 8.4.6 3.4 1.9 6.7 2.4 10.1.7 4.7 1 9.4 1.4 14.2zm223.9 2.8l-26.4-3.3c1 2.6 1.9 4.8 4.8 4.1 1.6-.4 3.3-.4 5-.9 2.4-.7 3.3-.6 4.4 1l-2.6.8c-2 .6-5.3 4.5-5.2 6.2.3 3.7.9 7.5-2.6 10.5l.5.6 16.6-1 .2-1c-1.3-1.5-2.8-2.8-3.8-4.5-.9-1.5-1.2-3.3-1.7-5l.8-.2.5.6c3.4 8 9.9 11.4 18 12.4 3 .4 6.3.3 9.4 1 2 .5 3.8 2 5.6 3l.6-.5c-1.4-1.1-2.6-2.6-4-3.2-2.8-1-5.7-1.6-8.6-2.2-3.3-.7-7.2-.8-9.2-3.9-2.7-4-5-8.4-2.3-14.5zm43.4-26c4.4-.4 7-4.7 12-3 2 .6 5.2-2.2 7.9-3.5.2 0 .4-.5.4-.7.2-3.3 1.2-6.7.5-9.7-.9-3.5-.1-6 1.8-8.8-2.6-3.1-6.5-5.3-6.8-9.7-.4-4.6 2.7-7.7 5.3-11.1-2-2-3.8-4.3-6.2-5.7-1.3-.8-3.5-.3-5.2.1-.6.1-1.2 2-1 2.8.5 1.8 1.6 3.3 2.4 5 .8 1.8 1.8 3.6 2.4 5.6.6 1.8 1.2 3.8 1.2 5.7 0 3 2.5 6 .3 9-.5.8-1 2-.8 2.8.2 2.7-1.3 5-3.2 5.6-4.3 1.2-6.3 4.1-7.5 8-.2.6.2 1.4.3 2.4-1.6 1.1-4.4 1.8-3.8 5.2zM59 247.2c-2.4-4-4.6-7.6-7-11.2a5.1 5.1 0 00-2.4-2.1c-3-.9-6-1.5-9.1-2-7.6-1.6-14.1 1.2-21 4.8L59 250.3l-4.7-3 .3-.9 4.3.7zm320.3 161.5c8 1.2 16 2.6 24 3.7 1 .2 2.3-.4 3.4-1 1.5-.6 2.8-1.6 4.3-2.3 1.6-.8 3.5-1.3 5-2.3 2.3-1.7 4.3-4 6.5-5.7 3.4-2.6 6.8-5 6.7-9-1.6 1.2-3.5 2.8-5.6 4-1.1.7-2.6.9-4 1.3a22 22 0 00-11 7.7l2.7.6.2.7h-.8c-3.7-.6-7.5-.6-11-1.6-7.9-2.2-14.3.9-20.4 3.9zm-227.4-50.1c0-.3.2-.5.3-.7-4.8-5.2-9.8-10.4-14.4-15.8a55.9 55.9 0 01-14.6-29.8c-.3-2.7-3-5.4-6-5.9 1.3 2 2.5 3.7 3.3 5.6 1 2.1 1.8 4.4 2.3 6.7.3 1.5-.2 3.2-.3 4.8-.3 5.9-.5 11.9 4.3 16.3 4.9 4.3 10 8.5 15.1 12.5 3.1 2.4 6.6 4.2 10 6.3zm273.8 20.8c0-3 .3-5.8.1-8.5 0-.6-1.5-1.5-2.4-1.6-2.5-.2-5-.2-7.6 0-2.1 0-4.2.4-7.1.8l10.9 7.5-12.5-3.8c0 .4-.2.7-.3 1 3.8 7.3 11.5 5.6 17.4 7.8l.4-.6-4-3.8.4-.8 4.7 2zm-213.9-35.7c-.9-.3-1.3-.6-1.8-.6-5.4-.2-6.6 4.4-8.8 7.8-.4.6-1.3 1.3-1.8 1.2-3.5-.5-5.6 1.2-7.6 3.7-1 1.4-2.6 2.6-4.1 3.3-2.9 1.1-5.6 2.2-6.5 6 .8-.1 1.5 0 2.2-.2a52 52 0 0018.2-9c1.4-1 3-3 2.9-4.5-.5-4.3 3.2-4.7 5.3-6.5l2-1.2zm-95-175.6c10.3 10.5 23.3 16.9 36.1 23.5 13 6.7 27 10.6 41.2 14.2-27.4-9.4-54.3-19.5-77.3-37.8zm200.9 199.3l-5-.2c2.9 2.5 4 4.3 3.1 7.6-1.5 6.5 4.4 10.2 10.3 7.7l12.4-5.5c-4.5-2.2-5.2-2-9 1.6-2.3 2.3-4.9 2.6-7.8 1.5-2.4-1-3.9-3.6-3.9-6.6l-.1-6.1zM33 186.6c-2.4-2.8-4.6 0-7-.7l3.8-2.6c-4.7-.5-5-.5-11.8 5.3-2.7 2.4.4 6.3-1.7 9.3 4.5-5.4 9.1-10.4 16.7-11.3zm372.2 69l-.4 1.3c5 1.3 10 3 15 3.9 3.7.5 7.5 0 11.3-.3.5 0 1.2-.7 1.6-1.2.2-.2-.2-1.2-.4-1.2-1.3 0-3.4-.6-4 .1-1.9 2.6-4.5 2.3-6.8 1.8-4.4-1-8.6-2.5-12.9-3.8l-3.4-.7zm3.7 8.3l-33-11.4-.2 1c10.8 3.6 21.3 8 33.2 10.4zm-270-83l.4-.6c-4.5-4.2-8.8-8.7-15.7-9.2L139 181zm4.6-7.2l.5 1.5c.7 1.4 1.2 2.8 2 4.1.4.6 1.5 1.3 1.9 1.1.6-.2 1.2-1.2 1.3-1.9.3-2.4-2.3-4.7-5.7-4.8zM441.2 258l-.7.4c-.4 4-2.8 5.9-6.5 6.7 2.1 0 4.3-.2 6.1-1 1.3-.4 3-1.5 3.2-2.6.2-1-1.3-2.3-2-3.5zm-29.3 3c0-.3.2-.5.3-.8-6.5-1.1-11.6-6.4-18.7-5.6l18.4 6.4zM146.7 184l-.6 1 19.8 9 .5-1-19.7-9zm282.6 78.7c4.4 1.7 9-.3 9.3-4.1l-3.7-.4c0 4.2-3.5 3.4-5.6 4.5zM49.6 232.1c.9-3-1.6-3.3-3.1-3.9-.7-.2-2 1.2-3 1.8l.3.9 5.8 1.2zm95.4-49.7l.4-.6a20.6 20.6 0 00-9-7.1l-.5.7 9 7zm303.2 78.9l-3.1-1.8-2 6.4 5.1-4.6zm-58-5.8l7.4 2.6.3-.7-7.7-1.8zM425 259l.2-1.3-8.8-.7-.1.6 8.7 1.4z"/><path d="M422.4 162.7l-3.8.4c-.8.1-1.7.2-2.2.6-1.2 1.2-2.6 2-4 .9-1-.8-2-2.2-2.3-3.5-.7-2.5-.9-5.1-1.5-8.5 2 .7 3.8 1 5.3 1.9 2.7 1.7 4 1.3 4.4-1.8.5-3 2.8-4.9 6.8-5.4.2 3.5-.1 6.7-3 9.5l3.5 1v-.8c1.8-.3 3.9-1.2 5.4-.6 1.6.6 3.3 2.5 2.3 4.8-.4 1-1.6 2.4-2 2.3-2.7-.8-5.1 3.9-7.9.4l-1-1.2zM366.2 189.9c2.8-4.8 3-5 8.8-6.7-.4-1.4-1.1-3-1-4.3 0-1.3.7-3.3 1.6-3.7 1.3-.6 3.2-.3 4.6.2 3.6 1.5 3.8 5 4 8.1.2 2.8-1.3 3.7-4 2.7-2-.8-3.5-1.9-4.9 1.3-.9 2.1-3.9 3.4-6.1 4.7-.8.4-2-.2-3.2-.3-1.3.9-3 2.1-4.7 3-.4.3-1.4-.1-2-.6-2.2-1.9-3-7-1.4-9.6 1.1-1.8 2.8-1.9 4.8.3 1.4 1.5 2.4 3.3 3.5 4.9zM448.6 228l-3.2 5c-.4.6-1 1.4-.8 1.9 1.1 2.7-.4 5-1.3 7.3-.6 1.7-2 3-4.2 2.2-2.3-.9-2.1-2.6-1.4-4.2.9-2 2-3.7 3.2-5.7-3-3.7-.3-8.9 5.9-10.7-1.1-2.6-2-5.3 0-7.8.5-.7 1.9-1.3 2.7-1.2 4.5.9 6.9 7.8 3.8 11-1 1-2.6 1.3-4.7 2.3zM306.7 98.1c2.6 1.2 5 2 7.1 3.2 1.8 1 3.1 2.2 2.2 4.5-1 2.4-3.2 2.4-4.8 2-3.5-.6-7.4-1.4-8.2-6-.1-.5-.8-.9-1.3-1.2-1.6-1.3-3.4-2.3-4.9-3.7-.6-.6-1-2.2-.7-2.7.6-.8 2.1-1.7 3-1.5 3.4.8 6.5 2.2 7.6 5.4zM391.5 162.2l8.3-2.9c-.2 2.6 0 5-.6 7-.3 1.1-2 2.7-3 2.7-1.7 0-4.1-.5-5-1.7-1.5-2-3.4-2.3-5.5-2.5-3.6-.3-6.1-3.9-5-7 .9-2.4 3.7-3.3 5.6-1.5 2 1.8 3.5 4 5.2 6zM312.9 23.7c-2 .4-3.7 1-5.4 1-1.2.2-2 .2-2.1 1.7-.2 1.8-1.4 2.6-3 2.2-2-.5-4.3-1-5.8-2.2-3.5-2.8-3.2-4.1.6-6.3 5.8-3.3 10.8-2.3 15.7 3.6zM194.1 84.2c-1 3-3.8 4-5.6 2.3-2-1.9-3.5-2-5.8-.6-.9.5-3 .2-3.8-.6-1.3-1-1.3-2.6-.3-4.3 2.7-4 10.6-6.4 14-1.1 1 1.4 1.2 3.4 1.5 4.3zM227.4 109.3l-.1-8c-.5-.2-1.8-.5-2.2-1.3-.9-1.8-.2-3.4 1.6-4.3 1-.7 2.2-1.1 3.3-1.7l3.8-2.2-1.3 8.3c2.5 1.8 3.5 6.2 1.6 9-1.7 2.4-3.4 2.4-6.8 0v.2zM168 99.6c-.5 2.8-2.1 5-4.8 5.6-1.5.4-4 0-4.8-1-1-1.3-1.1-3.8-.6-5.5 1.2-3.6 4.3-5.6 7.8-6.8 1.6-.5 3.1 1.3 3.2 3.9v2l-.7 1.8zM310.8 63c1.3.7 2.4 1.2 3.1 2 .7.7 1.4 2 1.2 2.8-.8 3.4-4.2 4-6.8 5.2-1.8.8-3.8 1-5.4-.7-1.6-1.7-1.6-3.6-1-5.7a4.9 4.9 0 014.5-3.8c1.5-.1 3.1.1 4.4.2zM471.5 220.9c3.2 3.2 3.9 7 2.5 10.4a7 7 0 00-.5 3.1c.2 3-1.1 5.2-3.2 7-.7.6-2.4.7-3.3.3-.6-.3-1.2-2-.9-2.8 1.4-3.6 2.4-7 2.2-11-.2-2.1 2-4.4 3.2-7zM355.9 153.8c.6-4 .8-7.5 1.8-11 .8-2.8 5.4-2.5 7.7.3 3.7 4.6 3.2 7-2.5 9.4-2 .8-4.2.8-7 1.3zM180.7 53.6c3.3 1.6 5.6 3.8 6.3 7 .3 1.1-.4 3.3-1.3 3.8a7 7 0 01-5 .5 9.4 9.4 0 01-6-9c0-.9 1.3-1.9 2.3-2.2 1.2-.3 2.7-.1 3.7-.1zM329.9 78c1.5.4 2.6.8 3.8.9l3.7-.3-.4-2.6c-.5-2.8 1-4.2 3.6-3 1.7.9 4.1 2.5 4.2 3.8 0 2.7-1 5.6-2 8.3-.1.3-2.3.5-3.1 0-3.3-1.8-6.4-3.8-9.6-5.8-.2-.1-.1-.5-.2-1.3zM406.7 232.8c3.3-.7 6.2-1.5 9.3-1.7 2.8-.3 5 1.9 5 4.7.2 2.5-1.9 4.5-4.8 4.8-4.5.3-8.1-2.4-9.5-7.8zM353.1 218.3c-1.5-1-2.8-1.8-3.9-2.8-2.2-2-2.4-4.3-.8-6.2 1.8-2.1 5-2.7 7-.9 1.8 1.5 3.5 3.2 4.4 5.2 1 2 1 4.4-2.5 4.3-1.5 0-3 .3-4.2.4zM458 172.3c.7.8 1.4 1.3 1.8 2 .5 1 .8 2.2 1.1 3.3-1.5.3-3.2 1.3-4.5.9-4.2-1.3-5.2-5.8-2.5-9.3.4-.6.3-1.7.3-2.6 0-1.8-1.2-4 1.5-4.9 2.4-.7 3.2 1.3 4 3 1.5 3 1 5.4-1.7 7.7zM382.6 192c2.7 1 6.5 6.5 6.3 9.2 0 .7-.5 1.6-1 1.8-4.1 2-11-2.4-11.3-7-.4-4 1.7-5.4 6-4zM373.7 230.2c-1.7 1.7-3.4 2.4-5.5 1.6-2.6-1-5.1-2-7.5-3.3-2.3-1.2-2-3.3-1-5.2 1-1.6 2.5-2.5 4.6-1.8 3.7 1.3 7.4 2.5 8 7.3.1.5.9.8 1.4 1.4zM296.6 216.6c-2.5-1-4.4-5.7-3.3-8.4 1-2.6 3.4-3.5 6.4-2.5 2.5 1 5 5.6 4.2 8-.7 2.2-4.8 3.8-7.3 2.9zM443.2 156.6c1 2.9.7 5-1.8 5.7-.9.2-2.6-.2-3-1-1.2-1.7-2-3.8-2.7-5.9-.5-1.7 0-3 2.5-2.5l-.7-6c3.4 1.3 7 1.2 7.8 5 .2 1.2-1.1 2.7-2 4.7zM316 188.7c-3.2-1-4.4-3.2-3.5-6 .7-2.3 3.7-3.5 6.4-2.5 1.6.7 3.3 1.5 4.7 2.5 2.1 1.3 2 4-.4 5.2-2.2 1.2-4.6 2-7.2.8zM191.5 158c-.5-3.7-1.2-7-1.4-10.5 0-.8 1.6-2.3 2.7-2.5 1.5-.3 3.5-2.2 4.8 1 2.2 5.4.6 9.6-6.1 12zM341 126.6c.6-1 1-2 1.7-2.7.9-1 2-1.8 3-2.8.8 1.2 2.1 2.2 2.6 3.6.6 1.8.9 3.8 1 5.7.1 2.4-1.5 4-3.9 4.2-2.2.1-4.5-1.7-4.6-3.8-.1-1.4 0-2.8.1-4.2zM291.9 114.6c3.5-1 9 1.1 10.8 4.1 1 1.7 1.8 3.3-.2 5-2 1.8-4 1.8-6 .3-3-2.2-4.6-5.3-4.6-9.4zM424.7 230.2c.5-3.4 3.5-4 5.6-1.2 1.2 1.7 2 3.6 2.7 5.5 1 2.8-.9 4.2-3.2 5-2.4 1-4.1-.3-4.8-2.6-.6-2-.7-4.4-1-6.6l.7-.1zM135 139.4c1 5.4-1 9-5.5 9.6a6 6 0 01-4.4-1.5c-1.6-1.5-.5-3.4.6-4.9 2.4-2.9 5.6-3.5 9.4-3.2zM332.8 220c-2.3-.7-3.7-3.2-3-5.2 1-2.6 5.3-4 8.6-2.9 2.5.9 3.4 3 2.5 5.6-.8 2.4-4.9 3.7-8 2.6zM340 189.3c-5.2.9-8-.6-9.7-4.8-.9-2.1-.7-4.3 1.1-5.6 2-1.3 3.7 0 5.3 1.6 2.7 2.4 3 5.4 3.2 8.8zM248.7 161.3l5 4.2c2 1.8 1.7 3.4-.3 5-2.7 2.2-4.2 2.5-6 0-1.6-2.3-2.6-5-3.5-7.6-.2-.3 1.4-1.5 2.3-1.8.6-.3 1.4.4 2.1.6l.4-.4zM321.4 138c3 0 6-.4 9 0 1.4.1 3.4 1.3 3.8 2.5.5 1.2-.2 3.2-1 4.5-1 1.4-2.6 1.6-4.3.9-3.6-1.5-5.6-4.4-8-7l.5-.8zM354.8 196.6c1.1 1.3 3.2 2.7 3.7 4.6.6 2.2-2.3 4.4-4.9 4.5-2.2.2-5.1-2.7-5.8-5.7-.2-.7-.5-1.5-.4-2.1.1-.7.7-1.8 1-1.8 2 0 3.8.3 6.4.5zM347.1 167.3c3.3 2.8 5.8 5.4 6.7 9.3.8 3.7-2.2 3.2-3.9 3.8-1.7.7-3.8.4-4.3-2-.8-3.7-.1-7.3 1.5-11zM425 142.4c1-.4 1.6-.6 2.1-1 .8-.7 1.6-1.3 2.1-2.1 1.2-1.9 5.3-2.6 7.5-1.2.6.4 1.2.7 1.6 1.2l1.6 3.1-3.2 1.5c-.6.3-1.6 0-2 .5-2.8 2.5-3.3 2.5-6.2.4l-3.4-2.4zM137.8 93.5c4.3 1.4 7.3 3.5 9.3 7 1.2 2.2.5 3.5-1.9 3.9-3 .3-5.6-.3-7.5-2.8-1.7-2.1-1.3-4.4 0-6.7v-1.4zM359.5 207.2c0-1.4-.4-3 .1-4 1.6-3 4.5-4.5 7.8-4.7 3.2-.2 3.2 3 3.4 4.7.1 1.1-1.8 3.2-3.1 3.6-2.3.7-5 .3-8.2.4zM367.6 92.8c-1.8-1-3.3-1.6-4.5-2.6-2-1.7-1.8-3 .7-3.5 3-.6 6-.8 9-.5 1.1.1 2.8 2.3 2.7 3.3-.2 1.3-1.7 3-3 3.4-1.5.6-3.4 0-5 0zM466.6 214.8c-3.5 0-5-2.6-5.6-5.4-.8-3.3.7-6.1 3.4-8.2 5 3.3 5.6 7.6 2.2 13.6zM187.2 92.6c.8-2.4 3.1-3.9 5.1-3.2 2.4.8 5.3 6.1 4.5 8.2-.8 1.9-3.4 2.9-5.5 2.1-2.9-1-5-4.6-4.1-7zM197 57.7c2.2-2.4 4-4.9 6.3-7 1-.9 2.6-1 4-1.6l.7 4.1c0 .4-.3.8-.3 1.1.2 1 1 2.5.6 2.8a8.4 8.4 0 01-4 2c-2.4.5-5 1.6-7.2-1.4zM390.1 122.2a9.1 9.1 0 01-6.3-6.9c-.5-2 .8-3.3 2.6-2.6 2 .7 3.6 2 5.3 3 .8.6 1.3 1.5 2.1 1.9 1.6.7 2.9 1.8 1.8 3.3-.7 1-2.5 1.3-3.9 1.8-.4.1-1-.3-1.6-.5zM396.9 202.7c2.8 5.4 1 10-3.4 11.2-1.9.6-4 .7-4.6-1.2-.5-1.4 0-3.8 1-4.8 1.9-2 4.5-3.4 7-5.2zM208.9 128c1.6 6 .6 9.1-3.6 11-1 .5-2.7.6-3.4 0-.8-.5-1.2-2-1.1-3.2.3-4.4 3.2-7.2 8-7.9zM372.3 124c-3.5-1.5-4-2.4-3-5.2 1.2-3 4.2-4.1 7.6-2.8 2 .8 3 3.7 2 6-1 2.4-3.5 3.2-6.6 2zM180.3 103.2c-2.9-1-4.8-4.8-4-7.5.8-2.2 4-3.9 5.7-3.2 2.1.9 3.6 5.8 2.6 8.6a3.3 3.3 0 01-4.3 2.1zM202.5 128.3c-.7 3-3 4.5-5.8 5.4-1 .3-2.5-.1-3.3-.8-.6-.4-.6-1.9-.4-2.8.8-4 3.7-5.7 7.4-6.4 2.3-.4 3.2 1.4 2 4.6zM134 91.2c.4 2.9.8 5.5.9 8 0 2.4-1.8 4.4-3.8 4.4-2.4 0-4-1.6-4.1-4.2-.2-3.3 2.6-6.7 7-8.2zM154.1 153c-.8-3-1.3-6.1.1-9.2.9-2 4.7-3.2 6.4-2.3 1.5.8 2 3.8.6 5.7-1.7 2.4-4 4.3-6 6.5l-1-.7zM267.4 107.5a5.2 5.2 0 01-6.5 3.2c-1.2-.3-2.3-2.2-2.6-3.6-.3-2.5 5.7-7 7.8-5.8 1.1.7 1.4 3 1.8 4.6.2.4-.3 1-.5 1.6zM459.6 230.1c-1-1-1.7-1.7-2.1-2.5-1.1-1.9-.4-7.4 1-9 1.4-1.6 3-1.4 4 .3 1.6 2.6 2.5 8 .2 9.8-.9.6-2 1-3 1.4zM309.1 146.3c-3.2-1.2-3.6-2.3-.9-4.3 1.8-1.4 4.1-2 6.3-2.8 2-.7 3.3.8 3.6 2.3.2 1.2-.5 3.5-1.5 4-2.2 1-4.9 1.1-7.3 1.6l-.2-.8zM305.4 179.7a8.2 8.2 0 01-5.2-7.1c0-1.3 1-3.2 2-3.8 1.3-.8 3.5-1 4.7-.4.8.5 1.1 2.8.9 4.2-.4 2.3-1.5 4.5-2.4 7.1zM200.4 19.7c2.3 1.3 4.6 2.5 6.8 3.9.4.3.8 1.6.6 2-1.5 2.4-4 2.8-6.4 2.2-2.2-.5-4.7-.7-5-4-.2-3.2 2.5-3 4-4.2.1 0 0 .1 0 .1zM355.2 96c-2.3-1-4.3-1.8-6.2-2.8-1.3-.7-1.2-2.6.1-3.6 2.6-1.8 9-.7 10.7 2.7.4.9.6 2.5.1 3-.8.7-2.2 1-3.4 1.2-.5 0-1-.3-1.3-.4zM431.5 110.2l-2.7 1.8a5 5 0 00-1.2 1.3c-1.2 2-3.4 2.6-5 1.3-1.9-1.4-.5-3.1.3-4.2 1-1.3 2.3-2 2-4 0-.5 2.7-1.7 4-1.6 1.8.2 2.9 1.8 2.7 3.9 0 .3-.2.7-.4 1l.3.5z"/><path d="M227.3 109.2c.4 3.6-.3 4.6-4.1 5-3 .3-6.1 0-9.2.1 1-5 8.4-7.8 13.4-5v-.1zM401.5 171.3c3.4 1.8 4.9 4.6 4 7.4-.9 2.2-3.3 3.6-5.2 3-2.5-.9-3.3-5.3-2.2-8.9.3-.8 2.2-1 3.4-1.5zM373.2 83c-.3 1.7-1.5 2.2-3 1.3a30 30 0 01-4.7-3.1c-1.7-1.5-2-3.4-.5-5 1.4-1.6 3.2-2.1 5.2-.6 2.7 2 3.9 4.7 3 7.3zM90.6 103.9c2 2.5 2.6 8.4 1.2 10.8-1 1.7-2.6 2.5-4.3 1.6-1-.5-2-2-2-3.2-.3-2.7 2.6-7.3 5-9.2zM113.5 82.7c2.3 2.3 3.2 7 2 9.3-1.1 2.1-4.1 2.9-6.2 1.6-1.9-1-2.1-3.2-.5-5.3 1.4-2 3-3.7 4.7-5.6zM301 44c-1 .4-2.7 1.9-4.3 1.7-2.1 0-3.5-4.8-2.6-7.3.7-1.8 3.6-2.9 5.6-2.2 2 .8 2.8 3.8 1.4 7.8zM131.1 79.6c-1.6-.3-1.6-1.8-.7-3.6 1.4-2.7 6.4-4.1 9-2.6 1.9 1 2.1 3.1.4 4.6-2.2 2-4.9 2.6-8.7 1.6zM103.2 97.3c-3.6.3-6.7-.2-8.2-3.6-.7-1.6 0-3.1 1.5-4 1.9-1.2 3.8-1.3 5.6 0 1.8 1.3 2.3 4.5 1.1 7.6zM308.3 118.5c-.4-1-1-1.8-1-2.5.4-3.2 7.1-6 9.5-3.9 1 .8 1.8 2.3 1.7 3.4 0 .8-1.7 1.9-2.7 2.1-2.4.6-4.8.6-7.5 1zM279 58.8l1.4.5c1.7.7 2.1 2.1.4 2.7a51 51 0 01-10.4 2.6c-1.5.2-2.1-2-1-3.5 1.7-2.3 6.6-3.6 9.6-2.3zM306.8 177.4c2.3-2 4.5-4 6.8-5.7 1.6-1.2 3.4-1.7 4.6.5 1.1 2.1.1 5.6-2 6-3 .5-6.1.3-9.2.4l-.2-1.2zM469.3 132.4c-1.7 1-3.2 2.6-4.7.2-1.3-2.1-.8-6.2.9-7 .5-.2 1.7 0 1.9.3.8 2.3 3 2.4 4.7 3.2.8.4 2 1 2.1 1.7.4 1 0 2.3 0 3.4-1 0-2 0-2.9-.3-.7-.2-1.3-1-2-1.5zM327.5 114c3.4-2.3 6.3-3.4 9.6-2.2 2.9 1.2 3.8 3.7 2 6.1-.5.6-1.9 1-2.5.8-3-1.4-5.8-3-9.1-4.6zM332.8 54.2c-2-1.7-4-3.3-5.7-5.2-1.5-1.7-.6-3.6 1.5-4 3.6-.7 8.4 4.1 7.7 7.7-.4 2-1.6 2.1-3.5 1.5zM144 66c-1 3-3.1 3.6-5 2.2-4.1-3-4.5-6-1-8.6.5-.4 1.9-.4 2.4 0 2.1 2 4.3 3.8 3.6 6.4zM110.3 65.6c.9 3.9-.1 7-3 9.3-1 .8-3.3 1-4.3.5-1.4-.9-1.5-2.5-.2-4.4 1.9-2.8 4.1-4.5 7.5-5.4zM474.6 165.2c-1.3-2.5-2.9-4.8-3.9-7.4-.7-2 1-4.2 3.6-4.3 1.9-.2 3.3 1.1 3.2 3-.2 2.8-.8 5.6-1.3 8.4l-1.6.3zM369.1 115c-3.2-1.3-5.3-4.7-4.4-7.2.7-2 2-2.6 4-2 2.6 1 4.5 5.4 3.6 7.8-.7 1.9-1.8 2-3.2 1.3zM245.6 82.2c-1.8-.7-2.8-3-2-5.2.7-1.9 4-3.6 5.6-3 1.9.7 3.2 3.5 2.5 5.3-.8 2.2-4 3.7-6 3zM188.8 40c-2.7 1.8-8.4 1.9-10.2-.2-.8-.8-1.3-2.8-.8-3.4.7-1 2.4-1.8 3.6-1.7 3.3.2 5.5 2 7.4 5.2zM134.6 66.7c-1.1 3.3-4 5-6.4 4.7-1.9-.3-2.9-2.8-1.7-4.7.6-1 1.6-2 2.6-2.7 1-.7 3.2-1.5 3.5-1.1 1.2 1.2 1.7 3 2 3.8zM152 58.5c-.5 2.1-2 3-4 2.5-2-.6-3.8-4.6-2.7-6.6.9-1.5 1.4-4.1 4.3-3 2 .8 3.3 4.7 2.5 7.1zM245.7 41.3c.7-2 2.8-2.7 4.4-1.4 2 1.4 3.8 6.6 3 9-.1.5-1.5 1.3-1.6 1.1-2.5-2-5.2-4-5.8-7.6v-1zM337 104.4c-.3-2-.7-4-.6-6 0-1.2.8-3 1.5-3.1 1.4-.2 3.2.3 4.4 1 .8.7 1.4 2.3 1.2 3.4-.3 2.6-1.8 3.5-6.5 4.7zM156 134.8c-.3-2.2-.8-3.5-.6-4.8a25 25 0 012-5.6c.6-1.6 1.7-1.6 2.5 0 .8 1.3 1.7 2.6 2 4 .1 1.5 0 3.4-1 4.5-.7 1-2.6 1-4.8 1.9zM389.2 80.2c.5.2 1.1.2 1.3.5l2.9 4.9c-1.3.7-2.6 2-4 2.1-2.5.2-4-1.6-4.5-4-.3-1.1-.1-2.9.6-3.6.7-.7 2.4-.3 3.7-.3v.4zM427.4 131.3c-.6 1.9-3.2 3.4-4.8 2.8-1.7-.6-3.6-4.4-2.3-5.7a9.3 9.3 0 015.3-2.6c1.6-.2 2.6 3 1.8 5.5zM453.8 227.8c2.9 2.1 4 5.7 2.6 8.4-.6 1-2 1.9-3.1 2-.8 0-2-1-2.4-2-1.4-2.4-.2-5.6 3-8.4zM179 118.6c-1.2 4.2-2.4 7.5-6.2 8.6-1 .3-2.6-.4-3.3-1.2-.5-.6-.4-2.6.2-3.2 2.4-2.2 5.4-3.5 9.3-4.2zM206.6 100c.1.4.2 1 .4 1 1.8.9 3.1 2 2.3 4.2-.8 1.9-5.2 4.4-6.8 4-2.2-.7-2.3-2.5-1.3-3.9 1.6-2 3.6-3.5 5.4-5.3zM445 207c-3.1-3-3.2-7.3-.2-9.5 1.3-1 3.2-1.8 4.2-.2.7 1 .7 3.3 0 4.5-.8 2-2.5 3.4-4 5.2zM264.2 78.4c-.8 2.2-3 3.2-5.3 2.4-2-.7-3.2-3.7-2.5-5.7.6-1.4 3.7-2.2 5.7-1.5 1.8.7 2.8 2.8 2 4.8zM291.4 23.6c-1.7 1-2.8 2.3-4 2.5-.8.1-1.8-1.3-2.7-2l-.4-.8c-.6-1.8-1.7-4 .4-5.1 1-.7 3.5-.7 4.3 0 1.2 1.2 1.5 3.3 2.4 5.4zM359.9 86c-.4.3-1.3 1.3-2.4 1.4-.7.1-1.8-.7-2.3-1.4-1.6-2.1-2.7-4.4-.5-6.7.6-.7 2.3-1 3.2-.7 1.9.8 3 4.7 2 7.4zM225.6 116.5c1-3 4.8-4.7 7.6-3 .8.4 1.4 2 1.2 3-.4 1.7-5.3 4-7 3.6-2.1-.4-2.6-1.3-1.8-3.6zM289.4 74.4c1.5-4 6.3-5.8 8.3-3.6.2.2.6.4.6.6-.1 1 0 2.4-.6 3.1-1.5 2-5.8 3.3-6.9 2.3-.7-.7-1-1.9-1.4-2.4zM379 109.7c0-3.3 1.6-4.2 3.9-4.3 3.3 0 6.6 1.4 6.8 3.4 0 .7-1.2 2.4-1.8 2.3-3-.2-6-1-8.8-1.4zM404.8 147.3c-.7 2-2.9 2.2-4 .2-1.2-2-1.9-4.3-2.4-6.6-.3-1.8 2-3 3.5-2.2 1.8 1 3.7 6.5 3 8.6zM112 55.9c2 2.2 3.6 3.6 4.7 5.4.5.7.4 2.8-.1 3-1.4.8-3.1 1.3-4.6 1-.9-.1-2.3-1.8-2.2-2.7.3-2 1.3-4 2.2-6.7zM137.7 45.8c1.3-6 2.2-7 6.4-6.7 1 .1 2.3.9 2.7 1.7.3.6-.5 2.4-1.3 2.7-2.5 1-5.2 1.6-7.8 2.3zM281 24.3c-1 4.3-1.6 4.7-5.5 3.3-2.3-.8-4.5-1.9-7-3 4.3-3.1 8.4-2 12.4-.3zM397.3 113.2c-1.7-.6-3-3.2-2.4-5 .5-1.5 3.4-2.9 5.2-2.3 1.3.4 2.6 3.6 2.1 5.1-.6 1.8-3 2.9-5 2.2zM460.4 136c-1.4 4-3.6 5-6.2 4.3-1.7-.6-2-1.5-1.4-3 1-2.3 5-5.1 6.3-4 1 .6 1.1 2.2 1.3 2.6zM450 183c-.8 2.6-3.6 4-5.2 3-1-.7-2-2.3-2-3.5 0-2 4.1-4.7 5.3-4 1.9 1.3 2.4 3.1 2 4.6zM417.4 179.2c-1.6-3.2-3.5-6.1-1.6-10.4 1.5.6 3.8 1 4.2 2 1.4 3.5.9 6.4-2.6 8.4zM258.1 20.2c1-2.2 1.7-4.4 3-6.4.8-1.4 2.4-2.5 4.2-.7 1.1 1.2 1.1 4-.6 5.2-1.6 1.2-3.6 2-5.4 2.9l-1.2-1zM471 172.8c2.3-1.2 4.4-.8 5.4 1.5a47 47 0 012.2 5.5c.2.4 0 1.4-.5 1.6-.3.2-1.1 0-1.6-.3a9.2 9.2 0 01-4.6-5.7l-1-2.6zM255 17.8c-.8 2.1-2.2 3-4.4 2.4-2.2-.7-3.5-2.9-2.5-4.6.9-1.6 2.1-3.1 4.5-2.4 2.1.7 3 2.5 2.3 4.6zM242.5 213.5c.3-3 1.8-4.5 4.2-5.5 1.4-.6 3-1 3.6.6.4 1.2.2 3-.5 4-2 2.3-4.6 2-7.3.9zM464.3 164.5c-1.5-.7-4-1.4-3.8-4.3 0-.6 1.3-1.8 1.6-1.6 2 .8 4.2 1.8 6 3.1.7.6.7 2 1 3.2l-3.2.1-1.6-.5zM473.7 143c-1.5.6-3 1.6-4.5 1.6-1.6 0-2.8-3-2-4.9.8-2 2.3-3 4.5-2.5 1.6.3 2.4 3 2 5.8zM464.6 115.5c1.6 2.5 2 4.9 1 7.4-1 1.8-2.4 2-4 .8-2.5-2-1.9-7.2 3-8.2zM191 11.7c1-2.4 4.7-4.2 6.7-3.7 2.1.6 2.6 2.4 1.1 4-1.2 1.4-5.6 2.4-7 1.5-.6-.3-.7-1.5-.8-1.8zM91.7 63.8c2-1.6 3.2-3.3 4.9-4 1-.4 2.2 3.3 1.3 5.4-.8 1.9-2.3 3.5-4.4 2.7-.8-.3-1-2.4-1.8-4zM340.5 53.6c-1.1-2.6.1-4.6 2-5.6 1.1-.6 3.1.1 4.4.8.5.2.4 2.4-.2 3.3-1.5 2.4-4 2-6.2 1.5zM270.8 15.7c-2.5-.8-2.6-2.3-2-4 .7-1.9 3.6-3.4 5-2.3 1 .6 1.6 2.5 1.5 3.7-.3 2-3 3.1-4.5 2.6zM377.9 59.7c-3.3-1.2-4.9-3.5-4.3-5.3.5-1.7 1.6-2.2 3.3-1.6 1.8.7 3.8 4 3 5.3-.5.9-1.7 1.3-2 1.6zM428.6 90.3c2.8.8 5.8 1.5 8.6 2.5.5.1 1 1.7.7 2.1-.3.6-1.5 1.3-2.1 1.2-3-.8-6-1.7-7.5-4.7 0-.4.1-.8.3-1.1zM445.4 137c-1.2.5-2.3 1.4-3.5 1.3-1.3 0-3.3-4.4-2.5-5.7.5-.7 1.9-1.2 2.8-1 2 .2 3.4 3 3.2 5.4zM467 171.3l3 6.7c-1.1.4-3 1.3-3.2 1.2-1.1-1.9-2-3.9-2.7-5.9 0-.2 1.4-1 2.9-2zM155.3 29.2c3.7-3 7.4-3.3 10.5-.7-3.5 2.6-8.8 3-10.5.7zM152.1 29.2c1 2.5 1.7 4 2 5.7 0 .4-2.5 1.7-3.4 1.4-2-.7-2.6-2.7-1.8-4.6.4-.9 1.6-1.3 3.2-2.5zM388.6 63.2c-2.4-.1-4.7-.1-7-.5-.8-.2-1.4-1.3-2-2 .8-.6 1.9-1.8 2.6-1.6 2.4.5 4.6 1.5 6.8 2.4l-.4 1.7zM249 6.6c-1.1 2.5-5.4 4.4-7 3-.6-.3-.7-2.1-.3-2.7 2.2-2.7 4.7-1.5 7.3-.3zM446.6 149.3c3 .2 5.3 1 6.7 3.2.4.8 0 2 0 3.1-1-.2-2.4 0-3-.6-1.3-1.5-2.2-3.4-3.7-5.7zM411.5 71.8c-2.3 1.5-4.4.7-6.4-.4-.5-.3-1-1.5-.8-2 .3-.6 1.3-1.5 1.9-1.4 2.6 0 4.6 1 5.3 3.8zM451.7 162.6c-2 .8-3.6 1.7-3.8 1.5-1-1.4-1.7-3-2-4.5-.1-.3 2.2-1.7 2.4-1.5 1.2 1 2 2.5 3.4 4.5zM206.5 263.8l2 3.7-4.6 2.3.4 1 5.4-1.7c-1.6 2.8-4 3.3-6.3 3.7l-3.8.6-8.2 1.3-.2-1.2c.7-.1 1.4-.4 2-.3 2.8.6 5-.4 7.1-2 2.2-1.7 2.3-2.8 0-4-2.3-1.1-5-1.7-7.4-2.6-2 7.4-2 7.4-4.6 6-1.6 4.2-5.2 3.7-8.5 3.3-2-.2-3 .5-4 2.1-.6 1-1.7 1.7-2.5 2.6l-.8-.5 3.8-6 5.6-.7c.5 0 1 .1 1.5.4 1.8 1.1 2.6.2 3-1.4.7-2.1 1.7-2.5 3.6-1.3.6-1.6 2-3.4-.7-5l4.7-.6.8-2c1.6 1.7 2.3 5 5.6 3.2 2.4 3.3 2.7 3.3 6.1-1zM392.2 330.3l-1.8-.7.1-7.1c1.4 2.9 2.6 5 3.3 7.1 1.3 3.9 4.6-.8 6.4 2.2l-6 .8h-3c-1.8 0-3.7-.2-5.2 1.5-.5.5-2.1.6-3 .2-3-1.4-6-.3-8.7.8-2.4 1.1-4.3 3.3-6.4 5-.4.4-1 .9-1.8 1 .3-.5.5-1.2 1-1.6 2.9-2.1 4.6-6 9-6.3l.4-2c2.4.3 5.7 1.9 7.8.9 2.6-1.3 5.6.5 7.9-1.8zM161.3 296.5c1-4.7 4.8-4.9 7-6.5.7-2.8 1.3-5.6-3.3-6.1 3.4-1.1 3.7-.8 6 4.6 2.2-1.6 4.1-1.1 6 1-2 0-3.6-.2-5.1-.3v.8l2.7 2.6-.2 1.1c-5.3-4-8.7 0-13.1 2.8zM352.4 336.7l-1.8 5.2c-1.8.6-4.3 1.3-6.6 2.3-6.2 2.8-14.4-1.2-14.5-9 2.4 4.2 4.8 8.5 10.3 8.5 5.3 0 9.1-3 12-7.3l.6.3zM216.2 311.6c-.1-1.5.3-3.2-.4-4-.6-.7-2.3-.4-3.6-.5 0-2.6-1-3.4-4-2.7l-6 1.2-.3-1.5c3.3-.3 7.1-1.8 9.5-.5 2.5 1.2 6.9 1.6 7 6.2 3.9-.7 5 2.3 6.3 5.5-.9-.2-2.1-.1-2.4-.6-2.1-4-2.3-4-6.1-3.1zM325.6 336c-8.1-2.6-7.5-1.5-9.5 2.6-.7-2.4-.7-2.4 3-6.2l-5.6.2v-1h2.6c2-.2 3.8-.3 4.6-2.9.3-1 2-1.6 3.2-2.5l.7.6c-.6 1.6-1.6 3.1-1.5 4.6.2 1.5 1.5 2.9 2.5 4.6zM134.3 260.6c-1.4 7.7.6 11 6.7 14 3 1.3 3.4 3.9 5.7 5l-.3.6c-.7-.2-1.4-.3-2-.7l-7-4.8c-4.2-2.9-7.1-10.2-3.1-14.1zM259.3 323.3c2.6-2.9 7-2.4 9 1 1 1.8 1 4.1 1.9 6 .9 1.6 2.4 3 4 4.8h-7.4c.6-3.1 3.8-5.4.8-9-2-2.4-2-3.2-8.3-2.8zM98.4 244c-.6 2.9.8 3.8 4.5 3.5l3 3.2c-.7 0-1.5.4-2 .2-2-1-3.9-2-5.8-3.2-1.5-.8-2.8-1.9-4.3-2.7-3.4-1.8-4.6-5.6-2.1-8.5.1 4.5 1.1 8 6.7 7.5zM242.7 307.7l-7.8-2.6c-1.4-.5-2.8-.8-4.2-.8-1.3-.1-2-.7-3-1.6-1.8-1.4-4.5-1.7-6.9-2.6 0 0 .4-.7.6-.7 2 .3 4.8 0 5.8 1.1 1.8 2 3.8 1.6 5.9 2.1 3.4 1 6.7 2.6 10 4l-.4 1.1zM200.4 299.8l-3.8 4.6c-5.8.7-8-4.8-11.5-8.6l.5-.6 7.2 5c-.1 1.3 2.7 2.1 5.3.7.8-.4 1.4-1 2-1.5l.3.4zM305 335c-.3-4.4-1.6-5.7-8-7.7 4-1.8 6.4-.4 9.8 5.3 5.1-.2 7.2 1.1 6.8 4.3-1.4-.7-2.7-1.8-4.3-2.2-1.3-.3-2.8.2-4.3.4zM77.3 215.5L69 218l3.6-4c-4-1.7-7.3-6.1-12.8-4.4 1-1.8 2-2.4 4.2-1.4 3.5 1.5 6.8 3.4 10.2 5.2 1.1.6 2 1.5 3 2.1zM276.1 307.2c-1.8 4.3 2.8 3.2 3.5 5.1 0 .2-.2.4-.3.4-5-1-10.3-1.7-15.3-3-3.2-1-4.4-4.6-2.8-8 0 3.8 1 7.3 5 8.2 3.3.8 6.8.2 10-2.7zM235.8 289.3c4.8 1.9 9 2 12.2-3l.6.8c-.5 1-1 2-1.6 3.8l5.8 3.6c-2.2.3-4 .6-5.8-1.4-1-1-3.2-.9-5-1.3l-6.2-1.5v-1zM64.4 223.6c-2 .8-3-.7-4.1-2.1-.6-.7-1-1.7-1.8-2-4.6-2.7-6.1-6-4.5-11.2 0 1.1 0 2.4.4 3.5.3.8 1.4 1.3 2.4 2.3-1.4 2.1 0 3.3 2.7 4 .4 0 .8.1 1 .4l3.9 5.1zM245.4 313.8l-6-.8.8 2.8-.5.3c-2.8-2.6-4.5.4-6.6 1.3-1.3.5-2.9.7-4.3.6l10.5-6.2c2.1-1.2 5-.2 6.1 2zM284.3 325.2c-1.8 2-3.3 4-4.8 5.8l-.8-.6c.6-.9 1.3-1.7 1.7-2.6.3-.9.3-2 0-2.8 0-.4-1.2-.4-1.8-.6l-5.7-2c2.1-1.4 4.1-1.6 6.1-.5 1.7.9 3.3 2 5.3 3.3zM112.7 264.6c-4.6-.9-9.3-1.5-11.6-6.2-.5-1-.5-2.3-.8-3.8 1.8 2 3.2 3.9 4.7 5.4.9.8 1.9 2.5 3.6.6.5-.5 3.8 2.7 4.1 4zM78 246.5c-2.8 0-4 1-3.6 3.7l-1-.3c.2-2.8-2.2-4.3-3.2-6.4-1.4-2.9-.8-6.1 1.5-9.9-.3 6-2.4 12.2 6.3 13zM176.6 270.1l-9-3.1c-.4-1 1.7-3.9-2.2-4.3 3-1.3 3.2-1.1 4.2 2.5 3.1-.5 7 2.3 7 4.9zM161.6 281.6c-4.6 3.4-7.5 0-10.8-1.8 1.6-.1 3.4-.8 4.6-.2 3.3 1.5 3.3-1 4-2.6.3-1 .2-2 .3-3l.8.2-1.2 6.7 2.3.7zM132.1 252.4l1.9 2.6-.5.6c-.8-.4-1.8-.7-2.3-1.4-1.5-1.8-2.8-1.4-4.3 0-.9 1-2.2 1.4-3.3 2l-.3-.6 3.7-4.1c3 .8 4.4-1.4 5.2-4.4l.8.3-.9 5zM100.4 262.4c-2.4 5-1.6 6.6 3.6 8.3 2.2.7 4.3 2 7 3.2l-1.7.2c-2.7-.6-5.5-.8-8-1.8-3.6-1.3-4.3-7.4-1-10zM77.3 239.6c1.8 7.2 7.6 8.3 13.7 9.2l-2.4 2.2c-1-.5-2-1.3-3-1.6-4-1.1-7-3.3-8.5-7.2l-.6-2.3.8-.3zM211 278.4c-3.1-.8-6.2-2-8.4 1.4-2.9-3.2-2.9-3.2-6-.4.3-2.6 3-4.1 5.1-3.3a6 6 0 003.4.2c3-.8 4-.6 5.9 2zM95.7 223.9c3 1.3 5 3.3 4.6 6.6l6.6 2.3-.2.4-10-.8c.3.5.1.3.2.2 2.5-3.6 2.5-3.6-.4-7.1-.4-.4-.5-1.1-.7-1.7zM53.8 217l1.8 6.8 1.1 3.8.8-.1-1.4 2.8-4.9-7.7 2.8 1.2-1.3-6.6 1.1-.1zM124.6 266c1.8 3.2-2.2 7.8 3.3 10l-1 .6-4-2c-1.6 1.2-3.5 2-6-.6 7.1 1.2 7-3.6 7.7-8z"/><path d="M240.4 284.8l4.5 1.6c-5.4 1-11.2.1-14 6.8-.3-1.2-.6-1.9-.4-2.1l3-3.6c1-1.2 2-2.4 4-1.6.8.4 2.1-.8 3-1.1zM110.3 237.3c2.5-1.1 6-.4 7.9 2.5a7.4 7.4 0 004.7 3.4c.4 0 .7.6.8 1.6-.9-.2-1.7-.6-2.5-.5-.8.1-1.5.8-1.7 1-1-1.8-1.7-4-3.2-5.3-1.6-1.4-4-1.8-6-2.7zM150.6 266.6c1.2-3-2.5-2.7-3.8-4.1l.4-.9c1 .4 2.2.6 2.8 1.3 1.3 1.9 3 2.8 5.2 3.2 1.6.2 3.1 1.3 4.6 2.1.3.3.3 1.1.5 1.8l-9.7-3.4zM121.7 263.4c-.6-.1-1.3 0-1.8-.2-2.2-.8-4.5-1.4-6.5-2.4-1-.4-1.6-1.7-2.4-2.5l.6-.5 3.4 2.2 1.9-3.7c-.2 3.8 1.9 5.6 4.8 7zM81.8 251.6l-1.8 5.2c2.4 0 4.2.2 3.4 3.1-.1.4.8 1.1 1.3 1.8-2.7 1.4-3.2-1.1-4.3-2.3-2.6-3-.2-5.4.6-8 .3 0 .5 0 .8.2zM424.7 328.2l1 3c-3.6 3.8-7.8.2-11.8 2 1.1-2 3.3-2.8 5.5-2.3 3.9 1 4 1 5.3-2.7zM297.7 330.7l-.6 2c-.3 2-.3 4-3 1.2-.7-.7-2.8-.1-4.2 0-1 .1-2 .5-3 .5 2.1-1.4 4-3.2 7-2.6 1 .2 2.3-.7 3.8-1.1zM200.4 287.6l-5.3 1c0-2.7-.7-3.1-6.6-4.1 1.9 0 3.8-.6 5.5 0 2.3.6 4.3 2 6.4 3.1zM386.3 335.6l8.7-1c-1.4 2.1-8.9 4-12.4 3 3.3-1 3.5-1 3.7-2zM355.3 330.6c1.2-3 3.8-5.5-.2-7.7l.6-.5 5 2.5-5.4 5.7zM356 353l5.3-8.8c.5 3-2 7.3-5.4 8.7zM408 326.4c-3.5 0-2.8 3-3.6 5.3-1.4-2-1.6-3.7 0-5.2.8-.7 2-.9 3.1-1.3l.5 1.2zM456.3 307.1l-3.7-8.6c2.7 2.3 3.8 5.3 3.7 8.6zM217.5 271.7c-3.2 1-6.5-.5-6.9-3.1l6.9 3.1zM454 316.9l-1.7-6.2c2.3 0 3.4 3 1.7 6.2zM208.8 291c-2-1-3.2-4.9-6.6-2.1v-.9c1-.3 2.1-1.2 2.8-.9 1.6.7 3 2 4.4 3.1l-.6.8zM175.8 262h8.4v.6l-8.3.7-.1-1.2zM71.8 225.6c1.5.8 3.1 1.5 4.8 2.2-2.6 1.9-4.2 1.1-4.8-2.2zM278.9 421.3c.9-4.3.9-4.3-2.5-7.4 2.3-.3 4 .2 4.8 1.8 1.1 2.3.6 4.3-2.3 5.6zM122.4 377l4.1-7.6c.8 3.2-.9 6.1-4 7.7zM168.6 391.4l-3 6.8-.5-.2 2.4-7.1 1.1.5zM193.8 402.7l1.6-4.7.8.3-1.7 4.8-.7-.4zM224 407.3l-2 5.9-.9-.3 2.4-5.7.5.1zM211.6 371.9c4-.8 7 1.2 10.3 3.6-5 2-6.8-3.2-10.3-3.6zM219.6 381c2.5 1 4.6 1.7 6.8 2.4l.2.6c-1.1.3-2.4.8-3.5.6-1.6-.2-3.5-.5-3.5-3.5zM243.3 397.1l1.8 3c-.9.2-1.8.7-2.5.4-1.2-.3-3.4-.2-2.4-3l2.7 2.3-.3-2.3.7-.4zM258.6 399.9c2.2 1 5-2.5 6.1 1.7-2.1.8-4.1 1-6.1-1.7zM213 386.7c.6 4.5 3.3 3.2 5.6 2.8-.6 1.9-1.3 2.2-3.5 1.6-2.5-.7-2.9-1.3-2.1-4.4zM207.8 373.9c-1.2.4-2.3 1-3.4 1.2-.4 0-1-1.2-1.3-1.8.5-.3 1-.8 1.6-.8.9 0 1.8.4 2.7.6l.4.8zM286 403.3c2.3-1 2.2-1 3.6 1 .3.3 1.1.2 1.6.6-2.2 1-3.7 0-5.2-1.6zM292.7 402.3l-7.2-1.6c2-1.6 4.3-1.2 7.2 1.6zM217.7 396.3c2.6-1.3 5-.8 6.4 1.3l-6.4-1.3zM199.2 378.7l-2.8-.8c-.8-.2-1.7-.2-2.6-.3 2.1-2 3.6-1.6 5.4 1.1zM143.2 367.5c2.2-2 4.5-2.1 6.8 0 .5.4 1.2 1.2 1 1.7 0 .6-1 1.1-1.6 1.3-2 .7-4.9-.7-6.2-3zM113.2 345.5l1.6 1.8-.8 1-5.4-3.9c3.8-2.2 6 .1 8.7.7l-.2 1-4-.6zM120.8 343.5c-1.6-1-2.5-1.6-3.5-2-1-.4-2-.5-3.1-.8 2-2.3 5.3-1.2 6.6 2.8zM97.4 326.6c.4 1.3 1 2.4.8 3.1-.3.7-1.5 1-2.3 1.6-.4-1-1-2-1-3 0-.5 1.3-1 2.5-1.8zM96.8 340.2l5 1.2c-2.4 1.8-4 1.5-5-1.2zM371 274.5l2.3-6.7c.8 4.5.8 4.5 8.8 7.6-2 .4-4 1-5.9 1.3-2.3.2-4.3-.4-5.2-2.2zM321.6 253.8c1.3 5.5-2.1 11.5-7.6 14.1l1-1.6-2.8-.1 5.8-4.8-.1 1.9h.4l3.3-9.6zM322.1 267.7l2.4.6-1.1-5.9.8-.2 3.4 6.5c-2.7 2.1-4.2 2-5.5-1zM311.2 253.8l-2.9 10.4c-2.1-2.2-.2-9 2.9-10.4zM355.5 271.2c1.4-3.4 4.3-5 8.2-4.6l-8.2 4.6zM343 273.9c-.4 1.4-.8 2.8-1 4.2h-1l.5-9h.7l.7 4.8z"/><path d="M343 273.9l6.4 1.8c-1.8 2-3.2 1.7-4.5.5-.8-.7-1.3-1.6-2-2.3zM76.1 46c1.3-2 2.4-4.2 4-6 1-1.1 3-1.6 4.2-.1 1.4 1.5 1.2 3.6-.5 4.6-2.1 1.2-4.6 1.7-7 2.5a38 38 0 01-.7-1zM291 372c-4.4.5-8.4.7-12.2-1.1-.3-.2-.7-.5-1-.4-3.5 1.1-4.7-1.7-6.6-3.6-1.5-1.5-3.2-2.7-5-4.2 1-1.4 2.7-1 4.2 0 1.6 1 3 2.4 4.5 3.7 4.1 3.7 9.1 4.7 14.4 4.9l1 .1.8.7zM456.3 350l-9.8 7.2c2.1-4 5.5-6.3 9.4-7.8l.4.5zM433.1 361h-11.3v-.8l11.3.1v.8zM37.1 274.8l6 1.8c0-1 .3-2.5 0-2.7-1.5-.7-3.1-1.2-4.3-1.6 1.8-1.2 4.4-1.2 5.5.8.5.8.5 2.6 0 3.2-1.7 1.8-4.6 1.2-7.1-1.5zM37.3 264.9c-.2 1.3 0 3.1-.7 3.8-1.5 1.2-3.5 2.4-5.8-.7 3.6 1.1 6 .7 5.2-3.8l1.3.7zM44.7 268l1 1.1.8-.5-2.4-3.5.4-.4c.7.5 1.7.9 1.9 1.5.4 1.4.4 3 .5 4.6l-1.1.2-1.5-2.8.4-.3z"/></g><defs><clipPath id="clip0"><path fill="#fff" d="M0 0h490.4v466.7H0z"/></clipPath></defs></svg>