<svg width="429" height="374" fill="none" xmlns="http://www.w3.org/2000/svg"><g clip-path="url(#clip0)"><path d="M47.19 52.28c-5.39-2.77-14.24 3.7-19.74 14.42L4.16 112.02c-5.45 10.71-5.59 21.63-.19 24.42 3.77 1.93 9.18-.58 13.98-5.9l17.65 8.82c4.71 2.36 10.07 1.22 11.85-2.47 1.89-3.73-.41-8.61-5.09-10.98l-16.4-8.12 19.32-37.63 16.45 8.15c4.67 2.37 10.02 1.24 11.86-2.46 1.85-3.75-.5-8.62-5.15-10.96l-17.68-8.83c1.18-6.52 0-11.93-3.57-13.78zM381.33 323.31c5.42 2.81 14.28-3.65 19.75-14.37l23.28-45.32c5.45-10.71 5.54-21.64.16-24.48-3.71-1.89-9.13.61-13.94 5.93l-17.66-8.81c-4.69-2.35-10-1.22-11.86 2.48-1.85 3.71.46 8.65 5.15 10.95l16.4 8.15-19.36 37.64-16.47-8.19c-4.7-2.33-9.99-1.2-11.82 2.48-1.86 3.72.46 8.66 5.16 10.99l17.69 8.79c-1.22 6.53-.02 11.94 3.52 13.76z" fill="#432A18"/><path d="M145.04 13.71C49.46 52.45 3.42 161.27 42.15 256.85c38.71 95.52 147.52 141.57 243.1 102.84 95.52-38.71 141.61-147.54 102.9-243.06C349.42 21.05 240.56-25 145.04 13.71zM276.6 338.32c-83.73 33.93-179.13-6.43-213.06-90.14-33.95-83.78 6.44-179.13 90.18-213.06 83.68-33.91 179.1 6.39 213.06 90.17 33.92 83.7-6.5 179.12-90.18 213.03z" fill="#432A18"/><path d="M306.62 36.47c-2.07-1.24-4.13-2.49-6.23-3.63L149.07 344.73c2.25.92 4.47 1.8 6.74 2.6L306.62 36.47zM230.65 11.22c-2.56-.23-5.17-.4-7.72-.52L83.74 297.58a149.3 149.3 0 005.17 5.76L230.65 11.22zM283.01 24.26c-2.16-.9-4.36-1.76-6.59-2.61L125.48 332.82a90.02 90.02 0 006.14 3.49L283.01 24.26zM257.72 15.78c-2.33-.52-4.66-1.1-6.96-1.59L103.7 317.29c1.83 1.53 3.73 3 5.59 4.48L257.72 15.78zM159.86 19.66L51.75 242.5a169.62 169.62 0 003.43 8.9l113.8-234.56c-3.07.87-6.09 1.8-9.12 2.82zM201.2 11.08c-2.76.25-5.54.57-8.3.9L66.22 273.21c1.39 2.41 2.86 4.71 4.4 7L201.2 11.08zM42.45 200.94c.39 4.27.98 8.5 1.73 12.78l88.35-182.15a160.17 160.17 0 00-11.11 6.53L42.45 200.94zM365.37 96.78a199.48 199.48 0 00-4.32-7.07L231.26 357.16c2.79-.27 5.56-.58 8.28-.97L365.37 96.78zM388.47 170.22a161.3 161.3 0 00-1.56-12.96L300.4 335.61c3.8-2.12 7.53-4.4 11.11-6.82l76.96-158.57zM84.33 70.15a174.64 174.64 0 00-39.63 81.73l39.63-81.73zM350.06 293.8a175.2 175.2 0 0034.72-71.55l-34.72 71.55zM348.05 72.14c-1.69-1.92-3.38-3.88-5.11-5.71L201.8 357.36c2.54.19 5.1.33 7.63.44L348.05 72.14zM328.25 52.28a100.65 100.65 0 00-5.56-4.55l-148.08 305.3c2.32.56 4.66 1.09 7 1.56L328.25 52.28zM379.59 127.91c-1.03-2.97-2.1-5.95-3.31-8.92l-.05-.12-112.65 232.19c3.08-.94 6.17-1.89 9.18-2.96l106.83-220.19z" fill="#432A18"/><path d="M289.8 292.5l-4.67-.04 3.34-3.29a9.65 9.65 0 00.1-13.6 9.6 9.6 0 00-13.6-.11l-.13.13c.33-3.75-.17-7.63-1.68-11.36-1.23-3.05-3.84-6.35-7.95-10.09a6.22 6.22 0 00-6.48-1.14l-1.18.62a6.32 6.32 0 00-1.89 2.04c-.67-.37-1.37-.73-2.12-1.09-3.76-1.76-6.17-3.79-6.78-5.72a6.28 6.28 0 00-5.73-4.36 6.4 6.4 0 00-6.12 3.95 44.55 44.55 0 00-3.12 12.19l-.26.01a6.36 6.36 0 00-5.7 5.49c-.76 6.37-.2 11.95 1.68 16.59a24.5 24.5 0 006.59 9.25h-.05a9.58 9.58 0 00-9.71 9.54 9.63 9.63 0 009.53 9.7l4.68.04-3.33 3.27a9.44 9.44 0 00-2.88 6.77 9.45 9.45 0 002.75 6.82 9.57 9.57 0 0013.6.13l17.05-16.75 23.97.22a9.6 9.6 0 00.09-19.21zM222.77 82.92a6.92 6.92 0 00-6.85-4.3c-4.3-10.39-11.97-17.35-22.24-20.12-9.11-2.43-19.68-1.39-30.58 3.03-10.88 4.41-19.2 11.02-24.02 19.1-5.45 9.12-6.12 19.46-1.98 29.94a6.95 6.95 0 00-1.91 7.84 6.9 6.9 0 003.04 3.41c-.24 1.9-.04 3.9.75 5.84a11.4 11.4 0 007.93 6.89c.07.2.1.41.18.6l2.07 5.11a10.83 10.83 0 0014.09 5.95l58.73-23.8a10.8 10.8 0 005.94-14.07l-2.07-5.11a4.02 4.02 0 00-.29-.54 11.52 11.52 0 00-2.61-15.23 6.77 6.77 0 00-.18-4.54z" fill="#fff"/><path d="M220.04 104.58l-67.82 27.49a.92.92 0 00-.51 1.21l2.07 5.11a5.87 5.87 0 007.61 3.22l58.73-23.8a5.82 5.82 0 003.2-7.6l-2.07-5.11a.92.92 0 00-1.21-.52zM214.45 90.37l-68.11 27.6c-2.81 1.14-4.04 4.66-2.75 7.82 1.28 3.17 4.61 4.83 7.42 3.69l68.11-27.6c2.82-1.14 4.08-4.66 2.8-7.83-1.29-3.17-4.65-4.83-7.47-3.68zM143.06 109.56l67.89-27.52c.49-.2.71-.74.52-1.22l-.04-.09c-3.67-9.07-10.28-15.09-19.05-17.45-8.05-2.15-17.54-1.17-27.42 2.83-9.87 4-17.34 9.89-21.62 17.04-4.67 7.83-5.21 16.77-1.51 25.89.2.49.76.71 1.23.52zM142.4 117.63l74.66-30.26a1.97 1.97 0 001.09-2.59 1.98 1.98 0 00-2.59-1.1l-74.66 30.26a1.99 1.99 0 101.5 3.69z" fill="#432A18"/><path d="M170.58 87.15a2.6 2.6 0 11-4.82 1.96 2.57 2.57 0 011.43-3.36 2.59 2.59 0 013.39 1.4zM160.72 91.15a2.6 2.6 0 11-4.8 2 2.6 2.6 0 014.8-2zM180.44 83.15a2.62 2.62 0 01-1.43 3.41 2.6 2.6 0 01-3.38-1.45 2.57 2.57 0 011.43-3.36 2.58 2.58 0 013.38 1.4zM190.3 79.16a2.63 2.63 0 01-1.43 3.41 2.6 2.6 0 111.43-3.41zM161.02 78.96a2.6 2.6 0 11-4.82 1.94 2.6 2.6 0 014.82-1.94zM171.31 74.8a2.6 2.6 0 11-4.81 1.95 2.6 2.6 0 114.81-1.95zM181.6 70.63a2.6 2.6 0 01-4.82 1.96 2.6 2.6 0 014.82-1.96z" fill="#fff"/><path d="M351.84 81.47L41.55 207.22l36.37 89.75 310.3-125.75-36.38-89.75z" fill="#432A18"/><path d="M68.7 216.94l14.93-6.05c.92-.37 1.75-.2 2.09.63l1.31 3.23c.37.92.07 1.55-1.02 1.99l-9.47 3.84 3.11 7.69 7.12-2.88c.92-.37 1.69-.23 2.04.65l1.31 3.23c.37.92.11 1.53-.98 1.97l-7.12 2.88 4.12 10.18c.57 1.4.28 2.07-1.07 2.62l-3.62 1.47c-1.35.55-2.07.28-2.64-1.12l-11.22-27.69c-.57-1.4-.29-2.08 1.11-2.64zM114.87 235.39c-11.74 4.76-18.12-2.57-21.16-10.08-3.04-7.51-3.71-17.56 8.03-22.32 11.79-4.78 18.27 2.92 21.31 10.43 3.04 7.51 3.61 17.19-8.18 21.97zm-2.41-5.94c6.25-2.53 5.48-8.43 3.54-13.23-1.93-4.76-5.59-9.78-11.84-7.25-6.2 2.51-5.39 8.64-3.44 13.44 1.96 4.85 5.54 9.55 11.74 7.04zM152.01 219.78c-1.7.69-2.3.47-3.99-.93l-8.72-7.35-2.75 1.11 3.91 9.65c.57 1.4.28 2.07-1.07 2.62l-3.62 1.47c-1.4.57-2.07.28-2.64-1.12l-11.22-27.69c-.57-1.4-.28-2.07 1.12-2.64l9.47-3.84c7.16-2.9 12.56-.11 14.9 5.66 1.66 4.1.68 8.06-2.01 10.98l10.49 8.05c.6.47.97.78 1.11 1.12.19.48-.13.92-1.01 1.27l-3.97 1.64zm-21.32-21.61l3.65 8.99 2.71-1.1c3.49-1.41 4.44-3.83 3.38-6.45-1.15-2.84-3.49-3.97-7.03-2.54l-2.71 1.1zM150.53 183.77l15.68-6.35c.92-.37 1.71-.18 2.04.65l1.31 3.23c.37.92.11 1.53-.98 1.97l-10.22 4.14 2.81 6.94 7.51-3.04c.87-.35 1.66-.17 2 .66l1.31 3.23c.37.92.11 1.53-.94 1.96l-7.51 3.04 2.81 6.94 10.22-4.14c.92-.37 1.71-.18 2.06.69l1.29 3.19c.37.92.11 1.53-.98 1.97l-15.68 6.35c-1.4.57-2.07.28-2.63-1.12l-11.22-27.69c-.56-1.38-.28-2.05 1.12-2.62zM181.66 199.63c.96-.39 4.08.79 8.45-.98 4.24-1.72 4.77-4.17 3.97-6.13-2.5-6.16-14.52 2.68-18.98-8.32-2.83-6.99 1.53-11.4 6.56-13.43 1.92-.78 4.73-1.51 7.15-1.17 1.99.26 3.42 1.16 4.09 2.82.55 1.35.26 2.39-.44 2.67-1.09.44-3.83-.53-7.41.92-2.49 1.01-4.14 2.59-3.18 4.95 2.48 6.11 14.29-3.25 19.05 8.5 2.8 6.9-.52 11.65-7.42 14.44-3.06 1.24-6.43 1.95-8.72 1.45a4.4 4.4 0 01-3.22-2.66c-.32-.86-.81-2.69.1-3.06zM215.11 157.6c.87-.35 1.71-.18 2.04.65l1.31 3.23c.37.92.07 1.55-.98 1.97l-6.38 2.58 9.61 23.71c.57 1.4.24 2.09-1.11 2.64l-3.58 1.45c-1.35.55-2.07.28-2.64-1.12L203.77 169l-6.42 2.6c-.92.37-1.66.16-2.02-.71l-1.29-3.19c-.37-.92-.11-1.53.94-1.96l20.13-8.14zM250.25 145.59c1.45.43 2.38 1.22 2.86 2.4.44 1.09.56 2.77-.31 3.12-1 .41-4.03-.3-7.61 1.16-4.5 1.82-7.02 5.89-4.01 13.32 2.99 7.38 7.59 8.57 12.09 6.74 3.8-1.54 5.64-4.17 6.64-4.57 1.05-.42 1.98.62 2.37 1.58 1.7 4.19-2.72 7.61-7.91 9.71-8.47 3.43-16.29-.06-20.52-10.49-4.25-10.48-1.02-18.45 7.36-21.85 2.79-1.12 6.46-1.85 9.04-1.12zM288.29 164.55c-1.66.67-2.17.42-3.42-1.16l-3.36-4.28-10.21 4.14.61 5.4c.22 2.05-.04 2.56-1.69 3.23l-3.63 1.47c-1.4.57-2.07.18-2.16-1.57l-1.65-30.55c-.14-2.23.33-3.08 2.25-3.86l3.01-1.22c1.92-.78 2.91-.47 4.35 1.19l19.95 23.13c1.15 1.32 1.02 2.03-.42 2.61l-3.63 1.47zm-17.69-7.78l6.94-2.81-8.47-10.85 1.53 13.66zM285.67 129l3.5-1.42c1.7-.69 2.17-.17 3.81 1l11.96 8.93 2.36-14.73c.35-2.02.34-2.68 2.04-3.37l3.5-1.42c1.35-.55 2.03-.26 2.6 1.13l11.22 27.69c.57 1.4.28 2.07-1.07 2.62l-2.88 1.17c-1.35.55-2.07.28-2.64-1.12l-7.4-18.25-2.01 11.34a1.83 1.83 0 01-1.09 1.46l-3.1 1.25c-.79.32-1.65.31-2.23-.11l-9.17-6.7 7.36 18.17c.57 1.4.19 2.11-1.12 2.64l-2.88 1.17c-1.35.55-2.07.28-2.64-1.12l-11.22-27.69c-.58-1.4-.29-2.07 1.1-2.64zM322.49 114.08l9.44-3.82c7.24-2.94 12.49.48 14.9 6.42 2.74 6.77.04 12.39-6.34 14.97l-3.89 1.58 3.33 8.21c.57 1.4.28 2.07-1.07 2.62l-3.63 1.47c-1.35.55-2.07.28-2.64-1.12l-11.22-27.69c-.56-1.4-.28-2.07 1.12-2.64zm7.83 3.64l3.93 9.69 2.66-1.08c3.67-1.49 4.54-3.98 3.36-6.9-1.2-2.97-3.66-4.26-7.29-2.79l-2.66 1.08zM145.15 238.62c-.06-.15-.05-.23.12-.3l.35-.14c.19-.08.23-.03.3.13l4.09 10.1c.75 1.84.22 3.24-1.26 3.83-.86.35-1.7.31-1.91-.19-.07-.17.01-.2.05-.22.21-.08.72.07 1.52-.26 1.27-.51 1.34-1.61.83-2.86l-4.09-10.09zm-1.7-3.96c-.06-.15-.01-.24.14-.3l.48-.19c.16-.06.24-.03.3.12l.38.94c.07.17.03.23-.13.3l-.48.19c-.15.06-.24.06-.31-.12l-.38-.94zM157.03 244.65c-3.55 1.44-5.51-.8-6.42-3.07-.92-2.26-1.07-5.23 2.48-6.67 3.58-1.45 5.52.8 6.44 3.06.91 2.26 1.08 5.23-2.5 6.68zm-.28-.69c2.93-1.19 2.76-3.64 1.95-5.66-.82-2.01-2.4-3.89-5.34-2.7-2.92 1.18-2.73 3.63-1.91 5.64.82 2.01 2.38 3.9 5.3 2.72zM163.19 240.53c.25-.1 1.66.13 3.56-.64 2.36-.96 2.45-2.27 2.05-3.27-1.27-3.12-6.59 1.09-7.89-2.11-.73-1.8.85-3.09 2.5-3.76 1.88-.76 3.31-.47 3.49-.03.05.11.07.17-.06.23-.33.13-1.42-.25-3.17.46-1.49.61-2.53 1.47-1.99 2.79.99 2.45 6.38-1.67 7.88 2.05.63 1.55.23 3.16-2.51 4.27-1.78.72-3.64.94-3.91.27-.02-.04-.07-.22.05-.26zM169.61 228.64c-.05-.11-.02-.17.15-.24.52-.21.61-.15 1.15 1.19.11-1.09.78-2.19 2.53-2.9 3.2-1.3 5.07.84 5.97 3.05 1.09 2.68.73 5.44-2.07 6.57-1.61.65-3 .37-3.9-.43l2 4.95c.07.17.03.23-.13.3l-.34.14c-.16.06-.23.05-.3-.12l-5.06-12.51zm2.45 3.83l.19.46c1.48 3.4 3.59 3.19 4.83 2.68 2.42-.98 2.35-3.47 1.51-5.54-.75-1.86-2.28-3.74-4.92-2.67-2 .81-2.62 2.42-1.61 5.07zM182.72 228.9c1.22 2.94 3.3 3.15 5.33 2.32 1.63-.66 2.64-1.74 2.85-1.83.14-.06.19-.03.25.1.08.21-.04.46-.28.78a6.76 6.76 0 01-2.54 1.61c-2.6 1.06-5.03.84-6.55-2.9-1.25-3.09-.6-5.45 2.12-6.55 2.43-.99 4.43-.1 5.68 2.99.22.54.2.61-.3.81l-6.56 2.67zm-.27-.67l6.25-2.53c-1.06-2.62-2.46-3.42-4.47-2.61-2.38.97-2.63 2.99-1.78 5.14zM195 228.93l-.35.14c-.16.06-.22.05-.29-.13l-3.59-8.86c-.05-.11-.02-.17.15-.24.5-.2.61-.14 1.06.97.14-1.13.84-1.99 2.04-2.47 1.13-.46 1.75-.15 1.86.14.09.23.04.27-.05.31-.21.08-.63-.12-1.55.25-1.94.79-2 2.55-1.34 4.18l2.19 5.4c.06.18 0 .25-.13.31zM204.2 219.64c-.89-2.2-.97-5.03 2.23-6.33 1.23-.5 2.55-.59 3.68.16-.47-1.22-.4-1.27.1-1.47.18-.07.23-.05.27.07l3.72 9.18c1.13 2.8-.29 4.56-2.57 5.48-2.05.83-3.69.92-3.95.29-.05-.13-.01-.2.05-.22.06-.02 1.53.09 3.62-.75 1.82-.74 3.03-2.21 2.11-4.49l-.66-1.63a3.96 3.96 0 01-2.58 2.9c-3.16 1.28-5.13-.98-6.02-3.19zm.84-.34c.7 1.73 2.36 3.89 4.92 2.85 1.42-.58 2.82-1.97 1.62-5.21l-.22-.54c-.78-1.82-1.99-3.48-4.7-2.38-2.53 1.03-2.4 3.34-1.62 5.28zM218.17 219.54l-.35.14c-.15.06-.23.05-.3-.13l-3.59-8.86c-.05-.11-.02-.17.15-.24.5-.2.62-.14 1.07.97.14-1.13.84-1.99 2.03-2.47 1.13-.46 1.75-.15 1.86.14.09.23.04.27-.05.31-.21.09-.63-.12-1.55.25-1.94.79-2 2.55-1.34 4.18l2.19 5.4c.07.18.01.25-.12.31zM219.35 203.91c-.06-.15-.01-.24.15-.31l.48-.19c.15-.06.23-.03.3.13l.38.94c.07.17.03.23-.12.29l-.48.19c-.16.06-.25.06-.32-.11l-.39-.94zm1.69 3.95c-.06-.15-.05-.23.12-.3l.35-.14c.19-.08.24-.03.3.12l3.57 8.82c.07.17.01.24-.13.3l-.35.14c-.15.06-.23.05-.3-.13l-3.56-8.81zM223.56 201.75c-.06-.15-.05-.22.12-.29l.35-.14c.19-.08.23-.03.29.12l5.35 13.19c.07.17.01.24-.12.3l-.35.14c-.16.06-.23.05-.3-.13l-5.34-13.19zM227.85 200.01c-.06-.15-.05-.23.12-.29l.35-.14c.19-.08.24-.03.3.12l5.35 13.19c.07.17.01.24-.13.3l-.35.14c-.15.06-.23.05-.3-.13l-5.34-13.19zM237.34 196.17c-.06-.15-.05-.23.12-.29l.35-.14c.19-.08.24-.03.3.12l2.28 5.62c.1-1.11.77-2.23 2.53-2.94 3.2-1.3 5.07.84 5.97 3.05 1.09 2.68.73 5.44-2.07 6.57-1.61.65-3 .37-3.9-.43l.54 1.32c.07.17.03.24-.13.3l-.35.14c-.15.06-.23.05-.3-.13l-5.34-13.19zm4.27 8.33l.11.27c1.48 3.4 3.59 3.19 4.83 2.68 2.42-.98 2.35-3.47 1.51-5.54-.75-1.86-2.28-3.74-4.92-2.67-2.04.82-2.65 2.5-1.53 5.26zM258.89 200.56l-2.8-6.9c-.06-.15-.05-.23.12-.3l.35-.14c.19-.08.23-.03.3.13l3.6 8.88c.05.11.02.17-.15.24-.5.2-.6.22-1.05-.89a4.3 4.3 0 01-2.55 2.62c-2.09.85-3.54-.08-4.27-1.88l-2.49-6.15c-.06-.15-.05-.23.12-.3l.35-.14c.19-.08.23-.03.3.13l2.48 6.12c.6 1.48 1.69 2.17 3.3 1.52a4.14 4.14 0 002.39-2.94zM264.52 200.75l-.35.14c-.16.06-.23.05-.3-.13l-3.59-8.86c-.05-.11-.02-.17.15-.24.5-.2.61-.14 1.06.97.14-1.13.84-1.99 2.04-2.47 1.13-.46 1.75-.15 1.86.14.09.23.04.27-.05.31-.21.08-.63-.12-1.55.25-1.94.79-2 2.55-1.34 4.18l2.19 5.4c.07.19.01.26-.12.31zM268.18 193.71c-.89-2.2-.97-5.03 2.24-6.33 1.23-.5 2.55-.59 3.68.16-.47-1.21-.4-1.26.1-1.47.17-.07.23-.05.27.07l3.72 9.18c1.13 2.8-.29 4.56-2.58 5.49-2.05.83-3.69.92-3.94.28-.05-.13-.01-.2.04-.22.06-.02 1.53.09 3.62-.75 1.82-.74 3.03-2.21 2.11-4.49l-.66-1.63a3.97 3.97 0 01-2.57 2.9c-3.18 1.28-5.14-.98-6.03-3.19zm.84-.34c.7 1.73 2.36 3.89 4.93 2.85 1.42-.57 2.82-1.97 1.61-5.21l-.22-.54c-.78-1.82-1.99-3.48-4.69-2.38-2.55 1.03-2.42 3.35-1.63 5.28zM280.12 189.43c1.22 2.94 3.3 3.15 5.33 2.32 1.63-.66 2.64-1.74 2.85-1.83.14-.06.19-.03.25.1.08.21-.04.46-.28.78a6.76 6.76 0 01-2.54 1.61c-2.6 1.06-5.03.84-6.55-2.9-1.25-3.09-.6-5.45 2.12-6.55 2.43-.99 4.43-.1 5.68 2.99.22.54.2.61-.3.81l-6.56 2.67zm-.27-.67l6.25-2.53c-1.06-2.62-2.46-3.42-4.47-2.61-2.38.96-2.64 2.98-1.78 5.14zM292.39 189.46l-.35.14c-.15.06-.23.05-.3-.13l-3.59-8.86c-.05-.11-.02-.17.15-.24.5-.2.62-.14 1.07.97.14-1.13.84-1.99 2.03-2.47 1.13-.46 1.75-.15 1.86.14.09.23.04.27-.05.31-.21.09-.63-.12-1.55.25-1.94.79-2 2.55-1.34 4.18l2.19 5.4c.08.18.02.25-.12.31zM297.71 186c.25-.1 1.66.13 3.56-.64 2.36-.96 2.45-2.27 2.05-3.27-1.27-3.12-6.59 1.09-7.89-2.11-.73-1.8.85-3.09 2.5-3.76 1.88-.76 3.31-.47 3.49-.03.05.11.07.17-.06.23-.33.13-1.42-.25-3.17.46-1.49.61-2.53 1.47-1.99 2.79.99 2.45 6.38-1.67 7.88 2.05.63 1.55.23 3.16-2.51 4.27-1.78.72-3.64.94-3.91.27-.01-.03-.06-.21.05-.26z" fill="#fff"/><path d="M291.05 296.96l-16.65-.15 11.89-11.68a4.64 4.64 0 10-6.51-6.63l-18.52 18.2-25.96-.24a4.65 4.65 0 00-.09 9.3l16.67.14-11.9 11.69a4.63 4.63 0 00-.05 6.56 4.63 4.63 0 006.57.06l18.53-18.2 25.97.24a4.64 4.64 0 10.05-9.29z" fill="#432A18"/><path d="M259.01 291.21a19.66 19.66 0 0010.84-25.61c-1.02-2.52-3.52-5.4-6.69-8.28a1.22 1.22 0 00-1.5-.1 1.2 1.2 0 00-.44 1.44c1.46 3.81 1.48 6.8.93 9.05a.54.54 0 01-.58.4.56.56 0 01-.49-.53c-.04-2.68-1.88-5.96-8.35-9-6.07-2.83-8.55-6-9.41-8.69-.17-.53-.65-.9-1.21-.92a1.31 1.31 0 00-1.29.82c-2.49 6.22-4.83 15.69-.3 22.45a.71.71 0 01-1 .98 13.22 13.22 0 01-4.92-7.18 1.3 1.3 0 00-1.34-.94c-.61.05-1.11.53-1.19 1.14-.52 4.37-.49 9.57 1.36 14.13a19.61 19.61 0 0025.58 10.84z" fill="#432A18"/></g><defs><clipPath id="clip0"><path fill="#fff" d="M0 0h428.5v373.41H0z"/></clipPath></defs></svg>