<svg width="456" height="422" fill="none" xmlns="http://www.w3.org/2000/svg"><g clip-path="url(#clip0)" fill="#432A18"><path d="M36.7 322.8c2.2-1.8 4.2-3.8 6.6-5.2 5.2-3.2 10.7-6 16.1-9.1l3.1-2c-3-3.2-6.2-6.1-9-9.4a21.3 21.3 0 01-3.4-5.8c-2.6-6.4-1.6-9.2 4.6-12.5l3.4-2c-4.5 1.5-8.8 3-13.1 4-5.4 1.3-7.2.6-9.4-4.4-1.9-4-3-8.3-4.3-12.6-.7-2 0-3.8 2-5 5.5-3.6 11-7.2 16.6-10.5 2.2-1.3 2.6-2 .8-4.2-2.8-3.5-5.2-7.5-8-11.4l-4.4 5.5c-4 5.7-10.2 7.5-16.3 9.4-3 1-4-1.7-4.3-4.5-1.6.2-3.2.1-4.4.7-4 1.6-7.3.3-10.5-2-3.3-2.4-4-8-.6-9.9 8-4.7 10-12.4 10.9-20.5.9-7.3 3.5-13.6 8.6-18.9 2-2 1.5-4 .5-6.1-2.3-5.5-5-11-6.7-16.6a61.5 61.5 0 012-36.3c1.4-4.8 4.3-8.8 5.8-13.5.4-1.3.4-2.6.7-4 .1-.6.2-1.5.7-1.7 3.3-2.2 4-5.7 5.3-9 .6-1.8.8-4 3.4-5 1.8-.7 2.7-3.4 4.1-5.3l5.2-6.7-.8-.4c.3-1.2.2-2.8 1-3.4 1.4-1.2 3.4-1.9 5.1-2.8l1.9-1.3 19-17.7c2.5-2.3 4.7-5 7-7.4 0 .5 0 1-.3 2.2l6.3-4.8-.5-1-3.7 1.7c.7-2 2-2.8 4-2.5 1 .1 2.1-.2 2.9-.8 9.2-6 18-12.6 27.5-18C141.6 15 173.8 5.5 207.3.5c3.9-.6 7.7-1 11.6.2 2 .6 4.5-.4 6.7-.3L254 1.7c1.4 0 2.9-.2 4.2-.5 3.3-1 6.2-.6 9 1.3 4.2 2.8 8.8 4 13.8 3 3.3-.7 9 1.2 11.1 3.8.6.8 1.6 1.4 2.6 1.7 16 5.4 31.5 11.6 46.1 20.1 1.3.8 3 .7 4.5 1.1 3.5 1 7.6 1.2 8.1 6.3.1.9 1.5 1.7 2.3 2.4 7.5 6.2 15.6 11.9 22.3 18.8 9.7 10 17.1 21.8 22.2 34.8 3.3 8.6 4.3 17.4-.6 26.2l9.1 4.6c-5-1-9.6-4.1-15.5-3.3 2.8 3.8 5.5 7.2 7.9 10.7 1 1.5 1.9 3.4 2 5.1 0 2.8 1.9 4 3.8 4 2.6-.2 5.3-1.3 7.7-2.4 1.8-.7 3.2-2.2 5-3.5L411 131l.6-1 15.9 10c-.7-1.6-.9-2.9-1.6-3.6-1.8-1.8-3.9-3.3-5.8-4.9 2.9 1.6 6.4 2.7 8.5 5 1.8 2 2 5.5 3 8.3.3 1 .6 1.9 1.3 2.5 2.6 2.9 5.2 5.6 4.9 10-.1 1.3.6 2.7.5 4-.5 8.1-6.2 11-13.4 8.2-4-1.6-7.4-5-11-7.4-4.6-3.1-9.2-6.2-14.4-9a24.7 24.7 0 01-2.6 21c6.6-.3 12.8-.7 19-.8 2.9 0 5.8.3 8.5 1 3.5.8 5.7 3 6.2 7 .2 2.3 1.5 4.4 2 6.7.2.9-.2 2.5-.9 3l-16 10.2c2.8 0 3.5 3 4.4 5.5a25 25 0 01.3 17.5c6 .8 11.2 3 16 6.3 5.5 4 9.2 9 11.4 15.3.4 1 .5 2.2.5 3.2.4 5.7-.1 6-5.6 5-5.6-.8-11.3-1.3-17.8-2 .9 3.4 2.1 6.2 2 9 0 3-1.4 5.7-2 8.1 1.4 4 5 4.4 8 5.3l16.2 4.7c1.2.4 2.4 1 3.5 1.5l-25.7-5 3.5 9.5c3.2-4.4 6.5-6 11-4.9 3 .7 6 1 9 1.2.7 0 1.4-.6 2.1-.9l2.9 1.8c-2 3.7-4 7.6-6.4 11-.9 1.3-3.3 1.5-5 2-3.2 1-6.5 1.6-7.5 5.6-.4 1.4-2.2 2.4-3.6 3.8 2.8 7.4 3.3 15.4 3.9 23.5.5 6.3-3 10.2-7.1 14-14.9 13.5-33.6 18.9-52 24.7a695 695 0 01-45 12.4c-44 10.7-87.9 21.4-132 31.3-16.7 3.8-34 5.5-51 7.6-12.1 1.5-24.3 2-36.5 2.9-7 .5-13.7-2-19.9-4.7-3.2-1.5-6-5.8-7.4-9.4-2-5.3-2.8-11.1-4-16.8-.4-2.8-3.7-5.4-6.4-4.7-4 1-5 .6-6.5-3.8l-4.3 3.6c-1.6 1.4-3.4 2-5 0-1.8-2-3.5-4.2-5-6.5-1.4-2.5-2.6-4.8-6-5.5-2.5-.5-3.8-3.3-3.5-5.9.1-1.1.3-2.4 0-3.5-.8-3 .5-4.6 3.2-5 3.5-.7 5-2.5 4.6-6.1-.3-2.6 1-4.5 3.7-5.3l8.9-2.8-7-17.5-2.4 2.3c-1.6 1.5-3.2 3.2-5 4.5-3.2 2.1-5.7 1.4-8-2.1l6.1-6.7c-2.9 1.3-5 2.4-7.2 3.2-3.2 1.2-5.6-.1-6.3-3.3-.2-.7.6-1.7 1-2.6.1 3.4 1.5 4.2 4.5 2.5l14.2-8.3 17-9.3c1.5-.7 2-1.7 1.3-3.3-.8-1.7-2-1.3-3.2-.7l-2.7 1.3-31.2 18zm198-25.2l-4.2-2.8.1 5.3 4-2.6c.5-.6 1.3-1.2 1.3-1.8-.2-1.3-.8-2.5-1.3-3.8h-.8c0 .8-.4 1.6-.2 2.4.2 1.1.7 2.2 1.1 3.3zM186 152l4.2 7.3c-.2-2.5-1-4.6-1.7-6.8-.6-1.7-1.5-1.5-2.6-.5-.8 0-1.5-.2-2.3-.3l-.8 1 6.1 8-3-8.7zM378.5 289l2.3 1V284h-.6l-1.7 5.3.4-5.4-6.6 2.3 6.2 3zm-79.7 16.1l-4-1.7-4.6-1.8c-5.2-2-10 .1-15.7 1.2l23.6 8-6.8-6 .7-1 6 2.9c2.1 3.7 5.1 4.9 9.5 3.7 0-.5-.2-1-.3-1.4l3.6 1.3.3-.9c-4.8-4-10.3-6.9-16.3-8.7l12.5 8.4-3-1.5-5.5-2.5zM128.1 189.8l.4-4.7-6.7 8.4c1.1 0 2.3.2 2.8-.2 1.3-1 2.4-2.4 3.6-3.7l-2.6 6.4-1.4-.5 2.7 1.8c3.7-5 4.6-8.8 2.6-10l-1.4 2.5zm11.2 17.8c.6-.7 1-1.6 1.8-2.2l4.7-2.9-.4-.8L135 204c0 1.6.2 3 .3 4.5l3.3-.1c2 0 3.9.2 5.8.1.2 0 .4-1 .6-1.9l-5.7.9zM69.6 359.9c.8 0 1.8.3 2.4 0l19.7-10.5c.5-.3.9-.8 1.3-1.2l-.5-.6-18.2 10c.7-.8 1.4-1.7 2.2-2.2 4.1-2.3 8.3-4.5 12.5-6.6 3.3-1.7 6.7-3.2 10-4.8-10.4 3.3-20 8.3-29 14.5-.3.2-.3 1-.4 1.4zm177.6-166.5c.6.3 1.6.6 1.6 1 0 .6-.5 1.4-1 1.9l-3.2 2.3c1.7 2.7 2.8 1.4 4 0 1-1 2.3-1.8 4-3.2l-1.5-5.9c-1.9 1-4 1.2-3.8 3.9-1.6.4-2.7 1.6-4.8 1.2-2.2-.4-2.3 1.5-1.1 3.4 2.4-1 5.6-1 5.8-4.6zM131.8 182l1.2 1.3c.4-.6 1-1.1 1.2-1.7.7-3.6 1-7.4 2.1-11 1-3.2 3-6.2 4.6-9.3a93.4 93.4 0 00-5.6 22.1c4.3 1.2 8 2.3 11.9-.4 1.4-1 3.6-.7 5.3-1.5a9.3 9.3 0 003.7-2.7c.4-.6-.3-2-.7-3-.2-.8-.8-1.4-1.2-2l.6-.5 4.4 5.7c.4.5 1.1 1 1.7 1 5.7.3 9.3-2.6 11.2-7.8 1.2-3 .3-5.5-.5-8.2-2-6-.6-9.7 5.5-11.8 4.3-1.6 9-2 13.6-3-.7-.6-1.7-1.6-2.8-2.4-1.4-1-2.9-1.8-4-3a15.5 15.5 0 00-12-4c-5.2.2-10.2 1.9-13.8 5.4-5 4.9-11 6.9-17.6 7.8-.9.1-1.7.3-2.6.6-5.4 1.7-10.8 3.4-16.2 5.4-1.3.4-3 2.6-3.4 2.3-2.4-1.6-2.7.7-3.5 1.6-2.4 3.1-4.5 6.4-6.8 9.6-.3.3-.8.4-1.9 1l8.2-14.7c-1.4-.4-3.4-.6-5.2-1.3a20 20 0 00-16 .8 50.4 50.4 0 00-17.6 11.5c-9.9 10.7-19.2 21.9-28.9 32.7a34.3 34.3 0 00-8.6 15l15.2.8c9.2-19.8 15-29.3 19-30.7l-.3.8c-6.8 8-11.5 17.3-15.9 26.9-.5 1.2-.6 2.6-1 4 .5 0 .8.2 1.2.3 3.4-7 5.4-14.9 10.3-21.1l1 .3-5.8 21c1.5 1 3 2.1 4.3 3.2 2.3 1.6 4.8 1 7 0 2.2-.9 4.1-1.9 4.3-5 .3-3.6 1.3-7.2 1.9-10.8.1-.8-.2-1.7-.3-2.5l-.2-1.9c.2-2 .7-4.2.8-6.3.2-3.2 0-6.5.3-9.7.5-5.2 3.7-9.2 6.5-13.3 3.7-5.6 11.8-6.1 15.7-.7 1.7 2.2 2.8 4.7 4.3 7 1.1 1.7 2.5 3.3 4 5.2 2.5-4.2 4.5-8 6.8-11.5.7-1 2-1.7 3-2.5.1.7-.2 1-.4 1.4l-7.2 11.4c-.8 1.4-1 2.9 1.1 3 3.4.5 6.3 1.4 8.2 5.3 2-3.8 6.8-5.6 3.8-10.4-.2-.3.2-1 .3-1.4l1.5-5.7c1.7-10 9.2-14.6 16.8-19.2l.6.6-3.2 3.6-5.5 6.4-.3-2c-3.2 3.1-7 14-6.1 17.9.4 1.7 1.3 1.4 2 .1zm-.8 16c.1-3.1 3-5.8 1.8-9.5-1.4 2.8-2.6 5.1-3.6 7.5-.4.8-.6 1.8-.9 2.7l2.8-.8-.2 1.5c1.9-.2 3.8-.1 5.6-.5 1.2-.3 2.2-1.3 3.6-2.2.8-2.8.8-2.8-1-3.8l-1.3 3.4-.2-5h-1l-1.8 4.5-.4-.2 1-5.3h-.4l-4 7.6zm247.3 72.7c.6-.2 1.4-.2 1.8-.6 1.2-1.2 3.3-3 3-3.6-1.5-3.8 1.4-4.2 3.6-5.5-.4-3-1.5-5.5-4-7.2l-1.1.2.8 8.2-3-1.2a4 4 0 00.8 3c1.5 1.8 1 3.5-1 4.6-.5.3-.5 1.4-.8 2.1-1.6-.5-1.6-1.2-.5-2.5 1.4-1.7 1.2-2.4-.8-3.3-.1 2.7-4.3 5 0 8.3l1.2-2.5zm-173.5-35.6l-1.8-.7-.4 2.2-1.7-1.3c-.2.8-.6 1.7-.4 2.5l3.3 14.4c3.5-4.2-.4-8.4.5-12.6l2.4 10.3 1-.2c.7-5.2-1.7-9.8-3-14.7l4.7 11.3c-.2-4.7-.7-9.2-4.5-13.3l-.1 2.1zm37.3 16l-6.3 1c1 .9 2.1 1 3 1.4 6 2.2 11.9 4.2 17.6 6.7 3.2 1.4 3.2 1.7 6.4-1.2l-14.5-5.6-6.2-2.3 21 7c1.2.4 2.5.1 3.7.1l.2-1.3-16.7-6c-2.9-1.2-5.5-1-8.2.2zm97.6 42.6c3.2.3 6.2 0 8.5-2.8a80 80 0 00-9.2 1.4c-.2.1-.3.7-.5 1l-11 1-25.3 4c-.8.1-1.5.6-2.5 1l12.3 6.4 7.6-7.3.6.5c-2 2.8-5.8 4.5-5.6 8.8 1.6-1.1 3-2 4.3-3.1 4.4-3.5 8.7-5 13.8-.9 3.6 3 7.7 2.6 11.5-.1 4.9-3.5 9.7-7.2 14.7-10.7 1.7-1.2 3.7-2.1 5.6-2.9 2.3-.8 4.7-1.4 7.1-2l-.2-1c-10.4 0-20.7.8-30.8 4l10.7-1.9c-1.9 2.3-4 4.4-6.6 5.5-1.3.6-3.3-.6-5-1zm-42.9-162.9c1.8-3.7 3.7-4.2 7-2.3 5.8 3.3 8.1 9 10.7 14.5 2.2 4.7 3.7 5.5 8.7 4.2l2.3-.7c4.4-1.6 8.6-1.3 12.8.8-3.5-5.5-9-2.3-13.7-2.6v-.9l13.6-1a22.3 22.3 0 00-14.2-.7c2.2-.7 4.4-1.6 6.6-1.6 3 0 6 .3 8.9 1 1 .3 1.7 2.1 2.4 3.3.5.7.8 1.6 1.2 2.4.5-1 1.5-2.2 1.2-2.9-.8-1.7-1.9-3.8-3.4-4.7-1.8-1-4.2-1-6.3-1-4.5.1-9 .6-13.5.8-4.3.2-5-.5-6.8-4.5-1.3-2.6-2.5-5.4-4.5-7.5-1.4-1.6-3.9-3-6-3-6-.6-10.3 2.5-12.2 8.4-.6 1.7-.9 3.4-1.3 5.2-1 4.7-2.7 5.3-6.2 2-2.6-2.4-5.2-4.5-9-3.7 5.6-2.8 8.3 2.4 11.8 4.5l7.2-16c-1.8 2-3.5 3.9-5 5.9-2.2 3-4.4 3.5-7.5 1.5a6 6 0 00-2-.7c-6.8-1.5-14.9 4-16 10.9l-1.6 7.1c4.5-2 9-3.7 11.7-8.2 1.4-2.3 3.5-3.7 6-2.5 2.2 1 4.5 2.8 6 4.8 1.7 2 3.3 2 4.7.7 1.4-1.3 2.1-3.4 3-5.1.8-1.3 1.3-2.7 2-4-.3 4 3.8 3.4 5.8 5.3l-1.3-8 .9-.2 1.4 6.1c.6 2 .7 4.5 3.6 5.4l-3.4-11.1c-1.4-4-2-4.2-5.6-1.9zM37.1 267c0 .9-.5 1.7-.3 2.4.7 2.6 2 5 2.4 7.6.5 3.8 1.5 4.5 5 2.9l-4.6-11.4c-.3-.7-1.1-1-1.7-1.6l3.1.4c0 .7-.3 1.4 0 2 1.2 3.1 2.6 6.3 4.1 9.4.4.6 1.8.8 2.7 1.1l.3-.7-4-8.2c1.8 2 3 4.5 4.4 6.7.4.6 1.8 1 2.5.8 7.9-3 15.9-5.6 23.6-9.2 7.6-3.5 15-7.6 22.4-11.8 7.7-4.4 15.3-9.2 23-13.8 5-3 10.3-6 15.4-9.2 1.8-1.2 3.2-2.8 5.2-4.5-5.2-.9-7.8 3-12 4.5l5.8-5.5-.5-.8c-3.1 1-6.4 1.8-9.3 3.2-12.2 6.2-24.2 12.7-36.4 18.9-6.3 3.2-12.8 6-19.2 8.9l-.2-.4 37.4-19.1c-1.3-.2-2.4.2-3.4.7-14.1 6.3-28 12.8-42.3 18.8-5.9 2.4-12 5.4-18.8 3.6-2.6-.6-3.1-1.5-1-3.3 2.7-2.4 5.8-4.3 8.9-6.2 2-1.3 4.2-2.3 6.3-3.4l-.4-.9-6 2.8c-4.9 2.6-10.3 4.3-14.6 8-2.3 2.2-2.5 3.6-.1 5.7L37 267zm311.7 3.8l1 5.8c1.4-2 2.6-3.6 3.6-5.3.8-1.5.4-2.6-1.3-2.3l-.9-7.5.9-.3c1 2.2 2.3 4.3 2.7 6.6.4 2.4 0 5-.1 8.3l5.2-3.8v2.1c2.8.3 4.6-.3 4.3-3.6l-2.6-.3c.8-1.7 1.4-3.4-1-3.4l6.5-5.3c.4-.3.5-1.2.4-1.8 0-.3-.7-.8-1-.8-2.4-.3-6.1 2.6-6.6 5l-.7.3-1.6-1.9c5.2-3.5 5-5.7.2-9l-1.6 3-.8-.4-1-3.1-2 7.2-.5-.3-1.8-5-1 .2v2.4l.6 11c0 .7-.6 1.4-.9 2.1l-2.8-7.2-2 1.4 1.1-4-6.9 5-2.3-2 5.5-6.7c-3.7-4.1-6.9-.3-9.5-.9L330 262c.8 0 1.7-.6 2-1.4.5-.9.5-2 .7-3 1 2.5-2.4 9-4.5 9.5-.6 0-1.4-.6-2-.8.4-2 2.6-4.1-1-5l1.3-3.2-4.4 1.3c-1-1-2.2-1.6-3.4-1.7-6-.7-10.8 2.4-15.9 4.6a6 6 0 01-2.9.7c-7.3-1-15.8 1.1-22.4 5-1.4.9-3.6.3-5.4.4-.5 0-1 .3-1.5.4l1.2 4-2.8-1.9-.4.6 2.1 3-.4 1c-2.5-3.6-5-3.7-8.6-2-4.4 2.1-1.5 6-3.2 9.2l-.5-7.2-3.8 2.2c-9.1 5.6-9.2 5.6-5.5 15.5.3.9 1.4 1.4 2.2 2.1.1-1 .5-1.9.5-2.8l-.1-10.4h.8l.1 2c.5 4 1 8.1 1.7 12.2.4 2.1 1.8 2.6 3.5 1l-2.8-3.5.3-.3 3.2 2.4-2-14.5h.7l.9 4.6 1.8-.7 2.6 7.1-.7.3 2.5 1v.5l-3.7.9v1l7.9.5.2-1-1.6-1.7c3.5-2 3.7-3.3 1.2-5.5a15 15 0 01-5.2-.9c-1.2-.4-2.2-1.4-3.3-2.1v-2.1l1.8 1.3c3.2 2.8 3.6 2.8 6.5-.6l2-1.9.9.8-3 3.3a8 8 0 008.6 3l-5 2.5 1.9 3.1 5.3-2.5c1.2-.6 2.3-1.4 3.5-2.1l2.5-1.7c3.8-1.9 9.3-1.4 10.4-7.3 0-.3 1.2-.5 1.9-.7.1.8.7 2 .3 2.5-.6 1-1.8 1.6-3.1 2.7 6.5-.2 10.3-2.6 10-9.5l1 .2 1.1 5.6 3.6 2.6 1.2-2.6c1-2.3 1.3-5.6 4.4-5.8 3-.3 3.4-1.8 3.4-4 0-1.4.2-2.7.3-4h.9l2.3 2.3-.7-3.2 3.2-.8c-.3 1.3-.8 2.5-.9 3.8-.3 3.5-3.5 8.4-6.4 9-2.8.6-4 2.1-4.1 5.2 6.5-3.8 11.9-8 13.3-15l6 .9.2-.8-.6-.5c-.5-.7-1-1.5-1.3-2.3.5-.2 1.3-.7 1.4-.6.6.6 1.1 1.4 1.4 2.1.4.9.5 1.8.7 2.7-2.4 4-3.3 9-7.4 12 4.7-1.6 9.8-2.6 10.6-8.8.4 0 .7.2 1 .3l.4 5.5c3.6-.3 1-4.7 3.7-6l.9 4.5c3.2-.6 3.3-.8 3-6.6l2.2-1zM77.6 274c3 4.5 6 9 8.8 13.5 1 1.6 2 1.6 3.7 1 7-2.9 14-5.8 21.1-8.3 7.9-2.8 15.7-5.8 24.4-5.8l-7 2c1.7.3 3 0 4.5-.3 3.4-1 6.9-2.4 10.4-3.1 18-3.7 35.1-10 52-17.2.8-.4 2-1.6 2-2.3l-1.8-15.8-3.7 1.5c-13.7 4.5-27.1 9.5-41 13.3-16 4.3-32.4 7.2-48.5 11.2-7.9 2-15.5 5-23.2 7.6-1.3.5-2.5 1-1.6 2.7-2.2-2-3.4 0-5.1 1.1l8.6 14c2 3 2.5 3 5 .6L77.6 274zm168.3-157.4v-.8l11.2-1.1A433 433 0 01319 111c10.8.4 21.6.8 32.4.4 12.6-.5 25-.6 37.3 2 1.4.4 3 .5 4.3.3 2.6-.5 4.1-1.7 4-4.9a61.6 61.6 0 00-9.9-29.6 108.7 108.7 0 00-27.2-30 239 239 0 00-88.5-42.4 160.6 160.6 0 00-61-2.5 5 5 0 00-2.9 1.4c-2.2 2.6-6.2 2.3-8.3-.9l2.1-1.6c-11.2 2-22.4 4-33.1 7.3-11.7 3.6-23 8.3-34.3 12.7-.8.3-1.5 1.5-1.7 2.4-.5 3.2-2.6 4.3-5.8 2.8-1-.5-2.2-.4-3.5-.6.2 4.4-1.5 6.3-6 5.8-2.9-.3-5 .7-7.3 2.1l-4.8 3c-2 1.3-4.4 2.3-5.4 5-.3.8-1.9 1.2-2.9 1.7-1 .4-2.3.4-3 1-7.3 5.7-14.5 11.2-21.5 17.2-14.1 11.9-27 25-36.7 40.9-2.5 4-4.6 8.3-7 12.8 2.8.3 3.1 1.8 2.6 3.6-.6 2.3-2 4-4.5 4.5-.8.2-1.8.8-2.1 1.5a70.4 70.4 0 00-3.9 50c1 3.2 2.5 6.2 3.9 9.8 7.8-8.7 17.3-14 26.6-19.1A254.9 254.9 0 0198.3 147c17.5-5.3 35-10.7 52.6-15.7 17-4.7 34-8.8 51.6-9.8 5.2-.4 10.4.6 15.7.6 2.7 0 6.1 0 8.2-1.4 5-3.6 10.2-3 15.7-2.1 2.5.4 5 1 7.4.8 7.4-.6 14.8-2.1 22.3-2.3 20.8-.3 41.6-.1 62.5-.1h7.6c-.7-.6-1.4-.7-2-.7-21.3-.8-42.6-3.4-64-1-4.1.5-8.4 1.9-13 0-2.7-1-6.5.5-9.9.8l-7.1.5zm29.8 215v1.4c-1.6.1-3.4-.1-5 .3-4.5 1.2-8.9 2.7-13.3 4.1l-19.7 6.4-.2-.5 19.7-6.7c-7.3 1.8-15 2.1-22 6-4.3 2.4-9.7 3-14.6 4.4l-6.6 2.1.3.9 16.5-4.8.3.9-22.5 7.4v3.4l-.7.8c-.9-5-3.6-3.2-6-2.5-5.1 1.4-10.2 2.7-15.2 4.2-1.6.4-3 1.5-4.8 2.4l-1.3-3.4h-1l.4 7-.6.3-3.5-6.4c-.3 0-.6.2-.8.3l1 4.2-.6.2-1.7-5h-.5l.9 5.8-1 .2-1.9-6.3-.4.1v3.5h-.5l-.8-2.4c-1.7 4.9.6 9.4.3 14.2l-2.5-10.4-1.1.2 1.4 10.7h-.6l-2.4-10.2c-2.6 3-.2 5.7-.7 8.4-2.5-6.6-2.5-6.6-4.1-7.3l7.3 43 3.2-.7c-2-8.1-4.3-16-3.4-24.4.8 2.6 1.4 5.2 2 7.8l3.2 14.3c.4 1.5 1 2.7 3 1.5-.9-4.7-2.9-9.3-1.6-14.2 1.3 4 2.2 8.1 3.3 12.1.2.7 1.2 1.2 1.8 1.7.2-.7.8-1.4.7-2.1-.4-3.6-1-7.2-1.5-10.7 1 3.3 1.8 6.6 2.5 10 .3 1.2.4 2.5 2.4 2.2 2-.3 1.6-1.6 1.4-2.9l-1.4-8.8c.9 3.2 1.5 6.4 2.4 9.5.2.6 1.4 1.3 2 1.2.6 0 1.4-1.2 1.4-1.9-.1-2.1-.7-4.2-1-6.4v-5.2h.7l3 12.2h.3l-.9-10.8h1l1.4 10.8c2.5.3 3-.7 2.7-2.6-.3-2.1-.2-4.3-.3-6.5h.8l1 8h.6l2.6-7.6h.6l.6 4.5.7.5c.5-.8 1.2-1.5 1.4-2.4.4-1.5-.2-3.4 2.3-4 0 1.8.2 3.4.3 5l1 .3 1.7-6.3 1 .1.2 5c4.4 1.5 1.5-4.4 4.6-4.2l1 3.2h.5l.6-5.4h.8c.2 1 .4 2.2.8 3.3.2.6.9 1 1.4 1.4.3-.6.8-1.2.9-1.8v-3.7h1l1.1 4.9c4.2-1 .4-4.7 2.8-6.4l1.2 5.2c2.5-.2 5.2.3 5-3 .5.5 1.1 1.6 1.7 1.6 1.5-.1 3.4-.3 4.4-1.2.8-.8.5-2.7.7-4.1h.5l1 3.4c4.6 1.2 3.4-2.8 4.5-5.4l1.3 4.3 3.7-1 .2-4.8h.6l1 4c4 .3 4.4-2.3 5-5.1 0 1.1.2 2.2.5 4 1.6-1 3.3-1.4 3.9-2.6.6-1.2.2-3 .2-4.6h1l.7 5.3c1.6-1 3.4-1.4 4-2.4.6-1.3 0-3 0-4.7h1l1 8.2c2.5 0 4-.8 3.6-4-.5-3-.7-6-1-9h.6l1.6 11.4c2.5-.6 5.2-1 7.6-2 .6-.1 1.2-1.6 1.1-2.4 0-2.1-.4-4.2-.7-6.3l.5-.1 1.4 8.3 12.4-3.5 46.5-13.4c4.7-1.3 9-2.6 8.5-8.8l.3 5.5c2 .1 3-.4 2.8-2.4l-.4-7.5h.5l1.1 8.7 1.4.1c1.6-2.5-.2-5.6.5-9.1l1.5 9 4.6-3.8c.5.2 1.5 1 2.1.8.8-.4 1.6-1.4 1.7-2.3.4-2.3.5-4.7.7-7h.8l.5 8c2.8-.5 4.2-1.7 4-4.5 0-2.2.3-4.4.5-6.6h.6l.2 8.7c4-1.2 4-1.2 4-4.8l-.1-8.8h.6l.8 11.1c3.5-.4 4.8-2.2 4.6-5.4-.2-3.7 0-7.4 0-11.1h.8l.5 13.6c3.7-.3 4.7-2.3 4.6-5.4-.2-3.5 0-7 0-10.5h.8l.3 13.2c2.8-.3 4-1.6 4-4.4l.1-13h.7l.6 14.8c3-.6 4.5-1.8 4.5-4.9 0-4 .4-7.9.6-11.8h.6l-.1 14c2-.8 3.6-1 3.7-3.5a142 142 0 00-3.5-33.4c-.1-.6-.5-1.3-.8-2l-1.1.2c0 1.8.2 3.5.3 5.2h-.4l-1.8-4.7-1 .3.3 4.1c-3.4.8-6.6 1.5-9.8 2.4-2 .5-4.2 2.3-5.8 1.8-2.7-.6-3.5 0-4 2-.7-.4-1.4-1.2-2-1.2-.5 0-1 1.1-1 1.1-1.5 0-2.7-.3-3.8-.1-12 2-23.1 7-35.2 8.3-.9.1-1.7.4-2.8.7l.6 6.1-1.5-5.2-.9.2 1.4 9.3-.5.1-3.1-13.2-.6.1 2.3 12.1-1 .2-2.5-11-5.2 3 1 6.6c-2.7-5.8-2.7-5.8-3.9-5.8l1 5.9-.8.2c-.4-1.2-.8-2.5-1-3.7-.4-1.2-.1-3-2.6-2l1.5 6.3-.7.2-2.4-6.9c-.3.2-.7.2-1 .3l1 7c-2-2-.4-5.7-4-7l.4 5.1-.8-1.6c-1-2.8-1-2.8-4-1.8l-.4.1c-2.6 0-5.2 0-7.8.2-1.6.1-3 .5-4.8.8l-.6-4.6c-2.3 2-4.5 3.7-6.2 5.6-2.8 3.2-8.1 4.2-11.3 1.4a4.5 4.5 0 00-4.5-1l-30.9 7.9c-.9.2-1.6 1-2.4 1.6a3 3 0 002.3.1 97.1 97.1 0 0129.6-6.3l6.4-.3zM153 368.8c8.7-7.3 16.7-15.3 23.4-24.6 10-13.8 20.1-27.7 30.9-41a154.1 154.1 0 0148.2-39.6l2.1-1.4c-7.2-4-14.6-6.8-22.3-8.4-2.1-.4-4.6.1-6.7.7-3.8 1-7.3 2.8-11 3.7-11.8 2.9-24 4-34.8 10.2-11 6.2-23.4 8.8-35.6 11.3-13.5 2.7-27.1 5.1-40.4 8.7-9.7 2.6-19 7-28.4 10.5-2.9 1-3.6 3.1-2.9 6 1.5 6.1 4.7 11 9 15.3a97.3 97.3 0 0032.8 21.6c14.3 5.6 27.5 13.2 35.7 27zM209.2 161l.3 1.2h2c30.2 0 57.8 7.4 81.2 27.5.8.8 2.8 1 4 .5a978 978 0 0030-13 166 166 0 0046-29.8l2.6-2.5c-9.8-3.4-25.5-3.2-29 .6l7.2.1-15.4 6.5 2.4 2.5c-6.4-2.7-6.4-2.7-9-1.2 1 .6 2 1 2.8 1.6l2.5 2c-4-1.1-7-4.8-12.2-3.4 2.3 1.6 4.1 3 6 4.2l-.5.7c-4-2-7.5-6-12.9-4l6 3.4c-2.9-.7-5.5-2.1-8.2-3-2.7-1-5.5-1.4-8.3-2l-.3.7c3.8 1.8 7.8 3.3 10 7.3-6-3.8-11.7-8.3-20.1-8.2l10 5.3c-5.6-2-10.7-5.3-17-5.2 1.4 1 2.8 1.4 4.2 2.2 1.4.7 2.6 1.7 4 2.5-5.6-2.1-10.8-5-17-4.5l7.2 3.6c-3.7-.8-7.2-2-10.7-3.2-1.4-.4-3.8-1-4.2-.4-1.2 1.9-2.4.5-3.7.5-2.2 0-4.5-.3-6.7-.1-9 .7-18 1.4-27 2.6-8.8 1.3-17.5 3.3-26.2 5zm195.3 45.6l-3.7.4c-9 1.2-18 2.8-27.2 3.5-21 1.7-41.9 4.4-62.3 9.8-7.8 2.1-15.4 5.1-23 7.9-.7.2-1.5 1.4-1.4 2 1 5.4 2.3 10.8 3.6 16.2.4 2 1.7 2.3 3.6 1.2L290 230c1.5 4.5 2.4 9.1 3.7 13.7 1.2 4 1.5 4.1 5.3 3 22.5-6.8 45.6-9.6 68.8-12.2 11.4-1.3 22.7-3.8 34-5.8 1-.2 2.6-1 2.6-1.7.2-6.7.1-13.5.1-20.5zm16.1 20.2l-.3.8c5.4 3.5 9.9 7.8 13 12.6l-13-11.4c-1.8-1.6-3.7-1.4-6-.2l4 3c-.8.1-1.3-.2-1.7-.5-2.4-2-4.8-2.2-7.8-1.1-15 5.2-30.3 9-46 10-20 1.3-39.2 6.4-58.1 12.6-1.5.5-2.9 1.3-4.3 2l.3 1c1 0 2 0 3-.2l27.6-6.2c3.5-.8 7.2-1.6 10.8-1.7 9.9-.4 19.8-.3 29.7-.6a320 320 0 0172.5 5.3l1.4.1c-.5-10.6-11-24.5-18.3-24.5 9.5 7.6 16.5 17.2 16.1 22.5l-2.8-5.4a41.4 41.4 0 00-15.7-16.7c-1.3-.8-3-1-4.4-1.4zm-82-20.4c-.8-8.7-1-8.8-9.1-8.1h-.6c-20 2.3-39.8 6.2-59.5 10.9-9.7 2.3-19.6 4-29.4 5.9l-4.7 1L237 228l1.4.2c11-1.5 22.2-2.3 33-4.7 22.1-5 44-11 66-16.5.4 0 .8-.3 1.2-.5zM79.4 383.5c6.8 6 20.3 4 24.3-3a7 7 0 00.9-1.9c1.4-5.7 5-9.6 10-12.2 4.5-2.4 9.4-3.4 14.6-2.2 2.6.6 5.2.8 7.5-1.1 2.2-1.9 2.5-3.5.2-5a89 89 0 00-13.2-7.5c-2.6-1.2-5.9-1-8.8-1.3 2.2 2.7 5.5 3.6 7 7.4l-15.8-6.9c3 5.6 8.8 7 13.3 10.4a94 94 0 01-12.7-3.2c-6.6-2.1-13-2.8-19.3 1-1.3.9-2.8 1.4-4.2 2.1-5.6 2.8-11.1 5.9-16.8 8.5-2.1 1-4.1 1.5-3.6 4.4l2.3.1c4-.1 4.1 0 5 4 .4 2 1.1 3.9 2 5.7.2.6 1.2 1.3 1.7 1.2 2.4-.6 5.2-1 7-2.4 5.5-4.2 10.7-9 15.9-13.5.6-.6.9-1.6 1.3-2.5l-.7-.6-5.6 2.8c1.5-2.1 3.1-4 5.1-5.4 3.1-2.2 6.3-5.3 10.2-1h.8c2.3 1 2.4 2.8 1.8 4.7-.5 1.8-2 2.2-3.7 2a4 4 0 00-2.7.7 17 17 0 00-3.5 3.5c-3.7 5.3-9.6 6.6-15 8.9l-5.3 2.3zm154.2-192.1c-1.7 1.5-3.3 2.4-4.1 3.8-2.2 3.7-2.2 3.8-6.1 3 2.7-2.6 5.7-5 8.3-7.9.8-.7.6-2.4.7-3.7v-5l.9-.8c-5.5-.8-11.1-2.7-16.4-2-12.6 1.7-25 4.7-37.4 7.1l-2.1.7-.2.7 3.4 1.7-3 3.6.5.5 3.6-2.7c0 1.2-.3 2.4-1 2.6-1.6.5-3.5.6-5.3.9h-1.8c-.3 1.9-.7 3.8-.5 5.7 0 .4 2.2.7 3.4 1 .7.4 1 1.6 1.5 2.8.6 1.5 2 1.5 2.7.3 1-2 2.1-1.5 3.8-.9 1.3.5 3 .2 4.6.2l.9.1.7 2.1c1.8-.4 3.9-.3 5-1.3 1.2-1 1.4-3 2.1-4.8 1.3 1.3 3.6.9 4.5 3.4.6 1.8 2.8 1.4 4.3.6l2-1.7c1.7 2.9 4.4 2 6.5 1.6 2.7-.5 3.4-2.9 3.3-5.2l-3.2 1-.4-1 5.5-2.2.4 3.3c.4 2.5-2.5 5.6-5.1 5.6-2.9 0-5.7.3-8.5.4 6.9 2.6 13.2 2 19-4.3l.6 4.3c3.8.2 4.1 0 6-3.4.4-.6 1.2-1 1.8-1.4l.9 2.2-.1 1.1.6.3 2.8-4.7-5.9.2 3-2.8 2.1.6.2-1.7c-2.6 0-5.5.7-4.5-4zm193 90.6l1.2-.4-1-5.6c-.7-4.4-2-5.2-6.4-5.6-3.8-.3-7.4-1.4-11.1-2.2-3.6-.7-7.2-2.6-10.6-.5-5 3-10 6.2-14.7 9.6a6.6 6.6 0 00-2.3 4.4c-.3 3.4 0 6.8.1 10.3 0 2.6 1.8 2.7 3.7 2.3.8-.1 1.5-.9 2.3-1.1 3.4-1.2 6.8-2.5 10.2-3.4 3-.9 6.5-.6 9-2.1 4.8-3 9.1-6.8 13.6-10.2l3.7-3 2.3 7.5zM149.9 410l.9-.2-3.7-22c1 1.4 1.3 3 1.7 4.4l4.6 16.5c.2.7 1.4 1.2 2.1 1.7.2-.8.6-1.6.6-2.5 0-1-.3-1.9-.5-2.9l-3.2-20.4 1-.2 1 4.1L158 408c.4 2.3 1.6 2.4 3.2 1.3-.9-10.2-4.4-20-3.8-30.2 1.4 5.8 2.5 11.6 3.5 17.4.7 3.6 1.2 7.3 2 11 .1.6 1 1.1 1.5 1.7.3-.6 1-1.3 1-2 0-1.3-.4-2.6-.6-4-1-7.5-1.8-15-3-22.4-.8-5-2.3-9.9-3.5-15-1.3 1.1-2.3 2-3.3 3.2-1.8 1.8-3.2 2-4.6-.4-1.1-1.8-2.5-3.5-3.8-5.2l-1 .5 1.1 18.7h-.8l-2.6-17.5c-.4 0-.7 0-1 .2-1.5 15.5 3.6 30 7.6 44.7zm66.6-153.7c3.3-1.1 6.7-2 9.9-3.3 4.4-1.9 8.6-4.2 13-6.2 3.6-1.8 7.4-3.2 10.9-5.1a179.8 179.8 0 0140.2-18c.6-.2 1-1 1.6-1.4-.8-.2-1.5-.8-2.2-.7-2.9.4-5.8 1-8.7 1.6-17.5 4-34 10.8-50.5 17.9-3.5 1.6-6.7 2.3-10.3.1-1.8-1-3.8-.7-4.8 1.3-1.7 3.4-4 7-.6 10.8.5.6.8 1.5 1.5 3zm15.3 69.5l-.4.4c1.3.4 2.7 1 4 1.2 1 .2 2.2-.3 2.7.2 2.6 2.3 5.1 1 7.8.2 8.3-2.4 16.6-5 25-7 3.3-.8 7.2-1.3 10.4 1.3.3.3 1.3.1 1.9-.1 1.7-.8 3.5-1.5 5.1-2.5 2.7-1.7 5.2-3.4 7.7-5.4.5-.4.7-2 .4-2.4-.6-.6-2-.9-2.7-.5-4.1 2.2-8.4 1.1-12.6.6a374 374 0 00-17.3-1.5c-1.6 0-3.3.5-5 .9l-4.7 1.1-14.2 2.5.2.8 6.6-.8 6.7-.6.1 1.2-18.6 2v.5l15-.4v1.3l-19-.1v.7l16.3 1.5v.8c-5 1-10 .5-15.2-.3v1l12 1.6v1l-12.2.8zM11.5 235.6c4.1-1.5 4.3-1.5 7.4 0 1 .5 2.4 1 3.5.8 5.6-1.2 10-9.7 7.7-14.7-1-2-2-4.4-2-6.7-.1-2.1-.8-3.4-2.4-4.6-3.8-3.2-5.8-7-4.2-12.2.2-.9.1-1.9.2-2.8l-1-.3c-1.5 2.8-3.3 5.6-4.2 8.6-1.3 4.6-2 9.5-3 14.3-1.4 6.2-3.5 12-10.3 14.4-.3.1-.6.4-.8.7-1.8 2-1.6 4.7 1 7 1.1 1.2 3.1 1.6 4.8 2.2.5.2 1.5 0 1.9-.4.7-.7 1.5-1.7 1.7-2.6.1-1-.3-2.3-.6-3.4-.5-2.5-.6-4.8 1.6-7.2l-1.3 7zm355.1-39.2l1-.2 2-.9c12.7-6 26-10.2 40.2-11.4 6.3-.5 12.8-1 18.5 2.8.2.2 1.5-.7 1.5-.8-.6-2.3-.7-5-2-6.6-1.6-1.8-4.2-3-6.5-3.6-3.1-.6-6.4-.6-9.7-.5a83.8 83.8 0 00-38 8.6c-5.2 2.6-7.6 6.6-7 12.6zM94.4 342.1h-1.7c-12 .8-23.4 3.9-34.5 8.4-3.3 1.4-3.5 2-2.3 5.7l15.5-5.5c0 .4.2.8.4 1.1l-25 10.2c1.6.8 2.4 1.5 3.4 1.7 3.5 1 5.5 3.5 5.9 7 .2 2.4 1 4.8 1.6 7.1.6 2 1.3 3.8 2.2 5.5.4.9 1.5 2 2.2 2 1.6-.2 2-1.5 1.6-3.1-.9-2.6-1.4-5.3-2.4-7.8-1-2.6-.3-4.9 1.9-5.3 4.2-1 7-4 10.7-5.9 4.5-2 8.8-4.3 13.2-6.6 1.1-.7 2-1.6 3.1-2.5l-.6-1.1-23.7 10-.4-1a65.3 65.3 0 0128.9-19.9zM22.6 201.4c3-.5 5-2 6.4-4.5.6-1.1 2-2.4 3.1-2.4 3.4-.2 6.8 0 10.2.5 5 .8 7.7-2.7 10.7-5.5 1.4-1.3 2.7-3.9 2.5-5.7-.4-3.5 1.8-5 3.8-7 .9-.8 2-1.5 2.8-2.4.6-.7.9-1.7 1.3-2.6l-.8-.5-5.5 5.5a5 5 0 01-2.5 1c-4.8.7-9.7 1.2-14.5 1.7l.2 1 12.3-1.6c-3.8 1.3-7.7 2-11.5 2.5-.9.2-1.8-.2-2.7-.2-1.1 0-2.3-.1-3.3.2-7.5 3-12.4 10.7-12.5 20zM214.8 129c-5.5.4-7.6 1.3-10.1 5.4-2 3.1-3.4 6.6-5.2 9.9-.7 1.3-1.7 2.6-2.8 3.6-1.6 1.6-3.7 2.7-2.5 5.6 1.8 4.2 4.2 6 7.6 5.6 4.4-.5 7.7-3 11-5.7 2-1.5 4.6-2.5 3.1-6l1.6 1.4c-.4-1.8-1.2-3.4-2.3-4.7-5.3-6-5.4-8.5-.4-15.1zm7.6 22c1.8-2.1 3.7-4.2 5.5-6.5 2.2-3 4.5-6 8.5-5.9 3.2.2 5-1.3 6.5-3.6l2.7-4.2c1.5-2.6 1.1-5.1-.3-7.5-1.8-3-4.7-4-7.9-3.8-2.7 0-3.3 2.5-4 4.5-2.8 8.3-7.3 15-16.6 16.9l5.6 10zM378.5 121c7.6 1.2 10.5 3.6 9.8 8-2.5-5.3-6.4-7.8-9.5-6.2 5.3 2.3 6.7 3.6 7 6.8-5.1-5.6-5.8-6-9.2-5.5 7.4 3.9 8 4.4 7.9 8.1-2.2-4.5-5-7.5-10-6.5 2.8.7 5.7 1.4 7.2 4.7-3.8-3-5.7-3.2-9.4-1.7l3.4 1.2c-3.5.2-6.7-.9-9.6 2l2.6-.3-8.3 7.6.2.5 11.7-4 .2.6-4.6 2.6c5 .3 9.4.3 13.7.9 3.5.4 5-.2 6.1-3.6.4-1.1.6-2.3.9-3.5h.4c0 1.7-.2 3.3-.3 5 1-1.6 2.3-3.8 1.7-5-.9-1.7-.5-2.7-.1-4.2.3-1.3.3-3.1-.4-4-1-1.7-2.7-2.9-4.3-4-2.3-1.5-4.6-1.6-7 .5zm-120 15.8c0-.2 0-.3-.2-.5l10.4-4.2c-4.6-1-8.2-.9-11.8.6-3.4 1.3-7 2.3-10.1 4-3 1.5-6.6 2.6-7.8 6.8 4.6.2 8.2 2.2 11.4 5a9 9 0 003.8 1.5c2.9.6 5-.6 5.5-3.5.7-3.2 1-6.4 1.5-9.7h-2.7zm-51.1 199l-2-6.6c-.2-.7-.5-1.5-1-1.9-2.7-1.8-3-3.7-.5-5.8 1.3-1.2 2.8-2 4.6-3.4-3.5-.8-5 1.3-6.6 3-2 2.6-2 5.1.6 7.7-6.4-.5-10.9 2.7-14.6 6.6-2 2-3.5 5.4-3.5 8.1 0 3.1-1.3 3.8-3.4 4.9-1.7.9-3.1 2.3-4.7 3.5l.2.2-5.5 3c2.3.1 4.5 0 6.4-.9 3.2-1.4 6.3-3 9.2-5 1.9-1.1 2.4-3.1 1.6-5.4a5 5 0 010-3.4c2-4.1 5.3-7 9.9-8.2l4.7-1 1 3.2c1.9 5.1 4.1 5.6 7.9 1.7l.7-.4c2 3.9 7 3.2 10.3-1.7l-7.2 2.3c-1.5-4.7-2.2-4.8-8.1-.4zm-19.2-208.1a443 443 0 00-59.4 13c-7.2 2-14.3 4.5-21.5 6.4-3.2.8-6.8.5-10 1.5-6 2-12 4.5-17.9 6.8l-3.7 1.7 22.6-5.3c4.7-1.1 9.4-2 14-3.4a589.7 589.7 0 0165.9-18.4l10-2.3zm-53.3 286v-1.4a206.8 206.8 0 01-9.1-39c-.2-.8-1.5-1.5-2.2-2.3l-1 .6c-.6 14.7 2.3 28.8 7.6 42.7l4.7-.7zm155.5-224.3a117.6 117.6 0 00-85.6-25.6c10 1.3 20.1 2 30 4.1 9.8 2 19.2 5.7 29 7.9 10.1 2.3 17.1 10.3 26.6 13.6zm-161.7 225c0-.4.1-.7 0-.8a127.1 127.1 0 01-8.1-41c0-.8-1-1.4-1.4-2.1-.6.7-1.7 1.4-1.7 2.2-.7 13.7.9 27 6.6 39.7 1 2.1 2.2 3 4.6 2zM114 384a82.8 82.8 0 009.3 31c-2-7-4.5-14-5.8-21-1.3-7.3-1.4-14.8-2-22.2 0 .1-.4.8-.8.9-4 .7-4 3.7-4.1 6.8-.4 8.7 1.2 17 4.6 25 1.5 3.7 3.6 7.2 5.5 10.8l1-.4c-4.8-9.8-7.6-20-7.7-30.9zm41.4-187.8c0 .6.2 1.1.1 1.6-.6 3.1 2.4 3.5 4 4.7.4.3 1.8-.8 2.8-1.1.4-.1 1-.2 1.3 0 .3.3.4 1 .3 1.3-.5 1-1.2 1.9-2 3.2l3.3-.3v.4l-5.2 1.3c.6.6 1 1.4 1.2 1.3 2.3-.8 4.6 2.2 6.8-.2.2-.1.7.1 1 .2l3.9.7c-.4-2-1-3.3-.7-4.2 1.3-3.4 0-6.3-.7-9.4-.4-1.8 0-3.7-.1-5.5-1.5.4-1.9.7-2 3.5-.2 2-1.4 2.3-2.8 2-2.7-.5-5.3-1.2-7.9-1.8 0 2 0 2-3.3 2.3zm-6.3 215c-4.4-15-8.1-29.8-9-45.4-2.6 1-4.4 1.9-3.9 5.3 2 13.3 5.2 26.2 9.4 39 .7 2 1.8 1.9 3.5 1zM67.7 299.9l-12.5-17.5c-4.9 1.8-5.4 2.4-4.3 6.8 1.2 4.8 4.1 8.5 7.9 11.5 1.2 1 3.6.7 5.4 1l.3-1-3.4-5.3c2.8.9 2.4 5.6 6.6 4.5zm62.3 70.4h-1.2c-.2 1-.6 2-.5 3 .7 12.6 2.6 25 7 37 1.3 3.6 1.8 3.7 5.2 1.9-4-13.9-9.8-27.2-10.5-41.9zm250-253.7c-.6 0-1.8-.3-2.6.1-2.8 1.5-5.8 2.9-8.3 4.8-4.7 3.4-9.1 7-13.5 10.8-2.5 2-4.7 4.5-7 6.8l.4.8c1.8-.4 3.5-1 5.3-1.2 5.3-.6 8.6-4 10.4-8.5 1.3-3 3.2-4.7 6-5.8 1.1-.5 2.4-1 3.3-1.9l6-6zm48.4 71.7c-11.4-6.7-36.7-1.2-50 5.7 4.4-.3 8.7.7 13.3-1.3 5.8-2.5 12-4.6 18.3-5.2 5.7-.6 12.5-2.4 17 4.6l1.4-3.8zM144.7 412c-2.2-7.4-4.4-14.6-6.3-22-1.9-7.1-3.5-14.4-5.2-21.6-.4.7-.7 1.5-.6 2.3.8 5.6 1.4 11.1 2.6 16.6 1.6 7.4 3.5 14.7 5.5 22 .5 1.7 1 4.2 4 2.7zm205-278.8c-5.8-1.8-25.6.7-31.5 4.3l6.5.3c4.4 0 9-.6 13.4 0 4.8.7 8.4-.2 11.6-4.6zM56 281.6l10.7 14.7c2.3 3.1 2.4 3 5.6.5l-11.4-17.3-5 2.1zm350.2 18.5h-1c-.3 2.2-1 4.4-1 6.6.8 9.7 1.8 19.3 2.7 29 0 .7.2 1.4.4 2.1l1 .2c.4-1.2 1.2-2.4 1-3.6-.3-8.3-.8-16.5-1.5-24.7-.2-3.2-1-6.4-1.6-9.6zm-328.9-5.8c-3.1-5-6.4-9.7-9-14.6-1.3-2.2-2.3-2.4-4.1-1.4l-2.5 1.3 11.8 16.8 3.8-2zm335.1-147.7l.1 1.2L424 157l1.7-9.3c.6-3 0-4-3-3.5-3.5.4-6.9 1.5-10.3 2.3zm9.5 146.7c-2.9 1-2.8 1-2.5 3.3 1.1 7.7 2.2 15.4 3 23 .4 3.3.3 6.6.4 10l1.2.2c.5-1.1 1.3-2.3 1.3-3.4-.2-5.6-.5-11.2-1-16.8-.6-5.4-1.6-10.8-2.4-16.3zM67.3 277.2l9.3 14c2 3 2.2 3 5.2.6l-10-16.6-4.5 2zM406 227.6c2.8-.2 3.7-1.7 3.6-4.3 0-3.2.2-6.5 0-9.7-.1-2.7-.6-5.3-1-8l-.9-.4c-1 .8-2.8 1.7-2.8 2.4.2 6.7.7 13.3 1.1 20zM158.8 136l.2.9 4.9-1c10.2-1.5 20.3-3.2 30.6-4.4 4.3-.5 7.8-2.4 11.4-4.3l-.3-1-46.8 9.8zm-44.3 122c19.3-4.6 39.2-6.5 58-13.4-19.2 5.2-39.2 6.6-58 13.5zm-5 119.7l-.8-.2c-.4 1.8-1 3.7-1.1 5.6 0 10.5 1.4 20.7 5.6 30.5.8 2 2 2.6 4 1.9-6.8-13.9-7.2-15.6-7.7-37.8zM197.8 234l-.1-1.1c-2.6.4-5.4.5-7.9 1.3-4.9 1.6-9.5 4-14.5 5.4-9.3 2.7-18.8 5-28.2 7.4l-1.3.6c17.6-3.9 35.3-7 52-13.6zm-90.5 181.2l.7-1a77.6 77.6 0 01-5.2-28.8c-1 1-2 2.1-2 3.3a66.7 66.7 0 003.9 24.3c.3.9 1.7 1.5 2.6 2.2zm304.6-79.9c3.2-2.2-.5-36.3-4-39l4 39zm-312.6 53l-1-.4c-.7 1.3-2 2.5-2 3.7-.5 7.2 1.4 14 3.7 20.8.3 1 1.8 1.5 2.8 2.2l.7-.7a55.5 55.5 0 01-4.2-25.6zm243.7-75l1.6 5.3 21.8-6.5c-1.3-1-2.4-2.1-2.6-2-2.3 1.7-5.3.7-7.7 1.8-2.6 1.2-5.3 2-8 3 .9-2.8.7-3.2-1.6-3.6l.5 2.4-4-.4zm-120.4-94.2l-6.1 1.4c.5 2.4 1.3 4.5 1.5 6.6.2 2.8 1.7 3.4 4.1 3l2.9-.7-2.4-10.3zM94.4 390.8c-1.5 0-2.4 1.2-2.1 3.2.9 5.7 1.9 11.4 3 17 .3 2 1.6 2.7 3 2.5l-3.9-22.7zm315.7-94.4c4.8 12 4.8 24.5 5.9 37 .6-1.1 1-2.3.9-3.4l-3.1-31c-.2-2.1-1-3.2-3.7-2.6zm-127.5-65.8l4 16.9c.5 2.1 1.8 1.4 3.4.8l-4.5-19-2.9 1.3zm-54.8 111l.3.8c-2.6.6-5.3 1.1-7.9 1.8l-7.2 2.3.3.9c.2 0 .5.3.8.2l17.2-4.9c.6-.2 1-1 1.5-1.6-7.8-4.5-13.1 1.3-19.1 3.8l14.1-3.3zm53.7-110.3c-1.5.7-4 .1-3.4 2.8 1 4.4 2.5 8.7 3.5 13 .7 2.6 2 2.7 4 2l-4-17.8zM111 415c-1.3-5.4-2.8-10.7-3.7-16-.8-5.5-1-11-1.3-16.4-3.8 3.7.4 30.5 5 32.4zm214.7-292.8v-.7c-16.7-2-33.6-2.8-50.5-1.7l50.5 2.4zm97 68.7l-.3-1-11 .3c-.5 0-1.2.8-1.3 1.3-.4 1.7-.5 3.6-.9 5.9 5.2-1.5 9.9-3 13.5-6.5zm-199-14.6c-4.2-1.2-41.6 5.6-48.7 9.2 2.4-.3 4.7-.6 7-1.1 13.8-3.2 27.8-6 41.7-8zm188 50c.7-1.5 1.9-2.6 1.8-3.7-.2-5.6-.6-11.1-1.2-16.7 0-.6-1.2-1.1-1.8-1.7-.4.7-1.1 1.5-1 2.2l2.2 19.9zm17.4-61.2c2.7-.3 6-3.7 6.7-7.3.4-1.6-2.4-4.5-5.9-6l-.8 13.3zm-197.5 64l-2.7-11.5c-4.3 0-4.8.6-4 4.6l.8 3.5c1 4.3 1 4.3 6 3.4zm-36 8.5l3.7 15.5c1.2-1.4 2.8-2.6 2.7-3.4-.8-4.5-2-8.9-3-13.6l-3.4 1.5zm206.3-87.8l.6-.8-5.4-5.5c-2.6-2.5-5.4.1-8-.3 0 .6.2 1 .3 1.5h-3v.6l15.5 4.5zM36.1 219.3l-.8-.1c.2 1.7-.1 3.6.5 5.2 2.1 5.5 1.3 10.2-3 14.2l.2.4c5.3-2.8 10-12.1 7.8-15.8L37 225l-.9-5.6zm244 30.8l.9-1-3.8-16.1-2.9 1c1.2 4.9 2.1 9.5 3.4 14 .2.9 1.6 1.4 2.4 2.1zm91 6.5c-1.3-1.3-2.3-2.8-3.6-3.5-.8-.3-2.3.8-4 1.5l-2.9-2.4-.8.7c.5.8.7 1.7 1.4 2.3 1.1 1 2.5 1.9 4 3l1.1-2.5c.3-.6 1-1 1.4-1.5.4.6.9 1.3 1.1 2 .4 1 .3 2.3 1 3.2 1 1.4 2.5 2.6 4 4 .3-1 1-2.3 1.1-3.7.1-1.3-.2-3-1-3.7-.5-.5-2.3.4-2.9.6zM133.3 248c1.8 1 27.6-5.6 31.7-8-11.3 1-21.3 4.7-31.7 8zm281.3-23.7l.7.5c.5-1 1.5-2 1.5-2.9a273 273 0 00-1.3-16c0-.8-1.3-1.3-2.2-2.2.5 7.4 1 14 1.3 20.6zM273 235l-1.2-.5c-.5.8-1.4 1.5-1.5 2.4-.7 5.8 1.6 10.2 6 12.2l-3.3-14.1zm146.9 96c.5-11.7-.2-23.3-2.7-34.8l-1 .1L420 331zm-184-102.5l-2-12-3.4.8 2 12 3.5-.8zM88.7 392c-.5 7.3 1.6 15.1 4.4 17.4L91 391.9l-2.3.2zM119 209.3l-8 3c.6.7 1.5 1.6 1.8 2.7.7 1.9 1.7 2.4 3.6 2 2.2-.6 3.7-4.5 2.6-7.7zm164.6-18l-.2.5 8.7 5.3-15 3.5c.5.7 1 .8 1.3.7l12.9-2.4c3.1-.5 3.4-.8 2.5-3.6-3.6-1.3-6.9-2.6-10.2-4zm-19 70c0-.4-.3-.8-.4-1.2-8.5 4-16.5 9-23.7 15l24.2-13.8zM75.5 323c-4.2 2.1-4 3.6 1.6 9.5 2.6-2.3 2-5.8-1.6-9.5zM330 117.5c9.2 2.4 30.1 3.9 34.2 2.5-12-1-23-1.7-34.2-2.5zM217 230.8l.5-1-2-8.4c-3.3 2.1-4.4 4.5-2.8 7.2.7 1.2 2.8 1.5 4.2 2.2zm3.1-20.7l-.2-.8-38.2 7.1.1.9 38.3-7.2zm-94.3-2.9c-2.7 4.7 2.7 7.1 1.9 11.3 3.6-1.6 7.3-1.6 9.6-5.3l-8.4 2.5-3-8.5zm181.6 80.1c-2.3-1.1-10.7.4-11.5 1.3-4-.4-6 2.1-8.6 3.4l20-4.7zm-64.8-2c-1.7 1.5-4.2 1.8-3 4.9 1.4 3.8 2.8 5.2 5.3 5l-2.3-9.9zM389.5 267c1-.1 2 0 3-.5 3.1-1.7 2.9-4.4 1.1-6.8l-3-3.1c-.1 3.7 1.7 7-1.1 10.4zM89 182.5l-1.6-.2-3.3 20.1.8.2c1.5-6.7 3.8-13.3 4.1-20.1zm147.9 22v.9c2.3 1 5.3-1.8 7.1 1.3l13.8-2.3-.1-.8-20.8.9zm190.6 121.3c1.5-10-1-18.7-3-27.5l3 27.5zM215 137.4c5.8 1.3 12.5-5.4 15.4-15.3-4.3 5.9-7 13.4-15.4 15.3zm128.4 68c-.2-6.2-1-7.3-4.7-7l1.3 7.7 3.4-.8zm-241.8 24.5l.3.8 26.7-7.3-.4-1.1-26.6 7.6zm208.7-83.8l-7.1-16.3-1 .4c3.3 5.1 2.1 12.3 8.1 15.9zm26.8 173.3l-.7.2c-.5-1-.8-2.2-1.4-3.2-.3-.4-1-.6-1.5-1-.2.5-.7 1-.7 1.4 0 1.4.3 2.8.5 4.3l6.6-1.6c-.3-1.2-.4-2.3-.9-3.2-.2-.7-1-1.1-1.5-1.6-.3.6-.7 1.3-.7 2 0 1 .2 1.8.3 2.7zM240.5 194l.4.6c1.3-.8 3.6-1.5 3.7-2.4.2-1.8-.9-3.6-1.5-5.8l-4.7 3.7 3 1.6-.9 2.3zm-79.4 22.4l14.3-2.2c-1.5-2.7-6.7-2-14.3 2.2zM65.2 316l-.4-.6a61.8 61.8 0 00-14.9 12l.7.8L65.2 316zm297.2-124.8c-3.5 1.8-4.5 5-3.3 10 1-1 2.2-1.6 2.4-2.5.6-2.3.6-4.7 1-7.5zm-95 34.2l-.2-.7-26.9 10 .3.7 26.9-10zm-71.5-16l-.2-.7-6.5 2.8-.4-.7 3.4-3.4c-2.6.2-5.7-1-6.4 2.7 3.3 2.5 6.6 2.3 10.1-.7zm-40.1-.6c-1.8-1.6-1.5-5-4.7-4.6l-.7 4.3-2.4-1.9c.8 3 4.6 4 7.8 2.2zM329 276.6l-.7-1c-1.5.8-3.2 1.4-4.5 2.4-1.3 1-2.2 2.6-3.3 4l.8.7c2.4-2.3 6.6-2.1 7.7-6zm-74.2-27c0 .4-.2.7-.3 1l15.7 6.2.6-1.5-16-5.7zM91.2 335.4l1.2-1.3-8.5-8.8-.8.7c2.5 3.4 4.5 7.1 8.1 9.4zm-9-111.4l-3 1c1.7 5 3.9 6.4 6.2 4v-.2l-3.1-4.8zm280-24.9c3.4-1.3 4.3-4.4 3.1-9.7-3.4 2.6-1.9 6.3-3 9.7zm-207.4-59.7c-8.8 1.3-17.6 2.5-25.7 6l25.7-6zm18.6-3l.2.8c6.2-1.8 13 .2 19-2.5v-.8l-19.2 2.6zm193 25.5c-1.1.5-2 .8-2.8 1.3l1.4 5.9c3.3-2 2.3-4.4 1.3-7.2zm-244.1 37.4c-2-1.5-13.1.5-15.6 3.6l15.6-3.6zm133 1.7c2-.8 3.7-1.2 5.2-2 .3-.2.2-2.2 0-2.3-1.4-.5-3-.6-4.4-.8l-.8 5zM70.6 326.9c-2.2 2.8 0 4.9.8 7 .2.6 1.5.7 2.3 1 0-.8.5-1.7.2-2.3-.9-1.8-2-3.5-3.3-5.7zM236 309v-.5l-17.3 4 .2.5 17.1-4zm-78.7 103l-18.3 2.6c4.9.8 16.5-.7 18.3-2.5zm210.2-292.7v-1c-7.3-.6-14.7-1-22-1.5l-.1.6 22 2zM254.7 187l1.1 4.6 5.3-.1c.2-4.3-3.8-2.7-6.4-4.5zM315 310.2c-3.7 1-7 1.7-10.3 2.4 3 2 6 1.2 8.8.6.7-.1 1-2 1.5-3zm-118.7-150l-7.2-9c.8 6 3.6 9 7.2 9zm-49.6 62.5l.1 1.2 19.6-2.5v-.4l-19.7 1.7zm-90 8.6c2.5 5 4.2 6.5 7.2 5.7-2.3-.8-3-2.3-3.5-4.4-.3-1.4-1.4-3.5-3.6-1.3zm212.5-46c-5.9-3-11.8-5.9-18.3-7l-.2.8 18.5 6.1zm26.2-45.8c-.8 4 2.6 7 6.6 6l-6.6-6zm6.4 162l10.9 7.3c-3.3-4.5-8.2-6.1-10.9-7.3zm46-96.7c.2-4.8-.3-5.4-3.7-5 .8 5.4 1 5.6 3.8 5zm-212 6.2v-.6H133l.7-2c-2 1-3.4 1.9-5.6 3.2 1.3.7 2.4 1.9 3.2 1.7 1.5-.4 2.9-1.5 4.4-2.3zm235.5-48.5c-3.2.8-3.6 2.6-1.3 6l2.4-1.5-1-4.5zm-291.1 160l-.8.3.3 1.1c.4 1.8 2.1 3.1 1.2 5.5-.6 1.7 2 3.2 3.7 2.2l-4.4-9zm29.6-102.7c.2-3.2-.6-5-3-5-.6 0-1.2 1.5-1.9 2.3l5 2.8zM351.5 38.5c.2-3.5-2.5-5-6.9-4.6l-.4.7 7.3 3.9zM265 328.3l-.2-.3-21 5v.3l21.2-5zm-80.8-119.8l-7.8 1.8c3 2.7 5.6 2.1 7.8-1.8zm-81.1-11.1l-7.9-8.8c.8 5 3.1 7.5 7.9 8.8zm139 102.3c3 4 3 4 6.3 2.5l-4-3.8c-.9.5-1.6 1-2.4 1.3zm190.5 29l.8-.2-3.2-21.5h-.5l3 21.6zM199 210c3.7-.4 5-1.7 5.3-4.7-3.5.2-4 .7-5.3 4.7zm199.5 53.5c3-.6 3-2.5-.2-7.3-1.8.7-2.3 1.8-1.1 2.3 2.5 1.2 1.7 3 1.3 5zM121.9 30.7l-.3-1c-3.1-1-4.8-.3-6.3 3.4l6.6-2.4zm28.7 168.4c-.5 1-1 1.9-1.3 2.8l-1.4-.2-1 3.9c2.6-.7 5-4.4 3.7-6.5zm281 90.1l.1-1-9.3-1.7-.1 1c3 .9 5.9 2.7 9.2 1.7zM280.1 7.2l7.6 2.4c-2.4-3.8-4-4.2-7.6-2.5zm-12.5 186.6l-2.3 2.6 1.1 1c1.1-1.5 2.4-2.8 3.1-4.4.2-.2-1.7-1.5-2.7-2.3l-1 1 1.8 2.1zm-81.2-33.7l-5-8c-1.1 2.8 1.2 6.5 5 8zm224.2 94.3l-.4.6 5.2 5.6c.6-1.4 1.2-2.4 1.3-3.4 0-.5-1.2-1-2-1.5l-.3.3 1 2.9-4.8-4.5zm-137.6 66.8c6 3.5 6 3.5 7.6.8l-7.6-.8zm-19-113.6l-.1-1-14 2.3.2.7 13.8-2zm-6.6-17.8c.6-1.5 1.3-2.5 1.1-3.3-.2-.7-1.4-1.2-2.2-1.8-.5.9-1.4 1.8-1.3 2.5 0 .8 1.2 1.4 2.4 2.6zm-171.3 41l1.2.1.5-4.3-4-.1 2.3 4.3zM187 355.9c-1.4.6-2.6 1-3.7 1.7-.4.2-.7.8-.8 1.3 0 .3.7 1 .9.9l4.7-1.7-1-2.2zM71.3 246.1c-2.3 2.2-.5 3.8.2 5.2.3.5 1.4.5 2.2.7l.2-.7-2.6-5.2zm330 104.6l.4 1 12.6-5.6-.3-.5a9921 9921 0 01-12.6 5.1zm-222-197.2h-.8c0 .7-.3 1.7 0 2.3 1 2.5 3.1 4.1 4.4 3.8l-3.7-6.1zm86 32.7c.2 2 .6 3.9 3.1 4 .4 0 1.1-1 1-1.3-.4-2.2-2-2.9-4.1-2.7zM380 158.6l-1 .2c.8 2-2.1 4.8.9 6.5l1.2-.2-1.1-6.5zM238.3 289.4l-.6.2 1.7 7.4 1.9-.6-3-7zM66.7 248c1 2.1 1.6 3.6 2.4 5 .2.3.9.5 1.2.4.4-.1 1-1 .9-1-1.2-1.4-1-4-4.5-4.4zM403 199.2c2.4-1.4 3.6-5.4 2.4-8.8l-2.4 8.8zm2.9-1.2l1.2.5 2.2-7.5c-.4 0-.7-.2-1.1-.4-1.8 2.1-1.4 5-2.3 7.4zm-28.6 162.1l-.2-.8-11.3 3.5 11.5-2.7zm25.2-168.6l-2.6 8c2.1-.6 3.4-4 2.6-8zm14.6 12.9l-1 .2 2.1 11.3.8-.2-2-11.3zM202.9 260l-12 2.8.2.7 11.8-3.5zM374.4 169l2.7-2.5c-1-.8-2.2-1.5-4-2.7l1.3 5.2zm-122.7 12.4l-1 1c.3 3.2 3 2.9 5.4 3.2l-4.4-4.2zm-133 101.5l.1.4 13.7-2.2v-.7l-13.8 2.5zM225.5 240l.5.9 10.1-5.6-.3-.7a4321 4321 0 01-10.3 5.4zm157.9-43.4v-1.2l-8.9-.2v1l8.9.4zm-224.6 22.3l-.1-.9-11.2 1.7.2 1 11-1.8zM22.2 245.1l.4 1 7.6-3.3-.3-.8-7.7 3zm403.3 86.1c-3.8.6-3 3-3 5l.8.3 2.2-5.3zm-20.8-77l-.5.4 4.8 7.3 1-.8-5.3-7zM63.9 233.8h1c0-.9.4-1.8.1-2.5-.6-1.4-1.6-2.5-3.8-1.8l2.7 4.3zm181.6 52.4h-1l.8 7.7 1.3-.2-1-7.5zM58.8 218l.7.3 4.2-9-.9-.5-4 9.2zM320 284.2l-.3-1.2-8.3 2.7.2.4 8.4-2zM184 179l.4.6 4-1 .1-1c-.8 0-1.7-.5-2.4-.2-.8.2-1.4 1-2.2 1.6zM73.8 245.5l-1.3.5 2 5 1-.4c.6-2-.9-3.5-1.7-5zm228.5-49l1 .5c2.5-.7 1.5-2.6 1.3-4.2l-1-.4c-.5 1.4-1 2.7-1.3 4zm-64.5-9.2c2.6-3.3 2.2-4.3-1.4-4.9l1.4 4.9zm-105.6 39l7.7-1.9-.2-1c-2.8-.2-5 2-7.5 2.8zm225-30l-.7-.4-2 6 1.2.3c2.1-1.5.8-4 1.5-6zm-15.4 124c.6-1.4 1.3-2.1 1.2-2.6-.4-1.4-1.1-2.6-1.7-4l-1 .5 1.5 6zM97 218l-4.2 2.2.2.7h4.7L97 218zm165 169.1c.3.3.4.7.6 1 1.6-.7 4 0 4.6-2.4l-.7-1-4.4 2.4zM244.6 180l-5.7-1.3c2.2 3.6 2.8 3.8 5.7 1.3zM206 6V4.3c-1.7 0-3.3.2-4.9.3l.1 1.4h4.8zm-93.8 223.7l.1.4 6.7-1.6v-.4l-6.8 1.6zM52 233.9l-.7 1c1.7.8 1.6 4.5 5.2 2.9l-4.5-3.9zm212.6-230c-2-3-3.9-3.2-6.2-1l6.2 1zM386.2 307c-1.3-3-2.8-1.8-4.5-1 .9 2.8 2.5 1.4 4.5 1zM261.4 206l.3 1 8.4-2-.1-.6-8.6 1.6zM68.7 330.3l-1.2.2.6 3.3c.2.5.9.7 1.3 1.1.2-.5.5-1.2.4-1.7-.2-1-.7-2-1.1-2.9zM364 304.1l2.5 3.2c.4-.4 1.1-1 1-1.3-.4-1.4-.9-3-3.5-2zm49.3-42.8l-5.3 2.1c2.3 1.6 3.9 1 5.3-2.1zm-23.5 45c-.4-2.8-2-2-3.6-1.5.4 2.8 2 2.1 3.6 1.5zM185.8 235l-.2-.6-8.7 2.1.1.6 8.8-2zm-24.9-25l-5 2.8c.3.2.4.5.6.8 2-.3 4.3 0 4.4-3.7zM130.6 27l-.2-1.4-4.2 1 .2 1.1 4.2-.8zM143 212.7l-.5 1 3.8 2.8-.6-4.4-2.7.6zm217.3-38.1l3 .7.6-4.7-3.6 4zm-1-1.7l-1.2-3.8h-1l-.5 5.2 2.8-1.4zm6.7 138.4l1.3 1 2.1-2.3c-.5-.4-1.5-1.1-1.6-1l-1.8 2.3z"/><path d="M298.8 305.2l4.5 3.4-.6.8-4.3-3-3.6-2.9 4 1.7zM334.3 56a65.3 65.3 0 0117.5 13.5l-1 1.5c-.4-.6-.7-1.4-1.3-1.9a116 116 0 00-6.3-5.2c-1.7-1.2-3-2.5-5.7-1.2-2.6 1.2-8-2.9-9.3-6.4-.4-1-1.2-2.3-2.1-2.8a269 269 0 00-54-22.7c-1.2-.3-2.4-1.2-3.3.6 0 .2-1.6-.2-2.3-.6-1.6-.9-3-2.4-4.8-2.8-8.7-2-17.5-3.7-26.2-5.5-1.4-.3-2.7-1-4-1.5l.3-.7 7.3 1h.4l.6.6 22.7 4.3c0-.8-.2-1.4-.1-1.9 0-.6.3-1.7.6-1.7.7-.2 1.6 0 2.2.4.8.6 1.8 1.5 2 2.4.7 2.6 2.7 3 4.8 3.6a253.8 253.8 0 0158.4 24.7l2.2 1.5-2.3.4-.3.8 6 4 .6-.7-2.6-3.7zm-67.8-26.2l1.4-.4-1.5-5-1.4.5 1.5 4.9z"/><path d="M239.5 21.3h-.4c-1.2-.8-2.6-1.5-3.6-2.5-.5-.6-.4-1.9-.6-2.9l.8-.2-2.1-1.1c.8-.2 1.1-.4 1.4-.3l38.6 8.2c1.5.3 3.1 0 4.7 0 1.4-.1 2.8-.4 4.1-.3 2.4.2 4.3 1.1 3.9 3.4l39 17.8c2.8-2.3 2.6-4.9-1.3-6.9 0 1.3-.2 2.5-.3 3.2l-3.4-7.4 16.1 8c1.8-1.8 4-2.5 6.5-.8l-3.8.5-.3.9 8.5 3.2-2.3 1c3 2.4 7 3.7 8.2 8-2.8.6-4.3-.7-5.9-2.3-1.5-1.7-3.1-3.5-5-4.7-4.6-2.8-9.4-5.2-14-7.8l-.4 7.1 7.8 5.3c-2.7-1.4-5.4-2.7-8-4.2a253 253 0 00-40.6-18.7c-1.5-.6-3.2-.5-4.8-1-2-.5-3.8-1.2-5.7-2-.7-.2-1.4-.7-2-.9l-35.2-8 3.4 5.2-3.3.2zm38.3 3.3l7.3 1.1c-1.5-3.2-3.5-3.6-7.3-1zM241.3 19l-4.9-2.2-.8 1 4.1 2.2 1.6-1zM88.4 129.6c-1.1 0-2.4-.3-3.4.2-14.1 6-28.1 12.2-42.2 18.3l-9.6 4.4c7.8-12.2 104-43.7 120.4-40.5l-52.3 12.2c2 2.7 1.5 5-.3 7-.6.5-1.6.9-2.3.8-.4 0-1-1.2-1-1.9l.2-4.2-6 1.4c.4 4.9-1.2 6.8-6.5 7.4l2.8-4.8-.5 2.9c.4 0 1 .2 1 0 1-1 1.8-2.2 2.6-3.3l-.8-.8-2 .9zm13.6-4c-3.6 1.3-2.4 3.4-2.8 5l1.2.3 1.6-5.4zM139.5 123.2c-35.3 9.4-70 20.3-103.4 35.3 8-8.1 72.3-30 103.4-35.3z"/><path d="M254.2 10.4c1.2.4 2.3 1 3.5 1.2 4.9 1.3 9.8 2.4 14.7 3.5 1.2.3 2.6 0 4 .1 1.6.2 3.2.5 4.7 1 3.5 1.4 6.8 3.1 10.2 4.5 2.9 1.2 6 2 8.8 3.2 1.5.6 2.6 2 3.8 3 1.2.8 2.5 1.7 3.3-.2 3.7 1.5 7.3 3 10.3 4.4l1 5.4h.9l1-2.4v3.6c-2.6-.1-4.4-1.5-5.1-3.5-1.2-3.7-4.3-3.6-7.1-4.5-2.3-.7-4.5-1.7-6.7-2.7-.8-.4-1.5-1-2.3-1.3-4-1.4-8-3-12-4.2-1.6-.6-3.3-.7-5-1-3-.6-6.2 0-8.1-3.2-.3-.5-1.5-.6-2.2-.8L255 12c-1.2-.3-2.4-.7-3.6-1.5h2.8v-.1zM52.4 138.4c-.7-1.2-1-2-1.8-3.2L31.2 146l-.2-.2c.7-.5 1.3-1.2 2-1.6l15.6-9c1-.6 1.8-1.8 2.5-2.8 1-1.6 1.7-3 3.8-1.4.6.4 2 0 3-.3a321.2 321.2 0 0146.5-17.5c8.5-2.3 17-4 25.5-6l.3 1-30.7 7.3.8 2.2c-4 2.4-5.7 2.5-6.8-.3L62 130.1c-3.4 1.3-7 2.4-7.8 6.7-.1.5-1 .9-1.7 1.6zM294.3 107.4l87.5-1.4.1.8c-1.2.3-2.5.8-3.7.9-7.4.3-14.7.7-22 .6-20.7-.1-41.3-.4-61.9-.7v-.2zM204.4 117.9l-47.1 7.7c3.5-3 41.9-9.6 47.1-7.7zM354.5 51.5c14 9.4 29 26 32 35.5-.7-.8-1.2-1.2-1.5-1.7-7.7-12.2-17.6-22-29.1-30.6-1-.6-1.5-1.8-2.2-2.7l.8-.5zM69.7 106.3l3.7-1c1.1-.3 2.3-.3 3.4-.6L82 103l.2.7c-1.8.7-3.6 1.5-5.5 2.1-1.9.6-3.1 1.5-3.7 3.7-.5 2-1.9 3.7-2.8 5.4l26.4-9.8.4 1c-.9.4-1.7.9-2.6 1-15.2 3.9-28.8 11-42.4 18.5-2.3 1.2-4 3.7-7.2 3.2.5-1.9 6 .7 3.6-3.5 1.3-.3 2.9-.4 4.1-1l16.4-8.6-.4-2.4c3.1.3 3-2.5 3.8-4.2 1-2.6.2-3.3-2.6-2.8zM299.6 60.5l-43-12.2c3.9-1.9 34.3 7 43 12.2zM272.5 46.6A178.9 178.9 0 01317 65.5l-44.6-18.9zM154.5 51.7l1-3.4c.7-1.7 1.4-3.4 2.3-5 .4-.7 1.2-1.5 1.9-1.6.6 0 1.8.7 2 1.3.3 1.8 1.2 4.5.4 5.4-1.8 1.8-3.9 4.3-7.6 3.3z"/><path d="M69.7 106.3c0 2-.5 3.2-2.6 3.9-2.6.9-5 2.2-7.4 3.6-.9.5-1.2 2-2 2.6-1.7 1.2-3.5 3-5.3 3-3 .2-5.4 1.3-7.7 3-.4.2-.9.2-1.4 0l7.4-5.3c.4.4 1.1 1.7 1.5 1.6 1.5-.5 3-1.3 4.4-2a41 41 0 01-.3-.9l-2.2-.5 13.6-7c.8-.4 1.4-1.3 2-2zM325.7 96.2c-4.5 0-20.4-10.3-21.8-14.5l21.8 14.5zM260 85.8c-1-.4-2.6-.5-3-1.3a6.5 6.5 0 01-1-4.2c.3-1.4 1.2-3.4 2.3-3.8 2-.7 3.7 1 4 3 .1 2.2-.2 4.5-.7 6.7-.1.8-1.6 1.8-1.7-.4.3-1.1.8-2.2 1-3.3.3-2.7-.4-3.7-3.6-4.4 1.5 2.6 0 5.7 2.6 7.7zM164 21c-.3 1-.3 2.4-1 2.8-1.4 1-3.2 1.5-5 2-2.3 3.9-5 5.2-7.5 3 3-.1 4.9-1.8 5.6-5h-2v-.7l3.3.2 5.8-3 .8.8zM285.6 70.2c-.9-2.3-2-4.7-2.6-7.2-.5-2.4.9-3.4 3.1-2.4 2.7 1.3 2.7 4 3 6.3 0 1.9-1 3.2-3.5 3.3zm.1-8.3l-.8.2 1.3 5.7.8-.3-1.3-5.6zM138.8 81c-.7-1.7-1.8-3.4-2-5.1-.1-1.1 1-2.4 1.7-3.6 1 1 3 1.8 3 3 .3 1.8-.5 3.7-.9 5.6l-1.8.1zM321.5 61.4l-24.3-12.7c8.7 3.1 17.3 6.5 24.3 12.7zM286.7 36.6c-1 2.5.6 4.6 4.9 6.4l-.8-3.3.4.1c1.2 1.5 3.4 3 1.5 5-1.8 1.8-3.8.2-5.2-1.1a16.4 16.4 0 01-3.2-4.5c-1-2 0-2.8 2.4-2.6zM137.8 90.8c-.6 4.3-3.7 6.2-6.9 8-.5.3-1.8 0-2.3-.5-.5-.4-.6-1.5-.4-2.2 1.3-4.6 4.2-6.2 9.6-5.3zm-8.5 5.2c4 1 6.7-1 6.2-4.5-3.2-.2-4.4 2.2-6.2 4.5zM241 8.3L239.7 5c3.3-1.2 5.7-.2 7.7 1.8.4.4.9 1.3.7 1.7-.4.5-1.3 1.2-1.8 1.2-1.8-.3-3.5-1-5.2-1.5zM52.1 110.2c0-.8-.3-1.7-.2-1.8 8-4 16-7.8 24.4-11.2l-24.2 13zM227.2 57.1l-2 6c-1-1.7-2.3-3.4-2.7-5.3-.3-1 1-2.3 1.5-3.5l3.2 2.8zM330.2 79c6.3 2.8 12 6.4 15.1 9.5L329.5 80l.7-1zM84 90.9c-1.7-3-1.6-5.8.3-6.6 1.6-.6 3-.3 3.7 1.6 1 2.2-.3 3.8-4 5zM317.4 85.4l14.4 9.7c-5.5-1.3-10-4.3-14.3-7.9-.4-.3 0-1.5-.1-1.8zM211.8 13.8c-1 1.5-1.3 3-2.1 3.2-1.8.5-3.7-.1-3.7-2.2 0-1.3 1.3-2.7 2-4l3.8 3zM165 58l2-1.5c2.2 3.2 1.4 5.9-2.6 9.3-3.7-2.3-3.8-4-.3-7-.3 1.1-.8 2.2-1 3.3 0 .5.5 1 .8 1.6.5-.4 1.2-.6 1.4-1 .5-1.3.8-2.6 1-4 .1-.1-.8-.5-1.3-.7zM75.7 80c.6-1.7 1-3.3 1.8-4.5.6-.8 2-1 3-1.5.2 1.1 1 2.5.6 3.4-.9 2-2.7 3-5.4 2.6zM127.7 62.1c-1.7-.7-3.5-1.2-5-2.2-.6-.4-.3-2-.5-3 1 0 2.4-.6 2.9-.1 1.3 1.2 2.3 2.8 3.4 4.3l-.8 1zM262.4 36.2l18.6 4.3-.3 1.1-18.6-4.4.3-1zM355.5 76.4c-2.2 2.8 1.2 4.4.9 6.5l.9.1.7-3h.7c-.4 1.5-.3 3.9-1.1 4.3-2 1-3.3-.8-4-2.6-1.4-3.2-.7-5.1 2-5.3zM318.7 73.6c.4.6 1 1.2 1.3 1.9.9 1.8-.3 3.4-2.1 2.7-1.6-.6-3-1.7-4.1-3-.6-.7-.2-2.1-.2-3.2l3.1.4-1.9.1-.4.7 3.7 3.6.9-.6-.3-2.6zM43 110.7c-.5-1-1.5-2-1.3-2.8.4-1.5 1.6-2.7 2.4-4.1.7.5 1.8 1 1.8 1.4-.3 1.8-.9 3.7-1.3 5.5H43zM326.6 84c5.7.6 10.3 3.5 14.5 7.3L326.6 84zM101.1 78.2c2-1.4 3.2-2.5 4.7-3.3.6-.3 2.1 0 2.3.3.3.7.3 2-.2 2.6-1.5 2.3-3.7 1.6-6.8.4zM61 79.8c.9-3.1 2.5-4.5 5-4.6.7 0 1.5.6 2.2.9-.4.7-.7 2-1.3 2.2-1.7.7-3.6 1-5.9 1.5zM354.4 101.5l20.2-.9c-6.5 2.4-13.3 1.5-20.2 1zM179.2 46.7c-.4-.3-1.3-.9-1.6-1.6-.6-1.9 1.9-4.8 4.4-5 1-.1 2.5.7 2.8 1.5.7 1.7-2.3 4.5-5.6 5.1zm5-5.4c-4.2-.7-5.8 1.1-4.5 4.7l4.5-4.7zM127.8 91.9c-1.3 2.5-3.5 3-5.8 3-.5 0-1.2-.7-1.2-1-.1-.5.3-1.2.7-1.5 1.9-1.4 3.9-2 6.3-.5zM162.5 31.5c-1.3-2.7-1-4.7 1.1-5.4.8-.3 2.6.4 2.7.9.7 3-1.7 3.6-3.8 4.5zM220.2 51c-1.5 2.2-2.5 3.7-3.8 5.1 0 .1-2-.8-2.3-1.5-.7-2.2.6-5.3 2.3-5.4 1 0 2 .9 3.8 1.9zm-3.3-.7l-2.1 4.8c3-.3 3.7-1.6 2.1-4.8zM129.6 39.2l.4 3.7.7.1c.8-2.3 3.3-4 1.8-7.2 2.3 1 2.3 2.7 2 4.4-.6 2.5-2 4.1-5.4 3.6l-.1-4.5h.6zM36.3 114.4L38 111c2.2 2 4.3 3.5 2.4 6.1-.7.8-2.3 1.7-3.1 1.4-1.9-.7-2-2.4-1-4 .3 1.3.3 3 2.8 2.5l1-3.7-4 1.2zM247.9 48.3l4.3 3.6.7-.4-1.4-4.3h.4c1.5 1.6 3.5 3.1 2.5 5.8-.1.5-1.3 1.1-1.7 1-2.7-.9-3.8-3.2-4.8-5.7zM172.2 14.5c-1.9 1.3-3.3 2.5-5 3.3-.5.3-1.6-.6-2.3-.9l1.3-1.4c1.5-1.8 3.1-2.7 6-1zM91.6 100.1c.7-2 1.2-4.2 2-6.2.4-.6 1.8-.8 2.8-1.1.4 1 1.3 2.2 1 3-.8 2.3-2.1 4.5-4.8 5l-1-.7zm.8-1.6c3.3-.7 4.3-2.6 3-5.7l-3 5.7zM255.9 45c-.5-1-.8-2.2-1.5-3.1-1-1.2-2.3-2-3.4-3l-1 1.1 1.5 2.9-.9.3c-.4-1.3-1.4-2.8-1-3.7 1-2 3-1.4 4.2 0 1.3 1.3 2.2 3.1 3.3 4.8l-1.2.8zM57 100.7c.2-3.5 2.5-4.5 5-5.6.1 3.8-1.3 5.4-5 5.6zM240.6 34c-2.4-1.4-4.1-2.4-5.7-3.5-.1 0 .7-2.3 1.5-2.6 1.6-.7 5 1.1 5.4 3 .2.7-.6 1.6-1.2 3zm-4.9-5.3l-.5 1.2 5.4 2.5.4-.8c-1.6-1.3-2.8-3.4-5.3-3zM28.4 135.6l2.3 4.9c-2.5.7-4.2.3-4.7-1.8-.2-1 .6-2.2 1-3.3l1.4.2zM335.7 50.7l17.5 11-.6 1-1.9-1.4-15-10.6zM196.7 39.5l1-3.9.2-3c-3 .7-2.3 3.1-2.6 5.2-1.5-3.7-.6-5.2 3.3-6.3 1.2 2.8.4 6.5-1.9 8zM49.2 91.9c1.2-1.2 2.3-2.5 3.7-3.5.4-.3 1.7 0 2 .4.2.4 0 1.7-.4 2-1.3 1-2.9 1.6-4.3 2.3a73 73 0 00-1-1.2zM120.6 71.1c.9 0 1.7-.2 2.6-.3.3 2.4-4.3 6.4-6.3 5.4-.4-.2-.8-1.9-.5-2 1.3-1.2 2.9-2 4.3-3l-3.8 3.4.5.8c1.2-.5 2.4-.7 3.4-1.4 1.6-1 1.6-2-.2-2.9zM186.9 12.2c.8-1.7 1.3-3.2 2.1-4.5.3-.5 1.4-.5 2.1-.7.2.7.8 1.5.5 2-.7 2-1.8 3.5-4.7 3.2z"/><path d="M241 8.2c-.5.6-1 1.6-1.5 1.5-1.6-.1-3.1-.6-4.7-1 .5-.6 1-2 1.3-1.9 1.7.3 3.3 1 5 1.5h-.1zM222.6 39.8c1.2 0 2.7-.4 3.5.2 1 .7 1.2 2.3 1.8 3.5-1 .3-2.2 1.3-2.8 1-1.8-1-3.4-2.3-2.4-4.8l3 4.7 1-.7c-1.2-1.5-.7-4.5-4.1-3.9zM104 53.6c.4-2.1 1.1-3.8 3.5-3.8.3 0 1.2 1.3 1 1.8-.5 2.3-2 2.8-4.5 2zM183.7 12.3c-1.7 1.4-2.6 2.4-3.7 3-.3.3-1.2-.4-1.8-.7.9-1.1 1.7-2.3 2.8-3.3.2-.2 1.1.4 2.7 1zM24.4 134c-1-2-1-3.6.8-4.9.2-.1 1.4.6 1.6 1 .5 2 0 3.5-2.4 3.9zM359.5 66.9l12 11-.5.6-12-11 .5-.6zM212.9 26.2l2.7-.4c0 1 .5 2.4 0 3.2-.7 1.4-2.1 2.4-3.3 3.6l-1-.3c0-1.4.2-2.7.3-4l.4 2.6.9.2c.6-1.2 1.3-2.4 1.8-3.7 0-.2-1.2-.8-1.8-1.2zM369.2 96.7l-10.7 1.2-.1-1 10.6-1.4.2 1.2zM157.4 59.8l2.5 1.5c-.6.8-1 2-2 2.3-1.7.7-3.6.9-5.4 1.3l-.5-1 2-2.2-.6 2.6 5.6-2.7-1.6-1.8zM140.4 57.9l1.5 1.3c1-1.4 2.2-2.7 3.3-4 .7 2-.7 3.8-2.2 5.3-.4.4-1.7.6-1.8.4-.6-.9-.9-2-1.2-2.9l.4-.1zM254.3 10.4l-4.2-2.6.4-.5 7 1.9v.8l-3.3.4h.1zM255.7 27.7c.4 1.7.7 3.2 1.2 4.6 0 .3 1.3.1 2.4.2l-1 1.7c-1-.7-2.5-1.2-3.1-2.2-.9-1.5-1.1-3.4.5-4.3zM305.7 91.8l10.4 4.5c-4.2 0-7.5-2-10.4-4.5zM147.3 23.8c.5 1.8-1 3-2.6 3.5-1 .4-2.3-.1-3.3-.2l6-3.3zM97 70l3.3-2.5-.8-1.5 1.7-.3c-.3 1.2-.3 2.6-1 3.6s-2 2-3.2.8zM323.1 27.8c-2.5 1-1.9 2.3-.3 3.7l-1.2.4-1.8-4 2.8-1 .5 1zM343.5 76.7L334 71l.4-.7 9.4 5.8-.3.6zM112.1 306.8c17.1 4.9 33.7 11 47.7 22.6-7.7-4.1-15.3-8.7-23.2-12.4-8-3.8-16.3-6.8-24.5-10.2zM102.1 311.5a136 136 0 0149.3 23.7 236.4 236.4 0 00-49.3-23.7zM137.7 339.3l-26-12 .3-.6c9.3 2.7 17.8 7 26.2 11.6l-.5 1zM146 311.4c7.2 3.2 14.6 6.2 20.4 12l-20.4-12zM152 306.3c7.5 3.9 15 7.6 21 13.9l-21-14zM234.9 256.3l11 3.9-.2.8-11-4 .2-.7zM88.5 169.2c3.6-4.4 8.3-6.4 14-6.3-4.8 1.9-10.4 2-14 6.3zM276.3 289c1.1-3.4 3.2-5.5 7-5.4.5 0 1-1.3 1.2-2 .3-.9.1-1.8.1-3 2.4 1.6 2.4 3 .5 4.7-1.5 1.4-2.8 3-4.5 4.2-1.2.8-2.9 1-4.4 1.5h.1zM286.5 285.5l3.2-7.3c.4 1.5 1.2 3 .9 4-.8 1.9-2.3 3.3-4.1 3.3zM295.7 266.3c2.2 2.5 1 4.9-.1 7-.4 1-1.6 1.5-2.8 1.9 1.7-2.8 4-5.2 3-8.9zM292.8 271.2c-.2 3-4 2.4-4.9 4.7l-.5-.6 4.6-4.8.8.7zM45.6 267l11.3-3.5.1.4-11.3 3.4-.1-.3zM185.5 192l4.2-4.2c1 1.5 1.6 3.6 2.7 4 3.1 1 1.6 2.4.7 3.7 2.3 1.3 4.5 1.4 6.1-.6.7-.7.7-2 1-3l1-2.2c.7.5 1.8 1 2 1.7 1.3 2.5-2 6.8-4.8 6.5-1.8-.2-3.6-.9-5.4-1-1 0-2 .7-3 1.2-3.4 1.6-6 .6-6.1-3.1l4.5 2.5 3.2-4-5.9-.6-.2-.9zM229.5 187.3c-.6 1.7-.7 3.5-1.5 4-1 .6-2.7.3-4.6.4l6.1-4.4zM18.6 214.4l-2.5 9.5-.7-.2 2.4-9.5c.3 0 .5 0 .8.2zM165.8 202.8c1.8-2 3.6-.4 5.3-.1-.3.8-.5 1.7-1 2.6-.9 2-2.5 2.7-4.8 3l3-4.2-2.5-1.3zM131.8 182.3l3.3-15.1c.1-.5.7-.8 1.1-1.2l-4.4 16.3z"/></g><defs><clipPath id="clip0"><path fill="#fff" d="M0 0h455.4v421.2H0z"/></clipPath></defs></svg>