<svg width="159" height="116" viewBox="0 0 159 116" fill="none" xmlns="http://www.w3.org/2000/svg">
<path d="M157.617 115.987C152.736 113.93 148.244 112.039 143.752 110.141C135.879 106.82 128.015 103.48 120.127 100.203C119.337 99.8733 118.36 99.7819 117.498 99.8654C102.007 101.375 87.951 97.9509 76.0394 87.5725C69.6408 81.996 65.4545 75.0135 64.2311 66.4899C62.9363 57.4698 65.3075 49.3394 70.7529 42.1384C77.3065 33.4758 86.1716 28.2131 96.5739 25.6036C111.746 21.7985 126.271 23.5104 139.712 31.76C148.001 36.8479 154.158 43.8662 156.767 53.4304C160.032 65.3897 156.759 75.7959 148.633 84.8637C147.6 86.0195 146.476 87.1157 145.277 88.0928C144.455 88.76 144.467 89.2962 144.903 90.1661C148.812 98.0184 152.68 105.891 156.561 113.755C156.863 114.375 157.145 114.99 157.617 115.987ZM117.784 54.479C117.061 54.479 116.699 54.4631 116.342 54.4829C111.556 54.7411 106.766 54.9794 101.984 55.3051C101.352 55.3488 100.268 55.7976 100.232 56.1432C100.129 57.2076 101.177 57.1083 101.912 57.2195C104.462 57.6128 104.875 57.9663 104.974 60.8141C105.161 66.1522 105.233 71.4944 105.32 76.8326C105.34 78.0599 105.237 79.2951 105.165 80.5224C105.09 81.8093 104.319 82.4885 103.116 82.7308C102.357 82.8857 101.574 82.9453 100.848 83.1875C100.546 83.2868 100.232 83.7317 100.184 84.0574C100.157 84.256 100.589 84.6095 100.883 84.7405C101.197 84.8795 101.594 84.8637 101.952 84.8597C107.151 84.8001 112.354 84.7167 117.553 84.681C118.876 84.673 120.198 84.8597 121.517 84.82C121.898 84.8081 122.268 84.3155 122.641 84.0415C122.331 83.7039 122.057 83.3226 121.7 83.0406C121.505 82.8897 121.18 82.9055 120.909 82.846C118.169 82.2621 117.66 81.6663 117.672 78.8662C117.692 73.7544 117.748 68.6386 117.772 63.5269C117.796 60.5758 117.784 57.6167 117.784 54.479ZM110.007 34.9414C105.546 34.9494 102.067 38.385 102.059 42.7819C102.051 47.0754 105.59 50.6143 109.896 50.6263C114.269 50.6382 117.883 47.0595 117.851 42.7501C117.819 38.4088 114.328 34.9335 110.007 34.9414Z" fill="black"/>
<path d="M91.1211 25.2964C85.91 27.2148 81.1001 29.7131 76.8145 33.1289C69.1409 39.2495 63.9774 46.9231 62.3847 56.7574C61.499 62.2267 62.0153 67.5887 63.751 72.8434C63.8225 73.0579 63.9059 73.2724 63.9695 73.4908C63.9933 73.5703 63.9616 73.6656 63.9298 74.1462C60.4067 74.7936 56.8122 75.7667 53.1661 76.0408C48.8606 76.3625 44.5074 76.0646 40.1741 76.0805C39.4274 76.0845 38.6172 76.152 37.9419 76.438C26.1058 81.4028 14.2896 86.4033 2.46535 91.396C1.8934 91.6382 1.31351 91.8567 0.380123 92.2301C1.88943 89.1519 3.22 86.4272 4.55851 83.7065C7.40236 77.9314 10.2343 72.1444 13.1258 66.3931C13.5905 65.4677 13.4118 64.9792 12.673 64.3317C6.48486 58.9062 2.09994 52.3487 0.590632 44.1587C-1.45487 33.0455 1.88943 23.4614 9.43198 15.2992C17.0579 7.04967 26.7373 2.54956 37.6758 0.801946C50.3222 -1.21973 62.4562 0.512001 73.7522 6.78356C80.9412 10.7753 86.7084 16.2445 90.5094 23.6361C90.6961 24.0015 90.8748 24.3749 91.0377 24.7522C91.0893 24.8714 91.0814 25.0183 91.1211 25.2964ZM39.1732 41.7398C39.2765 43.8846 39.3996 45.4813 39.4155 47.078C39.4274 48.1464 39.8921 48.7581 40.9288 48.778C42.7439 48.8177 44.563 48.8177 46.3742 48.7263C47.3711 48.6747 47.8795 48.0392 47.8994 46.9827C47.9351 45.1119 48.0424 43.2412 48.1178 41.3705C48.1417 40.7389 48.241 40.3298 49.0552 40.163C56.0337 38.7252 59.6362 34.5865 60.2399 27.4173C60.8436 20.3037 57.126 14.489 50.5327 12.3561C49.1982 11.9231 47.7842 11.6848 46.3861 11.526C42.1759 11.0414 38.1008 11.6411 34.2005 13.3252C33.1082 13.7979 32.151 14.4175 32.1391 15.7798C32.1271 16.9197 32.0914 18.0716 32.2185 19.1996C32.4687 21.4596 32.8858 21.6502 34.8995 20.6692C37.8387 19.2313 40.901 18.5045 44.1857 19.0804C47.6452 19.6881 49.9687 22.242 50.1991 25.7372C50.2547 26.5991 50.2507 27.4729 50.1911 28.3388C49.9528 31.7904 47.6015 34.2847 44.1539 34.7335C43.296 34.8447 42.4222 34.8248 41.5603 34.9202C39.9239 35.0989 39.2725 35.7265 39.1931 37.3668C39.1136 38.9993 39.1732 40.6476 39.1732 41.7398ZM49.9489 59.0174C49.9369 55.5222 47.1844 52.7617 43.7091 52.7578C40.1741 52.7538 37.4971 55.4388 37.4852 59.0015C37.4733 62.5524 40.1622 65.2651 43.6892 65.2612C47.1805 65.2532 49.9568 62.4809 49.9489 59.0174Z" fill="black"/>
</svg>
