<svg width="139" height="114" viewBox="0 0 139 114" fill="none" xmlns="http://www.w3.org/2000/svg">
<g clip-path="url(#clip0)">
<path d="M18.3701 111.69C14.5931 108.676 13.3436 104.851 13.5821 100.368C13.6488 99.1569 13.4962 98.1172 12.5997 97.0585C10.8924 95.0365 11.4646 91.9939 13.5916 90.3438C14.8792 89.3423 15.0604 87.6064 14.0303 86.2806C13.7442 85.9087 13.3436 85.5271 13.2768 85.1075C13.0575 83.6291 12.3898 82.5513 11.2739 81.4926C10.053 80.329 10.7207 78.6694 12.7713 76.9907C10.7874 74.9877 11.7222 72.6318 12.1418 70.4381C14.3451 59.0307 21.5272 51.9917 32.2764 48.539C36.4827 47.1846 40.9846 46.6982 45.3816 46.0019C46.612 45.8111 46.9744 45.4582 46.9363 44.2755C46.8123 39.7545 46.755 35.2336 46.6883 30.7126C46.6597 28.6047 47.2129 28.2136 49.13 28.9671C51.6194 29.9495 54.1374 30.9033 56.5601 32.0384C57.2563 32.3626 58.1433 33.2783 58.1243 33.8887C58.0957 34.6136 57.3231 35.5865 56.6077 35.9584C54.3282 37.1507 51.9628 38.1999 49.5687 39.125C48.3288 39.6115 47.8424 40.2887 47.9759 41.5763C48.0617 42.4061 48.0522 43.2645 47.9759 44.0943C47.8424 45.4487 48.3097 45.897 49.7404 45.897C56.1785 45.8874 62.3973 47.1274 68.2917 49.7503C70.4378 50.7041 72.4503 51.9345 74.6917 53.1363C74.6917 51.8773 74.7489 50.7041 74.6821 49.5309C74.52 46.8031 74.2529 44.0752 74.1099 41.3474C74.0526 40.2219 73.776 39.6401 72.4693 39.6592C70.6285 39.6878 69.6938 38.6386 69.7033 36.7882C69.7033 35.9489 69.8273 35.1096 69.9704 34.2893C70.3138 32.4199 71.0673 31.7904 72.9844 31.7808C79.4034 31.7713 85.8225 31.7713 92.2415 31.7713C92.8615 31.7713 93.4814 31.7713 94.2445 31.7713C94.2826 30.9892 94.3208 30.3692 94.3303 29.7588C94.5115 20.8694 94.6641 11.9896 94.8644 3.10023C94.9217 0.601286 95.6847 -0.0568326 98.155 0.019471C98.9944 0.0385468 99.8337 0.0862366 100.673 0.124388C102.848 0.229306 103.477 0.868348 103.449 3.01439C103.344 10.3205 103.22 17.6361 103.105 24.9421C103.077 26.5731 103.153 28.2041 103.048 29.8351C102.953 31.323 103.496 31.8667 105.003 31.8476C110.001 31.7904 114.999 31.8476 119.997 31.8571C121.943 31.8571 123.888 31.8476 125.834 31.8571C128.009 31.8667 128.781 32.5629 129.048 34.6708C129.125 35.3003 129.249 35.9203 129.268 36.5498C129.325 38.5432 128.352 39.6496 126.387 39.6401C125.205 39.6306 124.919 40.0502 124.833 41.1948C123.86 54.2999 122.82 67.3955 121.809 80.4911C121.065 90.1817 120.34 99.8817 119.587 109.572C119.539 110.24 119.367 110.889 119.215 111.785C119.863 111.785 120.474 111.785 121.084 111.785C125.033 111.785 128.972 111.756 132.921 111.804C133.503 111.814 134.084 112.176 134.657 112.376C134.094 112.605 133.541 113.035 132.978 113.044C127.398 113.092 121.828 113.082 116.249 113.082C80.0043 113.082 43.7601 113.082 7.51593 113.054C6.79104 113.054 6.0757 112.634 5.36035 112.415C6.09477 112.214 6.81966 111.842 7.55408 111.833C10.6539 111.766 13.7633 111.804 16.8631 111.795C17.3496 111.776 17.8646 111.718 18.3701 111.69ZM46.9172 47.4612C46.6692 47.3372 46.5834 47.2609 46.488 47.2418C46.2781 47.2132 46.0683 47.1846 45.8585 47.1941C38.2567 47.7187 30.9888 49.3688 24.5126 53.6132C17.2637 58.3726 13.7061 65.2972 12.8763 73.7669C12.7141 75.4455 13.4104 76.0846 15.0604 75.9797C16.0047 75.9224 16.949 75.9129 17.9028 75.9129C38.6764 75.9129 59.4596 75.9129 80.2332 75.9224C84.3059 75.9224 84.3727 75.9129 83.8004 71.8783C82.7799 64.6104 79.432 58.6778 73.4518 54.319C68.4539 50.6755 62.7883 48.6821 56.7222 47.8046C53.8894 47.3944 51.028 47.2514 47.9091 46.9557C48.1094 48.0907 48.2334 48.7774 48.3574 49.4737C49.0441 49.4737 49.5783 49.4737 50.2173 49.4737C48.4051 51.4004 45.8012 51.3432 44.5232 49.3593C45.1717 49.4356 45.7631 49.5119 46.4594 49.5977C46.631 48.8061 46.7741 48.1098 46.9172 47.4612ZM15.0604 99.2618C13.8396 105.919 17.7692 111.737 24.7987 111.594C37.4651 111.327 50.141 111.518 62.8169 111.528C63.847 111.528 64.6482 111.413 65.4113 110.478C66.6035 109.019 70.0276 109.086 70.7907 110.393C71.5442 111.69 72.5075 111.9 73.5376 110.879C74.7012 109.725 76.0651 109.162 77.6675 109.315C78.8312 109.42 79.537 108.876 80.176 108.037C81.7593 105.948 82.1313 103.573 82.055 101.036C82.0168 99.8531 81.6544 99.3476 80.3954 99.3476C64.1427 99.3381 47.8996 99.2809 31.6469 99.2904C31.1319 99.2904 30.5119 99.6624 30.1304 100.053C28.9858 101.217 27.3739 101.246 26.2485 100.053C25.9242 99.7101 25.4473 99.2999 25.0371 99.2904C21.7275 99.2332 18.4178 99.2618 15.0604 99.2618ZM91.6597 91.6982C91.6788 91.6982 91.6978 91.6982 91.7169 91.6982C91.7169 97.688 91.7074 103.687 91.736 109.677C91.736 110.211 91.9268 111.184 92.1175 111.203C93.3479 111.356 94.6355 111.423 95.8468 111.203C96.1139 111.156 96.2665 109.839 96.2761 109.105C96.3142 97.44 96.3333 85.7656 96.3142 74.1007C96.3142 72.9943 96.3619 72.2599 97.7544 72.0119C99.2042 71.7543 99.9482 70.5049 99.8623 69.0647C99.5285 63.4563 99.1279 57.8576 98.6605 52.2588C98.5938 51.429 98.2695 50.294 97.6686 49.8934C96.3142 48.9968 96.2761 47.8427 96.3142 46.4979C96.3524 45.1816 96.3142 43.8654 96.2856 42.5587C96.2188 39.5066 96.9437 39.7069 93.2907 39.6401C92.0221 39.621 91.6502 40.1075 91.6788 41.3092C91.736 43.4648 91.7074 45.6204 91.6215 47.776C91.6025 48.2624 91.3163 49.0636 90.973 49.1685C88.8651 49.8266 88.4931 51.4004 88.6076 53.2698C88.9414 58.4585 89.2466 63.6471 89.6663 68.8262C89.7426 69.7514 90.3339 70.6384 90.6868 71.554C91.0111 72.3839 91.5929 73.2041 91.612 74.0339C91.6883 79.9284 91.6597 85.8133 91.6597 91.6982ZM102.705 111.375C103.496 111.413 104.116 111.461 104.736 111.461C107.264 111.48 107.264 111.48 107.264 109.019C107.264 101.551 107.264 94.0827 107.264 86.6049C107.264 71.6113 107.264 56.6176 107.254 41.624C107.254 41.0612 107.168 40.0598 106.987 40.0216C105.776 39.8118 104.517 39.7069 103.296 39.8118C103.058 39.8309 102.743 40.9086 102.743 41.5C102.714 64.1717 102.714 86.8434 102.714 109.515C102.705 110.097 102.705 110.669 102.705 111.375ZM118.08 75.3025C118.08 75.0354 118.08 74.7779 118.08 74.5108C118.08 63.4659 118.089 52.4305 118.061 41.3855C118.061 40.861 117.86 39.9072 117.67 39.8785C116.487 39.7355 115.228 39.621 114.093 39.9072C113.74 39.993 113.54 41.3378 113.54 42.1009C113.511 64.496 113.521 86.8911 113.521 109.286C113.521 109.706 113.463 110.145 113.568 110.545C113.645 110.85 113.864 111.251 114.122 111.365C116.258 112.291 118.08 111.06 118.08 108.733C118.089 97.5926 118.089 86.4428 118.08 75.3025ZM99.29 38.3429C99.29 38.3239 99.29 38.3143 99.29 38.2952C108.074 38.2952 116.859 38.3048 125.634 38.2762C126.254 38.2762 127.379 38.0091 127.417 37.742C127.589 36.483 127.646 35.1382 127.36 33.9173C127.265 33.5263 125.987 33.2115 125.243 33.2115C114.827 33.1257 104.421 33.0875 94.006 33.0589C87.1196 33.0398 80.2237 33.0589 73.3373 33.0208C71.9924 33.0112 71.2294 33.469 71.1626 34.8711C71.134 35.3957 70.9719 35.9108 70.9528 36.4353C70.8956 37.6944 71.3725 38.3715 72.7841 38.3715C81.6162 38.3239 90.4579 38.3429 99.29 38.3429ZM83.2949 81.7215C83.7527 81.2923 84.6874 80.7963 84.8496 80.1287C84.9545 79.6804 84.0579 78.6598 83.4284 78.4404C82.0168 77.9731 80.4908 77.6202 79.0124 77.6106C58.7633 77.563 38.5047 77.5534 18.2557 77.6106C16.6247 77.6106 14.946 77.9159 13.3913 78.4023C12.8 78.5835 12.4947 79.6899 12.0655 80.3766C12.7904 80.7772 13.4867 81.2255 14.2497 81.5498C14.4691 81.6452 14.8411 81.3877 15.1367 81.3018C19.4574 80.0333 23.6351 79.2989 27.8699 81.96C30.1399 83.3811 32.801 82.6658 34.8326 81.0634C37.7703 78.7457 42.2913 79.5373 44.5995 81.1588C47.3178 83.0664 49.5973 83.0568 52.268 81.1778C55.3869 78.9937 59.0495 78.9841 62.1111 81.1874C63.8375 82.4369 65.7355 82.8947 67.7767 82.3129C68.9308 81.9886 70.0276 81.464 71.115 80.9394C72.9844 80.0428 74.8443 79.6804 76.9045 80.2813C78.8788 80.8631 80.9104 81.1969 83.2949 81.7215ZM16.0142 89.4282C18.7707 89.4282 21.4413 89.3519 24.1024 89.4663C25.1421 89.514 26.1626 90.0004 27.2118 90.2198C27.6124 90.3056 28.2037 90.3724 28.4517 90.153C29.7012 89.0562 31.17 89.3137 32.5054 89.5903C33.0872 89.7143 33.7357 90.649 33.9265 91.3358C34.1554 92.156 34.0505 93.1575 35.1664 93.1861C36.2442 93.2052 36.4445 92.3086 36.4827 91.393C36.5304 90.3056 37.074 89.4949 38.19 89.4949C40.7557 89.4949 43.4168 89.2279 45.8775 89.7906C52.4778 91.2976 58.9827 93.1956 65.5448 94.8743C66.1457 95.0269 67.0136 94.9411 67.5001 94.5977C69.5126 93.1766 71.3343 91.4502 73.4231 90.1817C74.4437 89.5617 76.0461 89.2469 77.1334 89.5998C78.173 89.9241 78.8121 90.1721 79.7563 89.5045C80.2523 89.1611 81.311 89.3614 80.9581 88.3599C80.8341 88.007 79.9757 87.8639 79.4225 87.7399C78.9742 87.6446 78.4782 87.7209 78.0109 87.7209C58.6107 87.7018 39.2201 87.6923 19.8199 87.6827C18.5799 87.6827 17.3305 87.6827 16.0238 87.6827C16.0142 88.3122 16.0142 88.8082 16.0142 89.4282ZM85.4505 69.7895C85.4505 60.6808 85.4982 51.6198 85.4219 42.5492C85.4028 39.5447 85.2693 39.5829 82.2171 39.621C81.2347 39.6401 80.7864 39.8976 80.796 40.9563C80.8437 46.9843 80.8437 53.0218 80.8818 59.0593C80.8818 59.4695 80.9486 59.9082 81.1107 60.2802C82.5223 63.4087 83.953 66.518 85.4505 69.7895ZM47.9854 38.4383C51.009 37.0744 53.6796 35.9012 56.3121 34.6517C57.1228 34.2702 57.0369 33.6121 56.2644 33.2592C53.5651 32.0383 50.8373 30.8747 47.9854 29.6348C47.9854 32.6297 47.9854 35.3194 47.9854 38.4383ZM102.209 8.67992C102.209 7.16339 102.209 6.07607 102.209 4.98874C102.209 1.12587 102.714 1.35478 98.6224 1.27848C96.1044 1.23079 96.0567 1.23079 96.0758 3.74881C96.0758 4.50231 96.1711 5.64686 96.6385 5.94253C98.2599 6.95356 100.063 7.65937 102.209 8.67992ZM101.961 14.6125C101.961 13.1723 101.989 12.085 101.951 10.9976C101.932 10.5494 101.913 9.85309 101.646 9.70049C99.8719 8.67039 98.0406 7.76428 95.8945 6.64834C95.8945 8.43194 95.8468 9.77679 95.9231 11.1216C95.9422 11.5032 96.257 12.0373 96.5813 12.1994C98.2123 13.0006 99.8909 13.6969 101.961 14.6125ZM101.808 26.0676C101.808 24.4366 101.837 23.0918 101.789 21.7564C101.779 21.4989 101.551 21.1365 101.331 21.0125C99.5953 20.0873 97.8307 19.2098 95.761 18.1606C95.761 19.8775 95.7324 21.2796 95.7801 22.6816C95.7896 22.9964 95.9995 23.4542 96.2474 23.5782C97.9643 24.3889 99.7288 25.1424 101.808 26.0676ZM95.8182 12.8194C95.8182 14.2501 95.7801 15.242 95.8373 16.234C95.8564 16.6155 95.9613 17.1878 96.2188 17.3213C98.012 18.256 99.8528 19.1049 101.961 20.1159C101.961 18.6757 101.999 17.5788 101.942 16.4915C101.923 16.1768 101.713 15.738 101.465 15.6045C99.7097 14.6984 97.9261 13.8495 95.8182 12.8194ZM95.5893 24.2554C95.5893 25.4476 95.513 26.2297 95.6179 26.9832C95.6942 27.546 95.8659 28.3376 96.257 28.557C97.9357 29.4917 99.7193 30.2452 101.923 31.2849C101.474 29.6157 102.647 28.042 101.198 27.0595C99.6048 25.9913 97.7449 25.3141 95.5893 24.2554ZM77.4386 55.8164C77.6294 55.7306 77.8297 55.6543 78.0204 55.5685C77.6485 50.6564 77.286 45.7444 76.8663 40.8323C76.8377 40.4985 76.3513 40.1933 76.0747 39.8785C75.8553 40.2696 75.4166 40.6702 75.4356 41.0422C75.7027 45.3915 75.9984 49.7503 76.399 54.0901C76.4562 54.7005 77.0762 55.2442 77.4386 55.8164ZM81.8642 108.218C82.6082 108.17 83.0278 108.084 83.4284 108.132C85.069 108.351 85.4982 107.579 85.4314 106.062C85.3265 103.754 85.4123 101.446 85.3933 99.1378C85.3837 98.3366 85.3265 97.5259 85.2788 96.5435C83.5429 98.2603 83.5047 98.2603 83.562 100.225C83.6478 102.915 83.4761 105.557 81.8642 108.218ZM88.4263 111.604C86.6523 108.857 83.2949 108.313 80.8341 110.211C80.0902 110.784 79.4988 110.936 78.5832 110.688C77.2765 110.335 75.9507 110.45 74.644 111.604C79.3367 111.604 83.7527 111.604 88.4263 111.604ZM28.6902 83.9725C27.4979 83.4097 26.4297 82.8565 25.3233 82.4082C24.999 82.2747 24.3886 82.2842 24.1978 82.4941C23.244 83.5433 22.376 84.6878 21.489 85.7942C21.5844 85.9182 21.6893 86.0517 21.7847 86.1757C24.1024 85.6511 27.0401 87.4252 28.6902 83.9725ZM85.2502 82.6276C85.069 82.5227 84.8782 82.4178 84.697 82.3129C84.5539 82.5799 84.3918 82.8374 84.2678 83.114C83.7432 84.3254 83.0469 85.5081 82.7703 86.7766C82.5605 87.759 82.6273 88.9703 83.0278 89.8764C83.3712 90.649 84.3727 91.1259 85.2407 91.8603C85.2502 88.6937 85.2502 85.6607 85.2502 82.6276ZM16.1382 97.6213C14.6789 96.1906 14.3356 94.7026 15.0509 93.1193C15.7758 91.4979 17.2923 91.2022 18.8852 91.1831C19.3621 91.1736 19.8294 91.1545 20.3063 91.1545C21.9278 91.1545 23.5492 91.1545 25.1707 91.1545C22.1185 90.8112 19.0759 90.7539 16.0429 90.8302C14.2497 90.8684 12.9716 92.3468 12.9335 94.1781C12.8953 95.9903 13.9922 97.2779 16.1382 97.6213ZM29.3292 97.4114C29.3006 96.925 29.3864 96.4481 29.2148 96.1047C28.9763 95.6564 28.4517 94.9411 28.2037 94.9983C27.7078 95.1128 27.021 95.6183 26.9352 96.0666C26.7635 96.9536 26.8589 97.9265 27.0306 98.823C27.0878 99.1283 27.7173 99.5479 28.0416 99.5098C28.4613 99.4621 28.9572 99.0901 29.1766 98.7086C29.3864 98.3461 29.2911 97.8025 29.3292 97.4114ZM30.7981 85.8705C33.3733 86.3188 35.052 85.1456 35.9485 82.1602C34.3557 83.7912 31.6374 83.2762 30.7981 85.8705ZM17.4354 86.1662C16.8727 84.9739 16.3385 83.858 15.6041 82.3129C15.0891 82.9424 14.3069 83.4765 14.3165 83.9915C14.3356 85.4508 15.6804 86.2711 17.4354 86.1662ZM99.4427 31.6759C99.4713 31.571 99.5094 31.4661 99.538 31.3612C98.2981 30.7221 97.0486 30.0831 95.6942 29.3868C95.6942 30.3406 95.6942 30.9796 95.6942 31.6759C97.0486 31.6759 98.2504 31.6759 99.4427 31.6759Z" fill="black"/>
<path d="M46.9172 47.4598C46.7836 48.1084 46.631 48.7951 46.4689 49.6059C45.7726 49.52 45.1813 49.4437 44.5327 49.3674C45.8108 51.3513 48.4146 51.4085 50.2268 49.4819C49.5973 49.4819 49.0537 49.4819 48.3669 49.4819C48.2429 48.7856 48.119 48.0989 47.9187 46.9639C51.0376 47.2595 53.8989 47.4026 56.7317 47.8127C62.7979 48.6902 68.4634 50.6837 73.4613 54.3272C79.4416 58.686 82.7894 64.6186 83.81 71.8865C84.3822 75.9211 84.3155 75.9306 80.2428 75.9306C59.4691 75.9306 38.6859 75.9211 17.9123 75.9211C16.968 75.9211 16.0142 75.9211 15.07 75.9878C13.4199 76.0927 12.7236 75.4537 12.8858 73.775C13.7156 65.3053 17.2637 58.3808 24.5221 53.6214C30.9983 49.377 38.2663 47.7269 45.868 47.2023C46.0778 47.1928 46.2877 47.2119 46.4975 47.25C46.5833 47.2595 46.6692 47.3358 46.9172 47.4598Z" fill="white"/>
<path d="M15.0604 99.262C18.4178 99.262 21.7274 99.2333 25.0275 99.3001C25.4377 99.3096 25.9146 99.7198 26.2389 100.063C27.3548 101.255 28.9763 101.227 30.1208 100.063C30.5023 99.6721 31.1223 99.3001 31.6373 99.3001C47.89 99.3001 64.1331 99.3478 80.3858 99.3573C81.6448 99.3573 82.0072 99.8628 82.0454 101.046C82.1217 103.583 81.7497 105.967 80.1664 108.046C79.5274 108.886 78.8216 109.429 77.6579 109.324C76.0555 109.172 74.6916 109.744 73.528 110.889C72.5074 111.909 71.5346 111.699 70.7811 110.402C70.0276 109.096 66.5939 109.029 65.4017 110.488C64.6386 111.423 63.8374 111.537 62.8073 111.537C50.141 111.518 37.465 111.327 24.7986 111.595C17.7692 111.738 13.8395 105.919 15.0604 99.262Z" fill="white"/>
<path d="M91.6597 91.6983C91.6597 85.8134 91.6978 79.9189 91.6215 74.034C91.612 73.2042 91.0206 72.3839 90.6963 71.5541C90.3434 70.648 89.7521 69.761 89.6758 68.8263C89.2561 63.6472 88.9414 58.4585 88.6171 53.2699C88.5026 51.4005 88.8746 49.8267 90.9825 49.1686C91.3163 49.0637 91.612 48.2625 91.631 47.776C91.7169 45.6205 91.7455 43.4649 91.6883 41.3093C91.6597 40.1171 92.0221 39.6211 93.3002 39.6402C96.9532 39.7069 96.2188 39.5066 96.2951 42.5588C96.3237 43.875 96.3619 45.1913 96.3237 46.498C96.2856 47.8333 96.3237 48.9969 97.6781 49.8935C98.279 50.2845 98.6033 51.4291 98.67 52.2589C99.1374 57.8576 99.538 63.4564 99.8718 69.0647C99.9577 70.505 99.2137 71.7449 97.7639 72.012C96.3714 72.2599 96.3142 72.9944 96.3237 74.1008C96.3333 85.7657 96.3237 97.4401 96.2856 109.105C96.2856 109.839 96.1234 111.156 95.8564 111.203C94.645 111.423 93.3574 111.356 92.127 111.203C91.9363 111.184 91.7455 110.211 91.7455 109.677C91.7169 103.687 91.7264 97.6881 91.7264 91.6983C91.6883 91.6983 91.6692 91.6983 91.6597 91.6983Z" fill="white"/>
<path d="M102.705 111.374C102.705 110.669 102.705 110.106 102.705 109.534C102.705 86.8618 102.705 64.1901 102.733 41.5184C102.733 40.9271 103.048 39.8493 103.286 39.8302C104.507 39.7253 105.766 39.8302 106.978 40.0401C107.159 40.0687 107.245 41.0797 107.245 41.6424C107.264 56.6361 107.254 71.6297 107.254 86.6234C107.254 94.0916 107.254 101.56 107.254 109.038C107.254 111.489 107.254 111.498 104.727 111.479C104.116 111.451 103.496 111.403 102.705 111.374Z" fill="white"/>
<path d="M118.08 75.3019C118.08 86.4517 118.08 97.5921 118.08 108.742C118.08 111.069 116.258 112.3 114.122 111.374C113.864 111.26 113.645 110.859 113.568 110.554C113.473 110.154 113.521 109.715 113.521 109.295C113.521 86.9 113.511 64.5049 113.54 42.1098C113.54 41.3468 113.74 40.002 114.093 39.9161C115.228 39.6395 116.477 39.7444 117.67 39.8875C117.87 39.9066 118.061 40.8699 118.061 41.3945C118.08 52.4394 118.08 63.4748 118.08 74.5198C118.08 74.7773 118.08 75.0348 118.08 75.3019Z" fill="white"/>
<path d="M99.29 38.3436C90.4578 38.3436 81.6257 38.3245 72.784 38.3627C71.3724 38.3722 70.8955 37.6855 70.9528 36.4265C70.9718 35.9019 71.1435 35.3868 71.1626 34.8622C71.2294 33.4506 71.9924 33.0023 73.3372 33.0119C80.2236 33.05 87.1196 33.0309 94.006 33.05C104.421 33.0786 114.827 33.1168 125.243 33.2026C125.987 33.2122 127.265 33.5174 127.36 33.9084C127.656 35.1293 127.599 36.4741 127.417 37.7332C127.379 37.9907 126.263 38.2673 125.634 38.2673C116.849 38.3054 108.065 38.2864 99.29 38.2864C99.29 38.315 99.29 38.334 99.29 38.3436Z" fill="white"/>
<path d="M83.2949 81.7211C80.9104 81.1965 78.8788 80.8627 76.914 80.2904C74.8443 79.6895 72.9844 80.0615 71.1245 80.9485C70.0371 81.4635 68.9403 81.9977 67.7862 82.322C65.7451 82.9038 63.847 82.4364 62.1206 81.1965C59.0494 78.9932 55.3869 79.0028 52.2775 81.1869C49.6069 83.0659 47.3178 83.0755 44.609 81.1679C42.3008 79.5464 37.7798 78.7548 34.8421 81.0725C32.8105 82.6749 30.1399 83.3902 27.8794 81.9691C23.6446 79.308 19.467 80.0329 15.1463 81.3109C14.841 81.3968 14.4786 81.6543 14.2592 81.5589C13.5057 81.2346 12.7999 80.7863 12.075 80.3858C12.5043 79.699 12.8095 78.5926 13.4008 78.4114C14.9555 77.925 16.6342 77.6198 18.2652 77.6198C38.5142 77.5721 58.7728 77.5721 79.0219 77.6198C80.5003 77.6198 82.0264 77.9727 83.438 78.4496C84.0675 78.6594 84.964 79.6895 84.8591 80.1378C84.697 80.8054 83.7622 81.2919 83.2949 81.7211Z" fill="white"/>
<path d="M16.0142 89.4278C16.0142 88.8079 16.0142 88.3119 16.0142 87.6729C17.3209 87.6729 18.5608 87.6729 19.8103 87.6729C39.2105 87.6824 58.6011 87.7015 78.0013 87.711C78.4782 87.711 78.9646 87.6347 79.4129 87.7301C79.9661 87.8541 80.815 87.9971 80.9485 88.35C81.311 89.3515 80.2427 89.1417 79.7467 89.4946C78.8025 90.1623 78.1634 89.9143 77.1238 89.59C76.0365 89.2466 74.4341 89.5614 73.4136 90.1718C71.3247 91.4499 69.503 93.1762 67.4905 94.5878C67.0041 94.9312 66.1361 95.0171 65.5352 94.8645C58.9731 93.1858 52.4682 91.2877 45.868 89.7807C43.4072 89.218 40.7461 89.4755 38.1804 89.4851C37.074 89.4851 36.5208 90.2958 36.4731 91.3831C36.4349 92.2987 36.2346 93.1953 35.1568 93.1762C34.0409 93.1572 34.1458 92.1461 33.9169 91.3259C33.7262 90.6391 33.0871 89.6949 32.4958 89.5804C31.1604 89.3038 29.6916 89.0559 28.4421 90.1432C28.1941 90.3626 27.6028 90.2958 27.2022 90.2099C26.153 89.9906 25.1325 89.5041 24.0928 89.4564C21.4413 89.3515 18.7707 89.4278 16.0142 89.4278Z" fill="white"/>
<path d="M85.4505 69.7901C83.953 66.5186 82.5223 63.3997 81.1202 60.2713C80.9581 59.8993 80.8913 59.4606 80.8913 59.0504C80.8532 53.0129 80.8532 46.9849 80.8055 40.9474C80.7959 39.8982 81.2442 39.6312 82.2266 39.6121C85.2788 39.5644 85.4028 39.5262 85.4314 42.5402C85.4982 51.6204 85.4505 60.6814 85.4505 69.7901Z" fill="white"/>
<path d="M47.9854 38.4373C47.9854 35.3184 47.9854 32.6287 47.9854 29.6338C50.8373 30.8737 53.5651 32.0374 56.2643 33.2582C57.0369 33.6111 57.1323 34.2597 56.312 34.6508C53.6796 35.9002 51.0089 37.0734 47.9854 38.4373Z" fill="white"/>
<path d="M102.209 8.67889C100.053 7.65833 98.2504 6.95252 96.6385 5.9415C96.1711 5.64582 96.0853 4.50127 96.0757 3.74777C96.0662 1.22975 96.1043 1.22975 98.6224 1.27744C102.714 1.35375 102.209 1.13437 102.209 4.9877C102.209 6.08457 102.209 7.16235 102.209 8.67889Z" fill="white"/>
<path d="M101.961 14.6126C99.8909 13.697 98.2122 13.0007 96.5812 12.1995C96.2569 12.0374 95.9422 11.5033 95.9231 11.1217C95.8468 9.77688 95.8945 8.43203 95.8945 6.64844C98.0405 7.76438 99.8813 8.68002 101.646 9.70058C101.913 9.85319 101.932 10.5495 101.951 10.9977C101.989 12.0851 101.961 13.1724 101.961 14.6126Z" fill="white"/>
<path d="M101.808 26.0669C99.7287 25.1417 97.9642 24.3882 96.2379 23.5679C95.9899 23.4535 95.7896 22.9861 95.7705 22.6714C95.7228 21.2693 95.7514 19.8672 95.7514 18.1504C97.8212 19.1996 99.5857 20.0771 101.322 21.0022C101.55 21.1262 101.779 21.4887 101.779 21.7462C101.837 23.091 101.808 24.4359 101.808 26.0669Z" fill="white"/>
<path d="M95.8182 12.8184C97.9261 13.8485 99.7097 14.6973 101.465 15.613C101.713 15.7465 101.922 16.1853 101.942 16.5C101.999 17.5873 101.961 18.6842 101.961 20.1244C99.8528 19.1134 98.0119 18.2645 96.2188 17.3298C95.9613 17.1963 95.8564 16.624 95.8373 16.2425C95.7801 15.2505 95.8182 14.2491 95.8182 12.8184Z" fill="white"/>
<path d="M95.5893 24.2559C97.7449 25.3146 99.6048 25.9918 101.188 27.06C102.638 28.0329 101.474 29.6162 101.913 31.2853C99.7097 30.2457 97.9261 29.4922 96.2474 28.5575C95.8564 28.3381 95.6847 27.5369 95.6084 26.9837C95.513 26.2302 95.5893 25.4481 95.5893 24.2559Z" fill="white"/>
<path d="M77.4386 55.8161C77.0761 55.2438 76.4562 54.7001 76.3989 54.0992C75.9983 49.7595 75.7026 45.4102 75.4356 41.0513C75.4165 40.6793 75.8457 40.2692 76.0746 39.8877C76.3512 40.2024 76.8377 40.5077 76.8663 40.8415C77.286 45.7535 77.6484 50.6656 78.0204 55.5776C77.8296 55.6539 77.6293 55.7398 77.4386 55.8161Z" fill="white"/>
<path d="M81.8641 108.217C83.4761 105.566 83.6477 102.924 83.5619 100.215C83.5047 98.25 83.5524 98.25 85.2787 96.5332C85.3264 97.5252 85.3836 98.3263 85.3932 99.1275C85.4123 101.436 85.3264 103.753 85.4313 106.052C85.4981 107.569 85.0689 108.351 83.4284 108.122C83.0278 108.074 82.6081 108.17 81.8641 108.217Z" fill="white"/>
<path d="M88.4263 111.603C83.7623 111.603 79.3462 111.603 74.644 111.603C75.9507 110.449 77.2765 110.335 78.5832 110.688C79.4988 110.936 80.0901 110.783 80.8341 110.211C83.2949 108.313 86.6523 108.856 88.4263 111.603Z" fill="white"/>
<path d="M28.6902 83.9721C27.0401 87.4249 24.1024 85.6508 21.7847 86.1849C21.6893 86.0609 21.5844 85.9274 21.489 85.8034C22.3856 84.697 23.244 83.5525 24.1978 82.5033C24.3885 82.2935 24.999 82.2839 25.3233 82.4174C26.4297 82.8562 27.4979 83.4094 28.6902 83.9721Z" fill="white"/>
<path d="M85.2501 82.6272C85.2501 85.6603 85.2501 88.6934 85.2501 91.86C84.3822 91.1255 83.3807 90.6487 83.0373 89.8761C82.6368 88.97 82.5605 87.7682 82.7798 86.7763C83.0564 85.5077 83.7527 84.325 84.2773 83.1137C84.4013 82.8371 84.5634 82.5796 84.7065 82.3125C84.8782 82.4174 85.0689 82.5223 85.2501 82.6272Z" fill="white"/>
<path d="M16.1382 97.6203C14.0017 97.2769 12.8953 95.9893 12.9335 94.1676C12.9716 92.3363 14.2497 90.8579 16.0428 90.8197C19.0855 90.753 22.1281 90.8007 25.1707 91.144C23.5492 91.144 21.9278 91.144 20.3063 91.144C19.8294 91.144 19.3621 91.1631 18.8852 91.1726C17.2923 91.1917 15.7662 91.4874 15.0509 93.1089C14.3356 94.7017 14.6789 96.1896 16.1382 97.6203Z" fill="white"/>
<path d="M29.3292 97.4114C29.291 97.8025 29.3864 98.3462 29.1671 98.7086C28.9477 99.0901 28.4422 99.4621 28.032 99.5098C27.7077 99.5479 27.0782 99.1187 27.021 98.8231C26.8589 97.917 26.754 96.9536 26.9256 96.0666C27.0115 95.6183 27.6982 95.1128 28.1942 94.9984C28.4422 94.9411 28.9668 95.6565 29.2052 96.1048C29.3864 96.4481 29.3006 96.925 29.3292 97.4114Z" fill="white"/>
<path d="M30.798 85.8704C31.6278 83.2761 34.3557 83.7911 35.9485 82.1602C35.052 85.1455 33.3733 86.3187 30.798 85.8704Z" fill="white"/>
<path d="M17.4354 86.1658C15.6804 86.2612 14.3355 85.4409 14.3165 83.9912C14.3069 83.4761 15.0986 82.942 15.6041 82.3125C16.3385 83.8576 16.8726 84.9831 17.4354 86.1658Z" fill="white"/>
<path d="M99.4426 31.6758C98.2408 31.6758 97.0486 31.6758 95.7037 31.6758C95.7037 30.9796 95.7037 30.3405 95.7037 29.3867C97.0581 30.083 98.2981 30.722 99.5475 31.3611C99.5094 31.466 99.4808 31.5709 99.4426 31.6758Z" fill="white"/>
</g>
<defs>
<clipPath id="clip0">
<rect width="138.443" height="113.072" fill="white"/>
</clipPath>
</defs>
</svg>
