<svg width="128" height="115" viewBox="0 0 128 115" fill="none" xmlns="http://www.w3.org/2000/svg">
<g clip-path="url(#clip0)">
<path d="M63.9688 90.9535C45.5079 90.9535 27.0365 90.9119 8.57559 90.9846C4.15786 90.995 -0.0311941 87.6583 -1.00858e-05 82.7001C0.0623579 73.2929 -1.00858e-05 63.8753 -1.00858e-05 54.4681C-1.00858e-05 43.6993 -1.00858e-05 32.92 -1.00858e-05 22.1511C-1.00858e-05 16.7978 3.37826 13.4092 8.7523 13.4092C45.5702 13.4092 82.3882 13.4092 119.216 13.4092C122.886 13.4092 125.703 14.8436 127.283 18.2427C127.709 19.1574 127.969 20.2385 127.969 21.2468C128 41.8282 128 62.4097 127.958 82.9911C127.948 87.5232 124.362 90.9431 119.788 90.9535C107.211 90.9638 94.6435 90.9535 82.0659 90.9535C76.037 90.9535 70.0081 90.9535 63.9688 90.9535ZM64.0104 17.4319C52.7737 17.4215 41.5371 17.4215 30.2901 17.4215C22.6084 17.4215 14.9163 17.4215 7.23468 17.4215C4.90628 17.4215 4.10589 18.2115 4.10589 20.4983C4.10589 41.0382 4.10589 61.5885 4.10589 82.1284C4.10589 84.5503 4.90628 85.3403 7.32823 85.3403C21.0492 85.3403 34.7702 85.3403 48.4807 85.3403C72.5756 85.3403 96.6808 85.3403 120.776 85.3403C123.052 85.3403 123.904 84.4984 123.904 82.2427C123.904 61.6613 123.904 41.0902 123.904 20.5087C123.904 18.2427 123.114 17.4319 120.89 17.4319C101.93 17.4319 82.9703 17.4319 64.0104 17.4319Z" fill="black"/>
<path d="M20.5502 114.57C20.5502 113.759 20.4567 113.001 20.571 112.273C20.8413 110.496 22.1302 109.529 24.1052 109.518C31.5374 109.498 38.9696 109.466 46.4122 109.498C47.3685 109.498 47.7739 109.186 48.0961 108.323C49.5618 104.352 51.1106 100.413 52.597 96.4523C52.8153 95.8702 53.0856 95.6104 53.7508 95.6104C60.1851 95.6311 66.609 95.6311 73.0433 95.6104C73.7086 95.6104 73.9685 95.9118 74.2179 96.4419C76.1825 100.517 78.1887 104.56 80.1325 108.645C80.4547 109.311 80.8289 109.487 81.5254 109.487C88.7809 109.466 96.0364 109.56 103.292 109.435C106.306 109.383 108.063 111.161 107.398 114.57C78.4693 114.57 49.541 114.57 20.5502 114.57Z" fill="black"/>
<path d="M8.92902 80.5695C8.92902 80.0913 8.92902 79.6963 8.92902 79.3117C8.92902 60.5597 8.92902 41.8181 8.90823 23.0661C8.90823 22.2658 9.12652 22.0163 9.93731 22.0267C15.935 22.0787 21.9328 22.1202 27.9305 22.1098C50.8092 22.0994 73.6774 22.0683 96.5561 22.0371C103.593 22.0267 110.631 22.0371 117.657 22.0371C118.083 22.0371 118.51 22.0371 119.019 22.0371C119.019 41.5791 119.019 61.0275 119.019 80.5591C82.357 80.5695 45.7262 80.5695 8.92902 80.5695Z" fill="black"/>
<path d="M63.9688 -0.000289977C75.8499 -0.000289977 87.731 -0.000289977 99.6121 -0.000289977C99.9552 -0.000289977 100.309 -0.0106847 100.652 0.0204994C101.431 0.0932621 101.982 0.62339 102.076 1.40299C102.107 1.64207 102.086 1.88115 102.086 2.12022C102.086 18.076 102.086 34.0319 102.086 49.9877C102.086 51.8587 101.66 52.2953 99.7785 52.2953C75.8603 52.2953 51.9422 52.2953 28.0136 52.2953C26.2881 52.2953 25.8307 51.8275 25.8307 50.1228C25.8307 34.115 25.8307 18.1072 25.8307 2.09943C25.8307 0.498654 26.2985 0.0204994 27.9305 0.0204994C39.9467 0.0101047 51.9526 0.0101047 63.9688 -0.000289977C63.9688 0.0101047 63.9688 -0.000289977 63.9688 -0.000289977ZM63.948 33.6161C74.7377 23.5021 85.465 13.4608 96.2962 3.31561C74.5506 3.31561 53.0336 3.31561 31.3295 3.31561C42.2647 13.4816 53.0648 23.5125 63.948 33.6161ZM31.5478 48.9794C53.2311 48.9794 74.7065 48.9794 96.3586 48.9794C88.9888 41.9942 81.7437 35.1129 74.4778 28.2212C74.1764 28.4915 73.9789 28.6578 73.7918 28.8345C70.9748 31.4748 68.1579 34.115 65.3409 36.7553C64.343 37.6908 63.5946 37.7012 62.5759 36.7553C60.84 35.1441 59.1041 33.5225 57.3682 31.9114C56.0481 30.6848 54.7175 29.4686 53.3558 28.2109C46.09 35.1233 38.8865 41.9838 31.5478 48.9794ZM98.8325 5.36336C91.4211 12.3174 84.1345 19.1363 76.827 25.9864C84.1864 32.9612 91.4419 39.8529 98.8429 46.8693C98.8325 32.9612 98.8325 19.2714 98.8325 5.36336ZM29.0947 5.66481C29.0947 19.4689 29.0947 33.0756 29.0947 46.8381C36.4541 39.8321 43.6992 32.93 50.9859 25.9864C43.6576 19.1883 36.4333 12.4837 29.0947 5.66481Z" fill="black"/>
<path d="M63.948 33.6159C53.0648 23.5123 42.2647 13.4814 31.3192 3.31543C53.0232 3.31543 74.5506 3.31543 96.2859 3.31543C85.4546 13.4606 74.7377 23.5123 63.948 33.6159Z" fill="white"/>
<path d="M31.5478 48.9795C38.8969 41.9839 46.1004 35.1234 53.3558 28.2109C54.7175 29.4687 56.0481 30.6953 57.3682 31.9114C59.1041 33.5226 60.84 35.1442 62.5759 36.7554C63.5946 37.7013 64.343 37.7013 65.3409 36.7554C68.1579 34.1151 70.9748 31.4749 73.7918 28.8346C73.9893 28.6579 74.1868 28.4812 74.4778 28.2213C81.7437 35.113 88.9888 41.9839 96.3586 48.9795C74.7065 48.9795 53.2207 48.9795 31.5478 48.9795Z" fill="white"/>
<path d="M98.8325 5.36328C98.8325 19.2714 98.8325 32.9611 98.8325 46.8692C91.4419 39.8632 84.1761 32.9715 76.827 25.9863C84.1345 19.1362 91.4211 12.3173 98.8325 5.36328Z" fill="white"/>
<path d="M29.0947 5.66455C36.4333 12.4835 43.6576 19.188 50.9859 25.9965C43.6992 32.9298 36.4541 39.8318 29.0947 46.8482C29.0947 33.0753 29.0947 19.4687 29.0947 5.66455Z" fill="white"/>
</g>
<defs>
<clipPath id="clip0">
<rect width="128" height="114.57" fill="white"/>
</clipPath>
</defs>
</svg>
