<svg width="400" height="370" fill="none" xmlns="http://www.w3.org/2000/svg"><g clip-path="url(#clip0)" fill="#fff"><path d="M32.01 283.09c1.92-1.53 3.68-3.26 5.76-4.51 4.66-2.8 9.5-5.33 14.23-7.99.97-.55 1.87-1.21 2.73-1.78-2.71-2.8-5.46-5.36-7.89-8.2a18.5 18.5 0 01-2.95-5.12c-2.32-5.68-1.37-8.1 4.09-11 .94-.5 1.86-1.04 3.01-1.69-4.04 1.22-7.77 2.53-11.6 3.44-4.7 1.12-6.26.47-8.26-3.93-1.59-3.52-2.56-7.31-3.71-11.01-.59-1.85.06-3.41 1.74-4.46 4.88-3.09 9.73-6.22 14.7-9.17 1.88-1.1 2.22-1.79.7-3.67-2.49-3.11-4.57-6.57-6.97-10.09-1.25 1.56-2.66 3.15-3.9 4.88-3.55 4.95-9.01 6.54-14.37 8.17-2.67.8-3.47-1.5-3.83-3.92-1.38.17-2.74.07-3.86.52-3.49 1.45-6.36.31-9.15-1.73-2.87-2.1-3.49-7-.53-8.73 6.99-4.1 8.77-10.84 9.63-17.94.8-6.46 3.17-12 7.68-16.59 1.77-1.8 1.26-3.47.44-5.41-2.05-4.84-4.43-9.58-5.9-14.6-3.12-10.75-1.42-21.31 1.87-31.84 1.32-4.22 3.82-7.79 5.16-11.9.36-1.1.4-2.28.63-3.4.13-.57.23-1.35.62-1.6 2.89-1.9 3.57-4.97 4.67-7.94.57-1.5.72-3.42 3.05-4.3 1.56-.58 2.4-3.02 3.59-4.6 1.5-2 3.05-3.97 4.6-5.95-.25-.1-.5-.19-.74-.3.28-1.04.21-2.45.88-3 1.3-1.08 3-1.64 4.52-2.46.59-.3 1.16-.68 1.64-1.13C49.9 65 55.52 59.9 61.05 54.69c2.2-2.07 4.19-4.36 6.28-6.55-.06.44-.14.87-.32 1.98l5.53-4.24-.44-.84c-1.09.47-2.16.96-3.24 1.43.63-1.64 1.7-2.39 3.57-2.16.8.1 1.81-.2 2.51-.65 8.1-5.27 15.88-11.05 24.24-15.85C125.11 12.95 153.35 4.77 182.83.5c3.43-.5 6.75-.93 10.23.2 1.75.57 3.92-.3 5.88-.22 8.28.32 16.55.8 24.83 1.13 1.23.05 2.53-.16 3.73-.48a9.01 9.01 0 017.87 1.23C239 4.84 243.1 5.92 247.47 5c2.9-.62 7.99 1.04 9.77 3.42.5.68 1.4 1.2 2.22 1.48 14.04 4.73 27.68 10.3 40.5 17.8 1.12.64 2.63.63 3.94.99 3.1.86 6.64 1.07 7.12 5.48.09.8 1.27 1.5 2.05 2.16 6.54 5.5 13.61 10.45 19.52 16.56a90.56 90.56 0 0119.37 30.7c2.89 7.54 3.78 15.27-.57 22.92 2.68 1.38 5.32 2.75 7.97 4.1-4.38-.93-8.4-3.63-13.6-2.98 2.47 3.38 4.79 6.36 6.86 9.5.88 1.31 1.7 2.97 1.74 4.49.06 2.47 1.69 3.5 3.36 3.4 2.3-.12 4.62-1.03 6.78-1.97 1.56-.68 2.84-1.97 4.43-3.12l-7.48-4.23c.16-.28.34-.54.5-.81 4.47 2.8 8.91 5.63 13.92 8.77-.56-1.4-.71-2.53-1.34-3.16-1.6-1.56-3.4-2.87-5.11-4.28 2.54 1.4 5.63 2.33 7.46 4.38 1.59 1.78 1.74 4.85 2.58 7.32.26.77.62 1.62 1.15 2.2 2.29 2.5 4.56 4.93 4.28 8.71-.08 1.17.56 2.4.48 3.57-.52 7.14-5.49 9.7-11.87 7.13-3.5-1.43-6.4-4.32-9.62-6.51-4.02-2.76-8.1-5.45-12.63-7.9 2.1 6.65 1.02 12.64-2.32 18.37 5.8-.23 11.27-.57 16.74-.62 2.48-.02 5.01.32 7.41.9 3.1.75 5 2.72 5.4 6.16.23 2 1.35 3.9 1.77 5.92.17.8-.2 2.17-.8 2.58-4.8 3.16-9.7 6.15-14.15 8.94 2.5 0 3.08 2.6 3.94 4.91 1.85 5 1.98 10.06.14 15.34 5.36.73 9.88 2.6 14.05 5.6a27.18 27.18 0 0110.01 13.52c.31.88.43 1.85.48 2.8.27 4.96-.18 5.2-4.97 4.42-4.91-.8-9.9-1.25-15.6-1.93.69 3.04 1.78 5.55 1.71 8.03-.06 2.5-1.28 4.99-1.88 7.1 1.33 3.45 4.4 3.86 7.16 4.68 4.72 1.41 9.45 2.73 14.18 4.14 1.05.33 2.04.88 3.06 1.31-7.35-1.44-14.68-2.9-22.58-4.46l3.08 8.34c2.76-3.81 5.66-5.16 9.62-4.2 2.58.62 5.27.8 7.92 1.02.6.05 1.25-.48 1.87-.76l2.48 1.59c-1.82 3.23-3.43 6.64-5.62 9.65-.8 1.1-2.92 1.27-4.46 1.74-2.79.84-5.64 1.35-6.58 4.93-.33 1.22-1.94 2.08-3.14 3.28 2.44 6.54 2.84 13.58 3.35 20.65.38 5.57-2.66 8.98-6.33 12.29-13.06 11.84-29.56 16.5-45.75 21.56a605.4 605.4 0 01-39.53 10.77c-38.65 9.26-77.28 18.58-116.07 27.13-14.73 3.24-29.85 4.75-44.88 6.54-10.62 1.26-21.33 1.7-32.02 2.4-6.22.4-12.07-1.74-17.46-4.2-2.87-1.32-5.27-5.05-6.49-8.21-1.8-4.68-2.5-9.82-3.42-14.8-.46-2.43-3.3-4.74-5.7-4.12-3.58.9-4.35.5-5.71-3.34-1.31 1.08-2.53 2.07-3.72 3.08-1.49 1.25-3.01 1.85-4.47.03-1.5-1.85-3.04-3.7-4.25-5.74-1.32-2.18-2.37-4.25-5.28-4.84-2.27-.45-3.42-2.9-3.13-5.19.13-1.02.31-2.12.03-3.08-.73-2.65.46-4.03 2.86-4.46 3.07-.56 4.35-2.1 4-5.3-.27-2.28.96-3.94 3.28-4.63 2.63-.8 5.26-1.63 7.8-2.42l-6.1-15.38c-.53.5-1.27 1.25-2.05 1.96-1.46 1.35-2.83 2.84-4.45 3.94-2.79 1.9-5.04 1.29-7.07-1.85l5.43-5.87c-2.54 1.15-4.41 2.16-6.36 2.84-2.77.97-4.9-.14-5.51-2.94-.15-.64.56-1.5.87-2.25.15 2.94 1.35 3.63 3.98 2.16 4.2-2.37 8.32-4.87 12.54-7.2 4.96-2.76 9.98-5.44 15-8.12 1.26-.68 1.73-1.5 1.06-2.9-.7-1.5-1.67-1.17-2.77-.64-.78.38-1.6.67-2.36 1.1-9.13 5.2-18.3 10.46-27.48 15.7zm174.02-21.55l-3.73-2.52.12 4.73c1.46-.93 2.5-1.6 3.53-2.24.4-.54 1.16-1.12 1.1-1.6-.16-1.14-.69-2.25-1.08-3.37-.24-.01-.47-.03-.71-.06-.08.73-.34 1.47-.22 2.16.22.99.67 1.93 1 2.9zm-42.37-128.1l3.7 6.48c-.22-2.2-.86-4.09-1.51-6-.5-1.51-1.3-1.33-2.24-.42-.7-.12-1.4-.22-2.11-.33-.21.3-.4.59-.62.88l5.3 7-2.52-7.62zM332.4 254.5c.57.27 1.15.52 2 .9-.02-2.01-.04-3.73-.04-5.47l-.44-.05-1.54 4.69.4-4.72-5.83 1.96c2.2 1.1 3.83 1.92 5.45 2.7zm-70.08 13.9l-3.48-1.48c-1.35-.56-2.68-1.14-4.03-1.64-4.59-1.72-8.8.08-13.82 1.02l20.73 7.14-5.97-5.37.59-.76 5.29 2.51c1.85 3.26 4.5 4.32 8.34 3.25l-.28-1.2 3.16 1.15.31-.76a40.72 40.72 0 00-14.34-7.71l10.97 7.36c-.88-.45-1.75-.92-2.65-1.33-1.59-.74-3.2-1.46-4.82-2.19zM112.71 166.47c.12-1.4.21-2.8.31-4.14l-5.87 7.38c1-.03 1.98.23 2.46-.14 1.19-.9 2.14-2.13 3.18-3.21l-2.32 5.6-1.2-.5c.8.54 1.6 1.1 2.37 1.61 3.28-4.36 4.09-7.69 2.29-8.8-.42.74-.83 1.47-1.22 2.2zm9.77 15.69c.52-.63.94-1.41 1.59-1.87 1.3-.94 2.72-1.7 4.1-2.54l-.35-.78-9.12 2.1.26 4.01 2.89-.14c1.7.08 3.42.2 5.12.16.18 0 .34-.99.56-1.69l-5.05.75zM60.79 315.83c.72-.02 1.56.23 2.13-.07 5.8-2.98 11.58-6.06 17.34-9.15.42-.23.73-.7 1.09-1.04l-.39-.55-16.05 8.72c.65-.64 1.2-1.43 1.97-1.86 3.62-2 7.27-3.94 10.95-5.8 2.9-1.48 5.89-2.8 8.84-4.19a96.85 96.85 0 00-25.58 12.69c-.25.18-.2.8-.3 1.25zm156.52-145.84c.5.3 1.4.6 1.41.92.02.55-.42 1.23-.86 1.64-.84.74-1.85 1.33-2.8 2.01 1.47 2.37 2.43 1.27 3.52.11.87-.92 1.98-1.65 3.42-2.85l-1.2-5.21c-1.69.8-3.6 1.05-3.4 3.4-1.37.32-2.34 1.37-4.16 1.05-2-.38-2.06 1.34-1.04 3.01 2.11-.95 4.93-.8 5.11-4.08zm-101.34-10.21l1.07 1.09c.34-.49.9-.93 1-1.46.66-3.2.9-6.5 1.9-9.58.95-2.87 2.65-5.48 4.03-8.2a82.49 82.49 0 00-4.96 19.38c3.76 1.09 7.04 2.05 10.45-.32 1.23-.86 3.2-.65 4.67-1.27a8.22 8.22 0 003.26-2.41c.36-.47-.26-1.77-.57-2.65-.23-.63-.71-1.18-1.09-1.77l.59-.4c1.25 1.68 2.46 3.4 3.78 5.04.36.46 1.02.91 1.57.93 4.97.22 8.12-2.3 9.85-6.9 1-2.66.28-4.83-.45-7.17-1.67-5.37-.47-8.57 4.85-10.41 3.81-1.34 7.93-1.77 11.97-2.62-.6-.5-1.5-1.34-2.48-2.1-1.17-.88-2.53-1.55-3.57-2.55-2.95-2.86-6.54-3.67-10.48-3.57-4.6.13-8.93 1.59-12.1 4.65-4.45 4.29-9.67 6.04-15.5 6.83-.76.1-1.54.26-2.27.5-4.77 1.53-9.56 3-14.28 4.66-1.15.4-2.63 2.3-3 2.05-2.08-1.37-2.38.63-3.02 1.44-2.12 2.71-4.04 5.58-6.08 8.37-.21.3-.68.38-1.6.86l7.23-12.86c-1.25-.31-3-.56-4.58-1.19-4.82-1.94-9.36-1.33-14.05.67-5.79 2.46-11.29 5.5-15.52 10.06-8.7 9.36-16.91 19.2-25.46 28.7-3.4 3.78-6.3 7.75-7.61 13.12l13.32.72c8.16-17.33 13.32-25.65 16.78-26.92-.1.28-.13.55-.28.72-6 7.05-10.17 15.2-13.99 23.55-.48 1.07-.58 2.3-.86 3.47.33.12.65.25.98.36 2.98-6.2 4.77-13.06 9.1-18.53l.9.3-5.13 18.35 3.74 2.84c2.03 1.49 4.17.95 6.17.1 1.88-.8 3.6-1.68 3.78-4.36.21-3.2 1.13-6.36 1.65-9.55.12-.72-.11-1.48-.2-2.2-.06-.56-.25-1.11-.19-1.63.2-1.85.59-3.68.7-5.55.18-2.84.02-5.7.3-8.52.46-4.57 3.29-8.06 5.74-11.73 3.28-4.9 10.37-5.3 13.84-.58 1.43 1.93 2.4 4.18 3.71 6.21 1 1.53 2.2 2.9 3.47 4.58 2.23-3.72 4.06-6.96 6.09-10.08.6-.92 1.77-1.5 2.66-2.25.03.61-.21.95-.42 1.3-2.13 3.32-4.28 6.61-6.36 9.97-.73 1.19-.81 2.5.97 2.7 2.95.32 5.53 1.2 7.19 4.64 1.78-3.35 5.94-4.9 3.34-9.17-.16-.26.16-.81.26-1.23.44-1.68 1-3.31 1.31-5 1.58-8.7 8.15-12.8 14.85-16.8.18.17.37.35.55.5-.95 1.06-1.91 2.1-2.89 3.16l-4.8 5.6c-.1-.5-.18-1.03-.29-1.68-2.84 2.66-6.17 12.28-5.42 15.64.42 1.55 1.2 1.27 1.88.15zm-.71 13.98c.1-2.69 2.6-5 1.57-8.25-1.21 2.43-2.27 4.48-3.24 6.55-.34.73-.49 1.58-.72 2.35l2.39-.68-.15 1.28c1.66-.13 3.36-.04 4.95-.43 1.04-.25 1.93-1.14 3.13-1.89.75-2.41.75-2.41-.8-3.32-.37.92-.72 1.85-1.18 2.97l-.22-4.4c-.3-.01-.59-.01-.86-.03l-1.55 3.99-.4-.15.9-4.67h-.33c-1.19 2.24-2.34 4.46-3.5 6.68zM332.3 238.4c.54-.16 1.23-.15 1.57-.5 1.01-1.03 2.88-2.57 2.63-3.22-1.26-3.3 1.22-3.66 3.2-4.73-.36-2.6-1.35-4.84-3.49-6.41l-.97.2.7 7.24-2.68-1.12a3.58 3.58 0 00.7 2.63c1.3 1.6.94 3.17-.85 4.12-.44.23-.49 1.22-.71 1.85-1.41-.47-1.38-1.08-.46-2.19 1.27-1.49 1.06-2.12-.73-2.97-.08 2.4-3.73 4.45.02 7.35.36-.8.71-1.52 1.07-2.25zm-152.4-31.77l-1.5-.63c-.17.78-.35 1.55-.41 1.91l-1.51-1.12c-.13.75-.47 1.53-.32 2.2.87 4.13 1.86 8.22 2.88 12.66 3.04-3.65-.34-7.4.43-11.06l2.09 9.08.84-.19c.65-4.56-1.43-8.66-2.56-12.91 1.36 3.3 2.72 6.63 4.1 9.94-.14-4.14-.6-8.14-3.87-11.7l-.17 1.82zm32.75 14.18l-5.55.83c.94.8 1.86.94 2.72 1.26 5.14 1.95 10.35 3.77 15.4 5.96 2.8 1.22 2.77 1.49 5.58-1.02-4.36-1.72-8.5-3.38-12.66-5-1.83-.7-3.68-1.36-5.5-2.03 6.17 2.08 12.32 4.2 18.5 6.21.99.33 2.14.1 3.23.12l.16-1.14c-4.9-1.8-9.81-3.52-14.66-5.4a8.95 8.95 0 00-7.22.21zm85.6 37.66c2.84.29 5.53.11 7.5-2.42-2.73.24-5.43.71-8.09 1.27-.2.04-.3.6-.44.9-3.23.28-6.49.4-9.68.85-7.42 1.02-14.82 2.19-22.2 3.36-.7.11-1.35.52-2.19.84l10.8 5.73 6.66-6.44.5.5c-1.72 2.45-5.1 3.94-4.91 7.72 1.4-1.02 2.6-1.86 3.73-2.76 3.9-3.06 7.72-4.34 12.15-.71 3.18 2.61 6.77 2.25 10.08-.08 4.34-3.08 8.61-6.31 13-9.36a21.9 21.9 0 014.9-2.5c2.04-.76 4.16-1.23 6.25-1.82l-.16-.81c-9.15-.03-18.24.67-27.1 3.4 3.15-.51 6.3-1.05 9.47-1.57-1.7 1.95-3.59 3.77-5.83 4.76-1.13.48-2.94-.52-4.44-.86zM261.1 115.28c1.56-3.28 3.23-3.75 6.21-2.03 5.02 2.87 7.03 7.88 9.29 12.73 1.93 4.19 3.26 4.9 7.67 3.75.67-.18 1.35-.34 2-.58a13.35 13.35 0 0111.2.7c-3.06-4.82-7.88-2.05-12-2.32l.03-.77 11.96-.84c-4.17-1.88-8.29-1.53-12.5-.67 1.92-.6 3.85-1.4 5.8-1.4 2.6-.04 5.27.27 7.79.92.92.24 1.5 1.85 2.17 2.89.42.66.7 1.42 1.04 2.14.36-.88 1.25-1.98.99-2.57-.7-1.54-1.6-3.37-2.97-4.13-1.52-.86-3.63-.93-5.48-.9-3.95.08-7.89.54-11.85.69-3.78.14-4.4-.47-6-4-1.07-2.33-2.2-4.78-3.88-6.65a8.9 8.9 0 00-5.3-2.7c-5.34-.48-9.04 2.28-10.76 7.42-.49 1.46-.75 3.02-1.1 4.53-.96 4.14-2.44 4.64-5.54 1.72-2.24-2.1-4.49-3.93-7.85-3.23 4.88-2.48 7.29 2.16 10.38 4l6.32-14.1c-1.56 1.84-3.07 3.43-4.35 5.19-1.97 2.67-3.9 3.11-6.65 1.34a5.13 5.13 0 00-1.66-.7c-6-1.33-13.14 3.5-14.23 9.56-.36 2-.84 3.96-1.34 6.28 3.92-1.83 7.93-3.3 10.31-7.2 1.2-1.98 3.02-3.27 5.18-2.21 2.01.99 4 2.47 5.35 4.23 1.42 1.87 2.86 1.8 4.1.65 1.23-1.17 1.9-2.93 2.74-4.5.61-1.14 1.1-2.36 1.63-3.53-.24 3.59 3.41 3.08 5.16 4.72l-1.16-6.97.77-.2c.4 1.79.77 3.6 1.25 5.37.5 1.82.59 3.98 3.08 4.74-1-3.38-1.88-6.62-2.93-9.8-1.19-3.49-1.66-3.6-4.87-1.57zM32.55 234.12c-.12.7-.5 1.48-.31 2.1.61 2.22 1.73 4.36 2.06 6.61.47 3.36 1.33 4.03 4.35 2.58-1.32-3.35-2.58-6.71-3.96-10.02-.23-.57-.94-.93-1.43-1.38l2.7.35c-.04.67-.27 1.27-.09 1.72 1.15 2.8 2.3 5.6 3.69 8.28.3.58 1.52.71 2.32 1.05l.29-.66-3.46-7.24c1.56 1.85 2.56 3.96 3.8 5.9.34.53 1.59.98 2.17.77 6.96-2.56 14-4.95 20.75-8.02 6.75-3.06 13.26-6.7 19.72-10.33 6.83-3.86 13.48-8.05 20.23-12.06 4.53-2.69 9.12-5.27 13.58-8.06 1.57-.99 2.87-2.42 4.62-3.93-4.57-.77-6.88 2.62-10.6 3.96l5.12-4.86c-.13-.23-.28-.46-.4-.69-2.75.93-5.65 1.53-8.22 2.81-10.72 5.39-21.3 11.07-32.02 16.45-5.54 2.78-11.25 5.18-16.88 7.76a6.1 6.1 0 00-.14-.33c10.98-5.56 21.95-11.13 32.93-16.67a5.6 5.6 0 00-3.06.58c-12.38 5.48-24.68 11.21-37.2 16.39-5.15 2.14-10.47 4.72-16.5 3.18-2.31-.59-2.77-1.37-.9-2.96 2.4-2.06 5.14-3.73 7.82-5.43 1.77-1.12 3.7-2 5.55-2.99-.11-.24-.24-.47-.36-.71-1.72.81-3.47 1.59-5.17 2.43-4.38 2.2-9.12 3.72-12.9 7.03-2.1 1.81-2.2 3.05-.16 4.9.61.57 1.36 1 2.06 1.5zm273.77 4.17l.88 5.1c1.25-1.79 2.35-3.1 3.16-4.58.75-1.35.36-2.32-1.06-2.08-.25-2.24-.51-4.4-.77-6.54.24-.1.47-.22.71-.34.83 1.93 2.04 3.8 2.4 5.81.37 2.14-.05 4.45-.14 7.32 1.75-1.25 3.1-2.2 4.63-3.31l.04 1.88c2.4.26 3.97-.3 3.73-3.21l-2.27-.28c.7-1.46 1.21-2.95-.88-2.97 1.92-1.54 3.86-3.01 5.71-4.6.34-.3.42-1.06.36-1.58-.03-.29-.57-.71-.9-.74-2.05-.26-5.35 2.27-5.77 4.34-.01.1-.26.17-.58.33l-1.41-1.66c4.54-3.03 4.44-4.98.13-7.87l-1.38 2.54-.69-.33-.86-2.74c-.64 2.4-1.2 4.36-1.73 6.33l-.5-.25a707.5 707.5 0 00-1.58-4.4c-.3.07-.6.14-.9.19-.02.7-.1 1.4-.05 2.09.17 3.23.43 6.47.55 9.7.01.6-.5 1.23-.78 1.85l-2.47-6.36-1.7 1.17.94-3.49c-2.24 1.64-4.1 3.02-6.07 4.45l-2.04-1.77 4.86-5.88c-3.22-3.65-6.05-.35-8.4-.82l-1.56 4.9a2.31 2.31 0 001.79-1.2c.39-.8.42-1.76.61-2.65.93 2.14-2.17 7.95-3.97 8.26-.57.1-1.25-.46-1.84-.68.43-1.79 2.34-3.62-.76-4.4l1.12-2.8-3.88 1.15a5.65 5.65 0 00-3.03-1.53c-5.2-.65-9.44 2.08-13.9 4-.81.35-1.76.7-2.58.6-6.4-.84-13.9.93-19.73 4.37-1.2.72-3.12.23-4.7.33-.45.03-.9.2-1.37.3l1.09 3.58-2.42-1.68-.42.5 1.86 2.57c-.11.3-.2.57-.32.86-2.22-3.08-4.51-3.21-7.61-1.72-3.86 1.85-1.28 5.2-2.84 8.11-.15-2.35-.24-4.2-.37-6.39l-3.35 1.96c-8.06 4.87-8.08 4.89-4.94 13.62.27.76 1.26 1.25 1.93 1.88.16-.83.47-1.67.48-2.5.04-3.05-.03-6.08-.06-9.13h.73c.02.56-.02 1.15.06 1.72.47 3.58.85 7.18 1.48 10.74.34 1.9 1.5 2.28 3.05.84l-2.48-3 .26-.3 2.85 2.08-1.65-12.69.58-.08.73 4.16 1.58-.67 2.25 6.3c-.2.08-.37.18-.57.26l2.21.82v.5c-1.1.27-2.2.51-3.31.77l.06.88 6.9.45.16-.86-1.4-1.48c3.09-1.83 3.28-2.9 1.06-4.81a12.88 12.88 0 01-4.54-.83c-1.06-.42-1.93-1.27-2.87-1.92l.06-1.83c.68.52 1.1.81 1.5 1.14 2.88 2.51 3.18 2.48 5.77-.5.54-.6 1.2-1.1 1.82-1.65l.7.72-2.68 2.84c1.93 2.45 4.48 3.34 7.6 2.67l-.07-.04-4.38 2.25 1.67 2.76c1.88-.88 3.32-1.48 4.7-2.2 1.06-.54 2.03-1.24 3.05-1.89.75-.47 1.46-1.04 2.26-1.43 3.36-1.65 8.13-1.26 9.13-6.36.07-.32 1.09-.45 1.67-.66.12.76.57 1.73.26 2.2-.55.86-1.57 1.41-2.75 2.39 5.72-.15 9.05-2.26 8.77-8.3l1 .14c.32 1.72.63 3.44.88 4.95 1 .71 1.97 1.42 3.15 2.3l1.07-2.29c.93-2.03 1.1-4.91 3.91-5.12 2.6-.2 2.97-1.51 3-3.53.02-1.15.17-2.3.25-3.45l.74-.05 2.06 2.04-.64-2.79 2.85-.66c-.27 1.1-.68 2.19-.8 3.32-.29 3.07-3.08 7.35-5.7 7.86-2.47.48-3.41 1.85-3.62 4.54 5.72-3.28 10.5-6.93 11.8-13.2 1.94.32 3.6.6 5.25.89l.15-.69c-.18-.14-.43-.25-.54-.43-.4-.67-.76-1.37-1.14-2.05.46-.18 1.17-.65 1.3-.52.5.52.94 1.19 1.2 1.87.3.74.4 1.56.57 2.35-2.1 3.56-2.92 7.85-6.54 10.56 4.16-1.44 8.62-2.32 9.4-7.78l.9.29c.08 1.56.18 3.13.28 4.8 3.2-.18.88-4.14 3.31-5.26l.73 4.01c2.86-.55 2.94-.75 2.71-5.8l1.85-.9zM68.05 240.3c2.58 3.96 5.2 7.89 7.7 11.9.9 1.42 1.85 1.44 3.25.87 6.18-2.45 12.31-5.01 18.59-7.19 6.93-2.4 13.84-5.04 21.4-5.03l-6.03 1.76c1.37.29 2.62.06 3.82-.3 3.07-.87 6.09-2.02 9.2-2.67 15.82-3.25 30.9-8.75 45.72-14.96.75-.31 1.76-1.4 1.7-2.06-.32-4.5-.9-9-1.44-13.86-1.59.65-2.43 1.07-3.32 1.37-12 3.87-23.84 8.25-35.99 11.48-14.08 3.75-28.49 6.3-42.65 9.78-6.95 1.7-13.65 4.37-20.46 6.6-1.14.38-2.18.84-1.43 2.36-1.88-1.85-2.94-.08-4.48.96 2.58 4.18 5.05 8.22 7.56 12.22 1.69 2.67 2.21 2.7 4.38.66-2.53-4.66-5.03-9.26-7.52-13.89zm148.32-137.8c-.02-.2-.03-.42-.03-.64l9.91-.97c18.06-1.87 36.1-3.67 54.3-2.96 9.5.38 19.02.73 28.5.4 11-.38 21.91-.4 32.72 1.95 1.23.28 2.61.41 3.85.17 2.2-.42 3.56-1.46 3.45-4.24-.39-9.54-3.8-18.2-8.58-26.05a95.54 95.54 0 00-23.8-26.48C293.36 25.96 267.56 13.26 239 6.25c-17.7-4.35-35.51-4.92-53.5-2.42-.91.13-2 .57-2.59 1.25-1.99 2.27-5.48 2.01-7.31-.78.61-.49 1.23-.96 1.86-1.44-9.88 1.73-19.68 3.45-29.14 6.32-10.22 3.1-20.13 7.26-30.14 11.05-.68.26-1.35 1.32-1.5 2.1-.48 2.87-2.31 3.78-5.1 2.46-.88-.4-1.97-.37-3.1-.57.2 3.91-1.32 5.52-5.21 5.1-2.61-.28-4.48.65-6.47 1.85-1.42.84-2.84 1.65-4.2 2.56-1.84 1.22-3.92 2.1-4.8 4.48-.25.7-1.63 1.02-2.56 1.41-.87.37-1.98.39-2.69.94-6.34 4.93-12.75 9.79-18.89 14.96C51.24 65.97 39.9 77.44 31.33 91.36c-2.2 3.57-4.09 7.32-6.25 11.23 2.57.27 2.83 1.6 2.37 3.2-.58 2.04-1.78 3.47-3.99 3.97-.7.16-1.6.65-1.85 1.23-6.1 14.25-8.26 28.87-3.55 43.97.87 2.8 2.12 5.47 3.36 8.62 6.92-7.61 15.23-12.32 23.42-16.73 13.37-7.19 27.18-13.7 41.83-18.06 15.41-4.6 30.8-9.26 46.27-13.58 14.83-4.14 29.84-7.66 45.29-8.53 4.57-.26 9.21.56 13.82.58 2.43 0 5.37.05 7.2-1.22 4.48-3.1 9.04-2.54 13.83-1.76 2.16.34 4.38.94 6.5.77 6.54-.52 13.05-1.86 19.59-1.94 18.3-.25 36.6-.03 54.88.01 2.23 0 4.45.08 6.67.12a2.46 2.46 0 00-1.73-.72c-18.71-.7-37.37-3.03-56.16-.97-3.7.4-7.41 1.59-11.47-.03-2.42-.98-5.74.39-8.68.63-2.1.16-4.2.24-6.31.36zm25.57 189.09l.06 1.18c-1.49.07-3.04-.14-4.44.25-3.91 1.05-7.77 2.33-11.65 3.56-5.8 1.84-11.57 3.72-17.36 5.57l-.15-.47 17.33-5.84c-6.47 1.64-13.24 1.87-19.34 5.2-3.84 2.12-8.55 2.63-12.86 3.9-1.95.57-3.87 1.22-5.8 1.83l.26.75 14.48-4.2c.1.27.17.55.27.83l-19.8 6.44.04 3.02c-.21.22-.42.45-.63.7-.76-4.4-3.18-2.81-5.34-2.23-4.45 1.2-8.9 2.3-13.32 3.6-1.41.42-2.66 1.33-4.22 2.13l-1.1-3-.91.03.37 6.13-.53.24-3.12-5.64-.7.3c.3 1.24.57 2.47.86 3.72l-.47.1-1.54-4.45-.37.15.73 5-.9.18-1.6-5.52-.39.13v3.06l-.4.02-.7-2.1c-1.5 4.23.5 8.22.16 12.44-.71-3.05-1.41-6.12-2.13-9.17l-.98.16 1.16 9.4-.5.06-2.08-9.02c-2.25 2.63-.18 5.06-.65 7.41-2.12-5.85-2.12-5.85-3.53-6.44l6.28 37.84 2.77-.65c-1.67-7.14-3.68-14.12-2.89-21.42.68 2.26 1.22 4.53 1.74 6.8.94 4.22 1.85 8.44 2.8 12.64.3 1.3.83 2.37 2.63 1.27-.74-4.1-2.51-8.13-1.38-12.46 1.14 3.53 1.9 7.13 2.84 10.69.17.6 1.06 1 1.61 1.5.23-.63.7-1.3.62-1.9-.34-3.16-.83-6.29-1.25-9.42.8 2.92 1.47 5.86 2.17 8.78.26 1.09.33 2.24 2.05 1.98 1.76-.28 1.4-1.38 1.23-2.5l-1.17-7.75c.75 2.77 1.3 5.56 2.08 8.29.16.53 1.21 1.21 1.75 1.12.5-.09 1.25-1.1 1.22-1.68-.1-1.88-.6-3.74-.77-5.64-.14-1.51-.03-3.05-.03-4.58h.6l2.48 10.8.34-.04-.72-9.5.8-.06 1.27 9.51c2.2.3 2.53-.58 2.35-2.22-.2-1.88-.14-3.8-.2-5.7l.72-.03.8 7.1.57-.06c.76-2.22 1.52-4.43 2.3-6.65.18.02.37.03.55.03l.46 3.86.61.44c.44-.68 1.09-1.31 1.28-2.06.34-1.28-.16-2.95 1.98-3.47l.28 4.4c.3.08.58.16.88.22l1.47-5.51.86.11.25 4.33c3.8 1.33 1.3-3.78 4.05-3.66l.81 2.83c.16-.03.33-.04.49-.08l.47-4.7.71.01c.23.98.36 1.98.72 2.9.2.51.78.85 1.18 1.28.28-.54.72-1.04.8-1.61.14-1.07.08-2.16.1-3.25l.79-.01.99 4.31c3.72-.87.34-4.17 2.48-5.63l1.07 4.61c2.13-.23 4.5.23 4.38-2.6.43.41.98 1.38 1.46 1.35 1.35-.08 3.02-.23 3.9-1.05.71-.67.45-2.36.61-3.59l.4.02.97 3c3.99 1 2.93-2.45 3.92-4.8l1.1 3.8c1.2-.33 2.26-.62 3.28-.92.09-1.5.15-2.82.21-4.12l.54-.01.8 3.45c3.52.36 3.94-1.96 4.38-4.4l.45 3.56c1.41-.88 2.95-1.3 3.46-2.27.56-1.1.17-2.68.2-4.04l.82-.02.68 4.61c1.36-.78 2.98-1.15 3.46-2.11.53-1.09.06-2.68.01-4.06l.9-.06.89 7.2c2.15.07 3.52-.65 3.1-3.42-.41-2.63-.57-5.29-.85-7.93.2-.04.37-.05.57-.08.45 3.4.9 6.8 1.35 10.07 2.25-.52 4.56-.93 6.75-1.66.53-.17 1-1.42.97-2.17-.07-1.87-.4-3.71-.65-5.56l.44-.07c.39 2.35.8 4.69 1.23 7.32 3.78-1.06 7.35-2.01 10.89-3.04 13.63-3.89 27.24-7.86 40.9-11.66 4.1-1.14 7.92-2.22 7.45-7.72l.29 4.86c1.7.08 2.63-.39 2.48-2.17-.16-2.18-.26-4.35-.39-6.52.18-.02.34-.04.52-.04.3 2.54.63 5.08.94 7.61l1.2.18c1.45-2.2-.2-5 .49-8.05l1.3 7.92c1.7-1.4 2.93-2.4 4.07-3.32.44.2 1.31.9 1.82.7a2.95 2.95 0 001.5-1.97c.36-2.06.43-4.15.59-6.25h.73l.37 7.11c2.47-.45 3.72-1.5 3.64-3.96-.07-1.93.2-3.88.34-5.82.2.01.39.01.58.03.03 2.51.07 5.05.08 7.63 3.5-1.03 3.52-1.03 3.56-4.24.01-2.56-.05-5.13-.08-7.7l.53-.04.67 9.82c3.08-.42 4.23-1.95 4.1-4.8-.15-3.25 0-6.5.03-9.74l.67-.03.44 12.02c3.24-.28 4.1-2.06 4.02-4.8-.1-3.07.06-6.13.13-9.22h.6l.24 11.6c2.5-.24 3.62-1.34 3.57-3.83-.08-3.83.08-7.65.15-11.48.21 0 .4 0 .62-.02l.4 13.1c2.61-.5 4.03-1.61 4.03-4.3 0-3.48.32-6.93.5-10.4l.55.01-.13 12.27c1.72-.64 3.2-.81 3.21-2.99.12-9.9-.71-19.68-2.92-29.35-.13-.6-.49-1.15-.75-1.72l-.94.13.26 4.58h-.32l-1.6-4.16-.87.23.25 3.67c-3 .7-5.84 1.28-8.65 2.02-1.75.48-3.67 2.02-5.13 1.63-2.3-.62-3.06.03-3.44 1.77-.63-.43-1.25-1.16-1.8-1.1-.47.02-.86.98-.86.97-1.35-.08-2.4-.33-3.37-.17-10.48 1.7-20.33 6.19-30.96 7.24-.76.08-1.5.33-2.42.55l.47 5.39c-.56-1.96-.95-3.25-1.33-4.54-.24.06-.48.13-.73.17l1.19 8.15-.47.08-2.68-11.62-.49.1 1.97 10.64-.86.17-2.23-9.63-4.52 2.52.89 5.86c-2.44-5.1-2.44-5.1-3.42-5.15l.86 5.2c-.25.06-.5.1-.74.17-.32-1.08-.66-2.17-.94-3.26-.27-1.05-.03-2.61-2.24-1.78l1.3 5.61-.56.15c-.7-2.01-1.42-4.03-2.11-6.04l-.85.26c.26 2 .54 4 .81 6.15-1.72-1.74-.29-5.03-3.53-6.28.14 1.66.26 2.8.42 4.6-.45-.88-.63-1.18-.75-1.48-.87-2.47-.87-2.47-3.42-1.56a.97.97 0 01-.36.1c-2.3.05-4.6.01-6.91.14-1.36.08-2.7.4-4.22.65l-.52-4.05c-2.03 1.83-3.9 3.24-5.43 4.94-2.5 2.81-7.17 3.64-9.93 1.2a3.97 3.97 0 00-4-.95c-9.05 2.28-18.08 4.56-27.12 6.9-.78.2-1.41.95-2.11 1.44.84.35 1.43.26 1.98.08 8.48-2.73 16.97-5.44 26.02-5.44 1.87.1 3.77-.1 5.65-.2zm-107.84 32.2c7.72-6.39 14.71-13.41 20.67-21.54 8.87-12.14 17.74-24.3 27.25-35.9a135.6 135.6 0 0142.43-34.71c.57-.3 1.07-.7 1.92-1.27-6.4-3.55-12.8-6-19.59-7.4-1.86-.38-4.04.07-5.95.6-3.28.91-6.4 2.46-9.7 3.23-10.34 2.47-20.98 3.5-30.59 8.86-9.67 5.4-20.5 7.6-31.3 9.75-11.86 2.37-23.8 4.45-35.46 7.56-8.55 2.3-16.71 6.02-25.04 9.14-2.51.94-3.16 2.7-2.53 5.32 1.28 5.29 4.12 9.62 7.92 13.37 8.3 8.22 17.68 14.73 28.67 19.11 12.59 5.05 24.12 11.68 31.3 23.88zm49.94-182.33l.24 1.02c.6.04 1.2.09 1.8.09 26.53 0 50.77 6.62 71.22 24.38.74.63 2.5.78 3.46.39 8.86-3.67 17.7-7.37 26.43-11.32 14.78-6.72 28.7-14.82 40.61-26.06.71-.67 1.38-1.36 2.2-2.14-8.54-3-22.33-2.92-25.47.44l6.38.1-13.6 5.62 2.16 2.23c-5.61-2.42-5.66-2.42-7.96-1.04.84.47 1.7.89 2.48 1.4.76.51 1.43 1.13 2.14 1.7-3.52-.98-6.17-4.17-10.7-3.02l5.22 3.75-.36.58c-3.57-1.69-6.57-5.24-11.3-3.63l5.25 3.08c-2.57-.65-4.8-1.87-7.2-2.7-2.38-.8-4.89-1.21-7.34-1.81l-.2.71c3.33 1.58 6.84 2.92 8.8 6.43-5.3-3.38-10.3-7.34-17.72-7.24l8.84 4.67c-5-1.72-9.47-4.72-14.96-4.64 1.17.8 2.47 1.27 3.67 1.93 1.2.65 2.3 1.48 3.44 2.24-4.83-1.91-9.38-4.38-14.84-3.97l6.32 3.16c-3.27-.7-6.32-1.86-9.42-2.82-1.2-.37-3.38-.88-3.67-.4-1.09 1.7-2.16.5-3.23.46-1.98-.06-3.97-.3-5.94-.13-7.91.67-15.86 1.17-23.73 2.28-7.73 1.07-15.37 2.8-23.03 4.26zm171.47 40.58l-3.27.36c-7.97 1.03-15.9 2.43-23.9 3.03-18.48 1.4-36.82 3.7-54.75 8.4-6.88 1.8-13.54 4.47-20.28 6.84-.56.19-1.3 1.3-1.2 1.81.91 4.76 1.97 9.46 3.05 14.18.4 1.79 1.51 2.08 3.15 1.06l-3.54-15.34c1.37 3.95 2.16 8.02 3.28 12.01 1 3.56 1.22 3.67 4.64 2.65 19.73-5.9 40.06-8.28 60.44-10.48 10.02-1.1 19.94-3.25 29.9-5 .86-.15 2.27-.96 2.29-1.5.18-5.88.16-11.79.2-18.02zm14.1 17.8c-.1.24-.21.48-.3.73a38.99 38.99 0 0111.38 11.1l-11.32-10.01c-1.64-1.45-3.36-1.24-5.4-.25l3.53 2.65c-.7.13-1.12-.1-1.46-.4-2.08-1.84-4.15-1.97-6.86-1.03-13.11 4.53-26.58 7.84-40.45 8.71-17.6 1.1-34.43 5.47-51.07 10.86-1.32.42-2.52 1.18-3.77 1.8.08.29.18.56.26.86.86-.07 1.75-.02 2.6-.2 8.11-1.77 16.19-3.63 24.3-5.35 3.12-.67 6.3-1.33 9.46-1.45 8.71-.29 17.44-.26 26.16-.42 21.38-.4 42.65.44 63.66 4.88.39.09.81.04 1.23.05-.44-9.33-9.57-21.56-16.01-21.6 8.37 6.76 14.45 15.2 14.08 19.82-.87-1.69-1.62-3.21-2.45-4.69-3.39-6.05-7.6-11.34-13.77-14.78-1.14-.68-2.53-.88-3.8-1.28zm-72-18.13c-.67-7.6-.8-7.72-8.02-7.17l-.52.05c-17.63 1.92-35.01 5.28-52.27 9.33-8.55 2.01-17.27 3.43-25.9 5.11-1.33.26-2.64.6-4.15.96l1.52 10.33c.54.05.88.17 1.2.12 9.68-1.3 19.49-1.93 29-4.04 19.47-4.33 38.74-9.44 58.1-14.23.32-.08.62-.28 1.04-.45zM69.29 336.6c6.02 5.27 17.84 3.47 21.44-2.6.3-.52.6-1.07.74-1.64 1.22-5.01 4.5-8.4 8.85-10.72 3.96-2.11 8.24-2.97 12.78-1.89 2.29.56 4.64.73 6.67-.95 1.91-1.61 2.17-3.04.16-4.38a78.3 78.3 0 00-11.57-6.67c-2.3-1.02-5.16-.78-7.77-1.12 1.93 2.38 4.9 3.16 6.18 6.47l-13.88-6.07c2.67 4.92 7.7 6.19 11.66 9.17a80.41 80.41 0 01-11.16-2.85c-5.76-1.89-11.4-2.54-16.9.85-1.16.72-2.49 1.17-3.72 1.79-4.94 2.48-9.79 5.11-14.8 7.4-1.87.84-3.63 1.3-3.16 3.9.68.04 1.36.1 2.04.07 3.52-.13 3.6.02 4.32 3.5a27.2 27.2 0 001.73 5.07c.21.49 1.09 1.1 1.51 1 2.13-.53 4.58-.79 6.22-2.06 4.83-3.71 9.36-7.83 13.95-11.87.57-.5.78-1.41 1.15-2.13-.2-.2-.4-.39-.6-.56-1.64.8-3.3 1.6-4.93 2.41a19.3 19.3 0 014.54-4.7c2.73-1.88 5.52-4.66 8.9-.91.14.14.53.03.75.13 2 .8 2.05 2.43 1.56 4.1-.47 1.6-1.69 1.94-3.3 1.7-.75-.09-1.76.15-2.34.62-1.16.9-2.26 1.94-3.09 3.12-3.24 4.57-8.43 5.73-13.17 7.74-1.46.65-2.9 1.28-4.76 2.08zm136.05-168.4c-1.45 1.28-2.89 2.1-3.6 3.33-1.94 3.27-1.9 3.39-5.38 2.6 2.4-2.2 5.03-4.39 7.37-6.84.65-.68.55-2.17.62-3.3.08-1.45-.02-2.91-.03-4.36.25-.26.52-.51.79-.76-4.8-.65-9.75-2.37-14.38-1.75-11.03 1.46-21.91 4.02-32.87 6.15-.63.13-1.23.37-1.86.57l-.15.65 3 1.5c-.84 1.03-1.73 2.08-2.62 3.15.1.13.22.28.34.4a366.1 366.1 0 013.22-2.31c.05 1-.25 2.06-.84 2.24-1.5.45-3.13.55-4.72.74-.53.07-1.56-.08-1.57-.01-.28 1.67-.65 3.39-.49 5.03.03.39 1.95.58 3 .87.59.36.83 1.45 1.28 2.45.59 1.32 1.82 1.36 2.4.31.98-1.74 1.89-1.31 3.35-.76 1.18.44 2.66.13 4 .16.25 0 .5.05.8.08l.66 1.85c1.55-.36 3.36-.3 4.4-1.15 1-.84 1.22-2.65 1.85-4.19 1.17 1.12 3.18.81 3.94 3.02.57 1.62 2.42 1.25 3.78.49.65-.36 1.16-.98 1.74-1.5 1.48 2.57 3.83 1.82 5.73 1.45 2.33-.46 2.95-2.5 2.95-4.51l-2.89.87-.3-.97 4.84-1.88c.13 1.09.22 1.98.34 2.87.35 2.27-2.19 4.93-4.52 4.93-2.5 0-4.98.23-7.48.36 6.08 2.3 11.6 1.83 16.66-3.72l.55 3.75c3.38.18 3.67-.01 5.39-2.95.3-.52.97-.81 1.48-1.22.27.63.6 1.23.8 1.88.09.31-.04.69-.07 1.04.18.07.37.13.55.18l2.45-4.1-5.13.2a591.2 591.2 0 012.56-2.44l1.92.52.11-1.5c-2.27 0-4.87.6-3.97-3.42zm169.32 80.17l1.1-.3c-.3-1.63-.6-3.27-.88-4.93-.63-3.9-1.7-4.57-5.61-4.95-3.3-.3-6.52-1.28-9.77-1.96-3.08-.63-6.28-2.29-9.31-.52a157.31 157.31 0 00-12.91 8.45 5.84 5.84 0 00-2.06 3.82c-.25 2.98.06 6.02.1 9.03.04 2.3 1.58 2.4 3.22 2.1.73-.13 1.35-.78 2.06-1.04 2.97-1.02 5.92-2.11 8.94-2.95 2.61-.74 5.71-.5 7.92-1.84 4.25-2.54 8.03-5.87 11.99-8.9 1.05-.8 2.06-1.68 3.28-2.67l1.93 6.66zm-243.5 111.6c.26-.03.53-.08.8-.1l-3.17-19.37c.88 1.24 1.14 2.6 1.5 3.92 1.3 4.83 2.56 9.68 3.98 14.48.2.64 1.22 1.04 1.85 1.55.2-.74.54-1.46.56-2.2.01-.84-.31-1.68-.44-2.54l-2.76-17.96c.3-.05.58-.12.9-.17.27 1.22.6 2.42.82 3.64 1.05 5.68 2.08 11.37 3.08 17.07.36 2 1.38 2.04 2.8 1.15-.7-9-3.8-17.57-3.2-26.56a276.1 276.1 0 013.01 15.25c.57 3.23 1.07 6.47 1.74 9.69.11.56.84 1 1.3 1.5.3-.56.87-1.13.87-1.7 0-1.2-.32-2.38-.48-3.58-.85-6.58-1.54-13.18-2.6-19.72-.7-4.34-1.93-8.63-3-13.22-1.12 1.07-2.08 1.91-2.95 2.84-1.53 1.64-2.78 1.79-4.06-.34-.96-1.6-2.19-3.02-3.3-4.53l-.84.38.9 16.43c-.25.03-.5.07-.72.12l-2.24-15.5-.94.16c-1.25 13.63 3.17 26.4 6.59 39.31zm58.97-134.82c2.93-.93 5.93-1.62 8.72-2.8 3.88-1.65 7.6-3.67 11.4-5.48 3.2-1.5 6.54-2.74 9.63-4.44 11.32-6.28 22.76-12.33 35.36-15.7.54-.15.94-.75 1.42-1.14-.64-.25-1.3-.77-1.89-.68-2.56.37-5.1.84-7.64 1.4-15.41 3.43-29.97 9.37-44.4 15.58-3.15 1.35-5.96 1.98-9.07.08-1.6-.97-3.36-.68-4.24 1.1-1.5 3.03-3.54 6.12-.58 9.5.48.55.7 1.34 1.3 2.58zm13.24 61.15c-.1.11-.22.21-.34.32 1.2.4 2.39.85 3.6 1.14.74.16 1.82-.26 2.26.13 2.3 2.04 4.54.94 6.93.24 7.28-2.14 14.55-4.38 21.92-6.13 2.97-.71 6.33-1.14 9.13 1.23.31.26 1.15.07 1.66-.14 1.56-.67 3.13-1.32 4.56-2.21a76.4 76.4 0 006.73-4.64c.45-.36.67-1.83.34-2.17-.45-.47-1.72-.74-2.29-.43-3.66 1.98-7.38.98-11.14.56a317.7 317.7 0 00-15.19-1.38c-1.41-.1-2.87.43-4.3.73-1.41.29-2.79.73-4.19.97-4.15.73-8.3 1.41-12.46 2.1l.13.77c1.95-.24 3.9-.5 5.84-.71 1.95-.21 3.9-.36 5.85-.54l.1 1.1c-5.44.56-10.88 1.1-16.33 1.68v.45l13.18-.27-.02 1.11c-5.57-.06-11.13-.1-16.7-.17a8.8 8.8 0 01-.06.66l14.4 1.36v.65c-4.42.94-8.88.44-13.36-.29-.03.28-.07.57-.08.84l10.6 1.51v.94l-10.77.59zM10.1 206.42c3.64-1.36 3.81-1.28 6.46-.01.96.45 2.17.9 3.13.7 4.92-1 8.73-8.47 6.75-12.85-.84-1.85-1.66-3.9-1.72-5.9a5 5 0 00-2.04-4.11c-3.35-2.78-5.1-6.19-3.72-10.68.24-.78.16-1.67.23-2.5l-.94-.26c-1.24 2.5-2.84 4.89-3.62 7.53-1.22 4.12-1.84 8.4-2.78 12.6-1.21 5.44-3.06 10.47-8.98 12.58a2 2 0 00-.78.65c-1.53 1.72-1.4 4.09.82 6.18 1.1 1.02 2.81 1.41 4.29 1.93.47.16 1.31 0 1.67-.35a4.83 4.83 0 001.46-2.3c.16-.95-.23-2-.44-2.98-.47-2.17-.52-4.23 1.36-6.34-.4 2.2-.73 3.9-1.15 6.12zm312.15-33.4c.4-.1.64-.11.87-.21.55-.23 1.1-.49 1.66-.75 11.26-5.3 23-8.94 35.45-9.93 5.53-.44 11.2-.89 16.22 2.55.2.13 1.35-.6 1.32-.76-.46-2-.56-4.4-1.76-5.81-1.31-1.54-3.6-2.63-5.64-3.1-2.75-.62-5.65-.57-8.49-.55-11.7.06-22.97 2.1-33.52 7.46-4.56 2.3-6.68 5.81-6.12 11.1zM82.6 300.27c-.48 0-.97-.02-1.46.01-10.54.64-20.62 3.31-30.37 7.26-2.87 1.16-3.02 1.63-2.03 5.01 4.55-1.59 9.07-3.2 13.6-4.79.11.33.24.65.36.98l-22.04 8.8c1.43.79 2.18 1.37 3 1.6 3.09.8 4.86 3.05 5.17 6.16.2 2.11.84 4.19 1.44 6.23.49 1.66 1.1 3.28 1.88 4.82.4.76 1.33 1.82 1.92 1.77 1.42-.15 1.85-1.28 1.4-2.73-.72-2.28-1.2-4.65-2.1-6.86-.91-2.25-.26-4.25 1.69-4.69 3.73-.8 6.24-3.53 9.47-5.08 3.9-1.84 7.74-3.82 11.57-5.84 1-.53 1.85-1.4 2.77-2.1l-.58-1.03-20.78 8.7-.38-.81c6.62-8.52 15.63-13.49 25.47-17.41zm-62.69-123.9c2.75-.37 4.37-1.78 5.65-3.94.57-.95 1.8-2.07 2.77-2.1 2.97-.12 6 .06 8.93.51 4.38.69 6.81-2.36 9.42-4.78 1.27-1.17 2.39-3.43 2.23-5.05-.31-3.08 1.59-4.41 3.34-6.06.81-.77 1.8-1.37 2.53-2.2.52-.6.76-1.46 1.12-2.19-.24-.16-.49-.32-.73-.5-1.6 1.6-3.15 3.28-4.82 4.79-.58.52-1.46.87-2.25.97-4.22.54-8.46.96-12.68 1.43l.12.88 10.82-1.37a57.91 57.91 0 01-10.14 2.14c-.75.1-1.54-.2-2.3-.2-1 0-2.07-.14-2.94.2-6.6 2.57-10.94 9.35-11.07 17.46zm169.11-62.98c-4.83.38-6.63 1.16-8.89 4.72-1.75 2.76-2.97 5.83-4.56 8.7a13.96 13.96 0 01-2.48 3.2c-1.41 1.36-3.26 2.38-2.2 4.87 1.57 3.73 3.7 5.33 6.61 4.98 3.86-.47 6.83-2.62 9.77-4.95 1.7-1.37 4-2.24 2.7-5.24.6.52 1.02.84 1.4 1.18a9.26 9.26 0 00-2.06-4.12c-4.62-5.4-4.73-7.51-.29-13.34zm6.59 19.36c1.59-1.83 3.34-3.65 4.85-5.65 1.96-2.6 3.97-5.33 7.53-5.16 2.8.13 4.35-1.16 5.73-3.16.82-1.2 1.6-2.42 2.33-3.67 1.33-2.23 1-4.5-.26-6.62-1.54-2.56-4.1-3.4-6.88-3.34-2.33.07-2.92 2.2-3.5 3.96-2.5 7.32-6.47 13.13-14.62 14.77l4.82 8.87zm137.3-25.96c6.63 1.05 9.14 3.16 8.56 7-2.2-4.62-5.57-6.79-8.33-5.41 4.66 2.05 5.86 3.21 6.2 6.04-4.54-4.98-5.17-5.37-8.13-4.94 6.5 3.48 6.96 3.95 6.88 7.17-1.86-3.95-4.28-6.55-8.76-5.69 2.48.62 4.98 1.19 6.33 4.1-3.31-2.56-5.01-2.83-8.21-1.49l2.94 1.04c-3.1.2-5.88-.78-8.4 1.75l2.21-.26-7.31 6.64.2.45 10.33-3.52.13.54-4.07 2.27c4.38.27 8.25.34 12.08.83 3.05.39 4.4-.15 5.36-3.1.32-1.02.5-2.1.74-3.13l.44.05c-.1 1.44-.21 2.88-.3 4.33.95-1.4 2.02-3.28 1.47-4.33-.75-1.5-.4-2.42-.07-3.74.28-1.12.31-2.69-.29-3.55-.94-1.38-2.42-2.45-3.83-3.42-1.94-1.35-4-1.5-6.16.37zm-105.49 13.53c-.04-.13-.1-.27-.16-.4 2.81-1.12 5.6-2.26 9.09-3.65-4.06-.98-7.2-.86-10.35.42-2.95 1.2-6.09 2.03-8.91 3.45-2.63 1.33-5.74 2.34-6.81 5.99 3.99.23 7.12 2 10 4.43.87.73 2.16 1.09 3.32 1.33 2.51.55 4.33-.52 4.85-3.02.58-2.8.9-5.66 1.33-8.53-.85 0-1.6 0-2.35-.02zM181.91 295.1c-.62-2.12-1.12-4.02-1.7-5.9-.2-.6-.46-1.35-.93-1.66-2.37-1.57-2.56-3.3-.37-5.13 1.15-.97 2.43-1.78 4.05-2.93-3.13-.67-4.49 1.12-5.84 2.7-1.83 2.17-1.7 4.44.54 6.68-5.66-.46-9.59 2.36-12.85 5.77-1.72 1.79-3.12 4.74-3.1 7.14.02 2.71-1.14 3.33-3 4.27-1.51.76-2.78 2-4.14 3.03l.2.23c-1.63.9-3.25 1.78-4.86 2.68 2.05.04 3.96-.12 5.63-.85a59.55 59.55 0 008.12-4.3c1.65-1.05 2.07-2.8 1.4-4.82a4.3 4.3 0 01.09-2.95c1.77-3.65 4.6-6.18 8.63-7.19 1.28-.32 2.56-.6 4.12-.95.26.8.59 1.86.94 2.9 1.6 4.51 3.56 4.93 6.87 1.53.16-.17.42-.25.63-.36 1.72 3.4 6.2 2.8 9.1-1.51l-6.33 2.01c-1.36-4.15-2-4.18-7.2-.39zm-16.27-182.98c-17.77 2.42-35.08 6.5-52.23 11.28-6.33 1.77-12.56 3.86-18.89 5.53-2.84.75-5.97.42-8.74 1.3-5.34 1.7-10.51 3.9-15.76 5.92-1 .39-1.97.9-3.27 1.5a6967.5 6967.5 0 0019.84-4.6c4.12-.95 8.32-1.69 12.33-3 19.06-6.25 38.26-11.92 57.92-15.93 2.94-.57 5.86-1.32 8.8-2zm-47.6 251.08c-.04-.64 0-.91-.09-1.14a181.1 181.1 0 01-7.85-34.28c-.1-.76-1.25-1.4-1.9-2.1l-.8.59c-.66 12.92 1.87 25.28 6.46 37.46 1.5-.18 2.75-.34 4.17-.53zM255.3 166.68c-21.99-17.79-47.2-24.76-75.14-22.78 8.8 1.18 17.66 1.9 26.3 3.7 8.59 1.78 16.86 5.04 25.43 7 8.94 2.03 15.07 9.12 23.4 12.08zm-142.73 197.1c.03-.32.1-.51.05-.66-3.91-11.73-7.17-23.57-7.09-36.1 0-.6-.8-1.2-1.22-1.78-.52.63-1.42 1.26-1.47 1.93-.68 12.04.68 23.73 5.66 34.87.86 1.91 1.91 2.77 4.07 1.75zm-12.91-26.63c1.13 9.55 3.34 18.79 8.04 27.25-1.63-6.2-3.87-12.28-4.98-18.54-1.13-6.4-1.2-13-1.72-19.44-.08.1-.34.67-.7.73-3.45.65-3.55 3.31-3.66 5.97a51.3 51.3 0 003.97 22c1.37 3.26 3.18 6.35 4.8 9.51l.9-.39c-4.15-8.56-6.64-17.52-6.65-27.1zm36.9-164.97c.02.58.15 1.02.07 1.42-.52 2.76 2.06 3.07 3.48 4.19.35.28 1.63-.68 2.53-1 .35-.1.9-.14 1.13.06.23.2.36.83.21 1.09-.45.85-1.05 1.65-1.81 2.77 1.2-.06 2.09-.13 2.96-.18l.05.34-4.64 1.07c.52.55.96 1.24 1.12 1.17 1.98-.73 4.03 1.93 5.96-.15.11-.1.58.1.89.15l3.39.63c-.3-1.72-.92-2.9-.6-3.7 1.15-2.92-.02-5.48-.6-8.22-.34-1.57-.06-3.28-.06-4.84-1.29.31-1.66.6-1.84 3.02-.13 1.77-1.17 2.05-2.43 1.8-2.3-.44-4.6-1.09-6.87-1.64-.08 1.79-.08 1.79-2.95 2.02zm-6.13 188.88c-3.87-13.12-7.08-26.19-7.75-39.88-2.3.84-3.93 1.62-3.49 4.7a200.9 200.9 0 008.16 34.18c.57 1.8 1.54 1.75 3.08 1zm-71.12-98a8799.2 8799.2 0 01-10.94-15.42c-4.3 1.55-4.72 2.1-3.8 6 1 4.2 3.62 7.46 6.87 10.06 1.12.89 3.16.65 4.78.92.09-.27.15-.55.23-.82-.92-1.5-1.86-2.99-2.94-4.73 2.4.83 2.05 5 5.8 4zm54.54 62.08c-.35-.02-.71-.05-1.07-.06-.18.89-.55 1.78-.5 2.66.58 11.08 2.24 21.98 6.05 32.46 1.17 3.23 1.6 3.36 4.63 1.75-3.48-12.18-8.55-23.9-9.1-36.81zm220.3-222.24c-.45.01-1.5-.23-2.22.14-2.52 1.25-5.1 2.5-7.35 4.16-4.07 2.98-8 6.2-11.88 9.45-2.19 1.85-4.17 3.96-6.23 5.96l.46.71c1.52-.35 3.03-.86 4.59-1.02 4.67-.53 7.57-3.54 9.2-7.45 1.12-2.69 2.84-4.08 5.25-5.12 1-.44 2.1-.88 2.9-1.6 1.87-1.66 3.58-3.53 5.28-5.23zm42.38 63.17c-9.98-5.97-32.22-1.21-43.94 4.89 3.88-.28 7.66.63 11.67-1.1 5.1-2.21 10.6-4.05 16.08-4.58 5.01-.5 11.06-2.08 14.92 4.1l1.27-3.3zM126.6 361.74c-1.87-6.57-3.81-12.9-5.47-19.31-1.62-6.31-2.97-12.7-4.44-19.06a2.98 2.98 0 00-.55 2.04c.66 4.87 1.16 9.78 2.19 14.57 1.37 6.49 3.1 12.9 4.81 19.3.41 1.52.77 3.72 3.46 2.46zm180.97-244.4c-5.11-1.63-22.54.56-27.66 3.72 2.3.12 3.97.26 5.64.28 3.94 0 7.94-.52 11.8.03 4.17.57 7.36-.21 10.22-4.02zM49.05 247c3.29 4.54 6.3 8.74 9.36 12.88 2.06 2.79 2.1 2.74 4.93.47a7416.2 7416.2 0 00-9.96-15.19L49.05 247zm307.7 17.21l-.83-.01c-.33 1.94-1.04 3.9-.91 5.8.62 8.5 1.46 17 2.24 25.5.06.63.2 1.24.29 1.86l.96.16c.32-1.06.95-2.13.9-3.16-.33-7.24-.72-14.46-1.28-21.68-.22-2.84-.9-5.65-1.38-8.47zm-288.98-5.99c-2.77-4.42-5.61-8.55-7.97-12.91-1.04-1.92-1.93-2.06-3.55-1.22l-2.17 1.12 10.36 14.86 3.33-1.85zm294.85-128.83l.1 1.03c3.16 2.6 6.34 5.18 10.04 8.21.57-2.98 1.07-5.55 1.54-8.13.49-2.69 0-3.47-2.7-3.11-3.03.37-6 1.3-8.98 2zm7.95 128.92c-2.58.87-2.5.85-2.22 2.92.9 6.74 1.83 13.5 2.57 20.26.33 2.86.23 5.76.31 8.65l1.03.26c.38-1 1.16-2.03 1.13-3.04-.16-4.91-.39-9.83-.88-14.71-.45-4.77-1.26-9.51-1.94-14.34zM59.06 243.12c2.84 4.34 5.45 8.36 8.1 12.37 1.78 2.66 1.92 2.66 4.54.53l-8.65-14.7c-1.23.57-2.32 1.06-4 1.8zm297.59-42.55c2.43-.21 3.28-1.54 3.21-3.8-.08-2.84.15-5.68.02-8.52-.12-2.35-.56-4.67-.85-7.02l-.8-.36c-.87.72-2.5 1.43-2.5 2.13.12 5.82.56 11.63.92 17.57zM139.8 119.25c.04.26.1.52.16.78 1.43-.26 2.85-.58 4.3-.8 8.95-1.31 17.9-2.82 26.9-3.82 3.83-.43 6.84-2.15 10.03-3.82-.09-.29-.15-.58-.23-.87-13.71 2.85-27.44 5.7-41.16 8.53zm-39.23 107.12c16.9-4 34.4-5.63 50.88-11.62-16.81 4.5-34.38 5.61-50.88 11.62zm-4.8 105.07l-.66-.18c-.35 1.64-.99 3.27-1 4.91-.12 9.23 1.13 18.24 4.8 26.8.75 1.74 1.78 2.34 3.6 1.68-6.02-12.17-6.3-13.65-6.75-33.21zm78.05-125.78l-.15-1.02c-2.3.36-4.7.44-6.9 1.14-4.3 1.4-8.4 3.47-12.75 4.7-8.2 2.34-16.53 4.28-24.8 6.41-.4.1-.78.34-1.15.5 15.44-3.29 31.02-5.95 45.75-11.73zM93.76 364.58c.21-.26.44-.52.65-.8-3.24-8.1-4.51-16.56-4.56-25.4-.9.88-1.73 1.87-1.78 2.89-.38 7.33 1.12 14.42 3.39 21.35.27.83 1.5 1.31 2.3 1.96zm267.84-69.3c2.79-1.9-.3-31.9-3.43-34.3l3.43 34.3zM86.8 340.93l-.88-.35c-.63 1.08-1.73 2.14-1.8 3.27-.39 6.31 1.24 12.35 3.23 18.26.28.84 1.64 1.31 2.5 1.94.2-.2.4-.44.6-.65-3-7.2-4.22-14.7-3.65-22.47zm214.31-65.24l1.41 4.73 19.2-5.67c-1.14-.92-2.11-1.91-2.28-1.8-2.06 1.53-4.63.62-6.83 1.6-2.24 1.03-4.6 1.76-6.92 2.62.68-2.45.52-2.84-1.51-3.16l.48 2.09c-1.08-.11-2.12-.24-3.55-.4zm-105.5-83.06l-5.36 1.23c.49 2.1 1.1 3.9 1.28 5.76.23 2.45 1.56 2.97 3.63 2.6.75-.12 1.47-.31 2.54-.57l-2.1-9.03zM82.52 342.99c-1.36.06-2.19 1.05-1.91 2.79a675 675 0 002.55 15.02c.3 1.7 1.46 2.34 2.74 2.16-1.14-6.67-2.24-13.26-3.38-19.97zm277.59-82.03c4.19 10.56 4.15 21.6 5.11 32.54.57-1 .88-2.02.78-3-.84-9.1-1.78-18.2-2.64-27.3-.18-1.79-.91-2.71-3.25-2.24zm-111.8-58.14c1.18 5.11 2.28 9.98 3.44 14.85.43 1.88 1.62 1.22 3 .76-1.3-5.61-2.57-11.08-3.85-16.68l-2.6 1.07zm-48.43 97.37l.26.66c-2.32.54-4.68 1.02-6.98 1.63-2.14.56-4.25 1.28-6.4 1.94l.3.78c.23.08.49.26.68.21a848.26 848.26 0 0015.19-4.25c.53-.16.87-.94 1.31-1.44-6.85-3.91-11.55 1.1-16.84 3.37 4.15-.97 8.32-1.95 12.48-2.9zm47.47-96.78c-1.33.65-3.5.1-2.97 2.43.9 3.86 2.1 7.64 3.03 11.49.54 2.22 1.77 2.33 3.54 1.69l-3.6-15.61zM96.93 364.39c-1.1-4.74-2.45-9.38-3.18-14.1-.73-4.75-.82-9.6-1.17-14.38-3.28 3.3.34 26.79 4.35 28.48zM286.4 107.8l.03-.66a247.45 247.45 0 00-44.39-1.64c14.78.78 29.58 1.54 44.36 2.3zm85.02 60.59c-.08-.28-.16-.56-.26-.83-3.23.06-6.46.08-9.67.22-.4.02-1.02.65-1.12 1.1-.36 1.55-.52 3.16-.83 5.2 4.6-1.35 8.68-2.61 11.88-5.7zm-174.8-13.36c-3.74-1.1-36.6 4.76-42.79 7.89 2.04-.18 4.07-.44 6.07-.9 12.2-2.8 24.47-5.2 36.72-6.99zm165 44.44c.7-1.28 1.69-2.27 1.65-3.21-.17-4.92-.55-9.82-1-14.7-.05-.54-1.02-.99-1.58-1.5-.32.64-1 1.32-.94 1.92.52 5.55 1.17 11.08 1.87 17.5zm15.53-53.72c2.38-.22 5.25-3.24 5.9-6.36.31-1.47-2.1-3.99-5.17-5.27-.25 3.94-.5 7.8-.73 11.63zm-173.7 55.7c-.82-3.49-1.58-6.83-2.36-10.19-3.76-.02-4.25.54-3.55 4.1.2 1.03.44 2.03.66 3.04.85 3.81.85 3.81 5.25 3.05zm-31.68 7.32l3.17 13.68c1.07-1.29 2.51-2.28 2.38-3-.65-3.95-1.68-7.84-2.62-11.93l-2.93 1.25zm181.5-76.57l.56-.63c-1.57-1.62-3.11-3.28-4.74-4.85-2.32-2.26-4.73.06-7.12-.3l.3 1.29-2.55.06-.09.5c4.55 1.3 9.09 2.62 13.63 3.93zM31.8 192.15l-.7-.1c.1 1.54-.18 3.23.36 4.6 1.86 4.81 1.1 8.92-2.65 12.48-.03.04.12.25.17.36 4.67-2.5 8.8-10.63 6.9-13.84l-3.38 1.41-.7-4.91zm214.3 27.79l.72-.83-3.27-14.21c-1.1.36-2.05.65-2.54.8 1.01 4.36 1.86 8.4 2.94 12.4.21.75 1.4 1.24 2.14 1.84zm79.84 5.94c-1.06-1.09-1.92-2.45-3.14-3.03-.68-.33-1.98.66-3.49 1.26-.51-.44-1.52-1.28-2.51-2.1l-.7.62c.4.69.63 1.51 1.17 2 1.04.92 2.24 1.64 3.59 2.61.16-.4.47-1.31.92-2.14.28-.5.8-.9 1.22-1.31.34.58.78 1.12.99 1.73.32.93.22 2.1.78 2.8.95 1.29 2.24 2.31 3.52 3.56.3-.87.97-2.04 1.05-3.24.08-1.09-.16-2.6-.87-3.22-.5-.43-2.03.34-2.54.46zm-208.8-8.24c1.6.87 24.34-4.79 27.9-6.85-9.94.76-18.73 4.04-27.9 6.85zm247.3-19.98c.17.15.37.3.55.44.47-.84 1.38-1.7 1.34-2.53-.2-4.72-.6-9.44-1.08-14.15-.07-.6-1.1-1.1-1.95-1.88.4 6.5.78 12.3 1.13 18.12zm-124.56 8.9l-1.04-.44c-.47.7-1.26 1.34-1.34 2.07-.62 5.1 1.36 8.98 5.25 10.73-.96-4.07-1.91-8.21-2.87-12.36zm128.74 84.8a117.9 117.9 0 00-2.19-30.58l-.84.08c1 10.17 2 20.33 3.03 30.5zm-161.27-90.65l-1.82-10.46-2.93.68 1.7 10.48 3.05-.7zM77.39 344.17c-.44 6.4 1.36 13.24 3.83 15.22-.58-5.03-1.2-10.16-1.8-15.4-.6.07-1.27.13-2.03.18zm27.27-160.57l-6.97 2.66c.4.6 1.18 1.41 1.52 2.37.57 1.62 1.46 2.12 3.12 1.72 1.9-.46 3.28-3.88 2.33-6.75zm144.68-15.24c-.07.13-.15.25-.21.38l7.6 4.67-13.22 3.05c.47.61.86.7 1.22.63 3.78-.68 7.53-1.44 11.33-2.1 2.77-.46 2.95-.69 2.17-3.12l-8.9-3.5zm-16.84 61.35l-.46-1.03a97.23 97.23 0 00-20.88 13.18l21.34-12.15zM66 283.44c-3.67 1.92-3.52 3.22 1.38 8.36 2.29-2.03 1.8-5.06-1.38-8.36zm224.32-179.91c8.08 2.17 26.42 3.52 29.97 2.3-10.48-.8-20.22-1.54-29.97-2.3zm-99.7 99.3l.49-.88-1.72-7.42c-2.89 1.87-3.85 3.91-2.47 6.36.57 1.03 2.42 1.32 3.7 1.93zm2.86-18.2l-.23-.66-33.6 6.1.14.76 33.69-6.2zm-82.86-2.8c-2.44 4.05 2.33 6.26 1.62 9.94 3.13-1.46 6.46-1.4 8.42-4.64-2.5.74-4.66 1.35-7.36 2.13l-2.68-7.43zm159.27 70.87c-2-.98-9.39.34-10.07 1.09-3.44-.35-5.32 1.88-7.6 2.98l17.67-4.07zm-56.86-1.92c-1.51 1.32-3.75 1.56-2.74 4.24 1.26 3.34 2.54 4.64 4.73 4.41l-2-8.65zm129.08-15.75c.88-.15 1.85-.08 2.6-.46 2.84-1.47 2.6-3.8 1.07-5.92l-2.73-2.79c-.05 3.23 1.57 6.13-.94 9.17zM78.45 159.94l-1.38-.16c-1 5.89-1.98 11.8-2.97 17.69l.71.12c1.35-5.85 3.33-11.58 3.64-17.65zm129.84 19.81c.02.26.05.5.06.76 1.95 1 4.6-1.52 6.2 1.17l12.07-1.96-.08-.66c-6.06.22-12.15.47-18.25.7zm167.1 107.1c1.34-8.75-.77-16.42-2.52-24.14.83 7.8 1.64 15.6 2.52 24.14zm-186.1-166.16c5.06 1.19 11.02-4.7 13.58-13.38-3.81 5.17-6.23 11.76-13.58 13.38zm112.6 60.08c-.18-5.37-.84-6.37-4.14-6.02.4 2.23.76 4.45 1.15 6.7 1.25-.27 2.15-.46 2.99-.68zM89.36 201.7l.28.64c7.8-2.1 15.63-4.19 23.43-6.3l-.28-.99c-7.8 2.22-15.6 4.45-23.43 6.65zm183.65-73.07c-2.1-4.77-4.17-9.56-6.26-14.33l-.83.4c2.84 4.45 1.83 10.73 7.09 13.93zM296.05 281l-.65.2c-.39-.96-.71-1.95-1.22-2.84-.22-.4-.84-.57-1.28-.85-.21.4-.63.8-.61 1.19.03 1.23.24 2.46.37 3.74l5.8-1.34c-.24-1.07-.33-2.03-.7-2.88-.25-.56-.9-.95-1.37-1.42-.23.6-.6 1.2-.63 1.81-.05.8.18 1.6.29 2.39zm-84.63-110.54l.38.52c1.13-.71 3.13-1.31 3.24-2.16.2-1.49-.75-3.14-1.28-5.01a596.62 596.62 0 00-4.14 3.18c1 .53 1.77.97 2.66 1.46l-.86 2.01zm-69.78 19.4l12.54-1.84c-1.33-2.4-5.86-1.79-12.54 1.85zm-84.55 87.34l-.42-.52a54.02 54.02 0 00-13.06 10.49l.59.7c4.3-3.54 8.6-7.11 12.9-10.67zm261.48-108.78c-3.08 1.6-4 4.28-2.99 8.8.91-.87 2.02-1.42 2.2-2.18.45-2.05.51-4.19.79-6.62zm-83.54 29.8l-.25-.65-23.6 8.73.2.59 23.65-8.67zm-62.84-14.28c-.06-.22-.13-.45-.18-.68l-5.7 2.44c-.1-.21-.22-.4-.32-.62l2.94-2.94c-2.29.17-5.01-.82-5.6 2.36 2.84 2.25 5.78 2.04 8.86-.56zm-35.24-.68c-1.52-1.4-1.25-4.31-4.05-4.07l-.65 3.78-2.1-1.62c.68 2.58 4.03 3.5 6.8 1.91zm152.06 60.13l-.6-.92c-1.33.7-2.81 1.21-3.95 2.14-1.15.92-1.94 2.27-2.9 3.42l.73.68c2.06-2 5.8-1.86 6.72-5.32zm-65.06-23.96l-.3.9 13.76 5.44.49-1.3-13.95-5.04zM79.85 294.3l1.06-1.1-7.45-7.79c-.22.23-.47.44-.7.67 2.15 2.94 3.92 6.21 7.08 8.22zm-7.52-97.9c-.96.33-1.82.64-2.7.93 1.45 4.36 3.35 5.61 5.4 3.55 0-.08 0-.2-.02-.26l-2.68-4.22zM318.4 175.4c2.97-1.17 3.73-3.85 2.72-8.55-3.03 2.27-1.72 5.55-2.72 8.55zM136.33 122.3c-7.75 1.15-15.5 2.14-22.68 5.24l22.69-5.24zm16.33-2.5l.16.65c5.45-1.57 11.39.18 16.73-2.17l-.1-.68c-5.58.71-11.18 1.46-16.8 2.2zm169.41 22.86c-.9.43-1.64.75-2.41 1.12l1.2 5.21c2.93-1.69 2.02-3.86 1.21-6.33zm-214.52 32.2c-1.69-1.34-11.52.41-13.66 3.16l13.66-3.17zm116.87 1.83c1.77-.64 3.23-1.01 4.52-1.7.33-.19.26-1.99.05-2.05-1.25-.4-2.6-.52-3.88-.73l-.7 4.48zM61.78 286.79c-1.98 2.5.05 4.31.68 6.2.15.45 1.32.56 2.02.84.06-.68.4-1.48.16-2-.76-1.6-1.75-3.11-2.86-5.04zm145.4-15.14l-.1-.46c-5.04 1.17-10.07 2.32-15.11 3.5l.1.45 15.1-3.5zm-69.47 90.34l-16.12 2.2c4.33.72 14.52-.58 16.12-2.2zM323.2 105.38l.07-.94-19.4-1.36c-.02.17-.04.35-.04.55 6.46.56 12.92 1.15 19.37 1.75zm-99.23 58.93l.94 4.05 4.63-.08c.22-3.76-3.34-2.38-5.57-3.97zm52.55 108.57c-3.2.75-6.11 1.41-9 2.08 2.56 1.65 5.2 1.04 7.67.53.62-.11.93-1.72 1.33-2.6zM172.66 140.65c-1.96-2.43-3.94-4.91-6.26-7.82.66 5.18 3.08 7.89 6.26 7.82zm-43.72 54.8l.11 1.1 17.15-2.15-.05-.39c-5.73.47-11.47.96-17.21 1.45zm-79.03 7.33c2.12 4.4 3.57 5.67 6.23 5.04-2.03-.75-2.66-2.06-3.05-3.84-.3-1.3-1.25-3.18-3.18-1.2zM236.7 162.9c-5.2-2.52-10.35-5.12-16.06-6.09l-.23.67 16.29 5.42zm23.12-40.06c-.68 3.44 2.25 6.06 5.8 5.2-1.97-1.78-3.85-3.45-5.8-5.2zm5.16 142.32l9.5 6.49c-2.8-4-7.18-5.45-9.5-6.5zm40.75-84.82c.15-4.19-.29-4.77-3.27-4.47.7 4.76.83 4.94 3.28 4.47zm-186.38 4.83l-.02-.57-2.29.05.6-1.78c-1.7.95-2.98 1.69-4.95 2.77 1.2.7 2.15 1.69 2.8 1.53 1.36-.36 2.58-1.3 3.86-2zm207.1-41.94c-2.83.73-3.14 2.3-1.2 5.3l2.13-1.32-.93-3.98zM70.2 283.01l-.64.25c.09.33.15.65.23.96.4 1.58 1.88 2.71 1.06 4.84-.57 1.47 1.78 2.8 3.22 1.91-1.3-2.64-2.6-5.3-3.87-7.97zm26.36-90.15c.12-2.85-.53-4.36-2.61-4.44-.54-.02-1.12 1.34-1.67 2.06l4.28 2.38zM309.43 34.2c.12-3.03-2.19-4.3-6.08-4.09l-.37.68c2.02 1.1 4.05 2.15 6.45 3.41zm-76.87 254.44l-.14-.28-18.53 4.28.08.3c6.2-1.43 12.4-2.88 18.6-4.3zm-70.6-105.56c-2.54.58-4.62 1.07-6.85 1.57 2.54 2.35 4.85 1.88 6.84-1.57zm-71.28-9.98l-6.88-7.7c.7 4.34 2.7 6.6 6.88 7.7zm121.76 90.34c2.66 3.49 2.75 3.52 5.6 2.14l-3.57-3.28-2.03 1.14zm167.43 25.93l.66-.1c-.92-6.31-1.83-12.63-2.76-18.94l-.47.07 2.56 18.97zM174.84 184.52c3.2-.3 4.46-1.4 4.65-4.09-3.06.22-3.49.6-4.66 4.1zm175.1 47.6c2.67-.51 2.59-2.2-.12-6.37-1.63.6-2.06 1.54-1 2.03 2.23.99 1.48 2.53 1.11 4.34zM107.67 26.75l-.29-.86c-2.71-.88-4.17-.28-5.52 2.89 2.3-.81 4.06-1.43 5.81-2.03zm24.71 147.98l-1.15 2.49-1.18-.22-.93 3.44c2.3-.61 4.51-3.8 3.26-5.7zM379 254.74c.06-.32.11-.65.18-.97-2.73-.47-5.44-.94-8.16-1.43l-.15.8c2.66.87 5.18 2.45 8.13 1.6zM246.8 6.44l6.73 2.24c-2.16-3.34-3.49-3.78-6.73-2.24zm-11.49 164.03l-2.03 2.22c.33.3.65.57 1 .86.95-1.23 2.05-2.4 2.75-3.78.11-.24-1.54-1.36-2.37-2.07-.3.3-.58.61-.88.9l1.53 1.87zm-71.2-29.87l-4.33-6.99c-1.07 2.42.95 5.63 4.32 7zm196.7 83.53l-.34.48 4.54 4.92c.47-1.15 1.07-2.04 1.09-2.95.01-.46-1.06-.93-1.66-1.37-.03-.03-.24.18-.37.28.2.62.44 1.23.9 2.56l-4.16-3.92zM239.69 282.4c5.27 3.09 5.27 3.09 6.73.74l-6.73-.74zm-16.4-99.86c-.02-.27-.04-.55-.04-.82l-12.25 1.9.08.58 12.2-1.66zm-5.67-15.69c.49-1.31 1.13-2.22.96-2.88-.18-.65-1.24-1.04-1.9-1.56-.44.73-1.3 1.52-1.22 2.19.1.68 1.12 1.23 2.16 2.25zM66.97 202.38l1.08.1.4-3.76-3.47-.15c.9 1.74 1.46 2.78 2 3.81zm97.01 110.27c-1.28.55-2.32.92-3.28 1.46-.35.2-.64.73-.7 1.15-.03.24.57.83.75.78 1.37-.4 2.7-.91 4.16-1.43-.34-.75-.59-1.26-.93-1.96zm-101.4-96.86c-1.98 1.93-.42 3.32.2 4.62.22.42 1.26.44 1.92.63.07-.22.15-.45.21-.68l-2.33-4.57zm289.77 92.91l.3.9 11.04-4.9a7.16 7.16 0 01-.23-.5l-11.11 4.5zM157.72 134.75l-.67-.04c-.01.72-.27 1.51-.03 2.11.9 2.18 2.8 3.59 3.91 3.33-1.05-1.77-2.12-3.59-3.21-5.4zm75.5 29c.2 1.77.56 3.41 2.75 3.54.3.02.96-.84.9-1.18-.4-1.89-1.74-2.5-3.64-2.36zm100.88-23.93l-.82.15c.67 1.83-1.93 4.25.69 5.73l1.05-.2-.92-5.68zM209.2 254.35l-.53.15 1.5 6.55c.69-.24 1.2-.42 1.65-.56-.91-2.16-1.76-4.14-2.62-6.14zM58.55 217.5c.89 1.85 1.46 3.13 2.16 4.36.14.27.74.46 1.05.36.32-.1.8-.78.75-.83-1.04-1.25-.86-3.58-3.96-3.89zm295.66-41.92c2.12-1.24 3.15-4.7 2.12-7.68l-2.12 7.68zm2.55-1.04c.35.14.7.29 1.07.42l1.96-6.54c-.34-.11-.67-.24-1-.36-1.55 1.84-1.2 4.38-2.03 6.48zM331.18 316.9c-.09-.26-.15-.5-.23-.76l-9.9 3.1c3.07-.7 6.6-1.51 10.13-2.34zm22.58-148.15c-.76 2.35-1.54 4.7-2.32 7.14 1.87-.6 2.99-3.54 2.32-7.14zm12.8 11.42l-.8.15 1.76 9.93.68-.11c-.57-3.33-1.1-6.66-1.64-9.97zm-188.33 48.34l-10.55 2.43.16.59 10.39-3.02zm150.9-79.62l2.45-2.22c-.99-.66-1.96-1.35-3.5-2.38.4 1.81.63 2.8 1.05 4.6zM221.3 159.42l-.86.83c.18 2.82 2.63 2.56 4.68 2.86a401.73 401.73 0 00-3.82-3.69zm-117.16 88.82l.15.35 12.04-1.93-.1-.6-12.09 2.18zm93.98-37.34l.42.8 8.92-4.88-.3-.59-9.04 4.67zm138.81-37.7l.02-1.07-7.77-.15v.86c2.58.13 5.18.24 7.75.36zm-197.37 18.96l-.08-.74c-3.26.47-6.52.92-9.8 1.4.03.28.07.58.12.85l9.76-1.5zm-120.1 22.6l.4 1c2.2-1 4.41-1.98 6.62-2.96l-.25-.66c-2.25.86-4.5 1.73-6.76 2.63zm354.14 76.88c-3.37.48-2.72 2.53-2.61 4.36l.65.26 1.96-4.62zm-18.09-67.77c-.14.13-.29.26-.45.37 1.4 2.13 2.8 4.27 4.22 6.4l.89-.7-4.66-6.07zM56.15 205.03l.86-.08c.07-.71.4-1.56.15-2.13-.54-1.23-1.45-2.22-3.4-1.55l2.4 3.76zm159.42 46.55l-.9.01.66 6.72 1.14-.13-.9-6.6zM51.72 190.96l.62.28 3.75-7.9-.83-.4c-1.18 2.7-2.35 5.36-3.54 8.02zm229.32 59.01l-.32-1.02-7.24 2.39c.05.1.08.24.13.35l7.43-1.72zm-119.27-92.74l.44.59c1.17-.28 2.35-.54 3.52-.81l.05-.88c-.7-.11-1.47-.47-2.07-.3-.72.22-1.3.92-1.94 1.4zm-96.89 58.09l-1.1.4 1.67 4.35.88-.3c.55-1.8-.7-3.06-1.45-4.45zm200.88-42.45l.97.44c2.16-.57 1.27-2.24 1.07-3.65l-.92-.32c-.36 1.18-.73 2.35-1.12 3.53zm-56.61-8.24c2.29-2.85 2-3.76-1.22-4.3l1.22 4.3zm-92.87 33.9c2.27-.53 4.53-1.04 6.8-1.58l-.21-.88c-2.44-.17-4.38 1.77-6.59 2.45zm197.81-25.7l-.66-.33-1.7 5.32.96.3c1.9-1.34.72-3.6 1.4-5.3zM300.14 281.7c.58-1.17 1.17-1.77 1.05-2.2-.32-1.2-.94-2.31-1.43-3.48l-.84.36c.32 1.5.67 3 1.22 5.32zM85.29 191.22l-3.71 1.88.22.67c1.32.02 2.65.05 4.1.06-.2-.82-.35-1.46-.6-2.6zM229.84 340.3l.42.81c1.41-.6 3.6-.01 4.07-2.02l-.58-.93-3.91 2.14zM215 158.22l-5.02-1.12c1.87 3.18 2.4 3.33 5.02 1.12zM181.6 5.26c0-.5 0-1.02-.03-1.53l-4.2.25.05 1.26c1.41 0 2.8 0 4.19.02zm-83 196.23l.1.36 5.92-1.36c-.03-.12-.06-.25-.11-.36l-5.9 1.36zm-52.87 3.56l-.64.8c1.46.8 1.35 3.98 4.56 2.62-1.44-1.27-2.69-2.35-3.92-3.42zM233.1 3.55c-1.68-2.54-3.37-2.77-5.37-.89l5.37.9zm105.97 266.8c-1.1-2.73-2.45-1.66-3.9-.93.75 2.5 2.2 1.25 3.9.93zm-109.3-89.32l.2.91c2.49-.56 4.98-1.15 7.47-1.72l-.13-.53-7.53 1.34zM60.06 289.82l-.98.16c.15.96.18 1.96.49 2.87.13.42.76.69 1.18 1 .13-.48.44-1.03.33-1.47-.23-.89-.67-1.72-1.02-2.56zm259.64-22.21c.83 1.07 1.52 1.96 2.24 2.85.3-.4.95-.9.87-1.2-.34-1.21-.76-2.54-3.11-1.65zm43.46-37.48l-4.64 1.9c2 1.4 3.36.84 4.64-1.9zm-20.76 39.5c-.36-2.48-1.76-1.78-3.2-1.3.39 2.4 1.72 1.84 3.2 1.3zm-179.17-63.2l-.13-.52-7.7 1.77c.06.17.09.33.14.51 2.58-.58 5.14-1.16 7.69-1.76zm-21.76-22.14c-1.67.96-3 1.7-4.35 2.47.15.25.3.49.46.72 1.77-.2 3.75-.04 3.9-3.19zM115.4 23.43l-.25-1.22-3.68.85.2 1.02 3.73-.65zm10.24 163.35c-.15.27-.28.55-.43.8 1.01.79 2.02 1.55 3.31 2.54l-.53-3.9-2.35.56zm191.04-32.87l2.56.65.6-4.19c-1.33 1.5-2.1 2.37-3.16 3.54zm-.81-1.46l-1.1-3.41h-.88c-.16 1.4-.3 2.8-.52 4.6 1.09-.51 1.72-.8 2.5-1.2zm5.43 121.62l1.16.87 1.85-2c-.5-.33-1.33-1.03-1.4-.97-.62.62-1.09 1.38-1.6 2.1z"/><path d="M262.33 268.4c1.32 1 2.65 1.98 3.96 2.96l-.52.76c-1.26-.93-2.53-1.83-3.8-2.76l-3.14-2.45 3.5 1.5zM294.25 49.58c5.64 3.28 11.03 6.88 15.3 11.86l-.88 1.33c-.36-.55-.6-1.21-1.09-1.64a101.87 101.87 0 00-5.6-4.6c-1.42-1.1-2.64-2.26-4.96-1.12-2.32 1.12-6.99-2.53-8.14-5.6-.36-.93-1.04-2-1.87-2.45-15.1-8.3-30.8-15.27-47.37-20.12-1-.3-2.11-1.05-2.84.55-.05.12-1.41-.22-2.03-.57-1.43-.79-2.7-2.15-4.2-2.5-7.66-1.75-15.37-3.24-23.04-4.88-1.2-.26-2.34-.84-3.5-1.28.07-.21.16-.44.25-.65l6.44.88c.1-.02.2.01.28.05.2.16.37.43.58.48 6.57 1.3 13.15 2.58 19.9 3.9-.05-.75-.18-1.24-.1-1.7.1-.56.27-1.47.6-1.55.57-.14 1.41.02 1.88.4.73.56 1.57 1.3 1.78 2.13.59 2.3 2.33 2.68 4.2 3.18 18.11 4.87 34.97 12.7 51.26 21.87.67.38 1.3.86 1.93 1.29-.7.1-1.38.2-2.07.32-.09.24-.15.5-.23.75l5.2 3.52c.18-.2.36-.4.54-.57-.73-1.12-1.48-2.2-2.22-3.28zM234.7 26.33l1.25-.34-1.26-4.33-1.25.34 1.26 4.33z"/><path d="M211 18.82a.42.42 0 00-.28-.05c-1.07-.71-2.32-1.26-3.16-2.17-.5-.55-.39-1.67-.55-2.53l.73-.25-1.88-.94c.66-.16.97-.32 1.23-.27 11.3 2.43 22.57 4.91 33.86 7.3 1.35.27 2.8.03 4.2-.02 1.2-.05 2.42-.32 3.59-.21 2.06.21 3.73.99 3.39 3.03l34.25 15.71c2.45-2 2.29-4.25-1.12-6.02l-.3 2.74-2.93-6.46 14.08 7.01c1.6-1.54 3.48-2.1 5.71-.64l-3.39.45-.2.76 7.47 2.86-2.09.82c2.6 2.18 6.12 3.3 7.17 7.11-2.4.49-3.76-.63-5.13-2.08-1.38-1.47-2.77-3.05-4.46-4.08-4-2.45-8.2-4.63-12.28-6.9l-.36 6.23c2.1 1.41 4.5 3.03 6.9 4.67l-.02.02c-2.33-1.25-4.7-2.4-6.99-3.75-11.34-6.65-23.3-12-35.61-16.56-1.35-.5-2.9-.46-4.29-.85-1.68-.47-3.32-1.13-4.98-1.75-.63-.24-1.2-.71-1.83-.86-10.16-2.37-20.31-4.7-30.88-7.15l3 4.6-2.85.23zm33.7 2.99l6.42 1.02c-1.31-2.87-3.1-3.21-6.42-1.02zm-32.1-5.15c-1.73-.8-2.95-1.43-4.23-1.94-.1-.05-.47.56-.71.87 1.18.65 2.37 1.32 3.58 1.95.07.05.28-.16 1.37-.88zM78 113.5c-1.03.04-2.17-.22-3.03.15-12.38 5.28-24.72 10.65-37.09 16-2.66 1.15-5.3 2.37-8.48 3.78C36.3 122.8 120.97 95.4 135.33 98.2L89.3 108.82c1.85 2.38 1.33 4.35-.3 6.07-.45.48-1.36.8-2 .74-.33-.03-.77-1.07-.82-1.67-.08-1.18.07-2.38.13-3.67l-5.17 1.2c.24 4.27-1.1 5.94-5.76 6.5l2.43-4.24-.4 2.55c.32.03.8.2.92.08.78-.94 1.48-1.95 2.2-2.94l-.62-.7c-.67.25-1.29.5-1.92.77zm11.9-3.55c-3.1 1.22-2.06 3.04-2.47 4.43.36.12.73.21 1.1.33l1.37-4.76zM122.87 108.02c-31 8.16-61.57 17.62-90.92 30.7 7.09-7.06 63.58-26.07 90.92-30.7z"/><path d="M224.01 9.23c1.03.4 2.03.86 3.09 1.14 4.26 1.07 8.53 2.14 12.83 3.08 1.12.24 2.35-.03 3.5.13 1.41.18 2.9.37 4.2.9 3 1.23 5.9 2.72 8.9 3.93 2.56 1.04 5.25 1.74 7.77 2.86 1.25.55 2.2 1.74 3.34 2.58 1.06.78 2.17 1.59 2.89-.13l8.99 3.88.82 4.77.81-.03.96-2.08-.01 3.13c-2.36-.1-3.93-1.27-4.51-3.08-1.06-3.22-3.8-3.13-6.25-3.91-2.01-.64-3.94-1.58-5.89-2.44-.7-.3-1.28-.84-2-1.12-3.47-1.3-6.96-2.62-10.48-3.8-1.43-.46-2.98-.56-4.47-.87-2.54-.5-5.46.07-7.11-2.8-.26-.46-1.23-.54-1.9-.72-4.92-1.33-9.85-2.63-14.76-3.96a9.98 9.98 0 01-3.15-1.33l2.48-.1-.05-.03zM46.32 121.12l-1.56-2.78-17.1 9.4-.18-.12c.59-.5 1.12-1.1 1.77-1.47 4.56-2.63 9.19-5.16 13.71-7.86a7.4 7.4 0 002.23-2.46c.84-1.38 1.47-2.55 3.37-1.22.54.37 1.77.08 2.51-.24 13.37-5.93 26.89-11.43 41.02-15.22 7.4-1.98 14.94-3.5 22.4-5.23.09.33.15.64.23.96l-27 6.23.72 1.98c-3.49 2.11-4.98 2.16-5.94-.3-9.3 3.7-18.6 7.36-27.87 11.07-2.9 1.17-6.09 2.05-6.86 5.81-.09.47-.78.81-1.45 1.45zM258.93 94.64l76.85-1 .15.72c-1.09.26-2.18.68-3.28.73-6.45.23-12.91.55-19.37.49-18.1-.16-36.23-.5-54.34-.78l-.01-.16zM179.95 103.55l-41.42 6.65c3.11-2.66 36.82-8.33 41.42-6.66zM312.05 45.66c12.3 8.29 25.42 22.87 27.92 31.26-.59-.68-1-1.07-1.28-1.52-6.7-10.66-15.42-19.4-25.48-26.9-.79-.6-1.26-1.63-1.88-2.45l.72-.4zM61.64 93.03c1.07-.3 2.14-.66 3.23-.92.97-.23 2-.25 2.95-.5 1.54-.43 3.05-1 4.57-1.5l.25.65c-1.63.62-3.23 1.28-4.87 1.82-1.64.53-2.74 1.26-3.23 3.2-.44 1.76-1.7 3.32-2.51 4.78 7.57-2.8 15.4-5.68 23.21-8.55l.38.96c-.78.3-1.54.7-2.36.89-13.3 3.28-25.34 9.54-37.25 16.03-2 1.1-3.45 3.28-6.37 2.77.5-1.62 5.27.69 3.2-3.06 1.16-.26 2.52-.33 3.63-.88 4.78-2.38 9.49-4.91 14.37-7.46-.1-.67-.2-1.4-.34-2.14 2.76.27 2.73-2.15 3.34-3.69.9-2.25.25-2.84-2.27-2.45l.07.05zM263.71 53.44l-37.64-10.87c3.34-1.65 30.07 6.28 37.64 10.87zM239.93 41.15c13.95 4.3 27.73 9.28 39.15 16.7-12.35-5.28-25.8-11.01-39.15-16.7zM136.24 45.27c.34-1.1.55-2.06.92-2.96.62-1.5 1.25-3.03 2.05-4.46.34-.6 1.05-1.31 1.65-1.36.55-.05 1.57.62 1.69 1.12.37 1.59 1.15 4 .4 4.77-1.55 1.59-3.4 3.78-6.71 2.89z"/><path d="M61.59 92.98c.06 1.67-.46 2.78-2.27 3.41a36.5 36.5 0 00-6.5 3.16c-.77.44-1.03 1.7-1.78 2.24-1.46 1.09-3.08 2.7-4.65 2.73-2.7.06-4.74 1.04-6.8 2.45-.31.2-.75.24-1.27.1 2.27-1.63 4.55-3.23 6.59-4.7.34.43.97 1.55 1.25 1.47 1.35-.42 2.61-1.16 3.9-1.77-.07-.26-.17-.5-.25-.76l-1.93-.5c3.88-1.95 7.95-3.97 11.97-6.07.72-.38 1.22-1.14 1.8-1.72-.01.01-.06-.04-.06-.04zM286.59 84.85c-4-.1-17.96-9.11-19.13-12.78l19.13 12.78zM228.83 75.54c-.9-.37-2.2-.5-2.63-1.18a5.7 5.7 0 01-.8-3.67c.22-1.23 1.03-3 2-3.34 1.8-.63 3.26.8 3.43 2.6.17 1.96-.08 4-.52 5.93-.15.68-1.45 1.54-1.56-.39.3-.97.73-1.91.88-2.9.35-2.32-.3-3.18-3.15-3.86 1.33 2.35.08 5.03 2.35 6.81zM144.7 18.35c-.27.83-.3 2.03-.89 2.43a12.56 12.56 0 01-4.36 1.66c-2.04 3.45-4.48 4.64-6.65 2.74 2.72-.18 4.33-1.59 4.96-4.35l-1.77-.06.04-.6 2.9.13 5.05-2.57.73.62zM251.37 61.88c-.75-2.06-1.75-4.15-2.24-6.36-.46-2.08.78-2.94 2.74-2.03 2.34 1.07 2.38 3.43 2.55 5.52.11 1.65-.75 2.77-3.05 2.87zm.16-7.3l-.75.18c.4 1.65.76 3.32 1.16 4.98.25-.07.5-.11.76-.18-.4-1.65-.78-3.33-1.17-4.98zM122.41 70.97c-.61-1.5-1.59-2.97-1.75-4.51-.11-1 .94-2.11 1.48-3.17.96.88 2.58 1.66 2.72 2.65.23 1.57-.53 3.3-.87 4.96-.52.02-1.06.03-1.58.07zM282.99 54.24l-21.32-11.2c7.66 2.73 15.19 5.73 21.32 11.2zM252.49 32.34c-.95 2.2.5 4.08 4.25 5.7l-.68-2.93c.27.06.37.05.4.1 1.04 1.28 2.92 2.6 1.25 4.33-1.56 1.6-3.3.24-4.53-.93a14.42 14.42 0 01-2.85-3.9c-.86-1.77.01-2.54 2.16-2.37zM121.47 79.57c-.53 3.76-3.2 5.46-6.02 6.96-.52.27-1.62.04-2.09-.38-.39-.35-.47-1.38-.3-2 1.18-4.03 3.66-5.4 8.41-4.58zm-7.5 4.55c3.48.9 5.9-.95 5.47-3.94-2.77-.16-3.89 1.95-5.46 3.94zM212.46 7.37l-1.23-2.88c2.84-1.05 4.93-.2 6.73 1.55.37.35.73 1.2.57 1.49-.3.5-1.09 1.12-1.57 1.04-1.55-.26-3.06-.83-4.56-1.27l.06.07zM46.14 96.39c-.08-.78-.27-1.54-.14-1.6a318.28 318.28 0 0121.41-9.76L46.14 96.4zM200.1 50.22l-1.75 5.3c-.83-1.56-1.97-3.03-2.36-4.7-.2-.88.85-2.07 1.33-3.12l2.78 2.52zM290.55 69.8c5.58 2.38 10.58 5.61 13.25 8.29l-13.84-7.35.59-.94zM74.24 79.47c-1.5-2.6-1.42-5.11.23-5.75 1.41-.53 2.7-.26 3.33 1.38.76 1.95-.34 3.38-3.56 4.37zM279.3 75.36l12.64 8.55c-4.8-1.2-8.84-3.8-12.55-6.99-.34-.3-.08-1.3-.08-1.56zM186.75 12.1c-.85 1.3-1.2 2.57-1.9 2.8-1.53.5-3.22-.09-3.2-1.9 0-1.19 1.12-2.37 1.74-3.54.99.78 1.98 1.57 3.36 2.64zM145.52 50.82l1.8-1.29c1.87 2.78 1.14 5.13-2.37 8.15-3.28-2.03-3.33-3.59-.24-6.15-.33.96-.77 1.9-.91 2.87-.07.42.44.93.68 1.4.42-.31 1.05-.52 1.22-.93.45-1.09.74-2.25.97-3.4.05-.14-.75-.43-1.15-.65zM66.94 69.86c.57-1.47.85-2.9 1.63-3.96.5-.7 1.73-.86 2.62-1.26.2 1 .81 2.19.49 3-.73 1.78-2.32 2.61-4.74 2.22zM112.71 54.32c-1.5-.62-3.11-1.02-4.41-1.91-.5-.35-.28-1.77-.37-2.7.86-.05 2.06-.47 2.51-.06 1.17 1.07 2.03 2.5 3 3.78-.26.29-.48.58-.73.89zM231.09 31.98l16.33 3.76c-.08.34-.16.68-.22 1.02-5.44-1.3-10.87-2.64-16.3-3.95l.19-.83zM312.8 67.56c-1.9 2.42 1.03 3.81.77 5.74l.76.07.69-2.7.55.07c-.3 1.3-.2 3.39-.94 3.75-1.79.84-2.9-.67-3.57-2.3-1.14-2.83-.5-4.52 1.75-4.63zM280.47 64.96c.4.55.93 1.06 1.2 1.66.72 1.65-.27 3-1.91 2.4a9.1 9.1 0 01-3.6-2.66c-.49-.57-.12-1.87-.13-2.82l2.72.43-1.65.07c-.13.2-.28.42-.4.63l3.25 3.1.77-.47a547 547 0 00-.25-2.34zM38.18 96.8c-.43-.83-1.35-1.82-1.16-2.47.4-1.3 1.4-2.42 2.15-3.62.55.4 1.59.88 1.54 1.19-.25 1.65-.77 3.26-1.19 4.88l-1.34.02zM287.42 74.13c5.01.54 9.07 3.07 12.72 6.46-4.25-2.16-8.49-4.3-12.72-6.46zM89.32 68.4c1.72-1.23 2.82-2.2 4.1-2.87.54-.27 1.87-.1 2.01.24.28.65.25 1.74-.14 2.3-1.38 1.97-3.25 1.39-5.97.33zM54.08 69.67c.76-2.73 2.14-3.93 4.34-4 .65 0 1.32.48 1.98.74-.39.7-.61 1.77-1.2 2-1.5.58-3.16.8-5.12 1.26zM311.8 89.62c5.93-.24 11.85-.48 17.77-.74-5.8 2.04-11.78 1.26-17.77.74zM157.95 40.95c-.3-.3-1.14-.78-1.37-1.46-.53-1.6 1.67-4.2 3.9-4.36.8-.07 2.17.66 2.46 1.38.62 1.46-2.04 3.94-5 4.44zm4.49-4.72c-3.72-.67-5.14.94-4 4.07 1.45-1.47 2.74-2.77 4-4.07zM112.71 80.47c-1.17 2.2-3.08 2.58-5.16 2.57-.37 0-.97-.52-1.04-.88-.06-.39.28-1 .62-1.26 1.67-1.19 3.44-1.74 5.58-.43zM143.38 27.57c-1.19-2.44-.91-4.14.99-4.8.66-.22 2.27.35 2.37.8.6 2.68-1.56 3.22-3.36 4zM194 44.88c-1.32 1.85-2.24 3.23-3.31 4.46-.08.1-1.8-.75-2.03-1.41-.67-1.85.57-4.63 2.03-4.7.82-.06 1.7.8 3.3 1.65zm-2.88-.67l-1.86 4.25c2.55-.27 3.23-1.49 1.87-4.25zM114.46 34.23l.3 3.18.64.13c.7-1.98 2.93-3.44 1.58-6.32 2 .8 2.03 2.38 1.73 3.84-.45 2.24-1.76 3.64-4.75 3.13l-.05-3.96c.18.02.36.02.55 0zM32.22 100.02l1.58-3.08c2 1.72 3.8 3.07 2.07 5.39-.53.71-2 1.41-2.7 1.17-1.61-.6-1.78-2.06-.9-3.57.3 1.18.28 2.7 2.48 2.3l1-3.26-3.53 1.05zM218.32 42.56l3.8 3.16.64-.4-1.2-3.7c.08-.02.26-.09.31-.04 1.35 1.43 3.05 2.76 2.2 5.07-.16.45-1.16 1.02-1.57.89-2.37-.75-3.29-2.78-4.18-4.98zM151.9 12.66c-1.61 1.08-2.91 2.14-4.37 2.85-.45.21-1.36-.5-2.06-.81.4-.4.84-.8 1.22-1.23 1.3-1.53 2.72-2.37 5.2-.81zM80.86 87.61c.59-1.81 1.03-3.71 1.85-5.42.28-.58 1.54-.7 2.37-1.02.34.9 1.15 1.95.93 2.63-.72 2.08-1.89 3.97-4.29 4.36-.29-.17-.56-.37-.86-.55zm.73-1.4c2.92-.64 3.8-2.26 2.65-5.04l-2.65 5.05zM225.34 39.72c-.4-.94-.65-2.03-1.28-2.8-.83-1-1.98-1.78-2.98-2.64l-.8 1c.4.82.83 1.66 1.23 2.5-.26.09-.51.17-.76.27-.34-1.1-1.25-2.49-.88-3.22.88-1.7 2.62-1.21 3.69-.1 1.18 1.24 1.98 2.86 2.94 4.3l-1.16.69zM50.5 87.99c.17-3.04 2.18-3.93 4.47-4.89.02 3.4-1.22 4.72-4.48 4.89zM211.97 29.92c-2.1-1.23-3.63-2.06-5.01-3.08-.1-.07.65-1.98 1.31-2.26 1.48-.62 4.38 1 4.76 2.6.14.63-.52 1.46-1.06 2.74zm-4.28-4.64l-.45 1.02 4.72 2.27.39-.78c-1.41-1.1-2.44-2.9-4.66-2.51zM25.21 118.6l2.05 4.3c-2.2.62-3.7.26-4.1-1.6-.2-.86.53-1.9.84-2.88.4.07.8.13 1.21.18zM295.5 44.9l15.33 9.63c-.2.33-.37.65-.57.97-.53-.42-1.04-.87-1.59-1.26-4.38-3.12-8.78-6.22-13.17-9.33v-.02zM173.4 34.69c.28-1.17.6-2.27.82-3.43.15-.74.15-1.52.26-2.64-2.7.58-2.03 2.7-2.3 4.5-1.3-3.27-.54-4.6 2.87-5.54 1.1 2.5.35 5.8-1.64 7.1zM43.64 80.23c1.07-1.04 2.06-2.16 3.25-3.05.32-.24 1.48.02 1.72.39.26.39.1 1.52-.28 1.77-1.2.8-2.56 1.38-3.86 2.03-.26-.38-.53-.75-.83-1.14zM106.45 62.22l2.22-.24c.3 2.07-3.73 5.6-5.5 4.72-.39-.2-.66-1.66-.42-1.87 1.15-.99 2.5-1.73 3.8-2.56-1.12 1-2.26 2-3.4 2.99.17.22.31.45.48.68 1-.38 2.09-.62 3-1.17 1.38-.83 1.4-1.79-.18-2.55zM164.84 10.66c.7-1.54 1.15-2.84 1.88-3.96.28-.42 1.22-.4 1.87-.6.16.6.63 1.31.45 1.79-.63 1.67-1.63 3.03-4.2 2.77z"/><path d="M212.4 7.3c-.44.47-.91 1.35-1.32 1.32-1.4-.13-2.76-.57-4.14-.88.41-.59.9-1.72 1.19-1.67 1.46.26 2.87.83 4.31 1.28l-.04-.05zM196.14 35c1.05.03 2.4-.31 3.07.2.8.62 1.05 1.99 1.54 3.04-.81.33-1.89 1.15-2.39.9-1.6-.82-2.98-2.03-2.16-4.24.9 1.4 1.79 2.79 2.66 4.18l.9-.68c-1.04-1.28-.62-3.89-3.62-3.4zM91.88 46.8c.4-1.89 1.04-3.35 3.07-3.33.34 0 1.05 1.12.95 1.55-.47 2-1.85 2.49-4.02 1.79zM162.05 10.7c-1.46 1.26-2.27 2.13-3.26 2.72-.3.18-1.05-.46-1.59-.72.8-.99 1.53-2.02 2.45-2.88.16-.18 1 .35 2.4.87zM21.7 117.17c-.88-1.67-.87-3.14.75-4.25.18-.13 1.25.5 1.37.94.47 1.7-.03 2.99-2.11 3.31zM316.35 59.17c3.53 3.25 7.05 6.5 10.6 9.75l-.51.54-10.5-9.72c.13-.2.28-.37.4-.57zM187.65 22.99l2.36-.36c.04.98.48 2.16.06 2.86-.7 1.2-1.91 2.1-2.92 3.11l-.96-.24.31-3.57.34 2.35.76.2c.57-1.07 1.22-2.11 1.63-3.23.06-.16-1.02-.73-1.58-1.12zM324.8 85.4l-9.38 1-.11-.9c3.11-.37 6.23-.74 9.33-1.13l.16 1.04zM138.85 52.42l2.16 1.27c-.55.68-.98 1.72-1.69 2-1.53.6-3.21.8-4.83 1.18l-.41-.93 1.75-1.88-.57 2.3c1.92-.89 3.38-1.59 5-2.35l-1.41-1.59zM123.9 50.64l1.26 1.16 2.9-3.55c.62 1.85-.62 3.36-1.95 4.76-.32.34-1.46.48-1.57.3-.49-.76-.71-1.68-1.04-2.54.13-.05.26-.1.4-.13zM224.1 9.26l-3.7-2.32.35-.45 6.18 1.69-.1.76-2.83.28.1.04zM225.28 24.43c.34 1.5.57 2.84 1.04 4.13.08.2 1.15.06 2.07.1-.2.4-.52.97-.8 1.55-.97-.65-2.26-1.09-2.78-1.98-.77-1.31-1-2.95.47-3.8zM268.97 80.93l9.15 3.97c-3.65.07-6.52-1.72-9.15-3.97zM130.07 20.69c.36 1.63-.9 2.62-2.3 3.11-.91.33-2.1-.13-2.92-.21l5.22-2.9zM85.7 61.23c1.23-.9 2.12-1.54 2.95-2.27.07-.05-.42-.73-.78-1.35l1.58-.26c-.28 1.07-.31 2.32-.91 3.17-.65.95-1.8 1.86-2.84.71zM284.5 24.77c-2.23.82-1.67 1.97-.3 3.23-.33.12-.7.21-1.03.33-.54-1.19-1.06-2.39-1.6-3.57l2.47-.78.46.8zM302.23 67.72l-8.27-5.03c.11-.2.24-.37.35-.57l8.21 5.15-.29.45zM98.32 269.28c15 4.32 29.58 9.7 41.86 20-6.8-3.7-13.45-7.67-20.41-11-7-3.34-14.28-6.02-21.45-9zM89.5 273.37c15.55 4.52 30.42 10.56 43.2 20.98-13.77-8.31-27.84-16.03-43.2-20.98zM120.68 297.85L97.9 287.3c.1-.19.18-.38.27-.6 8.08 2.47 15.58 6.23 22.95 10.29l-.44.86zM128.03 273.42c6.39 2.8 12.85 5.51 17.88 10.62l-17.88-10.62zM133.4 268.9c6.52 3.48 13.19 6.74 18.28 12.29-6.08-4.1-12.18-8.2-18.28-12.28zM206.3 225.26l9.71 3.43-.22.68c-3.2-1.19-6.38-2.36-9.58-3.56-.03-.01.02-.2.08-.55zM78 148.3c3.12-3.89 7.28-5.57 12.22-5.52-4.15 1.68-9.06 1.72-12.23 5.53zM242.62 254.14c1-3 2.84-4.83 6.23-4.8.36 0 .86-1.07 1.02-1.7.2-.77.07-1.61.09-2.63 2.06 1.36 2.06 2.67.4 4.13-1.36 1.2-2.53 2.67-4 3.67-1.08.73-2.54.88-3.82 1.28.02 0 .08.05.08.05zM251.54 251.04l2.9-6.37c.3 1.34 1.03 2.6.7 3.49-.63 1.65-1.99 2.87-3.6 2.88zM259.72 234.25c1.9 2.19.8 4.24-.13 6.16-.37.78-1.36 1.27-2.43 1.58 1.52-2.45 3.55-4.53 2.56-7.74zM257.13 238.47c-.15 2.64-3.5 2.1-4.25 4.14l-.52-.5c1.34-1.42 2.7-2.83 4.05-4.24l.72.6zM39.96 234.14c3.34-1 6.67-2.01 10.01-3.04l.1.31c-3.34 1-6.69 1.98-10.03 2.97a1.42 1.42 0 01-.08-.24zM163.14 168.64l3.65-3.72c.86 1.33 1.4 3.23 2.42 3.56 2.7.86 1.36 2.06.58 3.26 2.04 1.16 3.93 1.25 5.4-.52.57-.68.59-1.82.91-2.73.23-.65.55-1.25.83-1.88.63.49 1.54.84 1.83 1.48 1.02 2.22-1.85 6.03-4.31 5.76-1.6-.18-3.15-.8-4.74-.88-.88-.05-1.84.53-2.7.97-2.9 1.46-5.2.54-5.32-2.74 1.37.76 2.47 1.4 4 2.26.68-.88 1.54-2.02 2.77-3.6-2.2-.23-3.67-.38-5.11-.5l-.21-.72zM201.78 164.65c-.5 1.46-.58 2.98-1.3 3.45-.93.59-2.41.28-4.08.38l5.38-3.83zM16.4 187.77l-2.17 8.38c-.21-.04-.42-.1-.63-.16.71-2.79 1.4-5.6 2.12-8.39l.68.17zM145.75 178.05c1.6-1.82 3.16-.4 4.68-.13-.27.78-.48 1.57-.84 2.3-.81 1.72-2.22 2.37-4.27 2.57 1.09-1.48 1.89-2.53 2.66-3.59l-2.23-1.15zM115.94 159.9c.97-4.4 1.93-8.82 2.95-13.23.1-.4.65-.71 1-1.07-1.3 4.77-2.64 9.54-3.95 14.3z"/></g><defs><clipPath id="clip0"><path fill="#fff" d="M0 0h400v369.81H0z"/></clipPath></defs></svg>