<svg width="629" height="825" fill="none" xmlns="http://www.w3.org/2000/svg"><g clip-path="url(#clip0)" fill="#fff"><path d="M539.72 443.83c-.74-.18-2.09-.26-2.14-.56-.6-3.5-1.01-7-2.44-10.5-3.46 4.26 1.55 8.69-.15 13.77-7.73 1.13-15.96 2.03-24.07 3.58-16.45 3.13-32.99 4.63-49.7 3.4-5-.37-9.9-2.06-14.9-2.42-8.24-.6-16.52-.46-24.76-.93-14.67-.83-26.57 7.61-39.73 10.36 9.51 4.21 18.49 8.65 27.8 12.17 6.55 2.48 13.74 3.23 20.34 5.63 7.6 2.77 14.82 6.56 22.27 9.8 2.43 1.04 5.06 2.54 7.52 2.4 5.76-.37 9.7 2.58 13.87 5.7 1.58 1.19 4 1.15 5.85 2.06 6.1 2.96 12.23 5.92 18.13 9.27 2 1.13 3.35 3.42 5.05 5.14a20.4 20.4 0 002.3 2.07c3.5 2.63 6.9 5.44 10.56 7.78 7.21 4.62 9.41 12.04 11.48 19.57.37 1.34.87 3.2.27 4.17-5.4 8.65-2.24 18.72-4.9 27.77-1.04 3.5-2.83 6.8-4.28 10.18l-.58-4.29c-.77-.46-1.56-.9-2.34-1.36l-1.21 4.82-1.25-1.13c.82-1.3 1.41-2.88 2.51-3.86 5.04-4.54 5.7-13.1 1.15-17.82-.53-.56-1.54-.67-2.33-1-.25.89-.83 1.82-.7 2.63.66 3.92 1.5 7.8 2.3 11.76l-3.2-2.1v5.8c-1.57.17-2.81.31-4.2.48 2.82 6.69 2.48 7.54-2.33 7.72-.46 1.95-.92 3.8-1.72 7.08l14.1-8.94c-7.82 7.52-12.24 18.79-24.42 21.5-2.48.56-4.62 2.7-8.03 4.8 6.64 1.68 12.26 2.8 17.65 4.57 9.24 3.04 18.36 6.44 27.5 9.77 7.57 2.75 12.1 8.86 14.87 15.74 4.72 11.67 7.06 23.96 4.86 36.68-.84 4.87.01 8.98 2.93 13.22 7.43 10.8 13.09 22.49 15.25 35.69-4.3-9.45-8.37-18.87-12.82-28.1-5.4-11.2-12.44-21.24-21.78-29.57-11.02-9.83-21.9-19.84-33.1-29.46-4.52-3.88-10.06-5.4-16.25-4.6-2.33.3-4.86-.95-7.3-1.44-2.65-.52-5.31-.99-7.96-1.48-.1.5-.23 1.02-.34 1.52 1.18.53 2.34 1.08 4.58 2.09-9.93 9.78-20.14 16.28-32.26 13.35 3.74-.85 9.6-1.46 14.82-3.61 5.32-2.18 10-5.88 14.96-8.9l-.9-1.75-7.04 2.6c-.47-.81-.84-2.27-1.4-2.35-6.38-.9-12.78-1.61-19.19-2.3-1.49-.16-3-.02-4.5-.02l-.16 1.78 25.43 2.71c-2.7 1.74-5.39 3.48-8.09 5.2-7.55 4.8-16.24 3.86-24.84 5.57 2.06.68 4.12 1.38 6.98 2.34l-4.56 3.15-.92 2.18c-2.2-.6-4.43-1.06-6.55-1.84-2.94-1.08-5.2-1-6.16 2.54l.03.08c-.96-.71-1.95-2.1-2.86-2.05-7.8.45-15.7 2.73-23.24-1.98 8.2-.38 16.57.9 24.57-1.13l-.08-1.55H391.4l-.1-1.14c1.09-.33 2.19-.65 3.28-.96v-1.8l-14.27-.65-.36 1 3.15 1.93-.07 1.05H362.9l3.62-1.17-.05-.84h-16.9l-.01-.74 9.82-.55-.01-1.57h-18.73l-.05-1.1c1.5-.19 3.02-.37 5.87-.7l-9.96-3.96 13.81 1.18.22-1.95-26.48-4.55-.14 1.03 12.78 4.47c-6.43-1.03-12.84-2.16-19.3-3.01-1.28-.17-2.77.6-4.09 1.16-8.5 3.6-17.01 6.55-26.58 6.52-4.42-.02-8.84 2.78-13.29 4.23-5.45 1.75-10.92 3.42-16.35 5.12 7.9-3.38 15.6-7.21 23.67-9.98 9-3.08 18.36-5.16 27.54-7.74 1.98-.56 3.87-1.43 5.8-2.16l-.4-1.02c-4.36.87-8.73 1.76-13.07 2.64l2.45-1.08-.91-1.19-20.82-3.06-.08.86 19.5 4.43c-8.96-.92-17.9-1.85-26.86-2.76l.06-.59 4.73-1.09c-4.75-1.87-13.4.06-16.71 2.76-1.85 1.51-4.2 2.53-6.47 3.4a171.72 171.72 0 01-13.2 4.43c-2.44.71-5.06.85-7.6 1.25l.02-.53c2.9-1.23 5.78-2.47 8.67-3.71l-.56-1.32c-6.77 1.26-9.78-4-13.8-7.5 13.56 6.7 14.84 7.07 18.43 4.88-1.92-.7-3.83-1.4-5.75-2.08l.17-.58 15.14 2.34.28-1.78c-1.12-.27-2.22-.68-3.34-.76-9.71-.72-19.14-2.58-27-8.7-6.43-5.01-13.6-6.26-21.31-5.5-2.93.29-5.8 1.27-8.67 2.07-2.09.58-4.11 1.39-6.17 2.09l-.38-.92 5.95-4.88c-2.77-1.04-5.23-1.59-7.27-2.83-2.8-1.71-5-1.77-6.96 1.02l.18-.09c-4.5-1.92-9.21-3.5-13.47-5.88-4.14-2.31-7.82-5.46-10.89-7.66l5.04.5.2-1.54-41.37-7.27-.16.87h22.04c-14.83-1.94-29.67-5.06-44.58-.64-3.1.93-6.09 3.27-9.11 3.26-7.97-.02-13.56 4.23-19.2 8.88-3.9 3.22-8 6.21-12.04 9.27-3.26 2.47-7.34 4.08-10.43 1.2-2.45-2.3-3.78-6.25-4.54-9.7-.48-2.2.41-5.23 1.71-7.21 4.54-6.88 9.56-13.44 14.34-20.14 2.81-3.95 5.53-7.96 8.28-11.94l-1.16-.8-7.28 6.62.1.11c.3-1.17.28-2.58.94-3.48 3.76-5.1 2.33-10.09.1-15.8-1.25 1.12-2.86 1.9-2.85 2.64.22 8.77-6.15 13.45-11.27 18.99-11.07 12-12.54 28.09-4.04 42.08 1.09 1.8 1.9 3.76 2.84 5.64l.07-.1c-2.71-2.9-6.64-5.36-7.92-8.8-3.96-10.67-3.38-21.77-.22-32.6.82-2.8 3.13-5.26 5.05-7.62 6-7.41 11.3-15.06 9.88-25.37-3.32-2.4-7.48-4.84-10.92-8.05-2.72-2.55-4.37-6.21-6.86-9.05-1.21-1.38-3.24-2.05-4.93-3-1.05-.6-2.43-.88-3.19-1.72-2.8-3.16-5-7-8.17-9.67-7.18-6-7.25-14.11-7.65-22.25-.17-3.5-1.66-7.7-.25-10.38 5.13-9.7 4.96-20.78 9.03-30.77 5.1-12.5 14.93-19.09 26.77-22.64 8.32-2.5 17.33-2.7 26.82-4.04a806.8 806.8 0 00-3.15-3.5c1.3.6 2.71 1.02 3.88 1.8 29.42 19.86 59.01 39.46 88.13 59.74 16.33 11.38 31.86 23.91 47.77 35.9 1.48 1.1 3.13 2 4.86 3.12 1.98-6.4 1.9-7.11-2.14-10-24.08-17.27-48.21-34.49-72.31-51.73-1.12-.79-2.14-1.71-3.2-2.58.35-.45.7-.91 1.03-1.37 2.93 1.54 6.14 2.7 8.77 4.65 22.02 16.2 43.92 32.58 65.94 48.8 1.55 1.13 3.96 2.32 5.56 1.9 7.18-1.83 14.22-4.2 21.29-6.43 6.54-2.07 13.04-4.23 19.56-6.34-1.51.82-2.96 1.83-4.55 2.43-10.47 3.93-21.04 7.62-31.43 11.74-2.14.85-3.69 3.2-5.51 4.86l1.07 1.84c2.05 0 4.32.6 6.1-.09 14.46-5.61 30.32-8.08 42.6-18.66l1.9-1.99.69 3.53 1.5.84 5.05-6.5-.16-.06.18 3.96 7.47-4.96c1.68 1.43 1.68 1.43 4-1.9 21.95 10.72 45.94 15.12 69.12 21.93 17.62 5.17 35.75 2.98 53.67.68 3-.4 6.1-1.36 8.72-2.83 1.4-.78 1.87-3.21 2.75-4.9l2.92 1.45c.4-1.03 1.34-2.22 1.1-3.07a46.33 46.33 0 00-3.15-7.8c-.52-1.05-1.77-1.74-2.69-2.6l-2.57 3.3c-1.31-.05-2.67-.35-3.94-.11-5.81 1.07-11.57 3.18-17.4 3.32-20.72.51-41.17-2.55-61.2-7.38-16.45-3.97-32.52-9.53-48.76-14.4.2-.63.38-1.27.57-1.9.8.22 1.65.35 2.41.66 32.49 12.89 66.06 20.64 101.13 20.14 8.7-.12 17.4-2.55 26-4.37 1.41-.3 3.65-3.71 3.27-4.36-1.97-3.31-4.11-7.07-7.24-9.03-6.22-3.91-13.14-6.68-19.7-10.06-9.61-4.95-19.17-10.04-28.74-15.06l28.88-9.75-.11-1.62c-14.92-4.61-29.45-11.48-45.94-6.98l1.86-4.1-5.61-.15-.81-1.87-3.04 1.74c-.27.23-.4.53-.4.88-.68.95-1.38 1.9-2.07 2.84l.01-.18-3.2 3.63c-1.84-5.12-5.5-5.85-12.76-3.16a8.32 8.32 0 00-11.8-2.18c-.31-.93-.59-1.86-.41-1.28l-14.76-2.63 4.55-4.02c-2.39.22-3.91-.08-4.3.46-2.8 3.87-6.13 1.82-9.21.88-.94-.3-1.33-2.64-2.2-2.8-6.32-1.24-12.7-2.17-19.07-3.18-.1.4-.2.8-.32 1.2l7.73 2.54c-2.06.2-4.03-.16-6-.14-10.25.07-20.5.27-30.75.35a77.2 77.2 0 01-9.08-.41c-2.4-.26-4.73-.95-7.09-1.45l7.44-1.43h-17.8l.07 1.81 10.45-.49c-4.2 2.94-8.67 1.5-13.1.8l.11.13c-2.58-.32-5.16-.75-7.75-.93-3.5-.23-7.72 2.4-9.97-2.59 5.88.3 11.73.59 17.59.9l-.04-2.37-17.44 1.6c-3.34 0-6.67.02-10 .03l11.52-2.63a9.62 9.62 0 00-5.1-1.59c-6.98-.36-13.98-.72-20.96-.89-1.4-.03-2.81.8-4.21 1.23-3.34-1.66-8.26-.34-9.9-5.22 9.3 5.24 19.18 2.65 28.81 3.37l.13-1.68c-9.65-.57-19.28-1.12-28.92-1.7-3.22-.97-6.44-2.03-9.7-2.92-3.74-1.03-7.5-2.02-11.3-2.74-.4-.08-1.19 1.82-1.79 2.81l.04-.09c-5.3-2.38-10.53-4.94-15.9-7.08-7.92-3.15-15.95-6-23.92-8.99l7.9.24c4.85 5.32 11.65 4.82 17.9 5.94.06.02.34-1.17.51-1.8 1.42 1.1 2.7 2.86 4.26 3.18 8.61 1.75 17.28 3.19 25.94 4.66 16.32 2.78 32.52.34 48.68-1.56 8.92-1.05 8.87-1.42 6.56-11.07-6.5.85-13.07 1.9-19.68 2.5-6.8.61-13.65.83-20.5 1.15-5.42.25-10.86.4-16.3.6 0-.53-.03-1.07-.04-1.6 34.94 2.58 67.8-6.6 100.72-16.43-12.25 4.04-24.5 8.06-37.18 12.25l1.54 9.05c2.06-.44 3.48-.63 4.84-1.05 14.3-4.54 28.56-9.12 42.84-13.69l-12.51 7.25c16.28 3.05 32.42 5.52 48.64 6.48 25.2 1.49 50.65 1.44 74.96-5.87 20.57-6.18 40.6-14.44 60.25-23.15 9.93-4.4 18.88-11.37 27.6-18.06 8.13-6.24 13.22-15.03 16.75-25.23-1.07-.08-1.74-.2-2.4-.16-8.18.4-16.37 1.26-24.56 1.13-8.78-.13-17.55-1.28-26.33-1.81-3.89-.23-7.79-.04-11.68-.04v-.86l10.7-.5-.05-.69L357.3 313c.34.24 1.28.85 2.21 1.47l-.28.63-35.1-9.28-.38 1.47 11.15 3.73-.25 1.02-28.13-3.88-.18 1.04 23.11 4.24-.11.76-23.02-3.17-.27 1.33c6.19 1.8 12.31 3.8 18.56 5.36 7.65 1.9 15.9 1.94 22.21 7.7-6.23-1.25-12.44-2.52-18.67-3.78 5.2 2.32 10.29 4.35 15.47 6.14 1.39.48 3.03.23 4.56.31l38.94 9.36c-.05.23-.1.46-.13.7l-15.51-2.28c-.1.53-.18 1.07-.27 1.6 5.62 1.08 11.21 2.21 16.84 3.24 7.9 1.43 13.69 5.23 16.18 13.35 1.32 4.3.26 7.48-3.7 9.1-4.47 1.83-9.13 3.63-13.88 4.36-12.41 1.9-24.2 5.58-35.92 10.02-10.31 3.9-21.12 6.44-32.26 1.58-4.25-1.86-9.18-3.55-13.63-3.18-7.53.63-11.86-3.98-17.02-7.64-1.49-1.06-3.33-1.6-5.02-2.38V358l1.55 2.72.9-.3c-.2-2.14-.38-4.3-.57-6.45l-1.35-.29-3.85 6.04-.33-.76-3.53 2.89c2.3-3.2 4.7-6.33 6.9-9.59 5.93-8.67 10.54-17.7 7.13-28.71.98 2.92 2.05 5.81 2.87 8.78.3 1.1-.27 2.44-.03 3.57.17.8 1.67 1.83 1.5 2.11-2.2 3.7-1.02 6.87 1.67 11.2l-.38-6.72c2.7 2.84 4.58 4.73 6.35 6.72 8 8.94 15.97 17.9 23.97 26.87-1.62-.94-3.4-1.75-4.9-2.9-3.26-2.48-6.39-5.15-9.58-7.74l-9.06-8.12-1.23 1.37 15.56 14.05c.04.57 0-.1-.03-.78 8.23 7.31 9.34 7.7 16.6 6.03l-7.6-1.97 5.58.38c-2.48-2.8-4-4.51-5.5-6.23-4.92-5.65-9.81-11.32-14.7-16.98 2 .8 4.02 1.58 6.03 2.37 5.69 6.7 11.24 13.52 17.16 19.98.96 1.04 3.63.51 5.5.7l.38-1.37-21.68-23.02-1.51 3.88c-1.15-3.93-1.12-8.49-6.48-11.43l.73 9-11.36-10.7c3.76-.97 6.02-1.56 8.43-2.2l-.25-4.64c8.21-2.98 8.71-2.83 13.53 4.47.29.44.47.98.69 1.47-2.07-1.55-4.1-3.15-6.23-4.6-.75-.5-1.77-.62-2.67-.9.01 1-.38 2.3.1 3 3.28 4.9 6.52 9.91 10.3 14.45 1.63 1.96 4.48 2.9 7.7 4.85-2.76-5.92-4.86-10.39-6.96-14.86l25.84 26.18c3.78 3.83 3.78 3.82 8.59-.37-8.84-6.68-12.74-18.57-24.56-21.85-4.35-1.21-4.65-2.94-1.31-5.57-1.5-2.1-2.86-3.97-4.22-5.85l8.48.93.47-2.08-4.35-2.24c-1.25-.63-2.53-1.22-3.78-1.81l-.63 5.4c-4.07-5.53-9.35-7.16-15.8-4.86l8.63-4.94a39.28 39.28 0 00-11.98-3.83c-.92-.16-2.77.4-2.87.9-.78 3.91-2.96 1.43-4.05.72-1.5-1-2.32-3.2-3.88-3.96-3.4-1.65-6.9-4.6-10.92-1.14-10.5-3.85-21.03-7.68-31.52-11.58-1.9-.7-3.7-1.67-5.56-2.52l-.1.1 33.3 8.61 1.1-.88-3.82-1.11c.26-.25.54-.49.8-.75l2.75-.48-6.28-3.55 4-5.4c5.24 1.3 11.9 2.93 18.54 4.56l.17-.85-11.46-5.74c.1-.29.18-.6.28-.88h7.43l-4.37-2.2.55-1.97c16.96 11.75 36.64 10.09 55.57 12.94-1.34-1.94-3.1-2.9-4.71-4.08-4.58-3.3-11.66-3.52-12.62-11.4-.24-2.02-4.02-3.74-6.35-5.33-2.02-1.4-4.33-2.35-6.46-3.6-4.27-2.52-8.74-3.87-13.78-2.64 1.44.6 2.87 1.2 4.3 1.82-8.92-1.52-15.62 1.98-20.69 9.28l5.03-3.03c-1.66 2.55-3.87 4.26-6.22 5.75-1.61 1.02-3.43 1.75-5.15 2.6l-1.42-5.41c-.76.54-1.43 1.18-2.22 1.57-5.52 2.69-10.22 9.9-17.57 3.28-.41-.37-1.92.76-2.76.55-1.96-.51-4.12-1.06-5.6-2.31-.6-.52.12-2.95.6-4.38 1.1-3.3 2.42-6.5 3.46-9.22l-5.17-2.48-8.41-7.61-1-.86.3-1.3c2.48.7 4.97 1.38 7.45 2.07 1.77 1.71 3.37 3.7 5.4 5 .8.52 2.6-.53 3.93-.87l-2.25-1.98-10.02-10.95c-1.23-4.68 1.58-5.95 4.25-6.22 0-2.16-.55-4.26.09-5.89 4.62-11.56-.23-21.8-4.26-32.15-.37-.96-1.28-1.73-2.03-2.5-12.3-12.64-27.69-20.34-43.9-26.1-34.09-12.1-69.3-14.06-105-9.72-.88.1-1.7.56-2.55.86-2.5-.55-5.23-2.02-7.48-1.5-10.4 2.44-20.7 5.44-31.02 8.23l25.8-12.23c-15.41-16.22-26.06-34.72-20.83-59.3l.7 6c2.53-1.1 4.79-2.1 7.13-3.14l-3.76 9.34 1.24 1.06 10.76-5.19c-4.32 4.12-7.52 7.18-10.74 10.23l.9 1.18c2.9-1.89 5.76-3.88 8.75-5.63 13.9-8.18 28.12-15.45 44.55-17.03 8.71-.84 17.4-2.05 26.13-2.84 7.85-.71 15.74-1.56 23.6-1.42 5.34.09 10.61 2.29 15.98 2.66 10.99.76 22.01.96 33.02 1.3 1.35.04 2.77-.4 4.04-.91 3.71-1.52 6.84-1.34 9.6 2.06a8.3 8.3 0 004.4 2.75c9.31 2.01 18.67 3.74 28.02 5.64 1.15.23 2.22.97 3.03 2.66-23.78-3.7-47.54-7.39-71.32-11.07v-.5l7.04 2.8c-12.91 1.02-25.17-5.59-38.1-1.56h14.68l.02 1.87h-41.22l.02 1.93c20.58 0 41.27-1.22 61.74.34 20.88 1.6 41.64 5.39 62.27 9.2 20.63 3.83 41.04 8.88 61.54 13.4l-.47 2.37-16.98-3.92c-.14.55-.28 1.1-.41 1.68 9.67 2.5 19.35 5.03 29.03 7.54.33.09.78-.22 1.07-.08 9.92 4.4 19.75 9.03 29.77 13.2 5.4 2.25 11.1 3.71 16.67 5.54 1.5.49 3.13.77 4.5 1.5 27.83 14.8 55.36 30.16 83.5 44.3 25.24 12.67 44 32.6 62.8 52.69 5.1 5.46 9.54 11.54 14.32 17.4l-1.98-6.01.63-.3 6.36 13.02c.56-.28 1.11-.57 1.68-.84-3.68-7.48-7.35-14.95-11.04-22.41l1.02-.6c4.42 8.35 8.85 16.68 13.28 25.02l1.06-.4-3.71-12.43c.18-.08.34-.18.52-.27l4.37 10.33c7.89-12.39 10.41-30.46 7.13-39.75.26-1.23 1.14-2.82.67-3.65-3.7-6.5-3.9-13.54-3.68-20.72.05-1.75-.43-3.53-.66-5.3l-.13.14c1.13 1.06 3.03 1.96 3.27 3.2 2.86 15.13 5.65 30.23 3.62 45.83-2.79 21.52-15.18 35.54-34.02 44.48-17.28 8.21-36.02 10.75-54.78 13-1.24.14-2.48.24-4.27.42-.45 4.2-1.2 8.3-1.14 12.37.03 1.32 1.94 3.16 3.4 3.8 14.62 6.33 29.44 12.2 43.97 18.74 16.18 7.27 32.17 14.99 48.16 22.72 16.8 8.13 33.42 16.66 50.29 24.64 4.82 2.28 7.07 4.93 5.18 10.16h-56.7c-2.12 8.45-7.86 14.26-15.69 18.26l.08.1 8.18-10.13-3.96-6.14c-2.2 1.52-4.1 3.04-6.2 4.19-4.84 2.66-9.81 5.12-14.68 7.74-.45.24-.83 1.22-.73 1.77.64 3.41 1.42 6.8 2.15 10.2l-.08-.22zM138.38 164.36l-4.01-2.91-7.78 3.06c2.7 2.05 4.73 4.74 6.75 4.74 1.62 0 3.25-3.25 4.87-5.06h9.5c-1.4-5.63-4.52-2.97-7.05-2.85-.9.04-1.83-.55-2.75-.84l.47 3.86zm66.21 244.8l.59 4.34 3.08-1.1 5.6 3.26 1.9-5.09v4.94l1.03.01 3.5-8.67-1.83 9.31c6.54.94 12.71 1.56 18.75 2.8 3.4.69 5.1-.28 5.92-3.43-1.74 6.86 3.47 3.1 5.99 4.36l.61-4.75.66 5.1c2.78-.37 5.14-.67 7.48-1.03 2.3-.34 4.65-1.24 6.85-.95 1.84.23 3.4 2.39 5.25 2.72 4.44.79 8.99 1.48 13.48 1.38 15.7-.37 31.43-.59 47.08-1.84 12.96-1.03 25.83-3.28 38.7-5.32 2.98-.48 5.75-2.34 8.6-3.56.25.11 1.52 1.25 2.56 1.07 5.67-1.07 11.27-2.46 16.9-3.74-5.28 2.72-10.12 5.84-16.68 5.95-6.07.1-12.11 2.57-19.52 4.31 2.95 1.23 4.52 2.12 6.2 2.54 14.65 3.75 29.28 7.73 44.05 10.98 6.8 1.5 13.92 1.72 20.92 2.19 13.47.9 27.11-1.63 40.42 2.81 3.02 1 6.82.16 10.16-.4 11.2-1.85 22.34-4.06 33.54-5.92 6.65-1.1 13.53-1.17 20-2.88 4.72-1.24 9-4.24 13.33-6.74 2.74-1.56 5.04-3.89 7.8-5.41 9.03-5 10.55-13.74 3.47-21.07-1.62-1.68-3.34-3.24-5.02-4.87 7 2.7 10.96 8.18 12.9 15.05.88 3.11 2.2 3.87 5.26 3.83 13.06-.21 26.12-.14 39.16-.23.98 0 1.96-.55 4-1.18-3.1-1.45-5.02-2.32-6.91-3.24-23.91-11.7-47.9-23.25-71.68-35.22-6.12-3.09-11.95-2.17-17.8-1.64l29.49 18.7c-1.5-.6-3.06-1.08-4.46-1.86-10.37-5.72-20.71-11.5-31.13-17.3l13.28-1.35c-4.65-2.41-9.39-3.4-13.7-5.34a502.49 502.49 0 01-27.85-13.55c-5.23-2.74-9.26-1.3-13.24 2.14l2.9-22.91-1.9-.37c-.72 1.37-1.37 2.77-2.16 4.1-4.62 7.7-8.19 16.38-14.15 22.87-11.44 12.47-26.75 19.49-42.27 25.8-2.94 1.18-5.28 3.82-7.54 5.5l-.74-2.42c-4.52 5.18-13.04 3.02-15.17 10.77l-.69-3.05c-17.44 6.8-35.44 9.48-53.3 12.85-18.75 3.54-37.63 3.69-56.98 2.83l-1.04 10.5c-.4-2.32-.16-4.68-.5-6.94-.2-1.43-1.28-2.75-1.97-4.11-.81 1.37-1.97 2.64-2.35 4.12-.69 2.7-.9 5.5-1.32 8.27l-.64-.1 1-12.5-2.4-.23-2.6 14.1-.67-.1 1.2-14.23-1.77-.22-2.57 8.96.63-8.57c-2.85-.28-5.54.19-7.3-.88-3.64-2.2-12.23-2.14-15.05.84 1.95-6.6-3.4-2.42-5.14-4.23l-3.1 11.64-.47-.1 2.08-11.42-1.48-1.14-1.6 2.4-.26-1.22-5.3-.65-1.73 4.78-.35-.11.6-4.97-1.6-.92-4.83 6.36-.51-5.25c-1.43 2.63-2.12 3.91-2.8 5.2l-.62-4.15c-2.85 2.13-4.91 3.65-6.96 5.17-1.23-.16-3.05-.9-3.57-.37-1 1.02-1.28 2.75-1.86 4.2l-.3-4.34-1.23-.26c-.77 1.42-1.52 2.85-2.22 4.16l-.44-2.43c-2.9.38-5.65.67-8.36 1.15-.65.1-1.18.86-1.76 1.32.65.69 1.18 1.82 1.94 1.99 3.54.77 7.15 1.28 10.85 1.9a326.3 326.3 0 001.68-3.7zm68.3-243.25c-1.25-.68-2.96-2.26-3.7-1.9-3.93 1.99-7.64 4.46-11.42 6.75 2.33 1.29 4.84 2.06 6.23 1.13 2.98-1.99 8.7-.23 8.88-6.17l12.76-3.71c-7.54-4.53-10.75-3.13-12.74 3.9zm37.37 354.33c1.44.57 3.1.86 4.3 1.76 5.03 3.8 10.3 2.83 15.93.99-1.24-1.6-2.66-2.85-4.26-3.14-3.2-.58-6.49-.86-9.74-.81-2.03.03-4.06.88-6.09 1.34l-17.28-1.17c4.62 4.86 10.57 3 15.82 3.92.27.03.87-1.88 1.31-2.9zm-186.17-41.47l-2.99 4.6c5.05-.19 5.05-.19 10.2 6.57-.7 1-2.12 2.75-2 2.88 2 1.95 4.1 3.83 6.4 5.4 1.87 1.28 4.48 1.7 6 3.25 5.06 5.11 9.1 6.6 14.72 4.71l-21.22-13.54c5.44.9 4.52-1.98 3.07-5.18l2.78-1.32a485.6 485.6 0 00-1.83-2.52l11.29 1.46.3-1.35c-3.02-.7-6.09-1.2-9.01-2.15-1.54-.5-2.94-1.63-4.15-2.75-.52-.47-.14-2.12-.63-2.39-8.07-4.38-16.19-8.68-24.36-12.85-1.5-.77-3.36-.86-5.05-1.26l-.33 1.27 4.37 2.38-.78 1.59-23.77-11.78c-2 2.61-.78 4.67 2.62 6.75a47.2 47.2 0 018.13 6.6c.64.64.1 2.49.1 3.88l4.56 2.68c2.12-2.01 3.62-4.64 5.59-5.06 3.96-.84 8.12 1.2 11.91 1.91 5.94 1.11 11.11 6.25 16.62 9.69l-13.47-6.14c.45 1.37.69 2.01.93 2.67zm393.66 154.2l9.7 1.04c-4.13-5.13-33.6-8.06-37.92-5.55l28.38 4.68h-16.27l-.13.9 16.96 1.95-.72-3.02zm-36.82-52.15l-5.7-11-1.92 1.69c1.34-2.38 2.7-4.75 4.05-7.13 1.9-7.43 1.83-7.52-6.53-8.43v9.6c-5.22-1.26-4.82-5.04 2.35-13.3 3.4 1.39 8.46-.08 9.41 5.5l2.82-1.71c-.2 1.96.34 4.64-.74 5.76-4.65 4.87-3.6 10.7-2.83 16.14.56 4.03 4.07 4.46 6.91 1.28 2.27-2.54 6.7-3.5 6.11-8.17h2.52l-2.36-2.04 5.35-5.43 5.37 4.45 1.19-.55-2.67-6.63 2.47-.22c-.9-1.48-2.67-3.16-2.34-4.02 2.74-7.1-2.1-5-5.44-4.66-1.57.16-3.1.63-4.65.96l1.18.84-6.96 12.74c-2.2-6.64 2.14-10.73 3.52-16.36-2.59 2.16-8.48-3.84-7.41 4.39-9.22-9.61-18.26-3.54-22.99 3.54-5.33-9.5-9.99-11.6-19.06-6.15-1.71-4.88-5.88-6.5-9.44-3.67-2.33-5.2-7.08-2.49-10.72-3.13-3.62-.65-7.35-.63-11.62-.94l-1.9 4.73c-2.98-1.1-7.64-9.61-8.34 1.48-7.62-2.85-10.19 4.18-15.15 9.02.53-6.26-2.28-6.03-4.96-5.34l.74 4.14-3.08-.66c.13 9.02 2.59 18.92-9.31 23.59.92-1.62 1.39-3.48 2.57-4.3 3.42-2.38 3.57-4.33 1.05-7.82-1.34-1.87-.46-5.36-.6-8.51 1.9 1.06 3.04 1.68 4.17 2.3.4-.33.82-.65 1.22-.99l-2.94-4.68 3.4-1.8-.63-1.82c-2.33.35-4.64.88-6.97 1-3.47.2-3.55 2.8-4.27 5.2-.63 2.06-1.63 4-2.76 6.67.24-4.51-.24-8.07.76-11.15 1.2-3.72-.47-4.72-3.26-5.19-2.55-.42-5.18-.38-7.76-.56l-11.14 2.42-1.81 1.65c-.35-1.05-1.2-2.25-.95-3.12 1.3-4.25-.57-5.87-4.16-6.32l1.06 4.77c-1.54-.47-3.11-.84-4.6-1.44-2.5-1-4.92-2.16-7.38-3.26l-.09.98c2.7 3.46 5.4 6.9 8.31 10.65l-7.3-2.23-.9-3.9c-4.47 1.12-7.93 1.99-10.86 2.71.25 2.76.49 5.18.7 7.62-1.46-1.63-2.1-4.84-2.6-4.82-7.24.3-.75-4.45-3.25-7-1.43 1.88-3.24 3.46-3.9 5.44-.53 1.53.38 3.55.66 5.37-.61.2-1.23.4-1.84.62l-5.79-8.2-3.77 6.4-1.21-.68c1.3-2.58 2.63-5.15 3.87-7.75.59-1.24 1.7-3.46 1.41-3.68-1.35-1.01-3.2-2.18-4.72-2.02-2.78.3-5.6 2.52-8.16 2.15-6.25-.9-6.31 3.51-7.41 7.2-5.15 2.11-12.33-1.46-15.05 5.45l-6.93-5.37.54-3.97-1.1.65-4.82-7.55c.2-.26.42-.5.63-.76 2.46 2.35 4.93 4.7 7.3 6.98.68-.46 1.19-.63 1.22-.86.38-2.5 1.8-5.68.77-7.35-2.6-4.18-11.06-7.13-13.6-5.67-1.7.96-3.37 1.94-4.9 2.82l-3.92-4.31-.9.53c.59 2.18 1.16 4.36 1.92 7.15 3.63-2.18 3.8-.31 3.25 2.25l-1.24-.85c-2.08 1.95-4.17 3.88-7.2 6.7 2.7-5.9.76-13.43-2.92-17.1-.95-.96-.5-3.31-.74-5.3-1.22 0-3.24-.17-5.23.04-2.62.27-5.58.23-7.7 1.5-1.09.65-.63 3.86-.9 6.08 9.17-.9 11.34.75 11.57 7.28-3.46-.36-7.02-.82-10.6-1.07-3.54-.23-7.15.13-10.59-.52-1.32-.24-2.25-2.52-3.38-3.88.57-.39 1.16-1.15 1.7-1.1 3.1.24 3.1.31 3.45-2.56-6.27-3.92-9.93.47-13.69 4.5 2.74 6.55 7.88 10.7 11.55 10.26l.52 8.13-3.14 5.2c1.53.56 3 1.34 4.58 1.65 2.25.44 4.55.54 6.58.76l2.42-6.21.59.28v9.28l7.43-1.05c1.13 3.57 1.71 7.43 3.53 10.57 1.9 3.3.76 4.98-1.3 7.33-1.32 1.5-1.65 3.86-2.43 5.84l-6.95-.91 5.38-7.5c-10.29 3.54-5.53 11.43-6.37 17.48-2.18-1.77-3.38-3.5-4.9-3.86-6.39-1.53-7.9-5.2-4.1-10.58.7-.98 1.44-2.15 1.55-3.28.44-4.4.64-8.8.94-13.34l-7.52-1.55c1.16 1.67 2.46 2.56 3.64 3.59.07.07-1.28 1.92-1.32 1.9-2-1.22-3.9-2.56-6.66-4.46-.83 1.88-2.2 3.8-2.4 5.84-.23 2.2.64 4.5.9 6.04-3.25.42-6.02.1-7.92 1.22-1.82 1.08-2.74 3.66-4.36 6.04 2.43-.2 4.39-.39 6.34-.56l.16 1.83c-2.06.16-4.56 1.13-6.08.31-6.05-3.27-11.79-7.1-17.12-10.4l5.33-7.66-4.7-5.97-1.72 1.72c-.44-.71-1.2-1.4-1.24-2.12-.04-.76.45-1.96 1.05-2.25 3.69-1.77 3.72-1.7 2.8-4.8l-4.9 1.06c-.09-.53-.18-1.06-.25-1.6l6.55-1.94c.18 3.47-.18 6.56.65 9.28.55 1.8 2.8 3.08 4.3 4.6 1.19-1.54 2.85-2.93 3.43-4.67.46-1.42-.4-3.26-.69-4.92l1.5-.59c1.1 2.21 2.18 4.43 3.85 7.77l5.2-6.45c1.07.8 2.29 1.73 3.31 2.48-2.52 3.1-5.06 5.88-.92 10.77 2.49-2.75 4.82-5.02 6.62-7.65.25-.37-2.15-2.55-3.8-4.43l5.24-9.05-2.98 1.53c-1.49-3.33-2.7-6.33-4.14-9.2-1.53-3.02-2.94-5.48 1.1-8.15 2.65-1.74 4.88-4.91 1.84-8l-8.92 5.77c1.37 4.4-.41 12.16-4.22 13.89-1.66.75-4.17-.36-7.31-.75 3.43-3.8 5.31-4.14 6.4.66.95-2.65 1.7-4.25 2.04-5.94.12-.61-.61-1.49-1.1-2.12-.94-1.22-2.56-2.24-2.8-3.54-.16-.92 1.32-2.38 2.36-3.23 3.5-2.84 7.16-5.5 10.71-8.3.25-.18.04-.95.04-2.26l-21.11 6.75 6.07-7.5-9.32 1.6 4.85 16.72-6.74-1.58 3.71 9.32-5.29-3.29 1.5 4.42c-.62.2-1.23.38-1.84.59-.52-1.75-.5-4.44-1.63-5.07-5.21-2.89-2.52-7.7-3.3-11.62-.11-.59.69-1.35 1.07-2.03.65.4 1.53.69 1.93 1.28.66 1 1 2.19 1.48 3.31 1.77-2.51 2.4-5.1 2.8-7.74a3.67 3.67 0 00-.73-2.4c-.36-.5-1.41-1.01-1.85-.82-3.87 1.73-5.02-1.53-6.9-3.55-.26-.27-.8-.27-1.92-.6l1.33 3.12-8.58-1.79V526l-3.12-.58c-1.7 8.12 3.9 12.78 8.48 18.33-5.05 1.18-8.18 3.08-4.81 8.2h-8.73l-.8 2.31 5.68 3.88c1.07-2.21 6.2-2.01 3.74-6.32l8.36 7.93c-4.04-2.68-4.1-2.57-5.65 1.44-.63 1.63-2.48 4.27-3.31 4.11-6.41-1.25-11.36 3.95-17.45 3.6-.15 0-.31.53-.54.94l3.53 2.56-.36 1.01-8.5-1.42c.34-2.03.64-3.53.57-3.55-5.25-1.34-5.06-6.55-7-10.19l-1.75.83c-2.61-3.8-4.82-6.99-7-10.2 3.2.78 5.19 2.29 7.38 3.41.7.36 1.93-.31 2.92-.51-.2-.98-.17-2.08-.64-2.9-1.13-2-2.48-3.85-3.44-5.3l4.88-1.18c-.86 4.98 1.43 10.97 5.15 12.28 1.13.4 2.7-.46 4.05-.74l-.24-1.13-4.63-2 1.01-1.8c2.8 1.7 5.6 3.37 8.48 5.1v-5.72l-12.33-3.9.63-3.82 3.16 1.38c.3-2.56.6-4.94.83-6.75l7.28 9.6 7.08-7.41c2.28 1.75 4.55 3.5 6.83 5.23l.63-1.15-6.74-9.38-.57 5.47c-1-2.28-3.01-6.48-2.86-6.55 5.38-2.82 3-7.17 2.69-9.52-3.38-2.13-5.77-3.9-8.41-5.18-1.16-.55-2.93-.36-4.23.07-1.23.41-2.21 1.6-3.4 2.51l-1.44-3.03-4.12 2.7c-2.82-4.53-5.89-9.45-8.96-14.41.47-.1 1.84-.34 3.12-.57.63-9.03-5.5-9.76-11.45-10.42-5.99 6.01-3.11 10.33 3.94 13.81l-1.56.97-7.76-1.91 1.05-1.04c-1.07-2.76-1.67-7.5-3.3-7.9-5.5-1.3-2.24-4.41-2.02-6.63-4.97-3.33-8.64-3.22-9.5.45-1.08 4.63-1.9 7.76-8.18 6.99-4.58-.57-5.87.03-8.81-4.98l7.15 4.64c.83-3.83 1.41-6.94 2.26-9.97.17-.62 1.34-.94 2.06-1.4.3.9.63 1.77 1.05 2.95 1.7-1.38 3.36-2.3 4.4-3.68 2.26-2.98 1.32-6.7-1.54-7.03-1.79-.2-3.6-.3-6.22-.53L72 485.49c-4.37-.9-8.53-1.48-12.49-2.73-1.24-.4-2.32-2.45-2.8-3.96-.76-2.4-.96-4.98-1.51-8.22-5.03 4.17-10.78 6.9-10.04 14.8-1.64-1.8-3.29-3.62-4.92-5.44-.47.2-.94.43-1.4.64l1.65 5.98c-4.18-.15-4.31.2-2.19 4.68-3.51 1.99-7 3.95-10.53 5.96l-1.41-2.3-1.18.44 1.47 5.93c2.57 0 4.92.68 6.48-.16 2.33-1.25 6.57.14 6.78-4.33.17-3.45.27-6.92.4-10.38l7.59 1.63v10.42l7.79-5.18 1.57 2.11c-2.03 1.68-4.73 3-5.9 5.15-1.17 2.16-.78 5.16-1.15 8.43 2.62 3.97 6.22 1.9 10.25.57l-2.84 3.76 4.57 1.95c-5.87 2.49-8.65 9.58-7.02 16.77l.18-.17-6.55.73c1.02.76 1.52 1.44 2.07 1.47 4.38.26 6.66 2.27 6.2 6.88-.06.58.25 1.62.63 1.74 6.64 2.26 8.9 11.78 17.71 10.63.97-.12 2.4 2.12 3.37 3.44 2.15 2.96 4.65 4.01 8.22 2.31-2.27-2.99-4.89-5.41-6.16-8.4-1.59-3.76-2.06-8-3.01-12.03a23.71 23.71 0 014.2 8.26c1.54 5.87 2.62 7.1 8.32 8.08-.31-1.44-1.33-3.98-.86-4.3 2.9-1.94 5.55-3.43.34-5.44l2.73-4.37c-5.68-.36-5.23-4.09-5.07-7.66-1.88-.48-3.75-.98-5.7-1.5 3.6-6.44 3.6-6.44-3.44-12.22 0 1 .13 1.61-.03 2.13-.23.65-.7 1.22-.85 1.49l-11.33-14.04 3.65-2.38 1.97 6.32c1.7-.9 3.38-1.88 5.16-2.53.24-.09 1.58 1.5 1.56 2.3-.04 2.63.9 3.86 2.96 5.92 5.59 5.58 13.24 10.58 11.55 20.6l5.77-.87.44-5.07c3.28 4.57-.42 5.66-3.36 7.18l3 5.63 7.8-5.31-3.71-2.64.12-1.35h5.54l-1.5-8.62h7.36c.78 2.2 1.6 4.52 2.6 7.42l-4.46-1.5 1.24 6.22c-1.75.83-3.5 1.43-4.96 2.43-2 1.36-4.38 2.72-5.4 4.7-.63 1.23.9 3.62 1.58 5.45a16.67 16.67 0 001.82 3.54c1.77 2.56 3.72 5 5.52 7.56 3.06 4.3.01 4.42-4.9 4.17 2.71 1.64 3.9 2.62 5.28 3.14 4.46 1.7 9.02 4.56 13.47 4.44 5.46-.15 9.89 6.27 15.76 2.07.38-.27 3.07 1.46 3.47 2.67 1.79 5.33 1.63 5.38 7.38 4.24-1.06-3.53-2.11-6.95-3.21-10.57l4.46-1.22c.83 5.13 3.14 4.3 5.85 1.75l.56 4.44-6.37 3.17c2.24 1.88 3.55 3.8 5.25 4.27 4.94 1.36 10.08 2 15.08 3.15 10.5 2.4 21.36 3.91 31.31 7.74 6.83 2.63 13.02 2.67 19.74 1.7l-1.48-10.62c1.53-1.21 3.04-2.44 4.46-3.57 4.2 2.5 5.32 6.2 2.5 10.07-3.35 4.6-3.37 6.15 1.94 8.1 2.57.95 5.48.92 8.13 1.7 4.5 1.33 8.9 2.96 13.36 4.46-.3-1.26-1.06-1.68-1.6-2.28-1-1.07-2.83-2.59-2.58-3.34.65-1.95 1.98-4.75 3.52-5.1 4.1-.96 6.25-2.64 4.88-7.9l6.25 3.95-3.11.65 2.13 7.6-9.4 3.59c9.91 6.33 18.53 7.53 25.87 4.02-1.98-2.64-8.08 1.16-8.12-5.68 4.52 4.77 7.11.72 9.41-1.68 1.73-1.81 2.3-4.72 3.35-7.1v-6.27l-.15.17h4.54v9.82l.8.46 2.2-4.42c2.25-.29 4.4-.57 6.55-.83l6.01.22 1 7.68-3.66-4.93c-4.6 3.81-3.4 8.4-2.17 12.14.74 2.28 12.55 1.87 15.24.07 1.93 6.36 7.57 7.55 12.5 2.51-4.64-1.7-11.58 1.17-12.52-6.88-2.27.54-3.93.95-5.64 1.37 2.78-9.18 6.1-.3 8.23-.36l2.83-7.76c-.78-.7-1.6-1.4-2.07-1.82l11.8-8.83 1.54 1.43-5.06 6.65c3.74 5.36-6.31 5.18-5.13 11.3l7.5 1.23c-.15 3.4 2.9 4.97 8.63 3.98l-4.36-4.04 10.8-3.53-.49-1.36-4.46.53 5.93-3.36c1.84 1.91 3.03 3.64 4.66 4.74 1.46.96 3.4 1.2 5.13 1.77-.87-1.48-1.5-3.21-2.67-4.39-1.9-1.91-3.56-2.1-.72-5.86 3.78-5 6.97-1.85 10.4-1.85 5.74 0 10.01 7.39 15.12 3.52l.66 8.44-5.12-.46c4.3 6.68 5.82 7.13 9.89 3.59l-4.93-3.26 6.65-.96v3.93l6.14-5.65 1.36 3.56c.77-.78 1.59-1.54 2.32-2.35 1.51-1.67 2.98-3.37 4.7-5.32l-2.75-.59c2.84-2.36 5.97-4.94 8.9-7.35-1.47-1.9-2.3-2.8-2.86-3.85-.1-.19 1.22-1.4 1.24-1.39 5.67 4.8 3.12-3.21 6.45-3.61l-2.9 7.77 3.1 3.9c-2.99 3.62-11.12-.12-9.93 7.52.19 1.2 4.63 1.74 7.2 2.62l-1.36-5.83 1.07-.49 2.81 2.3 4.54-9.03.61.35-.21 3.1c1.22-.46 3-.56 3.58-1.45 2.35-3.57 2.46-8.33 5.9-11.4.06-.05-.3-.57-.5-.99l-4.42 3.19V571.6h.71c.55 2.23 1.08 4.47 1.62 6.7.4-.1.8-.17 1.2-.26v-4.06l3.6-.88-1.35-3.6c1.74.52 3.2 1.4 3.47 2.57.77 3.42 2.27 5.78 5.18 8.11 3.5 2.82 1.83 7.59-2.48 9.25-.53.2-.9.8-1.57 1.43 1.66.23 3.33-.03 3.96.66 1.6 1.72 2.22 2.32 3.15 1.13 1.18-1.51 1.63-3.62 2.88-5.06 1.1-1.23 2.86-1.88 4.33-2.78l1.39 1.16v-16.45c2.47 2.01 4.3 3.19 5.7 4.76 1.16 1.29 1.8 3.04 2.67 4.58l2.3-.49c-.85 4.5-1.72 8.98-2.6 13.57l3.34-.97.53 6.3 3.9-2.44-1.67-.56c.38-2.36.78-4.73 1.11-7.11.27-1.88.78-3.82.6-5.66-.58-5.83-2.58-11.2-6.36-15.7-1.41-1.7-3.3-3.01-4.97-4.49l-1.73 5.63c-.66-.2-1.8-.52-2.95-.8-1.43-.35-2.85-.64-4.29-.96.18 1.3.48 2.6.5 3.9.08 4.04 2.13 8.32-1.1 12.53-2.87-3.84-5.68-7-7.75-10.58-1.59-2.75-3.15-6.2 1.98-7.73 1-.3 2.42-1.73 2.37-2.56-.27-4.47 3.03-6.5 5.66-9.04l1.13 4.05c1.62-.97 3.29-2.63 4.03-2.3 3.9 1.79 7.55 4.08 11.08 6.06-.42 1.92-1.56 3.95-.98 5.01 2.73 5 5.92 9.73 8.98 14.59 1.86-2.12 3.65-4.14 5.46-6.17-1.93 3.16-4.05 6.22-5.7 9.52-.74 1.5-.52 3.46-.9 6.55l6.5-4.4-5.4 8.48 1.43 1.23c1.84-1.24 3.55-3.22 5.57-3.57 6.93-1.24 8.53-3.2 6.95-9.87l-.03-.06zm8.61 11.26c.87-2.07 2.24-4.11 2.34-6.21.04-.85-2.7-1.84-4.17-2.76-.5 2.28-1.26 4.55-1.3 6.84 0 .67 2.1 1.35 3.24 2.03-1.67 1.95-1.45 6.49-6.09 4.42-.19-.08-.89.6-1.11 1.06-4.07 8.27-11.85 11.78-19.92 12.72-10.29 1.2-20.83.29-31.52.29l2.75-1.77-.86-1.12c-1.23 1.03-2.64 1.92-3.66 3.14-1.99 2.42-3.54 2.13-5.36-.2-.59-.75-1.84-.99-2.8-1.45-.76 3.71-3.21 1.99-5.38 1.94-1.18-.02-2.38 1.32-3.57 2.05a25.92 25.92 0 0010.1 1.9c12.03-.24 24.16.14 36.05-1.32 9.18-1.13 19.02-1.82 26.35-9.28 1.43-1.46 4.6-2.43 6.53-1.94 6.56 1.64 8.04-4.75 12.06-6.99.4-.21.06-1.71.06-2.62l-1.25-.85-1.4 4.52c-2.06-2.96-3.12-4.5-3.9-5.6l-2.43 4.36-4.76-3.16zM299.11 269.94c1.22.48 3 1.74 3.58 1.31 5.33-3.77 8.69-.13 12.3 2.88 9.4 7.83 18.9 15.47 30.4 20.21 3.58 1.47 6.83 3.76 10.25 5.68l-8.2-2.15c2.3 5.34 7.76 7.74 12.1 5.46l-4.09-3.5c1.85.67 3.73 1.27 5.54 2.03 11.26 4.75 22.18 10.6 33.82 14.02A278.4 278.4 0 00438.7 325c7.2.9 14.85-2.6 22.38-3.11 5.82-.4 11-1.9 14.04-6.57 3.17-4.88 5.2-10.56 7.23-16.07.63-1.74.33-4.58-.74-6.04a899.98 899.98 0 00-25.09-33.29 39.77 39.77 0 00-11.07-9.7 1389.72 1389.72 0 00-49.54-26.93c-7.73-4-15.92-7.26-24.19-10-5.8-1.93-12.14-2.2-18.14-3.64-4.56-1.1-8.96-2.88-13.43-4.36-1.95.3-4.3 2.8-6.42-1.6-.13-.27-2.06.17-3.06.52-3.98 1.38-9.46-.62-10.2-3-5 .44-9.76.7-14.46 1.31-5.67.74-11.27 2.3-16.94 2.56-11.56.53-16.85 8.9-11.84 19.4.22.44.15 1.02.2 1.53l-.65.56-1.54-3.35-2.27.97c.64 3.24.9 6.61 2 9.7 1.32 3.65 3.37 7.05 5.09 10.56l-7.99-2.6 5.35-.31.1-2.18c-7.3-.7-14.61-1.37-22.03-2.07l-1.98 13.35c8.92.72 12.1 6.89 13.24 16.07l1.4-3.75c-.35 9.43-7.62 17.88-3.1 27.81l2.79-7.36.38.22-1.04 6.23 9.2-6.76 1.1 1.46c-1.1 1.75-2.2 3.5-2.92 4.62l27.89-16.64-2.43 4-.9-6.6zM497.87 524.8l.92-1.44c-3.94-5.62-13.16-3.6-17.54-10.08h8.43l.3-1.3c-2.97-.94-5.89-2.33-8.93-2.7-5.89-.73-5.92-.5-7.62-4.2l4.95.54c-3.66-1.56-6.98-6.07-12.21-1.58l10.3 7.46c-4.63-1.44-9-.93-10.85-5.92-.51-1.37-2.63-2.23-4.16-3.09-3.14-1.76-8.28-2.66-9.2-5.15-1.8-4.95-5.71-4.64-9.04-6.1-6.83-3-15.02-3.29-20-9.97-1.08-1.46-1.9-3.96-3.2-4.2-2.02-.4-4.33.73-7.25 1.38l14.47 12.66-2.62.61c5.27 1.77 4.61 10.96 12.34 9.78-1.92-2.35-3.75-4.33-5.24-6.53-.53-.78-.3-2.08-.42-3.15.94.5 2.11.8 2.77 1.55 1.78 2.01 2.93 5.02 5.1 6.14 2.8 1.47 6.37 1.5 9.6 2.14l-.44 1.64-6.62-2.5-.37.71 6.85 5.23c-4.22.36-6.86 1.08-9.33.69-2.74-.44-5.32-1.86-9.38-3.38v11.8l-3.52 1.02c2.56.94 4.45 2.12 4.89 1.72 1.34-1.24 2.13-3.1 3.34-5.04l7.7 14.14c-5.24-1.4-11.25-2.97-17.67-4.67.4 5.68 9.32 3.3 7 10.52-3.3-2-6.9-3.28-9.25-5.77-3.74-3.96-5.36-5-10.88-3.47l4.65 2.89-.29.53-9.04-1.89-.43 1.87 12.07 2.71-6.16 2.26c9.97-1.4 18.31 3.23 26.45 7.12 4.18 2 7.82 4.15 12.49 3.2 7.05-1.43 13.06 5.12 20.59 2.24 3.42-1.31 7.78-.22 11.7-.22l.02-1.8-6.3-1.9 15.06-4.25-.26-1.77-8.12-2.5 2.42 5.17c-3.15-1.4-5.36-1.84-6.8-3.14-5.25-4.75-11.16-4.56-17.67-3.73-6.13.8-12.7 1.08-16.19-5.94-.54-1.09-.62-2.4-.92-3.62 1.26.5 2.75.72 3.76 1.54 2.03 1.66 3.49 4.58 5.72 5.3 6.69 2.16 13.7-2.8 20.53.34.18.08.6-.52.9-.52 1.57 0 3.2-.09 4.73.22 1.66.34 3.24 1.08 5.54 1.87-3.87-3.86-6.37-7.45-10.68-10.05-4.87-2.95-10.1-1-15.82-4.76 4.77 0 8.33-.77 11.4.14 9.24 2.7 18.3 6.08 27.43 9.2zM224.5 153.44l.26 1.6-7.58 1.63c.32 10.83 6.43 11.2 14.2 8.06l-.26-1.88 6.71 8.15 1.61-2.19 10.22-5.8c-2.93-1.38-.94-7.69-5.83-5.5-.45 2.46-.53 4.33-1.22 5.93-.24.56-1.99.47-2.59.59v-10.77c-2.31.7-4.43 1.32-6.71 2l1.88-3.77c-7.19-1-13.88-1.92-20.34-2.8-1 .78-2.15 1.7-4.26 3.38 5.24.53 9.58.95 13.9 1.37zm68.65 380.71c2.95.25 6.17 1.54 7.8.44 4.19-2.82 8.17-.96 12.23-.8 2.95.14 5.88.47 8.82.72l.1-1.13-31.83-3.78.06-.48c1.25-.2 2.52-.42 3.78-.64l-.15-1.97-38.01 1.73 5.06 4.13.12-1.08 15.01 1.07a6.32 6.32 0 003.6 3.93c.32.13 1.53-1.81 2.66-3.22 10.72 4.22 10.72 4.22 10.75 1.08zm74.16-165.96c.1-.47.22-.94.33-1.4-8.17-9.34-16.34-18.69-24.54-27.99-2.6-2.93-5.4-2.2-8.79.26 8.83 9.59 17.48 19.23 26.51 28.5 1.16 1.18 4.28.46 6.49.63zm117.25 85.02c4.02-.92 7.79-2.1 11.65-2.6 4.88-.61 3.93-3.95 3.48-6.85-.5-3.13-1.62-5.92-5.92-5.03-2.96.61-6.06 1.33-9.02 1.06-7.84-.75-11.65 3.06-10.59 12.66l3.46-8.68.71.3-.26 6.08h3.9l.44-6.08 1.15-.11c.28 2.69.57 5.37 1 9.25zM31.9 490.95c.29-.5.56-1 .85-1.48l-2-2.93 7.45-.4c-1.92-3.11-3.26-5.05-4.32-7.12-.54-1.03-1.15-2.78-.67-3.4.57-.76 2.3-1 3.45-.85 1.8.24 3.57 1 5.16 1.47l-1.3-6.2c-.8-.06-2.9-.07-4.93-.45a7.05 7.05 0 01-3.63-1.7c-.52-.53-.4-2.71.05-2.94 1.01-.52 2.42-.4 3.66-.34 1.8.08 3.58.32 6.61.62-2.31-2.49-3.44-4.11-4.96-5.18-.85-.6-2.45-.67-3.52-.33-1.61.5-3.24 1.33-4.52 2.42-1.33 1.15-2.92 2.67-3.12 4.2-.11.92 2.37 2.02 3.4 3.28.81 1 1.67 2.38 1.62 3.55-.04 1.28-1.1 2.53-1.7 3.74-3.64-2.86-3.37.53-3.64 2.45-.18 1.24.48 2.59.4 3.86-.1 1.7-1.34 4.32-.66 4.91 1.69 1.43 4.16 1.93 6.32 2.81zm190.66-318.23l-11.15-8.21-1.28 1.03 5.07 6.12-.58.9-12.97-6.27c-1.9-6.24-6.93-9.52-11.16-6.67 1.19 1.19 3.5 2.46 3.42 3.59-.47 6.75 2.96 7.74 8.41 6.48.29-.06.67.22 1.14.4l-2.69 3.8c7.72 3.89 14.8 4.2 21.8-1.17zm-64.05-24.3c4.62 5.31 9.4 10.63 15.74 6.8 4.52-2.75 9.55-6.18 9.88-12.69-16.56-2.17-19.62-1.8-25.92 3.7 3.69-.54 7.16-2.03 10.78-2.6 3.4-.55 6.97-.12 9.97-.12l-4.97 5.9-15.48-.98zm.92 347.2l5.89 3.67-7.44 3.81c5.02 2.8 9.36 6.24 14.3 7.7 5.3 1.59 11.15 1.31 15.64 1.74-1.3-1.36-2.96-3.96-5.32-5.42-3.17-1.97-6.9-3.06-10.34-4.52.19-6.27-2.71-8.05-12.73-6.98zM111.6 154.64c3.52-5.48-2.4-10.3 3.08-13.56 3.5-2.08 6.68-4.7 9.51-6.72-8.15-4.48-27.24 3.38-32.44 15.91 7.73-5.92 12.96-13.44 23.67-13.56l-18.34 11.7.38 1.56 8.92-2.27 5.22 6.94zm318.33 383.43c-13.54-4.44-27.2-3.72-40.18-6.65l-2.27 2.84 6.92 3.62-3.56.68c1.97 1.52 4.03 2.29 6.02 2.14 10.64-.72 21.26-1.67 33.07-2.63zm139.93-124.35c.2.77.37 1.52.56 2.29h54.8l.53-1.22c-2.05-.82-4.08-2.3-6.14-2.33-15.23-.25-30.45-.25-45.68-.2-1.35 0-2.7.95-4.07 1.46zm-498.7 39.37l-.8-1.25c2.29-1.48 4.4-3.41 6.88-4.29 2.74-.97 5.82-.96 9.58-1.5-4.16-1.8-18.99.64-21 3.3-.94 1.22-1.64 3.76-1 4.85 2.07 3.51 4.8 6.64 7.28 9.9 1.28-2.57.84-4.5 1.58-5.75.89-1.5 2.78-2.42 4.93-4.14l-7.45-1.12zm186.4 99.45l1.25 1.35c1.88-.26 3.82-.32 5.63-.85 1.57-.47 3.19-2.34 4.44-2.06 5.33 1.19 7.42-2.6 9.45-5.95.74-1.22-.15-3.65-.76-5.37-.18-.51-2.48-1-2.84-.6-1.24 1.38-2.49 3.03-2.94 4.79-.44 1.68.1 3.6.29 6.45-3.43-2.23-4.53-7.72-8.81-4.1-2.15 1.81-3.83 4.2-5.72 6.34zm109.07-369.72l-14.67-5.13c1.72 2.69 4 4.77 6.4 6.7.36.3 1.29-.05 1.94-.13 1.33-.16 2.75-.71 3.94-.4 2.42.64 4.7 2.35 7.1 2.5 1.94.14 4.05-1.25 5.96-2.21.3-.16.3-2.06-.14-2.41-2.7-2.13-5.4-4.36-8.45-5.87-1.33-.65-3.48.33-5.25.56l.21 1.65 4.42.25c-.5 1.56-.9 2.8-1.46 4.48zm-240.56-44.4l-.59-.84c-3.21 1.58-6.52 3-9.55 4.9-.51.32-.29 3.12.49 3.96 4.4 4.71 10.62 4.58 16.14-.04l-.15-1.61-13.14.92c0-.5 0-.99.02-1.49 2.9-.19 5.84-.2 8.7-.63 1.4-.21 3.56-.95 3.8-1.87.31-1.17-.95-2.77-1.36-3.75-2.16 1.52-3.7 2.58-5.23 3.65l-.76-.91 1.63-2.28zm223.86 234.8l-14.9-15.64-4.99 3.41c3.65 3.82 7.34 7.24 10.48 11.12 2.7 3.37 5.25 4.83 9.4 1.12zm-119.9-228.95c8.18 3.32 15.09 6.14 21.78 8.87-2.4-.19-5.12-.4-7.85-.63 4.04 1.96 8.22 3 12.47 3.37 2.16.19 4.41-.84 6.63-1.3l-1.9-3.9c-11.77 1.83-19.43-7.78-31.12-6.41zM531.78 633.8c-5.3-8.83-26.67-14.42-37.17-8.87 7.91 1.22 14.67 2.92 21.48 3.12 6.08.18 11.29 1.3 15.7 5.75zm-17.2 10.47c6.95 6.84 11.88 7.58 20.17 3.48l-7.34-1.85.07-.53 9.7-.64c.03-.48.05-.95.09-1.42l-18.69-1.8-.23 1.79 5.18 1.91c-3.57-.4-6-.64-8.95-.94zm-84.74-38.92c2.32-2.35 4.1-4.17 5.9-5.98l-1.34-1.36-3.42 3.04-6.05-.8c-.14-.3-.26-.62-.4-.94 2.89-1.18 5.77-2.35 8.74-3.58l-6.7-4.46-5.22 3.82-1.27 11c3.61-3.5 7.03-4.76 9.76-.74zM86.53 142.23c-4.62 1-7.03 3.77-7.75 7.88-.43 2.5 7.29 14.14 11.24 16.3-2.43-4.04-4.79-7.4-6.44-11.06-.55-1.2 1.01-4.68 1.11-4.65 5.14 1.05 4.97-3.22 5.78-7.07l-7.9 3.33c1.16-1.4 2.23-2.66 3.97-4.73zm293.84 292.84c.78-1.75 1.92-3.09 1.6-3.71-2.66-5.35-7.47-3.23-11.5-3.5l3.12 8.65c2.12.56 4.22 1.33 6.39 1.65 2.38.35 4.82.28 7.25.4l.05-1.42c-2.52-.77-5.06-1.51-6.91-2.07zm-30.5 103.44l.62 1.76c7.81 1.28 15.6 2.59 23.41 3.8 1.27.2 2.63.1 3.87-.16.2-.05.37-2.36-.07-2.65a9.8 9.8 0 00-4.25-1.48c-1.52-.13-3.16.76-4.62.48-5.21-1-10.34-2.44-15.56-3.4-1-.15-2.25 1.07-3.4 1.65zm14.65-110.38l-.9-2.06c-2.08 1.1-4.68 1.8-6.05 3.47-.75.92.6 3.53 1.12 5.92l2.69-2.31 7.19 4.92V426.2l-4.05 1.93zm-32.14 98.57c7.3 3.92 12.74 10.25 21.45 7.2-7-1.93-11.34-10.98-21.45-7.2zm-62.76-353.17l1.1 2.26c4.22-1.38 8.87-2.08 12.53-4.36 3.06-1.9 4.97-5.67 7.4-8.6l-.88-.71-20.15 11.4zM97.89 175.3v1.04h54.34l.02-1.04H97.9zM77.64 437.47c-6.37-5.3-22.67-4.57-26.56 0h26.56zm289.68 98.3l.14 1.55h14.57c-2.7-7.07-8.46-7.57-14.91-9.02l5.45 6.4-5.25 1.08zM263.7 163.53c-1.73-5.4-8.87-3.6-16.28 6.44l7.52-2.88 1.22 2.41 7.54-5.97zM411.17 609l-2.52-2.81c-3.25 2.2-6.22 4.79-9.65 6.38-2.04.96-4.86.72-7.24.37-1.22-.18-2.23-1.8-3.34-2.76l-2.5 5.07c9.97 1.98 17.74-1.16 25.25-6.25zM97.23 451.98l-1.2 1.95c7.41 5.45 16.4 7.14 24.7 10.52.26-.63.54-1.25.8-1.89-8.1-3.52-16.19-7.06-24.3-10.58zm228.92-272.51l-24.4 12.69c7.55.39 22.32-7.09 24.4-12.7zm-36.2 178.1c-1.93 5.03 7.08 14 14.74 13.72l-14.73-13.72zM183.75 157.24l1.79 3.64 4.78-6.6c-4.57.68-9.39-.16-12.06 4.77-.47.88-.75 1.84-1.33 3.29l3.45-.81c-.16 1.12-.3 2.07-.4 2.92l6.86 1.23c.66-3.4-7.1-2.92-3.1-8.44zM41.38 461.94l3.1 7.02 3.3-1.67c4.18 5.33 5.8-.73 10.2-2.75l-16.6-2.6zm278.85 65.26l-.44 1.62 13.09 7.26 1.33-1.42c-.75-1.94-1.07-5.17-2.32-5.59-3.69-1.21-7.74-1.32-11.66-1.87zM87.96 559.75c3.54 8.35 10.77 8.02 17.04 9.4.7.16 1.75-1.17 2.64-1.8-.86-.53-1.66-1.38-2.6-1.55-5.23-.93-10.89-.72-14.23-6.12-.21-.35-1.54 0-2.85.07zM191.43 172.9l-16.85-2.9c2.18 7.52 4.69 4.26 6.07 2.88l6.51 6.35 4.27-6.32zm334.95 273.15c8.08-.75 8.25-1.4 4.07-11.67l-4.07 3.2v8.47zm-30.34-144.4l6.7 9.37.98-.7-.3 2.95.97.46 4.83-5.8c-5.74 1-5.9-9.27-13.18-6.27zm-33.31 149.87c3.61-2.61 6.5-4.72 10.37-7.5l-7.13.76c1.59-4.83-.6-5.43-4.29-4.6-.6 3.68-1.19 7.11-1.76 10.55l1.2.32 2.08-6.2c.1.04.2.1.32.14l-.79 6.53zm-36.69 192.79h-29.97c10.07 3.13 20.07 2.9 29.97 0zM312.02 174.54l-16.61 7.69c3.47 3 14.92-1.84 16.61-7.69zm-2.5 199.76l1.48-1.54-19.2-18.9-.84.82 18.56 19.62zm61.22-23.5l-1.34 1.46c4.78 9.29 8.2 12.42 12.33 10.6l-10.99-12.07zm77.77 93.47l-.54 2.71 7.9 4 3.94-8.52-.98-.43-3.04 2.9-7.28-.66zm-242.99-296.5l-8.25.42 12.18 11.2-3.93-11.62zm86.16 463.48l-3.8-6.58 1.91-2.87h-3.94l-2.46 6.31 2.53.66-3.7 3.34 9.46-.86zm7.02-422.8l.57 1.27 17.6-8.18-.92-2.1c-6.53 1.24-11.96 4.95-17.25 9.01zm-92.36 423.99l-.05 2.19 26.52 1.53.08-1.58-26.55-2.14zM519.9 306.8l2.19 2.8c2.25-.94 5.25-1.32 6.51-3 .96-1.28.38-5.59-.71-6.12-1.85-.91-4.63.09-7.02.29l.17 1.67c1.76-.17 3.51-.35 5.27-.51l.21 1a1984 1984 0 01-6.62 3.87zm-5.38 2.28c5.83-4.47 5.72-4.87-3.09-11.3l3.1 11.3zm.8 243.67a432.9 432.9 0 00-3.77-2.36c-.02 1.6-.59 3.51.13 4.66.55.9 3.51 1.56 3.93 1.07 1.23-1.44 2.3-3.5 2.3-5.33 0-1.39-1.73-2.78-2.7-4.18l-1.24.91 1.34 5.23zM221.16 168.72c3.03 2.2 5.29 5.07 7.7 5.2 2.27.14 4.71-2.64 7.07-4.13l-.92-1.07h-13.85zM453.3 494.36l15.4 6.2c-4.88-6.94-10.02-9.21-15.4-6.2zm-231 77.48l-1.56-1.96-8.93 5.86c2.43 1.64 3.79 2.58 5.72 3.89l4.78-7.79zm-106.43-70.49c-2.84 5.13.18 7.98 3 11.2l3.37-4.86-6.37-6.33zm149.2-344.6c2.33 5.65 3.31 5.7 11.84 0h-11.84zm-16.45 471.93l.48-1.53-21.25-8.1-.6 1.74 21.37 7.9zm238.7-344.1l-2.52 2.02 7.63 8.06c.33.91 1.05 3 1.78 5.08.82-.4 1.62-.83 2.43-1.24-3.1-4.64-6.2-9.29-9.32-13.92zm-363.74 223.3l2.44 6.7 5.02-1 1.57-5.7h-9.03zm219.38-317.82l1.18 1.46 10.8-6.6-.13-1.6h-6.85c.84 3.93-3.4 4.44-5 6.74zM497.14 583.8l2.02.57c1.63-2.33 7.49-1.43 5-6.53-.43-.86-4.63-.93-6.04.1-1.15.82-.71 3.82-.98 5.86zM24.26 492.32l.76-2.32c-2.35-.89-4.67-1.95-7.1-2.45-.33-.06-2.18 3.2-1.73 4.14 2.36 4.77 5.33-.03 8.07.63zm9.43-45.16l2.28.32 3.04-9.9c-2.55.74-5.02.96-5.13 1.58-.45 2.6-.2 5.32-.2 8zm348.76-94.15l-2.34 1.18c1.27 2.4 2.29 5.02 3.96 7.12.55.7 2.76.12 5.32.12l-6.94-8.42zM121.5 159.17c-2.49-4.56.66-4.5 4.46-3.88l-.64-1.5-8.89-.72 2.6 4.72-6.37 2.31.52 1.4 8.32-2.33zm48.06 18.99c-5.83-7.28-7.82-7.68-11.62-3.25 3.42.97 6.8 1.9 11.62 3.25zm324.6 336.09l-.86 1.16 14.18 8.02 1.28-2.32c-4.87-2.28-9.73-4.57-14.6-6.87zm-214.24 10.58l.37-1.92-21.22-2-.1 1.18c6.99.9 13.97 1.82 20.95 2.74zm91.3 116.4c.02-.42.06-.85.1-1.27h-23.19l.02 1.27h23.06zm140.94-323.07l-.2-1.29c-2.44.18-4.89.34-7.32.55-2.34.2-4.68.46-7.01.7l.39 2.34c4.71-.75 9.43-1.53 14.14-2.3zm-127.5-103.68l.52-1.23-19.32-8.36-.72 1.71 19.53 7.88zm48.75 426.36l-.29-1.87c-5.28.9-10.56 1.8-15.84 2.68.1.67.2 1.34.32 2 5.27-.93 10.54-1.86 15.81-2.81zM82.43 461.23l-.89 1.16 5.5 3.19 2.75 6.88 1.35-.62-1.92-2.78 4.57-2.14c-4.23-2.1-7.79-3.89-11.36-5.7zm216.53-113.55l-1.44.61c-.42 5.35.85 7.19 6.72 8.05-2.05-3.36-3.67-6-5.28-8.66zm-12.64-173.76c.1.62.2 1.25.28 1.88l9.43-1.5c-4.27-6.11-6.85-1.77-9.7-.38zm99.6 277.82l-6.4 3.73.56 2.97c7.84-2.58 7.84-2.58 5.83-6.7zm-20.2 186.04l.09-1.53c-3.85-.21-7.71-.41-11.56-.63l-.05 2.15 11.53.01zm118.04-371.42l-7.9-8.48c-.59 4.66 1.47 7.33 5.42 8.67.95.32 2.15-.16 2.48-.2zm-181.4-90.29l-.61-2.25c-2.63.72-5.3 1.32-7.82 2.31-.4.16-.06 2.13-.06 3.85l8.49-3.9zm118.03 53.84l1.4-.27c-.68-2.87-1.34-5.73-2-8.6l-4.07 3.54c1.71 1.97 3.2 3.66 4.67 5.33zM324.97 625.2c-.05.54-.09 1.07-.15 1.6l14.72 1.65.2-2.5-14.77-.75zM287.9 523.8l-.4 1.38 16.82 2.68.25-1.75-16.67-2.3zm60.02-188.49l-.66.42c.46.73.93 1.44 1.4 2.16.2-.13.4-.27.62-.39-.46-.73-.9-1.47-1.36-2.19z"/><path d="M494.6 737.58c2.74-1.35 5.49-2.69 8.25-4.03l-.47-1.51c-2.67.38-5.34.78-8 1.15 14.4-2.27 8.2-13.02 8.12-21.65 10.23 13.58 4.08 28.6 6.02 42.68 1.47-8.1 6.91-12.2 13.87-14.69 6.13-2.19 8.82-.55 11.1 5.65a35 35 0 004.65 8.99c.9 1.17 3.79 1.84 5.2 1.29 1.38-.55 2.4-2.84 2.88-4.56.72-2.58.83-5.33 1.13-7.5 1.95 0 3.67 0 5.4-.02l11.73 6.94c-4.35-6.84-5.94-7.63-11.88-6.78 8.19-4.22 12.06 2.29 16.6 7.13a265 265 0 011.55-.44l-1.22-20.36c4.97 8.3 2.88 16.37 2.29 24.14-.09 1.25-3.53 2.92-5.54 3.1-1.61.16-3.58-1.42-5.08-2.62-2.37-1.89-4.16-5.12-6.79-5.96-3.7-1.2-4.68 2.45-6.08 5.36-2.72 5.64-13.18 6.32-17.4 1.07-2.08-2.6-2.8-6.3-4.88-8.92-1.27-1.6-4.46-3.27-5.91-2.7-2.18.87-5.13 3.74-5.04 5.63.21 4.56 1.63 9.18 3.22 13.53 3.06 8.44-1.28 15.43-10.35 16.36-1.87.19-3.75 1.14-5.45 2.05-6.94 3.74-11.02 2.79-16.22-3.24-2.83-3.27-7.01-5.7-11.06-3.22-16.47 10.1-34.96 14.87-53.03 20.7-31.31 10.1-63.63 15.46-96.19 19.75-20.63 2.73-41.13 6.35-61.75 9.13-7.15.97-14.47.75-21.72.8-19.22.1-38.44-.07-57.66.14-12.84.14-25.19-2.04-37.34-6.1-17.15-5.75-34.5-10.87-51.6-16.76-12.94-4.45-25.1-10.62-34.36-21.08-2.29-2.6-3.58-6.2-4.9-9.51a570.12 570.12 0 01-9.46-25.27c-2.35-6.92-4.18-14.02-6.95-20.96l-.38 6.37c-2.47-17.86-3.23-26 14.03-40.03 8.4-6.83 16.26-14.56 25.4-20.2 12.41-7.68 25.76-13.88 38.82-20.47 5.68-2.86 6.51-6.97 1.66-11.13a23.25 23.25 0 00-9.52-5.1c-4.35-1.17-7.96-5.01-11.98-7.56-1.76-1.12-3.72-2.73-5.61-2.75-9.97-.05-19.94.36-29.9.54-6.18.11-12.35.04-17.16-4.8l-.06.1c4.67 1.56 8.84.33 12.86-2.14 7.88-4.8 15.88-9.39 23.67-14.35 3.77-2.4 7-4.32 10.98-.26.98 1 3.41.7 5.19.77 2.86.12 5.72.04 8.58.04v.53h-12.2c.88 13.78 10.82 26.48 22.03 28.22 1.92-7.27 9.3-4.44 13.84-7.6h-7.94v-.57l36.86-3.12.19 1.11c-13.07 2.56-26.14 5.1-39.38 7.7 6.78 8.6 7.7 19 2.6 26.53l.18-.18c-6.93 4.22-8.73 7.74-5.74 13.3 2.79 5.2 6.1 10.2 9.77 14.8 3.16 3.98 7.3 3.7 9.66-.78 2.42-4.63 5.25-6.54 9.68-4.43L160 661.87l1.11.81-10.52 14.37 3.8 5.3c3.86-4.89 7.78-2.62 11.79-.63 5.66 2.83 11.28 6.24 17.82 2.1.53-.32 1.58-.4 2.06-.1 5.25 3.42 10.43 6.92 16.15 10.76 5.31-4.1 11.08-8.52 16.84-12.96l1.12 1.38c-5.77 4.7-11.54 9.39-17.3 14.1-.82.57-1.66 1.13-2.6 1.73 5.02 5.46 10.87-.3 16.5 1.79l-3.16 7.84.98 1.04c1.18-.77 3.12-1.35 3.4-2.38.86-3.15 1.09-6.5 1.56-9.75 1 1.85 1.99 3.7 3.66 6.76 4.34-8.96 8.36-17.23 12.38-25.48-4.39 4.37-7.82 9.19-11.4 13.9-1.34 1.77-2.99 3.32-4.5 4.98-4.41-1-8.76-2-12.99 1.05-.63.46-2.66-1-4.03-1.58 2.23-.82 4.71-1.27 6.65-2.54 4.08-2.7 7.88-5.83 11.8-8.79l.42.59-3.83 4.65 1.3 1.11 21.94-24.15-1.85 7.45 11.15-10.36c-10.15 9.12-5.64 21.64-8.78 32.46 0-3.74-.15-7.48.04-11.22.18-3.7.68-7.4-.12-11.72l-3.95 6.94c-.83.78-1.9 1.43-2.46 2.36-4.65 7.89-3.53 16.55-3.14 25.08.04.87 1.4 1.67 2.18 2.5.6-1.27 1.62-2.5 1.72-3.8.63-8.75 1.07-17.52 1.56-26.28.43.43 1.27.88 1.24 1.29-.49 8.26-1.08 16.52-1.6 24.79-.04.66.32 1.37.81 3.32 5.83-3.29 11.21-6.34 16.6-9.36 1.25-.71 2.76-1.18 3.72-2.17.52-.52.15-1.92.18-2.92h-.01c4.21 1.46 10.52-1.87 13.48-6.83 1.7-2.87 3.8-5.5 6.18-7.88-4.51 10.96-12.05 20.27-22.88 23.83-8.9 2.92-16.29 8-24.6 11.57-.77.34-1.34 1.14-2.47 2.14 2.96 2.42 5.91 4.48 8.4 7a24.2 24.2 0 014.96 6.86c3.8 8.55 4.06 8.8 12.77 7.12.99-.19 2.07.08 3.13.14.37-1.8.7-3.38.96-4.56 12.6-5.79 24.02-12.7 33.08-23.27-.75 5.16-3.52 8.83-7.91 11.8-3.98 2.7-7.28 6.38-11.28 9.04-2.7 1.8-6.1 2.55-10.05 4.1.4 2.83 3.7 4.24 7.44 5 5.3 1.08 10.74 1.58 15.9 3.1 3.36.98 6.33 3.33 10.12 5.43 1.77-1.65 3.93-3.46 5.85-5.5 7.83-8.27 15.46-16.72 23.43-24.85 2.7-2.76 6.69-4.3 9.25-7.15 6.47-7.2 12.48-14.84 19.12-22.83l-5.4 10.57c.17.21.35.42.51.64l9.73-8.73.83.72-2 2.96.52.6 7.62-4.9c-.21.7-.2 1.08-.38 1.23-11.13 8.75-22.6 17.11-33.32 26.35-6.5 5.6-11.79 12.62-17.82 18.8-1.82 1.87-4.4 3-6.46 4.65-2.46 1.97-4.76 4.16-6.03 5.28l11.47 13.07c3.55-3.58 7.72-7.9 12.07-12.04.73-.7 2.44-.33 3.31-.97a52.71 52.71 0 006.25-5.54c1.95-2.02 3.65-4.3 5.38-6.5 6.4-8.2 13.15-15.94 21.81-22.04 3.1-2.18 4.82-6.58 6.6-10.24 1.8-3.66 2.9-7.65 4.88-11.26-1.55 11.56-5.05 22.1-13.46 30.84-3.46 3.6-5.86 8.65-7.47 13.45-1.73 5.13-1.96 10.75-2.84 16.1l2.63-1.24-3 5.8c2.2-1.43 3.42-2.2 5.86-3.79v13.47c4.56 3.87 10.86 3.7 16.35.98 3.16-1.57 7.44-.94 11.22-1.3 6.58-.6 13.1-.6 18.61-5.65 3.69-3.38 4.3-7.65 0-10.47-5.2-3.41-6.12-7.06-3.3-12.61 2.01-3.95 3.42-8.34 6.02-11.83 3.71-4.99 15.3-7.82 20.42-4.42 3.6 2.4 6.33 6.83 8.23 10.92 2.48 5.34 5.91 9.29 11.04 11.9 6.62 3.36 7.74 10.72 2.86 19.25-3.22 5.63-2.6 7.46 4.2 12.1 5.82 3.99 10.28 3.7 14.47-1.56-2.11.53-3.58 1.1-5.1 1.2-1.37.1-2.8-.3-5.79-.7 2.3-.5 3.05-.77 3.8-.82 5.04-.34 7.44-7.47 14.05-4.72 4.67 1.94 10.12 2.01 15.65 3 1.55-18.18.98-35.83-4.84-53.34 1.4 2.78 3.16 5.44 4.1 8.37 1.02 3.14 1.27 6.53 1.92 10.12l6.42-.67c-1.82 1.82-7.56.8-4.19 6.63l14.54-5.79-.48-2.3c-3.31.58-6.66 1.1-10 1.62zm-158.73 33.3c4.17-3.9 8.33-7.8 12.5-11.68l-.67-.8-8.8 6.44 8.61-10.36-1.2-1.01c-3.2 2.33-6.38 4.67-9.57 7.01l12.47-10.8-1.5-2.16-6.85 1.02c-.17.19-.36.23-.57.13-2.59 3.4-5.12 6.82-7.77 10.16-1.31 1.65-4.06 3.39.69 3.9-2.82 2.84-1.67 4.36 1.69 5.16.35.96.69 1.91 1.05 2.86l2.59 3.53 15.26-15.53-.87-.67-17.06 12.8zm-109.7-57.23l-1.87-7.54c-4.04 2.3-4.65 6.57-1.24 14.23 1.37-3.14 2.17-5 2.98-6.82 3.55 2.01 5.02.3 4.82-3.1-.21-3.5-1-6.97-1.53-10.46a9.76 9.76 0 00-2.6 5.7c-.36 2.63-.39 5.32-.55 8zm270.56 35.85c2.5-1.62 5.1-3.13 7.47-4.9.76-.58.95-1.88 1.4-2.83-.92-.23-1.94-.81-2.75-.6-3.3.88-6.63 1.74-9.71 3.16-1.4.63-2.2 2.53-3.26 3.87 1.45.5 2.9 1 4.36 1.52l-5.23 4.36c8.52-.84 15.18-4.28 16.75-8.1l-9.03 3.52zm-2.06 17.24l-5.37 4.19 1 1.87 20.92-7.52-.51-2.3c-1.51.1-3.08-.01-4.5.36-3.92 1.05-7.77 2.32-11.65 3.5 3.74-1.78 7.53-3.45 11.14-5.44.74-.41.81-2.03 1.2-3.08-.96-.07-1.99-.37-2.89-.15-3.33.81-6.77 1.48-9.88 2.85-1.9.83-3.3 2.84-4.92 4.31l.9 1.4c1.54-.02 3.06-.02 4.56 0zm-154.2 24.38c.94 2.33 1.71 4.74 2.87 6.94.55 1.05 1.84 1.72 2.78 2.55.26-1.18.93-2.46.7-3.52-.82-3.85-1.94-7.63-2.96-11.44 2.03 4.83 4.05 9.64 6.06 14.47l1.55-.58-2.05-12.22c.97 1.47 1.26 3.1 1.92 4.54 2.52 5.55 4.02 3.8 5.14-.63 2.32 3.3 7.56 3.38 11.18 0h10.15l-1.42-10.8c.84 2.72 1.5 5.51 2.58 8.13.36.85 1.78 1.25 2.72 1.88.42-.83 1.36-1.75 1.2-2.44-.87-3.95-1.88-7.88-3.13-11.72-.27-.86-1.66-1.36-2.53-2.02l-.96 3.28c-2.44-2.46-9.2-2.65-11.4-.17-.33.36.27 1.56.44 2.38-3.82-5.37-6.26-6-12.54-3.43-2.57 1.06-5.4 1.55-7.83 2.84-.93.5-1.08 2.49-1.58 3.8-1.35-2.11-2.22-5.17-5.96-3.09l1.85 6.36c-1.01-2.14-1.84-4.41-3.13-6.36-.6-.92-2.15-1.22-3.28-1.8l-.26 2.68-5.2-5.86c-.44.26-.89.52-1.32.79l1.03 4.98-3.21-5.86c-5.26.71-10.47 1.27-15.62 2.18-1.59.28-3.01 1.51-4.51 2.3-5.55-2.84-8.63-1.3-8.68 4.34-2.37-.04-5.32-1.3-5.72 2.77-1.33-2.2-2.46-6.14-4.02-6.32-6.43-.72-12.99-.3-20.2-.3l3.45 10.87c-2.27-1.1-2.56-6.3-7.17-3.24 1.04 3.5 1.95 6.97 3.2 10.33.34.92 1.78 2.14 2.55 2.01.98-.14 1.77-1.5 2.63-2.34l10.4 2.11-8.35 1.55c.1.7.2 1.43.28 2.14 1.46 0 2.93.1 4.37-.02 1.57-.13 3.13-.49 4.7-.75-20.87 6.28-41.99 5.25-63.16 2.35 15.66 1 31.32 1.28 46.94-.11l.1-2.36-33.44-1.44.02-1h32.17c-1.8-6-3.42-11.32-5-16.64-1-3.4-2.47-5.62-6.45-3.4-.34.2-1.7-.53-1.8-1-.34-1.53-.3-3.14-.41-4.72 1.17 3.09 2.69 5.51 7.53 2.84-4.53-3.9-.46-12.56-10.08-14.69l1.34 5.49c-.77-1.15-1.58-2.28-2.34-3.44-1.86-2.82-7.21-2.66-9.17-.68-1.84-.29-3.62.3-5.4.3-6.92-.07-13.93-1.14-20.73-.38-31.69 3.6-63.25 3.32-94.73-1.8-6.38-1.03-12.72-2.33-19.07-3.5l-.33 1.35 15.2 3.85-.09.53-22.44-4.4-.36 2.23c11.65 1.98 23.26 4.15 34.94 5.88 11.57 1.72 23.2 3.02 34.82 4.5-30.2-.75-59.54-7.64-89.92-13.13 4 8.8 9.44 15.1 16.3 19.85 9.2 6.38 18.87 12.06 28.33 18.04-3.47-1.44-7.03-2.7-10.39-4.37-13.52-6.7-26.6-14.06-36.35-26.01-2.05-2.5-3.8-5.24-5.7-7.87l-1.09.74c1.6 2.51 2.94 5.24 4.83 7.5 11.66 13.99 26.44 23.47 43.46 29.56 1.6.56 3.48.33 5.24.46.84.21 1.74.3 2.48.67 18.55 9.42 38.05 15.96 58.65 19.07 5.16.78 10.37 1.56 15.58 1.6 5.7.05 11.55-1.75 17.1-1 17.35 2.36 34.71 3.26 52.03.92 11.4-1.55 22.62-4.54 33.86-7.1.94-.21 1.5-2.07 2.21-3.16 1.48.98 2.9 2.08 4.5 2.77.22.1 1.32-1.88 2.02-2.89 5.13 2.9 7.07 2.15 8.72-3.37l4.36 2.91-.54-4.53c1.5.85 3.3 1.88 6.08 3.44l-1.07-5.9 3.32 4.44.96-.4-1.98-8.57.56-.09 3.46 8.51 1.49-.51-3.85-13.75c3.78 4.66 2.5 10.9 7.03 13.43l1.36-.8-4.84-19.87c1.93 5.59 3.77 11.2 5.86 16.73.4 1.06 1.77 1.76 2.7 2.61.23-1.17.85-2.42.64-3.51-.75-3.86-1.77-7.66-2.68-11.49 1.39 3.84 2.62 7.74 4.24 11.48.53 1.2 2.08 1.94 4.2 3.8-.88-5.06-1.42-8.17-1.94-11.28zm53.86-19.4l-8.2 1.64.5 6.53c-2.15-1.57.66-7.95-6.35-5.52l4.91 15.5 1.94-.36-.6-9.76c.67 2.24 1.23 4.53 2.05 6.74a3.9 3.9 0 001.92 2.09c.45.18 1.6-.66 2.03-1.32 3.16-4.89 4.7-10.01 1.78-15.56 1 2.03 2.46 3.97 2.9 6.11.8 4.02 2.53 3.45 5.09 1.64l-2.44-8.78-5.53 1.05zm-131.89.15c.98 6.14 4.77 7.47 10.4 6.54 4.22-.69 8.56-.66 13.3-.99-.55-1.87-1-3.32-1.5-5h-11.23v-.65l11.67-.9-3.6-5.92c-.94 1.1-1.88 2.23-2.15 2.56l-10.5-3.5 2.13 11.02c-3.46-4.1-.5-12.86-9.82-10.57.51 2.68 1 5.13 1.44 7.58-.8-1.76-1.81-3.45-2.32-5.28-.87-3.23-2.58-3.84-5.41-2.53 3.11 14.2 3.11 14.2 8.05 13.44-.14-1.95-.3-3.87-.46-5.8zm-46.2-47.63l-3.7-14.38-1.32.12-1.34 9.9c-.7-3.2-.38-6.38-.83-9.46-.21-1.5-2.24-4.12-2.77-3.96-5.44 1.59-10.98 3.18-15.98 5.76-2.9 1.49-4.85 4.78-8 8.06 3.1 4.53 7.89 9.89 10.63 16.15 1.88 4.28 4.12 5.05 7.66 4.41 3.5-.63 7.16-1.4 10.25-3.04 4.95-2.63 6.95-8.75 5.28-13.7 1.04-.07 2.96-.12 2.96-.23.16-4.33.13-8.67.13-13.02l-1.93-.38c-.57 1.55-1.57 3.08-1.62 4.64-.1 3.04.35 6.08.57 9.13zm-101.68-28.25c1.41-.57 2.8-1.52 4.25-1.64 6.1-.56 12.23-.94 18.36-1.26 7.59-.41 15.17-.7 23.77-1.1-14.17 0-27.3-.1-40.4.1-2.42.03-5.62.1-5.98 3.9-9.9-1.37-17.54 5.2-26.31 7.8-6.56 1.96-12.58 5.74-18.84 8.7 1.73-1.82 4.7-2.89 5.4-4.78 2.08-5.63 6.32-7.37 11.54-8.4 1.42-.27 2.61-1.72 3.9-2.63l-1.12-1.56-27.77 14.17c1.39-1.92 3.8-2.71 4.85-4.36 1.25-1.96 1.34-4.68 1.95-7.1 3.6-2.25 7.29-4.42 10.8-6.83 1.2-.84 1.97-2.32 2.94-3.5-1.67-.14-3.85-1.02-4.9-.28-4.09 2.86-7.84 6.23-11.7 9.4l.95 1.15c.69-.03 1.38-.07 2.08-.09l-7.83 5.92c-.05-2.6.48-5.1 1.97-6.67 3.84-4.04 8.54-7.32 12.05-11.6 2.33-2.8 7.95-3.75 6.3-9.38-.11-.39 1.1-1.43 1.88-1.79 3.08-1.38 6.15-2.85 9.36-3.81 3.2-.96 6.13-1.75 5.79-6.12-1.67 1.04-3.14 1.94-4.6 2.87-7.94 4.96-15.98 9.73-23.69 15.02-1.59 1.1-1.76 4.14-2.83 6.15a6.5 6.5 0 01-2.48 2.52c-.8.44-2.41-.13-2.9.43-3.26 3.76-6.33 7.68-9.44 11.59-.5.64-1.16 1.45-1.17 2.19-.1 4.95-.05 4.95-4.5 4.44l5.59-12.4c-15.84 13.62-14.96 30.64 1.99 41.15 6.73 4.17 13.9 8 21.36 10.52 36.43 12.33 74 15.27 112.2 12.65 15.7-1.08 31.53-3.12 47.15-2.18 16.27.98 32.17-1.46 48.24-1.76 1.76-.04 3.5-1.08 5.6-1.77l-3.68-4.9-.57 5.5-2.3-3.38c-2.13.89-3.42 1.92-4.67 1.87-4.53-.2-9.08-1.28-13.56-1.05-7.14.38-14.22 1.99-21.35 2.25-6.77.24-13.57-.58-21.59-1l28.72-4.48-.05-.5-5.76-.4.02-.42 16.17-.88c0-.14 0-.29-.02-.42h-46.38l28.35-4.88a8.88 8.88 0 00-6.18-1.68c-9.7 1.22-19.34 2.8-29.04 4.06-6.72.87-13.17.7-16.54-6.8-.26-.6-.9-1.32-1.49-1.44-6.2-1.27-11.6-5.78-18.54-4.2-2.47.57-5.17.1-7.77.1l.07-1.44 17.1 1.23c.27-.7.52-1.39.8-2.09-1.81-.97-3.57-2.63-5.44-2.76-5.45-.38-10.94-.13-16.42-.13v-.98h18.67l.52-9.05-23.4 1.57-.05-2.02c6.81 0 13.64-.07 20.46.04 2.98.05 5.04-.56 4.75-4.24-11.79-1.7-23.41-.23-33.69 5.3-3.66 1.97-7.13 2.33-10.65 3.54-1.45.5-2.6 1.9-4.4 3.3-7.56-1.48-13.72 4.1-21.48 7.15l4.2 2.5c-1.98.68-3.61.34-5.24-.03-.93-.2-2.53-.86-2.67-.63a5.66 5.66 0 00-.92 3.33c.17 1.33.97 2.6 1.26 3.29l4.68-.3c.03.66.19 1.35.06 1.99-.25 1.22-.66 2.4-1.26 4.5-3.86-1.88-8.4-3.99-12.78-6.38-.32-.18.02-3.05.72-3.43 7.52-4.03 15.2-7.76 22.77-11.72 2.24-1.17 4.26-2.76 6.64-4.34 1.56 1.13 18.22-3.24 24.63-7.13-2.05-.14-3.92-.26-5.78-.4l.05-.36 20.51-1.9-.27-1.74c-25.24-2.46-45.9 10.95-68.75 20.4l1.12-6.3 1.4.17 2.28 3.42 11.39-8.18c2.24-.41 4.53-.68 6.73-1.28 10.68-2.9 20.14-9.74 31.7-9.86.17 0 .32-.53.93-1.54-7.8-.38-15.16-1.43-22.4 1.47l10.08-4.56c-6.65.56-13.99-2.74-20.02 3.4-.92-.12-2.74-.96-3.94-.43-9.04 4.08-17.96 8.45-26.94 12.69-1.46.69-3 1.21-4.48 1.82-.3-.68-.57-1.35-.86-2.03 4.76-2.27 9.4-4.84 14.3-6.75 13.63-5.3 26.73-11.8 42.2-11.35 11.22.34 22.5-1.91 33.78-3.01-10.4.02-20.78.62-31.18 1.07-7.75.33-15.62-.28-23.23.86-7.4 1.13-15.41 2-20.59 8.9-.44.6-1.79 1.15-2.37.9-4.22-1.78-5.88.42-7.81 3.83-1.25 2.19-4.17 3.42-7.63 6.08l1.8-5.24-2.77.37c1.18-1.7 1.96-3.64 3.4-4.7 2.76-2.07 5.89-3.65 8.87-5.43 1.95 3.72 4.31.83 6.34.22 6.19-1.88 12.2-5.3 18.47-5.8 18.74-1.53 37.57-1.96 56.36-2.83 1.23-.06 2.45-.15 3.67-.24-21-2.07-41.94-1.62-62.87.25zm377.8 83.91c6.14-2.47 11.1-4.46 16.05-6.47 3.1-1.26 5.22-3.04 3.88-6.22-5.99 1.96-11.76 3.77-17.45 5.79-1.76.62-3.32 1.79-4.97 2.7l2.49 4.2zm-199.97-7.7c1.9 1.94 3.1 4.11 4.06 4.01 7.73-.81 15.4-2.06 23.1-3.17-8.54-4.18-17-1.57-27.16-.83zm-133.94-65.17c13.8 3.1 29.06 1.8 32.05-2.5l-32.05 2.5zm63.29 31.2l-.08 1.18 18 1.06c-1.82-3.7-1.82-3.7-12.04-4.19l6.29-.86-.18-1.48-16 1.72.07 1.3h5.92l-.01.6-1.97.67zm267.62 22.07c12.67-1.77 16.79-4.39 15.95-10.91-3.97 5.81-12.64 2.68-15.95 10.9zM71.4 701.8l22.05-10.3c-10.85-4.16-15.91 4.52-22.05 10.3zm52-14.32c-1.52-2.72-2.49-6.95-4.61-7.65-2.68-.88-6.3 1.13-9.53 1.9l.2 1.2c1.13.3 2.27.62 2.63.7l-6.41 2.99 17.71.86zM89.17 700.4c11.51-2.52 11.51-2.52 16.8-10.6-7.47.75-12.7 4.59-16.8 10.6zm101.46 3.1c0-.18 0-.37-.02-.55H146l.02.55h44.63zm216.28 93.2l-.46-1.8-30.7 8.01.49 1.87 30.67-8.07zM83.28 613.57l-.5-1.51-19.97 8.35c9.7 3.07 13.98-4.72 20.47-6.84zM306.44 768l-.01-1.44H295.9l-.12-.81 3.41-1.43-.25-.82-7.08.69 1.2 6.13c4.03-.63 7.78-1.18 11.5-1.78.66-.1 1.26-.35 1.87-.54zm33.45 6.69c.6.82 1.2 1.64 1.78 2.47 2.47-1.58 5.35-2.78 7.3-4.86 1.74-1.87 2.46-4.7 3.62-7.12l-1.6-1c-3.71 3.51-7.4 7.02-11.1 10.5zm-22.73 39.06l.46 1.36 25.57-4.37-.22-1.18-25.8 4.19zm108.27-27.3c-.5-1.95-.9-3.62-1.46-5.86l-6.45 2.27c.88 2.13 1.53 3.67 2.28 5.52l5.63-1.93zM91.4 680.85l-.65-1a3250.1 3250.1 0 00-8.73 4.4l.6 1.41c4.77-2.21 10.67.48 14.97-3.9l-7.74 1.22a123.9 123.9 0 001.55-2.14zm-38.73 62l-.74 1.49 20.05 10.24.69-1.35-20-10.37zm134.07-31.81l-.1-.82H169.8l.07.82h16.87zm245.15 66.53l1.77 5.9c5.75-.65 4.2-3.91 3.02-7.43-1.5.5-2.79.9-4.79 1.53zm-14.72 11.34l-1.02-5.54c-2.28.72-4.06 1.26-6.36 1.97l2.08 5.16c1.98-.59 3.47-1.03 5.3-1.59zm10.42-2.27c1.59-1.44 3.21-2.23 3.51-3.37.36-1.34-.42-2.99-.81-5.06-1.98.9-3.35 1.5-4.87 2.18l2.17 6.25zM408.2 774.4c2.73-1.1 7.32-.1 4.43-5.28h-6.15l1.72 5.28zM242.54 270.02c-1.1-.01-3.12-.22-3.17 0-.84 3.74-3.5 3.75-6.45 3.61-.67-.03-1.44.74-2.06 1.25-1.3 1.07-2.34 2.79-3.78 3.21-7.84 2.3-15.78 4.28-23.7 6.88 15.29 2.54 31 2.3 46.24 7.25-3.85 3.28-17.16 3.35-21.78.69-7-4.06-14.64-5.65-22.92-5.19l5.87 2.68h-9.07l-.22.9 11.62 4.35-.07.54c-5.62-1.3-11.24-2.57-16.87-3.86l-.34.78 2.2 1.76c-2.35-.6-4.66-1.44-7.04-1.73-1.65-.2-3.38.37-5.07.6l.22-.16c-4.24-1.75-8.45-3.58-12.72-5.25-2.87-1.1-5.83-2-8.75-2.99l-.52 1.42c1.02.3 2.04.6 4.5 1.35l-24.81-1.42c-.02-.12-.02-.25-.03-.37 2.8-.13 5.59-.28 8.91-.43l-56.7-6.55-.14.75 3.41-.97-13.75-3.89c1.3-1.6 2.98-3.07 3.91-4.91 1.14-2.24 2.47-4.88 2.2-7.16-.3-2.45-1.83-5.49-3.8-6.77-1.66-1.06-4.72.01-7.96.2l-1.43-2.49c-.89 4.03-2.91 7.69-2.01 10.38 1.37 4.08-.81 5.1-3.1 6.8-15.1 11.3-18.18 23.4-9.45 40.87 5.4 10.78 13.6 19.04 23.23 26.59-3.8 2.25-5.6 6.81-10.37 6.66l-2.58 7.47c-1.14-.2-1.69-.14-1.78-.32-5.24-10.33-14.16-5.94-21.9-5.26-15.44 1.34-30.84 3.13-46.54 4.76l3.84 6.53-4.6-3.34c6.99 15.66 18.75 27.37 31.07 38.64-1.25-.63-2.66-1.04-3.7-1.9-11.2-9.11-20.4-19.98-28.02-32.2a19.46 19.46 0 01-2.17-4.36c-1.31-4.24.78-7.23 5.15-7.56 17.48-1.33 34.98-2.6 52.45-3.97 1.94-.16 3.85-.83 5.82-1.27-11.03-26.21-16.27-51.65 7.03-75.18-4.93-2.68-9.5-4.8-13.63-7.54-2.55-1.7-4.46-4.35-6.65-6.57l.5-1.35c1.47-3.16 2.92-6.33 4.38-9.5l2.83-1.31c.13.92.65 2.01.34 2.75-1.76 4.07-3.71 8.05-5.6 12.06l5.62 2.77 3.35-15.46 44.27 19.31c-.3 2.32-.64 5.35-1.08 8.35-.88 6.13-.9 6.13 3.33 6.79.47-3.2.95-6.4 1.4-9.6.84-5.88 3.44-6.89 9.41-5.66 13.35 2.75 26.76 5.76 40.28 6.91 14.38 1.23 28.98.84 42.9-4.39 9.73-3.65 19.67-6.8 29.15-10.99 3.98-1.75 7.02-5.66 11.54-9.48v14.76h-1.37l-.29-5.63-3.7 1.35v12.8l2.76-1.28 2.25 2.2-.3 1.29zm-19.05 2.26l-1.32.13-3.81-10.5c-5.05 3.8-5.46 8.2-2.04 16.4 1.68-.47 3.43-.85 5.1-1.45 8.2-2.92 10.48-9.14 5.5-15.38-.73-.93-3.06-1.6-3.93-1.12-.96.54-1.6 2.62-1.45 3.92.31 2.71 1.26 5.34 1.95 8zm-9.97 8.07l-4.8-15.5c-1.06 2.46-1.58 3.69-2.15 4.97l-2.95-3.28-1.57.27-1.23 16.58 12.7-3.04zm-19.18-12.01c-2.8 7.6-2.83 8.64-.94 12.92.31.71.56 1.46 1.05 2.73 4.98-4.57 1.33-9.45 1.64-13.85l-.45 5.07c-.17 0-.34-.02-.5-.03l-.8-6.84zM64.3 329.5c.43 3.1.1 5.51 1.12 7.04 1.69 2.54 4.22 4.52 6.4 6.73l1.14-1.08-8.66-12.7zm-7.04-27.02l-1.78.2 1.2 14.37 2.2-.24-1.62-14.33zM394.96 28.35c-1.7-.22-3.57-.07-5.09-.74-24.05-10.45-48.79-18.29-75.13-20.23-2.37-.17-4.69-1.1-8.07-1.92 1.22 1.6 1.87 2.66 2.74 3.52 1.01 1 2.2 1.83 2.6 3.75-1.17-.54-2.87-.77-3.42-1.69-3.55-5.86-9.5-5.4-14.95-5.62-6.5-.27-13.02.1-19.53.42-1.91.09-3.78 1.33-5.68 1.39-3.72.11-7.47-.15-11.18-.41-4.63-.34-9.24-.84-13.37-1.21-.7-1.1-1.58-3.2-2.06-3.1-3.84.72-7.6 1.83-11.38 2.83l.3 1.78 4.33 1.61a24.5 24.5 0 01-.15-.88c-9.38.88-18.92.91-28.08 2.82a422.9 422.9 0 00-41.92 10.98c-10.09 3.22-19.64 8.11-29.5 12.11-1.86.76-4.02.84-6.03 1.23l-.2 1.42 5.53 1.54.16.77c-2.34.12-4.7.1-7 .37-1.72.21-3.7.37-5.01 1.33-4.73 3.47-9.23 7.24-13.8 10.92-2.74 2.21-5.4 4.53-8.2 6.7a99.68 99.68 0 01-12.53 8.49c1.91-2.74 3.58-5.68 5.78-8.15 3.77-4.25 7.33-9.01 11.93-12.1 7.23-4.86 15.28-8.48 22.94-12.7 5.51-3.05 10.86-6.43 16.49-9.25 2.18-1.09 5.5-.23 7.35-1.55 12.13-8.66 26.76-9.47 40.4-13.34C198.31 8 203.57 7.1 208.8 6.22c1.96-.34 4.85-2.42 5.63 1.7 2.24-.85 4.5-1.65 6.69-2.57 1.59-.67 3.05-2.06 4.65-2.2C238.72 1.92 251.67.5 264.66.05c4.94-.18 9.92 2.22 14.95 2.9 2.99.42 6.11-.3 9.18-.37 2.17-.04 4.37-.02 6.52.29 1.69.24 3.32 1.53 4.94 1.45 26-1.5 49.98 7.4 74.23 14.64 7.09 2.12 13.85 5.28 20.76 7.97l-.28 1.42zM258.1 6.75c5.07-1.3 9.65.62 13.44-4.55-5.38-.4-9.94-2.19-13.44 4.55z"/><path d="M419.55 655.64c-5.69 7.4-14.42 12.34-18.04 21.36a75.85 75.85 0 00-4.38 15.33c-1.5 8.87-2.6 17.8-3.4 26.76a287.33 287.33 0 00-1.3 27.48c.01 2.16 2.73 4.5 4.56 6.4 3.63 3.74 2.76 8.96-2.27 10.82-2.44.9-5.21.97-7.1 1.29-1.27-6.3-2.74-11.91-3.44-17.63-.4-3.28.44-6.72.78-10.58-7.62 8.03-1.67 20.31-8.33 28.17l-2.07-.7 4.93-13.89c-2 1.21-2.96 1.82-5.3 3.24l19.65-56.72v10.49c4.79-10.77-4.7-23.27 6.37-33.77h-10.68l-.03-.83c2.25 0 4.58.32 6.77-.09 2.13-.41 4.44-1.19 6.1-2.51 1.68-1.32 2.67-3.5 4.49-6.03h-17.24l-.1-1.85c7.33.88 14.75 2.37 21.46-1.77-7.17-1.05-14.79 1.36-21.06-3.67 8.14 0 16.28.07 24.42-.05 1.76-.03 3.5-.78 5.26-1.2-.01.03-.05-.05-.05-.05zM51.08 251.97l-.51 1.35c-1-.06-2.48.28-2.94-.25-5.17-6-11.13-11.59-15.04-18.35-7.61-13.13.72-36.32 14.33-42.34-1.64 1.65-3.56 3.1-4.86 4.98-1.51 2.17-2.48 4.7-3.7 7.07-5.5 7.04-5.89 9.95-.76 16.92 3.76 5.12 8.3 9.65 12.5 14.45.3 5.38.64 10.77.98 16.17zM507.62 676.4l24.45 20.35 1-.4-5.86-14.48.9-.46c2.85 5.68 6.22 11.18 8.43 17.1 2.26 6.04 3.4 12.5 4.34 19.26-2.5-4.28-4.64-8.84-7.62-12.77-3.29-4.34-7.27-8.16-11.1-12.07-2.72-2.79-5.78-5.28-8.5-8.07-2.35-2.4-4.45-5.06-6.65-7.6l.6-.86zM487.2 86.35c6.93 7.58 13.92 15.09 20.74 22.76 3.94 4.43 7.56 9.12 11.6 14.02-5.54-.03-5.16-.25-7.38-3.97-1.64-2.77-4.42-4.88-6.68-7.29-5.18-5.56-10.64-10.91-15.4-16.82-1.78-2.23-1.93-5.79-2.82-8.75l-.06.05zM537.98 156.58c-2.3-3.16-4.66-6.27-6.9-9.48-4.06-5.81-8.05-11.69-11.6-16.88.07 0 1.84-.32 3.42.1a6.56 6.56 0 013.49 2.44c1.38 2.02 2.11 4.47 3.44 6.53 4.18 6.46 8.63 12.76 12.68 19.3.6.96-.33 2.86-.55 4.33-1.34-2.1-2.66-4.23-3.98-6.34zM527.7 246.83l-55.98-48.85c6.43 1.4 47.88 37.24 55.98 48.85zM62.3 109.4C64.57 95.6 72.6 82.57 85.36 71.15c-4.3 10.76-9.89 14.96-12.27 17.91-4.55 5.6-7.04 12.88-10.8 20.32zM544.13 169.65c5.13 2.18 2.47-3.07 3.39-3.83 2.71 6.77 5.65 13.64 8.13 20.65.56 1.6-.49 3.74-.8 5.63a.75.75 0 00-.81.2l-9.81-22.74-.1.09zM432.26 654.94l.92-2.18 13.97 3.35.58-1.74-5.78-3.32.38-.83c.5 0 1.22-.23 1.48.03 6.52 6.12 12 2.22 17.6-1.65 3.69-2.54 7.55-4.87 12.1-6.34-2.76 1.9-5.56 3.76-8.28 5.73-4.17 3-8.27 6.09-12.4 9.13l.1-.1c-3.3-.4-7.6-2.27-9.72-.87-4.6 3.1-7.45.12-10.95-1.2zM454.63 742.57v-36.64c2.78 14.2 3.4 29.06 0 36.64zM441.69 54.13l-2.66-4.48-.47.72c8.88 6.48 17.75 12.97 26.63 19.44l-.56.63-32.27-19.9-.51.55 9.84 3.04zM429.19 720.81c-.57-3.83-.98-7.7-1.76-11.48-.78-3.8-1.09-8.09-3.15-11.14-2.39-3.56-4.04-6.23.21-10.23l7.12 32.36-2.42.5zM238.21 54.54c3.1-1.61 6.12-3.4 9.32-4.74.75-.3 2.65.61 3.03 1.43.35.76-.28 2.5-1.04 3.18-2.97 2.6-6.4 3.64-10.18 2.37l-1.13-2.24zM466.99 199.9l29.7 22.45c-.3.42-.63.84-.94 1.26l-29.76-22.38 1-1.33z"/><path d="M452.82 657.13c2.26 6.17 5.44 12.18 6.54 18.55 1.25 7.19.61 14.7.8 22.08l-2.08.01c.13-1.9.47-3.81.38-5.72-.34-7.3-.41-14.65-1.4-21.88-.61-4.48-2.7-8.77-4.12-13.14l-.12.1zM555 436.23l-15.28 7.6.14.15v-7.12l.66.01.7 4.95 1.86-.26c-.3-2.37-.6-4.75-1.01-7.86l6.24 3.74 6.77-1.1-.08-.11zM316.97 682.1l-23.05 25.76-1.4-1.26a586466 586466 0 0123.57-25.34l.88.84zM563.85 218.47c-.75-.29-1.92-.37-2.17-.9-1.25-2.55-2.25-5.22-3.5-8.28l4-4.59 1.53.02v13.9l.14-.15zM399.3 165.14c-10.5-4.45-21.01-8.88-31.53-13.33l.43-1.04 31.66 13.16-.56 1.21zM487.26 86.3c-3.49 1.45-6.21.68-8.76-2.25-2.44-2.82-5.4-5.18-8.9-8.46 1.97.31 3.75.1 4.82.86 4.36 3.14 8.5 6.58 12.75 9.9.03 0 .1-.05.1-.05zM250.08 698.95c-2.84-9.48-3.42-19.05 0-30v30zM299.05 84.39c-3.85 6.22-8.9 7.83-14.79 5.48 4.43-1.63 9.4-3.48 14.79-5.48zM537.98 156.58l3.97 6.35 2.17 6.72.1-.1-8.17-2.74.23-.99 4.02.89-2.32-10.13zM483.1 649.88c-6.06 3.68-12.13 7.36-18.19 11.06l-.69-1.1 18-11.43.88 1.47zM225.3 75.08c2.42-.38 4.56-.93 6.7-.95 1-.02 2 .98 3 1.52-.8.93-1.48 2.49-2.43 2.68-2.99.59-5.98.44-7.27-3.25zM393.49 116.13c2.59-3.75 7.52-5.68 9.72-3.46.83.85 1.01 3.42.33 4.45-2.06 3.14-7.13 2.98-10.69.05 3.93.98 7.79 1.6 11.9-2.07-4.78-2.27-8.1-1.38-11.26 1.03zM258.26 696.18l-3.44-21.4 2.46-.3.98 21.7zM421.6 151.67c-2.88 2-5.31 4.1-2.13 8.46-1.42.22-2.9.7-4.3.52-.38-.06-1.1-2.5-.64-3.17 1.72-2.57 3.85-4.85 5.83-7.25.4.49.82.97 1.23 1.44zM537.88 216.39l-.66 7.29c-5.55-2.77-6.95-6.84-4.6-11.44.78 2.88 1.6 5.96 2.41 9.05l1.54-.15.47-4.78.84.03zM512.66 157.44l2.37 9.77h1.78c.62-2.43 1.23-4.86 1.83-7.3l1.12.32-2.8 10.23c-4.52-3.74-5.87-7.13-4.3-13.02zM349.9 99.14l1.28 7.91 1.74.22 2.34-5.42.64.11-1.64 7.72c-5.96-3.38-6.6-5.1-4.36-10.54zM366.42 49.38l.58-10.8 1.49.09-1.24 8.2 4.13-1.45.43.69-3.89 3.6-1.5-.33zM344.5 722.7l15.88-11.12.8 1.14-16.07 11-.6-1.01zM421.13 113.68l10.24.9-.46 2.78-10.18-2.13.4-1.55zM554.05 192.29c.23-.23.5-.3.81-.2 1.93 2.06 3.86 4.12 6.54 6.95l-4.38 3.15a2399.3 2399.3 0 01-2.97-9.9zM439.45 739.25c-4.9-4-7.37-12.29-5.48-14.16 1.65 4.27 3.42 8.88 5.48 14.16zM430.27 46.95c-2.78-.9-5.57-1.8-8.36-2.75-2.55-.88-5.1-1.8-7.66-2.7.2-.48.37-.95.56-1.43l15.82 5.82-.36 1.06zM146.24 103.44l-17.89 1.83-.1-.86 17.82-2.18c.07.41.11.81.17 1.21zM86.1 101.66l1.64 6.85-6.13 4.05 4.48-10.9zM453.75 174.7v-13.22c.46 0 .93 0 1.38.02l-.65 13.17-.73.04zM298.98 595.1c1.58-4.34 3.31-8.63 4.58-13.05.22-.78-1.31-2.33-2.35-3.12-.86-.66-2.19-.73-3.27-1.04l7.94-4.16-3.61-6.28c4.1 1.99 7.15 4.5 2.75 9.09 6.8-.06 8.07-2.5 5.82-9.47 3.05 2.38 3.65 6.54 1.25 10.45-2.86 4.66-4.55 9.43-1.62 14.92l-1.6.24-1.43-5.55-1.4-.3-1.06 8.5c-1.99-.09-4-.16-6-.23zM352.8 549.54l3.1 8.63-1.77.67-3.7-4.95-4.4 7.7 10 2.18-7.38 3.82c-.03-.3.13-1.62-.2-1.75-4.56-1.9-3.82-6.1-4.56-9.76-.3-1.45-1.46-2.74-2.23-4.11l11.13-2.43zM267.36 500.3c-2.73-1.16-5.23-3.27-8.52-1.91 6.14-3.06 12.07-6.75 18.52-8.83 2.46-.8 6.1 2.17 9.22 3.42-3.8-.21-7.76-.92-10.26 3.14l.16.05c-4.14-5.13-4.82 1.44-7.23 2.14l-1.89 1.99zM240.58 266.51c-.07-4.9 3.72-4.14 6.73-4.56l10.04 10.98c-.13.24-.24.5-.43.7-.07.06-.38 0-.5-.11l-11.07-9.9-.71.8 5.63 6.38c-2.48-.7-4.98-1.38-7.46-2.07-.73-.75-1.47-1.48-2.23-2.22zM251.93 278.48v1.82l-6.6-1.7-1.8-7.74c2.79 2.55 5.6 5.09 8.4 7.62zM480.96 580.97c-1.13 1.27-4.3 1-2.92 4.3.33.76-1.4 2.39-2.85 3.12l1.22-10.62c1.69 1.13 3.1 2.08 4.5 3.05l.05.15zM337.01 437.82l4.65-1.45c-.63 3.76-2.5 2.96-4.64 1.27v.18zM244.94 362.21c-16.2 10-33.95 15.96-52.52 19.56-31.4 6.08-62.33 3.38-92.85-5.69a45.97 45.97 0 01-5.1-1.87c-8.2-3.53-10.53-8.27-7.49-16.58 4.35-11.9 13.67-19.58 24.11-25.54 22.23-12.7 46.51-18.99 71.94-20.99 16.98-1.35 34.08-3.33 50.9.33 13.22 2.88 26.18 7.06 39.12 11.07 5.45 1.69 6.61 7.84 1.5 13.81-6.76 7.89-14.8 14.67-22.3 21.92l15.68-14.18c-4.44-4.56-4.4-11.02-10.21-12.79-.27 1.68.19 2.86.43 4.1.26 1.26.3 2.58.44 3.87-1.72-2.3-2.24-4.85-2.99-7.33-.94-3.15-3-4.2-5.31-3.34v23.76c-.31 0-.61.02-.92.04l-1.1-24.5c-.57.02-1.15.03-1.72.06 0 2.59-.08 5.19.02 7.77.16 4 1.04 8.06.52 11.94-.55 4.04-2.52 7.88-3.6 11.87-.18.71.94 1.8 1.45 2.71zm-120.77 10.06l-2.31 1.93-1.61-2.38-1.45 1.45c-.18 6.98.12 6.28 8.48 6.6l-3.3-7.81 7.95 3.18.5-1.01c-7.33-4.49-14.63-8.97-21.95-13.44l-.72 1.12c.65.55 1.28 1.14 1.97 1.63 4.13 2.93 8.3 5.83 12.44 8.73zm-17.64-6.7c-.93.13-2.25.7-2.73.3-2.13-1.8-4-3.89-5.96-5.87l-2.02 1.23c.67 1.62 1.11 3.4 2.1 4.8.56.79 2.03.93 4.26 1.87l4.7 4.68c-.25-3.33-.4-5.26-.53-7.19 3.35.4 4.97 1.93 4.53 5.63-.17 1.46 1.1 3.07 1.71 4.62l1.54-.66c-1.27-4.75.63-11.22-7.35-12.49-.1 1.03-.17 2.05-.25 3.07zm92.39-41.52l-6.97-1c6.41 9.07 7.64 9.78 10.96 7.27l-2.62-4.92c1.45.18 3.19-.1 4.31.6 3.54 2.2 6.84 4.74 10.23 7.15l.13-1.8 16.31-1.08c.08.25.17.48.24.73l-5.96 2.59c-1.6 11.25 8.83 11.87 13.17 17.8l1.4-1.03-8.43-12.22h8.48v-.64c-1.57-.58-3.14-1.14-3.24-1.19l4.74-7.63-11.49-.73 3.6-2.54c-7.43-.83-14.04-1.88-20.68-2.2-4.73-.23-9.47.52-14.18.84zm-81.82 15.79l-3.87-6.53-.97.44.71 4.54c-1.05-1.39-1.86-2.44-2.64-3.49l-1.06.6 2.11 8.65-3.86-7.33-1.13.44 1.88 9.2-3.84-8.82-4.32 8.9-1.53-1.38c.03 11.78.03 11.78 2.64 11.05l-2.2 3.13 3.65 2.9 2.44-4.19-3.35-3.71 5.56-3.77c1.31 1.68 2.28 4.16 4 4.92 18.39 8.03 36.94 15.7 55.36 23.65 8.14 3.52 16.31 4.18 24.84 1.74 7.14-2.06 14.34-3.92 21.51-5.86-1.33-1.75-2.54-2.56-3.85-2.76-7.8-1.25-15.79-1.73-23.42-3.65-10.12-2.56-20.02-6.02-29.86-9.52-2.07-.74-3.45-3.37-5.15-5.14 11.09 5.17 21.64 11.85 34.5 12.5-7.37-3-14.65-5.72-21.7-8.9-7.26-3.26-14.28-7.03-21.47-10.45-1.88-.89-4-1.25-6.02-1.85-3.01-1.49-5.9-3.47-9.1-4.31-2.72-.72-3.12-2.16-3.11-4.35 1.26.13 2.73.75 3.75.3 3.92-1.72 7.7-3.8 9.73-4.8 6.06 4.14 10.85 7.6 15.82 10.75 2.7 1.71 6.32 2.3 8.47 4.46 7.18 7.2 16.11 10.54 25.69 11.81 12.12 1.61 24.39 2.2 36.59 3.2.44.04.92-.34 1.4-.53l-.6-2.36 8.66 2.03.9-1.94c-3.87-3.08-7.72-6.17-11.57-9.25 5.69-.9 8.08 3.87 11.54 6.78 2.15 1.8 4.11 4.33 7.34.86-6.37-6.04-12.53-12.11-18.98-17.87-2.83-2.53-6.24-4.4-9.4-6.59l-1.43 1.85 5.9 5.47c-4.06 1.87-1.35 4.17-.16 6.4-1.05-1.76-2.22-3.45-3.13-5.29-2.08-4.17-4.92-5.23-7.79-2.6l15.05 15.85a8.36 8.36 0 01-5.45-2.2c-3.54-3.37-6.67-7.19-10.37-10.36-1.64-1.42-4.25-1.73-6.37-2.58 1.63-.69 3.36-1.2 4.83-2.12 1.05-.67 1.77-1.9 2.63-2.88-1.14-.67-2.42-2.08-3.4-1.9-6.56 1.24-9.56-3.17-13.03-7.36-1.2-1.43-3.53-1.9-5.34-2.8l-.75 1.48c2.88 3.12 5.78 6.22 8.63 9.31l-3.66 4.78 10.2 1.44 11.7 13.68-.94 1-16.19-14.8-2.55 2.74 13.27 9.14-1.93 2.24c-1.56-.92-3.32-1.63-4.64-2.83-3.99-3.68-7.67-7.7-11.75-11.25-1.2-1.04-3.37-.96-5.1-1.4l-.5 1.63 4.68 5.43-.7.86-10.4-7.28-10.7-13.42c.29-.33.56-.67.84-1.01 1.41 1.14 2.87 2.24 4.24 3.44 2.45 2.14 3.95 5.99 8.34 4.52l-3.31 4.84c8 1.32 12.56-1.97 12.22-9.38l-9.1 4.72-4.17-9.74c11.64-.67 23.07-1.97 34.47-1.8 10.07.16 20.11 2 30.17 3 1.23.13 2.62-.6 3.78-.3 4.03 1 7.96 2.39 12 3.34.51.13 1.42-1.47 1.77-1.86l2.39 3.92c.92-9.1.6-9.47-9.63-12.18v5.29c.79-5.89-3.37-6.14-7.28-7.02l-.32 1.92c-1.41-.93-2.98-2.71-4.83-3.08-19.35-3.88-38.76-3.55-58.12-.02-13.32 2.42-26.56 5.24-39.84 7.92-.47.1-.87.55-1.43.92l.9 4.04-.45.13-2-4.78-6.02 5.38-1.15-1.87-1.23.33.9 7.47-.43.1-2.25-5.97-1.37.29.8 5.28-3.41-4.08c-.4.15-.77.32-1.16.48l.36 7.58-2.53-5.96-1.64.53 1.79 7.88zM320.24 477.37c-3.31.28-6.07.53-8.83.78l.03-.8c9.81-3.71 19.73-7.12 29.34-11.3 3.02-1.3 4.9-.75 7.39.46 6.94 3.38 13.95 6.6 21.16 9.99 4.66-11.02-6.74-8.83-9.58-14.16 16.22 7.3 32.9 12.77 46.4 24.9-16.33 8.24-83.8-.12-85.9-9.87zm19-6.92l-1.06-1.27c-2.21 1.96-4.13 4.58-6.7 5.72-4.52 2-4.69 1.61-5.56 4.41 5.25-2.39 11.62-1.95 13.33-8.86zM113.16 321.88l-10.94 6.48c-4.65-4.18-9.12-8.4-13.8-12.4-6.41-5.45-7.03-13.72-.72-19.16 3.89-3.34 8.53-5.79 11.97-8.05l-8.4 1.59c9.5-6.92 18.69-2.55 27.7-2-8.55 1.56-17.73.3-25.78 6.73 1.24.27 1.8.58 2.09.42 11.29-6.38 23.12-6.24 35.26-3.14 10.3 2.62 20.65 5.07 32.01 7.84l-7.23 1.66 12.5 2.48-.07.67-15.6 3.07c1.08-4.02-1.75-4.42-4.51-4.74-1.17-.14-2.4.23-3.57.1-9.81-1.07-19.6-2.67-29.43-3.1-4.68-.2-9.5 1.62-14.14 2.94-1.06.3-1.64 2.33-2.45 3.56l-2.9-.34c.16 1.08-.06 2.57.56 3.2 3.6 3.52 7.22 7.05 11.19 10.13 1.62 1.28 4.15 1.41 6.26 2.06zm-23.63-12.1c2.99-8.56 9.35-12.2 17.01-12.97 7.41-.76 14.95-.17 22.42-.17-2.78-.12-5.63-1.12-8.57-1.51-8.3-1.09-16.62-1.53-24.5 2.1-6.02 2.78-7.95 6.47-6.36 12.56zm18.26-17.73l-.11 1.07c7.42.7 14.82 1.4 22.24 2.12l.1-1.13c-7.4-.7-14.82-1.38-22.23-2.06zM308.54 442.6c-9.67-1.9-19.43-3.5-29-5.86-4.2-1.05-5.59.52-6.65 3.87 17 4.53 33.87 9 50.75 13.49-.1.43-.23.87-.34 1.3l-56.88-13.56-.5 1.63 3.27 1.27c-.6 1.03-1.22 2.18-1.92 3.26-2.8 4.33-7.4 5.31-11.75 2.49-3.9-2.54-8.05-4.79-11.56-7.77-3.5-2.97-2.74-5.64 1.76-6.77 14.72-3.73 29.44-2.18 44.05.8 6.52 1.33 12.9 3.33 19.34 5.03-.2.26-.38.54-.57.82zm-50.28-3.71c7.35 2.48 9.41 1.72 9.02-3.52-2.94 1.14-7.3-2.46-9.02 3.52zM93.42 392.68c-1.45-5.93-5.6-8.7-12.81-9.95l4.3 10.47c-5.56-.71-9.3-3.86-11.23-8.95-1.6-4.2-2.73-8.56-3.58-11.3 4.6 2.85 9.57 7.4 15.41 9.3 15.27 4.99 30.9 8.82 48.01 13.56h-13.66c-2.54-1.02-5.04-2.05-7.53-3.06l-1.2 3.3c-4-7.5-12.3-5.61-19.03-9.63.6 2.92.96 4.59 1.32 6.25zM130.72 452.02L46.33 398.5l1.1-1.7c27.07 19.63 57.54 34 83.3 55.22zM250.8 305.15c-4.98-.57-9.95-1.19-14.94-1.7-8.63-.9-17.27-1.73-26-3.33 7.43-.6 14.86-1.23 22.3-1.84l.15 1.52-8.71.67 27.09 4.8c.01-.03.11-.12.11-.12zM275.36 364.08l2.53 5.84-1.47.56.25-.08c-.05 1.07.32 2.78-.2 3.12-7.25 4.73-14.63 9.26-21.98 13.84 5.06-3.57 10.02-7.32 15.23-10.66 3.51-2.25 5.66-4.71 4.58-9.2-.22-.98.68-2.26 1.06-3.42zM126.53 410.97c1.53-.11 3.27-.76 4.57-.26 8.07 3.1 16.05 6.47 24.06 9.75l-.54 2.25c-4.14-.2-8.27-.42-12.4-.63l.06-1.53 8.42 1.03.46-1.61c-8.18-3.05-16.36-6.1-24.56-9.11-.04.02-.07.11-.07.11z"/><path d="M119.58 318.73l-6.55-8.95c6.8-1.16 12.88-1.44 18.6 2.4-2.39 1.73-4.76 3.48-7.14 5.21-.1-1.7.45-4.28-.44-4.94-2.1-1.58-4.87-2.25-7.38-3.28l-1.12 1.92 7.49 6.3c-1.15.44-2.3.88-3.46 1.34zM199.69 294.95l8.64 2.54c-8.59 3.84-17.22-.38-26.07-1.94l3.9-1.99-.22.16 16.18 5.3c-1.4-2.32-1.91-3.19-2.43-4.07zM182.34 426.34l-27.26 1.72c-.03-.38-.04-.77-.06-1.16 9.18-.5 18.35-1 27.53-1.48l-.21.92zM205.44 426.14c-.98 1.17-1.83 3.2-2.95 3.36-5.55.83-11.18 1.17-16.74 1.31l19.8-4.52c0-.02-.12-.15-.12-.15zM315.33 297.29l12.07 2.32-.19 1.76h-9.2l3.29-2-6.22-.37.25-1.71zM228.38 284.74l20.67 2.31c-.04.36-.07.73-.12 1.08l-20.89-2.26.34-1.13zM204.87 434.47L189 435.48l-.07-1 15.67-1.56.27 1.55zM156.09 289.98h-19.7v-1.36l19.7 1.36zM340.87 748.54l-.56.13c.2.1.38.05.56-.13zM122.86 657.15h4.22l-2.88 1.76c17.4-1.88 31.28-11.74 46.18-19.47l-13 13.68c.27.42.55.85.81 1.28l13.14-8.78.68.94c-4.13 3.27-8.01 6.91-12.44 9.72C148.28 663.44 139 672.25 133 685l-.77-6.11c-.35-.1-.7-.17-1.05-.26l-1.3 6.86c-2.22-3.59-4.15-8.05-7.25-11.45-5.59-6.13-3.3-11.48.4-17.07.02 0-.17.18-.17.18zM182.16 612.4c1.48.83 2.97 1.64 4.45 2.46l-.72 1.91c-5.29-1.37-10.53-3.28-15.91-3.96-6.07-.75-7.94-1.33-10.65-8.05 1.89.87 3.78 1.7 5.65 2.6 4.31 2.04 8.54 4.3 12.97 6.05 1.13.45 2.89-.68 4.36-1.1.03 0-.15.1-.15.1zM204.67 646.41c-2.73-2.19-5.8-4.06-8.05-6.66-1.96-2.26-3.32-2.01-5.19-.41 2.02-2.36 3.82-4.97 6.16-6.94.96-.8 3.1-.21 4.7-.26l-.12-.12 5.9 10.08c-2.21-1.73-4.35-3.58-6.68-5.13-1.11-.73-2.62-.88-3.94-1.3.28 1.39.15 3.1.92 4.1 1.86 2.4 4.16 4.45 6.3 6.64zM206.8 630.2l2.8-2.42 15.84 10.2-.26.81c-3.46-1.8-6.89-3.68-10.41-5.36-2.64-1.25-5.4-2.24-8.11-3.34l.13.12zM234.55 637.9c-7.08-1.32-12.22-5.91-16.33-12.1 5.49 4.05 10.97 8.11 16.33 12.1z"/><path d="M204.47 646.27l5.54-2.05c.75.18 1.5.35 2.75.62-3.33 2.95-6.17 5.55-9.16 7.95-.29.24-1.55-.7-2.35-1.1l3.22-5.42zM206.68 630.08l8.12 9.58-12.63-7.65.12.12 1.14-3.53 3.37 1.6-.12-.13zM155.39 607.5l11.95 10.86c-.27.33-.56.64-.84.96l-12.1-10.69.99-1.13zM59.73 570.1l-11.97 11.92-1.26-1.5 13.33-10.31-.1-.11zM50.07 235.78c2.23 1.87 6.42 2.17 5.38 6.69a3800.7 3800.7 0 01-4.37 9.5l-1.01-16.19zM189.82 261.97c-10.9.74-21.52 1.45-32.12 2.18-.03-.73-.05-1.46-.09-2.18h32.21zM80.44 245.77l17.48 6.71c-6.67.11-12.99-.78-18.06-5.13.2-.52.4-1.05.58-1.58zM229.6 207.23l-13.9-8.36.71-1.28 14.18 7.84-.99 1.8zM285.04 589.9c-3.89.08-3.89.08-5.96 6.48l3.2-12.33-1.17-.7 8.38-4.01-4.6 10.72c0 .02.15-.16.15-.16zM359.35 586.68l-3.75-1.28c2.55-2.32 4.75-4.32 6.95-6.3l1.06.9c-2.55 3.48 1.26 9.91-6.19 11.07l1.93-4.4zM401.65 562.45l-6.48-8.77c4.21-1.1 6.81 1.8 6.48 8.77zM326.38 569.76l7.24-3.97-2.22 9.41c-1.6-1.75-3.36-3.64-5.02-5.44zM383.62 593.18c-3.57.57-3.57.57-7.5-5.49 2.17-.73 2.17-.73 7.5 5.5zM389.3 564.73l-1.37 8.3c-1.8-3.13-3.26-4.87-3.64-6.81-.12-.63 2.64-1.8 4.07-2.73l.94 1.24zM331.1 581c1.93 1.24 3.25 2.04 4.52 2.93.5.35 1.3 1.1 1.2 1.31-.3.68-1.06 1.75-1.49 1.68-1.85-.3-4.12-.49-5.27-1.67-.6-.64.76-3.19 1.05-4.24zM311.36 246.57c-7.62-6.46-17.2-11.74-21.12-21.94 6.6-1.16 12.5-2.66 18.48-3.15 14.5-1.16 28.78-.45 42.48 5.49 4.43 1.92 9.56 2.14 14.18 3.71 19.87 6.73 37.54 17.78 55.61 28.13 13.07 7.47 24.02 17.27 34.41 27.91.88.9 2.3 1.27 4.12 2.23.74-1.98 1.64-4.4 2.94-7.83 2.9 3.34 5.58 5.95 7.66 8.98 2.13 3.1-1.07 7.19-6.66 9-12.17 3.94-24.55 3.94-37.09 2.18a208.97 208.97 0 01-84.24-30.86c-1.65-1.05-2.8-2.86-4.18-4.32 1.94-.24 3.9-.8 5.82-.68 18.9 1.24 35.97 8.97 53.34 15.4 6.78 2.52 12.94 6.64 19.41 9.96a9.17 9.17 0 005.22 1.15l-8.52-5.22c.1-.2.22-.39.33-.59 7.03 3.04 14.07 6.07 21.1 9.12l.52-.95-4.03.4-.27 1.74 17.38 3.92 1.13-2.6c-10.4-6.8-20.8-13.6-31.2-20.38 0-.1.03-.21.04-.31 5.6 2.91 11.4 5.5 16.73 8.84 5.34 3.36 10.07 7.65 15.3 11.19 2.14 1.44 4.88 1.98 7.35 2.93l1.4-2.61c-6.26-4.42-12.3-9.2-18.82-13.19-19.23-11.74-40.25-18.84-62.22-23.57-20.9-4.48-41.66-9.52-62.51-14.24-1.3-.3-2.73.1-4.1.16zm60.03 2.23l-4.1-4.82c.83-1.84 1.72-3.83 2.81-6.3l-5.92-1.92-.44 1.14 2.94 1.9-.93 1.28c-2.78-2-5.35-4.45-8.4-5.88-2.88-1.36-6.26-1.65-9.4-2.4 2.13 3.32 3.58 7.2 8.3 5.46.55-.2 2 1.24 2.6 2.19 2.73 4.42 4.97 9.4 12.54 9.35zm-9.96 3.46l-13.64-5.54c-.22.63-.43 1.27-.66 1.9 5.6 2.2 11.16 4.48 16.8 6.55.96.36 3.03.16 3.3-.41 2.4-5.03 4.46-1.85 6.9-.07 2.53 1.86 5.36 3.32 8.05 4.95l1.15-2.13-23.13-10.44c.5 2.13.72 3.09 1.23 5.19zm-.92 24.43a58821 58821 0 0131.32 5.5c-10.09-5.93-20.53-6.42-31.32-5.5zm-10.99-7.83l-.36 2.13 26.07 4.5c.1-.66.22-1.31.33-1.97-8.68-1.54-17.35-3.1-26.04-4.66zm-5.15-30.1c2.4 5.58 9.53 8.54 13.26 6.21l-13.26-6.22zm54.87 25.4c-6.53-5.92-11.22-7-13.72-4.03l13.72 4.03zm-17.1-13.44c.36-5.8-2.81-6.9-6.22-7.66l-1.28 1.67 7.5 6zM344.78 215.54c-8.68-.8-17.36-2.2-26.04-2.2-8.87 0-17.72 1.5-25.57 6.3-.19.12-.63-.18-.97-.28 3.99-4.6 9.08-7.64 19.02-7.75 10.73-.11 21.49 1.69 32.23 2.73.45.05.8.9 1.2 1.36l.13-.16zM344.65 215.7c3.28.5 6.75.47 9.81 1.58 14.2 5.1 28.27 10.53 42.4 15.84l-.6 1.54-51.47-19.12-.14.16zM442.03 263.22c-12.5-7.94-25-15.88-37.51-23.8l.98-1.55 37.71 23.64-1.18 1.71zM447.25 316.83l-33.72-6.17.2-1.17 33.44 6.1.08 1.24z"/><path d="M335.81 253.24c10.92 2.66 21.86 5.33 32.78 8.01l-.3 1.26-32.73-8.19c.07-.36.16-.73.25-1.08zM301.36 266.3l-8.14 2.02-.33-.66 5.55-3.42-2.7-4.41c1.87 2.17 3.75 4.31 5.62 6.46zM397.1 409.12l19.6-9.96c18.2-9.25 35.03-20.32 47.69-36.72 3.28-4.25 6.05-8.9 9.05-13.36l3.85.92c-1.25.67-2.7 1.2-3.8 2.12-.58.5-.94 1.77-.77 2.56.2.9 1 2.28 1.7 2.38 4.06.6 8.18.74 12.25 1.3 3.6.5 7.22 1.15 10.71 2.15 1.94.56 3.62 1.97 6.07 3.37-4.75 1.26-8.92.73-12.96-1.69-4.63-.44-9.28-.73-13.87-1.41-8.1-1.2-11.45.81-14.46 9.7 6.13-1.46 11.85-2.63 17.45-4.23 3.72-1.06 7.25-2.72 10.87-4.11-1.66 1.14-3.17 2.69-5 3.37-5.21 1.92-10.55 3.5-17 5.59l3.71 2.51-25.13 9.51c.63 1.51.68 1.96.89 2.07.47.23 1.02.31 2.06.59-3 1.87-5.69 3.56-8.4 5.22-5.53 3.39-5.5 4.53.52 7.98-.8.39-1.71 1.07-1.92.9-3.58-2.92-6.88-1-10.41.2-4.25 1.46-8.7 2.3-12.98 3.7-2.18.7-4.16 2-6.47 3.16l3.19 2.94-16.45-.76z"/><path d="M462.32 384.83c7.63-1.2 15.98.6 24.09-4.28 2.32 6.69 10.24 1.72 14.72 4.28h-38.81zM415.99 410l18.41 2.3-8.83 3.75-.2-.02c.07-.14.2-.29.2-.43.06-.5.2-1.42.08-1.45-3.28-.99-6.58-1.89-9.89-2.8L416 410zM424.86 338.54l20.98 4.19c-13.4.69-26.05-3.85-38.97-6.57l18.16 2.5-.17-.12z"/><path d="M425.03 338.66l-17.52-5.13c9.82-2 17.5 3.2 25.8 5.5l-8.47-.5c.02 0 .19.13.19.13zM417.21 342.54l24.79 3.14-.16 1.2-24.88-2.68.25-1.66zM276.68 370.41l-.25.08.25-.08zM55.17 532.12c2.04.69 4.57 2.54 5.25-2 .21 2.35.43 4.7.7 7.85l6.71-2.56c1.93-.74 4.47-3.97 5.66-.53.75 2.15 1.74 6.9-3.45 7.63l-1.91-5.13c-1.61 2.42-1.61 2.42 1.5 9.47-7.77-3.02-10.33-9.66-14.3-14.9.02 0-.16.17-.16.17zM88.24 507.44l-5.74-3.86-.95.59 1.9 4.56-6.73-.91-3.87 2.93.67-6.63 4.7.5c.1-2.62.23-6.31 5.1-2.63l.81-3.81-.89 1.36c1.96 1.28 4.17 2.3 5.79 3.9 1.2 1.2 2.97 3.48-.87 4.01l.08-.01z"/><path d="M88.17 507.45l8.42 13.43 1.25-7.77 4.34 2.73-5.77 7.37c-1.32-2.04-3.11-3.82-3.72-5.94-.9-3.12-1.96-4.74-6.63-1.64 1.03-3.8 1.62-5.99 2.19-8.2l-.08.02zM468.5 540.11l-14.04-3.16.44-1.97 14.05 3.15-.45 1.98zM97.81 306.65c7.9-1.37 15.76-3.3 23.71-3.95 8.08-.64 16 1.06 23.23 5.13a77.5 77.5 0 00-38.65-.47c-2.38.58-4.83.9-7.26 1.16-.27.04-.68-1.21-1.03-1.87zM179.49 809.13l17.08 4.78c1.31.37 2.62.76 3.83 1.57-12.57 1.58-24.63-1.26-36.63-4.17-4.38-1.07-8.8-2.3-12.89-4.14-6.96-3.15-13.67-6.85-20.76-9.33l47.27 10.83c.7.16 1.4.32 2.1.46z"/><path d="M179.49 809.13l-2.1-.46-14.38-4.48 60.72 9.6-.04.53c-14.75-1.72-29.48-3.46-44.2-5.19zM120.97 710.53c-1.81.99-3.54 2.22-5.46 2.9-3.3 1.16-4.23 2.93-2.28 5.95-8.54-3.08-15.17 2.02-22.4 5.94-.7-4.1-.23-5.47 4.02-5.94 4.62-.5 10.95-1.87 13.06-5.12 3.33-5.11 6.25-5.38 10.92-3.69.64.22 1.43-.02 2.14-.04zM118.83 755.3l68.37 4.13c-21.5 1.04-46.44-.18-68.37-4.13zM155.2 753.17c6.92 0 13.84-.05 20.75.02 2.7.03 5.2.09 4.37-3.7l5.44 2.12-1.72 1.04 4.28 1.93-.1 1.03-33.04-1.74c0-.24 0-.47.02-.7zM72.09 735.22c3.15-4.75 6.18-7.27 9.09-.43l2.24-4.8c.31.2.78.4.76.51-.35 1.86-.67 5.27-1.15 5.3-3.63.18-7.3-.3-10.94-.58zM60.24 731.03l-1.29-2.54 5.27 1.08c.1.36.2.73.32 1.1-2.84.83-6.2 2.99-8.37 2.13-2.48-.97-3.89-4.63-6.07-7.53h9.63l-5.21 2.45 4.68 4.46 1.04-1.14zM237.65 750.49c-6.61.4-13.23.82-19.85 1.24l-.09-1.27 19.99-1.44-.05 1.47zM157 326.9c5.24 4.93 10.48 9.88 15.7 14.82l-1.2 1.33-16.1-14.51 1.6-1.65z"/></g><defs><clipPath id="clip0"><path fill="#fff" d="M0 0h628.07v825H0z"/></clipPath></defs></svg>