<svg width="25" height="25" viewBox="0 0 25 25" fill="none" xmlns="http://www.w3.org/2000/svg">
<path d="M12.0705 24.12H7.07048C5.4725 24.104 3.9261 23.5524 2.67876 22.5534C1.43141 21.5544 0.555342 20.1659 0.190598 18.61C0.0573099 18.0567 -0.00657863 17.489 0.000534686 16.92C0.000534686 15.15 0.000534686 13.38 0.000534686 11.61C0.000534686 10.03 0.000534686 8.46 0.000534686 6.89C0.00865177 6.50681 0.0521751 6.12518 0.13054 5.75C0.321319 4.74043 0.73199 3.78523 1.33342 2.95221C1.93485 2.11919 2.71227 1.42878 3.61052 0.929993C4.05721 0.669513 4.53413 0.464657 5.03056 0.319992C5.71066 0.109063 6.41849 0.00120776 7.13054 0H17.1305C18.6887 0.01181 20.1985 0.543198 21.4206 1.50999C22.2165 2.1318 22.8709 2.91583 23.3405 3.81C23.8017 4.67226 24.0712 5.62396 24.1305 6.59999C24.1305 6.94999 24.1305 7.29999 24.1305 7.64999C24.1305 10.76 24.1305 13.87 24.1305 16.98C24.1285 18.6422 23.5458 20.2516 22.4831 21.5297C21.4204 22.8079 19.9445 23.6746 18.3106 23.98C17.892 24.06 17.4667 24.1002 17.0406 24.1H12.0406L12.0705 24.12ZM22.1906 12.12V11.42C22.1906 10.22 22.1906 9.01999 22.1906 7.81999C22.1886 7.05977 22.032 6.30789 21.7305 5.61C21.4061 4.85681 20.9334 4.17663 20.3405 3.61C19.2533 2.55292 17.797 1.96105 16.2806 1.95999H7.88054C7.39087 1.9579 6.90319 2.02181 6.43059 2.14999C5.66345 2.35246 4.94409 2.70507 4.31413 3.18741C3.68418 3.66974 3.1561 4.27222 2.76054 4.95999C2.26237 5.81053 1.99035 6.7745 1.97051 7.75999C1.97051 8.33999 1.97051 8.90999 1.97051 9.48999C1.97051 11.71 1.97051 13.92 1.97051 16.14C1.97469 16.4744 1.99813 16.8083 2.04057 17.14C2.18494 18.1482 2.59956 19.0985 3.24053 19.89C3.77931 20.5951 4.47197 21.1679 5.26567 21.5647C6.05937 21.9616 6.93313 22.172 7.82048 22.18C9.20048 22.18 10.5905 22.18 11.9705 22.18H16.2005C16.4503 22.1949 16.7007 22.1949 16.9505 22.18C17.9138 22.0777 18.8357 21.7338 19.6305 21.18C20.9041 20.3081 21.7868 18.9733 22.0905 17.46C22.1572 17.178 22.1941 16.8897 22.2005 16.6C22.1905 15.12 22.1906 13.6 22.1906 12.12Z" fill="white"/>
<path d="M12.0706 18.8895C10.722 18.8895 9.40385 18.4891 8.2831 17.739C7.16235 16.9889 6.28952 15.923 5.77529 14.6763C5.26105 13.4296 5.12853 12.0583 5.39455 10.7362C5.66057 9.41409 6.31315 8.20076 7.26955 7.24998C8.22595 6.2992 9.44311 5.65378 10.7667 5.39555C12.0904 5.13732 13.4608 5.27789 14.7045 5.79946C15.9481 6.32103 17.009 7.20012 17.7525 8.32527C18.4959 9.45041 18.8886 10.771 18.8806 12.1195C18.8701 13.9187 18.1479 15.6406 16.872 16.9091C15.596 18.1776 13.8698 18.8896 12.0706 18.8895V18.8895ZM12.0706 16.8395C13.012 16.8435 13.9336 16.5682 14.7185 16.0484C15.5035 15.5287 16.1167 14.7878 16.4806 13.9196C16.8445 13.0513 16.9427 12.0947 16.763 11.1706C16.5832 10.2464 16.1334 9.3964 15.4705 8.72791C14.8076 8.05943 13.9614 7.60253 13.0388 7.41499C12.1163 7.22744 11.1588 7.31767 10.2875 7.67428C9.41621 8.03089 8.67026 8.63785 8.14394 9.41842C7.61762 10.199 7.33455 11.1181 7.33058 12.0595C7.32525 13.3185 7.81902 14.5284 8.70363 15.4242C9.58824 16.3201 10.7917 16.829 12.0507 16.8395H12.0706Z" fill="white"/>
<path d="M18.8806 7.20996C18.3915 7.17477 17.9337 6.95562 17.5996 6.59661C17.2655 6.23761 17.0798 5.76538 17.0798 5.27496C17.0798 4.78453 17.2655 4.31231 17.5996 3.9533C17.9337 3.5943 18.3915 3.37515 18.8806 3.33996C19.1464 3.32084 19.4133 3.35668 19.6647 3.44526C19.916 3.53384 20.1463 3.67326 20.3414 3.85481C20.5365 4.03636 20.6921 4.25616 20.7985 4.5005C20.9048 4.74484 20.9598 5.00847 20.9598 5.27496C20.9598 5.54145 20.9048 5.80508 20.7985 6.04942C20.6921 6.29375 20.5365 6.51356 20.3414 6.69511C20.1463 6.87666 19.916 7.01608 19.6647 7.10466C19.4133 7.19324 19.1464 7.22908 18.8806 7.20996V7.20996ZM18.8806 6.20996C19.1193 6.20996 19.3482 6.11514 19.517 5.94636C19.6858 5.77758 19.7806 5.54866 19.7806 5.30996C19.7806 5.07127 19.6858 4.84235 19.517 4.67356C19.3482 4.50478 19.1193 4.40995 18.8806 4.40995C18.7621 4.40861 18.6445 4.43098 18.5347 4.47573C18.4249 4.52049 18.3251 4.58673 18.2412 4.67057C18.1574 4.75441 18.0911 4.85417 18.0464 4.96397C18.0016 5.07377 17.9793 5.1914 17.9806 5.30996C17.9908 5.54259 18.0899 5.76244 18.2573 5.92428C18.4247 6.08612 18.6478 6.17762 18.8806 6.17996V6.20996Z" fill="white"/>
</svg>
