<svg width="154" height="134" viewBox="0 0 154 134" fill="none" xmlns="http://www.w3.org/2000/svg">
<g opacity="0.05">
<path d="M60.0726 110.519C60.3989 110.519 60.6254 110.664 60.6254 111.081V116.511C60.6254 118.876 59.3384 120.199 57.2266 120.199C56.4743 120.199 55.5045 120.045 54.8791 119.592C54.5256 119.329 54.3081 118.949 54.3081 118.514C54.3081 118.224 54.4531 117.852 54.7703 117.852C55.0876 117.852 55.7311 118.341 56.6556 118.341C57.5801 118.341 58.3958 117.843 58.3958 116.511V112.287H56.4471C56.1571 112.287 56.0302 112.16 56.0302 111.888V110.927C56.0302 110.646 56.1208 110.519 56.4471 110.519H60.0726V110.519Z" fill="url(#paint0_linear)"/>
<path d="M66.3355 120.146C62.7916 120.146 61.9125 117.581 61.9125 115.315C61.9125 113.049 62.7916 110.375 66.3355 110.375C69.8884 110.375 70.7585 113.049 70.7585 115.315C70.7585 117.581 69.8884 120.146 66.3355 120.146ZM66.3355 118.361C68.2207 118.361 68.6377 116.756 68.6377 115.306C68.6377 113.874 68.2207 112.188 66.3355 112.188C64.4684 112.188 64.0333 113.856 64.0333 115.306C64.0333 116.765 64.4684 118.361 66.3355 118.361Z" fill="url(#paint1_linear)"/>
<path d="M71.964 117.898C72.2541 117.898 72.9429 118.533 74.2571 118.533C75.5351 118.533 75.9339 117.953 75.9339 117.364C75.9339 115.505 71.8915 116.53 71.8915 113.212C71.8915 111.11 73.4867 110.421 75.0003 110.421C75.5804 110.421 76.3871 110.53 76.9762 110.865C77.4656 111.137 77.7375 111.527 77.7375 112.025C77.7375 112.433 77.5563 112.669 77.3387 112.669C77.0125 112.669 76.4052 112.125 75.3266 112.125C74.5743 112.125 73.9852 112.36 73.9852 113.076C73.9852 114.916 78.0276 113.738 78.0276 117.273C78.0276 119.348 76.668 120.237 74.5925 120.237C73.668 120.237 72.7254 120.064 72.1816 119.693C71.8371 119.439 71.6287 119.113 71.6287 118.669C71.6196 118.424 71.6831 117.898 71.964 117.898Z" fill="url(#paint2_linear)"/>
<path d="M79.8947 110.52H82.7407C84.925 110.52 85.922 111.952 85.922 113.747C85.922 115.786 84.6349 116.955 82.7135 116.955H81.5443V119.43C81.5443 119.847 81.3992 119.992 80.9914 119.992H79.8947C79.4868 119.992 79.3327 119.847 79.3327 119.43V111.082C79.3327 110.665 79.4778 110.52 79.8947 110.52ZM81.5443 112.288V115.206H82.3509C83.4567 115.206 83.9461 114.653 83.9461 113.774C83.9461 112.877 83.4476 112.288 82.3509 112.288H81.5443Z" fill="url(#paint3_linear)"/>
<path d="M87.7075 110.52H92.4387C92.7106 110.52 92.901 110.647 92.901 110.901V111.88C92.901 112.161 92.765 112.288 92.4387 112.288H89.3571V114.381H91.623C91.8858 114.381 92.0671 114.508 92.0671 114.762V115.741C92.0671 116.022 91.9402 116.149 91.623 116.149H89.3571V118.243H92.4387C92.7106 118.243 92.901 118.378 92.901 118.641V119.602C92.901 119.874 92.765 120.01 92.4387 120.01H87.7075C87.2906 120.01 87.1456 119.865 87.1456 119.448V111.1C87.1456 110.665 87.2906 110.52 87.7075 110.52Z" fill="url(#paint4_linear)"/>
<path d="M99.7259 120.001C99.2092 120.001 99.0823 119.883 98.7923 119.339L97.3059 116.52H96.4811V119.43C96.4811 119.847 96.3361 119.992 95.9282 119.992H94.8315C94.4146 119.992 94.2696 119.847 94.2696 119.43V111.082C94.2696 110.665 94.4146 110.52 94.8315 110.52H97.6865C99.8437 110.52 100.949 111.807 100.949 113.548C100.949 114.789 100.279 115.705 99.2727 116.176L101.14 119.357C101.249 119.539 101.312 119.656 101.312 119.765C101.312 119.91 101.185 119.992 100.913 119.992H99.7259V120.001ZM96.472 112.17V114.88H97.2877C98.3391 114.88 98.8376 114.354 98.8376 113.566C98.8376 112.714 98.3482 112.17 97.2877 112.17H96.472V112.17Z" fill="url(#paint5_linear)"/>
<path d="M66.0546 133.823C63.1723 133.823 61.3143 132.083 61.3143 128.956C61.3143 125.874 63.127 124.07 66.0546 124.07C66.8975 124.07 67.8854 124.216 68.5289 124.569C69.0184 124.823 69.3084 125.158 69.3084 125.638C69.3084 125.965 69.1724 126.4 68.8733 126.4C68.547 126.4 67.686 125.929 66.4262 125.929C64.7675 125.929 63.5258 126.753 63.5258 128.956C63.5258 131.194 64.8038 131.974 66.399 131.974C66.7706 131.974 67.115 131.938 67.4232 131.865V130.197H66.118C65.837 130.197 65.6739 130.08 65.6739 129.817V128.838C65.6739 128.566 65.8008 128.439 66.1361 128.439H69.0184C69.3446 128.439 69.535 128.584 69.535 129.01V132.699C69.535 133.497 67.8491 133.823 66.0546 133.823Z" fill="url(#paint6_linear)"/>
<path d="M76.4596 133.624C75.9429 133.624 75.816 133.506 75.526 132.962L74.0396 130.143H73.2148V133.053C73.2148 133.47 73.0698 133.615 72.6619 133.615H71.5652C71.1483 133.615 71.0033 133.47 71.0033 133.053V124.705C71.0033 124.288 71.1483 124.143 71.5652 124.143H74.4203C76.5774 124.143 77.6831 125.43 77.6831 127.17C77.6831 128.412 77.0124 129.328 76.0064 129.799L77.8735 132.98C77.9822 133.161 78.0457 133.279 78.0457 133.388C78.0457 133.533 77.9188 133.615 77.6469 133.615H76.4596V133.624ZM73.2148 125.793V128.503H74.0305C75.0819 128.503 75.5804 127.977 75.5804 127.189C75.5804 126.337 75.091 125.793 74.0305 125.793H73.2148V125.793Z" fill="url(#paint7_linear)"/>
<path d="M79.8493 124.143H80.946C81.3539 124.143 81.4989 124.288 81.4989 124.705V133.053C81.4989 133.47 81.3539 133.615 80.946 133.615H79.8493C79.4415 133.615 79.2874 133.47 79.2874 133.053V124.705C79.2874 124.288 79.4324 124.143 79.8493 124.143Z" fill="url(#paint8_linear)"/>
<path d="M83.8555 124.143H84.9522C85.36 124.143 85.5051 124.288 85.5051 124.705V131.748H88.0066C88.2876 131.748 88.4689 131.865 88.4689 132.128V133.207C88.4689 133.479 88.3239 133.615 88.0066 133.615H83.8555C83.4476 133.615 83.2935 133.47 83.2935 133.053V124.705C83.2845 124.288 83.4295 124.143 83.8555 124.143Z" fill="url(#paint9_linear)"/>
<path d="M90.1819 124.143H91.2786C91.6865 124.143 91.8315 124.288 91.8315 124.705V131.748H94.333C94.614 131.748 94.7953 131.865 94.7953 132.128V133.207C94.7953 133.479 94.6503 133.615 94.333 133.615H90.1819C89.774 133.615 89.62 133.47 89.62 133.053V124.705C89.6109 124.288 89.7559 124.143 90.1819 124.143Z" fill="url(#paint10_linear)"/>
<path d="M134.585 121.859L101.493 88.7678C101.049 88.3328 100.342 88.3328 99.9071 88.7678L99.3361 89.3479C97.1881 87.1908 81.4808 71.4926 74.955 64.9668C68.2207 58.2325 63.9065 52.5315 61.1874 46.6946L66.8612 41.0207C67.3053 40.5947 67.3416 39.9059 66.9518 39.5252L40.7489 13.3314C40.3683 12.9326 39.6885 12.9598 39.2534 13.413L20.7818 31.8574C20.3377 32.3015 20.3105 32.9722 20.7093 33.362L46.9031 59.5558C47.2929 59.9546 47.9726 59.9274 48.4077 59.4833L54.145 53.7279C56.2205 54.6162 62.6466 57.9244 72.4897 67.6949C83.6108 78.7435 94.9675 90.1093 96.7711 91.9039L96.0823 92.5746C95.6472 93.0187 95.6472 93.7166 96.0823 94.1607L129.183 127.252C129.618 127.696 130.325 127.696 130.76 127.252L134.585 123.445C135.029 123.01 135.029 122.312 134.585 121.859ZM31.0418 23.6005C31.64 23.0023 32.5192 22.9116 32.9995 23.3829L56.1118 46.5042C56.5921 46.9846 56.4924 47.8547 55.8942 48.4529L55.8489 48.4982C55.2417 49.0873 54.3715 49.1961 53.9002 48.7157L30.788 25.5945C30.3077 25.1232 30.4074 24.2531 30.9965 23.6458L31.0418 23.6005ZM48.6433 55.9938C48.0361 56.6011 47.166 56.6827 46.6947 56.2113L23.5734 33.0901C23.1021 32.6097 23.1927 31.7396 23.8 31.1505L23.8362 31.1051C24.4435 30.5069 25.3045 30.4163 25.7758 30.8876L48.9153 54.0089C49.3866 54.4893 49.2869 55.3503 48.6887 55.9485L48.6433 55.9938ZM52.1691 52.4771C51.5709 53.0844 50.7008 53.175 50.2204 52.6856L27.1082 29.5643C26.6278 29.084 26.7275 28.2139 27.3167 27.6247L27.362 27.5794C27.9602 26.9721 28.8303 26.8815 29.3107 27.3619L52.4229 50.465C52.9032 50.9454 52.8035 51.8155 52.1963 52.4137L52.1691 52.4771ZM59.846 44.8003C59.2478 45.3894 58.3867 45.48 57.9064 45.0178L34.7851 21.8965C34.3047 21.4161 34.4044 20.546 34.9935 19.9388L35.057 19.9025C35.6552 19.3043 36.5253 19.2046 37.0057 19.6759L60.1088 42.7972C60.5892 43.2866 60.4895 44.1386 59.8913 44.7459L59.846 44.8003ZM63.3717 41.2564C62.7735 41.8637 61.8943 41.9452 61.4321 41.4739L38.3108 18.3617C37.8395 17.8995 37.9392 17.0203 38.5284 16.404L38.5737 16.3586C39.1628 15.7604 40.051 15.6789 40.5314 16.1502L63.6436 39.2715C64.1331 39.7518 64.0243 40.631 63.4352 41.2111L63.3717 41.2564Z" fill="url(#paint11_linear)"/>
<path d="M26.4008 127.868L60.4075 93.5346C60.8697 93.0723 60.8697 92.3473 60.4256 91.9122L59.8365 91.3321C62.048 89.0934 78.1994 72.797 84.8974 66.0356C90.7253 60.1533 95.7918 56.0566 100.822 53.1834C103.523 52.5852 107.502 50.6365 113.058 45.3887C124.913 34.2223 134.847 22.1677 134.847 22.1677C111.354 44.5911 107.982 40.7391 107.801 40.4671C107.801 40.4671 103.315 36.887 125.711 13.1675C125.711 13.1675 113.756 23.201 102.698 35.1559C98.4203 39.7783 96.4535 43.4309 95.6649 46.1591C94.0697 49.2317 90.2902 55.1864 82.0967 63.5159C70.7219 75.0448 59.0389 86.8366 57.1899 88.7037L56.492 88.0058C56.0388 87.5707 55.3137 87.5707 54.8696 88.0239L20.8358 122.375C20.3916 122.819 20.3916 123.544 20.8358 123.988L24.7694 127.886C25.2135 128.33 25.9295 128.321 26.4008 127.868Z" fill="url(#paint12_linear)"/>
<path d="M150.808 80.4202H114.916C114.663 80.4202 114.463 80.6286 114.463 80.8824V83.5834C114.463 85.1604 115.75 86.4475 117.327 86.4475H148.407C150.002 86.4475 151.271 85.1695 151.271 83.5834V80.8824C151.271 80.6196 151.062 80.4202 150.808 80.4202Z" fill="url(#paint13_linear)"/>
<path d="M150.881 72.9337H114.844C113.358 72.9337 112.152 74.3023 112.152 75.9791C112.152 77.6559 113.358 79.0245 114.844 79.0245H150.881C152.376 79.0245 153.6 77.6559 153.6 75.9791C153.6 74.3023 152.385 72.9337 150.881 72.9337Z" fill="url(#paint14_linear)"/>
<path d="M114.907 68.5017H150.836C151.089 68.5017 151.289 68.3023 151.289 68.0485C151.289 68.0394 151.289 68.0213 151.289 68.0032C151.289 63.2085 149.404 59.2477 145.851 56.5558C142.588 54.0905 138.092 52.7944 132.872 52.7944C127.642 52.7944 123.155 54.0996 119.902 56.5558C116.34 59.2477 114.445 63.2176 114.445 68.0394C114.436 68.3023 114.654 68.5017 114.907 68.5017Z" fill="url(#paint15_linear)"/>
<path d="M113.122 72.0454H152.63C153.174 72.0454 153.609 71.6103 153.609 71.0665C153.609 70.5227 153.183 70.0876 152.63 70.0876H113.122C112.578 70.0876 112.143 70.5227 112.143 71.0665C112.143 71.6103 112.578 72.0454 113.122 72.0454Z" fill="url(#paint16_linear)"/>
<path d="M131.539 63.3896C131.539 64.0966 130.959 64.6676 130.261 64.6676C129.554 64.6676 128.992 64.0966 128.992 63.3896C128.992 62.6827 129.563 62.1207 130.261 62.1207C130.959 62.1207 131.539 62.6827 131.539 63.3896Z" fill="white"/>
<path d="M126.319 63.3896C126.319 64.0966 125.748 64.6676 125.041 64.6676C124.334 64.6676 123.763 64.0966 123.763 63.3896C123.763 62.6827 124.325 62.1207 125.041 62.1207C125.748 62.1207 126.319 62.6827 126.319 63.3896Z" fill="white"/>
<path d="M136.76 63.3896C136.76 64.0966 136.189 64.6676 135.482 64.6676C134.775 64.6676 134.213 64.0966 134.213 63.3896C134.213 62.6827 134.784 62.1207 135.482 62.1207C136.189 62.1207 136.76 62.6827 136.76 63.3896Z" fill="white"/>
<path d="M141.98 63.3896C141.98 64.0966 141.41 64.6676 140.703 64.6676C139.996 64.6676 139.434 64.0966 139.434 63.3896C139.434 62.6827 140.005 62.1207 140.703 62.1207C141.4 62.1207 141.98 62.6827 141.98 63.3896Z" fill="white"/>
<path d="M128.702 57.9062C128.702 58.6132 128.131 59.1751 127.424 59.1751C126.717 59.1751 126.146 58.6041 126.146 57.9062C126.146 57.1992 126.717 56.6282 127.424 56.6282C128.14 56.6282 128.702 57.1992 128.702 57.9062Z" fill="white"/>
<path d="M134.15 57.9062C134.15 58.6132 133.569 59.1751 132.872 59.1751C132.165 59.1751 131.603 58.6041 131.603 57.9062C131.603 57.1992 132.174 56.6282 132.872 56.6282C133.569 56.6282 134.15 57.1992 134.15 57.9062Z" fill="white"/>
<path d="M139.588 57.9062C139.588 58.6132 139.017 59.1751 138.319 59.1751C137.612 59.1751 137.041 58.6041 137.041 57.9062C137.041 57.1992 137.612 56.6282 138.319 56.6282C139.017 56.6282 139.588 57.1992 139.588 57.9062Z" fill="white"/>
<path d="M105.264 13.277C104.221 19.6034 101.811 23.1473 97.0793 24.9691C90.2907 27.5794 83.5383 30.2803 76.7496 32.9179C72.2269 34.6762 68.2661 33.3439 66.2902 29.4465C64.1421 25.2138 65.411 21.1895 69.6256 18.5702C75.4717 14.9357 80.8101 10.6576 84.635 4.87504C89.8012 -2.93779 100.079 -0.572189 103.36 6.41586C104.548 8.93554 104.883 11.845 105.264 13.277ZM94.2968 1.51244C91.0792 1.13177 88.3692 2.21034 86.5474 4.8116C82.0246 11.2558 76.2149 16.2317 69.5622 20.3285C66.7706 22.0506 66.0092 25.3497 67.5138 28.5311C69.0002 31.6671 72.0728 33.1263 75.2088 31.9299C82.641 29.1021 90.055 26.247 97.4147 23.247C101.829 21.4524 104.24 16.3768 103.46 11.1561C102.681 5.95361 98.9827 2.06532 94.2968 1.51244Z" fill="url(#paint17_linear)"/>
<path d="M94.3058 1.51242C98.9826 2.0653 102.69 5.9536 103.469 11.1561C104.258 16.3677 101.838 21.4524 97.4237 23.247C90.064 26.238 82.65 29.1021 75.2178 31.9299C72.0818 33.1172 69.0093 31.6671 67.5228 28.5311C66.0183 25.3497 66.7706 22.0506 69.5712 20.3285C76.2239 16.2317 82.0337 11.2649 86.5564 4.81158C88.3782 2.20126 91.0882 1.13175 94.3058 1.51242ZM92.5021 2.89009C90.6169 2.98979 89.6018 3.58799 88.9311 5.13787C85.7226 12.5066 82.4053 19.8209 79.1333 27.1534C78.8705 27.7425 78.6801 28.3588 78.4082 29.0839C80.4475 28.9299 81.4445 27.9419 82.1152 26.3014C83.3842 23.2198 84.8162 20.2016 86.1757 17.1562C88.2513 12.4794 90.3269 7.79351 92.5021 2.89009ZM86.0398 8.40983C79.0608 14.3556 77.5834 23.1654 73.4867 30.6066C73.813 30.8423 74.1393 31.0689 74.4565 31.3045C75.381 30.2894 76.5411 29.4012 77.1665 28.2229C78.4717 25.7576 79.4959 23.1382 80.6288 20.5823C82.4415 16.5218 84.2361 12.4613 86.0398 8.40983ZM101.158 7.16812C100.795 7.13186 100.433 7.10467 100.07 7.06842C97.6684 12.4613 95.2665 17.8632 92.7378 23.537C95.6382 22.7031 95.6382 22.7122 96.5989 20.5823C98.0581 17.3284 99.608 14.1199 100.904 10.8117C101.321 9.72406 101.085 8.38264 101.158 7.16812ZM78.662 16.0142C78.5261 15.8511 78.381 15.697 78.2451 15.5338C77.0487 16.7393 75.5169 17.7635 74.7375 19.2046C73.1423 22.114 72.0003 25.2591 70.5863 28.2682C69.8522 29.8362 70.3597 30.4888 72.1 30.6882C74.2933 25.7757 76.4777 20.8904 78.662 16.0142ZM89.8012 12.1622C87.5262 17.2559 85.3691 22.0959 83.2029 26.9359C83.357 27.0809 83.502 27.2168 83.6561 27.3618C84.5171 26.8633 85.9038 26.5371 86.1395 25.8301C87.6259 21.4524 91.7771 17.7907 89.8012 12.1622ZM94.3421 17.12C94.197 16.8843 94.043 16.6396 93.8979 16.4039C93.1275 16.6305 91.9221 16.6305 91.6683 17.12C90.3359 19.694 89.2392 22.3859 87.8616 25.4857C92.8556 24.244 92.0943 19.6215 94.3421 17.12ZM90.1365 11.4552C94.2514 8.36452 95.2394 6.95966 95.9735 3.35234C94.7952 2.6635 93.9342 2.70882 93.336 4.17713C92.4115 6.47928 91.342 8.72706 90.1365 11.4552ZM72.7253 20.3104C68.266 21.8421 67.0425 24.4796 69.1271 28.3679C70.3688 25.5854 71.5018 23.0476 72.7253 20.3104ZM97.6322 4.28589C94.8587 8.14699 94.6049 9.73312 96.5445 11.1833C99.3542 7.0231 99.608 5.41884 97.6322 4.28589ZM102.309 12.6063C102.11 12.5247 101.901 12.4522 101.702 12.3706C100.397 15.2982 99.1005 18.2167 97.7953 21.1442C101.203 19.1502 102.418 16.1773 102.309 12.6063ZM93.6895 10.1682C92.6018 11.5187 91.5414 12.2619 91.5142 13.0504C91.487 13.7483 92.7015 15.135 93.2091 15.0625C94.052 14.9447 95.1397 14.0202 95.3934 13.2135C95.5747 12.6153 94.5777 11.6637 93.6895 10.1682Z" fill="white"/>
<path d="M92.5022 2.8902C90.3269 7.79361 88.2513 12.4795 86.1667 17.1563C84.8072 20.2017 83.3751 23.2199 82.1062 26.3015C81.4355 27.933 80.4385 28.9209 78.3992 29.084C78.6711 28.3589 78.8614 27.7426 79.1243 27.1535C82.3962 19.812 85.7226 12.4976 88.922 5.13797C89.6018 3.57903 90.6079 2.98083 92.5022 2.8902Z" fill="url(#paint18_linear)"/>
<path d="M86.0398 8.40985C84.2362 12.4613 82.4325 16.5218 80.6288 20.5732C79.4959 23.1292 78.4717 25.7485 77.1665 28.2138C76.5412 29.3921 75.381 30.2713 74.4565 31.2955C74.1302 31.0598 73.804 30.8332 73.4867 30.5976C77.5835 23.1654 79.0608 14.3556 86.0398 8.40985Z" fill="url(#paint19_linear)"/>
<path d="M101.158 7.16827C101.094 8.39186 101.33 9.72421 100.904 10.8028C99.6081 14.111 98.0491 17.3286 96.5989 20.5734C95.6473 22.7033 95.6382 22.7033 92.7378 23.5281C95.2666 17.8543 97.6684 12.4524 100.07 7.05951C100.424 7.10483 100.786 7.13202 101.158 7.16827Z" fill="url(#paint20_linear)"/>
<path d="M78.662 16.0143C76.4777 20.8905 74.2934 25.7668 72.0909 30.6883C70.3507 30.4889 69.8431 29.8363 70.5773 28.2683C71.9912 25.2592 73.1423 22.1051 74.7284 19.2047C75.5169 17.7726 77.0487 16.7485 78.236 15.5339C78.381 15.6971 78.517 15.8602 78.662 16.0143Z" fill="url(#paint21_linear)"/>
<path d="M89.8013 12.1622C91.7681 17.7907 87.6169 21.4524 86.1486 25.8302C85.913 26.5371 84.5172 26.8634 83.6652 27.3619C83.5111 27.2169 83.3661 27.0809 83.212 26.9359C85.3691 22.0959 87.5354 17.256 89.8013 12.1622Z" fill="url(#paint22_linear)"/>
<path d="M94.3421 17.12C92.0943 19.6216 92.8556 24.244 87.8616 25.4767C89.2393 22.386 90.336 19.685 91.6683 17.111C91.9221 16.6215 93.1275 16.6215 93.898 16.395C94.052 16.6397 94.1971 16.8753 94.3421 17.12Z" fill="url(#paint23_linear)"/>
<path d="M90.1366 11.4552C91.3511 8.72708 92.4116 6.47931 93.3451 4.17715C93.9343 2.70884 94.8044 2.66352 95.9826 3.35236C95.2304 6.95061 94.2515 8.35547 90.1366 11.4552Z" fill="url(#paint24_linear)"/>
<path d="M72.7254 20.3104C71.5018 23.0476 70.3688 25.5854 69.1271 28.368C67.0515 24.4797 68.2751 21.8422 72.7254 20.3104Z" fill="url(#paint25_linear)"/>
<path d="M97.6322 4.28595C99.6081 5.42796 99.3543 7.03222 96.5446 11.1834C94.614 9.72412 94.8587 8.14705 97.6322 4.28595Z" fill="url(#paint26_linear)"/>
<path d="M102.218 14.138C102.59 16.694 101.965 18.9236 99.6806 20.6276C100.369 18.4251 101.067 16.2227 101.756 14.0202C101.91 14.0565 102.064 14.0927 102.218 14.138Z" fill="url(#paint27_linear)"/>
<path d="M93.6895 10.1683C94.5778 11.6547 95.5748 12.6154 95.3935 13.2046C95.1397 14.0203 94.043 14.9357 93.2091 15.0536C92.7016 15.1261 91.4871 13.7393 91.5143 13.0414C91.5414 12.262 92.611 11.5188 93.6895 10.1683Z" fill="url(#paint28_linear)"/>
<path d="M17.111 76.0606C17.6277 76.5319 18.0627 76.9397 18.525 77.3385C19.8936 78.5168 21.1081 78.5077 22.522 77.3838C23.1565 76.8763 23.8363 76.3869 24.5704 76.0515C26.655 75.0908 28.5856 75.5983 30.0448 77.3476C30.4164 77.7917 30.8696 78.1543 31.2412 78.5893C31.3681 78.7343 31.4316 79.0062 31.3953 79.2056C30.8787 82.4504 30.3258 85.6861 29.8273 88.9309C29.6823 89.8735 29.1928 90.5623 28.3681 90.8614C26.6822 91.4687 24.9873 92.1394 23.2381 92.4294C18.5431 93.218 13.8481 93.1092 9.21664 91.9038C8.7544 91.7859 8.31028 91.6047 7.8571 91.4506C6.19846 90.8796 5.23772 89.9007 5.00206 87.9883C4.57607 84.6076 3.83286 81.2631 3.20747 77.9005C3.10777 77.3838 3.09871 77.0213 3.67878 76.7494C4.47638 76.3778 5.1924 75.7977 6.00813 75.4805C6.86917 75.1451 7.68489 75.408 8.31028 76.124C8.82691 76.7222 9.3526 77.3204 9.90548 77.9005C10.3224 78.3355 10.7575 78.7796 11.2378 79.1422C12.6971 80.248 14.2288 80.0214 15.3255 78.544C15.6609 78.0999 15.9056 77.5923 16.2228 77.1391C16.4766 76.7857 16.7757 76.4684 17.111 76.0606ZM9.19852 88.523C9.14413 88.1877 9.11694 88.0245 9.08975 87.8704C8.60938 84.9248 8.11995 81.9791 7.63958 79.0334C7.56707 78.5984 7.52175 78.1089 6.94168 78.1814C6.28003 78.2721 6.42505 78.8068 6.49756 79.251C6.7876 81.0546 7.07763 82.8492 7.37673 84.6438C7.57613 85.8674 7.74834 87.1 8.00212 88.3146C8.0565 88.5774 8.37373 88.8765 8.63657 88.9671C8.77253 89.0125 9.04444 88.6499 9.19852 88.523ZM25.7034 88.3689C25.8212 88.4958 26.0206 88.7134 26.22 88.9309C26.4466 88.7224 26.8182 88.5412 26.8635 88.3055C27.4164 85.1876 27.933 82.0607 28.4134 78.9247C28.4496 78.6799 28.1415 78.3899 27.9874 78.118C27.7608 78.3174 27.3892 78.4715 27.3257 78.7071C27.1263 79.4141 27.0448 80.1573 26.9269 80.8824C26.5372 83.3115 26.1384 85.7314 25.7034 88.3689ZM22.1685 82.4957C22.1776 82.4957 22.1867 82.4957 22.1867 82.4957C22.2229 81.8885 22.3136 81.2812 22.2592 80.6739C22.232 80.3839 21.9873 79.9217 21.7697 79.8763C21.2622 79.7676 21.1534 80.2117 21.1262 80.6468C20.9721 82.9127 20.8181 85.1786 20.664 87.4445C20.6277 88.0245 20.519 88.6137 20.5734 89.1847C20.5915 89.4385 20.9268 89.665 21.1081 89.9007C21.3075 89.7013 21.5703 89.5291 21.6972 89.2844C21.7969 89.094 21.7516 88.8221 21.7697 88.5865C21.9057 86.5562 22.0326 84.526 22.1685 82.4957ZM14.818 88.1605C14.8089 88.1605 14.7998 88.1605 14.7908 88.1605C14.682 86.2299 14.5732 84.3084 14.4645 82.3779C14.4373 81.961 14.401 81.5259 13.8572 81.535C13.2318 81.544 13.2862 82.0425 13.3043 82.4685C13.3768 84.0275 13.4584 85.5864 13.54 87.1454C13.5762 87.7798 13.6306 88.4143 13.6578 89.0487C13.6759 89.4928 13.7031 89.9823 14.2741 89.9823C14.8723 89.9823 14.8451 89.4838 14.827 89.0397C14.8089 88.7406 14.818 88.4505 14.818 88.1605Z" fill="url(#paint29_linear)"/>
<path d="M33.8606 72.399C33.7609 73.9761 33.4346 75.4716 32.6914 76.8492C32.2292 77.7103 31.8032 77.7284 31.2231 76.9852C29.0116 74.1392 26.084 73.6226 23.0296 75.526C22.7124 75.7254 22.4133 75.9429 22.1232 76.1695C20.5915 77.3749 20.2108 77.3659 18.8241 76.0335C18.5975 75.816 18.3709 75.5894 18.1171 75.39C17.383 74.8099 16.7123 74.8099 16.0687 75.4988C15.5702 76.0335 15.1533 76.6589 14.7636 77.2934C13.7485 78.952 12.7968 79.1151 11.401 77.7828C10.7575 77.1574 10.1865 76.4595 9.5792 75.7888C7.82992 73.8492 5.49151 73.7042 3.47033 75.4081C2.54584 76.1876 2.43707 76.1695 1.87513 75.0546C1.37663 74.0576 0.82375 73.0878 0.415888 72.0546C-0.218565 70.4503 0.180234 69.6527 1.74824 68.973C2.04734 68.8461 2.31925 68.6014 2.54584 68.3566C3.86006 66.8974 5.43713 66.4623 7.28611 67.1512C7.8843 67.3687 8.4825 67.5953 9.04445 67.8944C11.8995 69.4171 14.8995 69.5893 17.9993 68.9276C20.4827 68.3929 22.9571 67.8038 25.4586 67.3596C26.7004 67.1421 27.9965 67.0968 29.2563 67.1331C31.9935 67.2237 33.3712 68.5379 33.7156 71.2389C33.7881 71.6286 33.8244 72.0274 33.8606 72.399Z" fill="url(#paint30_linear)"/>
<path d="M9.43418 60.5618C10.9115 64.2778 13.5853 65.9274 16.8391 65.1661C20.0839 64.4138 21.7154 61.6857 21.3619 57.6161C25.1867 57.2173 30.3167 61.0784 30.3077 66.1178C25.794 65.5377 21.5885 67.1873 17.2651 67.9486C14.6548 68.4018 12.1714 68.2386 9.76047 67.0241C8.17433 66.2175 6.54288 65.4833 4.67578 65.8368C4.29511 63.8337 6.95981 60.879 9.43418 60.5618Z" fill="url(#paint31_linear)"/>
<path d="M19.2138 55.7037C18.7153 55.7672 18.3709 55.7762 18.0537 55.8669C17.809 55.9394 17.4917 56.0663 17.4011 56.2657C17.1473 56.8095 17.8361 57.8609 18.4525 57.8609C18.6519 57.8609 18.8966 57.6615 19.0507 57.4892C19.3135 57.1901 19.5129 56.8457 19.7939 56.456C21.3438 58.7944 20.7002 61.8851 18.5069 63.4803C16.241 65.1299 13.0959 64.6858 11.3285 62.4742C9.60639 60.3171 9.89642 57.1358 11.9811 55.314C14.0476 53.5103 17.1836 53.5919 19.2138 55.7037Z" fill="url(#paint32_linear)"/>
<path d="M18.1081 56.7008C19.5401 55.45 21.2622 54.9424 23.1746 55.0512C24.8423 55.1509 26.4919 55.9575 26.7366 56.9364C23.8 55.0965 20.9812 55.2143 18.2259 57.163C18.1897 57.0089 18.1534 56.8548 18.1081 56.7008Z" fill="url(#paint33_linear)"/>
<path d="M9.19854 88.5231C9.05352 88.6409 8.77255 89.0125 8.62753 88.9672C8.36469 88.8765 8.04746 88.5774 7.99308 88.3146C7.7393 87.1001 7.56709 85.8674 7.36769 84.6438C7.07766 82.8492 6.78762 81.0546 6.49759 79.251C6.42508 78.8069 6.28006 78.2721 6.9417 78.1905C7.52177 78.118 7.57616 78.6075 7.6396 79.0425C8.11997 81.9882 8.60034 84.9339 9.08978 87.8795C9.10791 88.0336 9.1351 88.1877 9.19854 88.5231Z" fill="white"/>
<path d="M25.7034 88.3691C26.1384 85.7406 26.5282 83.3116 26.927 80.8916C27.0448 80.1574 27.1264 79.4233 27.3258 78.7163C27.3892 78.4716 27.7608 78.3175 27.9874 78.1272C28.1324 78.3991 28.4496 78.6891 28.4134 78.9339C27.933 82.0699 27.4164 85.1968 26.8635 88.3147C26.8182 88.5504 26.4375 88.7316 26.22 88.9401C26.0206 88.7044 25.8212 88.4869 25.7034 88.3691Z" fill="white"/>
<path d="M22.1685 82.4958C22.0416 84.526 21.9057 86.5562 21.7788 88.5865C21.7607 88.8222 21.806 89.0941 21.7063 89.2844C21.5794 89.5291 21.3166 89.7013 21.1172 89.9007C20.9268 89.6651 20.6005 89.4385 20.5824 89.1847C20.5371 88.6137 20.6368 88.0246 20.673 87.4445C20.8271 85.1786 20.9812 82.9127 21.1353 80.6468C21.1625 80.2117 21.2712 79.7676 21.7788 79.8764C21.9963 79.9217 22.241 80.3839 22.2682 80.674C22.3226 81.2722 22.232 81.8885 22.1957 82.4958C22.1776 82.4958 22.1685 82.4958 22.1685 82.4958Z" fill="white"/>
<path d="M14.818 88.1605C14.818 88.4505 14.8089 88.7405 14.818 89.0306C14.8361 89.4747 14.8633 89.9641 14.2651 89.9732C13.6941 89.9732 13.676 89.4837 13.6488 89.0396C13.6216 88.4052 13.5672 87.7707 13.5309 87.1363C13.4494 85.5773 13.3678 84.0184 13.2953 82.4595C13.2772 82.0335 13.2228 81.535 13.8482 81.5259C14.392 81.5168 14.4282 81.9519 14.4554 82.3688C14.5642 84.2994 14.6729 86.2209 14.7817 88.1514C14.7998 88.1605 14.8089 88.1605 14.818 88.1605Z" fill="white"/>
</g>
<defs>
<linearGradient id="paint0_linear" x1="41.2754" y1="138.424" x2="76.8013" y2="88.3324" gradientUnits="userSpaceOnUse">
<stop offset="0.0289" stop-color="#3A7539"/>
<stop offset="1" stop-color="#0B4E30"/>
</linearGradient>
<linearGradient id="paint1_linear" x1="47.035" y1="142.51" x2="82.561" y2="92.4183" gradientUnits="userSpaceOnUse">
<stop offset="0.0289" stop-color="#3A7539"/>
<stop offset="1" stop-color="#0B4E30"/>
</linearGradient>
<linearGradient id="paint2_linear" x1="52.766" y1="146.575" x2="88.292" y2="96.4829" gradientUnits="userSpaceOnUse">
<stop offset="0.0289" stop-color="#3A7539"/>
<stop offset="1" stop-color="#0B4E30"/>
</linearGradient>
<linearGradient id="paint3_linear" x1="56.7371" y1="149.391" x2="92.2631" y2="99.299" gradientUnits="userSpaceOnUse">
<stop offset="0.0289" stop-color="#3A7539"/>
<stop offset="1" stop-color="#0B4E30"/>
</linearGradient>
<linearGradient id="paint4_linear" x1="62.7919" y1="153.685" x2="98.3179" y2="103.593" gradientUnits="userSpaceOnUse">
<stop offset="0.0289" stop-color="#3A7539"/>
<stop offset="1" stop-color="#0B4E30"/>
</linearGradient>
<linearGradient id="paint5_linear" x1="67.9797" y1="157.364" x2="103.506" y2="107.273" gradientUnits="userSpaceOnUse">
<stop offset="0.0289" stop-color="#3A7539"/>
<stop offset="1" stop-color="#0B4E30"/>
</linearGradient>
<linearGradient id="paint6_linear" x1="53.3508" y1="146.989" x2="88.8768" y2="96.8975" gradientUnits="userSpaceOnUse">
<stop offset="0.0289" stop-color="#3A7539"/>
<stop offset="1" stop-color="#0B4E30"/>
</linearGradient>
<linearGradient id="paint7_linear" x1="58.929" y1="150.945" x2="94.4549" y2="100.854" gradientUnits="userSpaceOnUse">
<stop offset="0.0289" stop-color="#3A7539"/>
<stop offset="1" stop-color="#0B4E30"/>
</linearGradient>
<linearGradient id="paint8_linear" x1="62.8009" y1="153.692" x2="98.3269" y2="103.6" gradientUnits="userSpaceOnUse">
<stop offset="0.0289" stop-color="#3A7539"/>
<stop offset="1" stop-color="#0B4E30"/>
</linearGradient>
<linearGradient id="paint9_linear" x1="66.4579" y1="156.285" x2="101.984" y2="106.193" gradientUnits="userSpaceOnUse">
<stop offset="0.0289" stop-color="#3A7539"/>
<stop offset="1" stop-color="#0B4E30"/>
</linearGradient>
<linearGradient id="paint10_linear" x1="70.6681" y1="159.271" x2="106.194" y2="109.179" gradientUnits="userSpaceOnUse">
<stop offset="0.0289" stop-color="#3A7539"/>
<stop offset="1" stop-color="#0B4E30"/>
</linearGradient>
<linearGradient id="paint11_linear" x1="20.4278" y1="70.3178" x2="134.92" y2="70.3178" gradientUnits="userSpaceOnUse">
<stop offset="0.0289" stop-color="#3A7539"/>
<stop offset="1" stop-color="#0B4E30"/>
</linearGradient>
<linearGradient id="paint12_linear" x1="20.5055" y1="70.6874" x2="134.842" y2="70.6874" gradientUnits="userSpaceOnUse">
<stop offset="0.0289" stop-color="#3A7539"/>
<stop offset="1" stop-color="#0B4E30"/>
</linearGradient>
<linearGradient id="paint13_linear" x1="114.465" y1="83.4286" x2="151.27" y2="83.4286" gradientUnits="userSpaceOnUse">
<stop offset="0.0289" stop-color="#3A7539"/>
<stop offset="1" stop-color="#0B4E30"/>
</linearGradient>
<linearGradient id="paint14_linear" x1="112.157" y1="75.9773" x2="153.601" y2="75.9773" gradientUnits="userSpaceOnUse">
<stop offset="0.0289" stop-color="#3A7539"/>
<stop offset="1" stop-color="#0B4E30"/>
</linearGradient>
<linearGradient id="paint15_linear" x1="114.439" y1="60.65" x2="151.291" y2="60.65" gradientUnits="userSpaceOnUse">
<stop offset="0.0289" stop-color="#3A7539"/>
<stop offset="1" stop-color="#0B4E30"/>
</linearGradient>
<linearGradient id="paint16_linear" x1="112.141" y1="71.0721" x2="153.601" y2="71.0721" gradientUnits="userSpaceOnUse">
<stop offset="0.0289" stop-color="#3A7539"/>
<stop offset="1" stop-color="#0B4E30"/>
</linearGradient>
<linearGradient id="paint17_linear" x1="65.2628" y1="16.8433" x2="105.262" y2="16.8433" gradientUnits="userSpaceOnUse">
<stop offset="0.0289" stop-color="#3A7539"/>
<stop offset="1" stop-color="#0B4E30"/>
</linearGradient>
<linearGradient id="paint18_linear" x1="78.4005" y1="15.9852" x2="92.4995" y2="15.9852" gradientUnits="userSpaceOnUse">
<stop offset="0.0289" stop-color="#3A7539"/>
<stop offset="1" stop-color="#0B4E30"/>
</linearGradient>
<linearGradient id="paint19_linear" x1="73.4861" y1="19.8533" x2="86.0435" y2="19.8533" gradientUnits="userSpaceOnUse">
<stop offset="0.0289" stop-color="#3A7539"/>
<stop offset="1" stop-color="#0B4E30"/>
</linearGradient>
<linearGradient id="paint20_linear" x1="92.731" y1="15.3005" x2="101.16" y2="15.3005" gradientUnits="userSpaceOnUse">
<stop offset="0.0289" stop-color="#3A7539"/>
<stop offset="1" stop-color="#0B4E30"/>
</linearGradient>
<linearGradient id="paint21_linear" x1="70.2509" y1="23.1144" x2="78.6581" y2="23.1144" gradientUnits="userSpaceOnUse">
<stop offset="0.0289" stop-color="#3A7539"/>
<stop offset="1" stop-color="#0B4E30"/>
</linearGradient>
<linearGradient id="paint22_linear" x1="83.2106" y1="19.761" x2="90.3255" y2="19.761" gradientUnits="userSpaceOnUse">
<stop offset="0.0289" stop-color="#3A7539"/>
<stop offset="1" stop-color="#0B4E30"/>
</linearGradient>
<linearGradient id="paint23_linear" x1="87.8656" y1="20.9386" x2="94.346" y2="20.9386" gradientUnits="userSpaceOnUse">
<stop offset="0.0289" stop-color="#3A7539"/>
<stop offset="1" stop-color="#0B4E30"/>
</linearGradient>
<linearGradient id="paint24_linear" x1="90.1322" y1="7.18826" x2="95.9716" y2="7.18826" gradientUnits="userSpaceOnUse">
<stop offset="0.0289" stop-color="#3A7539"/>
<stop offset="1" stop-color="#0B4E30"/>
</linearGradient>
<linearGradient id="paint25_linear" x1="68.1445" y1="24.3386" x2="72.7286" y2="24.3386" gradientUnits="userSpaceOnUse">
<stop offset="0.0289" stop-color="#3A7539"/>
<stop offset="1" stop-color="#0B4E30"/>
</linearGradient>
<linearGradient id="paint26_linear" x1="95.2875" y1="7.73121" x2="98.9168" y2="7.73121" gradientUnits="userSpaceOnUse">
<stop offset="0.0289" stop-color="#3A7539"/>
<stop offset="1" stop-color="#0B4E30"/>
</linearGradient>
<linearGradient id="paint27_linear" x1="102.313" y1="17.3207" x2="99.6769" y2="17.3207" gradientUnits="userSpaceOnUse">
<stop offset="0.0289" stop-color="#3A7539"/>
<stop offset="1" stop-color="#0B4E30"/>
</linearGradient>
<linearGradient id="paint28_linear" x1="91.514" y1="12.6164" x2="95.4159" y2="12.6164" gradientUnits="userSpaceOnUse">
<stop offset="0.0289" stop-color="#3A7539"/>
<stop offset="1" stop-color="#0B4E30"/>
</linearGradient>
<linearGradient id="paint29_linear" x1="3.17067" y1="84.1338" x2="31.4081" y2="84.1338" gradientUnits="userSpaceOnUse">
<stop offset="0.0289" stop-color="#3A7539"/>
<stop offset="1" stop-color="#0B4E30"/>
</linearGradient>
<linearGradient id="paint30_linear" x1="0.153043" y1="72.7475" x2="33.8617" y2="72.7475" gradientUnits="userSpaceOnUse">
<stop offset="0.0289" stop-color="#3A7539"/>
<stop offset="1" stop-color="#0B4E30"/>
</linearGradient>
<linearGradient id="paint31_linear" x1="4.63971" y1="62.8861" x2="30.3031" y2="62.8861" gradientUnits="userSpaceOnUse">
<stop offset="0.0289" stop-color="#3A7539"/>
<stop offset="1" stop-color="#0B4E30"/>
</linearGradient>
<linearGradient id="paint32_linear" x1="10.2003" y1="59.2608" x2="20.6438" y2="59.2608" gradientUnits="userSpaceOnUse">
<stop offset="0.0289" stop-color="#3A7539"/>
<stop offset="1" stop-color="#0B4E30"/>
</linearGradient>
<linearGradient id="paint33_linear" x1="18.1114" y1="56.0992" x2="26.7404" y2="56.0992" gradientUnits="userSpaceOnUse">
<stop offset="0.0289" stop-color="#3A7539"/>
<stop offset="1" stop-color="#0B4E30"/>
</linearGradient>
</defs>
</svg>
