<svg width="115" height="116" viewBox="0 0 115 116" fill="none" xmlns="http://www.w3.org/2000/svg">
<g opacity="0.05">
<path d="M114.585 108.859L81.4932 75.7678C81.0491 75.3328 80.3422 75.3328 79.9071 75.7678L79.3361 76.3479C77.188 74.1908 61.4808 58.4926 54.955 51.9668C48.2207 45.2325 43.9064 39.5315 41.1874 33.6946L46.8612 28.0207C47.3053 27.5947 47.3416 26.9059 46.9518 26.5252L20.7489 0.331399C20.3682 -0.0673996 19.6885 -0.0402087 19.2534 0.412972L0.781783 18.8574C0.337666 19.3015 0.310475 19.9722 0.709274 20.362L26.9031 46.5558C27.2929 46.9546 27.9726 46.9274 28.4077 46.4833L34.1449 40.7279C36.2205 41.6161 42.6466 44.9244 52.4897 54.6949C63.6107 65.7435 74.9675 77.1093 76.7711 78.9039L76.0823 79.5746C75.6472 80.0187 75.6472 80.7166 76.0823 81.1607L109.183 114.252C109.618 114.696 110.325 114.696 110.76 114.252L114.585 110.445C115.029 110.01 115.029 109.312 114.585 108.859ZM11.0418 10.6005C11.64 10.0023 12.5192 9.91164 12.9995 10.3829L36.1117 33.5042C36.5921 33.9846 36.4924 34.8547 35.8942 35.4529L35.8489 35.4982C35.2416 36.0873 34.3715 36.1961 33.9002 35.7157L10.788 12.5945C10.3076 12.1232 10.4073 11.2531 10.9965 10.6458L11.0418 10.6005ZM28.6433 42.9938C28.0361 43.6011 27.166 43.6827 26.6946 43.2113L3.57338 20.0901C3.10207 19.6097 3.1927 18.7396 3.79997 18.1505L3.83622 18.1051C4.44348 17.5069 5.30453 17.4163 5.77583 17.8876L28.9152 41.0089C29.3865 41.4893 29.2868 42.3503 28.6886 42.9485L28.6433 42.9938ZM32.1691 39.4771C31.5709 40.0844 30.7008 40.175 30.2204 39.6856L7.10818 16.5643C6.62781 16.084 6.72751 15.2139 7.31665 14.6247L7.36197 14.5794C7.96016 13.9721 8.83027 13.8815 9.31064 14.3619L32.4229 37.465C32.9032 37.9454 32.8035 38.8155 32.1963 39.4137L32.1691 39.4771ZM39.846 31.8003C39.2478 32.3894 38.3867 32.48 37.9063 32.0178L14.7851 8.89651C14.3047 8.41614 14.4044 7.54603 14.9935 6.93877L15.057 6.90252C15.6552 6.30432 16.5253 6.20462 17.0056 6.67593L40.1088 29.7972C40.5892 30.2866 40.4895 31.1386 39.8913 31.7459L39.846 31.8003ZM43.3717 28.2564C42.7735 28.8637 41.8943 28.9452 41.4321 28.4739L18.3108 5.3617C17.8395 4.89946 17.9392 4.02029 18.5283 3.40396L18.5737 3.35864C19.1628 2.76045 20.051 2.67887 20.5314 3.15018L43.6436 26.2715C44.133 26.7518 44.0243 27.631 43.4351 28.2111L43.3717 28.2564Z" fill="url(#paint0_linear)"/>
<path d="M6.4008 114.868L40.4075 80.5346C40.8697 80.0723 40.8697 79.3473 40.4256 78.9122L39.8365 78.3321C42.048 76.0934 58.1993 59.797 64.8973 53.0356C70.7253 47.1533 75.7918 43.0566 80.8221 40.1834C83.5231 39.5852 87.502 37.6365 93.058 32.3887C104.913 21.2223 114.847 9.16771 114.847 9.16771C91.354 31.5911 87.9824 27.739 87.8011 27.4671C87.8011 27.4671 83.3146 23.887 105.711 0.167542C105.711 0.167542 93.7559 10.201 82.6983 22.1559C78.4203 26.7783 76.4535 30.4309 75.6649 33.1591C74.0697 36.2317 70.2902 42.1864 62.0967 50.5159C50.7219 62.0448 39.0389 73.8366 37.1899 75.7037L36.492 75.0058C36.0388 74.5707 35.3137 74.5707 34.8696 75.0239L0.835743 109.375C0.391626 109.819 0.391626 110.544 0.835743 110.988L4.76935 114.886C5.21347 115.33 5.92949 115.321 6.4008 114.868Z" fill="url(#paint1_linear)"/>
</g>
<defs>
<linearGradient id="paint0_linear" x1="0.427758" y1="57.3178" x2="114.92" y2="57.3178" gradientUnits="userSpaceOnUse">
<stop offset="0.0289" stop-color="#3A7539"/>
<stop offset="1" stop-color="#0B4E30"/>
</linearGradient>
<linearGradient id="paint1_linear" x1="0.505465" y1="57.6874" x2="114.842" y2="57.6874" gradientUnits="userSpaceOnUse">
<stop offset="0.0289" stop-color="#3A7539"/>
<stop offset="1" stop-color="#0B4E30"/>
</linearGradient>
</defs>
</svg>
