<svg width="100" height="134" viewBox="0 0 100 134" fill="none" xmlns="http://www.w3.org/2000/svg">
<g opacity="0.05">
<path d="M95.5823 29.963C95.3088 32.9907 94.0096 36.7414 95.343 39.7606C106.771 55.0608 92.1634 51.6504 95.1549 64.3481C95.3772 66.0831 95.7874 67.7841 95.2917 69.5701C94.2746 72.9465 90.3172 73.8566 87.5479 75.9062C84.847 77.7688 84.4196 80.7455 83.4025 83.7562C81.4196 91.4871 74.2057 87.796 69.727 90.2454C57.6755 101.081 62.9576 97.2279 49.8377 94.6849C35.3416 98.274 40.846 99.5327 30.3671 90.441C28.9227 89.616 27.3756 89.2759 25.5294 89.2078C11.0077 88.9782 20.5806 78.6023 8.54615 73.712C6.61448 72.6659 4.77684 71.2711 4.38366 69.1874C3.65715 65.3007 6.15293 61.2353 4.36657 57.5272C-7.18924 42.0144 8.28973 45.8501 4.43495 31.8596C4.21272 30.3542 4.05887 28.7723 4.64863 27.369C5.95635 24.3923 9.51198 23.4568 12.1445 21.5857C13.495 20.6502 14.307 19.502 14.9566 17.9967C18.2387 6.58315 19.3327 9.35573 28.5039 7.79934C30.0167 7.3741 31.1962 6.62567 32.3672 5.39247C39.8802 -3.52062 40.7349 0.935927 48.7607 2.66241C61.5815 1.69286 58.0772 -4.66027 68.7013 6.58315C70.7185 8.09701 72.8638 8.10552 75.4109 8.30964C88.7103 9.14311 78.3939 18.524 92.6848 24.6219C94.7703 25.9402 95.4284 27.5561 95.5823 29.963ZM49.9231 84.8533C98.2832 82.6761 97.8131 14.3396 49.6838 12.6131C1.41778 14.9264 2.01609 82.9567 49.9231 84.8533Z" fill="#006837"/>
<path d="M51.7342 115.02C58.1446 92.9333 54.9309 107.179 67.8286 98.8442C77.4613 88.2301 76.1963 95.6208 78.2647 99.8137C87.5043 124.223 88.2393 124.325 86.094 125.337C78.7006 123.228 71.3244 116.985 67.6748 116.713C66.7089 117.104 66.3243 119.018 65.7174 120.191C56.3155 146.114 57.2985 128.569 51.7342 115.02Z" fill="#006837"/>
<path d="M24.1695 93.0863C26.4089 93.333 28.4773 94.4726 29.7423 96.7434C42.4434 112.52 57.8198 84.9897 48.1102 111.108C42.6571 126.936 42.4434 131.954 39.7511 129.317C31.2209 112.103 34.1783 111.389 28.2893 114.451C19.4258 118.779 15.3659 121.926 13.2035 121.518C10.853 120.149 19.6224 101.965 19.3574 101.523C21.0754 98.0362 21.9387 92.5335 24.1695 93.0863Z" fill="#006837"/>
<path d="M35.9561 42.1932C42.6143 42.4824 42.6571 49.0482 45.3495 52.5522C50.7598 46.0544 56.0676 38.9274 63.5464 34.4198C74.8886 27.0886 80.7861 30.6862 76.0681 34.5984C68.6748 40.1436 63.8541 48.0531 58.9053 55.716C51.8282 66.4916 45.8965 80.9754 35.4689 64.0932C31.2551 56.9151 22.3404 42.7886 35.9561 42.1932Z" fill="#006837"/>
</g>
</svg>
