<svg width="762" height="572" fill="none" xmlns="http://www.w3.org/2000/svg"><g clip-path="url(#clip0)" fill="#fff"><path d="M222.42 89.9l-2.81 3.4.35 1.17 25.12-3.09-.16-1.33 2.99 2.04c-3.31.83-6.53 2.15-9.82 2.35-11.04.69-22.41-.16-31.45 8.06-.98.89-1.34 2.45-1.98 3.7 1.24.29 2.5.9 3.73.84 16.14-.9 32.28-1.89 48.41-2.85l.08 1.23c-9.79.68-19.58 1.61-29.38 1.96-6.56.24-12.43 1.71-17.83 5.6-3.83 2.75-8.11 4.88-11.76 7.03 7.7 2.76 14.3-1.39 21.4-4.02l-3.64 3.07.7 1.2 10.37-6.51-1.5 4.03 4.2-1.88c-2.14 4.08-9.41 4.63-6.72 10.75l10.98-6.92c-3.15 4.59-9.36 6.85-8.96 13.68l26.81-16.73c-4.45 4.85-10.68 8-11.73 15.71l4.05 1.11-4.76 1.17-2.35 7.8 7.4-5.07c-4.82 5.93-11.9 10.18-12.17 20.25 7.91-9.14 17.1-15.81 19.67-27.7l1.5.91-5.48 15.67 13.92-11.11c-5.78 6.51-11.3 12.21-16.11 18.46-1.57 2.04-1.28 5.52-2.05 9.42 6.71-2.67 9.27-8.47 14.5-11.28-2.36 2.79-5.27 5.3-6.91 8.47-1.35 2.63-6.22 4.08-3.2 8.6l6.39-10.2 1.52.64a7224.5 7224.5 0 00-4.76 13.48l.74.23 26.53-26.92.93.73c-6.48 9.59-19 15.79-17.81 30.77 7.53-5.33 9.84-14.91 19.32-18.45-2.91 4.17-7.08 7.63-.61 11.4l23.54-24.05.93.9-13.39 15.22c-4.17 4.75-4.32 5.54-2.32 12.9l7.01-12.93 2.39 4.54 23.08-20.91 1.02 1.07c-5.38 5.23-10.78 10.44-16.11 15.71-2.98 2.94-6.02 5.85-8.73 9.03-4.91 5.74-3.94 12.31 2.85 15.9-.76-2.69-1.66-4.79-1.88-6.95-.2-2.01.33-4.09 1.09-6.2 1.81 6.94 1.9 14.62 10.2 18.62l-4.09-15.41 1.57-.45 5.29 17.11 4.15-20.91 1.99-.33c-.18 8.3 6.75 12.96 10.43 20.89l1.66-22.18 1.16.12c.05 7.17 6.01 18.04 14.38 25.28-.83-9.92-7.45-16.78-8.66-25.44l7.73 13.93 3.61-12.26c.03 8.02-4.46 16.52 5.38 22.8l-2.13-14.51 3.18 3.83 2.24-12.69h2.01l1.92 6.41 3.25-5.46c-3.08 10.89 6.43 14.05 9.93 20.6l1.28-.39v-14.15l1.01-.32 7.44 12.12 1.64-.53-2.01-11.43 3.27 1.61-.79.15 8.05 13.19 1.16-.42 1.8-6.91c-.23 6.61-1.18 13.25 6.14 17.16 5.56-11.02-2.48-20.18-3.74-30.39l5.75 12.6 1.09-.13v-7.48l.7-.27 7.85 15.24 3.82-12.23c-4.3 11.48-.95 20.81 7.69 28.61 6.34-7.75.04-14.13-2.08-21.22l6.32 8.85 4.57-14.8c.48 5.14-2.41 10.76 3.51 14.68l5.63-14.04.84.27c-.14.85-.2 1.72-.44 2.54-1.49 5.12-.09 9.8 4.45 12.16 3.36 1.75 5.48-.86 6.76-3.61 1.96-4.18 3.61-8.51 6.43-12.49l-3.63 13.06c5.12-2.95 11.68-2.33 14.01-9.12v2.51c6.04-.99 10.16-3.83 11.83-9.98l-1.63 10.71 15.99-8.03c-5.71 7.08-16.47 7.17-18.95 16.36l.86 1.33 21.57-11.11-5.48 9.45 1.09.93c7.4-3 14.7-6.11 16.91-15.36l-.92 6.18 2.99-.66-9.48 11.82c8-1.58 11.18-4.33 16.07-12.78.25 2.03 1.18 4.45.63 6.48-.57 2.12-2.55 3.86-4.4 6.45 9.46.39 10.98-6.54 14.36-11.71l-1.71 7.05 7.87-3.06c-3.09 4.77-10.26 4.64-10.72 12.12 6.64-4.24 14.32-5.32 18.58-12.08 3.73 3.88 4.33-1.21 7.35-2.83l3.27 15.84c7.48-2.12 2.62-10.21 6.95-14.81v10.54c6.75.04 3.19-5.9 5.61-9.02l2.25 6.91 4.73-7.49v11.27c6.08.3 5.99-4.61 7.91-7.97 1.54 6.28-.26 12.1-2.46 17.96 7.04-1.18 7.46-2.17 9.02-20.46 2.56 2.05 2.56 2.05 1.64 15.22 4.06-.6 4.2-.79 4.61-5.66.24-2.88.53-5.75 1.53-8.62 1.86 5.05.79 10.24.76 16.22 7.22-2.63 4.42-10.26 7.7-14.32l1.41.22-2.86 15.65c8.13-2.1 12.21-7.26 11.92-16l1.92.6c-.1 2.18-.08 4.37-.34 6.53-.29 2.44-.83 4.85-1.26 7.27l1.03.97c1.98-1.99 4.53-3.67 5.79-6.04 1.38-2.59 1.56-5.81 2.9-8.65 2.28 5.37-1.45 10.13-1.59 15.91 8.23-2.9 6.14-11.28 9.62-16.51 3.54 3.25-3.17 8.73 2.57 11.17l-5.73 5.28c5.74-.52 8.44-4.78 10.66-15.74 3.41 6.61-.73 12.05-1.26 17.76 3.87 1.44 6.24.49 6.81-3.59.7-4.99 1.29-10 1.92-15l1.43.04-.98 18.75c3.38.32 6.57.93 8.86-2.89 3.14-5.21 3.23-9.93.07-14.67.17-1.43.81-3 .43-4.28-2.09-7.11-4.42-14.14-6.66-21.2l1.14-.4c2.31 6.55 4.5 13.15 6.99 19.63 1.39 3.62 3.55 6.96 4.87 10.6 1.02 2.83 1.95 5.99 1.72 8.9-.38 4.82-1.68 9.58-2.69 14.35-.54 2.54-1.29 5.04-2.04 7.91l5.12.62-7.4 3.44c14.63 1.81 26.89-3.87 39.63-7.05 3.86-.96 7.79-1.8 11.74-2.13 1.28-.11 3.24 1.29 3.97 2.54 1.54 2.64 3.01 5.54 3.57 8.51 2.89 15.19-.48 28.51-12.28 39.21-2.07 1.87-3.58 4.36-6.09 7.49 8.95-1.98 14.24-7.89 20.31-12.44l1.53.54c-.53 2.61-.86 5.29-1.63 7.83-1.19 3.95-2.98 7.74-3.91 11.75-.75 3.22.97 5.53 4.17 6.87a14.93 14.93 0 0019.26-7.08c.41-.83.91-1.63 1.47-2.36.35-.46.89-.76 2.14-1.8-1.91 5.93-4.33 10.83-4.94 15.95-.98 8.33-5.69 14.43-10.04 20.98-4.42 6.64-4.79 14.26-3.87 21.98.09.77.32 1.52.45 2.28 1.01 5.86.02 8.32-3.79 9.45-6.25 1.85-10.61.31-12.79-4.84-1.32-3.13-1.76-6.69-3.39-9.62-2.05-3.69-4.36-7.6-7.53-10.22-8.66-7.15-18.1-13.11-29.86-13.76-3.84-.21-7.69-.59-11.53-.51-1.37.03-2.71 1.19-5.11 2.32 2.35 1.7 4.15 2.77 5.63 4.18a6.7 6.7 0 011.8 3.36c1.99 10.05 2.14 19.78-5.44 28.01-.59.64-.78 1.65-.95 2.05 5.89 5.5 11.56 11 17.49 16.19a10.83 10.83 0 005.77 2.38c11.38 1.13 22.8 1.91 34.18 2.99 4.19.4 3.09 4.17 3.69 6.76.26 1.1-.13 2.44.35 3.38 4.36 8.54 3.29 17.31 1.43 26.19-1.49 7.14-7.53 7.42-12.9 9.22-9.34 3.14-18.49 6.83-28.24 10.47 3.25 2.97 6.99 4.97 8.34 8.03 1.34 3.04.29 7.14.29 11.14h24.29l.13.87c-1.89.35-3.77.81-5.67 1.03-23.88 2.78-47.74 5.69-71.65 8.2-6.65.7-9.3 5.09-12.7 10.67 22.06-4.2 43.33-3.53 64.86-1.4-1.64.38-3.27.82-4.92 1.13-1.83.35-3.67.72-5.52.85-18.87 1.34-37.74 2.61-56.61 4.01-1.35.1-2.99.78-3.87 1.76-1.75 1.94-3.06 4.27-4.56 6.44l-1.35-1.75 152.3-12.85.28 1.73c-1.05.31-2.07.79-3.14.92-34.93 4.31-69.85 8.7-104.81 12.82-24.03 2.83-48.09 5.32-72.15 7.86a699 699 0 01-27.79 2.46c-25.75 1.68-51.51 3.26-77.27 4.76a4593.3 4593.3 0 01-52.46 2.71c-3.07.14-6.16-.38-9.24-.41-26.24-.25-52.25 2.61-78.34 5.02-32.73 3.02-65.58 4.84-98.4 6.89-8.17.51-16.41-.07-24.61-.23-.95-.02-1.89-.52-2.84-.8l.03-1.61 76.73-4.69c-15.12-1.29-31.55-2.5-47.93-4.17-5.97-.61-11.81-2.45-17.76-3.43-5.08-.83-10.34-3.53-15.23.74-.35.31-1.22.16-1.81.03-12.69-2.76-24.96.97-37.37 2.42-5.37.63-10.72 1.41-16.33 1.09l26.52-6.68c-7.96-2.3-15.81-5.57-24.22-4.11-24.9 4.32-49.74 8.92-74.62 13.37-8.37 1.5-16.76 2.86-25.14 4.29l-.36-1.71 85.77-18.83.17-.92c-6.39-2.21-12.78-4.44-19.19-6.62-.85-.29-2.03-.03-2.63-.54-5.07-4.25-10.58-2.75-16.34-1.96a2294.66 2294.66 0 01-79.87 9.57c27.02-8.75 55.2-11.3 83.4-15.26-1.86-4.59-5.18-5.4-8.92-5.33-11.63.23-23.27.44-34.9.79-13.96.41-27.91.96-41.86 1.43-.74.02-1.48-.1-2.22-.16l-.13-1.36 75.25-8.46c-.26-.66-.46-1.67-.99-2.46-1.37-2.06-3.51-3.83-4.21-6.06-2.04-6.58-6.89-6.08-12.11-5.79-13.47.75-26.96 1.28-40.44 1.88-1.47.07-2.95.01-4.42.01l-.23-1.61 48.63-8.39c-1.27-2.5-2.63-5.34-4.12-8.11-6.39-11.93-12.69-23.9-13.46-37.79-.08-1.37 1.02-2.81 1.57-4.22l1.58.21c-1.46-1.74-2.84-3.56-4.4-5.2-3.04-3.19-4.54-6.75-4.36-11.32.1-2.65-1.38-5.32-1.82-8.04-.74-4.6-1.53-9.24-1.64-13.88-.04-1.69 1.52-4.57 2.89-4.94 6.32-1.7 7.81-7.27 10.64-11.85.75-1.21 1.99-2.84 3.15-2.97 7.39-.81 14.82-1.22 22.24-1.84.99-.08 2.63-.35 2.8-.9 1.53-4.92 5.99-5.96 9.87-7.67 3.19-1.41 5.16-3.55 4.92-7.09-.53-7.57 8.07-9.69 12.14-6.33 5.27 4.35 10.42 5.39 16.63 2.35 1.79-.87 4.19-.5 6.62-.73l-12.65-6.08-.78 2.39-1 .12-3.66-12.99c-2.23 1.11-4.26 2.04-6.21 3.1-12.51 6.78-24.71 14.27-37.65 20.09-5.85 2.63-13.04 1.48-19.21-2.19a9.66 9.66 0 00-6.19-.99c-11.71 2.22-23.36 4.76-35.03 7.16-.9.18-1.86.13-2.78.12-7.02-.07-8.77-2.2-6.79-8.89 2.12-7.19 2.48-14.33.4-21.54-.55-1.92-1.34-3.76-2.41-6.7l3.93 3.48.82-.63c-.74-1.2-1.38-2.48-2.25-3.59-3.15-4.03-6.27-8.1-9.61-11.98-2.79-3.23-3.16-6.44-.87-10 .17-.26.37-.54.4-.83 1.15-10.57 11.43-14.26 16.57-21.83.74-1.09 2.73-1.34 4.68-2.23 0-3.19-.14-6.89.03-10.58.28-5.88 3.99-9.97 9.33-9.24 7.06.96 14.24.96 21.23 2.77 4.74 1.22 9.7 1.59 14.92 2.39.68-10.39 1.15-20.23 2.05-30.04a53.26 53.26 0 012.6-12.71c4.66-13.26 10.14-26.25 14.43-39.63 2.51-7.84 7.51-13.7 12.27-19.91 1.46-1.91 3.01-3.74 4.44-5.5l-3.95.45c.03-.27-.01-.67.1-.72 7.88-3.62 12.68-10.55 18.56-16.47 8.8-8.88 18.71-16.65 28.11-24.95 17.16-15.14 36.17-27.34 57.28-36.21 4.85-2.04 9.89-5.5 14.74-5.33 12.38.43 23.47-4.86 35.38-6.25 16.01-1.87 31.91-4.6 47.87-6.88 3.83-.55 7.84-1.51 11.52-.87 3.09.54 5.88 3.06 8.6 4.98.19.14-.97 3.48-2.03 3.86a82.18 82.18 0 01-13.26 3.58c-1.24.23-3.62-1.06-4-2.16-.42-1.21.47-3.35 1.47-4.48 1.46-1.64 3.52-2.74 5.01-5.07-6.96 1.08-13.94 2-20.86 3.25-27.75 5.03-55.78 8.73-82.68 17.76a119.46 119.46 0 00-33.53 17.45c5.9-2.85 13.13-2.65 17.69-8.81 1.48-2 5.18-3.36 7.82-3.29 8.07.2 15.14-2.94 22.45-5.4 3.63-1.22 7.26-2.45 11.16-2.95l-21 8.34.29.98c5.69-1.02 11.38-2.06 17.09-3.04 3.36-.57 6.72-1.23 10.11-1.5 3.7-.3 7.1.08 8.51-4.98 1.01-3.62 9.74-5.62 13.3-3.76-2.02.41-4.19.35-5.68 1.32-1.26.82-1.73 2.85-2.55 4.34 1.46.22 3.05.89 4.35.53 1.54-.42 2.82-1.74 3.13-1.95 3.11.72 5.39 1.79 7.6 1.67 7.55-.42 15.07-1.27 22.6-1.95l.11 1.22c-8.35.85-16.71 1.62-25.06 2.57-10.4 1.19-20.88 2.01-31.14 3.97-7.07 1.35-13.88 4.18-20.67 6.73-1.59.6-2.59 2.74-3.27 5.19 6.46-1.01 12.9-2.09 19.37-3.01 6.75-.96 13.57-1.54 20.28-2.73 6.28-1.11 12.46-2.8 18.64-4.86l-4.65 3.09 5.73.58-.46-.91-22.19 8.47 4.3-4.03-.56-1.52-28.64 6.95c1.29-3.12-1-1.66-2-1.48-10.97 1.97-22.2 3.1-32.82 6.25-12.83 3.81-25.14 9.35-37.68 14.14l.5 1.37c.45 0 .92.1 1.33-.01 20.23-5.72 40.46-11.47 60.69-17.2.88-.25 1.8-.31 2.71-.46l-10.05 4.77c13.98-2.32 28.72-.91 41.19-9.14l-3.2 4.58 27.24-3.53-.17.56-10.87 4.62c-.67-.64-1.37-1.86-1.99-1.82-5.63.36-11.44.21-16.8 1.66-5.35 1.45-10.24 4.57-15.33 6.95l4.59-4.93c-20.65 3.07-40.84 4.31-58.49 15.3l.41 1.26 21.24-7.48-4.5 6.2c7.19 2.36 10.89.39 10.42-4.33l26.47-6.19c1.14.48 2.25 1.22 3.43 1.38 1.93.27 4.16-.42 5.81.32 3.58 1.61 6.97 1.34 9.37-1.28 1.28-1.4.87-4.35 1.36-7.52l5.11 4.27 4.05-1.06c-5.5 4.64-10.82 9.57-18.07 11.46-.38-4.05-3.72-4.66-6.55-4.81-10.22-.54-16.43 6.56-23.43 12.08l.49 1.25 25.24-5.09-8.86 5.92 1.78-2.93c-6.68.73-12.31 2.47-16 8.34 2.5-.26 4.88-.89 7.11-1.85 2.53-1.15 4.89-2.53 7.31-3.78zm282.05 356.82l3.35 4.88c-5.49-1.42-6.04-1.21-8.11 5.4-.48 1.53-.13 4 .86 5.15 1.71 2 3.87 1.24 5.4-.86l-2 4.21-5.38-2.78-5.37 17.62 1.1.71c3.66-3.23 7.11-6.74 11.03-9.61 4.85-3.55 5.5-8.08 4.36-14.21l-3.68 4c.82-1.98 1.87-3.9 2.36-5.96.27-1.14-.41-2.51-.69-3.82 4.17-3.26-.07-4.79-1.26-7.62a585.4 585.4 0 01-2.1 3.07c.24-2.89 1.52-6.04-2.35-8.57-.16 2.65-.26 4.75-.41 6.85-.19 2.71 1.31 2.2 2.89 1.54zm-382.18-6.96c.53-.9.88-1.97 1.61-2.66 3.34-3.2.87-4.61-1.05-6.22l-1.47.28.91 8.6-.64 5.77c1.53-.28 3.44-.09 4.52-.94 3.25-2.58 1.78-5.54-.21-9.48a725.21 725.21 0 01-3.67 4.65zm410.08 21.63l-.48 3.5c7.03-4.34 8.02-6.23 6.43-12.26l-6.12 8.91c1.49-3.72 2.81-7.52 4.51-11.14 1.77-3.76 1.28-6.79-2.96-10.08-1.01 7.4-2.71 14.07-1.38 21.07zM89.43 214.84l-4.03-5.06-10.85 11.16 1.2 1.52 13.54-7.77c1.4-.87 3.3-1.45 4.03-2.71.63-1.09.31-3.14-.31-4.41-.36-.72-2.83-1.33-3.2-.92a6.07 6.07 0 00-1.36 3.81c-.04 1.45.62 2.92.98 4.38zm398.41 223.31c-.77 4.33 2.84 4.18 5.04 5.46l1.01-.73-4.22-6.77-1.95 2.18c1-7.14-5.45-9.01-8.9-13.68-.94 4.07 3.43 14.02 6.25 14.92.71.22 1.84-.88 2.77-1.38zm108.27 25.84l-5.23 13.1 2.81-.5-1.62 4.57c5.21-3.51 9.43-14.21 7.92-19.07-.09-.29-.99-.32-1.51-.47l-1.14-7.09-2.45.32 1.22 9.14zm-185.12 14.74l4.2-5.09-4.3-2.35-1.16.69 1.28 6.72c-1.74 1.75-.95 5.69-4.84 5.56.05 1.69-.3 3.53.25 5.04.67 1.86 2.18 2.65 3.79.53.18-.24.62-.29.93-.42v3.77c3.67-2.61 4.92-8.92 3.47-16.4a203 203 0 01-3.62 1.95zm133.83-267.61c-.94.45-2.26.64-2.75 1.38-1.53 2.31-2.79 4.8-4.08 7.26-2.59 4.98-2.29 6.01 2.78 9.44 1.94-6.03 7.13-11.16 3.9-18.26l2.88 1.83 2.12-7.55c-3.55 1.08-6.15 2.05-4.85 5.9zM428.86 463.13l-5.78-2.56.95 17.7 4.15-2.97-4.74 9.81c8.66-1.74 10.86-6.25 8.48-13.29l-3.91 3.65c.78-1.49 1.34-3.16 2.37-4.44 2.71-3.35 1.95-5.84-1.52-7.93.7-4.5-2.17-11.5-5.67-13.28-.12.79-.27 1.47-.31 2.15-.29 4.95 3.17 7.88 5.98 11.16zm89.72-3.77c3.39-6.48 2.53-12.84-2.2-16.41-4.79 6.13-3.17 13.29-3.8 20.59l3.53-1.45-4.52 7.83 1.38.95c1.69-1.25 3.69-2.23 4.99-3.8 1.86-2.25 3.57-4.9.62-7.71zM233.75 134.98c2.18-1.72 5.9-2.2 5.19-6.93-2.07 1.46-3.92 2.53-5.4 3.97-.45.44.14 1.94.26 2.96-9.82 1.95-14.25 8.06-12.81 17.63 6.03-1.65 14.07-10.24 14.66-15.9.05-.49-1.27-1.14-1.9-1.73zm218.02 346.85c3.98.03 6.29-2.04 7.05-5.82.7-3.49 1.46-7 1.7-10.54.09-1.27-1.27-2.64-1.97-3.96l-1.43.47c-.62 3.17-1.05 6.38-1.9 9.48-.96 3.51-2.29 6.93-3.45 10.39.78-6.06 1.77-12.1 2.23-18.18.13-1.76-1.23-3.64-1.91-5.46-1.29 1.7-4.24 1.79-4.13 4.93.2 6.32.59 12.72-2.89 19l-.36-5.05c-3.28 2.61-3.46 5.31-.86 8.2 2.51 2.8 4.07.12 5.8-1.05.85-.58 1.42-1.59 2.12-2.41zm11.41-5.33c1.04-.91 2.25-1.68 3.1-2.74 3.12-3.89 1.72-7.74-3.39-8.54l-2.24 11.33 2.66-.17c-1.15 1.86-3.51 3.46-1.3 6.04-2.41-1.65-3.49-.68-3.84 1.96l1.88.29-2.53 6.76c5.12-2 6.45-5.55 4.56-8.95 1.69 1.02 3.31 2.17 5.08 3.03 1.14.55 2.63 1.17 3.72.86 4.41-1.25 7.67-6.52 6.44-12.3-.53-2.51-4.15-4.36-6.86-7l-4.07 10.42c-1.31-.39-2.27-.68-3.21-.99zM22.54 267.1L9.43 278.74c.25 1.99 1.53 3.1 4.49 1.55 2.73-1.43 5.55-2.7 8.31-4.08 5.38-2.68 5.58-4.95.84-9.43 1.89-7.1-.88-13.59-1.81-20.33l-1.3-.19-9.68 16.34.7.59 4.82-2.94c-2.12 3.08-4.9 5.37-7.09 8.12-1.2 1.51-1.42 3.81-2.08 5.75 2.05-.26 4.35-.03 6.09-.9 3.44-1.72 6.57-4.04 9.82-6.12zm603.83-2.9l11.25-12.86h-20.26l9.14 12.72c-.64 3.02.95 4.06 3.61 3.72 5.98-.76 12.02-1.35 17.88-2.68 2.66-.6 5.7-2.26 7.27-4.39 4.97-6.74 9.32-13.93 14.42-21.72-11.2 5.19-16.39 15.4-24.33 23.59l4.19 1.11h-5.83l7.34-12.28c-9.36.81-9.34.83-15.87 6.01-2.9 2.31-5.88 4.53-8.81 6.78zM405.6 442.11c-.93-3.19-6.49-7.08-11.01-6.34l11.12 6.21c3.16 1.5 6.21 3.98 9.5 4.35 17.32 1.92 27.96-6.35 35.53-18.47 1.05-1.69.95-4.1 1.37-6.18l-.99-.15-4.49 6.99-.64-.32 1.65-5.25-13.29 5.99-.34-.74 4.76-5.09h-29.12l-10.63-9.79 6.78 10.43-.76.5-6.97-7.71-1.1.82 6.94 9.91-.98.83-6.7-8.27c-.62 1.69-1.44 2.92-1.15 3.3 3.29 4.33 6.76 8.54 10.49 13.17l-3.97-1.87-.37.67 8.08 6.4c-1.61.27-2.66.45-3.71.61zm143.52-33.32l2.68 2.98c11.9-4.38 14.09-7.96 9.42-16.11-4.36 3.66-8.67 7.24-12.89 10.93-.2.17.43 1.29.68 1.97-3.24-1.17-4.99.52-6.1 3.26-4.26 10.57-1.94 14.61 9.19 16.1 1.08.14 2.14.33 3.22.48 8.77 1.24 12.27-.42 16.8-7.96 2.58-4.28 7.36-6.44 10.96-4.61 4.26 2.16 3.26 5.97 2.17 9.36-1.05 3.25.34 4.09 3.14 4.56 2.86.48 5.63-.47 8.69.67 2.77 1.03 8.53.88 9.11-.45 1.38-3.14.76-7.31.33-11-.19-1.66-1.92-3.11-2.88-4.7-2.07-3.43-4.37-6.76-6.09-10.37-3.59-7.52-2.19-10.58 5.81-13.38 1.58-.55 3.36-.51 4.97-1 1.85-.56 3.61-1.42 5.4-2.14l-.53-1.43c-7.07.41-14.61-2.66-21.02 3.35 3.55 5.13-1.7 7.26-3.57 10.54 4.59 1.34 9.59 8.43 9.65 13.69l-4.61-6.81-.61.43 3.96 9.74-.49.01-1.34-2.13-1.33.95 1.91 7.9-6.2-9.23 1.21 11.17-7.14-14.64 3.17.36-2.66-7.54c-5.71 3.39-10.88 8.69-16.49 9.22-6.4.6-10.49 6.23-15.85 5.47l-2.67-9.64zM118.09 244.48c-.3-.69-.54-1.94-.9-1.98-5.23-.54-12.54 4.77-14.05 10.07 6.62-1.15 7.7-1.74 15.11-8.26.03 3.39-1.43 6.17-3.48 9.09l4.52-1.27.21.51-7.45 4.73.41.8 9.91-3.71c-2.31 2.65-5.17 4.18-7.8 6.01-2.58 1.8-6.54 2.45-6.56 7.47l19.82-9.92.53 1.01c-2.01 1.41-4.1 2.72-6.01 4.25-1.71 1.38-3.22 3-4.82 4.52l.9.91 11.89-6.61.23.45-10.91 9.36 1.26 1.68 11.37-6.34-3.6 12.97 1.36.55 8.23-4.28-3.32 5.24.95 1.57 23.1-7.97c-7.7-5.16-4.71-11.04-3.66-16.75.9-4.83 1.81-9.69 2.15-14.58.37-5.39-1.55-6.74-6.35-4.16-3.99 2.15-7.56 5.18-11.01 8.18-3.14 2.72-5.45 2.74-6.95-.64-1.46-3.28-2.62-6.9-3.74-10.06-1.82-5.15-3.9-4.01-7-3.09-2.67.8-5.38 1.59-7.87 2.81-1.76.86-3.17 2.42-4.73 3.66l.61 1.15 10.54-1.59a346.7 346.7 0 00-2.89 4.22zm142.67-8.19c-1.33-1-2.64-2.03-4-2.98-1.62-1.13-3.3-2.19-4.95-3.29-1.03 1.84-2.52 3.57-2.98 5.54-.72 3.1-.79 6.36-1.04 9.55-.4 5.08-1.01 10.16-.98 15.24.02 3.99 2.12 6.87 6.16 8.37 9.47 3.52 19.23 4.35 29.2 3.67 1.05-.07 2.34-.28 3.04-.93 2.21-2.08 4.19-4.41 6.83-7.26-1.95-10.73.92-21.65 6.69-32.12l-8.28 11.38-.5-.45 5.24-10.17-.71-.38-8.21 7.17 10.2-14.28-1.44-1.09-13 17.02-.77-6.05-7.67 6.16.7.64-8.19 3.01.04 1.5 9.01 3.96c-6.85.27-10.28-1.25-12.6-5.24l3.55-1.57c.06-3.54-5.32-2.42-4.35-6.17 4.79-.35 6.72-4.32 9.92-6.67l-1.35-1.87-9.56 7.31zm-46.91 172.09l.53-5.32-1.06-1c-4.38 6.65-10.27 2.66-15.5 3.37l.59-1.32-4.38-2.5c2.67-2.74.5-3.66-2.13-3.91l3.98-13.43c-5.62 1.82-7.36 4.42-7.8 9.57-.22 2.59-1.61 5.09-2.52 7.62-.59 1.65-2.21 4.11-1.67 4.75a7.13 7.13 0 005.16 2.19c3.37-.19 6.3-.16 7.94 3.6 2.16-2.42 4-4.7 6.14-.54.28.54 2.83.69 2.94.43 1.56-3.7 5.08-2.84 7.88-3.61.92 1.29 1.58 3.15 2.84 3.73 1.8.84 4.08.55 6.06 1.08 4.71 1.25 8.67 1.37 12.72-2.59 5.04-4.93 13.18-1.74 14.79 5.1 1.91 8.09 7.52 12.04 15.41 13.19 5.71.83 9.76-2.36 12.31-6.69 2.51-4.27 3.81-9.27 5.56-13.98.75-2.01 1.27-4.11 1.89-6.17l1.17.31-2.46 15.88c12.66 5.31 19.71 4.87 23.63-1.3l-2.68.21 4.1-5.21-.76-.61-5.73 3.99.86-9.07-7.56 5.78.91-5.56-6.04 3.93c1.12-2.95.82-4.54-2.28-4.51 2.01-4.04 4.1-7.6 8.57-9.12l-.82-1.16-6.19 1.78.7-5.07c1.55-.42 4-.83 6.22-1.8 1.49-.65 3.51-1.92 3.79-3.23 1.24-5.96 5.66-9.03 10.09-12.17 1.28-.91 2.71-1.59 4.9-2.84-16.21.59-21.74 3.04-26.95 11.76l6.47-2.83.3.75-14.68 9.54.66.98 2.41-.49c-5.38 2.92-11.04 4.01-17.08 2.94-2.59-.46-5.01-.51-4.71 3.84l-14.81-10.57-.48.51 4.24 5.27-.59.4-10.16-8.46c-1.02 6.06 1.33 10.04 3.42 13.77 2.09 3.71 5.14 6.89 8.23 10.9l-9.27-6.03-1.5-4.81-5.81 7.11-.53-.47 4.34-11.66-1.9-1.46-4.61 6.79-.99-.91c1.44-2.47 3.45-4.8 4.15-7.47.72-2.75.16-5.84.16-8.78l-.39.02-2.04 7.49-1.12-.21c.77-4.16 2.12-8.44-2.89-11.5v9.48l-.56-.05-2.44-8.68-1.63.44c.33 5.42 1.19 10.88.82 16.26a30.05 30.05 0 01-3.58 12.08c-.6 1.09-5.03.05-7.7.01-.3-.01-.59.16-.88.24zm365.14-156.41l2.66-3.9-.52-.63-12.54 6.42.39 1.1 7.48-1.36c-3.59 3.77-8.15 4.43-13.14 5.24-8.9 1.45-17.58 4.28-26.7 6.62l4.7 5.24-.5.57-7.86-6.26-1.06.85 4.83 8.91-.97.77-10.58-13.56c-1.45 12.9 8.52 17.67 16.83 23.6l-1 1.23-15.99-11.77c4.72 13.01 16.43 13.5 26.57 16.63-10.16.8-19.19-1.86-27.19-9.02.53 3.23 1.79 8.15 2.88 8.12 6.02-.21 8.57 4.79 12.63 7.3 8.94 5.52 18.07 10.02 28.96 8.64 3.34-.42 7.19-.56 9.81-2.32 8.54-5.72 15.71-12.98 20.45-22.29 4.6-9.03 3.98-19.15 5.72-28.78.32-1.76-.58-3.73-.92-5.61-.92 11.56-6.42 15.97-11.32 20.13 2.31-3.8 4.31-6.85 6.07-10.04 2.65-4.81 2.54-7-.35-10.41-.59 2.2-.99 4.32-1.74 6.29-.72 1.88-1.82 3.61-2.76 5.4l-.54-.29 2.81-12.37-1.7-.62c-3.56 3.67-1.63 10.99-8.11 13.37 1.76-4.24 4.96-7.71 3.11-12.2l-19.58 18.1c2.98-3.81 6.11-7.38 9.13-11.05.34-.4.04-1.35.04-2.05zm-86.76-8.99l5.19-5.9-.91-1.28-38.25 11.25a4.33 4.33 0 012.33-1.68c11.32-3.77 22.65-7.48 33.95-11.32 1.81-.61 3.43-1.77 5.14-2.67l-.6-1.28-26.03 7.72a10.27 10.27 0 014.24-2.65c8.35-2.86 16.69-5.79 25.12-8.41 4.3-1.34 5.39-3.99 4.71-7.79-6.04 1.21-12.07 1.75-17.62 3.65-16.75 5.75-33.32 12-49.94 18.12-3.74 1.38-7.36 3.07-11.05 4.55-4.87 1.95-11.86.74-14.74-2.44 4.09-1.29 9.55 3.89 12.92-2.53.9 0 2.28.34 3.29-.13.59-.28.89-1.89.75-2.81-.16-1.02-1.34-1.89-1.43-2.89-.28-2.92-.04-5.9-.45-8.8-.14-1.01-1.57-1.85-3.2-3.62l-2.06-3.79-.98.53.99 4.7c-4.06-3.35-7.13-7.36-10.83-10.66-1.98-1.76-4.98-2.82-7.66-3.19-1.67-.23-3.88 1.08-5.35 2.29-1.67 1.38-2.41 4.21-4.19 5.07a39.28 39.28 0 01-25.66 3c-12.01-2.69-25.13-3.08-34.32-13.36-.15 5.29 1.12 9.99 6.08 12.59 3.63 1.9 7.65 3.05 11.39 4.76 8.97 4.08 18.56 4.37 27.15.78 6.34-2.65 12.75-4.35 19.26-5.85 7.17-1.65 13.55 2.07 14.82 8.45 1.04 5.24 2.76 8.99 8.96 8.42.18-.02.4.43 1.68 1.88-5 .63-9.2 1.88-13.25 1.5-6.04-.57-14.9 3.71-16.88 9.35-.43 1.24-.34 2.7-.32 4.06.03 1.76.52 3.55.28 5.26-.71 5.18 6.8 12.35 11.8 10.89a63.49 63.49 0 008.97-3.48c12.54-5.8 22.97-3.7 32.43 6.45.83.89 2.73 1.5 3.88 1.23 5.42-1.3 10.85-2.7 16.08-4.6 2.33-.85 4.21-2.96 6.29-4.5l-.76-1.33-15.2 3.22a70.84 70.84 0 0115.39-5.08c4.48-.98 7.06-3.69 9.24-8.3l-30.34 7.08-.27-1.1c9.4-2.41 18.76-5.04 28.23-7.13 5.24-1.15 9.02-3.79 11.77-8.21l-.04-.02zm-354.41 92.54l1.49-7-1.18-.83c-8.61 11.65-20.24 20.7-28.35 33.74 3.37 0 5.82.12 8.25-.02 7.43-.42 14.86-1.32 22.29-1.36 40.49-.21 80.98-.45 121.47-.22 21.87.12 43.73 1.41 65.6 1.67 10.72.13 21.45-.87 32.17-1.36l.18-1.51-29.64-11.25-2.49 3.07-.98-5.41-9.99 6.15-.42-.67 3.78-4.18-.38-.54-9.13 3.89 3.57-4.23c-2.4.41-3.92.61-5.42.94-26.7 5.75-53.73 7.09-80.96 6.54-22.77-.46-45.56-.32-68.33-.72-5.84-.1-11.8-.72-17.43-2.18-2.87-.74-6.03-3.38-7.45-6.02-1.78-3.31.54-6.46 3.5-8.66-3.41 8.7-1.17 12.03 7.82 13.77 13.33 2.58 26.59 1.31 39.88.34 1.46-.11 2.99-1.18 4.2-2.16 3.29-2.67 6.42-5.52 9.61-8.3l.44.5-7.32 9.56c8.78-.89 17.43 4.06 23.03-5.33l-2.6 5.52c7.23 3.58 10.01-3.57 15.18-5.29l-4.91 5.91c7.75 2.54 13.44-.45 18.25-6.13l.65 1-4.27 5.38.42 1.39c14.32-1.13 28.63-2.46 42.96-3.29 7.35-.43 11.55-3.37 12.79-10.91.68-4.17 2.61-8.14 3.97-12.2l-.94-.33-9.4 18.95-1.19-.55 7.28-19.38-1.19-.54c-.74 1.39-1.59 2.73-2.19 4.17-2.04 4.86-4.09 9.72-5.93 14.66-1.01 2.71-2.39 4.08-5.55 2.78l5.93-20.35-1.06-.49-10.16 18.88-1.14-.55 3.95-12.35-5.19 7.43-.74-.5 4.8-13.38-5.23.34.77 6.82c-3.16-2.18-1.98-8.84-7.98-6.68v4.01c-2.52-5.13-6.74-4.96-11.48-4.17l.82 3.96c-3.35-5.4-8.26-4.69-13.65-3.97l1.57 4.91c-5.87-5.09-11.84-6.76-13-3.92l1.35 3.95c-5.63-4.71-10.99-6.6-12.19-4.54l.27 2.74c-.93-.65-2.41-1.54-3.74-2.62-5.64-4.57-10.34-3.97-14.43 1.87-.63.89-1.42 1.67-2.14 2.5l-.62-.38 1.84-7.35c-5.56-.54-7.14 7.05-13.02 5.83l1.78-8.56-7.72 10.03-.75-.49 4.52-10.81-1.52-1.34-8.88 11.66-1.12-1.17.42-3.4-.96-.65-6.85 7.88-.7-.5 2.54-5.69-3.68 2.95v-3.37l-3.79 4.2.68-5.07-1.36-.95-3.94 5.14-.48-.35 3.78-7.26-.61-.38-10.67 7.34-.69-1.16-6.67 10.6zm556.54-87.2c2.96-3.5 6.01-6.93 8.83-10.54 1.19-1.53 1.9-3.44 2.82-5.18l-1.69-1.12c-8.96 3.38-11.09 12.9-16.14 19.88l6.34-3.19c-4.42 3.22-8.43 7.47-13.35 9.48-16.53 6.73-33.6 11.67-51.9 11.52-.29 4.46 3.34 4.43 5.45 5.12 1.8 3.71 3.85 6.81 4.84 10.21a26.9 26.9 0 01-.71 16.65c-2.83 7.82-6.66 15.27-9.9 22.95-.92 2.18-1.27 4.59-1.89 6.9l1.32.72c8.26-3.38 16.72-6.33 24.71-10.25 9.16-4.5 17.87-9.91 26.82-14.83 2.19-1.2 4.58-2.02 6.89-3.02l.42 1.08-10.67 7.6c.52.25 1.17.68 1.89.87.74.19 1.54.23 2.3.18 12.92-.75 24.8-5.14 36.24-10.79.99-.49 1.28-2.9 1.46-4.46.36-3.13-.01-6.39.71-9.41.86-3.6 2.55-6.99 3.7-10.03-4.4 2.62-8.72 6.5-13.71 7.84-6.3 1.7-11.21 4.9-15.89 8.98-.7.61-1.56 1.06-2.34 1.58l-.47-.62 13.97-15.94-24.13 5.32-.35-1.49c8.02-2.23 16-4.62 24.07-6.64 4.48-1.12 7.02-3.94 9.16-8.25l-25.1 7.55c.81-1.57 1.98-2.15 3.18-2.65 7.59-3.16 15.2-6.25 22.76-9.47 4.9-2.08 6.39-5.01 5.37-10.21-3.4 1.91-6.67 3.95-10.13 5.62a99.56 99.56 0 01-11.15 4.63 105.4 105.4 0 01-11.22 3.01c-3.73.83-7.52 1.36-11.28 2.03 20.9-7.66 43.53-25.06 42.53-33.72-4.62 4.14-8.97 8.55-13.86 12.27-4.81 3.66-10.17 6.62-15.28 9.89 8.63-9.18 20.09-15.19 26.1-26.85-3.34 1.56-6.03 3.86-8.69 6.19l-12.03 10.59zm-552.19 70.5c-2.75.52-4.86.36-6.26 1.28-4.22 2.79-8.34 1.74-12.42.18-1.67-.64-2.95-2.23-4.52-3.21-4.23-2.64-6.85-1.46-7.2 3.36-.39 5.35-3.29 8.55-8.18 10.09-3.41 1.08-6.24 2.54-7.32 6.36-.27.96-1.84 2.41-2.51 2.26-6.55-1.41-12.74-.4-18.84 2.05-.62.25-1.51-.16-2.28-.27-5.63-.8-7.16.25-7.4 5.82-.13 3.06-1.3 4.67-4.13 5.92a9.79 9.79 0 00-4.57 4.55c-4.57 10.22 3.19 19.09 3.56 28.83.02.62.91 1.21 1.42 1.8 1.61 1.89 3.21 3.77 4.84 5.64a15.05 15.05 0 0019.9 2.44c3.85-2.69 6.57-5.79 6.04-11.09-.48-4.76.16-9.62-.27-14.39-.59-6.62 2.18-11.03 7.9-13.85 2.85-1.41 5.75-2.72 8.69-3.91 1.46-.59 3.63-.31 4.52-1.29 4.61-5.07 8.9-10.41 13.93-16.4l-23.15-1.48c6.54-.46 12.97-.23 19.37-.57 2.76-.15 6.04-.77 8.05-2.43 3.69-3.06 6.63-7.05 10.83-11.69zM40.38 265.53c2.41 6.72 9.45 4.15 14.79 7.68h-7.58l-.43.97 9.77 7.55-8.72 1.22c4.36 5.57 8.89 8.99 15.85 6.89l-4.95 2.14.42 1.23-10.08.47c7.02 10.89 15.03 4.14 22.64 3.71l-10.52 5.45c7.44 4.84 12.62-2.56 19.09-1.37l-20.55 8.25c4.1 4.99 5.21 5.16 10.65 2.42 4.07-2.05 8.26-3.86 12.4-5.78l.5 1.03-13.84 7.27.44 1.22c1.77 0 3.81.58 5.26-.1a130.7 130.7 0 0015.08-8.09c2.7-1.74 6.23-1.77 5.95-8.07-.31-6.77-1.69-12.11-5.78-16.56-11.28-12.3-15.86-26.92-16.39-43.18-.08-2.43-.01-4.87-.01-7.07l-19.43-2.71-.75 1.67 10.01 9.08c-5.14-1.34-7.71-7.73-14.7-5.97l6.96 7.9-11.12-1.37 11.38 13.73-14.71-.73-.76 1.62 17.72 14.84c-6.02-2.18-10.81-7.73-18.59-5.34zm236.66 52.96c2.33.86 4.11 1.75 5.99 2.17 6.5 1.45 12.94-.95 19.61-.22 6.14.67 12.56-1.18 18.86-1.96 12.49-1.55 24.98-3.16 37.47-4.69 4.94-.61 9.94-.89 14.83-1.75 1.2-.21 2.74-2.02 2.99-3.32.59-2.97.48-6.07.63-8.8-7.58-3.82-6.4 4.23-10.05 6.85l1.37-7.73-16.23-1.93-2.39 12.38c-.97-2.14-.88-4.11-.78-6.07l.3-6.27c-10.6.43-10.6.43-11.67 10.06-.09.77-.24 1.54-.37 2.3-1.05-2.65-.99-5.25-1.39-7.78-.17-1.1-1.21-2.91-1.94-2.95-4.86-.26-9.75-.14-14.53-.14l-1.43 13.24a25.66 25.66 0 01-.61-7.5c.33-6.75.27-6.84-7.12-6.42l-2.75 12.24-.77-.13 1.72-12.68c-8.76-2.88-10.76-1.64-11.53 7.01-.32 3.6-.59 7.21-.88 10.81l-1.25-.08v-16.31c-3.01 1.03-5.78 1.29-7.51 2.77-1.6 1.37-2.1 4.04-3.08 6.13l-1.41-4.7c-7.37.53-3.87 6.82-6.02 10.86l-.9-10.06c-3.88 2.81-9.73-1-11 6.04-2.34-6.01-6.75-3.09-10.75-3.58.15 2.16.3 3.68.36 5.21.05 1.51.01 3.02.01 4.52-1.47-2.94-1.25-6.55-2.91-8.74-1.44-1.9-5.01-2.18-8.49-3.5.49 3.19.78 4.86.99 6.54.21 1.68.35 3.36.52 5.05-1.66-2.87-1.67-6.56-3.51-8.57-1.62-1.77-5.29-1.65-8.41-2.46 0 2.8-.06 4.18.02 5.55.07 1.38.28 2.75.43 4.13-1.49-2.38-1.58-5.66-3.26-7.09-1.65-1.41-4.9-.96-7.9-1.39 0 2.49-.12 4.02.02 5.52.69 7.34.69 7.81 8.11 8.1 14.54.58 29.1.61 43.65.72 1.25.01 2.51-1.15 2.96-1.38zm119.54 45.68c-7.09-.86-14.17-1.89-21.28-2.5-3.52-.3-7.11.14-10.67.3-14.55.64-29.12 2.24-43.63 1.79-66.98-2.09-133.96-3.33-200.96-.9-2.42.09-4.83.43-7.59.69l2.75 9.76c93.74-7.91 187.71-3.81 281.38-9.14zm8.94-2.1v1.06l4.28.29c10.66.63 21.33 1.29 32 1.85 9.11.48 18.22 1.03 27.34 1.2 6.5.12 13.06-.88 19.52-.43 23.35 1.63 46.7 3.45 70.01 5.61 21.13 1.96 42.22 4.34 63.3 6.79 5.2.6 5.72-2.52 6.82-6.55-2.76-.2-5.02-.3-7.27-.54-27.75-2.94-55.44-6.51-83.25-8.66-23.95-1.85-48.03-2.24-72.06-2.96-11.28-.34-22.59 0-33.88.11-4.13.04-8.27.16-12.38.52-4.82.41-9.62 1.13-14.43 1.71zm278.16 21.38c-5.14-1.54-8.43 1.02-11.83 3.87l2.18-4.15-.78-1.33-10.99 4.6 1.51-3.26c-6.26-.86-12.23-1.72-18.21-2.48-4.29-.54-8.59-.92-12.88-1.43-.34-.04-.62-.53-1.09-.95l3.62-1.91-3.13-2.72-5.64 6.5c4.37 1.11 7.88 2.03 11.39 2.89 1.02.25 2.18.14 3.11.54 7.22 3.14 14.58 5.53 22.61 5.24 3.45-.13 5.93 1.5 5.66 5.16a34.43 34.43 0 01-2.1 8.83c-.98 2.74-3.27 5.21-3.56 7.95-.24 2.28.87 5.9 2.6 7 13.3 8.42 26.64.14 27.88-14.23.53-6.11 2.74-9.65 7.55-12.64 2.4-1.49 4.29-3.81 6.4-5.75l-.84-1.39-14.2 2.73 1.09-2.37-.56-1.29c-2.59.79-5.43 1.16-7.69 2.5-2.47 1.46-4.4 3.83-6.56 5.8a33.9 33.9 0 01-.65-.58c1.65-2.27 3.28-4.56 5.11-7.13zm-218.62-27.72l-.06 1.2c1.48.21 2.95.53 4.43.6 11.62.51 23.25.96 34.88 1.45 19.66.83 39.34 1.36 58.97 2.61 12.02.77 23.99 2.49 35.94 4.06 9.29 1.22 18.52 2.95 27.8 4.29 2.4.35 4.59-.29 3.33-3.57-1.02-2.67-2.77-5.18-3.23-7.92-.62-3.68-3-3.97-5.68-3.96-6.79.04-13.59.37-20.38.33-2.73-.02-5.46-.69-8.67-1.12l-.88-2.18-10.6 4.28-.49-1.24 2.83-4.45c-1.38.13-2.28.67-2.82 1.45-2.49 3.61-5.98 4.4-10.13 4.32-10.08-.2-20.17-.12-30.25-.13-25-.03-49.99-.02-74.99-.02zm242.05-42.83l.06 1.14-14.92 1.72-.11.76 20.59 1.47.01.74-13.06 1.44-.14.61 16.88 3.82-.12.83-16.82-1.62-.18.82 17.29 5.79-.19.97-10.38-1.44 9.7 7.75-7.1-2.77c3.13 7.44 5.58 13.85 8.6 19.97.59 1.2 3.43 1.82 5.16 1.71.75-.05 1.84-2.61 1.91-4.08.26-5.88.66-11.83.03-17.64-.35-3.21.27-5.03 2.67-6.86 8.7-6.68 10.99-16.7 14.13-26.58-4.06 1.08-7.88 3.37-11.02 2.66-6.64-1.51-11.96.4-17.55 3.28-2.85 1.47-6.18 2-9.29 2.95l-6.82 2.12.22 1 10.45-.56zM163.4 239.34l-.44 1.58 12.99 6.56-.43.94-12.49-4.26c.43 6.83 6.22 6.35 9.56 8.5 3.62 2.33 7.69 3.96 11.57 5.89-1.09 1.08-1.82 1.27-2.51 1.15-6.1-1.01-12.18-2.14-18.29-3.06-.96-.15-2.05.56-3.08.87.76.92 1.35 2.14 2.32 2.68 1.17.65 2.67.73 4.02 1.05l15.67 3.66c-6.61-.14-12.97-1.38-19.39-2.23-1.51-.2-4.25.57-4.61 1.55-1.08 3 1.38 3.38 3.72 3.63 8.27.91 16.52 1.91 24.79 2.88l-.1 1.19-27.33-2.19-.54 1.39c3.09 1.35 6.12 3.65 9.28 3.86 8.02.53 16.1.3 24.14-.07 1.76-.08 4.04-1.66 5.04-3.21 5.04-7.8 3.4-16.12-.35-23.49-4.36-8.55-12.64-10.83-20.51-6.98l10.24 4.27-.38 1.13c-7.63-2.45-15.26-4.87-22.89-7.29zm252.8 118.28c6.41.85 6.88.45 6.49-4.88-.11-1.55-.37-3.08-.48-4.63-.73-10.41-2.5-20.89 1.65-30.7 7.53-1.65 15.09 3.34 22.32-1.05 7.04 3.87 14.52 2.29 21.95 1.96 7.55-.34 15.14-.64 22.67-.23 7.06.39 14.05.97 21.06.68l.03-1.46-11.82-1.59.04-1.16h50.8l.07-1.43c-1.6-.19-3.19-.5-4.79-.57-14.76-.58-29.34-1.61-44.29.26-17.12 2.14-34.64 1.04-51.99 1.3-5.66.08-11.32.01-16.98.01v-1.37h20.99l-.04-2.13h-35.72c-7.7-.01-15.4-.12-23.09.03-1.06.02-2.09 1.28-3.14 1.97l.48 1.2c4.59.26 7.45 2.4 8.37 7.05l.89-3.9.83 5.84 1.68-.11-.77-5.86 4.95-2.72 5.46 6.55.58-5.78c6.03 2.64 6.89 4.6 4.78 9.78l-1.27-7.24-1.73.36 2.1 12.82c-4.86 8.49-.42 17.86-2.08 27zm13.75-11.83l1.47.4-2.16 10.52c7.54.41 5.1-7.48 9.45-10.21l-2.31 9.78 10.48-1.05c-.61-11.56-.99-22.67-1.92-33.73-.3-3.57-3.21-2.8-5.65-1.87l-.25 4.45c-.86-.64-1.02-1.38-1.38-2.01-.62-1.07-1.37-2.06-2.06-3.09-.64 1.17-1.51 2.28-1.85 3.54-.48 1.74-.56 3.59-.81 5.39-1-2.12-.82-4.26-1.51-6.06-.59-1.54-1.96-3.31-3.4-3.86-2.54-.97-3.62 1-3.69 3.29-.31 11.25-.58 22.5-.72 33.75-.01.7 1.23 1.41 1.89 2.11.61-.74 1.51-1.39 1.79-2.24 1-3 1.77-6.07 2.63-9.11zm31.71-25.3v12.43c-1.58-3.26-1.87-6.65-2.72-9.88-.32-1.22-1.94-2.11-2.96-3.15-.83 1.04-2.13 1.97-2.39 3.13-.51 2.32-.45 4.76-.72 8.31-2.38-4.44-.33-9.07-4.29-11.96-.48.99-.85 1.38-.83 1.77.36 10.36.66 20.73 1.2 31.08.17 3.31 2.25 3.32 4.49 1.67.94-.69 1.62-1.73 2.54-2.75.57 3.3 3.47 4.32 7.11 2.57 1.19-.57 1.53-.81 3.07.07 5.01 2.86 9.05-.18 8.5-5.99-.42-4.47-.9-8.94-1.65-13.36-.32-1.88-1.39-3.63-2.12-5.44l-1.02.33v15.93c-1.4-6.84-1.94-13.71-2.32-20.6-.17-3.49-1.52-5.21-5.89-4.16zm168.2 65.86c-1.14-1.07-1.91-2.37-2.65-2.36-.87.02-2.41 1.15-2.45 1.87-.32 5.38-.43 10.77-.4 16.16 0 .96.8 2 1.42 2.86 3 4.14 5.9 8.36 9.16 12.29 1.55 1.87 4.04 4.58 5.68 4.31 1.84-.3 3.73-3.3 4.69-5.52 3.54-8.13 6.7-16.43 10.45-25.75-6.76 1.06-11.36 5.1-15.85 9.37l-1.33-1.48 10.57-9.28c-6.41-.58-10.68 2.29-14.46 6.42l-.71-.98 7.13-7.9-11.25-.01zm-573.7-71.53c-1.36-1.21-2.68-2.06-3.55-3.23-2.88-3.86-6.04-3.7-10.52-2.46-6.02 1.66-12.49 1.84-18.79 2.33-1.65.13-3.38-.91-5.08-1.41l.28-1.39c9.25.54 18.5 1.06 27.24-3.51-2.08-4.03-4.5-6-9.2-3.76a25.62 25.62 0 01-8.99 2.18c-3.06.23-6.18-.44-9.28-.72l.17-1.18 21.84-3.4-4.23-6.45c-5.82 1.07-11.6 2.04-17.32 3.26-.94.2-2.28 1.41-2.36 2.26-.59 6.41-.9 12.85-1.38 20.45l27.64-4.03c-1.95 1.22-4 2.44-6.19 2.78-6.25.99-12.58 1.47-18.82 2.49-1.58.26-2.95 1.81-4.41 2.77 1.44.64 3.03 2.05 4.29 1.8 12.14-2.34 24.23-4.94 36.32-7.51.71-.14 1.32-.7 2.34-1.27zm259.81-68.4l-1.1 3.06h-8.45l8.2 9.55c1.29-.4 3.04-.96 4.8-1.48 1.88-.55 3.77-1.07 5.66-1.6l.26.61-5.87 3.5c1.48.73 2.81.95 3.76.45 5.74-3.04 9.56-5.75 9.12-12.14-.53-7.57-1.87-15.08-2.86-22.62l-1.76-.19-3.12 15.39-1.52-2.71-9.22 4.53 1.63-15.12c-4.52 1.39-8.62 2.39-12.47 4.01-1.07.45-1.38 2.72-2.17 4.45l4.4.57-7.35 3.49.55 1.63 9.76-.98c-5.01 3.44-11.35 1.05-14.01 7.43l21.76-1.83zm348.67 185.11l-.26-1.78c4.38-.69 8.8-1.17 13.13-2.1a1816.5 1816.5 0 0033.46-7.53c1.44-.34 2.72-1.38 4.78-2.47-1.53-.79-1.83-1.09-2.07-1.05-12.79 2.56-25.6 5.09-38.35 7.85-1.2.26-2.04 2.01-3.16 2.91-.41.33-1.16.3-1.76.31-4.58.08-9.17-.07-13.74.25-9.57.66-10.22 1.34-12.47 10.92 3.53.17 5.49 4.81 10.07 2.79 3.46-1.53 7.47-1.95 11.29-2.5 8.19-1.18 8.21-1.08 9.22-3.98l-16.62 1.86c13.74-4.54 28.84-3.77 41.81-12.44l-35.33 6.96zm-56.39-38.48c-7.12 10.7-1.78 24.06 6.98 30.51l.48-1.97 11.94 5.28-1.88-4.49c3.98 2.99 7.32 4.99 11.09 3.22-4.37-5.9-8.45-11.71-12.85-17.26-2.97-3.74-3.71-7.61-2.53-12.16.44-1.7.07-3.6.07-5.41l-1.34.04c-3.15 7.9-.05 15.88-.36 23.99l-3.71-14.69-.96.16v11.96l-1.26.03c-.23-3.48-.62-6.96-.66-10.44-.04-3.36.29-6.73.46-10.09l-1.87-.29c-.58 2.06-1.28 4.09-1.71 6.18-.47 2.28-.67 4.62-.99 6.93l-.9-.14v-11.36zm-107.64 12.74c-4.01 4.39-6.52 1.82-9.58.4-3.25-1.51-7.03-1.89-10.58-2.76-1.82-.72-3.47-3.05-5.57-3.55a88.98 88.98 0 00-15.11-2.03c-3.1-.19-4.34 1.85-4.06 5.33 9.48-4.74 24.33.17 26.77 9.19.85 3.14 2.13 4.48 5.17 4.54 2.85.06 5.23-.3 5.65-3.9.12-1 1.13-1.9 1.73-2.84 1.22 1.94 1.77 3.73 1.53 5.4-.64 4.54.56 6.62 5.12 7.96 5.27 1.54 9.86.5 10.72-3.29 1.21-5.34 1.38-10.91 1.99-16.38l-1.4-.15-3.17 4.42-1.24-3.21-3.58 9.94-.67-.18-.54-5.99-2.78 4.15-.4-7.05zm116.04-109.74c.14-.55.41-1.09.41-1.64.02-6.97 1.19-13.57 5.71-19.22.5-.63.91-1.89.62-2.52a449.16 449.16 0 00-9.31-19.11c-.47-.91-2.45-1.77-3.37-1.49-.92.29-1.8 1.97-1.99 3.16-1.42 8.92-2.67 17.87-4.08 27.56l7.98 8.78c1.11-8.01 2.4-14.82 7.23-20.38-1.58 8.29-6.23 16.03-3.2 24.86zm-506.89 59.61l-11.52 5.04c1.75 3.81 4.69 8.06 5.55 12.69.87 4.71-.32 9.79-.65 15.4 10.71-4.53 22.82-3.74 31.44-13.55-2.01-.26-3.31-.55-4.62-.58-4.34-.1-8.68.01-13.01-.16-7.09-.27-3.87-9.63-9.64-11.27-.2-.06.11-2.51.49-3.75.33-1.17 1.09-2.19 1.96-3.82zm59.91 37.69l-.77.99-5.28-3.87-1.37 1.09 7.41 9.86-.63.56-6.08-5.22-4.42 7.4c6.31 1.45 11.83 2.78 17.38 3.93.93.19 2.61-.1 2.96-.72 2.34-4.25 4.76-8.51 6.47-13.03 1.14-3.02 1.15-6.46 1.77-10.4l-3.9-2.3c-.34 2.69-.81 4.54-.75 6.37.06 1.83.65 3.64 1.01 5.47l-.93.24-1.78-2.19-.89 2.8-11.42-10.65 2.49-1.95-.66-1.05-5.78 2.65 7.91 8.74-.76.64-7.48-6.31-.78.97 6.28 5.98zm48.37-149.86l.72 1.08c-4.28 2.43-8.6 4.78-12.8 7.33-.93.57-1.45 1.83-2.15 2.78 1.17-.2 2.48-.14 3.47-.67 1.77-.94 3.26-2.38 5.01-3.35 5-2.78 10.07-5.43 15.11-8.13l1.37 1.69-6.18 7.12.55.88 16.03-7.67-.35-.87-5.3.77 8.61-6.99-1.07-1.55-8.73 2.94-.39-.87 11.04-7.33c-11.92-.94-21.64 3.5-30.44 10.93l7.24-1.68.36 1.18c-5.2 1.84-10.37 3.8-15.62 5.48-2.74.88-3.52 1.97-1.37 4.53l14.89-7.6zm94.36 134.02c-1.33 1.26-2.33 1.75-2.47 2.42-1.05 4.99-2.1 9.99-2.75 15.03-.19 1.44.91 3.06 1.46 4.58 1.02 2.8 2.22 5.54 3.08 8.39 1.19 3.93 2 7.97 3.21 11.89 1.44 4.64 5.31 4.45 9.14 4.26 3.69-.18 6.21-2.02 7.33-5.42 1.22-3.7-.08-6.85-2.66-9.69-5.77 6.15-10.39 6.15-13.34-.48-1.46-3.28-1.45-7.57-.98-11.25.73-5.66 2.51-11.18 3.67-16.79.33-1.57.05-3.27.05-4.91l-1.86-.34-5.81 20.95-1.31-.3 3.24-18.34zm-145.28-76.63l-.54 1.03c.85.45 1.66 1.11 2.56 1.3 4.34.88 8.69 2.14 13.08 2.34 9.61.43 19.24.49 27.47-5.98 2.59-2.04 3.26-3.6.07-5.48a16.25 16.25 0 01-7.95-10.92c-.19-.85-.79-1.61-1.2-2.4l-1.37.57 6.5 17.64-13.93-7.77 2.75 7.79-13.1-3.02 4.68 6.79-9.35-5.83-.57.9 1.7 2.8-1.38 1.04-8.44-9.38-1.24.57 2.96 8.77c-.77-.23-1.73-.5-2.7-.76zm-4.99 76.95c-2.4-.49-5.53-1.28-8.72-1.71-1.2-.16-3.04.08-3.68.88-2.68 3.29-5.02 6.85-6.67 9.18 1.18 2.74 2.13 4.3 2.51 5.99.57 2.51.02 5.6 1.33 7.48.8 1.15 4.35 1.09 6.38.53 2.56-.71 6.24-.45 6.73-4.5l2.12-17.85zm181.39 33.79c1.04 2.31 2.17 4.59 3.1 6.94 3.86 9.76 11.88 15.69 22.2 15.66 2.26-.01 5.21-1.31 6.54-3.02.92-1.18-.19-4.16-.78-6.23-.36-1.28-1.49-2.32-2.19-3.53-1.35-2.34-2.73-2.7-5.62-1.83-3.65 1.1-7.78.95-11.68.79-5.73-.23-8.32-4.85-11.57-8.78zM310.2 217.36l-.58.92-17.46-11.65-1.34 1.05c1.28 2.01 2.14 4.57 3.93 5.93 4.17 3.17 8.69 5.93 13.28 8.49 1.33.74 3.78.94 4.97.19 2.67-1.68 4.87-4.1 7.43-6.37l-16.77-21.57c-3.23 4.23-3.69 7.49.25 10.82 2.8 2.37 5.2 5.21 7.78 7.84l-.48.51-9.82-4.9-.81 1.31 9.62 7.43zm206.88 198.42c3.48-4.68 7.34-6.33 11.32-4.56 3.47 1.55 6.28 4.57 9.23 6.82l4.81-12.63c-5.62-2.22-11.12-4.25-16.5-6.56-4.96-2.13-8.48-.3-8.82 5.11-.22 3.49-.04 7.01-.04 11.82zM223 318.49c-.67-2.29-1.02-3.59-1.43-4.87-2.23-6.91-3.17-7.49-10.23-6.39-5.45.85-10.91 1.62-16.35 2.49-1.12.18-2.19.67-4.94 1.55 3.98 3.11 6.77 7.06 9.98 7.44 7.36.86 14.93-.03 22.97-.22zm337.85-102.9l12.45 17.66 5.04-3.93c-.77 3.19-5.18 5.78.05 8.3 1.92-2.91 7.52-3.36 5.56-8.75-1.4-3.84-2.76-7.92-7.75-8.11-.1-1.04-.01-2.99-.35-3.07-2.6-.62-5.29-.87-7.93-1.23.6-.28 1.41-.62 2.2-1.01.91-.45 1.8-.92 2.75-1.41-2.06-2.82-3.53-2.63-12.02 1.55zm99.18 156.47l-.85.92c-7.56-5.35-15.09-10.75-22.72-15.99-1.24-.85-2.95-1.09-4.49-1.37-.26-.05-1.21 1.47-1.04 1.72.9 1.3 1.89 2.66 3.15 3.58 6.22 4.57 13.31 8.25 18.61 13.7 5.47 5.63 11.16 4.31 17.47 3.54-6.53-5.74-11.24-13.8-21.23-14.67l11.1 8.57zM502.48 213.28c-3.5-6.93 4.6-9.44 4.65-15.17-6.36 3.15-13.57 4.57-15.42 13.16 1.92 1.38 3.99 4.1 6.08 4.12 4.52.04 10.06.03 13.32-2.43 3.53-2.66 4.95-8.12 7.29-12.36-6.77 2.68-13.92 4.4-15.92 12.68zm-62.47 205.05c-3-2.29-5.34-4.28-7.9-5.95-1.69-1.1-3.76-2.58-5.52-2.41-5.34.49-10.61 1.7-15.78 2.61.33 5.81.5 5.74 4.57 7.26 8.04 2.99 15.84-.86 23.77-.61.56.01 1.14-1.22.86-.9zM589 214.96c-7.68 3.26-8.11 5.86-2.33 10.85.8.69 1.74 1.23 2.63 1.81 2.47 1.62 5.99 2.69 7.18 4.98 2.09 3.99 3.26 2.5 5.11.29 4.23-5.05 3.81-4.73.11-9.87-2.59-3.59-4.82-.41-7.19-.45l1.59-6.02-7.11 2.03.01-3.62zM575.65 487.7c8.82-1.85 14.44-4.88 14.93-13.54.19-3.35 1.48-6.63 2.12-9.97.23-1.21.04-2.51.04-3.76-5.99 5.54-10.9 11.43-15.93 17.2-1.15 1.32-2.94 2.09-4.11 3.4-.86.97-1.19 2.41-1.76 3.64l4.02 3.22c1.21-2.81 2.05-5.87 3.74-8.34 1.32-1.92 3.7-3.12 5.61-4.64l.86 1.01-9.52 11.78zM386.38 360.53c9.6 2.61 16.54-.47 21.41-8.68 1.84-3.11 1.34-5.92-.6-9.43l-16.28 18.38c-.39-6.13 7.88-9.6 2.38-16.1l-4.09 7.28-.5-.84-6.36 5.7 7.24.74-3.2 2.95zM364.5 186.57l-1.76.41c.26 3.41-.76 7.85 1.01 10.03 5.23 6.43 11.48 12.05 17.55 17.75.66.62 2.97.12 4.04-.58.53-.35.45-2.69-.17-3.52-1.44-1.91-3.37-3.44-5.46-5.46l-1.48 4.46c-1.07-10.71-8.92-15.91-13.73-23.09zm186.28 258.16c-7.69 11.31-13.06 23.47-14.2 37.76 6.1-4.51 10.76-9.56 11.77-17.12.08-.61-.88-1.37-1.65-2.48 2.87-5.24 6.04-11.19 4.08-18.16zm106.37-183.87c9.75.33 12.26-1.17 15.53-8.4a36.7 36.7 0 013.13-5.66c1.97-2.85 4.14-5.56 6.23-8.33-12.6 2.57-18.18 12.45-24.89 22.39zM524.34 436.17l-1.9.15v37.5a9.59 9.59 0 005.47-8.59c.14-4.87-.87-10.09.57-14.52 2.13-6.52-2.28-9.9-4.14-14.54zM350.05 209.7l-18.15-28c-.48 17.68 5.77 28.13 18.15 28zm322.58 49.38c4.69-2.34 9.43-3.29 11.75-6.18 4.22-5.27 7-11.7 10.42-17.71-7.64.11-19.52 12.37-22.17 23.89zM648.9 451.54c.18 3.86 2.37 5.17 5.53 4.89 8.79-.79 17.57-1.69 26.32-2.79 1.03-.13 1.87-1.78 2.8-2.72-1.06-.78-2.18-2.31-3.18-2.23-10.34.78-20.66 1.83-31.47 2.85zm-532.61-66.16c-4.1 1.66-8.77 2.85-12.5 5.41-1.47 1.01-1.28 5.1-1.03 7.71.12 1.3 1.85 3.01 3.22 3.53 2.85 1.07 10.43-6.03 10.32-9.28-.07-2.12-.01-4.25-.01-7.37zm215.53-175.86l1.37-.99c-1.48-11.11-10.88-17.77-15.39-27.29-1.62 3.99-3.03 8.04-.29 11.55 4.52 5.78 9.52 11.17 14.31 16.73zm202.52 12.39l6.05-11.7h-4.34c2.94-2.94 8.23-3.31 7.44-9.03-2.74 1.26-5.09 2.4-7.5 3.43-12.26 5.27-11.81 7.68-1.65 17.3zM267.66 509.4c10.68 3.67 75.73 4.35 86.71 1.42l-86.71-1.42zm350.96-290.14l-1.56-.19c-1.57 2.43-3.27 4.79-4.63 7.33-.43.8-.32 2.72.21 3.05 3.33 2.1 6.71 4.85 10.36 5.35 1.68.23 4-4.12 6.03-6.39.1-.11.24-.24.26-.38.12-.81.2-1.63.3-2.44-.93.08-2.06-.14-2.76.31-1.58 1-2.94 2.34-4.39 3.54l-.53-.53 3.36-5.52c-3.71-4.35-4.51 1.21-6.63 1.45-.02-1.86-.02-3.72-.02-5.58zm-130.96 239.2c-7.39 5.71-8.26 13.8-8.15 22.56 2.91-1.76 5.9-3.64 7.37-6.34 1.88-3.47 2.49-7.62 3.72-11.45.93-2.88 0-4.46-2.94-4.77zM197.31 61.67l.78-1.09c1.24-.06 2.48-.07 3.71-.21 4.04-.45 6.29-3.38 6.33-6.79.01-1.11-4.39-2.49-6.92-3.3-1.2-.38-2.78.11-4.1.51-3.17.97-7.04 2.27-6.19 6.15.42 1.96 4.15 3.18 6.39 4.73zm360.38 169.28l1.28.45 4.4-4.65c-.99 2.81-2.04 4.6-2.12 6.44-.04.95 1.64 2.83 2.52 2.81 2.34-.04 4.71-5.15 3.57-7.25-1.98-3.65-4.1-7.22-6.11-10.85-1.43-2.59-3.51-2.13-4.82-.44a13.76 13.76 0 00-2.52 6.24c-.14.94 1.6 2.15 2.49 3.24l.95-.74.36 4.75zm-434.47 1.08c-5.11-6.12-8.95-7.81-15.14-6.52-3.21.67-6.4 1.57-8.48 4.15l.61 1.32 9.82-2.13-3.35 4.35c6.07 3.28 11.13.22 16.54-1.17zm138.43 225.41l-1.81-1.65c-5.49 4.64-11.08 9.18-16.39 14.02-1.12 1.02-2.11 3.71-1.54 4.76 1.58 2.93 3.81.87 5.32-.44 3.73-3.24 7.41-6.58 10.75-10.2 1.64-1.78 2.47-4.3 3.67-6.49zm214.37-128.29V352c4.75-.33 7.05-2.22 6.26-7.09-.39-2.42-.2-4.93-.25-7.4-.07-3.96-2.02-6.55-6.01-8.36zm6.91-69.12l-.6-.74c-2.27 1.89-5.1 3.39-6.7 5.74-2.9 4.27-7.11 5.74-11.62 6.93-4.41 1.17-8.87 2.18-13.84 3.4 5.16 7.02 10.5-.13 15.22 1.16a64.1 64.1 0 00-.45 1.11l17.99-17.6zm-141.65 32.78c6.83-1.71 13.71-3.29 20.46-5.27 1.2-.35 2.91-2.66 2.66-3.59-.76-2.74-2.39-5.24-3.68-7.84l-1.75.55.68 5.56c-1.81.88-3.28 1.49-4.64 2.3-1.36.81-3.19 2.92-3.81 2.59-5.79-3.07-7.41 1.92-9.92 5.7zm12.69-56.95l-.92-.55-10.21 8.52.67-5.28-.83-.37-3.84 5.3-.46-3.51-.98.08v13.42l9.87-8.87-.48 4.07.91.18c2.08-4.34 4.17-8.66 6.27-12.99zM527.96 486.7l1.81.66c7.09-6.43 4.99-15.98 7.93-24.34-7.84 4.99-8.95 7.05-9.33 18.24l1.39-3.1.73.69-2.53 7.85zm106.68-205.31c-1.37-.21-3.6-1.3-4.71-.61-6.95 4.36-11.01 15.94-8.95 22.28l13.66-21.67zM189.3 62.17c-.89-4.41-2.64-4.2-5.07-3.3-4.9 1.8-9.83 3.66-14.9 4.83-3.7.85-4.45 1.09-4.89 6.6l24.86-8.13zm181.96 341.01c9.26-3.66 17.43-3.55 24.78 3.08.87-5.74-.66-7.91-6.39-9.57-7.13-2.06-15.84.75-18.39 6.49zm-28.31 75.07l.55.62c5.49-2.31 11.04-4.51 16.43-7.03 1.04-.49 2.26-2.47 2.02-3.41a7.23 7.23 0 00-3.05-4.03c-.94-.56-3.22-.26-3.99.54-4.15 4.29-8.01 8.85-11.96 13.31zm-20.64-11.49c-6.38 3.8-12.81 7.51-19.07 11.49-1.02.65-1.25 2.52-1.85 3.82l1.56 1.06c6.56-5.37 17.84-4.46 19.36-16.37zm291-234.27l-6.78-4.67-5.04 10.26-6.5 4.61.78 1.47 4.36-1.96c3.79 2.17 7.25-.14 13.18-9.71zm-441-152.33c-18.94 1.78-31.06 6.42-34.32 12.95l34.32-12.95zm310.77 122.21c-3.99.36-4.51.77-6.37 5.1-1.35 3.16.54 6.02 5.35 8.64 3.53 1.92 4.06-1.39 4.9-3.03.65-1.27.27-3.41-.31-4.91-.75-1.91-2.16-3.57-3.57-5.8zm-10.35 248.98c-.58 3.27-.87 5.98-1.55 8.59-1.75 6.78-1.35 7.54 6.87 9.72.15-5.18.34-10.11.38-15.05 0-.53-.88-1.07-1.35-1.6-.54.55-1.06 1.12-1.63 1.63-.15.13-.48.04-.79.06l-1.93-3.35zm144.54 4.89l-1.57-1.03-15.13 20.11 1.25 1.13 4.73-4.32c1.25.76 3.03 1.12 3.53.49 3.77-4.85 7.2-9.93 7.19-16.38zM206.42 97.73c-5.64 2.85-10.78 5.23-15.66 8.07-1.09.63-2.13 3.76-1.71 4.16 1.37 1.29 3.52 2.65 5.2 2.46 1.66-.19 3.42-1.99 4.59-3.51 2.48-3.24 4.6-6.74 7.58-11.18zM15.57 288.66l-.54 1.47c1.51.88 3.11 2.62 4.52 2.47 5.03-.52 9.99-1.68 15.59-2.71-2-2.65-1.8-6.79-6.02-5.73-4.6 1.16-9.04 2.97-13.55 4.5zm552.04 154.76l-1.68-.12-3.94 22.69c7.72-4.85 10.56-17.51 5.62-22.57zM385.54 478.1c-4.2 2.07-7.38 3.6-10.53 5.21-2.54 1.3-3.8 5.75-2.08 8.06 2.2 2.96 4.35.47 5.77-.82 1.77-1.61 2.59-5.55 4.23-5.79 5.82-.88 1.53-4.11 2.61-6.66zm194.15-21.89c-7.21 6.71-10.3 14.32-9.3 21.29 2.53-2.27 5.74-3.79 6.53-6.13 1.61-4.83 1.92-10.08 2.77-15.16zm-22.31 16.67l-1.1-.76c-3.21 2.55-6.64 4.89-9.52 7.78-.94.94-.99 3.5-.46 4.96.5 1.38 2.51 3.36 3.46 3.17 1.42-.29 3-2.05 3.63-3.56 1.61-3.76 2.7-7.71 3.99-11.59zM316.82 197.62c2.39 5.66 3.96 10.67 6.6 15.06 1.18 1.96 4.4 2.84 6.86 3.77.61.23 2.31-1.04 2.69-1.95.31-.75-.3-2.32-1.01-2.99-4.66-4.43-9.45-8.7-15.14-13.89zm-188.06-91.31c3.93-1.47 8.46-1.16 11.38-5.4 1.57-2.28 4.63-3.53 7.01-5.24l.8.97-.8 2.27.69.87 11.77-9.98c-12.55 1.51-21.19 9.91-30.85 16.51zm515.3 339.75l-8.42 17.32 14.34-2.02 1.11-1.21c-9.54-1.05-5.27-8.03-7.03-14.09zm-75.18 18.12c-5.32 2.91-10.69 11.4-10.6 16.91l4.88-3.82.26.35-2.75 3.89c5.6-1.22 8.83-8.26 8.21-17.33zM404.63 359.81c3.51-.1 6.88.64 7.38-4.34.36-3.64 1.61-7.19 2.11-10.82.34-2.46.06-5 .06-7.51l-2.06-.36c-.81 2.28-2.41 4.6-2.26 6.82.38 5.75-.74 10.69-4.99 14.75-.17.15-.11.56-.24 1.46zm233.3-130.58c-4.49-2.35-10.39 2.7-15.37 12.98 8.2-.48 12.5-5.6 15.37-12.98zM388.25 472.16c7.61-2.09 9.51-4.2 7.97-9.48-.46-1.58-2.44-2.72-3.73-4.06-1.41 1.44-3.66 2.69-4.05 4.38-.68 2.88-.19 6.04-.19 9.16zM139.7 385.98c-5.92-4.24-9.98-2.79-13.73-.61-.92.54-1.54 2.92-1.17 4.11.97 3.13 4.75 3.57 8.1 1.24l6.8-4.74zm74.76-306.96l-.5-1.35c-2.5.52-5.06.83-7.46 1.63-1.62.54-4.13 1.61-4.29 2.73-.5 3.43-3.01 3.96-5.37 4.94-3.15 1.31-6.31 2.6-9.46 3.89l.71 1.46c10.55-.96 17.57-8.88 26.37-13.3zM33.26 244.57c3.56 7.92 8.7 10.11 18.94 8.33-4.85-6.5-12.26-5.79-18.94-8.33zm365.88 241.05c5.03-2.65 6.53-10.37 3.77-17.65-4.14 1.17-5.35 6.63-3.77 17.65zm-75.39-8.85c-9.99 3.03-14.01 7.82-10.42 12.9l1.81-4.42 1.73 3.41c3.58-3.36 8.77-5.32 6.88-11.89zm144.06-11.96c3.45-9.62 1.23-17.48-5.94-18.47l3.53 11.68c-2.89 4.51-2.8 4.91 2.41 6.79zM372.76 341.1l-13.55 14.7 6.93 2.02c-.09-6.69 9.92-8 6.62-16.72zm171.96 62.83c9.6-3.55 13.31-7.84 11.47-14.09-10.07 7.01-10.07 7.01-11.47 14.09zm149.83 12.69l17.25-3.12c.46-.08 1.04-.04 1.34-.31 1.09-.98 2.09-2.06 3.12-3.1-12.79-.6-20.64 2.02-21.71 6.53zM460.06 210.27l4.72-7.46-2.44-1.29 1.74-4.14c-1.44.16-3.02-.01-4.29.54-6 2.6-6.02 7.84.27 12.35zm154.25 4.32c-3.31-1.37-7.36.72-8.97 4.06-2.57 5.34 2.15 6.38 5.16 9.06l3.64-8.89-3.62-1.3a732.9 732.9 0 013.79-2.93zm38.32 163.34l.87-1.57-21.38-14.53-1 1.48c7.26 4.74 11.57 13.78 21.51 14.62zM417.14 493.75l5.43 4.73c8.94-3.94 9.08-4.25 4.92-10.97-.78.39-1.63.73-2.39 1.2-2.47 1.53-4.91 3.1-7.96 5.04zm-94.08-271.51c-4.99 4.19-7.68 11.41-5.54 18.22 2.15-2.62 4.82-4.47 5.32-6.78.81-3.78.22-7.86.22-11.44zm119.98-26.3c-2.75 7.03-1.85 10.36 3.9 15.38 4.85-5.39 4.48-6.93-3.9-15.38zm-63.06 148.68l-10.29 14.01c11.72-1.24 13.23-2.63 10.29-14.01zm102.4-123.35l.23-1.6-8.48-6.42-4.06 12.03 12.31-4.01zm-14.19-3.49c4.82-5.46 4.62-7.24-1.47-13.57l-4.84 8.15 6.31 5.42zm-73.75 192.79c-1.36-5.48-4.55-7.45-11.45-7.82-7.33-.4-9.38.33-11.02 4.75 8.18-3.63 15.2-.61 22.47 3.07zM103.96 127.44c9.96-4.79 17.93-11.6 18.35-15.67-6.61 1.96-15.55 9.59-18.35 15.67zm24.15 145.22c-8.53 3.92-9.32 5.03-9.64 13.63 6.37-1.48 9.2-5.49 9.64-13.63zM313.47 457.5c-6.48 1.14-12.14 6.68-12.07 11.82 9.18-2.99 11.77-4.03 12.07-11.82zm78.6-43.64c-5.07-5.84-10.79-6.83-16.99-5.49-.92.2-1.61 1.4-2.41 2.13.98.51 1.92 1.25 2.96 1.48 4.28.94 8.58 1.82 12.91 2.51 1.11.18 2.35-.4 3.53-.63zm23.73 76.66c4.24-1.48 7.41-2.39 6.87-6.99-.38-3.33.68-7.35-5.15-7.94l-1.72 14.93zm-1.04-35.65l-1.08-.06-.96 4.21-2.3-6.85c-1.61 13.8-.43 17.83 4.33 18.3l.01-15.6zm-29.91-250.32c.92-4.74-2.33-13.07-6.86-17.62-.77 11.34.36 14.22 6.86 17.62zm225.32 36.65c7.26 2.95 9.06 2.19 11.74-4.66-7.45-4.31-7.58-4.26-11.74 4.66zm-63.88 81.47c.44 3.94 0 7.37 1.3 9.9 1.89 3.67 3.28 6.77.08 10.4 5.72-2.05 4.12-6.8 4.38-10.8.26-3.87-.28-7.37-5.76-9.5zm111.14-105.85c-2.18.74-5.13.84-6.38 2.35-4.09 4.91-7.56 10.34-11.36 15.68 6.69-4.95 13.82-9.43 17.74-18.03zM120.44 472.56c4.44-6.84 4.41-7.71-.22-14.31-5.8 6.81-5.81 8.82.22 14.31zm265.28-161.31c0-3.65.44-7.11-.26-10.33-.22-1.02-3.45-1.39-5.55-2.15l-1.08 11.31 6.89 1.17zm19.43 13.3c-2.81 1.85-2.81 1.85.6 10.67l-2.93-1.84v9.16c9-5.32 4.32-11.7 2.33-17.99zm238.08-96.13l5.4-9.86c-5.68-1.48-8.41.43-11.7 7.35l6.3 2.51zM31.74 253.47c.53 6.72 7.57 11.42 13.8 9-4.51-3.34-7.04-9.25-13.8-9zm356.29-64.01c-1.49 7.36 1.21 13.21 7.08 17.11 2.23-7.36-3.77-11.01-7.08-17.11zm-158.25-38.24c-4.15 4.75-9.11 7.28-10.79 13.06 8.87-.54 10.64-2.6 10.79-13.06zM28.2 235.63c1.73 5.56 9.43 9.77 16.67 9.52-3.5-6.26-5.01-5.04-16.67-9.52zm266.7 52.66c4.23-2.97 5.14-10.8 2.02-15.23-3-4.26-5.25.51-7.86.98-.59.11-1.08.82-2.64 2.08l8.48-2.11v14.28zm327.98 38.1l10.39-16.59-1.16-.73c-8.12 4.56-11.13 9.45-9.23 17.32zm-286.32 91.43c.8-.57 2.5-1.14 2.79-2.12 1.21-4.14-.1-8-3.12-10.81-1.09-1.01-3.62-.48-5.23-.63l5.56 13.56zm20.7 60.23l-.54-1.1c-4.22 1.73-8.47 3.39-12.65 5.21-4.42 1.93-4.58 3.14-1.33 6.78l14.52-10.89zm-.45-226.95c4.13 1.03 6.42.22 6.59-4.39.08-2.3 1.21-4.57 1.88-6.89-5.07.05-7.41 3.12-8.47 11.28zm282.81 105.45c3.77 6.55 9.48 4.12 14.75 2.82 1.27-.31 2.15-2.21 3.21-3.38l-.85-.82-9.49 3.06.78-3.93-8.4 2.25zm-439.35-198c4.79-5.72 10.29-9.31 13.62-16.23-8.46 2.9-13.44 8.74-13.62 16.23zm164.13 44.7c.71 10.22 4.78 14.15 11.85 12.81l-11.85-12.81zM184.27 102.24c-8.11-.35-13.03 2.76-15 8.78 6.92.88 9.79-4.87 15-8.78zm348.3 317.46c-.67-5.52-7.24-8.64-10.79-5.89a4.42 4.42 0 00-1.48 3.09c0 .6 1.41 1.58 2.29 1.72 3.16.5 6.37.71 9.98 1.08zm26.36 39.24l-11.37 16.3c11.16-4.92 14.11-9.21 11.37-16.3zm17.4-119.36c3.52-.33 5.23-2.14 5.54-5.31.45-4.49-2.7-6.32-6.52-8.74l.98 14.05zm-243.3 119.83c-5.14 2.88-5.91 4.63-4.78 10.54 9.49-3 10.18-4.41 4.78-10.54zm-97.57-172.42l-1.52-.89c-1.66 2.76-4.52 5.47-4.64 8.29-.11 2.73 3.13 4.58 6.61 3.76.13-.61.33-1.06.3-1.49-.22-3.22-.49-6.45-.75-9.67zm252.57 167.78a7318.6 7318.6 0 01-7.13-15.56l-1.27.58c.32 12.46.62 13.67 8.4 14.98zM116.14 280.21c-6.53 2.74-8.96 6.03-9.32 12.32 6.93-2.29 8.29-4.03 9.32-12.32zm114.11-59.15c-5.37-7.84-13.67-12.26-18.8-9.99 6.31 3.11 11.28 7.76 18.8 9.99zM30.77 281.35L28 276.14l-14.56 9.23.34 1.14 16.99-5.16zm501.71-54.36c-.08-5.73-4.72-7.79-6.85-11.67-5.15 6.84-4.66 7.7 6.85 11.67zm165.05 176.68l1.1 1.25c4.85-1.35 9.73-2.63 14.54-4.1.8-.25 1.35-1.34 2.01-2.04-.97-.41-2.02-1.31-2.89-1.16a69.9 69.9 0 00-10.73 2.59c-1.54.55-2.69 2.27-4.03 3.46zm-63.21-109.33l-10.37 12.31c6.99-.1 12.29-6.29 10.37-12.31zM203.53 137.42c7.46.96 13.43-4.03 13.99-11.09l-13.99 11.09zm311.88 74.49l3.77 7.9c5.08-4.68 5.13-7.22-.25-13.51l-3.52 5.61zm-129.19 21.97c-1.52.48-2.44.51-2.56.84a336.77 336.77 0 00-4.66 13.52c-.09.29.91 1.28 1.43 1.31.57.04 1.58-.55 1.73-1.07 1.38-4.61 2.6-9.27 4.06-14.6zM383.89 475l2.09-.75-.51-11.05-1.81-.59c-1.6 1.84-4.7 3.92-4.45 5.47.4 2.49 3.01 4.63 4.68 6.92zM145.51 109.56c2.13-1.38 4.13-2.51 5.88-3.93.41-.33.07-2.43-.05-2.44-2.19-.21-4.57-.75-6.57-.13-1.64.51-2.83 2.45-4.21 3.75l4.95 2.75zm162.24 214.3l-.99-.43-12.13 21.58c3.1.6 5-.97 6.14-3.91 1.39-3.6 2.81-7.18 4.25-10.76.88-2.18 1.82-4.33 2.73-6.48zm199.06-69.26c-6.49-1.54-16.73 2.54-18.06 6.93 6.11-2.75 12.9-2.65 18.06-6.93zm4.84 227.44c5.47-1.81 7.56-5.74 6.41-12.06-6.85 3.74-8.3 6.47-6.41 12.06zm137.21-35l.3 2.73 29.01-3.52-.09-1.03-29.22 1.82zM283.28 179.01c-3.98 6.86-1.08 11.91 1.24 17.04.85-5.53 3.03-11.19-1.24-17.04zm-47.14 286.94l3.21 4.69 11.5-9.62-1.01-1.5-13.7 6.43zm210.82-27.13l-11.11 7.46.36 1.18 4.66-.42 2.19 3.65 1.04-.51-.83-4.9 4.32-.3-.63-6.16zm-266-271.02l10.31-12.34-1.19-.9c-4.99 1.39-8.42 4.75-10.68 9.26-.38.77.88 2.37 1.56 3.98zm436.45 295.84c7.31-2.97 10.87-8.92 9.8-14.49-2.78.98-5.22 1.99-4.66 5.69.09.62-.1 1.42-.45 1.95-1.51 2.32-3.12 4.57-4.69 6.85zm-181.93 4.25v11.87c4.64-.8 4.75-3.89 4.69-7.08-.05-2.82-1.2-4.66-4.69-4.79zm-299.39 9.12l.94 1.81c2.56-.8 6.79-1.04 7.3-2.53.77-2.26-1.06-5.4-1.78-8.17l-1.54-.08-4.92 8.97zm449.51-21.93l-5.52 13.18 1.26.53c6.96-5.75 8.53-9.23 4.26-13.71zm54.18-237.62l-4.76-3.42-5.24 8.36c4.47 3.1 4.47 3.1 10-4.94zm-171.89-17.1l5.27 7.81 5.84-12.54-11.11 4.73zM38.23 231.28c2.78 6.61 6.95 9.21 12.99 8.31-3.21-4.37-6.64-8-12.99-8.31zM355.4 455.67c4.65-2.7 4.77-6.68.92-10.84-.61-.66-1.73-.84-2.61-1.24-.41 1.01-1.32 2.14-1.12 3.01.68 2.94 1.75 5.77 2.81 9.07zm-160.05 28.24c3.19 2.73 5.96 5.78 9.65 2.57.78-.68.11-4.88-1.06-5.62-3.29-2.09-5.77.54-8.59 3.05zm313.33-145.36c5.62-3.69 5.15-7.15-1.48-11.01-2.38 5.2-2.13 7.05 1.48 11.01zM320.22 28.83c-5.91-5.41-11.69-3.96-14.08 3.38l14.08-3.38zm333.39 295.93c-7.87 2.74-8.83 4.91-5.18 10.74 5.64-1.52 5.03-6.07 5.18-10.74zM118.08 447.51c-5.5 6.2-6.38 9.32-3.97 13.45 5.19-3.96 6.25-7.32 3.97-13.45zM50.85 279.62c-5.04-6.59-7.94-8.39-12.05-7.46 3.95 6.33 7 10.02 12.05 7.46zm447.17 211.03c3.28-4.08 10.44-4.95 9.94-12.17-3.9 3.57-10.8 4.65-9.94 12.17zm53.08-24.74c7.95-9.85 8.6-11.13 3.79-16.28l-3.79 16.28zM422 475.08l-1.16-16.19c-4.75 9.78-4.38 14.47 1.16 16.19zm297.91-230.32l-15.85 13.78c10.3-2.88 16.78-8.45 15.85-13.78zm-482.63-80.83l2.6 1.88 2.42-9.35-1.01-.5-11.89 12.38 1.37 1.43 6.51-5.84zm342.49 265.64l1.2-.16c.35-2.79.87-5.58.93-8.37.02-.79-1.26-2.23-2.04-2.3-3.38-.29-5.72 3.95-4.24 7.3l1.66-1.57 2.49 5.1zm28.71 21.55c-6.06 5.5-7.77 11.12-6.23 18.91a13912 13912 0 016.23-18.91zM217.26 294.35c-.84-1.01-1.4-1.72-2-2.4-3.36-3.83-8.54-6-10.25-11.33 0 7.43 7.33 16.17 12.25 13.73zm-42.42-130.86c-5.5 1.99-9.15 4.12-10.49 8.61-.33 1.11.98 2.7 1.89 4.94l8.6-13.55zm310.35 37.46l-.26 1.75c1.3.43 2.73 1.44 3.88 1.18 4.55-1.02 7.3-3.94 8.29-9.3l-11.91 6.37zM460.52 460.4c1.02-7.5-.28-11.88-4.17-14.52-.41 11.65-.05 13 4.17 14.52zm-184.53 19.96c8.78-2.48 13.27-5.72 13.11-9.27-8.21 2.64-12.39 5.48-13.11 9.27zM548.1 219.24l-3.93 8.37c-.2.42-.55.83-.56 1.25-.01.99.05 2 .31 2.95.06.21 1.15.36 1.63.18 3.65-1.4 5.42-8.94 2.55-12.75zM162.54 478.7l-1.22-1.56-7.87 4.53c1.45 1.44 3.14 4.28 4.29 4.07 3.51-.64 4.6-3.77 4.8-7.04zm47.49-388.34c-6-.23-11.02 1.63-15.14 6.8 7.08 1.11 10.82-3.46 15.14-6.8zm128.76 184.46c-2.31 4.74-1.52 8.11 3.17 11.51 3.2-2.29 2.93-5.24 1.05-8.01-1.01-1.49-2.86-2.41-4.22-3.5zm32.11-25.28c5.12.88 7.91-5.24 5.71-13.58l-5.71 13.58zM99.4 142.67l-.96-.79c-4.63 5.74-11.85 9.63-12.85 19.43l13.81-18.64zm512.47 286.29c-1.89 5.02-.08 8.99 5.23 11.47.65-7.66.06-8.95-5.23-11.47zm-214.96 17.96c3.99 4.52-.83 12.21 5.65 15.71-1.1-5.55.97-12.19-5.65-15.71zm-8.36 45.98l1.78.87 4.47-6.91c-1.73-.81-4.08-2.77-5.09-2.23-3.81 2.05-2.09 5.34-1.16 8.27zm-5.54-141.5c5.45-3.78 6.34-6.54 3.84-10.97-5.58 3.15-5.7 3.48-3.84 10.97zM280.3 281.78l-1.37-.14c-.28 1.56-.65 3.11-.82 4.68-.22 2.13-.23 4.28-.42 6.42-.13 1.45-.42 2.88-.64 4.32l4.67-.24-1.42-15.04zm235.77 154.29c3.12-4.85.14-7.63-1.44-11.04l-5.74 2.43 7.18 8.61zM146.33 111.29c-6.57-.77-11.32 1.05-14.68 6.38 4.53-2.37 10.72-.57 14.68-6.38zm298.88 358.78V453.4c-3.68 4.25-3.33 14.34 0 16.67zm113.55-156.53l23.58 1.45c-3.4-2.81-16.9-3.64-23.58-1.45zm-297.11-96.31l-13.77-9.11c.19 6.4 4.31 9.2 13.77 9.11zM369.34 507.8l.19-1.3h-23.82l-.01 1.3h23.64zm-79.2-287.95c2.3 4 7.82 4.7 14.22 2.47-3.99-5.35-9.46-1.49-14.22-2.47zM37.58 235.93c-2.5-4.07-3.54-8.66-9.07-8.53-.95 5.12.75 6.8 9.07 8.53zm97.84-114.47l-.77-1.43c-7.23.07-9.64 1.8-12.13 9.22l12.9-7.79zm381.5 363.58l1.19.97c6.2-3.63 8.15-6.69 5.93-11.8l-7.12 10.83zM247.96 220.38l.39-1.72-15.4-3.27c4.37 4.29 9.14 6.91 15.01 4.99zm-53.65 15.71c5.15 10.4 5.55 10.57 14.78 6.24h-9.2l2.34-3.16-7.92-3.08zm305.19 24.96c-5.63 2.81-13.09-.03-17.68 5.96 5.67-2.67 13.38.92 17.68-5.96zm100.56 218.56l-11.51 9.15c7.94 1.33 8.1.62 11.51-9.15zM499.69 353c6.74-.36 12.12-5.48 11.61-11.03L499.69 353zM148.01 126.84c6.24-.96 10.07-4.84 11.87-12.36l-11.87 12.36zM53.56 290.31l-10.15-8.44c1.72 9.37 3.77 10.96 10.15 8.44zm318.59-51.97c-4.68 1.95-6.48 5.79-7.01 10.32-.08.66.77 1.42 1.18 2.13.8-.52 2.07-.87 2.33-1.59 1.32-3.56 2.36-7.23 3.5-10.86zm212.91 86.08l-1.4.51 3.82 13.68c3.33-6.21 2.54-10.12-2.42-14.19zM279.87 459.96l.18 2.23c1.46.08 3.2.71 4.34.14 2.88-1.44 5.49-3.42 8.15-5.28.03-.02-.76-1.77-1.42-2.01-.6-.22-1.68.37-2.3.89-.88.75-1.36 2.24-2.31 2.58-2.12.76-4.41 1-6.64 1.45zm-14.12 18.78c8.65-3.52 9.03-3.89 7.65-7.91l-10.14 4.34 2.49 3.57zm65.86-187.38c3.6.71 6.99 2.15 7.89-1.51.44-1.8-1.96-4.3-3.64-7.58l-4.25 9.09zm221.6-68.95l2.58-11.11c-7.5 1.74-8.28 4.68-2.58 11.11zm82.22 62.7l-9.41 12.91c11.4-7.73 11.4-7.73 9.41-12.91zM258.17 466.54l1.09 1c8.29-2.78 9.79-4.66 7.05-9.72l-8.14 8.72zm98.92-224.7c-5.23-.59-5.68 3.44-7.01 6.21-.39.81.51 2.24.82 3.39 1.16-.51 2.91-.73 3.35-1.6 1.2-2.4 1.85-5.08 2.84-8zM88.27 447.73c-1.89 6.44-.92 9.43 3.69 11.83-.31-4.16 1.25-8.75-3.69-11.83zM286.29 218.4c-.63-5.38-4.95-9.12-9.46-8.76.86 5.53 5.92 6.33 9.46 8.76zm-73.47 231.29c4.55.63 5.99-1.24 6.31-8.17-5.5 1.33-6.19 2.22-6.31 8.17zm24.51 39.51l.98 1.65 6.15-2.76 2.93-1.27c-.85-1.25-1.53-2.69-2.63-3.65-.52-.45-2.24-.38-2.72.13-1.73 1.81-3.16 3.91-4.71 5.9zM12.95 254.14C5.9 258.42 2.46 264.99 5 269.46l7.95-15.32zm153.02 198.03c.62-2.78 1.28-5.4 1.75-8.06.11-.61-.24-1.61-.72-1.92a2.32 2.32 0 00-2.1.01c-3.95 2.56-3.63 7.42 1.07 9.97zm172.01 18.75c-8.52.79-12.1 3.92-11.82 10.06l11.82-10.06zm172.07 1.58l-1.49-1.39-16.04 14.37.94 1c5.29-4.92 11.97-8.31 16.59-13.98zm-363.1-.08c1.58-2.11 3-3.71 4.06-5.52.44-.76.45-2.11.06-2.89-.23-.46-1.64-.54-2.49-.46-4.52.45-5.24 3.22-1.63 8.87zm267.47-268.9c.83-6.84-2.93-10.66-5.07-15.09-1.36 5.46-.78 7.14 5.07 15.09zm-24.59 277.69c2.41-3.09 7.48-3.92 6.57-9.47-7.91 2.5-9.55 4.7-6.57 9.47zM132.54 459.1l-1.53-.15c-4.69 5.17-4.79 7.23.76 11.44l.77-11.29zm110.61-167.78l-1.72-.62-3.93 6.45 6.85 3.37-1.2-9.2zm15.31-8.58l-1.5-.21-2.52 14.53c4.99-2.74 5.19-3.74 4.02-14.32zm19.97-85.07l-1.58.7c-.62 7.13.41 8.92 6.83 10.63l-5.25-11.33zm173.79 10.49l.78 13.1c5.6-6.26 5.45-8.31-.78-13.1zM80.48 236.01l8.43-6.08c-8.27-2.1-9.55-1.26-8.43 6.08zm24.58 229.26c3.84-7.55 3.95-8.9 1.08-11.18-4.61 6.65-4.8 8.25-1.08 11.18zm479.72-26.72c-2.54 4.79-.22 7.8 2.57 10.87 3.25-3.9 2.61-6.57-2.57-10.87zm-91.63-104.03l-1.85.43-.78 9.52 1.34.78c1.24-1.23 3.53-2.49 3.5-3.69-.05-2.36-1.4-4.7-2.21-7.04zM218.5 145.8c-4.52 2.44-5.66 4.71-5.01 9.95 4.49-.57 5.7-2.98 5.01-9.95zM99.06 391.32c-1.3.57-1.95.7-2.39 1.08-1.57 1.32-3.07 2.73-4.6 4.1 1.64.72 3.27 1.46 4.91 2.16.65.28 1.34.49 2.08.76v-8.1zm551.73 52.41l.22 1.32 23.81-2.52-.21-1.87-23.82 3.07zM498.56 320.8c-1.02 4.78 1.3 7.37 4.73 9.69 1.8-6.21 1.71-6.39-4.73-9.69zM362.57 207.92c-1.42-5.54-.68-10.5-5.82-13.68-.86 5.57.45 9.7 5.82 13.68zm73.76 6.61l1.59 10.62c5.2-2.73 4.79-6.41-1.59-10.62zm38.18 107.05l6.46 9.11c1.42-7-.01-9.26-6.46-9.11zM200.32 437.07l1.59-.37c1.72-2.61 3.01-5.4.3-8.13-.49-.49-2.61.63-3.98 1.01l2.09 7.49zm30.23 17.25l-1.46-1.55-8.82 4.12-.1 1.32c1.67.64 3.95 2.29 4.9 1.73 2.17-1.3 3.7-3.68 5.48-5.62zm206.9 36.4l1.8-.47.42-9.45-1.45-.63c-1.27 1.51-3.55 3.02-3.56 4.54 0 2 1.78 4 2.79 6.01zM92.53 257.39c5.11-.4 6.53-4.13 8.05-8.05-5.75.4-7.84 2.44-8.05 8.05zm396.63 216.79c5.43-1.93 7.85-8.83 4.67-13.43l-4.67 13.43zm155.09-97.73l-9.89-8.28c-.04 6.73 3.44 9.84 9.89 8.28zM186.07 89.66l-.83-1.67-12.01 5.95.75 1.51c4.54-.89 9.16-1.63 12.09-5.79zm298.11 391.68c-4.37 2.59-8.32 4.39-7.96 10.19 4.51-1.92 7.6-4.37 7.96-10.19zm-89.93-24.61l1.77-.8-4.69-12.91-1.49.53c1.68 4.32-.37 9.92 4.41 13.18zM274.22 218.95l-11.54-8.23c2.35 8.15 2.72 8.41 11.54 8.23zm128.72 268.22c-3.72 2.15-4.3 5.29-1.42 7.21l2.45-2.32c-.33 1.26-.55 1.83-.63 2.42-.08.56-.02 1.15-.02 1.86 3.6-1.72 3.6-1.72-.38-9.17zm-36.47-223.23l-2.07.64a8991.4 8991.4 0 014.61 15.4l2.26-.7-4.8-15.34zM715.74 405.5l-.42-1.87-18.17 4.16.47 1.96 18.12-4.25zM224.31 208.2l-.57 1.42 14.17 5.75.6-1.49c-4.69-2.01-8.43-6.37-14.2-5.68zm47.96 83.9c-2.99 1.81-5.81 3.02-3.76 7.28l7.7-1.36-3.94-5.92zm86.97-111.78c-3.33 6.79-3.13 9.19.95 11.26 1.86-7.51 1.79-8.38-.95-11.26zM88.82 252.95c-.58.18-1.15.18-1.43.47-1.82 1.85-3.58 3.75-5.35 5.64.78.47 1.65 1.44 2.31 1.32 3.39-.62 4.79-3.05 4.97-6.3.02-.36-.32-.74-.5-1.13zm450.99 74.79v10.71c5.67-2.46 5.78-5.62 0-10.71zm-239.09 66.08l4.06 1.77 2.24-12.34-1.09-.37-5.21 10.94zm213.41-125.58l-13.02 3.44c4.51 3.85 5.63 3.55 13.02-3.44zm-192.76 22.51l.42 1.26 6.61-1.71-2.91-6.79-4.12 7.24zM185.78 121.93l.65 1.19 11.58-6.45c-6.91-1.67-7.68-1.26-12.23 5.26zm67.71 178.27l-1.72-7.47-1.37-.45-4.36 6.6 7.45 1.32zm357.82 139.69l.83 13.12c4.86-6.51 4.74-8.17-.83-13.12zM351.16 274.02v12.53c4.27-4.83 4.44-8.62 0-12.53zm16.57 208.24c4.27-2.13 5.06-4.75 3.19-10.08-4.8 2.25-3.01 6.33-3.19 10.08zm289.46-56.32l.07-1.93c-3.03-.17-6.05-.4-9.07-.32-.16 0-.25 2.66-.42 4.6l9.42-2.35zm-302.61 62.99c8.23-3.16 8.35-3.32 6.83-8.89-2.74 2.52-6.98 3.56-6.83 8.89zm-231.25-36.57c-1.95 4.14.6 6.65 2.5 9.85 3.81-5.83 3.77-6-2.5-9.85zM534 433.52c1.44-4.53-.61-8.22-5.76-11.28-.58 5.17 3.6 7.24 5.76 11.28zm60.4-112.61l-1.22.37c-1.31 7.52-.82 9.08 4.81 11.57l-3.59-11.94zM246.69 480.94c3.75 5.2 5.45 4.59 10.03-3.16-.95.16-1.69.18-2.36.41-2.44.83-4.84 1.73-7.67 2.75zm138-230.34l1.36.3c2.84-3.73 4.59-12.2 2.78-16.22l-4.14 15.92zM180.4 86.37l-1.01-1.68L165 93.38l1.01 1.68 14.39-8.69zM471 197.17c3.82-2.99 8.89-2.84 9.24-8.37-2.96 2.42-8.66 1.27-9.24 8.37zm91.79 15.47c4.65-1.57 8.47-2.73 7.21-8.4-4.71.44-5.73 3.98-7.21 8.4zm-447.81 57.37l-1.34-1.53c-3.16 2.61-8.55 2.69-9.54 7.77l1.07 1.29 9.81-7.53zm267.7 169.79l1.09-.87-3.5-9.82-3.53 5.63c2.09 1.79 4.01 3.43 5.94 5.06zm49.66-233.33c-3.5 5.4-3.26 7.2 1.2 9.25 2.27-4.59 2.1-5.9-1.2-9.25zm42.21 212.23c-.06-7.15-2.95-10.44-7.94-10.62l7.94 10.62zm-133.96 36.54l-.67-.05v8.56l1.36.63c1.35-1.7 2.91-3.3 3.92-5.18.3-.57-.91-1.95-1.68-3.44a1108 1108 0 01-1.82 3.55l-1.11-4.07zm-8.76 39.92l6.14-10.09c-8.34 3.2-9.93 5.61-6.14 10.09zm225.29-170.81l2.5 14.49c2.84-6.73 2.3-9.94-2.5-14.49zm-169.33 93.79c-2.29-4.32-9.81-5.78-14.19-2.73l14.19 2.73zm167.05 23.2c4.51-6.02 4.1-7.24-2.73-9.13l2.73 9.13zm-149.53 22.07c3.46-4.32 2.38-9.4-1.91-12.63a4580 4580 0 001.91 12.63zm73-13.26l-1.63-10.86c-4.53 5.07-4.07 8.36 1.63 10.86zm-265.44 25.89l-3.81 9.23c7.41-.8 7.86-1.95 3.81-9.23zM104.49 268.97l-1.45-1.75c-2.81 2.53-7.85 2.38-8.92 6.99l1.07 1.37c3.11-2.2 6.21-4.4 9.3-6.61zm278.98 68.83c5.46-3.71 5.39-4.78-.68-9.38l.68 9.38zm109.51 139.46l-1.7-1.09c-2.65 1.95-6.54 3.14-3.49 8.71l5.19-7.62zM374.49 448.5c-3.21 3.06-2.4 8.09 1.94 14.07l-1.94-14.07zm120.5-230.94l.14-1.39-5.63-4.12-1.93 6.36 7.42-.85zM107.42 430.91l2.53-.87-3-10.01-2.53.76 3 10.12zm435.83 10.39l-1.54.2 1.37 10.38c4.83-4.83 2.95-7.76.17-10.58zm-192.08-89.28l.4 1.22c1.17.39 2.4 1.21 3.49 1.04 1.27-.2 3.28-1.12 3.41-1.97.21-1.39-.85-2.96-1.37-4.46-.58.92-1.1 1.89-1.78 2.73-.2.25-.87.05-1.27.2-.97.37-1.92.82-2.88 1.24zm361.66 42.51l-.43-1.33c-5.06.59-9.83 1.91-13.96 4.82l.46 1.17 13.93-4.66zM268.64 175.76c-6.51 4.03-7.25 6.02-3.45 10.26l3.45-10.26zm243.24 271.27c3.98-7.26 3.64-8.97-1.97-11.63l1.97 11.63zm-14.3-179.37c3.04 2.71 9.45 1.03 13.37-4.49l-13.37 4.49zM374.32 336.8c6.64-3.75 6.69-4.46 1.07-9.44l-1.07 9.44zM367 468.05l1.24.64c1.06-1.29 3.24-2.95 2.96-3.79-.72-2.2-2.53-4.04-3.9-6.03l-.94.57.64 8.61zm-265.67-22.99l-2.1 11.68c2.65-3.23 7.17-6.09 2.1-11.68zm524.16-166.8l-1.94-.76-4.09 10.34 1.34.53c1.19-3.52 6.15-5.56 4.69-10.11zM161.24 121.49l9.01-6.76c-5.77-1.28-8.02 2.02-9.01 6.76zm-19.59 73.53l-.05 1.44 5.9 4.21 1.13-.78-1.46-6.37-5.52 1.5zm6.01-60.3l-8.3 7.9c5.57.42 7.9-2.7 8.3-7.9zm95.2 88.96c3.31 2.87 4.46 7.59 9.24 3.66-1.84-3.45-4.24-4.9-9.24-3.66zm155.12 115.54l-2.05 10.13c6.33-4.55 6.5-5.38 2.05-10.13zM595.8 446.51c3.95-4.56 3.22-6.83-2.4-9.38l2.4 9.38zm-375.54 34.52l6.94 1.57-2.65-7.62-4.29 6.05zm-84.65-30.22v9.27l1.03.38 4.27-6.74-5.3-2.91zm525.82-31.59c-1.37-1.4-2.17-2.78-2.72-2.69-3.05.51-6.04 1.39-9.06 2.14l.45 1.88 11.33-1.33zM96.14 265.87l.95 1.37 9.88-6.05-1-1.55c-3.19 2.22-7.75 2.2-9.83 6.23zm505.72 175.84l.54 10.8c4.86-4.27 4.85-5.76-.54-10.8zM203.97 132.07l-1.74-1.62-7.98 8.58 1.59 1.5 8.13-8.46zm-8.65 325.9l-1-1.36-4.77 2.98 3.16 4.83 1.31-.41 1.3-6.04zm76.33-279.03c6.38-3.97 6.73-6.05 2.05-10l-2.05 10zm275.68 264.81c4.12-5.94-.48-7.56-1.96-10.39l-1.99.78 3.95 9.61zm-60.02-.77l-.97.7 2.9 8.64 3.55-6.4-5.48-2.94zm-337.73 38.56l-1.04-1.48-5.78 2.15 5.05 5.88 1.77-6.55zm300.09-35.51c-2.74 4.39-.81 8.83 4.46 10.31l-4.46-10.31zm37.6-116.43v17.69c2.56-4.35 2.6-14.78 0-17.69zM164.94 208.51l-.65 1.36c2.2 1.01 4.38 2.1 6.65 2.93.22.08 1.61-1.61 1.44-2.15-1.4-4.34-4.72-2.27-7.44-2.14zm15.77 210.95l-2.96.17 1.38 9.32 2.19-.24-.61-9.25zm-72.24-223.43l1.29 1.18c1.58-1.2 3.68-2.13 4.54-3.72.47-.86-1.16-2.86-1.85-4.35l-1.42.12-2.56 6.77zM474.5 432.49l-6.5-9.12c-.56 6.21.77 8.14 6.5 9.12zM354.42 209.1l1.99-1.29-6.38-9.25-1.8 1.21 6.19 9.33zm169.36 135.94l1.2.72c3.1-2.33 5.49-5.02 5.1-9.05l-1.31-.66-4.99 8.99zm37.13 95.35c-3.75 3.71-3.23 7.24-.72 10.63l1.36-.07-.64-10.56zM245.53 178.13c2.61-3.79 1.33-6.15-2.2-8.18-2.19 3.52-2.55 6.31 2.2 8.18zM104.69 432.18l2.56 11.22c3.35-4.73 2.91-6.79-2.56-11.22zm350.17 57.87c-2.64-1.12-4.1-2.02-5.66-2.25-.64-.09-2.26 1.57-2.12 1.95.59 1.59 1.68 2.99 3.07 5.25 1.58-1.64 2.6-2.72 4.71-4.95zm100.67-288.01l-1.48-.49-3.18 8.57c5.24-.87 5.61-1.64 4.66-8.08zm-27.57 124.92l-1.46.4-.37 7.48 1.56.62c1-1.28 2.83-2.59 2.8-3.85-.05-1.57-1.62-3.1-2.53-4.65zm-147.11 10.07l-1.49-.68c-3.99 3.22-4.57 4.82-2.41 9.14l3.9-8.46zm-183 103.51l-2.62-.44-1.8 6.05 4.04.62.38-6.23zm110.66-244.69l7.15 9.06c-.44-4.51-1.36-8.63-7.15-9.06zm54.21 296.28l-1.04-.81c-1.44 1.84-3.18 3.54-4.15 5.6-.3.64 1.51 2.27 2.82 4.11l2.37-8.9zm-64.58-.15c2.08-.97 3.28-1.27 4.06-2.02.31-.3-.3-2.29-.56-2.3-1.56-.09-4.05-.37-4.52.42-1.01 1.71-.98 4.03-1.38 6.1l1.46.25.94-2.45zM143.69 155.85l-1.67-1.44-6.55 7.62 1.91 1.62 6.31-7.8zm46 321.66l9.95-4.46c-8.24-.7-8.96-.4-9.95 4.46zm2.75 6.05l-8.04 2.51 5.56 5.23 2.48-7.74zm63.68-185.24l.31.97h9.38l-2.78-4.99-6.91 4.02zm-142.06 2.25l.71.97c7.94-4.28 8.82-5.04 9.03-9.29l-9.74 8.32zM636.48 443.6l-1.45-.67c-4.35 3.25-5.13 5.28-3.03 9.11l4.48-8.44zM219.11 122.22l-1.04-1.77-10.56 6.33 1.02 1.73 10.58-6.29zm401.42 261.7l.12-1.53c-4.68-.33-9.26-3.15-15.11.15l14.99 1.38zM125.28 397.1l-2.31-3.06c-1.14 1.41-2.53 2.7-3.3 4.29-.28.58.9 1.87 1.41 2.84a686.2 686.2 0 004.2-4.07zm108.92 70.48l-3.55 10.2c7.05-4.92 7.25-5.53 3.55-10.2zm310.53-151.12l6.98 7.5c-.11-7.64-.37-7.92-6.98-7.5zm-50.21 142.73l1.89.1c.88-3.58 2.59-7.11 1.43-10.84l-1.63-.14-1.69 10.88zM186.86 196.18l1.31-.63-.47-8.11c-2.07 1.62-4.44 3.04-4.28 3.43.78 1.92 2.23 3.57 3.44 5.31zm83.54 13.55l-1.74 1.89 7.88 6.91 1.43-1.51-7.57-7.29zm304.91 226.08l1.43-.94c-.78-1.85-1.34-3.84-2.45-5.47-.46-.68-2.07-.59-3.16-.85 0 1.11-.43 2.53.1 3.27 1.09 1.52 2.69 2.68 4.08 3.99zm-423.9 8.86l-1.56-.65c-1.07 2.26-2.18 4.51-3.12 6.83-.05.13 1.31.83 2.01 1.26.96-2.34 1.92-4.68 2.86-7.03.04-.1-.12-.28-.19-.41zm215.37 51.99c4.58-4.88 4.55-6.79 0-9.51v9.51zm-222.37-68.03l1.51.22c.37-3.58 3.3-7.19-1.02-10.74l-.49 10.52zm11.27 45.96l-1-2.39-6.51 1.49c.78 1.16 1.75 3.38 2.29 3.28 1.82-.36 3.49-1.53 5.22-2.38zm44.47-265.7l.41-1.19-6.2-4.58-.97 6.65 6.76-.88zm227.72 82.92l-6.32 6.66 6.66.49-.34-7.15zm-232.42-73.37l2.24.02 2-6.65-1.45-1.02c-1.24 1-3.07 1.78-3.54 3.06-.47 1.27.44 3.04.75 4.59zm198.85 67.91c-3.96-2.86-6-1.21-7.63 5.62l7.63-5.62zm-221.48-29.8l.36-1.19c-2.91-1.33-5.79-2.74-8.76-3.93-.62-.25-1.54.26-2.32.43.46.78.77 2.05 1.41 2.26 3.05.96 6.2 1.64 9.31 2.43zM95.69 456.1l-1.88.32c.1 3.49-1.36 7.36 1.89 10.07l1.85-.39-1.86-10zm38.78 11.98c-2.58 2.69-4.34 5.02-.07 7.91 1.52-2.68 3.85-4.88.07-7.91zm91.32-174.37l.45-8.5c-5.91 2.48-6.1 3.8-.45 8.5zm5.29 175.01c-5.85 4.15-5.96 4.87-1.79 9.7l1.79-9.7zm-26.77 5.06l1.19 2.06c2.08-.91 4.25-1.69 6.16-2.87.34-.21-.42-2.17-.84-4.09l-6.51 4.9zm-48.49-177.92c.03 5.34 3 8.13 8.43 7.54l-8.43-7.54zm98.99 187.49c8.69-1.85 9.81-3.12 7.58-5.46l-7.58 5.46zM226.23 174.4l-1.47-.79c-.88 1.37-2.46 2.75-2.44 4.1.02 1.62 1.41 3.23 2.21 4.84l1.2-.56.5-7.59zm190.95 28.15c-1.85 6.04.11 8.69 5.3 7.78l-5.3-7.78zm185.6 234.81l4.53 5.39 1.03-.32v-7.21l-5.56 2.14zM98.41 243.76l1.01 2.03 9.18-4.62-.98-1.96-9.21 4.55zm53.11 184.13c-3.93 4.81-3.57 7.05 1.51 9.54l-1.51-9.54zm113.74-198.98l-.21-1.33-8.18 1.38.3 1.93c3.29 3.26 5.48-.73 8.09-1.98zM88.54 219.1c4.34 2 7.79 1.23 10.51-1.87l-.44-1.38-10.07 3.25zm10.74 187.75l-1.15.44 4.23 10.99c2.46-6.01-.66-8.59-3.08-11.43zm34.65-4.91l1.48-.13c.3-1.46 1.2-3.16.74-4.3-.53-1.29-2.3-2.07-3.53-3.07l-1.21 1.01 2.52 6.49zm429.12-192.7l-1.16-1.03c-4.86 1.85-5.41 2.65-4.37 8.18l5.53-7.15zM456.3 432.91l-1.64.77c-1.32 3.88.48 5.96 5.22 6.42l-3.58-7.19zm121.17 19.01c1.86-3.24 3.28-5.99-.14-9.49-.73 3.32-3.81 5.99.14 9.49zm-435.23-21.78l-2.51-.01c-.11 1.93-.35 3.87-.17 5.78.03.29 2.03.39 3.13.58-.16-2.11-.3-4.23-.45-6.35zm-56.3-181.75l1.46 2.2 7.62-5.29-1.32-1.95-7.76 5.04zm207.2 42.24l-1.37-12.17c-2.04 6.47-1.83 10.14 1.37 12.17zm120.23-82.65l-5.33-8.68c-2.21 5.78-1.42 7.11 5.33 8.68zm-207.55 19.27l1.87-11.74-1.06-.2-3.73 9.38 2.92 2.56zm-35.83 233.5l-1.58.43-.98 6.4 1.27.78c1.14-1.14 2.96-2.16 3.21-3.47.24-1.21-1.21-2.74-1.92-4.14zm407.18-250.11l1.3 1.1c3.26-.88 6-2.17 4.72-7.98l-6.02 6.88zm-371.52-87.15c-8.53 1.59-9 1.98-8.49 6.44l8.49-6.44zM510.77 327.7l2.19-1.16-2.76-5.89-2.61 1.24 3.18 5.81zM388.59 203.86l-1.67.68c.77 1.92 1.31 3.99 2.43 5.69.37.57 2.2.19 4.54.29-2.33-2.91-3.81-4.79-5.3-6.66zM96.34 453.06l2.08-.16-.71-11.43-1.9.14.53 11.45zm121.5 27.09l4.47-6.74-1.01-.84-5.58 2.36 2.12 5.22zm384.54-75.92l1.59-10.34c-3.7 3-4 6.49-1.59 10.34zm-367.54 31.6l-2.04-.45c-2.53 2.93-2.5 6.16-.2 9.65l2.24-9.2zm340.13 58.68l2.73.69 1.69-5.59c-1.22.06-3.19-.29-3.51.28-.74 1.3-.66 3.06-.91 4.62zM260.5 214.97l1-.9c-1.97-6.14-2.57-6.82-7.31-7.31l6.31 8.21zm-27.32 281.66c2.52 1.64 4.26 2.91 6.15 3.89.4.2 1.36-.69 2.06-1.07-1.7-1.52-3.34-3.12-5.15-4.49-.25-.19-1.32.69-3.06 1.67zm131.25-159.27l-.36 7.88c5.63-3.4 5.71-4.75.36-7.88zm223.5-98.86l5.85-3.84-.51-1.41-4.78-1.53-.56 6.78zm72.83 166.13l-.23-.92-4.05-.72 4.48-2.14c-4.52-.44-6.97 1.04-6.3 6.06l6.1-2.28zM209.63 159.87c-2.13 1.99-3.49 2.93-4.37 4.2-.5.72-.42 2.04-.18 2.97.12.48 1.53 1.15 1.76.98a5.27 5.27 0 001.75-2.35c.45-1.42.55-2.95 1.04-5.8zm-85.1 127.6l1.34 1.69 7.52-6.06-1.3-1.58-7.56 5.95zm275.91 41.08c-4.16 2.99-4.15 4.03 0 8.53v-8.53zm34.88-122.64c2.88-3.93 2.45-5.36-2.11-7.49l2.11 7.49zm-31.25 203.3l1.25-.66-5.4-10.42c-3.06 6.84 3.99 7.13 4.15 11.08zm-169.97 49.6l3.66-8.93c-5.35 1.92-6.14 3.97-3.66 8.93zm140.97-41.22l-.35 2.31 9.4.77.24-1.67-9.29-1.41zm162.12-77.33l-1.52-.85c-2.54 1.81-5.14 3.59-3.23 7.78l4.75-6.93zM111.1 168.29l-5.5 5.83c5.8.45 7.33-1.23 5.5-5.83zm-21.51 57.55l-.55-1.88c-2.84-.25-6.09-1.45-7.23 4.41l7.78-2.53zm85.32-127.26l-.87-1.69-8.66 4.22 1.04 2.03 8.49-4.56zm373.83 133.7l.67 1.51c1.22-.51 3.08-.71 3.5-1.59.69-1.45.45-3.34.6-5.05l-1.55-.22-3.22 5.35zM224.9 278.97v-12.51c-3.33 4.73-3.31 8.33 0 12.51zm-119.39 7.45c-5.42 2.06-5.42 2.06-3.54 9.12l3.54-9.12zm213.71 168.59l-4.27 8.34c7.24-3.62 7.3-3.76 4.27-8.34zm-75.64 1c6.65-.73 7.13-1.71 4.07-6.43l-4.07 6.43zm-56.68 19.71l-1.76-1.96-4.57 3.86 1.95 2.19 4.38-4.09zm337.63 9.22l-1.09-1-4.77 5.14a520 520 0 003.56 2.89l2.3-7.03zM136.1 200.68l-2.38-.55-1.78 4.86 3.76.72.4-5.03zm106.66 231.16l-1.43-.03c-.63 2.61-3.14 5.39 1.43 8.13v-8.1zm22.23 7.74c3.45-3.64 1.09-5.82-.83-8.46-3.43 3.25-.3 5.34.83 8.46zm123.05-112.16l-.35-7.33c-4.74 3.1-3.31 5.36.35 7.33zm318.54 6.51l.91-1.27-10.48-7.91-.96 1.32 10.53 7.86zM462.3 217.98l-2.43-1.64c-1.09 1.74-2.23 3.46-3.17 5.28-.09.18 1.06 1 1.63 1.52l3.97-5.16zm-306.01-27.64l2.36 1.33c.87-1.49 1.92-2.91 2.48-4.51.12-.34-1.55-1.3-2.39-1.97l-2.45 5.15zm18.53 287.89h-8.51c3.01 3.84 6.22 3.73 8.51 0zm219.57-161.65c-4.24.88-4.29 2.71 0 7.8v-7.8zm167.65 115.55l-.44 1.51 4.94 4.31 1.11-.52c-.12-1.35.25-3.42-.45-3.88-1.42-.95-3.41-1-5.16-1.42zm-287.3 59.91l5.11 3.88 2.45-4.96-.81-.92-6.75 2zm27.09-202.67c5.53-2.42 5.57-3.72.82-7.37l-.82 7.37zm88.6 215.05l.47-2.34c-2.1-.16-4.2-.39-6.3-.45-.95-.03-1.9.29-2.85.46l.08 1.74 8.6.59zM175.82 200.67l.71-2.34-6.03-1.82c-.17.82-.59 2.32-.47 2.37 1.89.71 3.85 1.23 5.79 1.79zm147.91 259.26c1.47-1.98 3.14-3.51 2.87-4-.9-1.67-2.47-2.98-3.79-4.43l-1.24.83 2.16 7.6zM89.19 230.92l.79 1.46c5.04.14 5.4-.06 7.25-5.21l-8.04 3.75zm367.18 192.5l6.08-5.67-5.06-2.48c-.39 3.08-.68 5.35-1.02 8.15zm-140.65 24.63l.24-1.5-4.87-1.57-.64 5.57 5.27-2.5zm-208.28-263.8l-6.06 7.88 1.19.85c2.39-1.97 5.93-3.13 4.87-8.73zm500.09 293.46l-.91-1.05c-4.7.64-4.16 5.55-5.47 8.97l6.38-7.92zM62.55 304.26l-8.93-.59c4.06 4.4 4.73 4.46 8.93.59zM290 479.05l1.23 2.23 7.67-4.62-.94-1.69a5846.8 5846.8 0 00-7.96 4.08zm-185.68-245.4l-.79-1.87-7.98 3.26.81 1.9 7.96-3.29zm161.28-22.92l1.66-1.67-5.56-5.3-1.46 1.47 5.36 5.5zm95.65 27.68c5.94 1.08 4.83-3.1 6-5.3l-1.25-1-4.75 6.3zM235.79 420.85v7.98c3.07-2.48 3.99-4.9 0-7.98zm341.04-218.98l-2.23-1.18-2.31 6.55 2.06.8 2.48-6.17zm48.39 237.63c4.3-4.65 4.15-5.46-.88-7.73l.88 7.73zm-218.98 40.45h1.03v-10.87h-1.03v10.87zM163.33 216.1l-6.69 1.33 6.35 4.76.34-6.09zm77.22 261.55c-2.43-3.82-4.3-2.94-7.76 3.68l7.76-3.68zm-114.01-8.39l-1.53.09c-1.52 2.67-3.22 5.37 1.53 7.18v-7.27zm123.1-183.09l-2.51-.65-1.45 7.15 2 .5 1.96-7zm356.54-40.44l8.33.48.05-1.53c-2.41-.93-4.75-3.73-8.38 1.05zm-414.5 166.71v7.86c4.3-3.67 4.27-5.17 0-7.86zm37.61-216.69c-2.36 6.19 1.74 6.08 3.65 7.69l1.14-.84-4.79-6.85zm-135.34 4.08l4.87-3.82-3.67-5.31-1.2 9.13zm387.18 262.61l.93.24 3.82-5.55-4.75-1.97v7.28zm7.8-135.34c1.94-4.8.58-6.43-4.92-5.78l4.92 5.78z"/><path d="M537.93 46.57c-.43 8.4 5.42 16.28 1.34 24.03-1.01-6.6-1.99-13.45-3.14-20.26-.99-5.85-4.13-8.45-10.71-9.1.66 5.15 1.44 10.28 1.94 15.43.84 8.65-.79 10.35-10.73 10.61 2.65-1.34 4.69-2.08 6.36-3.33.95-.71 1.87-2.33 1.72-3.38-.14-.97-1.69-2.35-2.72-2.44-3.37-.31-6.78-.12-11.04-.12.11.23-.72-.67-.65-1.48.46-5.24 1.51-10.45 1.62-15.68.12-5.89-4.19-8.85-9.14-11.32v21.81l-.68-.01c-.52-5.97-.81-11.96-1.61-17.89-.85-6.35-3.29-8.13-10.07-8.35l1.54 17.73-1.09.12c-.82-5.19-1.47-10.41-2.49-15.56-1.25-6.34-6.52-7.98-13.11-10.17 4.74 7.97 7.29 15.43 5.62 23.89-2.18-11.94-1.72-25.37-18.49-28.22 1.91 6.65 7.07 12.07 5.56 19.54-7.26-24.02-9.14-19.92-18.4-22.6l2.58 15.04c-4.89-6.86-2.07-19.83-16.63-17.85l4.68 14-.97.31c-1.77-4.01-3.44-8.06-5.32-12.01-2.42-5.09-7.39-4.1-12.01-5.05l4.47 12.35-.74.32c-1.34-2.52-2.64-5.05-4.01-7.55-3.83-6.98-3.99-7.05-12.72-5.68l2.99 9.59c-.86-.43-1.19-.48-1.27-.64-5.17-10.62-6.1-10.93-20.05-9.61-14.65 1.39-29.37 2.12-43.99 3.81-24.32 2.82-48.59 6.16-72.87 9.33-1.33.17-2.6.73-4.08 1.16l66.42-4.01.1 1.53c-7.96.44-15.92.91-23.88 1.31-24.65 1.23-49.33 2.37-73.13 9.7-24.23 7.46-47.68 16.76-68.75 31.26-1.21.83-2.59 1.43-3.89 2.13l-.75-.96c1.51-1.23 2.94-2.58 4.54-3.68 19.01-12.94 40.51-20.46 61.55-29.28 21.02-8.82 43.44-10.4 64.94-16.38.57-.16 1.14-.29 2.39-.6l-2.95-2.18c.85-.07 1.39-.14 1.93-.16 18.76-.6 37.53-.85 56.26-1.88 20.25-1.11 40.45-3.66 60.71-4.15 9.73-.23 19.56 2.74 29.31 4.47a148 148 0 0116.72 3.74c6.03 1.82 12 3.99 17.76 6.56 16.12 7.2 32.95 13.3 47.95 22.38 22.36 13.53 43.43 29.21 65 44.03 6.77 4.65 13.59 9.25 20.02 14.35 3.31 2.63 5.86 6.23 8.64 9.5 1.79 2.11 3.38 4.4 5.04 6.64 3.49 4.72 6.99 9.44 10.44 14.19 3.17 4.37 6.32 8.75 9.43 13.17 3.87 5.51 8.23 10.46 10.07 17.49 2.06 7.85 6.39 15.08 9.49 22.68a125.62 125.62 0 015.01 15.31l-18.69-43.03-13.64 10.24-.62-.82c2.32-1.9 4.67-3.76 6.94-5.72 6.33-5.49 6.32-5.85-.18-11.85l-8.2 9.12-.86-.7c2.02-2.5 4.23-4.87 5.98-7.54.76-1.16 1.34-3.38.74-4.34-4.85-7.74-10.01-15.3-15.07-22.92-.52-.78-1.02-1.58-1.85-2.86l-.92 2.42-6.85-12.32-1.21.07-3.48 13.93-.34-.04c.36-3.52.64-7.05 1.09-10.56 1.01-7.86 1.05-7.86-6.57-12.19l-1.17 3.83c-.93-5.8-3.04-8.59-8.13-9.82-2.9-.7-5.01-4.53-7.57-6.84-1.12-1.01-2.48-1.75-4.14-2.89l-1.04 6.61-1.32.22c.41-7.1-1.34-12.81-9.05-14.89l1.15 11.31-1.15.23c-2.69-7.44-1.05-17.55-11.56-19.95l1 12.53-1.54.19c-.91-8.21-.44-17.18-11.76-20.37v19.68l-.95-.04c-.24-5.01-.67-10.02-.66-15.03.01-7.04-3.88-10.97-10.44-13.59zm-13.12 9.07c-1.88-14.5-2.37-17.96-10.65-19.4v19.4h10.65zM716.19 551.5h-80.03l-.32-1.9c1.69-.61 3.33-1.48 5.08-1.79 26.42-4.64 52.88-9.07 79.27-13.83 11.12-2.01 22.11-4.73 33.2-6.91 1.48-.29 3.21.65 4.83 1.03-1.05 1.41-1.87 3.77-3.17 4.07a425.83 425.83 0 01-26.41 5.37c-19.26 3.24-38.57 6.24-57.86 9.35-1.46.24-2.9.58-4.34 1.75 1.24.1 2.49.31 3.73.29 23.11-.36 46.22-.77 69.34-1.07 2.38-.03 6.18-1.63 6.51 2.2.33 3.91-3.63 2.78-6 3.14-4.13.64-8.29 1.12-12.44 1.69-40.09 5.5-80.17 11.05-120.27 16.43-4.11.55-8.36.11-12.54-.02a5.83 5.83 0 01-3.49-1.55c21.38.68 42.1-3.65 62.94-6.76 20.72-3.09 41.41-6.37 62.11-9.56l-.14-1.93zM392.47 532.78c4.97-.79 9.92-1.88 14.92-2.32 25.79-2.26 51.57-5.38 77.41-6.28 51.31-1.8 102.67-2.36 154-3.42 1.7-.04 3.48-.2 5.09.2.91.22 1.56 1.49 2.32 2.28-.81.75-1.55 1.61-2.46 2.21-.45.29-1.21.11-1.83.13-44.35 1.14-88.71 1.92-133.04 3.53-35.01 1.28-69.99 3.6-104.98 5.4-3.76.19-7.55.03-11.32.03l-.11-1.76zM542.39 513.16l50.09-5.73-.01-1.26h-19.5l-.07-1.51c4.06-.42 8.11-1.07 12.17-1.21 23.85-.82 47.7-1.52 71.55-2.23 1.23-.04 2.63-.13 3.64.4.94.48 2 1.73 2.05 2.69.05.97-.87 2.27-1.74 2.92-.76.57-2.05.54-3.11.6a30790.1 30790.1 0 01-80.22 4.52c-11.59.63-23.18 1.13-34.77 1.68l-.08-.87zM130.24 540.89c43.53-3.19 87.12-3.09 130.88-1.13-1.95.27-3.89.69-5.85.77-22.14.95-44.28 2.14-66.44 2.66-17.95.42-35.92.04-53.88-.05-1.62-.01-3.23-.43-4.84-.66l.13-1.59zM369.62 557.12c56.27-6.32 112.5-13.16 169.27-13.86L369.91 558.9l-.29-1.78zM344.91 527.92c-7.67 0-15.34-.09-23.01.02-24.03.32-48.05.73-72.07 1.05-2.69.04-5.62.24-7.38-4.46 34.68-1.78 68.53.7 102.39 1.33l.07 2.06zM335.2 555.44c-8.89.86-17.77 2.16-26.68 2.49-18.9.71-37.83.92-56.74 1.32-1.08.02-2.25.07-3.21-.31-.7-.28-1.58-1.24-1.57-1.89.01-.65.89-1.53 1.6-1.88.78-.38 1.81-.36 2.73-.37 27.45-.17 54.9-.32 82.36-.46.45 0 .91.12 1.37.19l.14.91z"/><path d="M280.73 78.97c5.22.72-.56 6.73 2.73 8.41-4.92 8.36-12.21 2.42-18.58 2.51-.15-1.63-.81-3.78-.38-5.67.39-1.71 1.99-3.15 3.06-4.71l1.33.84-1.4 3.52c2.69 4.25 6.4 2.06 9.41.85 1.54-.62 2.26-3.27 3.83-5.75zM307.97 97.73c.09-3.84.01-7.6 5.56-7.51 1.05 5.32 5.16 4.09 8.27 3.08 1.31-.43 1.71-3.64 2.6-5.8 2.61.38 3.71 3.21 1.83 6.75-2.29 4.31-7.71 6.57-12.73 5.25-1.77-.47-3.49-1.11-5.53-1.77zM272.93 127.56l2.31-4.86c4.99 4.82 9.44 4 15.14-2.65l-6.96-2.51c3.91-2.11 6.94-1.48 8.77.91.88 1.14.26 4.35-.78 5.88-5.12 7.5-11.8 8.62-18.48 3.23zM550.42 118.06c3.06.8 3.44 2.74 1.34 5.47-3.3 4.27-14.63 7.53-19.68 5.75-3.93-1.39-5.1-5.05-2.04-7.81 2.56-2.31 5.83-3.82 8.79-5.69l.8 1.25c-2.43 1.58-4.98 3.01-7.23 4.81-.94.75-1.9 2.47-1.64 3.42.27.97 1.96 2.05 3.13 2.18 5.78.61 11.03-1.12 15.51-4.71.84-.66.62-2.64 1.02-4.67zM435.02 115.73c1.15 4.75 1.4 5.54 5.96 4.92 4.46-.61 8.71-2.73 12.22-3.9-3.87 6.79-10.35 10.45-16.31 8.09-1.6-.63-3.42-2.46-3.75-4.04-.32-1.49 1.18-3.36 1.88-5.07zM437.3 94.3c7.28 4.11 17.19.92 20.37-5.97.2.21.57.43.56.64-.3 5.9-9.32 13.23-15 12.08-3.22-.66-5.5-2.46-5.93-6.75zM355.2 127.07c6.31 1.9 12.11 1.16 13.58-2.17.67-1.52-.68-3.94-1.18-6.24 2.6-.73 4.02 1.16 4.8 3.55 1.02 3.11-1.79 7.72-5.1 8.82-4.27 1.4-10.41-.4-12.1-3.96zM547.42 87.42c-1.12 1.26-2.02 2.87-3.39 3.72A22.55 22.55 0 01528 94.28c-1.41-.23-3.39-1.57-3.69-2.76-.29-1.13.93-3.26 2.09-4.02 2.86-1.88 6.07-3.22 9.15-4.78l.81 1.47-11.17 6c5.48 4.73 15.73 2.59 21.34-3.58.3.26.6.53.89.81zM417.89 96.28l-.88 6.77c3.53-.27 7.07-.45 10.58-.88.56-.07.98-1.26 2.07-2.78 1.19 5.52-2.18 6.33-5.09 7.26-4.65 1.48-9.57-.17-10.23-3.49-.65-3.36.52-5.93 3.55-6.88zM602.74 155.06c3.58-.16 7.39.67 8.96-3.21.44-1.09-1.53-3.16-2.53-5.05l3.95-.86c2.52 8.15-1.29 12.88-9.17 11.36-1.3-.25-2.94-1.4-3.39-2.54-.36-.9.88-2.43 1.4-3.68l1.09.3-.31 3.68zM367.94 27.95c-3.22 2.01-6.59 2.16-9.55.19-1.11-.74-1.97-3.71-1.37-4.75 1.28-2.2 3.6-3.8 5.49-5.64l.72.95-3.68 6.82 8.39 2.43zM635.37 134c-3.32 10.06-10.77 15.6-18.52 20.88L635.37 134zM370.61 58.19c-4.44 3.4-8.98 5.26-9.67 10.86 5.42.6 7.92-3.08 11.01-6.85-.84 4.82-6 9.13-9.78 8.83-3.07-.24-3.37-2.28-2.64-4.65 1.02-3.29 5.84-7.07 11.08-8.19zM497.34 147.54l-4.46-2.9.6-1.04c1.58 1 4.11 1.74 4.47 3.07.39 1.42-.86 3.85-2.13 5.06-4.38 4.15-10.73 4.31-15.74.2 7.08 3.98 11.92.46 17.26-4.39zM393.74 51.37c2.64-5.28 7.15-7.26 12.21-5.74 3.13.94 3.05 2.54 1.35 4.74-2.87 3.72-8.08 4.18-13.56 1zm1.91-.39c6.61 2.31 9.6 1.3 10.44-3.29-5.34-1.6-7-1.12-10.44 3.29zM557.51 156.31c2.64-.72 5.32-2.09 7.91-1.94 1.99.12 3.86 2.16 5.78 3.35-1.15 1.82-2.04 3.9-3.53 5.38-.93.93-2.75.97-4.54.63 1.19-.64 2.59-1.06 3.51-1.96 1-.98 1.56-2.41 2.31-3.64-1.36-.73-2.71-2.04-4.08-2.06-2.36-.04-4.73.72-7.1 1.15-.07-.31-.17-.61-.26-.91zM504.3 126.21c-3.45.45-6.89 1.16-10.35 1.21-1.1.02-3.02-1.61-3.13-2.63-.1-1.04 1.35-2.79 2.52-3.28a13.28 13.28 0 017.39-.79l-8.15 2.83.32 2.17 10.94-.53.46 1.02zM591.71 103.87l-5.62 1.64-.3-.55c.49-.43.9-1.08 1.47-1.25 2.36-.72 4.98-3.84 7.02.25 1.34 2.7-.72 6.61-4.06 7.73-1.75.59-3.7.55-5.78.29 3.03-2.1 8.58-1.48 7.27-8.11zM594.2 131.39h10.94c-.57 3.78 2.74 9.49-4.52 11.43.89-2.6 5.59-4.4 2.03-7.42-2.12-1.8-5.18-2.52-8.45-4.01zM299.61 57.09L271.68 73.2l-.58-.99 27.7-16.19.81 1.07zM452.8 58.31a7.8 7.8 0 018.9.04c1.17.79 2.28 3.67 1.73 4.62-1.3 2.24-3.61 3.89-5.94 5.08l3.87-7.24-8.56-2.5zM449.06 44.34c0-2.42.76-5.1-.25-6.47-.73-.99-3.85-.52-5.83-.2-2.24.36-4.39 1.27-6.89 1.12 3.47-1.23 6.87-2.95 10.45-3.44 1.52-.21 4.23 1.79 4.92 3.41 1.03 2.45-.54 4.58-2.4 5.58zM487.69 100.76c12.12-5.35 14.24-8.55 10.27-14.77 3.32 1.13 3.94 2.14 3.36 5.42-.99 5.55-6.43 9.49-13.63 9.35zM551.96 135.06l-1.76 5.76-.61-.04v-8.61c5.43-.08 6.6 2.39 3.66 8.65l-1.29-5.76zM364.68 82.16l-23.13 12.33-.49-.9 22.92-12.42.7.99zM565.63 99.65l4.27 1.2-.23 1.22c-1.87-.56-4.05-.73-5.46-1.86-.66-.53-.38-3.37.43-4.36 1.85-2.25 4.43-2.92 7.58-.99-5.71 1.14-5.71 1.14-6.59 4.79zM535.66 150.89c.82-2.73 2.18-5.14 2.01-7.44-.1-1.3-2.7-2.41-4.79-4.12 1.86.33 4.5.09 5.03 1.03a12.2 12.2 0 011.58 7.15c-.19 1.37-2.69 2.44-3.83 3.38zM347 52.43c-2.74.58-5.69.46-6.75-2.97-1.29-4.21 1.43-6.46 5.32-8.46-1.54 2.65-3.87 4.88-3.62 6.77.23 1.73 3.24 3.1 5.05 4.66zM388.83 30.98c-3.96 7.59 2.28 5.36 5.14 6.39l-.44 1.55c-2.47-.64-5.19-.87-7.28-2.14-.69-.42.21-3.48.39-5.34l2.19-.46zM599.29 177.71l3.47-9.61c2.84 3.42 2.08 5.71-3.47 9.61zM593.57 167.56l-5.97 9.79-1.31-.72 5.49-10.07 1.79 1zM492.29 242.96l-27.8 8.56-.42-1.35c8.39-2.65 16.77-5.35 25.19-7.89.82-.25 1.94.46 2.94.71l.09-.03zM62.04 373.67l23.56-11.46.63 1.29-23.39 11.79-.8-1.62zM106.89 342.47H93.97l-.01-.74h12.96l-.03.74zM281.45 401.93l-13.3 8.72.49-3.43-12.51-.92-.16-1.2c2.54-.37 5.16-1.34 7.59-.99 6.17.9 12 1.16 16.86-3.94l1.03 1.76zM268.03 258.79c-6.63-.08-10.28-4.77-9.71-12.84 2.16 5.11 3.6 10.8 9.71 12.84zM577.5 411.08l-6.86 7.26c-1.67-4.19.21-6.33 6.86-7.26z"/></g><defs><clipPath id="clip0"><path fill="#fff" d="M0 0h761.97v571.58H0z"/></clipPath></defs></svg>