<svg width="120" height="130" viewBox="0 0 120 130" fill="none" xmlns="http://www.w3.org/2000/svg">
<g opacity="0.05">
<path d="M100.344 94.3043C99.9967 94.743 99.6573 95.1734 99.3097 95.612C95.8335 99.3365 92.5311 103.251 88.8397 106.769C66.6334 127.941 39.1632 130.44 10.5094 128.661C7.65394 128.487 7.93535 126.881 8.66369 125.027C10.7908 119.656 13.8945 114.913 17.8673 110.692C28.9167 98.9641 44.2368 96.539 58.572 92.1524C68.7523 89.0404 78.767 85.8373 87.4989 79.5636C86.6712 79.4974 85.9843 79.7788 85.2973 80.0519C72.783 85.051 60.1031 89.1811 46.5956 91.0433C30.4065 93.2697 15.7071 99.0386 5.9324 113.341C5.50201 113.928 5.07162 114.524 4.64951 115.112C2.80382 114.185 3.76391 112.298 3.21765 110.924C3.30042 110.146 3.38318 109.368 3.46595 108.59C3.75563 107.878 4.18602 107.183 4.32672 106.438C10.6418 72.7022 29.5209 57.2249 63.9104 57.4566C70.5814 57.498 77.302 58.0856 83.9068 56.4717C85.4711 56.3641 87.0437 56.2565 88.608 56.1489C99.5414 55.5613 109.771 52.5734 119.265 47.0942C119.273 48.6337 119.281 50.1732 119.298 51.7043C116.567 59.6086 113.835 67.5045 111.104 75.4087C109.854 76.7661 109.142 78.38 108.861 80.1843C106.014 84.8937 103.175 89.6032 100.344 94.3043Z" fill="#006837"/>
<path d="M0.295981 96.4231C-3.47818 43.527 29.3636 13.2096 70.6642 0C69.4309 5.16464 68.0736 9.98165 67.1631 14.8814C65.2098 25.4342 65.7064 36.1028 66.3106 46.73C66.5341 50.6035 65.425 52.0188 61.4936 51.9526C55.9896 51.8698 50.4526 52.2671 45.0976 53.6576C40.0736 54.957 39.1301 52.7141 40.115 48.4433C40.9841 44.6609 41.8283 40.8784 42.1097 36.9056C39.246 41.3088 37.4334 46.0845 36.1339 51.1249C35.4718 53.7073 34.9504 56.2565 31.9128 57.7049C16.5845 64.9966 7.11595 77.3454 1.91821 93.2449C1.69474 93.9484 1.2478 94.5774 0.295981 96.4231Z" fill="#006837"/>
</g>
</svg>
